<svg xmlns="http://www.w3.org/2000/svg" viewBox="0 0 135 40" width="135" height="40" role="img" aria-labelledby="t"><title id="t">YouTube</title><style>@keyframes b{0%,46%{opacity:1}50%,96%{opacity:.25}}@keyframes a{0%,78%,100%{transform:none}84%{transform:translateX(4px)}90%{transform:none}95%{transform:translateX(2.5px)}}.b{animation:b 1.8s step-end infinite}.a{animation:a 7s cubic-bezier(.3,0,.2,1) infinite}@media (prefers-reduced-motion: reduce){*{animation:none!important}}</style><defs><path id="_202l" d="M366 0L231 0L231 591L27 591L27 700L570 700L570 591L366 591L366 0Z"/><path id="_2037" d="M385 0L250 0L250 246L14 700L167 700L319 382L469 700L621 700L385 246L385 0Z"/><path id="_203u" d="M364 -12L364 -12Q305 -12 265 10Q225 31 201 65L201 65L186 0L66 0L66 720L201 720L201 434Q225 469 265 493Q304 516 363 516L363 516Q432 516 487 482Q542 447 574 387Q605 327 605 252L605 252Q605 176 574 117Q542 57 488 23Q433 -12 364 -12ZM332 106L332 106Q391 106 429 147Q467 187 467 251L467 251Q467 316 429 357Q391 398 332 398L332 398Q273 398 235 357Q197 316 197 252L197 252Q197 187 235 147Q273 106 332 106Z"/><path id="_2044" d="M308 -12L308 -12Q232 -12 174 21Q115 53 83 112Q50 170 50 247L50 247Q50 326 82 387Q114 447 172 482Q230 516 308 516L308 516Q383 516 439 483Q495 450 526 394Q557 338 557 267L557 267Q557 256 557 244Q556 232 555 219L555 219L184 219Q188 163 222 131Q255 98 307 98L307 98Q344 98 369 114Q393 130 405 155L405 155L543 155Q529 108 496 70Q463 32 415 10Q367 -12 308 -12ZM308 406L308 406Q264 406 230 380Q196 354 186 301L186 301L421 301Q418 349 387 378Q355 406 308 406Z"/><path id="_205g" d="M305 -12L305 -12Q232 -12 175 22Q117 55 84 115Q50 174 50 252L50 252Q50 330 84 389Q117 448 175 482Q233 516 305 516L305 516Q378 516 436 482Q493 448 527 389Q560 330 560 252L560 252Q560 174 527 115Q493 55 435 22Q377 -12 305 -12ZM305 105L305 105Q354 105 388 142Q422 179 422 252L422 252Q422 325 389 362Q355 399 305 399L305 399Q256 399 222 362Q188 325 188 252L188 252Q188 179 222 142Q256 105 305 105Z"/><path id="_2068" d="M254 -12L254 -12Q161 -12 111 45Q60 102 60 211L60 211L60 504L195 504L195 225Q195 102 299 102L299 102Q349 102 383 137Q416 171 416 235L416 235L416 504L551 504L551 0L432 0L421 82Q399 39 356 14Q313 -12 254 -12Z"/><clipPath id="p"><rect width="135" height="40" rx="20"/></clipPath></defs><g clip-path="url(#p)"><rect width="135" height="40" fill="#070607"/><rect class="b" style="animation-delay:-8.1s" x="17" y="16" width="8" height="8" fill="#FC5000"/><g fill="#F7F6F2" transform="translate(35 25.2) scale(0.0145 -0.0145)"><use href="#_2037"/><use href="#_205g" x="545"/><use href="#_2068" x="1155"/><use href="#_202l" x="1771"/><use href="#_2068" x="2318"/><use href="#_203u" x="2934"/><use href="#_2044" x="3589"/></g><path class="a" style="animation-delay:-8.1s" d="M105.77 20h11m-4.5 -4.5l4.5 4.5l-4.5 4.5" fill="none" stroke="#F7F6F2" stroke-width="1.9" stroke-linecap="square"/></g><rect x=".5" y=".5" width="134" height="39" rx="19.5" fill="none" stroke="rgba(247,246,242,.3)"/></svg>
