<svg width="4096" height="1024" viewBox="0 0 4096 1024" fill="none" xmlns="http://www.w3.org/2000/svg">
<g clip-path="url(#clip0_786_24274)">
<rect width="4096" height="1024" fill="#0B121C"/>
<path d="M278.131 0H510.176H743.432L587.849 202.264L540.736 262.973C533.079 272.785 525.703 283.068 517.57 292.462L447.599 292.47L502.665 188.994C512.634 170.401 523.403 151.981 532.71 133.066L402.813 259.661C374.967 286.734 346.341 313.13 318.921 340.62L273.554 291.88C265.337 283.042 257.344 273.789 248.677 265.406L248.594 264.891C256.334 259.78 266.279 247.752 273.06 240.759C274.635 213.635 274.355 186.132 274.9 158.949L278.131 0Z" fill="#CF2B36"/>
<path d="M278.13 0H510.175L357.024 156.153L303.137 210.807C293.357 220.735 283.668 231.801 273.059 240.759C274.634 213.635 274.354 186.132 274.899 158.949L278.13 0Z" fill="#050B10"/>
<path d="M0 0H6.02458H278.129L274.898 158.949C274.353 186.132 274.633 213.635 273.058 240.759C266.277 247.752 256.332 259.78 248.592 264.891L248.675 265.406C232.708 282.099 216.08 298.153 199.953 314.693L0 216.511V0Z" fill="#FC933E"/>
<path d="M0 0H6.02458C6.04793 2.2293 5.54705 5.11207 6.87939 6.94372C13.1061 15.504 22.1391 23.5161 29.4141 31.3074L78.2407 83.5333L248.592 264.891L248.675 265.406C232.708 282.099 216.08 298.153 199.953 314.693L0 216.511V0Z" fill="#2644D3"/>
<path d="M0 216.512L199.953 314.694C181.622 335.063 161.054 353.887 141.784 373.401L0 516.052V216.512Z" fill="#CF2B36"/>
<path d="M4084.06 0H4095.84V279.07L3990.83 421.779L3991.65 292.571C3924.76 292.92 3857.88 292.93 3791 292.599C3834.75 250.694 3877.13 207.129 3919.96 164.277L4084.06 0Z" fill="#FC933E"/>
<path d="M4095.84 393.756V557.592V673.297L3991.09 738.65C3991.07 729.48 3989.66 709.784 3991.05 702.152C3990.41 692.341 3990.84 682.299 3990.83 672.454L3990.78 617.076L3990.14 456.729C4025.11 435.47 4060.23 413.905 4095.84 393.756Z" fill="#2644D3"/>
<path d="M4095.83 557.592V673.297L3991.09 738.65C3991.07 729.48 3989.66 709.784 3991.04 702.152C4003.59 686.257 4015.15 669.249 4027.03 652.84L4095.83 557.592Z" fill="#CF2B36"/>
<path d="M3466.82 685.311C3469.47 690.351 3542.78 766.281 3544.68 766.901C3540.75 773.261 3372.35 943.471 3371.1 943.931C3370.93 943.991 3370.75 944.011 3370.58 944.051C3372.02 945.251 3373.36 945.92 3375.11 946.51C3418.45 961.11 3462.87 973.401 3506.6 986.891L3619.63 1021.87C3626.31 1023.93 3653.6 1033.53 3658.57 1033.35C3657.27 1033.89 3656.1 1034.3 3654.67 1034.35C3631.14 1035.21 3607.3 1034.44 3583.75 1034.45L3446.41 1034.46L3242.44 1034.45C3207.51 1034.45 3172.52 1034.92 3137.6 1034.4C3135.55 1034.37 3133.94 1034.31 3132 1033.55C3138.75 1028.95 3145.41 1020.02 3151.11 1014.01L3191.11 972.12L3368.48 786.791L3436.22 717.241C3442.8 710.541 3463.19 692.101 3466.82 685.311Z" fill="#CF2B36"/>
<path d="M3790.6 648V1019.23L3789.3 1019.03C3782.96 1013.81 3777.32 1007.34 3771.54 1001.49L3736.23 965.65L3639.86 868.59C3632.61 861.22 3612.81 843.12 3608.7 836.02C3611.95 835.06 3732.16 708.76 3747.31 693.07C3760.49 679.41 3779.35 662.18 3790.6 648Z" fill="#2644D3"/>
<path d="M692.723 382C694.553 387.703 694.253 580.255 692.733 584.539C694.823 591.165 693.513 662.967 693.513 677.311V839.431C693.503 866.733 693.923 894.112 693.473 921.405C693.433 923.781 693.513 925.799 692.433 927.97C694.483 932.479 694.093 1008.24 693.323 1018.07L693.303 1018.79H561.323H322.863H85.986L86.046 1018.05C72.366 1003.06 59.365 987.363 46.074 972.021L0 919.448C42.693 868.023 83.044 814.245 124.155 761.542C136.424 776.773 246.373 894.772 247.903 900.011C254.493 895.977 278.623 865.173 285.043 857.723C317.823 820.12 350.343 782.297 382.613 744.258L620.393 467.656L669.903 409.305C676.133 402.01 688.393 389.812 692.723 382Z" fill="#2B40CC"/>
<path d="M496.173 814.051C507.153 818.322 518.243 826.275 528.533 832.197C556.463 848.268 583.943 865.029 611.793 881.225C632.713 893.397 654.023 904.901 674.943 917.134C680.093 920.147 688.423 923.741 692.433 927.97C694.483 932.479 694.093 1008.24 693.323 1018.07L693.303 1018.79H561.323H322.863L322.883 1018.12C327.353 1013.93 331.173 1008.64 335.133 1003.95L356.353 979.163C378.103 953.849 400.703 928.772 421.713 902.864C423.003 901.264 424.143 899.854 424.803 897.871C431.763 891.79 494.043 820.077 496.173 814.051Z" fill="#C82E35"/>
<path d="M692.732 584.539C694.822 591.165 693.512 662.967 693.512 677.311V839.431C693.502 866.733 693.922 894.112 693.472 921.405C693.432 923.781 693.512 925.799 692.432 927.97C688.422 923.741 680.092 920.147 674.942 917.134C654.022 904.901 632.712 893.397 611.792 881.225C583.942 865.029 556.462 848.268 528.532 832.197C518.242 826.275 507.152 818.322 496.172 814.051C509.922 800.271 521.702 784.292 534.482 769.606C567.132 732.184 599.512 694.528 631.612 656.641L674.272 606.743C680.082 599.949 688.352 592.202 692.732 584.539Z" fill="#060A0E"/>
<path d="M2816 0H2852.11H2979.56H3097.81H3256L3254.94 0.815523L3175.76 127.939C3160.15 152.998 3145.24 178.681 3128.98 203.309C3111.82 203.273 3094.74 202.519 3077.58 202.787C3093.33 167.026 3107.56 130.435 3122.59 94.3468C3021.06 218.113 2918.86 341.333 2816 464L2816 348.711V231.809V179.063V0.775589V0Z" fill="#C82E35"/>
<path d="M2816 0H2850.1H2970.45H3082.12L3082.36 0.603279C3066.72 20.4147 3050.91 40.0836 3034.91 59.6075C3022.11 75.5521 3009.66 91.7945 2996.69 107.612C2978.7 129.567 2960.29 151.237 2942.6 173.43L2857.25 278.84C2843.58 295.576 2830.66 313.516 2816 329.39V218.965V169.142V0.732616V0Z" fill="#060A0E"/>
<path d="M3638.35 0H3854L3852.91 1.93454C3846.82 17.6177 3795.09 81.3597 3782.29 98.2618C3745.09 147.362 3708.47 197.079 3670.63 245.677L3502.7 458.828L3329.05 681.893L3276.49 749.695C3266.59 762.422 3256.58 777.178 3244.85 788.224C3221.67 810.048 3171.95 838.021 3143.54 857.332C3060.54 913.762 2978.41 971.864 2893.24 1025C2893.23 1005.5 2892.68 985.799 2893.28 966.315C2940.99 901.587 2990.42 837.829 3039.18 773.86C3128.78 656.011 3219.01 538.646 3309.87 421.772L3440.53 253.025C3445.56 246.502 3466.59 222.052 3468.34 217.31C3468.8 216.073 3468.62 214.688 3468.76 213.377C3479.18 208.14 3617.29 27.5575 3638.43 1.18433L3638.35 0Z" fill="#C82E35"/>
<path d="M3789.37 299.822C3791.55 306.472 3790.19 360.679 3790.19 371.375C3790.2 425.204 3790.99 479.161 3790.16 532.977C3790.12 534.979 3790.16 536.761 3789.22 538.594C3789.16 538.718 3789.08 538.837 3789.02 538.958C3766.64 548.206 3743.21 555.417 3720.41 563.578L3605.24 605.31C3583.03 613.288 3560.65 621.256 3538.58 629.588C3527.78 633.667 3516.95 639.178 3505.8 642.166C3511.61 638.749 3526.31 619.055 3531.74 612.579C3554.77 585.275 3577.58 557.795 3600.18 530.142L3761.46 334.632C3767.85 326.737 3785.63 306.918 3789.37 299.822Z" fill="#F19238"/>
<path d="M2893 650.284C2912.72 635.92 2931.55 620.167 2951.03 605.435L3125.1 473.621C3239.71 386.849 3355.56 301.341 3469 213C3468.86 214.31 3469.04 215.696 3468.58 216.933C3466.83 221.675 3445.78 246.127 3440.75 252.651L3310 421.412C3219.08 538.296 3128.78 655.67 3039.12 773.528C2990.33 837.503 2940.87 901.266 2893.12 966L2893 650.284Z" fill="#2B40CC"/>
<path d="M1059.9 690.28C1067.59 692.74 1127.32 691.26 1139.3 691.27L1228.22 691.31C1243.63 691.31 1259.18 691.74 1274.58 691.23C1276.77 691.16 1278.43 690.98 1280.42 690C1275.86 698.45 1234.48 737.85 1225.06 747.46L1049.49 926.26C1042.43 933.5 961.736 1018 958.015 1019.15C956.621 1016.13 1050.64 722.72 1059.9 690.28Z" fill="#FC933E"/>
<g clip-path="url(#clip1_786_24274)">
<path d="M1280 0H1394.3H1629.5H2149.35L1924.72 155.665L1861.08 199.886C1849.27 208.098 1836.85 216.006 1825.58 224.947C1813.56 234.488 1796.01 281.62 1789.12 286.339C1766.22 279.877 1739.35 280.177 1718.16 291.99C1699.89 302.175 1688.46 319.767 1682.95 339.596C1675.51 366.382 1677.93 398.826 1691.86 423.174C1695.69 429.864 1700.38 435.798 1705.68 441.376C1691.2 467.137 1677.95 493.774 1664.26 519.977L1598.54 646.166L1406.09 1024H1280V425.128V202.22V0Z" fill="#0B121C"/>
<path d="M1280 0H1394.3H1629.5L1394.04 286.432C1355.96 332.598 1318.55 379.358 1280 425.128V202.22V0Z" fill="#C1294B"/>
<path d="M1280 0H1394.3L1317.48 136.677L1292.62 180.525C1288.51 187.701 1284.63 195.381 1280 202.22V0Z" fill="#0B121C"/>
<path d="M2210.27 1024C2270.75 966.017 2332.75 909.394 2394.11 852.334L2660.09 605.018L2772.12 501.216L2799.81 475.782C2804.31 471.65 2810.55 467.067 2814.01 462.1C2814.51 463.255 2814.85 464.358 2814.92 465.616C2815.57 478.609 2815.92 613.662 2814.38 617.289C2814.26 617.565 2814.12 617.831 2813.99 618.102C2814.82 620.013 2814.93 621.561 2814.97 623.603C2815.57 655.063 2815.03 686.645 2815.03 718.117L2815.01 903.042C2815.01 918.201 2816.25 1017.85 2814.47 1022.54C2814.22 1023.18 2814.07 1023.37 2813.69 1024H2440.26H2210.27Z" fill="#D02480"/>
<path d="M2440.25 1024C2446.63 1019.59 2455.36 1008.12 2460.95 1002.02L2510.43 947.921L2702.22 738.966L2780.01 654.973L2801.77 631.624C2805.82 627.312 2810.62 622.957 2813.99 618.102C2814.82 620.013 2814.93 621.561 2814.97 623.603C2815.57 655.063 2815.03 686.645 2815.03 718.117L2815.01 903.042C2815.01 918.201 2816.25 1017.85 2814.47 1022.54C2814.22 1023.18 2814.07 1023.37 2813.69 1024H2440.25Z" fill="#0B121C"/>
<path d="M2149.35 0H2167.42C2122.38 67.8806 2076.94 135.492 2031.1 202.832L1991.62 261.868C1986.51 269.454 1981.18 279.853 1974.64 285.997L1973.4 286.98C1973.29 288.314 1973.18 289.635 1973.16 290.974C1959.34 310.383 1945.88 330.463 1933.16 350.614C1921.02 350.711 1908.86 350.941 1896.72 350.858L1896.64 285.699L1860.88 286.044L1860.9 402.146C1860.89 417.899 1859.48 442.138 1861.09 457.041C1854.36 470.409 1841.54 486.788 1832.88 499.531C1816.61 523.493 1800.84 547.974 1783.9 571.466C1776.13 546.214 1768.2 521.012 1760.11 495.861L1705.76 496.248L1705.75 662.411L1720.08 662.241L1469.79 1024H1406.09L1598.54 646.166L1664.26 519.977C1677.95 493.774 1691.2 467.137 1705.68 441.376C1700.37 435.798 1695.69 429.864 1691.86 423.174C1677.93 398.826 1675.51 366.382 1682.95 339.596C1688.46 319.767 1699.89 302.175 1718.16 291.99C1739.35 280.177 1766.21 279.877 1789.12 286.339C1796.01 281.62 1813.55 234.488 1825.58 224.947C1836.85 216.006 1849.26 208.098 1861.08 199.886L1924.71 155.665L2149.35 0Z" fill="#C1294B"/>
<path d="M1705.68 441.376C1700.38 435.798 1695.7 429.864 1691.87 423.174C1677.93 398.826 1675.52 366.382 1682.95 339.596C1688.46 319.767 1699.89 302.175 1718.16 291.99C1739.35 280.177 1766.22 279.877 1789.12 286.339C1807.48 292.646 1821.12 303.604 1829.65 321.289C1832.81 327.828 1834.86 334.564 1836.65 341.565L1799.14 341.5C1795.62 331.478 1791.1 322.224 1781.01 317.383C1778.98 316.41 1776.81 315.395 1774.63 314.853C1765.34 333.762 1754.53 352.121 1744.51 370.665C1737.74 383.184 1731.52 397.167 1723.53 408.897C1730.88 419.394 1740 426.206 1752.82 428.487C1763.62 430.408 1775.73 428.879 1784.78 422.32C1792.24 416.911 1796.11 409.351 1798.7 400.705C1811.4 400.589 1824.18 400.743 1836.87 400.221C1832.02 420.573 1822.37 437.492 1804.2 448.784C1785.33 460.513 1758.42 462.732 1736.96 457.606C1725.09 454.771 1714.92 449.29 1705.68 441.376Z" fill="#EBECEF"/>
<path d="M1723.53 408.897C1713.98 391.445 1712.27 368.816 1717 349.571C1720.04 337.188 1726.26 325.414 1737.52 318.755C1748.64 312.173 1762.35 311.698 1774.63 314.853C1765.33 333.762 1754.53 352.121 1744.5 370.665C1737.74 383.184 1731.52 397.167 1723.53 408.897Z" fill="#0B121C"/>
<path d="M2708.98 0H2813.69C2814.37 1.08426 2814.76 2.0669 2814.87 3.34281C2815.58 11.2754 2815.94 62.315 2814.63 67.6278C2814.49 68.195 2814.32 68.57 2814.1 69.1299C2811.56 72.9015 2752.9 115.197 2745.29 120.891C2688.64 163.227 2632.32 205.982 2576.31 249.152C2563.86 258.602 2520.7 293.375 2510.68 297.174C2511.33 296.687 2511.95 296.18 2512.59 295.689C2513.26 295.178 2513.94 294.694 2514.51 294.068C2521.88 285.978 2527.98 274.313 2534.03 265.108L2573.39 205.688L2660.61 74.4526C2676.28 50.9078 2692.57 27.601 2707.67 3.69072C2708.53 2.32772 2709.03 1.63096 2708.98 0Z" fill="#D02480"/>
<path d="M1705.76 496.248L1760.11 495.861C1768.2 521.012 1776.13 546.214 1783.91 571.466C1789.24 587.846 1794.43 604.27 1799.49 620.738C1812.98 579.299 1825.02 537.055 1839.62 496.021L1891.63 495.926L1891.64 661.973C1880.2 661.955 1868.77 662.083 1857.33 662.356C1857.38 620.964 1856.87 579.493 1857.66 538.112C1843.5 579.133 1830.64 620.687 1817.18 661.954C1805.24 661.967 1793.28 661.86 1781.34 662.355L1761.72 603.96C1759.28 605.163 1741.37 631.231 1740.16 635.007C1739.93 635.695 1739.8 636.35 1739.69 637.06L1739.53 638.003L1739.62 661.972C1733.11 661.994 1726.57 661.871 1720.08 662.241L1705.75 662.411L1705.76 496.248Z" fill="#EBECEF"/>
<path d="M1739.46 537.383C1746.38 559.716 1754.55 581.696 1761.72 603.961C1759.29 605.164 1741.37 631.232 1740.16 635.008C1739.94 635.696 1739.81 636.351 1739.69 637.061L1739.53 638.004C1739.96 604.492 1739.67 570.898 1739.46 537.383Z" fill="#C1294B"/>
<path d="M1974.64 285.997L2008.7 285.609L2008.76 456.141L1973.23 456.795L1973.23 384.01C1952.6 384.028 1931.85 383.619 1911.24 384.125C1906.45 391.216 1901.83 398.55 1896.77 405.449C1896.66 422.545 1896.64 439.641 1896.7 456.738C1884.86 456.768 1872.92 456.509 1861.09 457.041C1859.49 442.138 1860.9 417.899 1860.9 402.146L1860.88 286.044L1896.65 285.699L1896.72 350.858C1908.86 350.941 1921.02 350.711 1933.17 350.614C1945.88 330.463 1959.34 310.383 1973.16 290.974C1973.18 289.635 1973.3 288.314 1973.4 286.98L1974.64 285.997Z" fill="#EBECEF"/>
<path d="M1973.16 290.975L1973.27 350.643L1933.16 350.615C1945.88 330.464 1959.34 310.384 1973.16 290.975Z" fill="#0B121C"/>
<path d="M1896.71 384.198L1911.24 384.125C1906.45 391.216 1901.83 398.55 1896.77 405.449L1896.71 384.198Z" fill="#C1294B"/>
<path d="M2348.9 285.444L2367.58 285.332C2367.92 285.901 2368.22 286.414 2368.39 287.058C2369.88 292.578 2368.8 329.596 2368.81 337.812L2368.92 413.048C2368.93 425.955 2369.44 439.083 2368.87 451.97C2368.8 453.536 2368.5 454.715 2367.68 456.059C2353.8 456.205 2339.92 456.453 2326.04 456.804C2326.04 452.852 2259.66 348.858 2252.95 337.449L2252.9 456.731L2235.45 456.692L2217.82 456.829L2217.77 285.972C2231.64 285.998 2245.5 285.831 2259.36 285.469C2269.3 302.373 2332.72 401.616 2332.97 408.359C2333.35 407.674 2333.72 406.997 2333.94 406.237C2335.63 400.296 2334.4 372.703 2334.4 364.733C2334.41 340.148 2335.65 314.848 2334.22 290.337C2334.12 288.621 2333.78 287.271 2332.98 285.742C2338.27 285.719 2343.59 285.548 2348.9 285.444Z" fill="#EBECEF"/>
<path d="M2171.87 495.968L2205.26 495.715L2205.43 659.453L2205.19 660.64C2201.71 662.648 2171.59 661.86 2165.11 661.913C2156.71 649.615 2149.16 636.421 2141.3 623.756L2093.36 546.781L2093.41 661.574C2082.36 661.653 2071.31 661.837 2060.26 662.127L2060.27 495.956L2099.96 495.883C2124.29 534.949 2148.26 574.246 2171.85 613.767L2171.87 495.968Z" fill="#EBECEF"/>
<path d="M2093.7 285.722L2139.43 285.717C2160.23 342.219 2178.96 399.711 2198.64 456.628C2186.51 456.24 2174.3 456.507 2162.16 456.536L2150.12 419.525L2140.18 419.598L2081.85 419.482L2070.23 456.096L2033.23 456.055L2093.7 285.722Z" fill="#EBECEF"/>
<path d="M2115.72 319.262C2119.33 326.224 2121.43 335.068 2123.92 342.555L2139.37 389.076L2114.77 389.057L2092.48 389.118C2100.08 365.93 2106.92 341.988 2115.72 319.262Z" fill="#0B121C"/>
<path d="M2301.79 491.612C2312.14 491.008 2323.04 491.84 2333.07 494.555C2349.38 498.97 2363.68 509.195 2372.06 524.024C2374.97 529.176 2380.88 540.386 2379.25 546.399C2367.21 546.001 2355.08 546.297 2343.03 546.329C2343.25 545.415 2343.41 544.831 2343.27 543.886C2342.51 538.702 2338.69 533.303 2334.68 530.084C2325.06 522.337 2312.1 520.045 2300.07 521.568C2289.13 522.951 2279.18 527.908 2272.5 536.84C2261.74 551.251 2260.08 574.721 2262.66 592.166C2264.69 605.912 2270.11 619.689 2281.63 628.157C2291.31 635.275 2304.04 637.441 2315.75 635.436C2325.61 633.749 2334.65 628.741 2340.45 620.453C2343.87 615.558 2347.95 606.206 2346.74 600.192C2346.7 600.04 2346.66 599.891 2346.63 599.74C2333.47 599.295 2320.2 599.655 2307.03 599.697C2307.34 599.202 2307.67 598.648 2307.86 598.095C2309.32 593.777 2309.01 575.773 2307.14 571.954L2320.13 571.991L2379.22 571.637C2379.46 572.018 2379.56 572.16 2379.76 572.605C2381.37 576.161 2381.02 657.412 2379.48 661.27C2370.76 662.027 2361.76 661.853 2352.99 662.116C2353.25 661.654 2353.57 661.149 2353.74 660.637C2355.17 656.476 2354.72 645.405 2352.83 641.336C2352.71 642.566 2352.39 643.162 2351.63 644.165C2343.19 655.365 2327.5 663.297 2313.75 665.029C2294.05 667.509 2272.05 663.3 2256.29 650.849C2238.54 636.818 2229.33 614.731 2226.93 592.671C2224.18 567.311 2228.39 538.692 2244.95 518.442C2259.66 500.453 2279.53 493.721 2301.79 491.612Z" fill="#EBECEF"/>
<path d="M1919.16 495.938L2033.19 495.968L2033.2 526.964L1953.87 526.855L1953.84 561.957L2024.48 561.967C2024.37 572.303 2024.49 582.648 2024.51 592.986L1953.81 593.012L1953.8 632.22L2034.8 632.356L2034.78 662.259C1997.66 660.782 1956.46 661.622 1919.14 662.221L1919.16 495.938Z" fill="#EBECEF"/>
<path d="M2124.41 740.777C2125.8 740.831 2127.06 741.156 2128.4 741.495C2130.36 743.043 2131.56 744.587 2131.77 747.168C2132.07 750.961 2130.85 753.739 2128.47 756.52C2127.39 756.364 2126.19 756.221 2125.18 755.812C2123.42 755.105 2122.25 753.122 2121.8 751.367C2120.85 747.67 2122.48 743.835 2124.41 740.777Z" fill="#0B121C"/>
<path d="M2162.99 739.578C2165.81 739.899 2168.29 740.753 2170.09 743.073C2171.91 745.415 2172.46 748.259 2171.9 751.144C2171.13 755.175 2169.24 756.885 2166.04 759.053C2165.28 758.962 2164.51 758.867 2163.75 758.72C2161.3 758.243 2159.56 756.943 2158.23 754.82C2156.83 752.584 2156.53 749.932 2157.09 747.382C2157.95 743.456 2159.76 741.63 2162.99 739.578Z" fill="#0B121C"/>
<path d="M1868.93 739.828C1871.04 740.05 1872.91 740.301 1874.52 741.812C1876.05 743.25 1876.57 743.922 1876.74 745.982C1875.1 747.445 1874.44 747.159 1872.3 747.256C1870.55 747.355 1868.45 747.637 1866.72 747.389C1864.89 747.126 1864.25 746.441 1863.18 745.028L1863.7 743.37C1865.3 741.768 1866.92 740.846 1868.93 739.828Z" fill="#0B121C"/>
<path d="M2239.76 750.365C2239.81 750.363 2239.86 750.355 2239.92 750.358C2241.68 750.459 2242.25 750.306 2243.48 751.614C2243.47 752.368 2243.36 752.95 2243.01 753.627C2241.15 757.196 2238.59 758.473 2234.97 759.602C2234.55 759.392 2233.99 759.121 2233.58 758.864C2231.67 757.679 2231.02 756.614 2230.56 754.498C2230.84 753.954 2230.9 753.745 2231.26 753.299C2233.14 750.9 2236.95 750.713 2239.76 750.365Z" fill="#0B121C"/>
</g>
</g>
<path d="M1010.63 226.975L1010.82 445.227C994.944 461.377 977.966 476.647 961.487 492.189L860.979 586.576L782.338 660.706C768.542 673.726 754.888 687.956 740.289 700.026C739.124 700.996 738.512 701.396 737 701.456V577.671V385.97C756.065 376.019 774.565 364.326 793.217 353.55L931.676 273.307C957.094 258.564 982.413 242.828 1008.48 229.309L1010.63 226.975Z" fill="#2644D3"/>
<path d="M737 385.97C756.065 376.019 774.565 364.326 793.217 353.55L931.676 273.307C957.094 258.564 982.413 242.828 1008.48 229.309C1001.36 241.618 990.607 253.209 981.806 264.459L929.784 331.235L737 577.671V385.97Z" fill="#050B10"/>
<path d="M1010.04 0L1010.63 226.974L1008.48 229.308C982.413 242.827 957.094 258.563 931.676 273.306L793.217 353.549C774.565 364.325 756.065 376.018 737 385.969V312.19C762.448 281.856 789.07 252.361 815.174 222.581L945.398 73.92C966.971 49.338 989.028 25.058 1010.04 0Z" fill="#FC933E"/>
<defs>
<clipPath id="clip0_786_24274">
<rect width="4096" height="1024" fill="white"/>
</clipPath>
<clipPath id="clip1_786_24274">
<rect width="1535" height="1024" fill="white" transform="translate(1280)"/>
</clipPath>
</defs>
</svg>
