<svg xmlns="http://www.w3.org/2000/svg" width="1280" height="640" viewBox="0 0 1280 640"><desc>Animated brand cover: « Subtraction for life, addition for thought. » The monkey + CHAN wordmark logo on a basalt canvas with a single orange accent.</desc><style>.cv-reveal-1 {
      animation: kf-cv-reveal-1 0.7s cubic-bezier(0.34, 1.56, 0.64, 1) 0s 1 both;
    }
    @keyframes kf-cv-reveal-1 {
      from { opacity: 0; transform: translateY(14px); }
      to   { opacity: 1; transform: translateY(0); }
    }
    .cv-reveal-2 {
      animation: kf-cv-reveal-2 0.7s cubic-bezier(0.34, 1.56, 0.64, 1) 0.12s 1 both;
    }
    @keyframes kf-cv-reveal-2 {
      from { opacity: 0; transform: translateY(12px); }
      to   { opacity: 1; transform: translateY(0); }
    }
    .cv-reveal-3 {
      animation: kf-cv-reveal-3 0.7s cubic-bezier(0.34, 1.56, 0.64, 1) 0.24s 1 both;
    }
    @keyframes kf-cv-reveal-3 {
      from { opacity: 0; transform: translateY(12px); }
      to   { opacity: 1; transform: translateY(0); }
    }
    .cv-reveal-4 {
      animation: kf-cv-reveal-4 0.7s cubic-bezier(0.34, 1.56, 0.64, 1) 0.36s 1 both;
    }
    @keyframes kf-cv-reveal-4 {
      from { opacity: 0; transform: translateY(12px); }
      to   { opacity: 1; transform: translateY(0); }
    }
    .cv-shimmer-5 {
      animation: kf-cv-shimmer-5 7s ease-in-out infinite;
    }
    @keyframes kf-cv-shimmer-5 {
      0%, 100% { opacity: 1; }
      50% { opacity: 0.72; }
    }
    .cv-sweep-6 {
      animation: kf-cv-sweep-6 5.5s linear infinite 1.2s;
    }
    @keyframes kf-cv-sweep-6 {
      0%, 58% { transform: translateX(0); }
      100% { transform: translateX(1040px); }
    }
    .cv-drift-7 {
      animation: kf-cv-drift-7 4s ease-in-out infinite 0s;
      transform-box: fill-box;
      transform-origin: center;
    }
    @keyframes kf-cv-drift-7 {
      0%, 100% { transform: translateY(0) rotate(1.5deg); }
      50% { transform: translateY(-7px) rotate(-1.5deg); }
    }
    .cv-blink-8 {
      animation: kf-cv-blink-8 6s ease-in-out infinite;
      transform-box: fill-box;
      transform-origin: center;
    }
    @keyframes kf-cv-blink-8 {
      0%, 92%, 100% { transform: scaleY(1); }
      96% { transform: scaleY(0.1); }
    }
    .cv-drift-9 {
      animation: kf-cv-drift-9 3.6s ease-in-out infinite 0s;
      transform-box: fill-box;
      transform-origin: center;
    }
    @keyframes kf-cv-drift-9 {
      0%, 100% { transform: translateY(0) rotate(8deg); }
      50% { transform: translateY(-7px) rotate(-8deg); }
    }
    .cv-drift-10 {
      animation: kf-cv-drift-10 4.2s ease-in-out infinite 0.5s;
      transform-box: fill-box;
      transform-origin: center;
    }
    @keyframes kf-cv-drift-10 {
      0%, 100% { transform: translateY(0) rotate(-6deg); }
      50% { transform: translateY(-9px) rotate(6deg); }
    }
    .cv-drift-11 {
      animation: kf-cv-drift-11 4.6s ease-in-out infinite 0.2s;
      transform-box: fill-box;
      transform-origin: center;
    }
    @keyframes kf-cv-drift-11 {
      0%, 100% { transform: translateY(0) rotate(6deg); }
      50% { transform: translateY(-8px) rotate(-6deg); }
    }
    .cv-drift-12 {
      animation: kf-cv-drift-12 3.9s ease-in-out infinite 0.8s;
      transform-box: fill-box;
      transform-origin: center;
    }
    @keyframes kf-cv-drift-12 {
      0%, 100% { transform: translateY(0) rotate(-8deg); }
      50% { transform: translateY(-10px) rotate(8deg); }
    }
    .cv-drift-13 {
      animation: kf-cv-drift-13 4.3s ease-in-out infinite 0.3s;
      transform-box: fill-box;
      transform-origin: center;
    }
    @keyframes kf-cv-drift-13 {
      0%, 100% { transform: translateY(0) rotate(7deg); }
      50% { transform: translateY(-7px) rotate(-7deg); }
    }
    .cv-drift-14 {
      animation: kf-cv-drift-14 3.7s ease-in-out infinite 0.6s;
      transform-box: fill-box;
      transform-origin: center;
    }
    @keyframes kf-cv-drift-14 {
      0%, 100% { transform: translateY(0) rotate(-7deg); }
      50% { transform: translateY(-9px) rotate(7deg); }
    }
    .cv-drift-15 {
      animation: kf-cv-drift-15 4.1s ease-in-out infinite 0.1s;
      transform-box: fill-box;
      transform-origin: center;
    }
    @keyframes kf-cv-drift-15 {
      0%, 100% { transform: translateY(0) rotate(8deg); }
      50% { transform: translateY(-8px) rotate(-8deg); }
    }
    @media (prefers-reduced-motion: reduce) {
      * { animation: none !important; }
    }</style><defs><linearGradient id="cv-gleam" x1="0" x2="1" y1="0" y2="0"><stop offset="0" stop-color="#FFF" stop-opacity="0"/><stop offset=".5" stop-color="#FFF" stop-opacity=".5"/><stop offset="1" stop-color="#FFF" stop-opacity="0"/></linearGradient><clipPath id="cv-nameclip"><path d="M131.74 286.17q-13.99 0-22.52-8.71-8.53-8.72-8.53-24.39v-59.48q0-18.75 7.43-28.71 7.44-9.96 24.21-9.96 9.15 0 16.29 3.37 7.15 3.37 11.25 10.07t4.1 16.88v22.27h-25.64v-19.04q0-5.79-1.46-7.8-1.47-2.02-4.54-2.02-3.59 0-4.84 2.6-1.24 2.6-1.24 6.92v64.53q0 5.35 1.57 7.54 1.58 2.2 4.51 2.2 3.29 0 4.65-2.71 1.35-2.71 1.35-7.03v-23.22h25.93v24.39q0 16.99-8.57 24.65-8.57 7.65-23.95 7.65m67.6-1.17h-26.95V156.09h26.95v29.96q2.13-6.15 6.52-9.12 4.4-2.97 10.26-2.97 11.42 0 16.62 7.18t5.2 19.27V285h-26.51v-82.91q0-3.59-1.5-5.86t-4.73-2.27q-2.71 0-4.28 2.34-1.58 2.35-1.58 5.57zm68.85 1.17q-9.15 0-13.95-4.25-4.8-4.24-6.56-11.64-1.75-7.4-1.75-16.77 0-10.04 1.97-16.45 1.98-6.41 6.78-10.51t13.22-6.96l16.26-5.56v-11.28q0-8.86-5.79-8.86-5.27 0-5.27 7.17v6.6h-25.49q-.07-.59-.07-1.51v-2.08q0-16.41 7.73-23.26 7.72-6.85 24.49-6.85 8.79 0 15.75 3.12 6.96 3.11 11.02 9.19 4.07 6.08 4.07 15.01V285h-26.07v-13.04q-1.91 6.89-6.3 10.55-4.4 3.66-10.04 3.66m10.33-20.36q3.22 0 4.39-2.71 1.18-2.71 1.18-5.86v-30.61q-5.42 2.19-8.43 5.53-3 3.33-3 9.77v14.14q0 9.74 5.86 9.74M346.93 285h-26.22V175.14h26.22v13.99q1.46-6.3 5.45-10.73 4-4.44 11.1-4.44 11.43 0 16.59 7.04 5.16 7.03 5.16 19.26V285h-25.85v-82.03q0-3.22-1.32-5.97t-4.54-2.75q-3 0-4.43 2.09t-1.8 5.2q-.36 3.11-.36 6.19zm107.44 0h-23.29V156.09h39.26l10.84 78.59 10.77-78.59h39.62V285h-23.58v-92.87L493.19 285h-23.14l-15.68-92.87zm118.95 1.17q-11.72 0-18.68-4.39-6.96-4.4-9.96-12.67-3-8.28-3-19.93v-44.16q0-15.31 8.79-23.18 8.79-7.88 24.17-7.88 31.64 0 31.64 31.06V213q0 14.5-.29 19.49H567.9v21.24q0 2.93.37 5.75.36 2.81 1.64 4.65 1.29 1.83 4.14 1.83 4.1 0 5.13-3.56 1.02-3.55 1.02-9.26v-10.55h26.08v6.23q0 12.3-3.04 20.62-3.04 8.31-10.26 12.52-7.21 4.21-19.66 4.21m-5.57-81.52v14.8h12.45v-14.8q0-5.93-1.46-8.53-1.47-2.6-4.4-2.6-3.14 0-4.87 2.49-1.72 2.49-1.72 8.64M642.02 285H615.8V175.14h26.22v13.99q1.47-6.3 5.46-10.73 3.99-4.44 11.09-4.44 11.43 0 16.59 7.04 5.17 7.03 5.17 19.26V285h-25.86v-82.03q0-3.22-1.32-5.97t-4.54-2.75q-3 0-4.43 2.09t-1.79 5.2q-.37 3.11-.37 6.19zm78.15 19.04q-7.62 0-13.07-.77-5.46-.77-9.78-2.74-4.32-1.98-8.64-5.57l8.86-15.16q9.59 5.71 19.19 5.71 6.3 0 9.37-4.03 3.08-4.02 3.08-10.47v-10.77q-3.15 11.28-16.77 11.28-7.84 0-12.67-3.73-4.84-3.74-7.04-10.11-2.19-6.37-2.19-14.21v-39.48q0-8.86 1.9-15.63 1.91-6.78 6.67-10.59t13.33-3.81q7.25 0 11.31 3.67 4.07 3.66 5.46 9.88v-12.37h26.73v94.19q0 18.67-8.6 26.69-8.61 8.02-27.14 8.02m2.86-52.29q6.15 0 6.15-11.13v-37.36q0-3-1.72-6.15t-4.73-3.15q-3.81 0-4.76 2.82t-.95 6.48v37.36q0 3.95.99 7.54t5.02 3.59"/></clipPath><pattern id="cv-dotgrid" width="26" height="26" patternUnits="userSpaceOnUse"><circle cx="2" cy="2" r="1.6" fill="#070607" fill-opacity=".06"/></pattern></defs><rect width="1280" height="640" fill="#E2E2DF"/><rect width="1280" height="640" fill="url(#cv-dotgrid)"/><rect width="13" height="13" x="300" y="96" fill="#F5F28E" class="cv-drift-9"/><rect width="10" height="10" x="980" y="92" fill="#FC5000" class="cv-drift-10"/><rect width="14" height="14" x="170" y="545" fill="#524AE9" class="cv-drift-11"/><rect width="10" height="10" x="705" y="560" fill="#F5F28E" class="cv-drift-12"/><rect width="12" height="12" x="1085" y="548" fill="#FC5000" class="cv-drift-13"/><rect width="11" height="11" x="832" y="250" fill="#524AE9" class="cv-drift-14"/><rect width="9" height="9" x="1232" y="360" fill="#F5F28E" class="cv-drift-15"/><g transform="translate(96,285)"><g class="cv-reveal-1"><path fill="#070607" d="M35.74 1.17q-13.99 0-22.52-8.71-8.53-8.72-8.53-24.39v-59.48q0-18.75 7.43-28.71 7.44-9.96 24.21-9.96 9.15 0 16.29 3.37 7.15 3.37 11.25 10.07t4.1 16.88v22.27H42.33v-19.04q0-5.79-1.46-7.8-1.47-2.02-4.54-2.02-3.59 0-4.84 2.6-1.24 2.6-1.24 6.92v64.53q0 5.35 1.57 7.54 1.58 2.2 4.51 2.2 3.29 0 4.65-2.71 1.35-2.71 1.35-7.03v-23.22h25.93v24.39q0 16.99-8.57 24.65-8.57 7.65-23.95 7.65M103.34 0H76.39v-128.91h26.95v29.96q2.13-6.15 6.52-9.12 4.4-2.97 10.26-2.97 11.42 0 16.62 7.18t5.2 19.27V0h-26.51v-82.91q0-3.59-1.5-5.86t-4.73-2.27q-2.71 0-4.28 2.34-1.58 2.35-1.58 5.57zm68.85 1.17q-9.15 0-13.95-4.25-4.8-4.24-6.56-11.64-1.75-7.4-1.75-16.77 0-10.04 1.97-16.45 1.98-6.41 6.78-10.51t13.22-6.96l16.26-5.56v-11.28q0-8.86-5.79-8.86-5.27 0-5.27 7.17v6.6h-25.49q-.07-.59-.07-1.51v-2.08q0-16.41 7.73-23.26 7.72-6.85 24.49-6.85 8.79 0 15.75 3.12 6.96 3.11 11.02 9.19 4.07 6.08 4.07 15.01V0h-26.07v-13.04q-1.91 6.89-6.3 10.55-4.4 3.66-10.04 3.66m10.33-20.36q3.22 0 4.39-2.71 1.18-2.71 1.18-5.86v-30.61q-5.42 2.19-8.43 5.53-3 3.33-3 9.77v14.14q0 9.74 5.86 9.74M250.93 0h-26.22v-109.86h26.22v13.99q1.46-6.3 5.45-10.73 4-4.44 11.1-4.44 11.43 0 16.59 7.04 5.16 7.03 5.16 19.26V0h-25.85v-82.03q0-3.22-1.32-5.97t-4.54-2.75q-3 0-4.43 2.09t-1.8 5.2q-.36 3.11-.36 6.19zm107.44 0h-23.29v-128.91h39.26l10.84 78.59 10.77-78.59h39.62V0h-23.58v-92.87L397.19 0h-23.14l-15.68-92.87zm118.95 1.17q-11.72 0-18.68-4.39-6.96-4.4-9.96-12.67-3-8.28-3-19.93v-44.16q0-15.31 8.79-23.18 8.79-7.88 24.17-7.88 31.64 0 31.64 31.06V-72q0 14.5-.29 19.49H471.9v21.24q0 2.93.37 5.75.36 2.81 1.64 4.65 1.29 1.83 4.14 1.83 4.1 0 5.13-3.56 1.02-3.55 1.02-9.26v-10.55h26.08v6.23q0 12.3-3.04 20.62-3.04 8.31-10.26 12.52-7.21 4.21-19.66 4.21m-5.57-81.52v14.8h12.45v-14.8q0-5.93-1.46-8.53-1.47-2.6-4.4-2.6-3.14 0-4.87 2.49-1.72 2.49-1.72 8.64M546.02 0H519.8v-109.86h26.22v13.99q1.47-6.3 5.46-10.73 3.99-4.44 11.09-4.44 11.43 0 16.59 7.04 5.17 7.03 5.17 19.26V0h-25.86v-82.03q0-3.22-1.32-5.97t-4.54-2.75q-3 0-4.43 2.09t-1.79 5.2q-.37 3.11-.37 6.19zm78.15 19.04q-7.62 0-13.07-.77-5.46-.77-9.78-2.74-4.32-1.98-8.64-5.57l8.86-15.16Q611.13.51 620.73.51q6.3 0 9.37-4.03 3.08-4.02 3.08-10.47v-10.77q-3.15 11.28-16.77 11.28-7.84 0-12.67-3.73-4.84-3.74-7.04-10.11-2.19-6.37-2.19-14.21v-39.48q0-8.86 1.9-15.63 1.91-6.78 6.67-10.59t13.33-3.81q7.25 0 11.31 3.67 4.07 3.66 5.46 9.88v-12.37h26.73v94.19q0 18.67-8.6 26.69-8.61 8.02-27.14 8.02m2.86-52.29q6.15 0 6.15-11.13v-37.36q0-3-1.72-6.15t-4.73-3.15q-3.81 0-4.76 2.82t-.95 6.48v37.36q0 3.95.99 7.54t5.02 3.59"/></g></g><g clip-path="url(#cv-nameclip)"><g class="cv-sweep-6"><rect width="64" height="210" x="-170" y="150" fill="url(#cv-gleam)" transform="rotate(16 -138 255)"/></g></g><g class="cv-reveal-2"><rect width="230" height="12" x="100" y="305" fill="#FC5000" class="cv-shimmer-5" rx="2"/></g><g transform="translate(100,384)"><g class="cv-reveal-3"><path fill="#070607" d="M14.31-4.08h-3.26l-3.23-5.95 3.23-5.95h3.26l-3.29 5.95zm-6.32 0h-3.3l-3.23-5.95 3.23-5.95h3.3l-3.33 5.95zm27 4.49q-2.62 0-4.58-.94-1.95-.93-3.06-2.61-1.1-1.69-1.1-4h3.57q.03 1.94 1.36 3.31 1.32 1.38 3.81 1.38 2.14 0 3.36-1.04 1.23-1.03 1.23-2.66 0-1.26-.56-2.06-.57-.8-1.55-1.34-.99-.55-2.26-.96-1.28-.4-2.67-.88-2.82-.92-4.2-2.38t-1.38-3.81q0-2 .95-3.48.96-1.48 2.67-2.31 1.72-.84 4.07-.84 2.31 0 4.04.85 1.74.85 2.71 2.36.96 1.52 1 3.49h-3.61q0-.92-.47-1.8-.48-.89-1.43-1.45t-2.35-.56q-1.73-.03-2.87.89-1.14.91-1.14 2.55 0 1.42.82 2.19.81.76 2.28 1.27 1.46.51 3.36 1.16 1.74.58 3.13 1.41t2.19 2.14.8 3.35q0 1.77-.9 3.32-.9 1.54-2.72 2.5-1.82.95-4.5.95m18.29 0q-3.03 0-4.8-1.84-1.76-1.83-1.76-5.54v-10.17h3.4v9.8q0 4.86 4.08 4.86 2 0 3.35-1.43 1.34-1.43 1.34-4.08v-9.15h3.4V0h-3.03l-.24-2.92q-.78 1.56-2.27 2.44-1.5.89-3.47.89m23.02 0q-2.11 0-3.61-.85-1.49-.85-2.34-2.18L70.01 0h-3.06v-24.48h3.4v10.03q.81-1.29 2.29-2.19t3.66-.9q2.44 0 4.31 1.17t2.91 3.19q1.04 2.03 1.04 4.61 0 2.62-1.04 4.64-1.04 2.03-2.91 3.18Q78.74.41 76.3.41m-.55-2.96q2.35 0 3.86-1.65t1.51-4.37q0-2.68-1.51-4.35t-3.86-1.67q-2.38 0-3.87 1.67-1.5 1.67-1.5 4.35 0 2.72 1.5 4.37 1.49 1.65 3.87 1.65M97.72 0h-2.79q-2.45 0-3.88-1.19t-1.43-4.25v-8.81h-2.95v-2.89h2.95l.41-4.28h2.99v4.28h4.87v2.89h-4.87v8.84q0 1.47.6 1.99.59.53 2.12.53h1.98zm7.31 0h-3.4v-17.14h3.06l.3 3.23q.85-1.7 2.48-2.67 1.64-.96 4.02-.96v3.6h-1.23q-1.43 0-2.62.48-1.19.47-1.9 1.64-.71 1.18-.71 3.29zm15.26.41q-2.14 0-3.52-.73-1.37-.73-2.05-1.92t-.68-2.59q0-2.51 1.93-3.96 1.94-1.44 5.41-1.44h4.42q0-4.46-3.94-4.46-1.5 0-2.61.73-1.1.73-1.37 2.16h-3.4q.2-1.8 1.24-3.08 1.04-1.27 2.65-1.97 1.62-.69 3.49-.69 3.57 0 5.45 1.87 1.89 1.87 1.89 5.06V0h-2.96l-.27-2.89q-.75 1.39-2.11 2.35-1.36.95-3.57.95m.65-2.76q1.46 0 2.53-.76 1.07-.77 1.65-1.99t.61-2.62v-.1h-4.04q-2.21 0-3.15.78-.93.78-.93 1.97 0 1.26.88 1.99t2.45.73M141.47.41q-2.48 0-4.42-1.12-1.93-1.13-3.04-3.15-1.1-2.02-1.1-4.67 0-2.69 1.1-4.71 1.11-2.03 3.04-3.17 1.94-1.13 4.42-1.13 3.1 0 5.21 1.63 2.1 1.63 2.72 4.42h-3.54q-.37-1.46-1.58-2.3-1.21-.83-2.84-.83-1.36 0-2.52.7-1.15.69-1.85 2.04-.7 1.34-.7 3.31t.7 3.33 1.85 2.06q1.16.7 2.52.7 1.63 0 2.84-.82 1.21-.81 1.58-2.31h3.54q-.58 2.69-2.71 4.35-2.12 1.67-5.22 1.67M162.86 0h-2.79q-2.45 0-3.87-1.19-1.43-1.19-1.43-4.25v-8.81h-2.96v-2.89h2.96l.41-4.28h2.99v4.28h4.86v2.89h-4.86v8.84q0 1.47.59 1.99.6.53 2.13.53h1.97zm5.88-20.37q-.98 0-1.61-.63-.63-.62-.63-1.54t.63-1.52q.63-.59 1.61-.59.95 0 1.6.59.65.6.65 1.52t-.65 1.54q-.65.63-1.6.63M170.41 0h-3.4v-17.14h3.4zm12.68.41q-2.41 0-4.33-1.12-1.93-1.13-3.03-3.13-1.11-2.01-1.11-4.73 0-2.68 1.13-4.71 1.12-2.02 3.06-3.14 1.93-1.12 4.35-1.12 2.45 0 4.35 1.12t3.01 3.14q1.1 2.03 1.1 4.71 0 2.72-1.12 4.73-1.12 2-3.04 3.13-1.92 1.12-4.37 1.12m0-2.93q1.39 0 2.53-.68t1.84-2.02.7-3.35q0-2-.68-3.35-.68-1.34-1.82-2.02t-2.5-.68-2.52.68q-1.15.68-1.85 2.02-.7 1.35-.7 3.35 0 2.01.7 3.35t1.84 2.02q1.13.68 2.46.68M199.04 0h-3.4v-17.14h3.06l.2 2.93q.82-1.53 2.31-2.43 1.5-.9 3.44-.9 3.06 0 4.82 1.85 1.77 1.85 1.77 5.56V0h-3.4v-9.79q0-4.83-4.11-4.83-2.01 0-3.35 1.41t-1.34 4.06zm29.58 0h-3.4v-14.25h-2.52v-2.89h2.52v-2.31q0-2.65 1.34-3.84t3.79-1.19h2.01v2.89h-1.47q-1.22 0-1.75.49-.52.5-.52 1.72v2.24h4.11v2.89h-4.11zm14.72.41q-2.42 0-4.34-1.12-1.92-1.13-3.02-3.13-1.11-2.01-1.11-4.73 0-2.68 1.12-4.71 1.13-2.02 3.06-3.14 1.94-1.12 4.36-1.12 2.44 0 4.35 1.12 1.9 1.12 3.01 3.14 1.1 2.03 1.1 4.71 0 2.72-1.12 4.73-1.12 2-3.04 3.13-1.92 1.12-4.37 1.12m0-2.93q1.39 0 2.53-.68t1.84-2.02q.69-1.34.69-3.35 0-2-.68-3.35-.68-1.34-1.81-2.02-1.14-.68-2.5-.68t-2.52.68-1.85 2.02q-.7 1.35-.7 3.35 0 2.01.7 3.35.69 1.34 1.83 2.02t2.47.68M259.28 0h-3.4v-17.14h3.06l.31 3.23q.85-1.7 2.48-2.67 1.63-.96 4.01-.96v3.6h-1.22q-1.43 0-2.62.48-1.19.47-1.9 1.64-.72 1.18-.72 3.29zm21.7 0h-3.4v-24.48h3.4zm6.63-20.37q-.99 0-1.62-.63-.63-.62-.63-1.54t.63-1.52q.63-.59 1.62-.59.95 0 1.59.59.65.6.65 1.52T289.2-21q-.64.63-1.59.63M289.27 0h-3.4v-17.14h3.4zm9.18 0h-3.4v-14.25h-2.51v-2.89h2.51v-2.31q0-2.65 1.35-3.84 1.34-1.19 3.79-1.19h2v2.89h-1.46q-1.22 0-1.75.49-.53.5-.53 1.72v2.24h4.12v2.89h-4.12zm14.66.41q-2.45 0-4.36-1.11-1.9-1.1-2.97-3.11-1.07-2-1.07-4.69 0-2.72 1.07-4.74 1.07-2.03 2.97-3.17 1.91-1.13 4.42-1.13 2.52 0 4.32 1.12t2.79 2.97q.99 1.86.99 4.1 0 .34-.02.73t-.05.87h-13.16q.17 2.62 1.65 3.98t3.42 1.36q1.63 0 2.7-.72 1.07-.71 1.55-1.94h3.4q-.68 2.35-2.67 3.91Q316.1.41 313.11.41m.03-15.13q-1.9 0-3.33 1.15-1.43 1.16-1.7 3.4h9.76q-.11-2.14-1.43-3.35-1.33-1.2-3.3-1.2m12.21 18.9h-2.28l1.94-7.85h3.43zM346.29.41q-2.14 0-3.52-.73t-2.06-1.92-.68-2.59q0-2.51 1.94-3.96 1.94-1.44 5.41-1.44h4.42q0-4.46-3.95-4.46-1.49 0-2.6.73-1.1.73-1.37 2.16h-3.4q.2-1.8 1.24-3.08 1.03-1.27 2.65-1.97 1.61-.69 3.48-.69 3.57 0 5.46 1.87t1.89 5.06V0h-2.96l-.27-2.89q-.75 1.39-2.11 2.35-1.36.95-3.57.95m.65-2.76q1.46 0 2.53-.76 1.07-.77 1.65-1.99t.61-2.62v-.1h-4.05q-2.21 0-3.14.78-.94.78-.94 1.97 0 1.26.89 1.99.88.73 2.45.73M367.17.41q-2.45 0-4.32-1.17-1.87-1.18-2.91-3.2t-1.04-4.61q0-2.62 1.06-4.62 1.05-2.01 2.92-3.18t4.32-1.17q2.01 0 3.54.79 1.53.8 2.38 2.27v-10h3.4V0h-3.03l-.37-2.65q-.79 1.19-2.25 2.12-1.46.94-3.7.94m.54-2.96q2.41 0 3.89-1.65t1.48-4.37q0-2.68-1.48-4.35t-3.89-1.67q-2.31 0-3.83 1.67-1.51 1.67-1.51 4.35 0 2.72 1.51 4.37 1.52 1.65 3.83 1.65M388.79.41q-2.45 0-4.32-1.17-1.87-1.18-2.91-3.2-1.03-2.02-1.03-4.61 0-2.62 1.05-4.62 1.06-2.01 2.93-3.18t4.31-1.17q2.01 0 3.54.79 1.53.8 2.38 2.27v-10h3.4V0h-3.03l-.37-2.65q-.78 1.19-2.24 2.12-1.47.94-3.71.94m.54-2.96q2.42 0 3.9-1.65t1.48-4.37q0-2.68-1.48-4.35t-3.9-1.67q-2.31 0-3.82 1.67T384-8.57q0 2.72 1.51 4.37t3.82 1.65m15.44-17.82q-.99 0-1.61-.63-.63-.62-.63-1.54t.63-1.52q.62-.59 1.61-.59.95 0 1.6.59.64.6.64 1.52t-.64 1.54q-.65.63-1.6.63M406.44 0h-3.4v-17.14h3.4zm14.72 0h-2.79q-2.45 0-3.88-1.19-1.42-1.19-1.42-4.25v-8.81h-2.96v-2.89h2.96l.4-4.28h3v4.28h4.86v2.89h-4.86v8.84q0 1.47.59 1.99.6.53 2.13.53h1.97zm5.88-20.37q-.99 0-1.61-.63-.63-.62-.63-1.54t.63-1.52q.62-.59 1.61-.59.95 0 1.6.59.64.6.64 1.52t-.64 1.54q-.65.63-1.6.63M428.71 0h-3.4v-17.14h3.4zm12.68.41q-2.42 0-4.34-1.12-1.92-1.13-3.02-3.13-1.11-2.01-1.11-4.73 0-2.68 1.12-4.71 1.13-2.02 3.06-3.14 1.94-1.12 4.36-1.12 2.44 0 4.35 1.12 1.9 1.12 3.01 3.14 1.1 2.03 1.1 4.71 0 2.72-1.12 4.73-1.12 2-3.04 3.13-1.92 1.12-4.37 1.12m0-2.93q1.39 0 2.53-.68t1.84-2.02q.69-1.34.69-3.35 0-2-.68-3.35-.68-1.34-1.81-2.02-1.14-.68-2.5-.68t-2.52.68-1.85 2.02q-.7 1.35-.7 3.35 0 2.01.7 3.35.69 1.34 1.83 2.02t2.47.68M457.33 0h-3.4v-17.14h3.06l.21 2.93q.81-1.53 2.31-2.43t3.43-.9q3.06 0 4.83 1.85t1.77 5.56V0h-3.4v-9.79q0-4.83-4.11-4.83-2.01 0-3.35 1.41-1.35 1.41-1.35 4.06zm29.58 0h-3.4v-14.25H481v-2.89h2.51v-2.31q0-2.65 1.35-3.84 1.34-1.19 3.79-1.19h2v2.89h-1.46q-1.22 0-1.75.49-.53.5-.53 1.72v2.24h4.12v2.89h-4.12zm14.73.41q-2.42 0-4.34-1.12-1.92-1.13-3.02-3.13-1.11-2.01-1.11-4.73 0-2.68 1.12-4.71 1.12-2.02 3.06-3.14t4.35-1.12q2.45 0 4.36 1.12 1.9 1.12 3 3.14 1.11 2.03 1.11 4.71 0 2.72-1.12 4.73-1.12 2-3.05 3.13-1.92 1.12-4.36 1.12m0-2.93q1.39 0 2.53-.68T506-5.22q.7-1.34.7-3.35 0-2-.68-3.35-.68-1.34-1.82-2.02t-2.5-.68-2.51.68q-1.16.68-1.85 2.02-.7 1.35-.7 3.35 0 2.01.7 3.35.69 1.34 1.83 2.02t2.47.68M517.58 0h-3.4v-17.14h3.06l.31 3.23q.85-1.7 2.48-2.67 1.63-.96 4.01-.96v3.6h-1.22q-1.43 0-2.62.48-1.19.47-1.9 1.64-.72 1.18-.72 3.29zm28.15 0h-2.78q-2.45 0-3.88-1.19t-1.43-4.25v-8.81h-2.96v-2.89h2.96l.41-4.28h2.99v4.28h4.86v2.89h-4.86v8.84q0 1.47.6 1.99.59.53 2.12.53h1.97zm7.31 0h-3.4v-24.48h3.4v10.13q.85-1.46 2.37-2.33 1.51-.86 3.35-.86 3.06 0 4.79 1.87t1.73 5.57V0h-3.36v-9.72q0-4.9-4.05-4.9-2.04 0-3.43 1.44-1.4 1.45-1.4 4.1zm24.42.41q-2.42 0-4.34-1.12-1.92-1.13-3.03-3.13-1.1-2.01-1.1-4.73 0-2.68 1.12-4.71 1.12-2.02 3.06-3.14t4.35-1.12q2.45 0 4.36 1.12 1.9 1.12 3 3.14 1.11 2.03 1.11 4.71 0 2.72-1.12 4.73-1.12 2-3.05 3.13Q579.9.41 577.46.41m0-2.93q1.39 0 2.53-.68t1.83-2.02q.7-1.34.7-3.35 0-2-.68-3.35-.68-1.34-1.82-2.02t-2.5-.68-2.51.68q-1.16.68-1.86 2.02-.69 1.35-.69 3.35 0 2.01.69 3.35.7 1.34 1.84 2.02t2.47.68M596.29.41q-3.02 0-4.79-1.84-1.77-1.83-1.77-5.54v-10.17h3.4v9.8q0 4.86 4.08 4.86 2.01 0 3.35-1.43t1.34-4.08v-9.15h3.4V0h-3.02l-.24-2.92q-.78 1.56-2.28 2.44-1.5.89-3.47.89m20.64-5.68q-1.33 0-2.48-.34l-1.57 1.5q.38.23.94.42t1.56.34q1.01.15 2.74.29 3.47.27 4.95 1.58t1.48 3.55q0 1.47-.8 2.81t-2.49 2.18q-1.68.83-4.33.83-3.57 0-5.75-1.36-2.17-1.36-2.17-4.05 0-1.05.52-2.12.53-1.07 1.82-1.99-.74-.31-1.25-.68-.51-.38-.92-.75v-.78l2.96-3.03q-2.01-1.7-2.01-4.52 0-1.7.8-3.09.8-1.4 2.33-2.23t3.67-.83q1.43 0 2.65.4h6.36v2.35l-3.13.17q.89 1.43.89 3.23 0 1.7-.8 3.09-.8 1.4-2.32 2.21-1.51.82-3.65.82m0-2.72q1.67 0 2.65-.87.99-.86.99-2.53t-.99-2.53q-.98-.87-2.65-.87t-2.69.87q-1.02.86-1.02 2.53t1.02 2.53q1.02.87 2.69.87M612.2 2.14q0 1.53 1.35 2.3 1.34.76 3.38.76 1.97 0 3.18-.81 1.21-.82 1.21-2.21 0-1.09-.82-1.82t-3.13-.87q-1.66-.1-2.99-.34-1.26.68-1.72 1.46t-.46 1.53M632.74 0h-3.4v-24.48h3.4v10.13q.85-1.46 2.36-2.33 1.52-.86 3.35-.86 3.06 0 4.8 1.87 1.73 1.87 1.73 5.57V0h-3.37v-9.72q0-4.9-4.04-4.9-2.04 0-3.44 1.44-1.39 1.45-1.39 4.1zm26.45 0h-2.79q-2.44 0-3.87-1.19t-1.43-4.25v-8.81h-2.96v-2.89h2.96l.41-4.28h2.99v4.28h4.86v2.89h-4.86v8.84q0 1.47.59 1.99.6.53 2.13.53h1.97zm5.27.17q-.95 0-1.6-.63-.64-.63-.64-1.51 0-.92.64-1.55.65-.63 1.6-.63.99 0 1.6.63t.61 1.55q0 .88-.61 1.51t-1.6.63M685-10.03l-3.2 5.95h-3.3l3.34-5.95-3.34-5.95h3.3zm6.36 0-3.23 5.95h-3.27l3.3-5.95-3.3-5.95h3.27"/></g></g><g transform="translate(100,440)"><g class="cv-reveal-4"><path fill="#5B5B59" d="M2.93 0H.62l5.65-15.4h2.4L14.32 0h-2.35l-1.34-3.81H4.27zm7.08-5.57-2.55-7.19-2.55 7.19zM18.72 0h-2.2v-15.4h2.2zm10.17 0h-2.31l5.65-15.4h2.4L40.28 0h-2.35l-1.34-3.81h-6.36zm7.08-5.57-2.55-7.19-2.55 7.19zm10.91 2.16q-.86 0-1.6-.22l-1.02.97q.25.15.61.27t1.01.22 1.77.19q2.25.18 3.2 1.02.96.85.96 2.3 0 .95-.52 1.82-.51.87-1.6 1.4-1.09.54-2.81.54-2.31 0-3.72-.88-1.4-.88-1.4-2.61 0-.69.34-1.38t1.17-1.29q-.48-.19-.81-.44-.33-.24-.59-.48v-.51l1.91-1.95q-1.3-1.1-1.3-2.93 0-1.1.52-2t1.51-1.44 2.37-.54q.93 0 1.72.26h4.11v1.52l-2.02.11q.57.92.57 2.09 0 1.1-.52 2-.51.9-1.49 1.43t-2.37.53m0-1.76q1.08 0 1.72-.56t.64-1.64-.64-1.64-1.72-.56-1.74.56-.66 1.64.66 1.64 1.74.56m-3.06 6.56q0 .99.87 1.48.87.5 2.19.5 1.28 0 2.06-.53t.78-1.43q0-.71-.53-1.18t-2.02-.56q-1.08-.07-1.94-.22-.81.44-1.11.95-.3.5-.3.99M59.49.26q-1.59 0-2.82-.71-1.23-.72-1.92-2.01-.7-1.3-.7-3.04 0-1.76.7-3.07.69-1.31 1.92-2.05 1.23-.73 2.86-.73t2.8.72q1.16.73 1.8 1.93t.64 2.65q0 .22-.01.47-.01.26-.04.56h-8.51q.11 1.7 1.07 2.58.95.88 2.21.88 1.05 0 1.75-.46.69-.47 1-1.26h2.2Q64-1.76 62.71-.75T59.49.26m.02-9.79q-1.23 0-2.16.75-.92.75-1.1 2.2h6.32q-.07-1.38-.93-2.16-.85-.79-2.13-.79M69.41 0h-2.2v-11.09h1.98l.13 1.89q.53-.99 1.5-1.57t2.22-.58q1.98 0 3.12 1.2 1.15 1.2 1.15 3.59V0h-2.2v-6.34q0-3.12-2.66-3.12-1.3 0-2.17.91-.87.92-.87 2.63zM86.5 0h-1.8q-1.58 0-2.51-.77-.92-.77-.92-2.75v-5.7h-1.92v-1.87h1.92l.26-2.77h1.94v2.77h3.14v1.87h-3.14v5.72q0 .95.38 1.29.39.34 1.38.34h1.27zm9.6 0h-2.31l5.65-15.4h2.4L107.49 0h-2.35l-1.34-3.81h-6.36zm7.08-5.57-2.55-7.19-2.55 7.19zm8.6 5.57h-2.2v-11.09h1.98l.2 2.09q.55-1.1 1.61-1.72 1.05-.63 2.59-.63v2.33h-.79q-.92 0-1.69.31t-1.24 1.07q-.46.75-.46 2.12zm10.98.26q-1.61 0-2.86-.72-1.25-.73-1.97-2.04-.71-1.31-.71-3.02 0-1.74.71-3.05.72-1.31 1.97-2.05 1.25-.73 2.86-.73 2 0 3.37 1.05 1.36 1.06 1.76 2.86h-2.29q-.24-.94-1.03-1.48-.78-.54-1.83-.54-.88 0-1.63.45t-1.2 1.32-.45 2.15q0 1.27.45 2.15t1.2 1.33 1.63.45q1.05 0 1.83-.52.79-.53 1.03-1.5h2.29q-.38 1.74-1.75 2.82-1.38 1.07-3.38 1.07m9.9-.26h-2.2v-15.84h2.2v6.56q.55-.95 1.53-1.51t2.17-.56q1.98 0 3.1 1.21t1.12 3.61V0h-2.18v-6.29q0-3.17-2.62-3.17-1.32 0-2.22.93-.9.94-.9 2.66zm12.01-13.18q-.64 0-1.04-.4-.41-.41-.41-1.01 0-.59.41-.97.4-.39 1.04-.39.62 0 1.04.39.41.38.41.97 0 .6-.41 1.01-.42.4-1.04.4M145.75 0h-2.2v-11.09h2.2zm9.53 0h-1.81q-1.58 0-2.51-.77-.92-.77-.92-2.75v-5.7h-1.91v-1.87h1.91l.26-2.77h1.94v2.77h3.15v1.87h-3.15v5.72q0 .95.39 1.29.38.34 1.37.34h1.28zm7.23.26q-1.58 0-2.81-.71-1.23-.72-1.93-2.01-.69-1.3-.69-3.04 0-1.76.69-3.07.7-1.31 1.93-2.05 1.23-.73 2.86-.73t2.79.72q1.17.73 1.81 1.93.63 1.2.63 2.65 0 .22-.01.47-.01.26-.03.56h-8.51q.11 1.7 1.06 2.58.96.88 2.21.88 1.06 0 1.75-.46.7-.47 1-1.26h2.2q-.44 1.52-1.72 2.53-1.29 1.01-3.23 1.01m.03-9.79q-1.24 0-2.16.75t-1.1 2.2h6.31q-.06-1.38-.92-2.16-.86-.79-2.13-.79M175.36.26q-1.6 0-2.86-.72-1.25-.73-1.97-2.04-.71-1.31-.71-3.02 0-1.74.71-3.05.72-1.31 1.97-2.05 1.26-.73 2.86-.73 2 0 3.37 1.05 1.36 1.06 1.76 2.86h-2.29q-.24-.94-1.02-1.48t-1.84-.54q-.88 0-1.63.45t-1.2 1.32-.45 2.15q0 1.27.45 2.15t1.2 1.33 1.63.45q1.06 0 1.84-.52.78-.53 1.02-1.5h2.29q-.38 1.74-1.75 2.82-1.38 1.07-3.38 1.07M189.2 0h-1.8q-1.59 0-2.51-.77-.93-.77-.93-2.75v-5.7h-1.91v-1.87h1.91l.27-2.77h1.93v2.77h3.15v1.87h-3.15v5.72q0 .95.39 1.29.38.34 1.37.34h1.28zm9.04-6.01q-.61 0-1.03-.4-.42-.41-.42-1 0-.6.42-1 .42-.41 1.03-.41.64 0 1.04.41.39.4.39 1 0 .59-.39 1-.4.4-1.04.4M210.03 0h-2.2v-15.4h9.57v1.8h-7.37v5h6.16v1.76h-6.16zm13.69.26q-1.96 0-3.1-1.18-1.15-1.19-1.15-3.59v-6.58h2.2v6.34q0 3.14 2.64 3.14 1.3 0 2.17-.92t.87-2.64v-5.92h2.2V0h-1.96l-.15-1.89q-.51 1.01-1.48 1.58t-2.24.57M234.76 0h-2.2v-15.84h2.2zm5.22 0h-2.2v-15.84h2.2zm12.03-5.57h-8.89v-1.84h8.89zm7.41 5.83q-2.13 0-3.41-1.01-1.27-1.01-1.47-2.7h2.24q.16.79.82 1.36t1.82.57q1.08 0 1.6-.46t.52-1.1q0-.9-.67-1.22-.68-.32-1.91-.56-1.01-.2-1.92-.54-.92-.34-1.49-.97t-.57-1.66q0-1.43 1.11-2.38 1.11-.94 3.05-.94 1.85 0 2.97.88t1.32 2.48h-2.14q-.11-.72-.67-1.14t-1.5-.42q-.95 0-1.46.38-.5.37-.5.99 0 .61.65.99.65.37 1.86.61 1.16.22 2.09.55.92.33 1.47.97t.55 1.83q0 1.56-1.18 2.53-1.17.96-3.18.96m12.9-.26h-1.81q-1.58 0-2.51-.77-.92-.77-.92-2.75v-5.7h-1.91v-1.87h1.91l.26-2.77h1.94v2.77h3.15v1.87h-3.15v5.72q0 .95.39 1.29.38.34 1.37.34h1.28zm6.2.26q-1.39 0-2.28-.47t-1.33-1.24-.44-1.67q0-1.63 1.26-2.57 1.25-.93 3.49-.93h2.86q0-2.88-2.55-2.88-.97 0-1.68.47-.72.47-.89 1.4h-2.2q.13-1.17.8-1.99.67-.83 1.72-1.28 1.04-.45 2.25-.45 2.31 0 3.53 1.21t1.22 3.28V0h-1.91l-.18-1.87q-.48.9-1.36 1.52-.88.61-2.31.61m.42-1.78q.94 0 1.64-.49.69-.5 1.06-1.29.38-.79.4-1.69v-.07h-2.62q-1.43 0-2.03.51-.61.5-.61 1.27 0 .82.57 1.29.58.47 1.59.47M292.23.26q-1.61 0-2.86-.72-1.26-.73-1.97-2.04-.72-1.31-.72-3.02 0-1.74.72-3.05.71-1.31 1.97-2.05 1.25-.73 2.86-.73 2 0 3.36 1.05 1.37 1.06 1.76 2.86h-2.29q-.24-.94-1.02-1.48t-1.84-.54q-.88 0-1.62.45-.75.45-1.2 1.32t-.45 2.15q0 1.27.45 2.15t1.2 1.33q.74.45 1.62.45 1.06 0 1.84-.52.78-.53 1.02-1.5h2.29q-.37 1.74-1.75 2.82-1.37 1.07-3.37 1.07m9.9-.26h-2.2v-15.84h2.2v9.39l4.29-4.64h2.66l-4.75 5.06L309.67 0h-2.77l-4.77-5.65zm24.86 0h-9.73v-15.4h9.73v1.8h-7.53v4.93h6.87v1.76h-6.87v5.11h7.53zm4.92 0h-2.2v-11.09h1.98l.14 1.89q.52-.99 1.49-1.57t2.22-.58q1.98 0 3.13 1.2 1.14 1.2 1.14 3.59V0h-2.2v-6.34q0-3.12-2.66-3.12-1.3 0-2.17.91-.87.92-.87 2.63zm15.23-3.41q-.86 0-1.61-.22l-1.01.97q.24.15.61.27.36.12 1.01.22t1.77.19q2.24.18 3.2 1.02.96.85.96 2.3 0 .95-.52 1.82t-1.61 1.4q-1.09.54-2.8.54-2.31 0-3.72-.88t-1.41-2.61q0-.69.34-1.38t1.18-1.29q-.48-.19-.81-.44-.33-.24-.6-.48v-.51l1.92-1.95q-1.3-1.1-1.3-2.93 0-1.1.52-2 .51-.9 1.5-1.44t2.38-.54q.92 0 1.71.26h4.12v1.52l-2.03.11q.58.92.58 2.09 0 1.1-.52 2t-1.5 1.43-2.36.53m0-1.76q1.08 0 1.71-.56.64-.56.64-1.64t-.64-1.64q-.63-.56-1.71-.56t-1.74.56-.66 1.64.66 1.64 1.74.56m-3.06 6.56q0 .99.87 1.48.87.5 2.19.5 1.27 0 2.06-.53.78-.53.78-1.43 0-.71-.53-1.18t-2.03-.56q-1.07-.07-1.93-.22-.82.44-1.11.95-.3.5-.3.99m12.36-14.57q-.63 0-1.04-.4-.41-.41-.41-1.01 0-.59.41-.97.41-.39 1.04-.39.62 0 1.04.39.42.38.42.97 0 .6-.42 1.01-.42.4-1.04.4M357.52 0h-2.2v-11.09h2.2zm5.35 0h-2.2v-11.09h1.98l.13 1.89q.53-.99 1.5-1.57.96-.58 2.22-.58 1.98 0 3.12 1.2 1.15 1.2 1.15 3.59V0h-2.2v-6.34q0-3.12-2.67-3.12-1.29 0-2.16.91-.87.92-.87 2.63zm15.73.26q-1.59 0-2.82-.71-1.23-.72-1.92-2.01-.7-1.3-.7-3.04 0-1.76.7-3.07.69-1.31 1.92-2.05 1.23-.73 2.86-.73t2.8.72q1.16.73 1.8 1.93t.64 2.65q0 .22-.01.47-.01.26-.04.56h-8.51q.11 1.7 1.07 2.58.95.88 2.21.88 1.05 0 1.75-.46.69-.47 1-1.26h2.2q-.44 1.52-1.73 2.53T378.6.26m.02-9.79q-1.23 0-2.16.75-.92.75-1.1 2.2h6.32q-.07-1.38-.93-2.16-.85-.79-2.13-.79M391.34.26q-1.59 0-2.82-.71-1.23-.72-1.92-2.01-.7-1.3-.7-3.04 0-1.76.7-3.07.69-1.31 1.92-2.05 1.23-.73 2.86-.73t2.79.72q1.17.73 1.81 1.93t.64 2.65q0 .22-.01.47-.02.26-.04.56h-8.51q.11 1.7 1.07 2.58.95.88 2.21.88 1.05 0 1.75-.46.69-.47 1-1.26h2.2q-.44 1.52-1.73 2.53T391.34.26m.02-9.79q-1.23 0-2.16.75-.92.75-1.1 2.2h6.32q-.07-1.38-.93-2.16-.86-.79-2.13-.79m9.9 9.53h-2.2v-11.09h1.98l.2 2.09q.55-1.1 1.6-1.72 1.06-.63 2.6-.63v2.33h-.79q-.93 0-1.7.31t-1.23 1.07q-.46.75-.46 2.12zm12.71-6.01q-.61 0-1.03-.4-.42-.41-.42-1 0-.6.42-1 .42-.41 1.03-.41.64 0 1.04.41.39.4.39 1 0 .59-.39 1-.4.4-1.04.4M424.89 0h-2.31l5.65-15.4h2.4L436.28 0h-2.35l-1.34-3.81h-6.36zm7.08-5.57-2.55-7.19-2.55 7.19zM440.68 0h-2.2v-15.4h2.2zm12.12-5.57h-8.88v-1.84h8.88zM460.72 0h-2.2v-13.6h-4.55v-1.8h11.33v1.8h-4.58zm9.77.26q-1.56 0-2.8-.72-1.25-.73-1.96-2.03-.72-1.29-.72-3.05 0-1.74.73-3.05t1.98-2.04q1.25-.72 2.82-.72 1.58 0 2.81.72 1.23.73 1.95 2.04.71 1.31.71 3.05 0 1.76-.72 3.05-.73 1.3-1.97 2.03-1.24.72-2.83.72m0-1.89q.9 0 1.64-.44t1.19-1.31.45-2.16q0-1.3-.44-2.17t-1.18-1.31q-.73-.44-1.61-.44t-1.63.44-1.2 1.31-.45 2.17q0 1.29.45 2.16t1.19 1.31q.73.44 1.59.44M483.67.26q-1.56 0-2.8-.72-1.25-.73-1.96-2.03-.72-1.29-.72-3.05 0-1.74.73-3.05.72-1.31 1.98-2.04 1.25-.72 2.81-.72 1.59 0 2.82.72 1.23.73 1.95 2.04.71 1.31.71 3.05 0 1.76-.72 3.05-.73 1.3-1.97 2.03-1.25.72-2.83.72m0-1.89q.9 0 1.64-.44t1.19-1.31.45-2.16q0-1.3-.44-2.17t-1.18-1.31-1.62-.44-1.62.44q-.75.44-1.2 1.31t-.45 2.17q0 1.29.45 2.16t1.19 1.31q.73.44 1.59.44M493.99 0h-2.2v-15.84h2.2zm4.29-13.18q-.64 0-1.05-.4-.4-.41-.4-1.01 0-.59.4-.97.41-.39 1.05-.39.61 0 1.03.39.42.38.42.97 0 .6-.42 1.01-.42.4-1.03.4M499.36 0h-2.2v-11.09h2.2zm5.34 0h-2.2v-11.09h1.98l.13 1.89q.53-.99 1.5-1.57t2.22-.58q1.98 0 3.13 1.2 1.14 1.2 1.14 3.59V0h-2.2v-6.34q0-3.12-2.66-3.12-1.3 0-2.17.91-.87.92-.87 2.63zm15.23-3.41q-.86 0-1.61-.22l-1.01.97q.24.15.6.27.37.12 1.02.22.64.1 1.77.19 2.24.18 3.2 1.02.95.85.95 2.3 0 .95-.51 1.82-.52.87-1.61 1.4-1.09.54-2.8.54-2.31 0-3.72-.88t-1.41-2.61q0-.69.34-1.38t1.18-1.29q-.49-.19-.82-.44-.33-.24-.59-.48v-.51l1.91-1.95q-1.29-1.1-1.29-2.93 0-1.1.51-2 .52-.9 1.51-1.44t2.38-.54q.92 0 1.71.26h4.12v1.52l-2.03.11q.57.92.57 2.09 0 1.1-.51 2-.52.9-1.5 1.43t-2.36.53m0-1.76q1.07 0 1.71-.56t.64-1.64-.64-1.64-1.71-.56q-1.08 0-1.74.56t-.66 1.64.66 1.64 1.74.56m-3.06 6.56q0 .99.87 1.48.87.5 2.19.5 1.27 0 2.05-.53t.78-1.43q0-.71-.52-1.18-.53-.47-2.03-.56-1.08-.07-1.93-.22-.82.44-1.11.95-.3.5-.3.99M543.42 0h-9.72v-15.4h9.72v1.8h-7.52v4.93h6.86v1.76h-6.86v5.11h7.52zm4.05 0h-2.38l3.83-5.54-3.83-5.55h2.38l2.9 4.31 2.93-4.31h2.35l-3.82 5.55L555.65 0h-2.35l-2.93-4.33zm12.32 4.84h-2.2v-15.93h1.98l.22 1.72q.53-.77 1.46-1.38.94-.6 2.41-.6 1.56 0 2.77.77t1.89 2.08q.67 1.31.67 2.98t-.69 2.98q-.68 1.31-1.88 2.06-1.2.74-2.78.74-1.32 0-2.3-.51-.98-.52-1.55-1.44zm3.5-6.49q1.52 0 2.5-1.07.97-1.06.97-2.82 0-1.74-.97-2.82-.98-1.08-2.5-1.08-1.54 0-2.51 1.08t-.97 2.82q0 1.76.97 2.82.97 1.07 2.51 1.07M576.58.26q-1.59 0-2.82-.71-1.23-.72-1.92-2.01-.7-1.3-.7-3.04 0-1.76.7-3.07.69-1.31 1.92-2.05 1.23-.73 2.86-.73t2.79.72q1.17.73 1.81 1.93t.64 2.65q0 .22-.01.47-.02.26-.04.56h-8.51q.11 1.7 1.07 2.58.95.88 2.21.88 1.05 0 1.75-.46.69-.47 1-1.26h2.2q-.44 1.52-1.73 2.53T576.58.26m.02-9.79q-1.23 0-2.16.75-.92.75-1.1 2.2h6.32q-.07-1.38-.93-2.16-.86-.79-2.13-.79M586.5 0h-2.2v-11.09h1.98l.2 2.09q.55-1.1 1.6-1.72 1.06-.63 2.6-.63v2.33h-.79q-.93 0-1.7.31t-1.23 1.07q-.46.75-.46 2.12zm12.58 0h-1.8q-1.59 0-2.51-.77t-.92-2.75v-5.7h-1.92v-1.87h1.92l.26-2.77h1.94v2.77h3.14v1.87h-3.14v5.72q0 .95.38 1.29.39.34 1.38.34h1.27"/></g></g><rect width="320" height="340" x="872" y="150" fill="#F7F6F2" stroke="#070607" stroke-dasharray="2 7" stroke-linecap="round" stroke-width="2" rx="40"/><g transform="translate(919.6,175) scale(0.8146)"><g class="cv-drift-7"><path fill="#070607" fill-rule="evenodd" d="M58.26 196.44c-.43-1.49-1.12-3.01-2.03-4.26-.91-1.26-2.11-2.49-3.41-3.26-1.3-.76-2.83-1.1-4.38-1.32-1.54-.23-3.25.03-4.89-.01-1.64-.05-3.31-.07-4.96-.25s-3.31-.49-4.93-.83c-1.63-.35-3.26-.74-4.84-1.24-1.59-.5-3.16-1.09-4.67-1.78s-2.98-1.49-4.39-2.37-2.77-1.86-4.07-2.9c-1.3-1.03-2.54-2.16-3.71-3.33-1.18-1.18-2.3-2.43-3.33-3.73s-1.99-2.67-2.85-4.09-1.64-2.91-2.3-4.43c-.67-1.52-1.23-3.1-1.69-4.69s-.82-3.23-1.08-4.87-.42-3.31-.49-4.96c-.06-1.66-.04-3.34.1-4.99s.38-3.31.73-4.93c.35-1.61.82-3.22 1.39-4.78.57-1.55 1.26-3.08 2.03-4.55.78-1.46 1.66-2.89 2.61-4.25s2-2.67 3.1-3.91c1.1-1.25 2.28-2.44 3.52-3.55 1.23-1.11 2.54-2.16 3.89-3.11 1.36-.96 2.79-1.84 4.25-2.62a41 41 0 0 1 4.53-2.1c1.54-.61 3.13-1.14 4.74-1.57 1.6-.44 3.24-.78 4.88-1.03s3.31-.4 4.97-.47c1.66-.08 3.43.15 5 .02 1.57-.12 3.13-.15 4.41-.78 1.28-.62 2.26-1.78 3.25-2.97.98-1.19 1.77-2.79 2.68-4.18.92-1.38 1.85-2.78 2.83-4.14.97-1.35 1.98-2.69 3.02-3.99s2.12-2.58 3.23-3.83c1.11-1.24 2.25-2.46 3.43-3.64 1.18-1.19 2.39-2.34 3.63-3.46a99 99 0 0 1 3.81-3.24 97 97 0 0 1 4-3.02 89 89 0 0 1 8.47-5.34q2.19-1.215 4.44-2.31c1.5-.73 3.02-1.42 4.56-2.08 1.53-.65 3.09-1.26 4.66-1.84 1.56-.58 3.2-1.05 4.74-1.62 1.54-.56 3.24-.98 4.5-1.76 1.26-.79 2.36-1.71 3.05-2.93.68-1.23.81-2.85 1.04-4.42.24-1.57.21-3.33.38-4.99s.39-3.32.67-4.97a68.5 68.5 0 0 1 2.32-9.73c.51-1.58 1.08-3.15 1.72-4.69.63-1.54 1.34-3.05 2.11-4.53.77-1.47 1.61-2.92 2.52-4.31a45 45 0 0 1 2.95-4.02c1.06-1.28 2.2-2.51 3.41-3.64a39 39 0 0 1 3.87-3.15c1.35-.95 2.79-1.82 4.26-2.59 1.47-.76 3-1.45 4.56-2.01 1.56-.55 3.18-1.06 4.79-1.34 1.61-.27 3.32-.47 4.88-.29 1.57.19 3.21.63 4.49 1.42 1.28.78 2.46 2 3.17 3.3s1.09 2.97 1.11 4.49c.02 1.53-.37 3.23-.99 4.66-.61 1.43-1.61 2.78-2.71 3.93s-2.54 2.02-3.89 2.97c-1.34.94-2.85 1.72-4.18 2.71-1.32 1-2.61 2.06-3.77 3.23a31.5 31.5 0 0 0-3.16 3.84c-.94 1.35-1.81 2.86-2.5 4.29-.69 1.44-1.39 3.27-1.64 4.32-.25 1.06-.28 2 .12 2 .4.01 1.35-1.04 2.3-1.97.95-.94 2.22-2.49 3.42-3.65 1.2-1.15 2.45-2.26 3.77-3.27 1.31-1.02 2.68-1.98 4.11-2.82s2.92-1.6 4.46-2.22c1.53-.61 3.13-1.13 4.74-1.47s3.29-.57 4.92-.58c1.64-.02 3.32.13 4.9.5s3.22.93 4.58 1.73 2.71 1.86 3.57 3.08c.86 1.23 1.48 2.82 1.59 4.28.12 1.46-.23 3.16-.9 4.47-.66 1.32-1.86 2.49-3.1 3.44s-2.87 1.54-4.35 2.26c-1.47.72-3.08 1.28-4.53 2.08-1.44.8-2.88 1.71-4.14 2.72-1.26 1-2.7 2.28-3.41 3.33s-1.21 2.17-.84 2.98c.36.81 1.74 1.33 3.04 1.88 1.31.55 3.21.92 4.8 1.44s3.16 1.07 4.72 1.66 3.11 1.22 4.64 1.89c1.53.66 3.05 1.37 4.54 2.12q2.235 1.125 4.41 2.37c1.45.83 2.88 1.7 4.28 2.6 1.4.91 2.78 1.85 4.13 2.84 1.35.98 2.67 2 3.96 3.05 1.3 1.05 2.57 2.14 3.8 3.26 1.24 1.13 2.45 2.28 3.63 3.46 1.17 1.18 2.32 2.4 3.44 3.64a91 91 0 0 1 3.26 3.8c1.06 1.29 2.09 2.6 3.08 3.95.99 1.34 1.9 2.77 2.84 4.12s1.75 2.87 2.8 3.97c1.05 1.11 2.17 2.1 3.52 2.68 1.35.59 2.97.68 4.57.85 1.59.17 3.33.06 4.99.18s3.33.27 4.97.55c1.64.27 3.27.63 4.87 1.09 1.59.47 3.17 1.03 4.69 1.69 1.53.65 3.02 1.41 4.46 2.25 1.43.83 2.83 1.75 4.17 2.73 1.33.99 2.62 2.06 3.85 3.18 1.23 1.11 2.41 2.3 3.52 3.54 1.1 1.24 2.15 2.54 3.09 3.91.93 1.37 1.78 2.81 2.52 4.29.74 1.49 1.39 3.03 1.92 4.6.54 1.57.97 3.19 1.29 4.81.31 1.63.5 3.3.61 4.95.11 1.66.11 3.34.02 5-.09 1.65-.27 3.32-.55 4.95a40 40 0 0 1-1.15 4.85 39 39 0 0 1-1.76 4.67c-.69 1.5-1.48 2.98-2.36 4.39-.88 1.4-1.86 2.76-2.9 4.05a41 41 0 0 1-3.38 3.68 42 42 0 0 1-3.79 3.23c-1.33 1-2.72 1.93-4.15 2.78a47 47 0 0 1-4.44 2.3c-1.51.67-3.08 1.26-4.67 1.73-1.59.48-3.22.84-4.86 1.12-1.64.27-3.3.43-4.96.53-1.67.1-3.36.02-5 .05-1.65.03-3.34-.15-4.85.13-1.51.27-2.96.71-4.19 1.53-1.23.83-2.32 2.11-3.19 3.41-.87 1.31-1.54 2.88-2 4.42s-.59 3.2-.78 4.83c-.19 1.64-.18 3.34-.37 5-.18 1.65-.39 3.31-.73 4.94-.33 1.62-.75 3.24-1.27 4.82a43 43 0 0 1-1.84 4.64c-.71 1.5-1.52 2.96-2.38 4.39-.87 1.42-1.82 2.79-2.8 4.15-.97 1.35-1.98 2.68-3.04 3.97a62 62 0 0 1-3.31 3.75 56 56 0 0 1-3.61 3.46c-1.24 1.11-2.55 2.16-3.87 3.18s-2.67 2-4.04 2.95c-1.38.94-2.78 1.86-4.2 2.73-1.42.88-2.86 1.72-4.33 2.52-1.46.8-2.95 1.56-4.46 2.27-1.51.72-3.04 1.39-4.58 2.02a88 88 0 0 1-4.69 1.75c-1.58.53-3.18 1.01-4.79 1.45-1.61.43-3.24.81-4.87 1.15-1.64.35-3.28.65-4.93.91s-3.3.48-4.96.66c-1.66.17-3.33.31-5 .4-1.66.09-3.33.15-5 .15-1.67.01-3.34-.03-5.01-.11a84 84 0 0 1-4.99-.39c-1.66-.17-3.31-.39-4.96-.67-1.65-.27-3.29-.58-4.92-.95a93 93 0 0 1-4.85-1.24c-1.6-.46-3.19-.97-4.76-1.53a85 85 0 0 1-4.68-1.79q-2.31-.975-4.56-2.07c-1.5-.72-2.98-1.5-4.44-2.31s-2.9-1.66-4.31-2.55c-1.42-.88-2.8-1.81-4.17-2.78-1.36-.96-2.7-1.96-4.01-2.99a79 79 0 0 1-3.83-3.23 69 69 0 0 1-3.59-3.48c-1.16-1.2-2.27-2.45-3.34-3.73s-2.1-2.6-3.07-3.96c-.98-1.35-1.92-2.73-2.79-4.15-.86-1.43-1.68-2.89-2.39-4.39s-1.34-3.05-1.86-4.62c-.53-1.57-.97-3.19-1.32-4.81-.34-1.63-.59-3.29-.76-4.93-.16-1.65-.1-3.34-.23-4.95-.14-1.61-.15-3.21-.59-4.71m79.22-59.15c-1.01-.1-1.98-1.19-3.03-2.19-1.04-1-2.09-2.61-3.24-3.8-1.15-1.2-2.37-2.35-3.67-3.38a32 32 0 0 0-4.11-2.8c-1.44-.82-2.96-1.53-4.51-2.11s-3.17-1.02-4.79-1.35c-1.62-.32-3.29-.51-4.94-.6a36 36 0 0 0-4.99.1c-1.65.14-3.31.39-4.93.77-1.61.37-3.22.85-4.75 1.46a32 32 0 0 0-4.46 2.21c-1.42.85-2.78 1.84-4.06 2.89a37 37 0 0 0-3.62 3.43 35.4 35.4 0 0 0-3.12 3.89c-.93 1.36-1.77 2.81-2.48 4.31-.7 1.49-1.29 3.06-1.74 4.65s-.78 3.24-.94 4.88c-.17 1.64-.18 3.31-.05 4.96.12 1.64.41 3.3.8 4.9.4 1.61.94 3.2 1.58 4.72.63 1.53 1.4 3.03 2.25 4.45.86 1.41 1.83 2.78 2.9 4.05 1.06 1.26 2.25 2.43 3.49 3.54 1.24 1.1 2.84 2.05 3.94 3.08 1.1 1.02 2.32 1.98 2.64 3.07.31 1.08-.14 2.24-.76 3.44-.61 1.19-1.99 2.42-2.93 3.73s-1.98 2.67-2.72 4.12c-.74 1.46-1.33 3.04-1.71 4.63-.37 1.58-.56 3.26-.55 4.89.01 1.64.23 3.31.59 4.91.37 1.6.92 3.2 1.59 4.7s1.52 2.95 2.45 4.32c.93 1.36 2.01 2.65 3.13 3.87 1.13 1.21 2.36 2.35 3.62 3.44s2.58 2.11 3.94 3.08c1.35.97 2.75 1.89 4.18 2.73 1.44.85 2.92 1.62 4.43 2.32 1.51.71 3.07 1.33 4.63 1.9 1.57.58 3.16 1.09 4.76 1.55 1.6.47 3.23.87 4.86 1.23 1.63.35 3.27.66 4.92.91s3.31.44 4.97.58c1.67.15 3.34.23 5.01.26 1.66.04 3.34.02 5-.04 1.67-.06 3.34-.17 5-.33 1.66-.17 3.32-.38 4.97-.65s3.29-.59 4.91-.96c1.63-.36 3.25-.78 4.85-1.25 1.6-.48 3.19-1 4.74-1.61 1.55-.6 3.09-1.27 4.58-2.01s2.95-1.56 4.36-2.44c1.42-.88 2.79-1.84 4.12-2.85 1.33-1 2.62-2.07 3.85-3.19 1.22-1.13 2.42-2.3 3.52-3.55 1.09-1.25 2.16-2.55 3.04-3.94.89-1.38 1.69-2.86 2.26-4.39s.97-3.16 1.18-4.78c.21-1.63.23-3.32.09-4.96-.15-1.63-.45-3.3-.94-4.86s-1.18-3.08-2.01-4.49c-.83-1.42-2.05-2.72-2.96-3.99-.9-1.26-2.11-2.46-2.47-3.61-.36-1.16-.26-2.25.3-3.32.57-1.06 1.96-2.01 3.12-3.06 1.15-1.05 2.61-2.07 3.81-3.22s2.35-2.37 3.38-3.67c1.03-1.29 1.98-2.68 2.79-4.11.81-1.44 1.51-2.97 2.09-4.52.57-1.55 1.03-3.16 1.36-4.78s.54-3.29.61-4.94c.06-1.64-.01-3.32-.23-4.96-.21-1.63-.58-3.27-1.06-4.85-.49-1.58-1.12-3.14-1.85-4.63a31.9 31.9 0 0 0-5.68-8.14c-1.14-1.19-2.4-2.29-3.73-3.29-1.32-.99-2.73-1.9-4.19-2.68s-3-1.45-4.56-2.01c-1.56-.55-3.18-.99-4.8-1.31-1.63-.32-3.29-.52-4.95-.61-1.65-.08-3.33-.04-4.98.11-1.65.16-3.31.41-4.92.8s-3.21.9-4.73 1.53a32 32 0 0 0-4.42 2.29c-1.41.86-2.77 1.85-4.05 2.91-1.28 1.05-2.48 2.24-3.63 3.41s-2.21 2.75-3.27 3.62-2.06 1.69-3.08 1.59m100.05-8.47c-1.09-.16-2.33-.3-3.16-.05-.82.24-1.49.79-1.8 1.54-.31.76-.13 1.91-.04 2.99.08 1.08.39 2.31.54 3.48.15 1.16.26 2.33.34 3.5q.12 1.755.15 3.51c.03 1.18.02 2.35 0 3.52-.02 1.18-.07 2.35-.13 3.52-.07 1.17-.16 2.34-.28 3.51-.13 1.17-.31 2.33-.46 3.49-.15 1.15-.47 2.42-.43 3.44s.13 2.05.67 2.68c.55.63 1.57.94 2.57 1.09s2.32 0 3.45-.18c1.14-.18 2.28-.51 3.35-.92 1.08-.42 2.13-.96 3.1-1.58s1.89-1.37 2.73-2.16c.84-.8 1.61-1.69 2.31-2.62s1.34-1.92 1.88-2.95c.53-1.03 1.01-2.11 1.34-3.22.33-1.1.56-2.25.64-3.4.08-1.14.01-2.32-.16-3.46s-.48-2.29-.87-3.37c-.4-1.09-.9-2.16-1.5-3.15s-1.3-1.93-2.08-2.78-1.67-1.62-2.6-2.31-1.94-1.3-2.97-1.84c-1.03-.53-2.11-.99-3.21-1.37s-2.29-.75-3.38-.91m-194.9 2.42c-.26-.86-.78-1.58-1.54-1.96s-1.94-.4-3.01-.34c-1.06.05-2.29.35-3.39.69-1.11.33-2.19.78-3.21 1.31s-2.02 1.16-2.93 1.86c-.92.7-1.79 1.49-2.56 2.34-.77.86-1.47 1.8-2.05 2.79s-1.07 2.06-1.44 3.15a16.8 16.8 0 0 0-.77 3.37 17.4 17.4 0 0 0-.08 3.46c.09 1.14.3 2.3.61 3.4.31 1.11.74 2.21 1.25 3.24s1.12 2.03 1.81 2.96c.69.92 1.47 1.8 2.31 2.58.85.78 1.78 1.49 2.76 2.11.97.62 2.02 1.15 3.08 1.61s2.18.86 3.29 1.15c1.1.3 2.39.65 3.36.64.97-.02 1.95-.18 2.47-.74.51-.55.58-1.59.6-2.6.03-1.01-.3-2.3-.45-3.45-.16-1.15-.35-2.31-.48-3.47s-.25-2.32-.33-3.48c-.08-1.17-.13-2.33-.15-3.5-.03-1.17-.02-2.34.01-3.5a101 101 0 0 1 .42-6.99c.12-1.16.36-2.37.43-3.48.07-1.1.25-2.3-.01-3.15"/><g class="cv-blink-8"><circle cx="104.6" cy="152.59" r="16.55" fill="#070607"/><circle cx="170.76" cy="152.56" r="16.56" fill="#070607"/></g><path fill="#070607" d="M124.53 190.04c.8-.03 1.62-.16 2.39-.38s1.54-.54 2.23-.95c.69-.4 1.35-.91 1.9-1.48a8.1 8.1 0 0 0 1.39-1.96c.35-.71.61-1.5.71-2.28s.08-1.61-.08-2.38a7.5 7.5 0 0 0-.87-2.23c-.39-.68-.93-1.32-1.52-1.85s-1.28-.99-2-1.35c-.71-.35-1.51-.62-2.29-.79-.79-.17-1.61-.24-2.42-.21-.8.03-1.62.16-2.39.38s-1.54.54-2.23.95c-.69.4-1.36.91-1.9 1.48a8.1 8.1 0 0 0-1.39 1.96c-.35.7-.61 1.5-.71 2.28-.11.78-.08 1.61.08 2.38s.47 1.54.87 2.22c.39.68.93 1.32 1.52 1.86.59.53 1.28.99 2 1.35.71.35 1.51.62 2.29.79s1.61.24 2.42.21m27.39-.12c.78-.13 1.57-.37 2.3-.69.72-.33 1.43-.75 2.05-1.25s1.19-1.1 1.64-1.74.83-1.38 1.08-2.13c.24-.74.37-1.56.37-2.34s-.14-1.6-.38-2.34c-.25-.74-.64-1.47-1.11-2.1a8.2 8.2 0 0 0-1.69-1.68c-.64-.46-1.37-.84-2.11-1.12a10 10 0 0 0-2.35-.53c-.79-.07-1.61-.04-2.4.08-.78.13-1.57.37-2.3.69-.72.33-1.43.75-2.05 1.25-.61.5-1.19 1.09-1.64 1.74-.45.64-.83 1.38-1.08 2.13-.24.74-.37 1.56-.37 2.34s.14 1.6.38 2.34c.25.74.64 1.47 1.11 2.1.46.63 1.06 1.21 1.69 1.67.64.47 1.37.85 2.11 1.13a10 10 0 0 0 2.35.53c.79.07 1.61.04 2.4-.08m-44.54 17.85c.15-.91.73-1.87 1.46-2.32s1.9-.47 2.95-.38c1.04.1 2.22.6 3.34.95 1.11.35 2.22.79 3.34 1.14 1.12.36 2.25.7 3.39 1 1.14.29 2.29.57 3.44.79 1.16.22 2.32.39 3.49.53s2.35.23 3.52.31c1.18.07 2.35.12 3.53.14 1.18.03 2.36.02 3.53-.01 1.18-.03 2.36-.09 3.53-.17 1.18-.09 2.35-.2 3.52-.33 1.17-.14 2.33-.31 3.5-.5 1.16-.2 2.32-.42 3.47-.67s2.29-.54 3.43-.84 2.26-.68 3.4-.97c1.13-.29 2.34-.71 3.41-.77s2.25-.02 2.99.43c.75.45 1.32 1.37 1.46 2.26s-.17 2.1-.63 3.06c-.45.96-1.29 1.88-2.1 2.69s-1.79 1.5-2.75 2.18c-.96.67-1.97 1.28-3 1.85-1.02.57-2.08 1.1-3.15 1.58a44 44 0 0 1-6.65 2.33c-1.14.29-2.29.54-3.45.72s-2.34.28-3.51.36-2.35.11-3.53.12c-1.18 0-2.36-.02-3.53-.08-1.18-.06-2.35-.15-3.52-.27-1.17-.13-2.34-.28-3.5-.48a45 45 0 0 1-6.84-1.71c-1.11-.38-2.22-.79-3.3-1.25-1.08-.47-2.15-.97-3.17-1.54s-2.03-1.18-2.96-1.89c-.93-.7-1.85-1.46-2.6-2.32-.76-.86-1.53-1.83-1.95-2.82-.41-.99-.71-2.21-.56-3.12"/><path fill="#070607" fill-rule="evenodd" d="M56.56 333.11c.94.46 1.7 1.45 2.21 2.49.5 1.04.68 2.48.82 3.77.15 1.29.16 2.68.05 3.98-.11 1.31-.26 2.68-.7 3.84-.45 1.16-1.11 2.28-1.98 3.15-.86.87-2.04 1.51-3.21 2.06s-2.5.9-3.78 1.24c-1.29.34-2.61.58-3.92.8a59 59 0 0 1-7.97.69c-1.34.03-2.68.02-4-.07-1.33-.08-2.66-.22-3.98-.43a41 41 0 0 1-3.91-.83c-1.28-.35-2.56-.76-3.8-1.24a32 32 0 0 1-3.62-1.66c-1.17-.62-2.31-1.33-3.38-2.11a31 31 0 0 1-3.07-2.55c-.96-.91-1.87-1.9-2.71-2.92a33 33 0 0 1-4.25-6.74 33 33 0 0 1-1.5-3.7 34 34 0 0 1-1.06-3.85c-.27-1.3-.47-2.62-.6-3.95-.13-1.32-.18-2.66-.15-3.98.02-1.33.12-2.67.29-3.98.16-1.32.4-2.64.7-3.93.31-1.3.68-2.58 1.13-3.83s.98-2.48 1.58-3.66c.61-1.19 1.29-2.34 2.04-3.44.74-1.09 1.56-2.16 2.43-3.16.88-1 1.81-1.96 2.8-2.84.99-.89 2.03-1.73 3.12-2.49a29.7 29.7 0 0 1 7.06-3.68c1.24-.45 2.53-.81 3.83-1.1 1.29-.29 2.61-.49 3.93-.65 1.33-.15 2.66-.23 4-.28 1.33-.04 2.67-.04 4 .01s2.67.14 3.99.3c1.32.15 2.65.36 3.95.65 1.29.28 2.61.6 3.83 1.08s2.5 1.01 3.48 1.78c.99.76 1.88 1.72 2.45 2.8.58 1.08.84 2.4 1.01 3.68.18 1.27.16 2.67.05 3.97-.11 1.31-.26 2.72-.72 3.85-.45 1.13-1.13 2.26-2.02 2.91-.89.64-2.12.9-3.31.96-1.19.07-2.55-.33-3.84-.55-1.3-.22-2.61-.56-3.93-.75s-2.65-.34-3.98-.41c-1.33-.08-2.67-.13-3.99-.05-1.33.08-2.66.21-3.94.5-1.29.29-2.59.68-3.77 1.23s-2.35 1.24-3.3 2.08c-.95.85-1.78 1.9-2.4 3.01s-1.05 2.4-1.32 3.67c-.27 1.26-.38 2.63-.3 3.92s.33 2.62.77 3.82c.45 1.2 1.11 2.38 1.9 3.4.79 1.01 1.78 1.93 2.83 2.7 1.04.76 2.24 1.39 3.45 1.9 1.21.5 2.5.87 3.79 1.12 1.3.26 2.63.38 3.96.42 1.32.03 2.66-.06 3.98-.22 1.31-.15 2.63-.41 3.92-.73 1.29-.31 2.56-.78 3.83-1.16s2.59-.98 3.79-1.12c1.21-.14 2.5-.18 3.44.28m34.69-1.09c-.77.61-1.13 1.67-1.39 2.78-.27 1.11-.17 2.57-.2 3.88s.02 2.66.01 3.99c-.01 1.32.08 2.7-.07 3.98-.14 1.28-.27 2.64-.8 3.68a6.57 6.57 0 0 1-2.37 2.59c-.99.61-2.34.87-3.6 1.08s-2.67.23-3.96.16c-1.3-.06-2.71-.14-3.82-.56-1.12-.42-2.18-1.06-2.86-1.95s-.98-2.17-1.22-3.39-.17-2.63-.21-3.95c-.04-1.33-.02-2.66-.03-3.99l-.03-3.99-.03-3.99-.03-3.99-.03-3.99-.03-3.98v-3.99c0-1.33.01-2.66.02-3.99 0-1.33.01-2.66.02-3.99l.03-3.99c0-1.33 0-2.66.02-3.99s-.06-2.7.09-3.98c.14-1.28.26-2.65.78-3.69s1.34-1.96 2.33-2.55c.99-.6 2.34-.83 3.6-1.02 1.26-.2 2.67-.2 3.97-.14s2.7.11 3.82.5c1.11.4 2.17 1 2.86 1.87.68.88.99 2.15 1.24 3.37.24 1.22.18 2.63.22 3.95.04 1.33 0 2.66.02 3.99.03 1.33-.1 2.8.11 3.97.2 1.18.44 2.37 1.13 3.09.69.71 1.85.99 3.01 1.22 1.16.22 2.63.1 3.95.12s2.66 0 3.99 0 2.79.14 3.99 0c1.2-.15 2.44-.27 3.22-.87s1.17-1.64 1.46-2.74c.28-1.1.19-2.55.24-3.86.04-1.3 0-2.66.01-3.99.02-1.32-.08-2.72.07-3.98s.27-2.61.82-3.58 1.45-1.75 2.48-2.25c1.03-.49 2.42-.61 3.7-.73 1.28-.13 2.71-.15 3.98-.03 1.28.12 2.66.24 3.69.75 1.02.52 1.91 1.35 2.47 2.35.56.99.7 2.35.86 3.62.15 1.27.06 2.66.07 3.98.01 1.33-.01 2.66-.02 3.99 0 1.33-.01 2.66-.01 3.99-.01 1.33-.01 2.66-.02 3.99 0 1.33-.01 2.66-.01 3.99-.01 1.33-.01 2.66-.02 3.99 0 1.33-.01 2.66-.01 3.99-.01 1.33-.01 2.66-.02 3.99 0 1.33-.01 2.66-.01 3.98-.01 1.33-.01 2.66-.02 3.99 0 1.33-.01 2.66-.01 3.99-.01 1.33 0 2.66-.02 3.99-.01 1.33.08 2.73-.08 3.98-.17 1.26-.33 2.6-.9 3.57-.57.96-1.5 1.73-2.54 2.22-1.05.49-2.44.59-3.72.7s-2.71.1-3.98-.04c-1.27-.15-2.64-.29-3.63-.82a5.6 5.6 0 0 1-2.32-2.37c-.51-1-.61-2.37-.74-3.64s-.04-2.65-.05-3.98 0-2.66-.02-3.99.11-2.8-.1-3.97c-.21-1.16-.46-2.33-1.16-3.02s-1.88-.92-3.05-1.12-2.65-.06-3.97-.07c-1.33-.01-2.66 0-3.99 0s-2.79-.15-3.99 0-2.43.28-3.19.89m90.66 14.15c-.83-.8-1.84-1.35-2.97-1.69-1.13-.35-2.51-.32-3.81-.38-1.29-.06-2.65 0-3.97 0-1.33 0-2.67-.04-3.98 0-1.3.04-2.72-.05-3.87.22s-2.22.67-3.03 1.41-1.2 2-1.82 3.04c-.63 1.03-1.1 2.35-1.94 3.17-.83.82-1.94 1.38-3.1 1.76-1.15.37-2.53.41-3.82.48-1.3.08-2.69.08-3.97-.05-1.28-.14-2.68-.27-3.71-.77s-1.99-1.28-2.47-2.23c-.48-.94-.51-2.25-.41-3.45s.62-2.52 1.01-3.77c.4-1.25.92-2.48 1.37-3.73.46-1.24.93-2.48 1.39-3.72.47-1.24.94-2.48 1.4-3.72.47-1.24.93-2.48 1.39-3.72.47-1.25.92-2.49 1.38-3.73s.93-2.49 1.39-3.73.92-2.48 1.38-3.73c.46-1.24.91-2.48 1.38-3.72.46-1.24.92-2.49 1.4-3.72.47-1.24.95-2.47 1.44-3.71.48-1.23.97-2.46 1.45-3.7.49-1.23.98-2.46 1.46-3.69.49-1.24.91-2.53 1.46-3.7s1.07-2.42 1.85-3.34c.79-.92 1.77-1.68 2.86-2.18 1.1-.51 2.44-.67 3.72-.85 1.28-.17 2.64-.16 3.96-.19s2.68-.09 3.97.03 2.63.24 3.77.7c1.14.45 2.21 1.15 3.07 2.02.87.88 1.52 2.06 2.13 3.2s1.06 2.42 1.55 3.65c.5 1.22.96 2.47 1.43 3.7.48 1.24.96 2.48 1.43 3.71.48 1.24.96 2.48 1.43 3.71.48 1.24.96 2.47 1.43 3.71.48 1.24.95 2.47 1.43 3.71s.95 2.47 1.43 3.71.95 2.47 1.43 3.71c.48 1.23.95 2.47 1.43 3.71.47 1.23.95 2.47 1.42 3.71.48 1.24.95 2.47 1.4 3.72.46 1.24.92 2.48 1.36 3.73s.9 2.5 1.27 3.77c.37 1.26.81 2.58.94 3.83.12 1.24.19 2.62-.19 3.64s-1.16 1.92-2.1 2.48c-.95.56-2.31.72-3.56.89-1.25.16-2.66.13-3.97.08-1.3-.04-2.68-.05-3.88-.36-1.19-.32-2.36-.78-3.27-1.53-.92-.75-1.51-1.96-2.2-2.97-.7-1.02-1.15-2.32-1.97-3.12m-11.11-30.82c-.28.07-.55.68-.81 1.25-.25.58-.49 1.49-.73 2.23-.25.74-.49 1.48-.74 2.23-.24.74-.51 1.48-.73 2.22s-.54 1.56-.58 2.22-.01 1.34.32 1.76c.34.41 1.02.6 1.68.74.67.14 1.57.12 2.32.09.75-.02 1.61-.02 2.17-.23.57-.21 1.04-.54 1.22-1.03.18-.48 0-1.21-.15-1.89-.15-.69-.51-1.48-.76-2.22l-.75-2.22c-.25-.74-.49-1.51-.76-2.22-.26-.72-.53-1.6-.82-2.09-.28-.48-.6-.9-.88-.84m63.37 9.74c-.54-.05-.95.64-1.2 1.51s-.27 2.41-.31 3.69c-.04 1.29.04 2.68.06 4.02.01 1.34.02 2.68.01 4.02 0 1.34-.03 2.68-.05 4.02s.02 2.72-.09 4.02c-.11 1.29-.14 2.68-.58 3.76-.43 1.08-1.11 2.05-2.03 2.69-.91.64-2.23.94-3.48 1.17s-2.68.26-3.99.21c-1.31-.06-2.73-.14-3.89-.54s-2.3-1-3.07-1.86c-.76-.87-1.2-2.1-1.51-3.31s-.3-2.62-.36-3.95c-.07-1.33-.03-2.68-.04-4.02s0-2.68 0-4.02v-32.15c0-1.34-.02-2.68.01-4.02.02-1.33-.05-2.72.12-4.01.18-1.28.37-2.64.94-3.67a6.64 6.64 0 0 1 2.49-2.5c1.03-.58 2.4-.8 3.68-.98 1.27-.18 2.69-.18 3.99-.1 1.31.08 2.66.18 3.85.58s2.29 1.05 3.29 1.84c1 .78 1.84 1.87 2.7 2.87.86 1.01 1.66 2.11 2.48 3.16.83 1.06 1.66 2.11 2.49 3.16.82 1.06 1.65 2.11 2.47 3.17s1.63 2.13 2.45 3.19c.81 1.06 1.62 2.13 2.44 3.19.81 1.07 1.62 2.18 2.44 3.2.81 1.02 1.71 2.29 2.43 2.91.72.63 1.46 1.11 1.9.84.44-.28.61-1.41.74-2.49.14-1.08.06-2.68.08-4.01.01-1.34 0-2.68 0-4.02v-4.02c.01-1.34-.02-2.69.03-4.02.06-1.33.02-2.77.32-3.97.29-1.21.69-2.43 1.44-3.27.75-.83 1.89-1.35 3.05-1.72s2.59-.43 3.91-.48c1.31-.05 2.75-.08 3.97.17s2.47.6 3.35 1.31c.89.72 1.49 1.83 1.95 2.98.45 1.14.6 2.56.77 3.87s.22 2.67.27 4c.05 1.34.05 2.68.06 4.02s0 2.68 0 4.02v28.13c0 1.34.02 2.68-.01 4.02s0 2.7-.15 4.01-.28 2.71-.74 3.86c-.46 1.14-1.12 2.26-2.02 3s-2.15 1.16-3.38 1.43c-1.22.28-2.65.29-3.95.23-1.31-.06-2.66-.21-3.87-.6-1.21-.4-2.35-1.01-3.39-1.76-1.03-.76-1.92-1.78-2.8-2.77-.89-.99-1.68-2.09-2.5-3.14-.82-1.06-1.62-2.14-2.44-3.2-.81-1.07-1.62-2.13-2.44-3.19s-1.64-2.12-2.47-3.17c-.83-1.06-1.66-2.1-2.5-3.15-.83-1.05-1.68-2.09-2.5-3.14-.82-1.06-1.67-2.38-2.4-3.21-.74-.84-1.49-1.76-2.02-1.81"/></g></g></svg>