<svg width="1589" height="1000" viewBox="0 0 1589 1000" fill="none" xmlns="http://www.w3.org/2000/svg">
<path d="M178.296 0.469644C226.794 -0.541914 278.555 0.411437 327.363 0.307457C349.004 111.177 367.277 225.179 387.338 336.549L493.889 929.992C495.134 937.168 504.724 989.834 503.474 992.278C497.235 993.557 490.688 993.36 484.333 993.313C432.647 992.911 380.975 992.851 329.288 993.548C326.647 993.587 323.524 993.724 321.264 992.338C318.817 986.39 312.351 938.456 310.905 928.828L279.588 711.502C277.688 694.069 274.504 681.497 273.563 662.49C241.721 662.28 209.878 662.246 178.036 662.383C165.506 662.349 143.704 662.858 131.88 661.506C131.983 681.634 122.107 727.698 118.644 750.899L99.8985 868.986C93.7406 908.974 87.5676 953.544 80.5624 993.129C53.708 992.954 26.8523 993.056 0 993.433C5.36669 955.38 12.1764 921.131 18.8739 883.36C28.1356 828.815 37.8741 774.348 48.0871 719.974L92.8282 469.04L137.308 220.16C149.443 150.016 161.794 79.77 174.853 9.76622C175.547 6.04519 176.055 3.59418 178.296 0.469644ZM142.987 602.289C155.156 600.787 188.794 602.237 202.891 602.109C222.38 602.087 244.634 602.511 263.991 601.27C249.566 512.211 238.657 421.71 224.29 332.523C218.85 298.748 215.625 263.921 210.029 230.177C209.327 225.945 208.641 221.273 205.432 218.423C199.511 230.254 192.029 289.048 189.616 305.372L176.866 388.946L142.987 602.289Z" fill="#212F78"/>
<path d="M899.988 704.833C970.045 702.154 1019.66 697.73 1028.5 787.033C1032.51 827.572 1030.94 869.545 1029.09 910.208C1027.91 936.216 1017.99 962.819 997.15 979.469C990.555 984.877 982.793 988.673 974.474 990.56C956.89 994.706 903.03 992.716 881.197 993.285L881.039 704.679C886.979 705.098 893.958 704.876 899.988 704.833ZM933.097 977.543C947.013 978.762 956.89 977.778 964.554 964.792C979.887 932.446 979.562 780.649 966.608 740.4C964.079 732.54 960.93 727.439 954.1 722.672C946.29 722.381 939.122 722.296 931.398 720.961C933.521 730.062 932.391 775.625 932.361 788.637L932.382 904.338C932.408 927.461 931.835 954.586 933.097 977.543Z" fill="#212F78"/>
<path d="M1355.44 704.374C1367.08 705.525 1397.81 703.933 1412.15 704.036L1411.87 885.248C1411.84 920.147 1410.9 958.937 1412.06 993.426C1396.13 992.792 1376.34 992.861 1360.51 993.434L1360.89 870.994C1360.99 859.497 1359.77 837.242 1360.7 827.811C1360.68 822.535 1361.24 812.025 1359.68 807.644L1357.96 807.43L1355.96 809.993C1348.77 847.434 1339.59 886.912 1331.99 924.418C1329.19 938.248 1321.57 982.249 1317.4 993.194C1307.23 993.254 1296.72 993.182 1286.59 993.725L1260.94 865.564C1258.09 851.893 1250.88 829.321 1249.39 816.458C1250.32 813.626 1243.32 778.264 1242.53 771.122C1239.68 797.982 1242.83 838.294 1242.98 866.352C1243.03 875.068 1242.62 906.437 1243.94 913.434C1245.94 922.937 1244.97 980.396 1244.94 993.567C1238.3 993.639 1229.88 994.097 1223.55 992.741C1218.28 986.309 1220.74 730.095 1221.6 704.935C1238.79 704.52 1256.66 704.661 1273.91 704.571C1275.7 715.328 1279.32 729.197 1281.71 740.082C1286.41 762.402 1291.29 784.691 1296.33 806.942C1298.95 818.714 1312.42 887.238 1317.08 892.278C1319.83 889.51 1332.69 819.428 1334.15 810.977C1339.88 777.939 1353.17 737.263 1355.44 704.374Z" fill="#212F78"/>
<path d="M1355.99 809.997C1354.45 806.039 1359.79 785.406 1361.47 780.203L1362.38 779.398L1361.68 779.574L1362.42 779.223C1362.85 783.57 1361.41 823.168 1360.73 827.815C1360.71 822.539 1361.27 812.03 1359.71 807.648L1357.99 807.434L1355.99 809.997Z" fill="#EEE9FA"/>
<path d="M1372.25 1.88566C1385.87 0.547618 1402.51 6.4779 1412.98 15.1917C1425.96 25.6723 1430.47 42.5867 1431.07 58.8252C1433 110.738 1430.96 163.106 1431.98 215.083C1432.29 231.026 1432.04 245.639 1429.54 261.373C1425.54 286.487 1399.53 300.83 1375.92 302.439C1341.69 301.878 1317.2 284.095 1315.63 248.296C1312.78 183.447 1313.01 115.598 1316.02 50.8303C1317.47 19.78 1343.6 4.68842 1372.25 1.88566ZM1376.57 262.956C1380.03 260.885 1383.51 258.951 1386.63 256.392C1389.64 237.316 1389.49 219.584 1389.26 200.033C1388.73 154.354 1390.38 107.96 1388.2 62.3344C1387.59 49.4422 1384.26 42.4849 1370.85 40.9809C1365.24 43.5769 1361.91 45.4764 1359.7 51.6317C1355.61 63.0182 1356.71 214.518 1357.86 235.977C1358.16 241.63 1358.2 248.788 1360.77 253.868C1362.68 257.659 1365.15 260.894 1369.39 262.19C1371.76 262.918 1374.11 263.059 1376.57 262.956Z" fill="#4059C7"/>
<path d="M651.196 1.88633C676.337 -1.75511 705.946 16.8042 710.259 42.4941C713.499 61.798 712.989 80.4751 712.981 99.9506L712.904 166.172C712.861 192.894 713.46 219.774 712.412 246.449C711.072 280.609 692.179 295.889 660.388 301.944C645.145 302.235 630.013 300.185 617.522 290.562C593.596 272.141 596.609 242.816 596.609 215.623L596.532 158.092L596.463 94.1739C596.442 48.605 593.378 8.19445 651.196 1.88633ZM658.424 262.076C661.578 260.219 665.035 258.332 667.915 256.124C669.186 247.712 671.193 236.766 671.253 228.281C671.604 174.98 672.515 121.376 670.864 68.1143C670.667 61.7813 669.161 52.1664 665.622 47.0744C661.235 40.5284 656.477 41.5416 649.527 42.0252C645.5 43.7697 641.85 45.397 640.087 49.7851C635.217 61.9127 636.732 208.114 637.81 229.077C638.165 236.026 638.148 246.71 641.161 252.962C643.181 257.147 646.609 260.45 651.11 261.845C653.451 262.573 656.032 262.444 658.424 262.076Z" fill="#4059C7"/>
<path d="M1005.2 355.024C1018.23 355.328 1034.35 355.735 1047.21 354.498C1046.1 451.499 1048.37 549.604 1046.86 646.652C1037.97 646.121 1010.44 646.93 1005.7 643.507C1001.22 636.108 997.313 618.697 994.42 609.771C988.707 592.154 983.119 574.409 977.53 556.75C971.59 537.965 968.509 520.836 959.912 503.194C957.216 506.608 958.226 633.939 958.684 646.271C945.743 646.237 930.701 645.839 917.928 646.506C916.212 632.57 916.541 615.458 916.515 601.2L916.425 538.795C916.361 478.354 915.433 414.879 916.571 354.588C927.663 355.012 943.792 354.382 953.715 355.508C960.742 379.03 968.068 402.735 975.951 425.992C980.311 438.854 985.117 459.659 990.098 471.336C995.144 487.669 1000.29 503.972 1005.54 520.241C1006.68 506.685 1005.85 465.842 1004.87 452.222C1005.92 445.855 1005.58 422.325 1005.44 414.973C1005.1 395.619 1006.09 374.152 1005.2 355.024Z" fill="#212F78"/>
<path d="M563.079 354.862C573.983 354.648 583.868 354.579 594.759 354.922C598.718 370.51 641.755 510.344 645.345 513.54L645.379 513.532C646.843 511.131 647.117 507.532 647.014 504.76C645.161 454.875 646.847 404.828 645.863 354.994C660.04 355.195 674.641 354.836 688.848 354.656C688.044 385.987 688.759 419.453 688.771 451.041L688.767 634.465C688.819 639.133 689.85 643.318 685.75 646.018C677.478 646.767 656.891 647.871 649.415 645.492C640.856 642.771 611.44 522.124 601.473 503.275L600.117 502.915C597.836 509.556 598.747 631.033 599.265 646.425C585.674 646.254 572.083 646.275 558.492 646.493C557.384 623.318 558.128 593.464 558.12 569.771L558.098 430.51C558.098 420.343 557.337 359.286 559.365 355.717L563.079 354.862Z" fill="#212F78"/>
<path d="M1165.85 5.68967C1191.37 4.8497 1234.52 2.90446 1256.39 16.691C1280.09 31.6256 1281.77 61.7494 1282.92 86.6567C1284.39 118.53 1279.82 131.965 1262.58 158.218C1266.78 187.959 1276.09 221.831 1281.73 251.536C1284.16 264.378 1289.71 283.847 1289.47 296.659C1285.94 299.123 1252.31 298.413 1243.98 299.11C1240.24 282.371 1237.94 262.106 1234.27 244.519C1234.29 243.235 1231.07 227.125 1230.61 224.549C1227.46 207.231 1224.63 189.858 1222.1 172.439C1217.23 173.311 1213.56 173.254 1208.64 173.33C1208.97 211.874 1211.63 260.197 1208.57 298.045C1195.82 298.546 1179.09 298.028 1165.94 298.058C1164.59 239.08 1164.06 180.083 1164.35 121.088C1164.29 87.8698 1162.92 37.733 1165.85 5.68967ZM1208.89 132.058C1217.33 131.946 1224.28 132.848 1231.19 127.923C1236.18 124.368 1237.63 123.041 1238.42 116.44C1240.87 96.1492 1240.02 73.1551 1234.55 53.5774L1226.57 46.5439C1218.87 46.4109 1216 46.4383 1208.36 44.5076C1211.09 62.8371 1210.04 112.37 1208.89 132.058Z" fill="#4059C7"/>
<path d="M608.479 699.39C626.482 696.425 651.435 703.562 663.948 716.879C682.165 736.258 682.657 761.042 682.387 785.826C664.975 785.343 646.723 785.604 629.238 785.625C630.483 769.001 630.068 734.945 624.248 719.934C621.278 712.27 595.701 711.829 594.246 731.436C591.747 765.112 592.603 798.749 592.594 832.54L592.603 905.699C592.616 921.043 591.002 961.95 597.879 977.612C600.528 980.77 609.823 984.462 613.366 984.449C622.151 984.411 626.11 973.944 627.244 966.542C630.612 944.625 629.345 921.698 629.003 899.498C629.191 892.66 629.14 885.818 628.853 878.985C640.527 878.925 673.221 879.896 682.571 878.347C680.526 928.788 691.532 991.865 621.749 999.323C560.26 1005.9 538.277 963.752 537.19 908.861C536.103 854.089 526.308 768.929 557.461 720.627C567.167 705.574 592.252 700.541 608.479 699.39Z" fill="#212F78"/>
<path d="M1551.02 5.31445L1551.61 6.09194C1551.67 14.2777 1555.53 36.7947 1556.72 45.995C1560.4 75.9785 1564.33 105.93 1568.53 135.846L1583.53 253.07C1585.18 265.749 1586.81 287.504 1589 298.437C1577.66 297.495 1558.2 298.158 1547.12 298.924C1543.92 276.537 1541.61 254.025 1540.21 231.453C1529.8 232.792 1514.9 230.071 1506.53 233.383L1506.09 235.98C1501.29 252.664 1500.29 280.332 1499.03 298.492C1484.27 297.889 1472.36 297.966 1457.64 298.27C1460.84 261.004 1466.62 222.775 1472.05 185.638C1480.75 126.088 1487.53 65.2364 1496.5 5.90623C1513.59 4.88911 1533.89 7.05045 1551.02 5.31445ZM1509.07 193.006C1517.57 192.355 1526.1 193.532 1534.57 192.234C1534.69 188.455 1534.14 184.953 1533.81 181.201C1531.1 149.928 1526.17 118.806 1523.2 87.5836C1519.74 89.9199 1519.96 94.2811 1519.63 98.2926C1520.31 110.47 1512.45 180.396 1509.07 193.006Z" fill="#4059C7"/>
<path d="M1521.03 58.7109C1522.47 65.5659 1526.02 81.7183 1523.21 87.5844C1519.76 89.9207 1519.98 94.2819 1519.65 98.2935C1518.43 92.1565 1520.17 65.6305 1521.03 58.7109Z" fill="#EEE9FA"/>
<path d="M1102.14 6.08799C1102.81 25.569 1107.64 50.7091 1110.16 71.0288L1128.63 213.575C1132.1 240.131 1136.94 271.389 1138.52 297.85C1124.88 297.709 1111.24 297.829 1097.6 298.205C1096.33 279.463 1092.5 259.579 1091.23 239.176C1091.21 236.048 1091.21 235.736 1090.37 232.754C1084.76 231.731 1063.61 232.441 1054.99 231.662C1054.64 241.581 1050.73 289.669 1047.79 296.22C1043.26 298.988 1014.33 297.747 1007.28 297.653C1009.32 288.8 1010.14 276.699 1011.4 267.289L1019.81 204.846C1028.83 138.451 1038.32 72.3699 1045.89 5.78973C1062.39 5.03577 1085.29 5.88046 1102.14 6.08799ZM1059.93 193.13C1064.95 192.833 1082.35 193.286 1084.84 192.414C1086.58 184.782 1079.13 151.027 1079.82 138.805C1078.02 131.134 1074.67 104.748 1072.55 99.8745L1071.45 100.529C1069.25 106.97 1068.78 115.565 1068.09 122.486C1065.05 145.632 1063.53 170.802 1059.93 193.13ZM1072.73 69.9402C1072.89 66.3411 1073 65.5919 1071.92 62.1879C1070.13 64.6599 1070.63 66.6501 1070.41 70.1777L1072.73 69.9402Z" fill="#4059C7"/>
<path d="M1072.74 69.9434C1074.62 81.3426 1080.99 129.019 1079.83 138.808C1078.03 131.137 1074.68 104.751 1072.56 99.8776L1071.46 100.532C1069.26 106.973 1068.78 115.568 1068.1 122.489C1066.39 116.579 1069.81 80.219 1070.42 70.1809L1072.74 69.9434Z" fill="#EEE9FA"/>
<path d="M1070.43 70.1773C1070.66 66.6497 1070.15 64.6595 1071.94 62.1875C1073.03 65.5915 1072.91 66.3407 1072.75 69.9398L1070.43 70.1773Z" fill="#B0ADFA" fill-opacity="0.980392"/>
<path d="M532.99 6.04549C533.115 14.2437 536.166 31.5351 537.3 40.5031C540.492 67.0595 543.911 93.5885 547.557 120.087C554.978 176.746 561.272 242.177 570.306 297.753C556.805 298.185 542.324 297.907 528.523 298.245C528.142 282.34 523.469 254.171 521.74 236.709L521.676 233.602C518.377 230.958 492.808 231.715 486.534 231.599C486.56 239.041 481.313 291.818 478.296 296.717C471.963 298.506 448.363 297.881 440.305 297.834C443.215 248.014 454.474 178.481 461.706 127.106L472.417 49.0637C473.555 40.5797 475.956 11.1178 479.927 5.85979C497.618 5.76436 515.304 5.82641 532.99 6.04549ZM491.443 192.821C500.258 192.663 508.774 192.972 517.581 193.254C515.415 185.096 505.915 102.366 506.608 95.3253L504.554 92.2992L502.851 92.2466L501.144 95.3459C501.281 112.064 498.362 126.298 496.471 142.769C494.562 159.375 493.257 176.16 491.443 192.821Z" fill="#4059C7"/>
<path d="M502.512 58.8457C503.556 64.3652 508.242 91.3153 506.59 95.326L504.536 92.2999L502.833 92.2472L501.125 95.3465C499.764 91.1077 501.664 64.8055 502.512 58.8457Z" fill="#EEE9FA"/>
<path d="M756.474 704.353C769.911 704.764 788.577 705.23 801.736 704.182C803.777 724.148 810.915 758.388 814.668 779.154L834.563 891.898C840.584 924.619 848.111 960.751 851.95 993.575C836.424 992.514 814.206 993.156 798.471 993.554C792.908 968.102 791.273 934.765 785.346 910.43C784.888 905.988 784.366 901.551 783.784 897.122C776.129 898.864 752.464 898.149 744.65 896.69C739.986 928.911 734.957 961.076 729.557 993.182C721.67 992.972 714.061 993.246 706.188 993.473C707.775 970.392 713.236 945.081 717.121 922.124C725.222 875.021 733.605 827.961 742.284 780.96C744.051 771.11 753.889 709.933 756.474 704.353ZM747.932 879.108C752.494 878.641 757.805 877.952 762.315 878.038C768.276 877.772 774.969 877.636 780.849 877.199C779.963 866.84 768.601 782.218 765.058 778.919C759.799 799.304 757.077 818.123 754.326 838.842C752.853 849.955 750.872 868.731 747.932 879.108Z" fill="#212F78"/>
<path d="M1062.84 704.116C1097.46 705.485 1132.7 703.576 1167.38 704.15C1172.89 704.24 1178.76 704.282 1184.27 704.137C1184.17 710.525 1183.76 720.089 1184.16 726.195C1161.33 725.408 1137.81 725.699 1114.92 725.72C1116.5 735.558 1116.01 768.887 1115.84 781.228C1115.62 796.872 1116.61 821.185 1115.67 835.806C1133.42 835.691 1164.55 836.713 1180.94 835.002C1180.69 842.045 1180.29 849.491 1180.26 856.504C1175.92 856.431 1167.39 856.025 1163.39 856.311C1151.87 856.102 1140.36 856.085 1128.85 856.256C1124.86 855.995 1119.45 855.794 1115.62 855.25C1115.86 895.105 1115.18 934.912 1115.6 974.652C1127.87 972.867 1169.54 973.924 1183.53 973.993C1183.31 980.754 1182.93 986.629 1183.8 993.381C1147.81 992.756 1098.98 992.016 1063.39 993.672C1062.42 925.002 1063.39 856.097 1062.95 787.424C1062.78 760.316 1063.61 730.966 1062.84 704.116Z" fill="#212F78"/>
<path d="M1469.44 703.803C1477.4 702.84 1483.38 703.598 1491.31 704.244C1493.65 716.247 1516.08 818.061 1520.02 823.333C1524.69 821.095 1547.13 720.538 1553.38 707.256C1557.39 703.264 1571.77 704.33 1577.91 704.295C1574.13 722.289 1565.93 747.428 1560.59 765.528C1551.38 797.693 1541.79 829.747 1531.82 861.69C1529.97 870.308 1530.69 911.592 1530.8 923.368C1531.03 946.162 1530.1 971.229 1530.56 993.706C1515.95 992.803 1492.23 993.304 1477.63 994.13C1475.54 950.612 1478.96 904.253 1475.63 860.749C1475 852.465 1469.35 834.253 1467.18 825.734L1448.64 752.597C1447.11 746.7 1436.1 708.091 1438.17 705.232C1446.06 703.867 1460.92 703.974 1469.44 703.803Z" fill="#212F78"/>
<path d="M979.696 5.38281L980.86 6.22492C979.144 16.1022 979.811 34.7831 979.965 45.4134C961.748 46.0099 940.301 45.4023 921.835 45.3458C923.354 54.2098 923.162 114.794 922.096 124.846C933.081 123.949 951.632 124.127 962.874 123.995C962.72 137.794 962.703 151.593 962.823 165.392C949.154 165.401 935.486 165.336 921.818 165.197C925.404 188.715 920.243 232.968 924.553 256.883C930.206 259.027 975.652 258.316 983.753 257.675C982.482 268.278 982.961 284.846 983.012 295.925L982.828 297.491C980.342 298.792 891.735 297.923 880.352 298.15C881.759 271.153 880.42 229.022 880.424 200.698L880.172 5.70802C903.836 6.39052 927.942 5.46925 951.654 5.87533C960.854 6.0328 970.534 6.04221 979.696 5.38281Z" fill="#4059C7"/>
<path d="M1279.59 355.172C1298.81 354.813 1318.03 354.612 1337.25 354.564C1349.44 354.594 1367.12 355.241 1378.82 354.599C1378.87 361.098 1379.4 390.996 1378.04 395.027C1370.27 393.337 1349.29 394 1340.29 394.12C1333.77 393.91 1327 393.589 1320.5 393.628C1322.51 413.208 1320.77 451.36 1321.21 473.217C1332.88 473.495 1349.89 474.415 1361.16 473.842C1361.63 487.453 1361.4 500.641 1361.75 514.082C1349.27 513.799 1332.39 512.922 1320.23 513.44C1321.6 522.499 1321.18 537.745 1321.21 547.591L1321.2 608.045C1331.84 606.307 1369.91 606.923 1382.15 606.893C1381.93 618.575 1381.15 635.37 1382.19 646.598C1348.01 646.081 1313.82 645.969 1279.63 646.273L1279.5 446.679C1279.53 430.299 1279.41 413.919 1279.56 397.543C1279.7 383.234 1280.72 369.455 1279.59 355.172Z" fill="#212F78"/>
<path d="M741.769 354.965C765.656 353.745 797.023 354.601 821.48 354.541C821.3 367.742 821.381 380.947 821.724 394.143C803.468 393.985 781.455 394.229 763.538 392.817C764.317 419.171 763.452 446.63 763.846 473.228C776.97 473.42 790.095 473.446 803.216 473.305C803.083 486.574 802.655 501.033 803.275 514.191L763.521 512.629C764.167 528.581 763.73 547.67 763.773 563.857C763.58 591.474 763.58 619.087 763.773 646.703C750.541 646.044 734.186 645.839 721.155 646.506C719.371 620.563 720.706 574.538 720.71 547.379L720.843 355.397C727.72 355.149 734.866 355.097 741.769 354.965Z" fill="#212F78"/>
<path d="M1140.99 354.781C1166.12 355.004 1191.25 355.076 1216.38 354.995C1229.9 354.986 1247.56 355.487 1260.74 354.447C1260.49 365.988 1260.35 383.245 1261.23 394.46C1248.31 393.403 1234.78 393.913 1221.46 392.77C1223.12 462.039 1221.99 536.874 1221.88 606.438C1221.56 619.836 1221.5 633.238 1221.69 646.635C1207.61 646.1 1192.84 645.719 1178.82 646.55L1178.54 469.698C1178.55 456.694 1177.72 403.117 1179.54 393.793C1168.29 394.469 1152.03 393.951 1140.4 393.943C1140.36 387.117 1139.63 359.385 1140.99 354.781Z" fill="#212F78"/>
<path d="M736.859 6.04961C773.088 3.53184 821.324 8.3423 856.637 5.37822C855.332 17.4296 856.2 33.9411 856.757 46.1859C843.47 44.9274 828.749 45.286 815.307 45.3271C817.117 59.0208 816.048 99.1883 816.052 114.767L815.975 259.511C815.924 272.314 815.975 285.113 816.129 297.915C802.148 297.667 788.159 297.697 774.179 297.992L774.08 111.024C774.128 97.5541 772.724 54.705 774.513 45.209C762.338 45.817 747.938 45.5192 735.609 45.5295C736.328 37.102 734.608 10.9076 736.859 6.04961Z" fill="#4059C7"/>
<path d="M1080.53 354.855C1094.16 354.936 1109.38 354.996 1122.91 354.389C1123.57 451.749 1123.59 549.114 1122.97 646.474C1108.81 645.434 1094.6 645.387 1080.43 646.333L1080.13 462.66C1080.11 431.201 1078.7 385.424 1080.53 354.855Z" fill="#212F78"/>
<path d="M843.356 354.577C857.414 355.232 870.611 354.779 884.651 354.406C883.71 383.79 886.316 640.651 883.184 646.616C871.317 645.888 854.264 645.649 842.697 646.462L842.577 458.361C842.517 446.602 840.241 359.592 843.356 354.577Z" fill="#212F78"/>
<path d="M484.127 354.666C497.817 355.034 511.404 354.704 525.089 354.465C524.37 378.663 524.918 405.475 524.935 429.818L525.033 564.491C525.072 589.566 526.073 622.476 524.614 646.824C510.783 646.165 498.121 646.208 484.311 646.298C482.985 618.831 483.417 589.331 483.413 561.71L483.417 436.057C483.417 424.602 481.941 362.026 484.127 354.666Z" fill="#212F78"/>
<path d="M1242.52 771.125C1243.31 778.267 1250.32 813.628 1249.38 816.461L1247.42 815.712C1242.73 823.316 1244.4 899.726 1243.93 913.436C1242.61 906.44 1243.02 875.071 1242.97 866.354C1242.82 838.297 1239.68 797.984 1242.52 771.125Z" fill="#EEE9FA" fill-opacity="0.988235"/>
<path d="M990.094 471.335C991.84 469.457 990.813 469.889 993.149 469.735C993.795 474.262 994.827 480.244 1000.23 481.361C1004.44 477.112 1003.16 459.551 1004.87 452.221C1005.84 465.841 1006.67 506.684 1005.54 520.24C1000.29 503.971 995.139 487.668 990.094 471.335Z" fill="#FEFDFE" fill-opacity="0.0117647"/>
<path d="M1128.82 856.253C1140.33 856.082 1151.84 856.099 1163.36 856.309C1152.71 859.83 1137.3 858.786 1125.9 858.709L1125.2 856.63L1123.02 858.054L1124.05 858.559L1123.69 857.297L1122.59 857.858L1128.82 856.253Z" fill="#FEFDFE" fill-opacity="0.0117647"/>
<path d="M1340.27 394.123C1349.27 394.003 1370.25 393.34 1378.02 395.03C1374.11 397.371 1344.37 397.148 1340.27 394.123Z" fill="#FEFDFE" fill-opacity="0.0117647"/>
</svg>
