<svg width="400" height="92" viewBox="0 0 400 92" fill="none" xmlns="http://www.w3.org/2000/svg">
<path d="M3.67 45.2497H0V40.6597H3.67V0.929688H25.3V5.51968H11.93V40.6597H24.52V45.2497H11.93V85.4997H25.96V90.0897H3.67V45.2497Z" fill="#231F20"/>
<path d="M49.4337 0.929688H56.2537L69.1037 90.0897H60.9737L56.9137 60.9797H46.1637L42.2337 90.0897H36.5938L49.4437 0.929688H49.4337ZM56.2537 56.3897L51.4037 21.2497L46.6837 56.3897H56.2537Z" fill="#231F20"/>
<path d="M85.7531 5.51968H73.9531V0.929688H105.813V5.51968H94.0131V90.0897H85.7531V5.51968Z" fill="#231F20"/>
<path d="M119.844 0.929688H127.314C140.294 0.929688 149.994 8.13969 149.994 22.1697C149.994 32.6597 145.144 39.4797 138.324 43.4097L152.874 90.0897H144.224L130.064 42.2297C136.884 39.4797 141.344 33.1797 141.344 22.1697C141.344 11.1597 135.184 5.38969 128.104 5.38969V90.0897H119.844V0.929688Z" fill="#231F20"/>
<path d="M164.023 45.5117C164.023 14.0417 170.313 0.0117188 181.073 0.0117188C191.833 0.0117188 198.123 14.0417 198.123 45.5117C198.123 76.9817 191.833 91.0117 181.073 91.0117C170.313 91.0117 164.023 76.9817 164.023 45.5117ZM189.203 45.5117C189.203 17.4517 186.973 4.73172 181.073 4.73172C175.173 4.73172 172.943 17.4517 172.943 45.5117C172.943 73.5717 175.173 86.2917 181.073 86.2917C186.973 86.2917 189.203 73.5717 189.203 45.5117Z" fill="#231F20"/>
<path d="M214.5 0.929688H222.76C234.17 0.929688 245.31 8.13969 245.31 22.1697C245.31 36.1997 236.52 44.0697 225.12 45.2497V42.2297C232.2 39.9997 236.66 33.1797 236.66 22.1697C236.66 11.1597 229.84 5.38969 222.76 5.38969V90.0897H214.5V0.929688Z" fill="#231F20"/>
<path d="M258.156 45.5117C258.156 14.0417 264.446 0.0117188 275.196 0.0117188C285.946 0.0117188 292.246 14.0417 292.246 45.5117C292.246 76.9817 285.956 91.0117 275.196 91.0117C264.436 91.0117 258.156 76.9817 258.156 45.5117ZM283.326 45.5117C283.326 17.4517 281.096 4.73172 275.196 4.73172C269.296 4.73172 267.066 17.4517 267.066 45.5117C267.066 73.5717 269.296 86.2917 275.196 86.2917C281.096 86.2917 283.326 73.5717 283.326 45.5117Z" fill="#231F20"/>
<path d="M308.641 0.929688H316.901V85.4997H330.931V90.0897H308.641V0.929688Z" fill="#231F20"/>
<path d="M344.688 0.929688H352.948V90.0897H344.688V0.929688Z" fill="#231F20"/>
<path d="M368.289 64.65H376.679C376.939 78.55 379.829 86.28 384.679 86.28C388.479 86.28 390.969 80.77 390.969 74.74C390.969 69.5 390.709 63.07 379.959 44.98C373.929 34.88 370.129 27.02 370.129 17.05C370.129 8 375.639 0 383.899 0C393.599 0 398.589 10.36 399.109 26.22H390.719C390.589 13.37 388.489 4.72 383.639 4.72C380.229 4.72 377.869 8.78 377.869 14.95C377.869 23.73 381.149 30.82 386.919 40.52C395.439 54.81 398.589 62.55 398.589 71.6C398.589 81.83 392.169 91.01 384.559 91.01C374.459 91.01 368.429 80.52 368.299 64.66L368.289 64.65Z" fill="#231F20"/>
</svg>
