<svg width="1015" height="274" viewBox="0 0 1015 274" fill="none" xmlns="http://www.w3.org/2000/svg">
<rect width="1015" height="274" fill="white"/>
<path d="M351.281 119L392.497 27.4805H424.113L465.329 119H443.057L434.353 99.6725H382.257L373.553 119H351.281ZM389.681 83.0325H426.929L409.137 43.4805H407.473L389.681 83.0325ZM485.407 147.8V133.08H524.063C529.183 133.08 531.743 130.477 531.743 125.272V119H503.583C492.148 119 483.231 116.184 476.831 110.552C470.431 104.92 467.231 96.7712 467.231 86.1045C467.231 75.3525 470.431 67.1605 476.831 61.5285C483.231 55.8965 492.148 53.0805 503.583 53.0805H550.303V127.576C550.303 133.635 548.554 138.499 545.055 142.168C541.556 145.923 536.095 147.8 528.671 147.8H485.407ZM503.583 104.28H531.743V67.8005H503.583C498.036 67.8005 493.77 69.3365 490.783 72.4085C487.882 75.3952 486.431 79.9605 486.431 86.1045C486.431 92.1632 487.882 96.7285 490.783 99.8005C493.77 102.787 498.036 104.28 503.583 104.28ZM564.416 119V53.0805H614.848C622.272 53.0805 627.733 54.9578 631.232 58.7125C634.731 62.3818 636.48 67.2458 636.48 73.3045V87.0005H617.664V75.6085C617.664 70.4885 615.104 67.9285 609.984 67.9285H583.232V119H564.416ZM646.666 119V53.0805H665.226V119H646.666ZM646.538 42.2005V27.7365H665.354V42.2005H646.538ZM681.211 119V27.4805H701.691V64.9845H766.203V27.4805H786.683V119H766.203V81.6245H701.691V119H681.211ZM802.666 119V53.0805H821.226V119H802.666ZM802.538 42.2005V27.7365H821.354V42.2005H802.538ZM835.291 119V53.0805H885.723C893.147 53.0805 898.608 54.9578 902.107 58.7125C905.606 62.3818 907.355 67.2458 907.355 73.3045V87.0005H888.539V75.6085C888.539 70.4885 885.979 67.9285 880.859 67.9285H854.107V119H835.291ZM953.833 119.64C942.398 119.64 933.481 116.824 927.081 111.192C920.681 105.475 917.481 97.1125 917.481 86.1045C917.481 75.0112 920.681 66.6485 927.081 61.0165C933.481 55.2992 942.398 52.4405 953.833 52.4405H985.833C993.342 52.4405 999.06 54.2325 1002.98 57.8165C1006.99 61.3152 1009 66.3498 1009 72.9205C1009 86.3178 1001.28 93.0165 985.833 93.0165H937.449C939.241 100.952 944.702 104.92 953.833 104.92H1005.67V119.64H953.833ZM953.833 67.1605C945.044 67.1605 939.625 70.8725 937.577 78.2965H984.937C986.644 78.2965 987.966 77.7845 988.905 76.7605C989.929 75.7365 990.441 74.3285 990.441 72.5365C990.441 68.9525 988.606 67.1605 984.937 67.1605H953.833ZM356.017 273.64V257L429.617 257.128C433.372 257.128 436.23 256.275 438.193 254.568C440.241 252.776 441.265 249.917 441.265 245.992C441.265 242.067 440.241 239.251 438.193 237.544C436.23 235.752 433.372 234.856 429.617 234.856H383.793C374.321 234.856 366.94 232.595 361.649 228.072C356.444 223.464 353.841 216.723 353.841 207.848C353.841 198.973 356.444 192.275 361.649 187.752C366.94 183.144 374.321 180.84 383.793 180.84H455.729V197.48L385.969 197.352C382.3 197.352 379.441 198.205 377.393 199.912C375.345 201.533 374.321 204.179 374.321 207.848C374.321 211.517 375.345 214.205 377.393 215.912C379.441 217.533 382.3 218.344 385.969 218.344H431.793C441.265 218.344 448.604 220.691 453.809 225.384C459.1 229.992 461.745 236.861 461.745 245.992C461.745 255.037 459.1 261.907 453.809 266.6C448.604 271.293 441.265 273.64 431.793 273.64H356.017ZM506.458 273.64C495.023 273.64 486.106 270.824 479.706 265.192C473.306 259.475 470.106 251.112 470.106 240.104C470.106 229.011 473.306 220.648 479.706 215.016C486.106 209.299 495.023 206.44 506.458 206.44H530.138C541.573 206.44 550.49 209.299 556.89 215.016C563.29 220.648 566.49 229.011 566.49 240.104C566.49 251.112 563.29 259.475 556.89 265.192C550.49 270.824 541.573 273.64 530.138 273.64H506.458ZM506.458 258.92H530.138C535.685 258.92 539.909 257.384 542.81 254.312C545.797 251.24 547.29 246.504 547.29 240.104C547.29 233.619 545.797 228.84 542.81 225.768C539.909 222.696 535.685 221.16 530.138 221.16H506.458C500.911 221.16 496.645 222.696 493.658 225.768C490.757 228.84 489.306 233.619 489.306 240.104C489.306 246.504 490.757 251.24 493.658 254.312C496.645 257.384 500.911 258.92 506.458 258.92ZM578.041 273V181.48H596.601V273H578.041ZM631.658 273C624.149 273 618.645 271.123 615.146 267.368C611.733 263.613 610.026 258.749 610.026 252.776V207.08H628.586V250.6C628.586 255.72 631.146 258.28 636.266 258.28H662.89C668.01 258.28 670.57 255.72 670.57 250.6V207.08H689.13V252.776C689.13 258.749 687.381 263.613 683.882 267.368C680.469 271.123 675.007 273 667.498 273H631.658ZM736.845 273C729.421 273 723.96 271.165 720.461 267.496C716.962 263.741 715.213 258.835 715.213 252.776V221.8H696.141V207.08H715.213V186.856H733.773V207.08H761.165V221.8H733.773V250.472C733.773 255.677 736.333 258.28 741.453 258.28H764.749V273H736.845ZM774.291 273V207.08H792.851V273H774.291ZM774.163 196.2V181.736H792.979V196.2H774.163ZM840.708 273.64C829.273 273.64 820.356 270.824 813.956 265.192C807.556 259.475 804.356 251.112 804.356 240.104C804.356 229.011 807.556 220.648 813.956 215.016C820.356 209.299 829.273 206.44 840.708 206.44H864.388C875.823 206.44 884.74 209.299 891.14 215.016C897.54 220.648 900.74 229.011 900.74 240.104C900.74 251.112 897.54 259.475 891.14 265.192C884.74 270.824 875.823 273.64 864.388 273.64H840.708ZM840.708 258.92H864.388C869.935 258.92 874.159 257.384 877.06 254.312C880.047 251.24 881.54 246.504 881.54 240.104C881.54 233.619 880.047 228.84 877.06 225.768C874.159 222.696 869.935 221.16 864.388 221.16H840.708C835.161 221.16 830.895 222.696 827.908 225.768C825.007 228.84 823.556 233.619 823.556 240.104C823.556 246.504 825.007 251.24 827.908 254.312C830.895 257.384 835.161 258.92 840.708 258.92ZM912.291 273V207.08H969.763C977.272 207.08 982.734 208.957 986.147 212.712C989.646 216.381 991.395 221.245 991.395 227.304V273H972.835V229.48C972.835 224.36 970.275 221.8 965.155 221.8H930.851V273H912.291Z" fill="black"/>
<mask id="mask0_777_27726" style="mask-type:luminance" maskUnits="userSpaceOnUse" x="0" y="23" width="300" height="250">
<path d="M300 23H0V273H300V23Z" fill="white"/>
</mask>
<g mask="url(#mask0_777_27726)">
<path d="M144.193 23L72.6757 273H0L36.6103 145.022L71.5178 23H144.193Z" fill="url(#paint0_linear_777_27726)"/>
<path d="M227.631 23L156.113 273H83.4375L120.048 145.022L154.955 23H227.631Z" fill="url(#paint1_linear_777_27726)"/>
<path d="M299.999 272.999H227.358L214.45 227.925V227.889L196.844 166.345L233.181 39.3594L299.999 272.999Z" fill="url(#paint2_linear_777_27726)"/>
<g style="mix-blend-mode:screen" opacity="0.4">
<path d="M134.965 30.3535L9.23047 265.648L76.5595 30.3535H134.965Z" fill="white"/>
</g>
<g style="mix-blend-mode:screen" opacity="0.4">
<path d="M218.403 30.3535L92.668 265.648L159.996 30.3535H218.403Z" fill="white"/>
</g>
<g style="mix-blend-mode:multiply" opacity="0.3">
<path d="M233.181 39.3594L214.45 227.907L196.836 166.345L233.181 39.3594Z" fill="black"/>
</g>
<g style="mix-blend-mode:multiply" opacity="0.3">
<path d="M227.631 23L156.113 273H83.4375C95.5614 272.228 107.651 271.897 119.775 271.309L137.927 270.721L154.172 270.312C159.553 249.982 165.104 229.689 170.825 209.434L179.68 178.184L188.739 146.971C194.903 126.199 201.135 105.463 207.572 84.7647C210.841 74.4706 214.042 64.1029 217.414 53.8456C220.786 43.5882 224.089 33.2169 227.631 23Z" fill="black"/>
</g>
<g style="mix-blend-mode:multiply" opacity="0.3">
<path d="M144.193 23L72.6757 273H0C12.124 272.228 24.2139 271.897 36.3378 271.309L54.4897 270.721L70.7345 270.312C76.1153 249.982 81.6665 229.689 87.3879 209.434L96.2425 178.184L105.301 146.971C111.466 126.199 117.698 105.463 124.134 84.7647C127.404 74.4706 130.605 64.1029 133.977 53.8456C137.348 43.5882 140.652 33.2169 144.193 23Z" fill="black"/>
</g>
<g style="mix-blend-mode:multiply" opacity="0.3">
<path d="M124.305 23C115.519 23.989 106.732 24.6176 97.9121 25.0956C93.5189 25.3529 89.1256 25.6103 84.7324 25.7574C81.0884 25.9044 77.4444 26.0515 73.8004 26.125C72.6766 30.4265 71.5527 34.6949 70.3948 38.9926L66.2059 53.9596C64.8437 58.9191 63.3111 63.886 61.8808 68.8493C60.4504 73.8125 58.952 78.7757 57.4194 83.7022C55.8869 88.6287 54.3884 93.6287 52.7538 98.5184C51.1191 103.408 49.5865 108.371 47.9178 113.261C44.6144 123.04 41.1747 132.71 37.3945 142.305L71.5187 23.0037L124.305 23Z" fill="black"/>
</g>
<g style="mix-blend-mode:multiply" opacity="0.3">
<path d="M208.899 23C199.908 23.989 190.917 24.6176 181.927 25.0956C177.431 25.3848 172.936 25.6054 168.44 25.7574C164.694 25.9044 160.982 26.0515 157.236 26.1581L153.728 39.2868L149.471 54.5809L145.044 69.7978C143.579 74.9118 142.047 79.9449 140.48 84.9816C138.914 90.0184 137.381 95.0919 135.712 100.129C134.044 105.165 132.511 110.206 130.774 115.169C127.437 125.206 123.895 135.169 120.047 145.022L154.954 23H208.899Z" fill="black"/>
</g>
<g style="mix-blend-mode:multiply" opacity="0.3">
<path d="M263.662 271.267C274.594 270.866 285.492 270.532 296.424 270.278C293.802 261.786 291.248 253.293 288.694 244.764C285.765 235.094 282.904 225.387 280.112 215.642C274.424 196.234 268.941 176.712 263.492 157.227L255.489 127.885L247.724 98.4732C245.204 88.657 242.65 78.8449 240.3 68.9919C237.882 59.1021 235.396 49.2822 233.182 39.3594L300 272.999H227.359C239.449 272.168 251.573 271.823 263.662 271.267Z" fill="black"/>
</g>
</g>
<defs>
<linearGradient id="paint0_linear_777_27726" x1="72.0967" y1="25.75" x2="72.0967" y2="276.25" gradientUnits="userSpaceOnUse">
<stop stop-color="#C51616"/>
<stop offset="0.238" stop-color="#CE3312"/>
<stop offset="0.44" stop-color="#D7500F"/>
<stop offset="0.629" stop-color="#E16D0B"/>
<stop offset="0.81" stop-color="#EA8A07"/>
<stop offset="0.983" stop-color="#F3A704"/>
<stop offset="1" stop-color="#FCC400"/>
</linearGradient>
<linearGradient id="paint1_linear_777_27726" x1="155.534" y1="25.75" x2="155.534" y2="276.25" gradientUnits="userSpaceOnUse">
<stop stop-color="#C51616"/>
<stop offset="0.238" stop-color="#CE3312"/>
<stop offset="0.44" stop-color="#D7500F"/>
<stop offset="0.629" stop-color="#E16D0B"/>
<stop offset="0.81" stop-color="#EA8A07"/>
<stop offset="0.983" stop-color="#F3A704"/>
<stop offset="1" stop-color="#FCC400"/>
</linearGradient>
<linearGradient id="paint2_linear_777_27726" x1="272.869" y1="276.036" x2="159.717" y2="213.967" gradientUnits="userSpaceOnUse">
<stop stop-color="#3E6896"/>
<stop offset="0.247" stop-color="#355881"/>
<stop offset="0.75" stop-color="#1F324E"/>
<stop offset="1" stop-color="#131D32"/>
</linearGradient>
</defs>
</svg>
