<svg width="452" height="340" viewBox="0 0 452 340" fill="none" xmlns="http://www.w3.org/2000/svg">
<g clip-path="url(#clip0_777_26789)">
<rect width="452" height="340" fill="white"/>
<path d="M179.492 0.240021L181.442 1.32001L183.172 2.64001L184.062 3.5L184.212 3.65002L184.832 4.5L185.272 5.5L185.342 7.81L185.052 10.05L184.142 12.82L182.612 15.45L182.532 15.48L182.022 15.99L181.732 16.96L181.502 19.3L181.592 21.17L181.792 21.57L182.182 21.79L184.832 22.33L191.842 26.23L195.652 30.81L197.222 33.17L198.582 35.58L199.002 36.01L199.582 36.15L204.682 35.97L209.262 36.1L213.062 36.64L216.632 37.75L220.042 39.46L223.212 41.76L223.902 41.95L224.482 41.54L224.542 41.4L228.102 30.76L228.342 30.15L231.462 25.72L234.542 21.29L237.632 17.89L240.922 14.81L244.402 12.05L248.082 9.62003L252.842 7.07001L257.902 4.99002L263.242 3.40002L268.872 2.29001L269.762 2.04001L270.622 2.05002L270.832 2.09003L275.702 2.14001L280.562 2.45001L285.482 3.36002L290.192 4.66L294.682 6.36002L298.942 8.46002L302.792 10.81L306.442 13.52L309.892 16.59L313.152 20.01L315.662 23.31L318.072 26.68L318.322 26.86L318.702 27.36L318.932 28.01L323.212 37.85L324.082 40.46L325.212 50.05L325.892 59.7L326.132 69.42L325.912 79.2L325.962 79.85L326.192 80.19L326.922 80.1L392.252 80.3L396.022 81.46L399.212 83.02L401.832 84.97L403.872 87.32L405.082 89.47L405.932 91.88L406.422 94.54L406.542 97.45L406.272 117.95L406.532 161.32L406.462 194.2L406.372 221.99L406.612 245.43L406.722 255.09L406.292 269.04L406.442 282.93L406.162 287.18L405.972 289L405.482 290.21L404.182 291.95L402.302 292.65L400.872 292.64L310.882 292.9L310.792 292.85L309.922 292.9L309.312 292.8L308.802 293.45L308.582 294.55L308.712 295.53L308.802 295.76L308.082 300.47L307.752 301.48V302.69L307.912 302.98L308.172 302.92L308.322 303.03L309.142 303.29L319.842 303.5L321.812 303.45L334.472 303.15L384.142 303.5L400.492 303.37L409.262 303.61L412.882 303.59L418.082 303.05L418.342 303.29L418.792 303.03L418.892 302.79L419.202 298.1L419.182 293.45L419.132 267.45L419.162 227.44L418.952 121.95L418.742 93.68L418.602 91.65L418.212 89.55L417.572 87.4L416.692 85.19L416.392 84.14L416.172 83.69L413.642 79.94L410.642 76.69L407.122 73.9H406.952L406.412 73.48L403.362 71.44L400.102 69.98L396.732 69.11L393.162 68.81L378.402 68.88L342.212 68.5L340.452 65.1L341.372 62.6L341.812 61.77L342.412 61.14L342.522 61.06L343.502 60.53L344.412 60.36L363.722 60.44L381.422 60.16L390.932 60.22L394.572 60.51L397.482 60.98L402.342 62.33L406.812 64.14L410.892 66.41L414.572 69.15L417.272 71.71L419.712 74.58L421.902 77.75L423.822 81.23L424.852 83.77L425.712 86.92L426.992 92.88L427.182 302.55L427.442 303.19L428.072 303.45H449.652L450.212 303.6L450.562 304L451.012 305.07L451.262 306.17L451.152 308.41L450.512 311.58L449.712 314.59L448.742 317.43L447.592 320.1L446.282 322.6L444.802 324.93L443.152 327.09L441.332 329.09L438.692 331.46L435.752 333.53L432.512 335.32L428.992 336.81L426.162 337.67L422.882 338.35L419.172 338.84L415.022 339.13L406.362 339.4L397.682 339.42H56.3519L33.3919 338.89L29.5019 338.64L26.1119 338.13L23.2119 337.35L20.8019 336.32L13.5419 332.41L10.4419 329.48L10.1019 328.72L9.61187 328.14L8.67187 327.63L7.30188 326.26L4.59189 321.5L3.09189 318.64L1.98187 315.75L1.25186 312.85L0.921875 309.93L0.971863 306.9L1.44186 303.85L8.82187 303.08L17.4419 303.52L24.3919 303.5L24.9319 303.29L25.0119 302.55L24.9819 91.39L26.2919 87.56L27.4719 83.68L29.0519 80.17L30.9119 76.94L33.0419 73.98L35.4519 71.31L38.4919 68.62L41.8919 66.29L45.6419 64.32L49.7419 62.69L55.4519 60.78L65.8018 60.08L80.6219 60.36L95.3719 60.21L97.0518 60.46L98.4419 61.22L99.6519 62.51L100.072 64.36L99.8519 65.97L99.4118 66.83L98.7419 67.61L96.7019 68.92L95.2519 68.83L81.9019 68.44L68.5019 68.81L60.2719 68.74L56.5219 69.11L53.0019 69.87L49.7119 71.03L46.6719 72.58L43.6719 74.67L40.9519 77.21L38.5019 80.2L36.3119 83.64L35.9419 84.96L35.4819 85.74L34.5819 87.67L33.9219 89.73L33.4919 91.91L33.3019 94.23L33.2419 99.9L33.4319 104.48L33.5719 114.66L33.1919 127.41L33.5319 140.06L33.1719 195.98L33.5219 251.9V266.46L33.1019 296.7L33.1919 299.1L33.5019 301.4L33.2919 302.41L33.4919 303.02L33.8419 303.22L34.3819 303.24L140.942 303.39H141.032L141.532 303.25L141.922 302.92L142.162 302.46L142.192 301.95L141.722 298.69L141.972 296.05L141.592 293.58L141.582 293.53L141.132 292.87L140.362 292.61L51.1319 292.51L48.9219 292.22L47.9919 291.84L47.2419 291.3L46.4019 290.23L45.8619 288.89L45.5619 287.15L45.4819 284.91L45.7519 193.05L45.7319 101.17L45.8219 97.28L46.1019 94.03L46.5719 91.42L47.2419 89.44L48.9619 86.58L50.7519 84.64L52.9219 82.99L55.4619 81.64L58.3919 80.57L109.422 80.36L110.352 80.27L110.752 79.8L110.942 79L110.732 76.4L111.132 72.3L112.582 67.97L113.132 66.79L113.992 65.65L115.562 64.13L117.252 62.77L120.472 60.85L124.062 59.44L124.482 59.2L124.722 58.81L124.872 58.33L125.002 56.93L124.742 55.44L125.132 52.69L128.072 45.73L128.172 45.33L128.612 44.95L130.632 42.7L132.802 40.77L135.102 39.16L137.552 37.86L140.062 36.91L142.702 36.26L145.472 35.91L148.382 35.85L154.632 36.13L155.892 35.9L156.522 35.4L157.162 34.44L158.442 32.28L159.862 30.29L161.432 28.46L163.142 26.79L164.142 25.95L165.992 24.64L167.962 23.57L170.332 22.66L172.852 22.06L173.772 21.59L174.072 20.62V16.77L174.002 16.27L173.752 15.79L170.112 10.78L169.952 8.68002L170.052 6.78L170.402 5.05002L171.012 3.52002L172.462 2.56L173.362 1.42001L175.492 0.370026L177.632 0L179.492 0.240021ZM273.102 10.83L270.762 10.64L269.812 10.82L269.002 11.18L271.942 15.57L273.502 17.39L275.132 18.96L277.802 21.3L280.592 23.37L283.512 25.18L286.542 26.71L289.672 27.96L292.922 28.94L296.292 29.66L299.782 30.11L303.562 30.48L306.832 30.15L308.372 30.21L309.682 29.96L309.842 29.88L310.112 29.4L309.892 28.88L309.422 28.65H309.232L308.872 27.79L308.252 26.92L306.622 24.73L304.802 22.74L302.492 20.71L299.942 18.93L299.272 18.63L298.992 18.25L298.982 18.18L297.452 16.93L295.572 16.23V16.09L295.172 15.63L290.092 13.25L284.832 11.63L281.512 11.02L278.132 10.69L275.492 10.52L273.102 10.83ZM296.222 45.07L302.132 45.49L307.892 45.14L311.302 45.08L313.862 44.53L314.922 44.2L315.542 44.36L315.792 43.93L315.862 43.35L315.802 42.37L315.522 41.38L314.312 39.37L313.742 38.82V38.33L313.062 38.13L311.622 38.44L310.872 38.43L306.862 38.7L304.702 38.89L302.902 38.82L298.932 38.22L293.062 37.13L287.542 35.51L282.352 33.35L277.502 30.66L273.942 28.17L270.592 25.36L267.452 22.21L264.512 18.74L262.812 16.13L261.522 14.45L260.782 13.74L260.212 13.55L259.952 13.52L258.612 13.53L257.642 13.86L255.942 14.84L254.332 15.5L253.892 15.75L253.602 16.16L253.492 16.65L253.592 17.15L253.642 17.25L256.662 22.1L260.112 26.59L264.332 31.02L269.052 35.03L272.572 37.5L276.202 39.63L279.942 41.41L283.802 42.84L286.812 43.7L289.882 44.36L293.022 44.81L296.222 45.07ZM236.142 33.93L234.252 37.63L233.202 40.68L232.522 43.89L232.702 44.54L233.312 44.83H233.402L235.652 44.4L239.972 42.76L244.102 40.76L249.142 37.63L253.842 33.89L254.112 33.39L254.012 32.83L247.522 21.59L247.432 21.46L247.042 21.12L246.532 20.97L246.012 21.05L245.562 21.33L240.832 26.52L238.522 29.53L236.402 32.7L236.232 33.05L236.142 33.93ZM182.622 30.25L182.842 30.53L182.182 30.43L182.162 30.36L181.772 29.89L181.022 29.56L178.872 29.13L176.742 29.04L175.212 29.19L174.052 29.44L172.172 30.14L170.382 31.21L168.142 32.97L166.352 34.7L165.862 35.39L165.812 35.88L166.212 36.17L167.052 36.27H188.822L189.292 36.1V35.62L188.832 34.79L188.202 34.22L187.772 33.88L187.582 33.66L186.482 32.46L184.722 31.17L182.622 30.25ZM253.162 44.78L252.372 44.9L247.222 48.03L241.822 50.57L236.792 52.32L231.562 53.59L230.872 54.06L230.732 54.87L230.742 54.91L231.012 56.48L230.932 57.99L230.792 58.62L230.782 58.64L230.892 59.3L231.442 59.69L235.342 60.58L237.662 61.82L239.672 63.26L241.372 64.9L242.752 66.74L243.852 68.85L244.622 71.17L245.052 73.7L245.142 76.45L245.052 84.04L245.162 91.05L245.322 92.66L245.692 94.02L246.442 95.53L247.652 97.19L251.862 101.79L254.072 103.79L256.252 105.49L258.472 106.97L260.802 108.26L263.162 109.31L265.632 110.17L266.282 110.35L267.842 111.11L269.022 111.27L270.282 111.14L273.902 111.5L277.672 111.25L280.342 110.89L282.892 110.18L286.142 108.66L289.162 106.49L292.872 103.23L296.182 99.29L298.202 96.37L299.862 93.13L301.162 89.59L302.102 85.74L303.292 78.06L303.772 71.22L304.232 65.01L304.532 54.65L304.412 54.23L304.022 54.02L303.532 53.93L300.582 53.66L297.552 53.86H295.662L293.972 53.42L288.312 52.39L282.872 50.94L277.662 49.05L272.672 46.73L266.672 43.18L261.022 38.93L260.152 38.62L259.302 38.98L253.162 44.78ZM132.962 93.14L132.602 102.79L132.662 110.67L133.052 113.6L134.052 116.21L135.132 117.87L136.512 119.36L137.292 119.93L137.512 120.26L138.682 121.22L140.632 122.39L142.822 123.24L145.242 123.77L147.902 123.97L175.442 124.23L205.662 124.17L209.972 123.88L211.622 123.55L212.932 123.08L215.892 121.27L218.962 118.53L220.622 116.59L221.812 114.64L222.552 112.67L222.822 110.7V110.45L222.712 63.46L222.502 57.77L222.092 54.73L221.242 52.27L219.762 49.83L217.912 47.82L215.282 46.02L212.152 44.8L207.142 44.49L180.722 44.52L150.392 44.24L145.982 44.33L143.142 44.75L141.162 45.43L139.392 46.31L137.842 47.38L136.502 48.65L135.452 50L134.582 51.53L133.982 53.23L133.542 55.46L133.142 61.54L132.962 93.14ZM317.242 52.56L315.142 53.17L313.932 52.97L313.102 53.25H313.092L312.762 53.84L312.642 54.87L312.332 69.77L312.492 71.53L312.242 73.46L311.112 81.61L310.002 87.39L309.352 90.62L309.152 93.22L309.352 136.63L309.452 137.34L309.762 137.83L310.342 138.1H311.162L312.542 138.4L314.002 138.44L315.732 139.16L317.202 139.1L317.242 139.09L317.592 138.84L317.722 138.4L318.012 69.18L317.822 60.17L317.242 52.56ZM123.642 68.51L123.502 68.54L122.992 68.95L122.862 68.65L122.392 68.78L120.672 70.34L119.702 72.14L119.482 73.93L119.272 83.11L119.402 86.52L119.702 89.15L120.112 90.43L120.912 91.74L122.112 93.08L123.692 94.46L123.832 95.08L124.162 95.2L124.662 95.13L124.972 94.92L125.092 94.56V68.93L125.062 68.8L124.702 68.26L124.312 68.06L123.642 68.51ZM235.892 91.85L236.122 91.44L236.702 90.12L236.772 89.58L236.882 83.64L236.742 76.96L236.512 74.77L236.012 72.9L235.252 71.34L234.212 70.1L233.232 69.36L232.172 68.82L231.912 68.72H231.452L231.292 69.16V93.71L231.552 94.29L232.162 94.46L232.272 94.44L233.532 93.97L234.552 93.38L235.342 92.67L235.892 91.85ZM117.512 284.03L117.652 283.86L117.642 283.83L117.472 283.59L104.502 271.59L100.182 267.32L97.0719 263.47L94.8619 259.67L94.0919 257.79L93.5319 255.85L93.1219 252.71L92.9619 248.04L92.6719 174.49L92.8519 169.25L93.0819 167.48L93.4219 166.27L94.7119 163.61L96.2519 161.29L98.0119 159.32L100.022 157.7L102.422 156.35L105.102 155.39L108.042 154.83L111.262 154.66L111.812 154.47L112.112 153.96L112.892 150.89L114.012 148.19L115.462 145.86L117.252 143.91L119.222 142.42L121.492 141.25L123.512 140.64L126.192 140.23L129.522 140.02L133.502 140.01L147.032 140.17L161.182 140.1L161.372 139.89V139.88L160.332 132.68L160.232 132.48L160.032 132.42L149.752 132.29L144.422 132.03L141.362 131.47L138.462 130.53L136.222 129.47L134.082 128.17L132.052 126.6L130.122 124.78L128.252 122.55L126.752 120.08L125.582 117.14L124.872 113.88L124.572 110.15L124.622 105.14L124.452 104.54L123.972 104.14L121.632 103.07L119.502 101.81L117.572 100.36L115.852 98.71L114.202 96.7L112.802 94.46L111.652 91.99L110.742 89.29L110.472 88.89L110.012 88.74L88.1819 88.76L65.9818 88.54L60.8319 88.73L59.1119 89.04L57.9619 89.49L56.2719 90.78L55.0319 92.33L54.1519 94.46L53.8519 96.94V283.31L54.0619 283.82L54.5719 284.03H117.512ZM397.542 284.01L397.942 283.85L398.102 283.45L397.992 103.7L398.012 102.29L397.892 96.61L397.612 94.61L397.172 93.12L396.432 91.77L395.472 90.67L394.322 89.86L392.972 89.28L391.412 88.93L389.632 88.82L326.402 88.73L326.052 88.85L325.942 89.18V138.5L326.152 139.03L326.662 139.28L329.452 139.61L332.162 140.15L334.762 140.91L337.272 141.88L339.622 143.03L341.882 144.38L344.062 145.93L346.142 147.69L348.262 149.79L350.182 152.04L352.172 154.84L353.892 157.83L355.352 161.03L356.552 164.44L357.192 167.13L357.642 170.49L357.922 174.5L358.012 179.18L358.002 283.34L358.202 283.81L358.682 284.01H397.542ZM236.802 102.35L236.692 102.48L231.482 103.92L231.092 104.17L230.972 104.61L231.102 109.17L230.022 138.13L230.132 138.72L230.482 139.21L231.012 139.49L231.612 139.53L231.882 139.45L232.702 139.12L234.602 139.19L236.092 139.01L237.162 138.6L237.812 137.95L238.022 137.32L237.942 103.94L238.042 102.62L237.762 102.02H237.362L236.802 102.35ZM300.232 108.16L299.592 108.64L298.662 109.28L297.732 110.25L297.002 111.44L294.572 113.22L294.462 113.35L293.682 114.85L293.392 116.73L293.602 118.99L294.292 121.65L294.532 123.77L295.022 125.56L295.722 127.24L297.442 129.94L299.782 132.32L300.872 133.14L301.392 133.29L301.192 132.46L300.932 109.17L301.082 108.12L301.002 107.84L300.772 107.63L300.472 107.66L300.432 107.68L300.232 108.16ZM246.602 128.67L246.122 129.43L246.032 130.14L246.242 130.66L246.092 131.44L246.212 132.12L246.432 132.52L246.772 132.87L247.142 132.8L247.602 132.43L248.962 130.8L249.762 129.39L252.532 124.98L253.562 123.56L254.262 121.37L254.652 118.38V115.19L254.512 114.74L254.182 114.4L250.092 111.66L248.542 110.4L247.132 108.79L246.842 108.59L246.592 108.84L246.382 109.34L246.132 111.2L246.392 119.23V126.93L246.602 128.66V128.67ZM280.192 119.19L268.122 119.24L266.162 118.68L264.532 118.64L263.782 118.61L263.442 118.89L263.192 119.39L262.582 121.86L262.532 123.49L262.492 124.26L262.192 124.94L259.662 130.44L258.542 131.62L257.442 133.72L257.792 135.41L259.372 137.73L261.102 139.87L262.982 141.82L265.012 143.57L266.292 144.53L267.562 145.3L270.172 146.27L273.112 146.61L275.772 146.33L278.442 145.39L280.062 144.75L281.512 143.89L282.962 142.65L284.212 141.13L285.952 139.82L287.482 138.31L288.662 136.8L289.672 135.13L289.822 134.41L289.592 133.71L287.532 130.03L286.092 126.14L285.212 121.99L284.782 118.21L280.192 119.19ZM195.602 132.24H195.562L194.992 132.5L194.762 133.08V139.52L194.912 139.96L195.342 140.1H221.262L221.802 139.88L222.042 139.33L222.312 127.45L222.222 127.17L221.932 127.22L217.282 129.81L215.482 130.71L213.702 131.37L211.952 131.8L210.222 131.99L195.602 132.24ZM167.862 133.23L168.112 134.24L168.072 134.31L167.942 134.82L168.082 135.48L168.912 137.42L169.912 139.17L171.082 140.74L172.422 142.11L175.082 144.02L177.102 144.52L177.632 144.56L179.092 144.19L180.082 143.66L181.762 142.48L183.292 141.03L183.992 140.76L185.342 139.67L186.352 137.9L187.802 133L187.822 132.9L187.592 132.18L186.902 131.87H168.272L167.762 132.03L167.512 132.53L167.622 133.11L167.862 133.23ZM330.002 190.04L331.712 190.22L332.952 190.91L333.722 192.16L333.982 193.95L334.002 254.12L334.162 254.52L334.562 254.68H349.342L349.652 254.55L349.782 254.24L349.882 175.2L349.682 171.51L349.142 168.49L348.262 165.51L347.042 162.58L345.482 159.68L343.712 157.06L341.742 154.77L339.572 152.79L337.212 151.13L333.442 149.28L329.262 148.11L325.962 147.74L320.682 147.61L315.442 147.49L312.102 147.14L311.702 147.07L307.902 146.12L304.192 144.74L300.562 142.91L297.022 140.65L296.332 140.48L295.702 140.83L292.002 145.32L289.882 147.59L287.622 149.56L285.222 151.22L282.722 152.57L280.132 153.6L277.472 154.29L274.772 154.64H272.042L268.592 154.11L265.172 152.99L261.942 151.31L258.822 149.03L254.872 145.24L251.302 140.89L250.902 140.59L250.392 140.7L241.402 145.89L241.192 146.11L241.252 146.43L241.992 148.08L242.582 149.92L243.302 154.2L243.452 154.63L243.842 154.87L245.992 155.06L247.022 155.11L249.892 155.68L252.482 156.56L254.782 157.76L256.812 159.28L258.072 160.54L259.192 161.96L261.002 165.28L261.632 167.27L262.062 169.77L262.302 172.77L262.332 176.28L262.232 197.54L262.422 198L262.872 198.19L299.912 198.04L305.622 198.29L307.742 198.6L309.382 199.05L311.422 199.96L313.262 201.14L315.352 203.09L317.102 205.5L318.002 207.44L318.562 209.71L318.742 212.31L318.562 215.16L309.942 283.5L310.042 283.86L310.372 284.03H310.402H325.362L325.442 284.02L325.782 283.84L325.922 283.47L325.882 194.2L326.152 192.32L326.962 191L328.172 190.29L329.842 190.05L330.002 190.04ZM148.262 148.55L148.182 148.76L148.392 149.16L147.992 149.26L148.042 149.7L154.452 163.42L154.712 163.7L154.942 163.72L155.782 165.86L155.522 166.32H156.292L156.712 166.17L157.142 165.85L167.732 155.33L170.242 152.85L170.982 152.18L171.042 151.64L170.842 150.99L170.302 150.37L169.402 150.22L167.962 149.13L167.222 148.13L166.482 147.8L165.912 148L165.582 147.99L158.382 148.26L154.062 148.36L148.262 147.76L147.942 147.92L147.862 148.28L148.262 148.55ZM187.772 148.58L184.562 151.03L184.252 151.15L184.382 151.69L185.202 152.66L197.012 164.47L198.622 165.2L198.992 165.24L199.242 164.96L203.322 155.86L203.732 155.46L204.352 154.34L204.562 152.88L206.152 149.37L206.112 149.03L205.932 148.79L206.142 148.66L206.162 148.64L206.202 148.47L206.112 148.33L205.482 148.01L204.812 148.05L204.082 148.44L192.582 148.3L191.092 147.84L189.852 147.67L188.862 147.78L188.112 148.18L187.772 148.58ZM121.412 250.12L137.772 266.36L138.082 266.95L138.342 267.12L138.632 267.01L138.692 266.91L138.722 266.05L138.142 265.65L137.992 263.52L137.502 261.51L137.692 261.4L137.952 260.94L137.962 260.19L133.812 223.14L133.042 218.07L132.732 214.35L132.932 210.7L133.362 208.22L134.032 205.77L135.392 203.5L137.162 201.79L137.612 201.49L141.212 199.55L143.072 198.88L144.962 198.41L148.642 198.06L160.962 198.28L161.562 198.22L162.012 197.98L162.302 197.56L162.432 196.96L162.792 191.9L163.302 190.11L163.432 189.32L164.672 180.3L166.122 171.31L166.232 170.68L166.192 170.21L165.912 169.87L165.892 169.55L165.852 169.58L166.482 168.63L166.612 167.87L166.422 167.52L166.072 167.7L157.522 176.86L156.122 178L154.732 178.38L153.412 178.01L152.262 177L151.122 175.21L146.882 166.37L141.122 153.23L140.842 152.91L140.642 152.97L140.522 152.83L140.452 152.51L140.002 151.1L138.642 148.62L138.292 148.31L137.842 148.17L132.802 147.92L127.522 148.04L125.852 148.25L124.422 148.66L123.222 149.29L122.262 150.13L121.612 151.04L121.142 152.11L120.862 153.35L120.752 154.75L120.572 195.31L120.662 244.7L120.862 248.01L121.412 250.12ZM193.362 172.59L190.842 169.59L190.132 169.24L189.292 169.43L189.282 169.51L189.332 172.14L190.122 174.86L190.952 179.7L193.222 194.92L193.702 195.54L194.212 196.65L194.622 197.21L195.282 197.43H234.372L234.952 197.19L235.182 196.61L234.752 154.55L234.662 152.77L234.102 151.26L233.012 149.97L231.412 148.97L216.882 148.5L216.332 148.46L215.812 148.63L215.192 149.4L203.402 175.46L202.512 176.84L201.392 177.59L200.242 177.74L198.932 177.29L197.402 176.1L193.362 172.59ZM183.882 198.11L184.412 198L184.842 197.67L185.102 197.2L185.142 196.66L179.692 159.07L179.412 158.43L178.832 158.05L177.052 157.46L176.082 157.54L175.622 157.93L175.402 158.5L170.242 196.67L170.462 197.56L171.222 198.08L171.502 198.11H183.882ZM111.352 240.08L111.382 240.43L111.852 240.41L112.472 239.93L112.712 239.17L112.402 175.15L112.112 164.17L111.962 163.8L111.612 163.6L109.322 163.38L107.332 163.52L105.612 164.02L104.192 164.87L103.232 165.85L102.462 167.08L102.002 168.38L101.662 170.21L101.332 175.41L101.142 189.2L101.002 231.46L101.142 235.15L101.282 239.47L101.472 240L101.962 240.28L105.282 240.61L108.562 240.51L111.352 240.08ZM253.922 197.5L254.142 197.11L254.202 196.7L254.062 173.45L253.852 170.92L253.262 168.31L252.252 166.42L250.872 165L249.462 164.17L247.802 163.67L245.902 163.5L243.752 163.64L243.462 163.8L243.342 164.11V196.94V196.96L243.462 197.49L243.772 197.93L244.232 198.22L244.762 198.31L253.622 198.03L253.882 198L254.002 197.78L253.922 197.5ZM199.192 165.64L199.052 165.88L199.122 166.12L199.302 165.93L199.342 165.83L199.312 165.67V165.66L199.192 165.64ZM235.392 197.43L235.502 197.5L235.512 197.49L235.612 197.4L235.592 197.04L235.562 197L235.382 197.06L235.392 197.43ZM145.002 206.95L143.272 207.75L142.002 208.91L141.172 210.52L140.852 212.53L141.242 218.39L141.432 220.13L142.282 224.19L144.502 243.83L144.812 249.76L145.562 255.62L146.272 259.34L146.312 259.38L146.642 260.18L146.542 261.35L151.062 302.84L151.432 303.02L151.772 303.16L152.032 303.19L190.942 303.67L194.742 308.61L196.322 310.23L197.132 310.66L197.972 310.85L198.132 310.86L217.042 311.01L251.642 310.94L253.842 310.64L255.612 309.76L256.652 308.73L260.112 303.52L297.292 303.19L298.142 303.33L298.812 303.23L299.192 302.98L299.362 302.54L305.082 257.33L307.492 238.61L310.562 213.45L310.522 211.95L310.022 210.79L309.912 210.66L309.832 210.69L309.742 210.26L309.002 209.04L308.062 208.07L306.202 207.06L305.722 206.91L303.322 206.38H303.122L153.392 206.43L149.282 206.56L145.002 206.95ZM101.312 249.69L101.292 249.79L101.222 251.03L101.502 252.34L101.532 253.86L101.872 255.27L102.502 256.52L103.082 257.21L103.902 258.71L105.622 261.01L107.552 263.09L110.692 265.7L121.562 276.23L128.992 283.43L129.362 283.69L129.862 283.8L139.022 284.07L139.622 283.93L139.712 283.87L140.062 283.35L140.042 283.16L140.092 281.9L139.572 280.4L138.962 279.68L138.132 279.11L127.172 267.97L114.662 254.44L113.672 253.17L113.042 251.79L112.742 249.88L112.432 249.14L111.702 248.82L102.892 248.77L101.562 248.91L101.062 249.23L101.312 249.69ZM335.122 263.32L334.562 263.62L334.282 264.01L334.242 264.22L334.152 273.99L334.482 283.77L349.032 284.08L349.762 283.79L350.062 283.07V283.06L349.862 266.43L349.962 264.17L350.032 263.54L349.782 263.17L348.952 262.93L335.122 263.32ZM10.0119 312.84L10.7619 314.94L11.1419 316.34L11.7619 317.77L13.6919 320.7L15.7219 323.01L17.9119 325.03L20.2319 326.77L22.7119 328.22L25.6319 329.49L28.0919 330.16L31.2819 330.65L35.1919 330.96L39.8419 331.09L119.392 331.3L260.912 331.07L335.952 331.14L416.922 330.97L420.422 330.78L423.722 330.21L426.832 329.28L429.742 327.98L432.492 326.28L435.052 324.19L437.412 321.73L439.562 318.89L441.332 315.65L442.282 312.81V312.2L441.682 311.67L441.292 311.6L428.362 311.79L415.422 311.94L309.142 311.81L267.412 311.79L266.312 311.9L265.332 312.26L264.142 313.23L263.222 314.72L262.422 315.65L261.692 316.23L259.632 317.52L257.442 318.42L255.412 318.9L253.292 319.09L248.812 319.32L216.602 319.36L199.332 319.4L195.132 318.86L190.732 317.48L186.212 312.85L186.262 312.14L185.932 311.95L181.562 311.77L94.8919 311.86L14.7019 311.73L10.2619 312.02L9.95187 312.18L9.88186 312.51L9.91186 312.65L10.0119 312.84Z" fill="#16335D"/>
<path d="M184.058 3.49826L183.168 2.63828L181.438 1.31827L179.488 0.238281L181.228 0.588287L182.608 1.36829L183.448 2.29828L184.058 3.49826Z" fill="#9A9DA5" fill-opacity="0.996"/>
<path d="M173.362 1.41992L172.462 2.55991L171.012 3.51993L171.752 2.41992L172.682 1.68991L173.362 1.41992Z" fill="#9A9DA5" fill-opacity="0.996"/>
<path d="M318.068 26.6785L315.658 23.3085L313.148 20.0085L309.888 16.5885L306.438 13.5185L302.788 10.8085L298.938 8.45853L294.678 6.35852L290.188 4.65851L285.478 3.35852L280.558 2.44852L275.698 2.13852L270.828 2.08853L273.498 1.5585L275.888 1.47852L282.308 2.18851L288.378 3.5285L294.108 5.48853L299.478 8.07852L304.198 11.0785L308.598 14.6285L312.708 18.7185L316.498 23.3685L317.218 24.6385L318.068 26.6785Z" fill="#9A9DA5" fill-opacity="0.996"/>
<path d="M268.87 2.28906L263.24 3.39908L257.9 4.98907L252.84 7.06906L248.08 9.61908L244.4 12.0491L240.92 14.8091L237.63 17.8891L234.54 21.2891L231.46 25.7191L228.34 30.1491L230.25 26.6691L232.41 23.3791L235.73 19.2391L239.53 15.4291L243.79 11.9591L248.52 8.82907L253.15 6.36908L257.83 4.46906L262.57 3.14908L267.36 2.40906L268.87 2.28906Z" fill="#9A9DA5" fill-opacity="0.996"/>
<path d="M185.269 5.5L185.779 6.41L186.059 7.35001L186.119 8.38L185.929 9.45001L184.649 12.56L182.609 15.45L184.139 12.82L185.049 10.05L185.339 7.81L185.269 5.5Z" fill="#9A9DA5" fill-opacity="0.996"/>
<path d="M295.573 16.2295L292.043 14.5895L288.693 13.3094L285.263 12.2195L281.743 11.3495L278.133 10.6895L281.513 11.0195L284.833 11.6295L290.093 13.2495L295.173 15.6295L295.573 16.0895V16.2295Z" fill="#9A9DA5" fill-opacity="0.996"/>
<path d="M128.609 44.9493L130.049 42.9593L131.619 41.2093L133.339 39.6993L135.209 38.4293L137.379 37.3293L139.719 36.5093L142.219 35.9693L144.889 35.7093L154.809 35.3993L155.969 35.0493L156.789 34.1593L158.009 32.0093L159.379 30.0293L160.909 28.2393L162.599 26.6293L164.619 25.0793L166.829 23.7493L169.229 22.6293L171.809 21.7293L172.639 21.1893L173.019 20.2693L173.079 19.0293L172.889 16.9593L172.339 14.8993L171.409 12.8393L170.109 10.7793L173.749 15.7893L173.999 16.2693L174.069 16.7693V20.6193L173.769 21.5893L172.849 22.0593L170.329 22.6593L167.959 23.5693L165.989 24.6393L164.139 25.9493L163.139 26.7893L161.429 28.4593L159.859 30.2893L158.439 32.2793L157.159 34.4393L156.519 35.3993L155.889 35.8993L154.629 36.1293L148.379 35.8493L145.469 35.9093L142.699 36.2593L140.059 36.9093L137.549 37.8593L135.099 39.1593L132.799 40.7693L130.629 42.6993L128.609 44.9493Z" fill="#9A9DA5" fill-opacity="0.996"/>
<path d="M273.1 10.8287L272.91 10.9087L271.07 11.3287L269 11.1787L269.81 10.8187L270.76 10.6387L273.1 10.8287Z" fill="#9A9DA5" fill-opacity="0.996"/>
<path d="M259.948 13.5195L257.548 14.7295L255.248 15.3995L254.698 15.5795L254.378 15.8895L254.288 16.3195L254.418 16.8695L256.468 21.1195L259.018 24.8195L262.328 28.5495L265.858 31.8995L269.598 34.8995L273.568 37.5195L278.738 40.2395L284.228 42.3995L290.058 44.0095L296.218 45.0695L293.018 44.8095L289.878 44.3595L286.808 43.6995L283.798 42.8395L279.938 41.4095L276.198 39.6295L272.568 37.4995L269.048 35.0295L264.328 31.0195L260.108 26.5895L256.658 22.0995L253.638 17.2495L253.588 17.1495L253.488 16.6495L253.598 16.1595L253.888 15.7495L254.328 15.4995L255.938 14.8395L257.638 13.8595L258.608 13.5295L259.948 13.5195Z" fill="#9A9DA5" fill-opacity="0.996"/>
<path d="M298.931 38.2183L294.351 37.8683L289.951 36.9183L287.661 36.1683L284.481 34.8883L281.411 33.4283L278.461 31.8083L275.631 29.9983L270.471 25.9983L265.761 21.3283L263.471 18.2683L260.781 13.7383L261.521 14.4483L262.811 16.1283L264.511 18.7383L267.451 22.2083L270.591 25.3583L273.941 28.1683L277.501 30.6583L282.351 33.3483L287.541 35.5083L293.061 37.1283L298.931 38.2183Z" fill="#9A9DA5" fill-opacity="0.996"/>
<path d="M182.61 15.4492L182.07 17.6792L181.98 19.4292L182.46 20.7992L183.4 21.7192L184.83 22.3292L182.18 21.7892L181.79 21.5692L181.59 21.1692L181.5 19.2992L181.73 16.9592L182.02 15.9892L182.53 15.4792L182.61 15.4492Z" fill="#9A9DA5" fill-opacity="0.996"/>
<path d="M298.98 18.1785L296.86 17.2085L295.57 16.2285L297.45 16.9285L298.98 18.1785Z" fill="#9A9DA5" fill-opacity="0.996"/>
<path d="M299.783 30.109L296.293 29.659L292.923 28.939L289.673 27.959L286.543 26.709L283.513 25.179L280.593 23.369L277.803 21.299L275.133 18.959L278.113 21.219L281.203 23.239L284.383 25.029L287.673 26.579L293.573 28.689L299.783 30.109Z" fill="#9A9DA5" fill-opacity="0.996"/>
<path d="M308.251 26.9197L299.941 18.9297L302.491 20.7097L304.801 22.7397L306.621 24.7297L308.251 26.9197Z" fill="#9A9DA5" fill-opacity="0.996"/>
<path d="M236.14 33.9287L232.99 42.6888L232.921 43.0788L233.05 43.6287L233.41 44.0587L233.93 44.2687L234.49 44.2188L238.851 42.5587L242.58 40.8087L246.19 38.8087L249.7 36.5587L253.101 34.0387L253.601 33.2088L253.4 32.2588L246.64 21.9888L246.421 21.8188L246.09 21.9688L243.601 24.3787L241.28 26.9188L238.58 30.3188L236.14 33.9287L236.231 33.0488L236.4 32.6987L238.52 29.5287L240.83 26.5188L245.56 21.3288L246.01 21.0487L246.53 20.9688L247.041 21.1187L247.43 21.4587L247.52 21.5888L254.01 32.8288L254.11 33.3888L253.84 33.8888L249.14 37.6287L244.101 40.7588L239.97 42.7588L235.65 44.3988L233.4 44.8288H233.31L232.7 44.5387L232.52 43.8888L233.2 40.6787L234.25 37.6287L236.14 33.9287Z" fill="#9A9DA5" fill-opacity="0.996"/>
<path d="M228.1 30.7585L224.54 41.3985L224.48 41.5385L223.9 41.9485L223.21 41.7585L220.04 39.4585L216.63 37.7485L213.06 36.6385L209.26 36.0985L204.68 35.9685L199.58 36.1485L199 36.0085L198.58 35.5785L197.22 33.1685L195.65 30.8085L191.84 26.2285L193.52 27.6485L195.08 29.3585L196.53 31.3785L197.87 33.6985L198.37 34.3085L199.26 34.9785L200.02 35.2885L201.03 35.3885L207.62 35.4485L210.29 35.7285L213.63 36.4485L216.91 37.5885L220.13 39.1285L223.28 41.0785L223.81 41.1585L224.2 40.8085L224.24 40.6885L224.55 39.2785L225.99 34.9385L228.1 30.7585Z" fill="#9A9DA5" fill-opacity="0.996"/>
<path d="M323.21 37.8498L318.93 28.0098L320.26 30.1298L321.38 32.3398L322.43 35.0298L323.21 37.8498Z" fill="#9A9DA5" fill-opacity="0.996"/>
<path d="M306.828 30.1484L307.918 29.7484L308.798 29.1284L309.228 28.6484H309.418L309.888 28.8784L310.108 29.3984L309.838 29.8784L309.678 29.9584L308.368 30.2084L306.828 30.1484Z" fill="#9A9DA5" fill-opacity="0.996"/>
<path d="M182.182 30.4291L182.852 31.6591L183.753 32.6191L184.503 33.1091L184.902 33.2291L184.712 32.8691L182.622 30.2491L184.722 31.1691L186.482 32.4591L187.582 33.6591L187.772 33.8791L188.202 34.2191L188.832 34.7891L189.292 35.6191V36.0991L188.822 36.2691H167.052L166.212 36.1691L165.812 35.8791L165.862 35.3891L166.352 34.6991L168.143 32.9691L170.382 31.2091L172.173 30.1391L174.052 29.4391L175.212 29.1891L176.742 29.0391L178.872 29.1291L181.022 29.5591L181.772 29.8891L182.162 30.3591L182.182 30.4291ZM177.962 29.9442L177.553 29.6628L176.57 29.5491L175.589 29.6697L175.182 29.954L175.59 30.2354L176.574 30.3491L177.555 30.2285L177.962 29.9442ZM172.382 30.7191L172.372 30.7291L172.462 31.0791L172.802 31.1391L172.982 30.8291L172.942 30.5791L172.692 30.5191H172.662L172.382 30.7191ZM169.102 34.4891L168.912 33.8891L168.462 33.9191L167.402 34.9391L167.262 35.2791L167.612 35.4191L168.452 35.3391L168.942 35.0191L169.102 34.4891ZM187.173 34.8291L187.452 35.0391L187.893 35.1091L187.742 34.5691L186.962 33.7791L186.612 33.6591L186.202 33.6991L186.283 34.1091L186.792 34.4991L187.173 34.8291ZM183.872 34.8728L183.744 34.5612L183.434 34.4312L170.753 34.387L170.442 34.5148L170.312 34.8254V34.8654L170.439 35.177L170.75 35.307L183.43 35.3512L183.742 35.2234L183.871 34.9128L183.872 34.8728Z" fill="#9A9DA5" fill-opacity="0.996"/>
<path d="M313.741 38.8189L312.681 38.5289L311.621 38.4389L313.061 38.1289L313.741 38.3289V38.8189Z" fill="#9A9DA5" fill-opacity="0.996"/>
<path d="M293.97 53.4191L289.56 52.9391L285.25 52.0791L279.86 50.4391L274.62 48.1891L268 44.4991L261.57 40.0691L260.98 39.7591L260.31 39.6491L259.65 39.7691L259.06 40.0991L253.16 44.7791L259.3 38.9791L260.15 38.6191L261.02 38.9291L266.67 43.1791L272.67 46.7291L277.66 49.0491L282.87 50.9391L288.31 52.3891L293.97 53.4191Z" fill="#9A9DA5" fill-opacity="0.996"/>
<path d="M314.922 44.1991L315.172 43.1691L315.163 42.0291L314.872 40.7591L314.312 39.3691L315.522 41.3791L315.802 42.3691L315.862 43.3491L315.792 43.9291L315.542 44.3591L314.922 44.1991Z" fill="#9A9DA5" fill-opacity="0.996"/>
<path d="M324.078 40.459L324.798 43.029L325.768 48.289L326.118 53.699L326.088 76.669L326.288 78.369L326.918 80.099L326.188 80.189L325.958 79.849L325.908 79.199L326.128 69.419L325.888 59.699L325.208 50.049L324.078 40.459Z" fill="#9A9DA5" fill-opacity="0.996"/>
<path d="M313.861 44.5298L311.301 45.0798L307.891 45.1398L309.831 44.7098L311.791 44.5098L313.861 44.5298Z" fill="#9A9DA5" fill-opacity="0.996"/>
<path d="M137.512 120.259L139.952 121.679L142.712 122.689L145.772 123.269L149.142 123.439L180.022 123.309L206.642 123.619L209.452 123.449L212.092 122.799L215.042 121.399L217.762 119.319L219.602 117.269L220.932 114.989L221.792 112.339L222.102 109.449L222.242 83.9888L222.152 58.1988L221.862 55.5188L221.282 53.5688L220.402 51.6788L219.022 49.6888L217.182 47.8788L214.892 46.2488L212.152 44.7988L215.282 46.0188L217.912 47.8188L219.762 49.8288L221.242 52.2688L222.092 54.7288L222.502 57.7688L222.712 63.4588L222.822 110.449V110.699L222.552 112.669L221.812 114.639L220.622 116.589L218.962 118.529L215.892 121.269L212.932 123.079L211.622 123.549L209.972 123.879L205.662 124.169L175.442 124.229L147.902 123.969L145.242 123.769L142.822 123.239L140.632 122.389L138.682 121.219L137.512 120.259Z" fill="#9A9DA5" fill-opacity="0.996"/>
<path d="M253.16 44.7793L252.72 45.0793L249.59 47.0793L246.36 48.9093L239.55 52.0693L237.69 52.7393L235.04 53.4393L232.31 53.8693L231.86 54.0493L231.57 54.4393L231.08 56.5493L231.16 58.4293L231.33 58.8393L231.7 59.1093L235.34 60.5793L231.44 59.6893L230.89 59.2993L230.78 58.6393L230.79 58.6193L230.93 57.9893L231.01 56.4793L230.74 54.9093L230.73 54.8693L230.87 54.0593L231.56 53.5893L236.79 52.3193L241.82 50.5693L247.22 48.0293L252.37 44.8993L253.16 44.7793Z" fill="#9A9DA5" fill-opacity="0.996"/>
<path d="M125.133 52.6885L125.543 50.5185L126.293 48.4985L127.083 47.0685L128.073 45.7285L125.133 52.6885Z" fill="#9A9DA5" fill-opacity="0.996"/>
<path d="M314 138.439L315.51 138.569L316.6 138.249L316.94 137.909L317.04 137.469L317.24 52.5586L317.82 60.1686L318.01 69.1786L317.72 138.399L317.59 138.839L317.24 139.089L317.2 139.099L315.73 139.159L314 138.439Z" fill="#9A9DA5" fill-opacity="0.996"/>
<path d="M315.138 53.1688L313.728 53.6287L313.408 53.9788L313.278 54.4287L312.328 69.7687L312.638 54.8688L312.758 53.8387L313.088 53.2486H313.098L313.928 52.9688L315.138 53.1688Z" fill="#9A9DA5" fill-opacity="0.996"/>
<path d="M304.231 65.0102L304.071 55.5302L303.841 54.8702L303.221 54.5902L297.551 53.8602L300.581 53.6602L303.531 53.9302L304.021 54.0202L304.411 54.2302L304.531 54.6502L304.231 65.0102Z" fill="#9A9DA5" fill-opacity="0.996"/>
<path d="M113.988 65.6495L115.418 63.6995L116.658 62.5294L118.198 61.4595L122.798 59.2595L123.438 58.9895L123.808 58.7195L123.988 58.3395L124.738 55.4395L124.998 56.9295L124.868 58.3295L124.718 58.8094L124.478 59.1995L124.058 59.4395L120.468 60.8495L117.248 62.7695L115.558 64.1295L113.988 65.6495Z" fill="#9A9DA5" fill-opacity="0.996"/>
<path d="M99.6508 62.5088L98.4408 61.2188L97.0508 60.4588L95.3708 60.2088L80.6208 60.3588L65.8008 60.0788L72.9608 59.5588L80.1308 59.2988L87.8208 59.3088L95.5208 59.6288L97.2508 59.9688L98.5608 60.7588L99.1908 61.5388L99.6508 62.5088Z" fill="#9A9DA5" fill-opacity="0.996"/>
<path d="M194.382 101.38L197.272 100.8L199.962 99.9296L202.442 98.7896L204.722 97.3496L206.582 95.8296L208.282 94.0696L210.632 90.8296L212.282 87.3296L213.022 84.7096L213.422 81.9696L213.452 78.9396L213.052 75.9996L212.532 74.0696L211.812 72.1796L209.772 68.5296L207.802 66.0896L205.532 64.0596L202.892 62.4096L199.942 61.1896L197.882 60.6996L195.252 60.3896L188.282 60.2996L174.982 60.4596L161.602 60.0996L167.612 59.6296L174.042 59.3496L188.142 59.3696L196.262 59.8596L198.442 60.2196L200.432 60.7696L202.252 61.4996L203.892 62.4196L205.772 63.7696L207.492 65.2396L209.042 66.8396L210.412 68.5596L211.022 69.4296L211.732 70.6096L212.602 72.4096L213.262 74.3296L213.722 76.3596L213.972 78.4996L214.032 80.8096L213.872 83.0496L213.492 85.2096L212.902 87.2996L211.942 89.5996L210.702 91.7996L209.172 93.8996L207.362 95.9096L204.912 97.9896L202.222 99.5796L200.402 100.32L198.492 100.87L196.482 101.23L194.382 101.38Z" fill="#9A9DA5" fill-opacity="0.996"/>
<path d="M426.989 92.8786L425.709 86.9186L424.849 83.7686L423.819 81.2286L421.899 77.7486L419.709 74.5786L417.269 71.7086L414.569 69.1486L410.889 66.4086L406.809 64.1386L402.339 62.3286L397.479 60.9786L394.569 60.5086L390.929 60.2186L381.419 60.1586L363.719 60.4386L344.409 60.3586L343.499 60.5286L342.519 61.0586L342.409 61.1386L341.809 61.7686L341.369 62.5986L340.449 65.0986L340.679 63.6286L341.089 62.3786L341.679 61.3486L342.449 60.5486L343.959 59.7486L345.879 59.4586L363.209 59.3086L382.219 59.3686L388.049 59.5286L393.019 59.8886L397.139 60.4586L400.389 61.2386L405.119 62.9686L409.419 65.0686L413.279 67.5386L416.699 70.3886L419.509 73.3886L421.869 76.6686L423.829 80.2886L425.339 84.1986L426.389 88.3986L426.989 92.8786Z" fill="#9A9DA5" fill-opacity="0.996"/>
<path d="M161.598 60.0996L174.978 60.4596L188.278 60.2996L195.248 60.3896L197.878 60.6996L199.938 61.1896L202.888 62.4096L205.528 64.0596L207.798 66.0896L209.768 68.5296L211.808 72.1796L212.528 74.0696L213.048 75.9996L213.448 78.9396L213.418 81.9696L213.018 84.7096L212.278 87.3296L210.628 90.8296L208.278 94.0696L206.578 95.8296L204.718 97.3496L202.438 98.7896L199.958 99.9296L197.268 100.8L194.378 101.38L158.058 101.22L154.448 99.7996L151.278 98.0196L148.558 95.9096L146.268 93.4396L144.368 90.4996L142.938 87.1796L142.248 84.6396L141.898 82.0696L141.928 78.8896L142.448 75.6796L143.488 72.4296L145.018 69.1496L145.448 68.6196L149.288 64.4996H149.308L149.458 64.3996L152.418 62.7096L155.508 61.4396L159.918 60.3696L161.598 60.0996ZM152.658 72.1496L150.318 75.8596L149.608 78.0796L149.348 80.2996L149.628 82.8796L150.518 85.4696L150.708 85.6296L150.878 86.2796L151.688 87.8096L152.628 89.1596L153.688 90.3196L154.888 91.2996L156.198 92.0796L157.628 92.6796L159.188 93.0896L160.878 93.3296L195.278 93.3496L197.388 92.9196L199.108 92.2496L200.738 91.2996L201.158 90.8996L201.318 90.4896V90.4296L203.488 88.6296L204.968 86.4796L205.568 84.9096L205.878 83.1896L206.078 81.5696V79.9096L205.478 76.4096L204.758 74.7296L203.888 73.2296L202.858 71.9096L201.678 70.7796L199.708 69.4496L197.418 68.5096L194.808 67.9596L191.878 67.7796L166.398 67.5596L161.458 67.7596L159.298 68.1096L157.358 68.6296L157.208 68.6796L155.958 69.2296L154.788 69.9996L152.658 72.1496Z" fill="#16335D"/>
<path d="M159.921 60.3691L155.511 61.4391L152.421 62.7091L149.461 64.3991L151.601 62.6891L153.931 61.4491L156.801 60.6091L159.921 60.3691Z" fill="#9A9DA5" fill-opacity="0.996"/>
<path d="M55.4505 60.7793L49.7405 62.6893L45.6405 64.3193L41.8905 66.2893L38.4905 68.6193L35.4505 71.3093L33.0405 73.9793L30.9105 76.9393L29.0505 80.1693L27.4705 83.6793L26.2905 87.5593L24.9805 91.3893L26.1805 86.1393L27.9105 81.3493L30.1805 76.9993L32.9905 73.0893L36.2105 69.7393L39.9405 66.8093L44.1605 64.2993L48.8905 62.2093L51.8805 61.3393L55.4505 60.7793Z" fill="#9A9DA5" fill-opacity="0.996"/>
<path d="M292.033 65.5099L290.663 63.8699L289.043 62.7699L287.323 62.2599L285.383 62.1999L286.363 61.9599L287.373 61.9199L288.383 62.0899L289.343 62.4499L290.223 62.9999L290.983 63.7099L292.033 65.5099Z" fill="#9A9DA5" fill-opacity="0.996"/>
<path d="M261.982 72.6492L263.472 71.8492L264.622 70.9592L265.422 69.9792L265.882 68.9092L265.932 67.1192L265.192 65.1192L264.202 63.8192L262.932 62.9892L261.672 62.6792L260.302 62.7592L259.392 63.0392L258.172 63.8092L257.132 64.9892L256.402 66.4292L256.192 67.8492L256.412 68.9992L256.992 70.1292L257.922 71.2492L259.202 72.3492L258.152 71.7892L257.252 71.0092L256.542 70.0492L256.072 68.9592L255.852 67.2992L256.152 65.6492L256.962 64.1692L258.192 63.0292L260.022 62.2492L262.022 62.1992L263.882 62.8992L265.362 64.2292L266.202 65.8792L266.422 67.7192L266.002 69.5192L264.992 71.0592L263.612 72.0992L261.982 72.6492Z" fill="#9A9DA5" fill-opacity="0.996"/>
<path d="M285.383 62.1992L287.323 62.2592L289.042 62.7692L290.663 63.8692L292.033 65.5092L292.062 65.5892L292.012 68.0292L291.712 69.0592L291.223 69.9492L290.112 71.0592L288.973 71.6992L287.802 71.9992L286.533 71.9592L285.212 71.5392L283.762 70.5192L283.133 69.6892L282.682 68.6992L282.312 66.1992L282.452 65.3892L282.892 64.5192L284.652 62.5392L285.383 62.1992Z" fill="#16335D"/>
<path d="M261.981 72.6497L260.571 72.6897L259.201 72.3497L257.921 71.2497L256.991 70.1297L256.411 68.9997L256.191 67.8497L256.401 66.4297L257.131 64.9897L258.171 63.8097L259.391 63.0397L260.301 62.7597L261.671 62.6797L262.931 62.9897L264.201 63.8197L265.191 65.1197L265.931 67.1197L265.881 68.9097L265.421 69.9797L264.621 70.9597L263.471 71.8497L261.981 72.6497Z" fill="#16335D"/>
<path d="M284.649 62.5391L282.889 64.5191L282.449 65.3891L282.309 66.1991L282.679 68.6991L283.129 69.6891L283.759 70.5191L285.209 71.5391L286.529 71.9591L287.799 71.9991L288.969 71.6991L290.109 71.0591L291.219 69.9491L291.709 69.0591L292.009 68.0291L292.059 65.5891L292.349 67.6091L291.889 69.5691L290.739 71.1791L289.079 72.2291L288.739 72.3391L287.729 72.5291L286.699 72.5091L285.689 72.2691L284.739 71.8391L283.889 71.2191L283.169 70.4491L282.609 69.5491L282.229 68.5491L282.039 66.7891L282.419 65.0891L283.319 63.6091L284.649 62.5391Z" fill="#9A9DA5" fill-opacity="0.996"/>
<path d="M149.289 64.5L145.449 68.62L146.159 67.18L147.119 65.97L148.119 65.15L149.289 64.5Z" fill="#9A9DA5" fill-opacity="0.996"/>
<path d="M205.48 76.4086L204.25 74.3386L202.86 72.5786L201.29 71.1186L199.56 69.9686L197.63 69.1086L195.52 68.5586L190.95 68.1686L184.14 68.3686L178.69 68.5386L175.12 68.4386L166.16 68.2986L159.37 68.5986L157.93 68.8986L156.34 69.5986L154.58 70.6786L152.66 72.1486L154.79 69.9986L155.96 69.2286L157.21 68.6786L157.36 68.6286L159.3 68.1086L161.46 67.7586L166.4 67.5586L191.88 67.7786L194.81 67.9586L197.42 68.5086L199.71 69.4486L201.68 70.7786L202.86 71.9086L203.89 73.2286L204.76 74.7286L205.48 76.4086Z" fill="#9A9DA5" fill-opacity="0.996"/>
<path d="M112.583 67.9688L111.133 72.2987L111.253 70.7587L111.693 69.3587L112.583 67.9688Z" fill="#9A9DA5" fill-opacity="0.996"/>
<path d="M123.691 94.4586L124.011 94.0186L124.061 93.7086L123.991 84.3686L124.131 70.9486L124.021 69.6186L123.641 68.5086L124.311 68.0586L124.701 68.2586L125.061 68.7986L125.091 68.9286V94.5586L124.971 94.9186L124.661 95.1286L124.161 95.1986L123.831 95.0786L123.691 94.4586Z" fill="#9A9DA5" fill-opacity="0.996"/>
<path d="M378.401 68.88L369.901 69.44L361.611 69.72L353.521 69.71L345.641 69.42L344.831 69.34L343.501 69.02L342.211 68.5L378.401 68.88Z" fill="#9A9DA5" fill-opacity="0.996"/>
<path d="M96.7 68.9195L91.37 69.3995L86.03 69.6495L77.27 69.5495L68.5 68.8094L81.9 68.4395L95.25 68.8295L96.7 68.9195Z" fill="#9A9DA5" fill-opacity="0.996"/>
<path d="M60.2714 68.7383L55.9914 69.4683L52.0214 70.6383L48.3814 72.2483L45.0514 74.3083L42.4114 76.4583L40.0114 78.9583L37.8514 81.7883L35.9414 84.9583L36.3114 83.6383L38.5014 80.1983L40.9514 77.2083L43.6714 74.6683L46.6714 72.5783L49.7114 71.0283L53.0014 69.8683L56.5214 69.1083L60.2714 68.7383Z" fill="#9A9DA5" fill-opacity="0.996"/>
<path d="M122.99 68.9484L121.41 70.5884L120.33 72.1684L119.48 73.9284L119.7 72.1384L120.67 70.3384L122.39 68.7784L122.86 68.6484L122.99 68.9484Z" fill="#9A9DA5" fill-opacity="0.996"/>
<path d="M406.41 73.4786L402.81 71.6586L399.09 70.2286L396.16 69.4086L393.16 68.8086L396.73 69.1086L400.1 69.9786L403.36 71.4386L406.41 73.4786Z" fill="#9A9DA5" fill-opacity="0.996"/>
<path d="M158.06 101.218L154.31 99.9884L151.04 98.3684L148.24 96.3684L145.91 93.9884L144.08 91.2584L142.71 88.1584L141.79 84.6884L141.34 80.8384L141.35 78.9184L141.69 76.4384L142.42 73.9884L143.53 71.5584L145.02 69.1484L143.49 72.4284L142.45 75.6784L141.93 78.8884L141.9 82.0684L142.25 84.6384L142.94 87.1784L144.37 90.4984L146.27 93.4384L148.56 95.9084L151.28 98.0184L154.45 99.7984L158.06 101.218Z" fill="#9A9DA5" fill-opacity="0.996"/>
<path d="M235.891 91.8496L236.001 82.9796L235.711 74.3296L235.491 72.8996L234.391 70.4396L234.211 70.0996L235.251 71.3396L236.011 72.8996L236.511 74.7696L236.741 76.9596L236.881 83.6396L236.771 89.5796L236.701 90.1196L236.121 91.4396L235.891 91.8496Z" fill="#9A9DA5" fill-opacity="0.996"/>
<path d="M296.18 99.2887L298.29 95.3687L299.93 91.6187L301.1 88.0387L301.79 84.6287L303.77 71.2188L303.29 78.0586L302.1 85.7387L301.16 89.5887L299.86 93.1287L298.2 96.3687L296.18 99.2887Z" fill="#9A9DA5" fill-opacity="0.996"/>
<path d="M312.238 73.459L311.418 83.109L310.968 86.549L310.548 91.349L310.458 96.199L310.088 133.379L309.748 135.339L309.758 136.259L310.218 137.229L311.158 138.099H310.338L309.758 137.829L309.448 137.339L309.348 136.629L309.148 93.219L309.348 90.619L309.998 87.389L311.108 81.609L312.238 73.459Z" fill="#9A9DA5" fill-opacity="0.996"/>
<path d="M416.691 85.1884L413.331 80.3984L410.391 77.0184L407.121 73.8984L410.641 76.6884L413.641 79.9384L416.171 83.6884L416.391 84.1384L416.691 85.1884Z" fill="#9A9DA5" fill-opacity="0.996"/>
<path d="M168.842 78.5496L167.272 76.6896L165.412 75.5196L163.482 75.0696L161.312 75.1996L162.412 74.9196L163.552 74.8496L164.682 74.9896L165.753 75.3496L166.742 75.9096L167.612 76.6496L168.322 77.5396L168.842 78.5496Z" fill="#9A9DA5" fill-opacity="0.996"/>
<path d="M192.36 74.7988L193.67 75.5188L195.2 76.0688L195.6 76.2488L195.96 76.5988L197.35 78.9888L197.66 80.0388L197.71 80.9888L197.23 83.0388L196.23 84.5688L195.34 85.2488L194.24 85.7288L193.12 85.9788L192.02 86.0088L190.58 85.7188L189.16 85.0488L188.17 84.2788L187.45 83.3588L186.95 82.0588L186.82 80.5488L187.07 78.8088L187.7 76.8488L188.66 75.9688L189.79 75.3188L191.05 74.9188L192.36 74.7988Z" fill="#16335D"/>
<path d="M187.7 76.8488L187.07 78.8088L186.82 80.5488L186.95 82.0588L187.45 83.3588L188.17 84.2788L189.16 85.0488L190.58 85.7188L192.02 86.0088L193.12 85.9788L194.24 85.7288L195.34 85.2488L196.23 84.5688L197.23 83.0388L197.71 80.9888L197.66 80.0388L197.35 78.9888L195.96 76.5988L195.6 76.2488L195.2 76.0688L193.67 75.5188L192.36 74.7988L193.56 74.9288L194.71 75.2888L195.76 75.8688L196.67 76.6288L197.41 77.5588L197.94 78.5988L198.25 79.7288L198.32 80.8988L197.99 82.5588L197.44 83.6788L196.66 84.6688L195.68 85.4688L194.54 86.0488L193.31 86.3788L192.02 86.4588L190.75 86.2688L189.55 85.8188L188.58 85.2088L187.74 84.4288L187.07 83.5188L186.59 82.4988L186.27 80.5588L186.65 78.5888L187.7 76.8488Z" fill="#9A9DA5" fill-opacity="0.996"/>
<path d="M161.312 75.1984L163.482 75.0684L165.412 75.5184L167.272 76.6884L168.842 78.5484L169.182 79.7684L169.262 81.0284L169.072 82.2884L168.622 83.4684L166.592 85.3384L165.712 85.8584L164.932 86.0984L162.432 86.1084L161.342 85.8384L160.372 85.3784L159.362 84.5984L158.503 83.5583L158.242 83.1084L157.872 81.9584L157.812 80.6584L158.322 77.6084L159.612 76.1484L161.312 75.1984Z" fill="#16335D"/>
<path d="M150.322 75.8594L150.122 77.6494L150.062 81.5394L150.522 85.4694L149.632 82.8794L149.352 80.2994L149.612 78.0794L150.322 75.8594Z" fill="#9A9DA5" fill-opacity="0.996"/>
<path d="M109.422 80.3584L110.732 76.3984L110.942 78.9984L110.752 79.7984L110.352 80.2684L109.422 80.3584Z" fill="#9A9DA5" fill-opacity="0.996"/>
<path d="M168.618 83.4694L167.948 84.4994L167.078 85.3794L166.048 86.0494L164.898 86.4994L163.688 86.6994L162.458 86.6394L161.258 86.3294L160.158 85.7894L159.708 85.4694L158.908 84.7194L158.258 83.8494L157.778 82.8594L157.488 81.8094L157.398 80.7194L157.518 79.6294L157.818 78.5794L158.318 77.6094L157.808 80.6594L157.868 81.9594L158.238 83.1094L158.498 83.5594L159.358 84.5994L160.368 85.3794L161.338 85.8394L162.428 86.1094L164.928 86.0994L165.708 85.8594L166.588 85.3394L168.618 83.4694Z" fill="#9A9DA5" fill-opacity="0.996"/>
<path d="M407.26 146.909V147.659V201.909L407.17 202.659L407.15 202.669L407.36 215.989L407.23 229.299L406.61 245.429L406.37 221.989L406.46 194.199L406.53 161.319L406.27 117.949L406.54 97.4488L406.42 94.5388L405.93 91.8788L405.08 89.4688L403.87 87.3188L401.83 84.9688L399.21 83.0188L396.02 81.4588L392.25 80.2988L395.33 80.9988L398.05 82.0388L400.42 83.4188L402.42 85.1488L403.92 86.9988L405.13 89.1188L406.04 91.5288L406.67 94.2088L407.12 99.7788L407.26 109.449L407.25 128.179L407.26 146.909Z" fill="#9A9DA5" fill-opacity="0.996"/>
<path d="M58.3906 80.5684L55.4606 81.6384L52.9206 82.9884L50.7506 84.6384L48.9606 86.5784L47.2406 89.4384L46.5706 91.4184L46.1006 94.0284L45.8206 97.2784L45.7306 101.168L45.7506 193.048L45.4806 284.908L45.5606 287.148L45.8606 288.888L46.4006 290.228L47.2406 291.298L47.9906 291.838L48.9206 292.218L51.1306 292.508L140.361 292.608L141.131 292.868L141.581 293.528L141.591 293.578L141.971 296.048L141.721 298.688L140.921 294.118L140.741 293.748L140.371 293.558L137.861 293.218L135.371 293.228L130.391 293.598L55.6406 293.608L53.0606 293.418L49.6506 292.818L48.7206 292.638L47.1306 291.988L46.2206 291.138L45.6706 290.188L45.2706 288.928L44.9606 285.448L45.0106 146.698L45.0006 128.198L44.8906 112.568L45.1006 97.1884L45.3906 93.9384L46.0806 91.0284L47.1806 88.4384L48.6806 86.1884L50.5306 84.3083L52.7706 82.7484L55.3906 81.4984L58.3906 80.5684Z" fill="#9A9DA5" fill-opacity="0.996"/>
<path d="M201.32 90.4295L205.88 83.1895L205.57 84.9095L204.97 86.4795L203.49 88.6295L201.32 90.4295Z" fill="#9A9DA5" fill-opacity="0.996"/>
<path d="M35.9383 84.959L34.5983 89.809L34.2383 92.159L34.0983 94.449L33.8883 99.879L33.4283 104.479L33.2383 99.899L33.2983 94.229L33.4883 91.909L33.9183 89.729L34.5783 87.669L35.4783 85.739L35.9383 84.959Z" fill="#9A9DA5" fill-opacity="0.996"/>
<path d="M418.081 303.049L418.181 138.949L418.191 95.4495L417.811 90.5895L416.691 85.1895L417.571 87.3995L418.211 89.5495L418.601 91.6495L418.741 93.6795L418.951 121.949L419.161 227.439L419.131 267.449L419.181 293.449L419.201 298.099L418.891 302.789L418.791 303.029L418.341 303.289L418.081 303.049Z" fill="#9A9DA5" fill-opacity="0.996"/>
<path d="M160.883 93.3293L159.193 93.0893L157.633 92.6793L156.203 92.0793L154.893 91.2993L153.693 90.3193L152.633 89.1593L151.693 87.8093L150.883 86.2793L152.933 88.8493L155.343 90.8893L157.953 92.3393L160.883 93.3293Z" fill="#9A9DA5" fill-opacity="0.996"/>
<path d="M117.512 284.029H54.5716L54.0616 283.819L53.8516 283.309V96.9391L54.1516 94.4591L55.0316 92.3291L56.2716 90.7791L57.9616 89.4891L59.1116 89.0391L60.8316 88.7291L65.9816 88.5391L88.1816 88.7591L110.012 88.7391L110.472 88.8891L110.742 89.2891L111.652 91.9891L112.802 94.4591L114.202 96.6991L115.852 98.7091L117.572 100.359L119.502 101.809L121.632 103.069L123.972 104.139L124.452 104.539L124.622 105.139L124.572 110.149L124.872 113.879L125.582 117.139L126.752 120.079L128.252 122.549L130.122 124.779L132.052 126.599L134.082 128.169L136.222 129.469L138.462 130.529L141.362 131.469L144.422 132.029L149.752 132.289L160.032 132.419L160.232 132.479L160.332 132.679L161.372 139.879V139.889L161.182 140.099L147.032 140.169L133.502 140.009L129.522 140.019L126.192 140.229L123.512 140.639L121.492 141.249L119.222 142.419L117.252 143.909L115.462 145.859L114.012 148.189L112.892 150.889L112.112 153.959L111.812 154.469L111.262 154.659L108.042 154.829L105.102 155.389L102.422 156.349L100.022 157.699L98.0116 159.319L96.2516 161.289L94.7116 163.609L93.4216 166.269L93.0816 167.479L92.8516 169.249L92.6716 174.489L92.9616 248.039L93.1216 252.709L93.5316 255.849L94.0916 257.789L94.8616 259.669L97.0716 263.469L100.182 267.319L104.502 271.589L117.472 283.589L117.642 283.829L117.652 283.859L117.512 284.029Z" fill="#52B9F9"/>
<path d="M267.88 89.8797L262.84 89.1197L263.74 88.7697L264.69 88.6797L265.7 88.8297L267.88 89.8797Z" fill="#9A9DA5" fill-opacity="0.996"/>
<path d="M260.949 93.4793L262.189 95.4293L263.539 97.0093L264.979 98.2193L266.519 99.0693L267.519 99.4493L270.329 100.139L273.299 100.349L276.439 100.079L279.739 99.3293L281.359 98.7393L282.769 97.9893L283.979 97.0793L284.979 96.0093L285.829 94.6693L286.419 92.9293L286.309 91.4193L285.929 90.6693L285.319 89.9893L284.309 89.3893L283.449 89.2493L282.549 89.3493L280.039 90.2993L279.869 90.3793L277.339 91.2493L274.799 91.5793L273.129 91.5093L271.459 91.2193L269.779 90.6893L268.099 89.9393L270.929 90.2793L273.719 90.3593L276.449 90.1993L279.139 89.7893L282.789 88.7993L283.769 88.7793L285.569 89.7093L286.249 90.4193L286.699 91.2393L286.959 92.4393L286.809 93.7093L286.259 94.9993L285.309 96.2293L283.179 98.2093L281.609 99.1793L279.279 99.9093L276.959 100.399L274.649 100.639H272.359L270.029 100.389L267.709 99.8793L265.489 99.0093L263.649 97.7193L262.079 95.8393L260.949 93.4793Z" fill="#9A9DA5" fill-opacity="0.996"/>
<path d="M397.541 284.009H358.681L358.201 283.809L358.001 283.339L358.011 179.179L357.921 174.499L357.641 170.489L357.191 167.129L356.551 164.439L355.351 161.029L353.891 157.829L352.171 154.839L350.181 152.039L348.261 149.789L346.141 147.689L344.061 145.929L341.881 144.379L339.621 143.029L337.271 141.879L334.761 140.909L332.161 140.149L329.451 139.609L326.661 139.279L326.151 139.029L325.941 138.499V89.1785L326.051 88.8485L326.401 88.7285L389.631 88.8185L391.411 88.9285L392.971 89.2785L394.321 89.8585L395.471 90.6685L396.431 91.7685L397.171 93.1185L397.611 94.6085L397.891 96.6085L398.011 102.289L397.991 103.699L398.101 283.449L397.941 283.849L397.541 284.009Z" fill="#52B9F9"/>
<path d="M262.839 89.1191L267.879 89.8791L267.869 89.7791L268.099 89.9391L269.779 90.6891L271.459 91.2191L273.129 91.5091L274.799 91.5791L277.339 91.2491L279.869 90.3791L280.039 90.2991L282.549 89.3491L283.449 89.2491L284.309 89.3891L285.319 89.9891L285.929 90.6691L286.309 91.4191L286.419 92.9291L285.829 94.6691L284.979 96.0091L283.979 97.0791L282.769 97.9891L281.359 98.7391L279.739 99.3291L276.439 100.079L273.299 100.349L270.329 100.139L267.519 99.4491L266.519 99.0691L264.979 98.2191L263.539 97.0091L262.189 95.4291L260.949 93.4791L261.109 91.9091L261.639 90.5391L262.839 89.1191Z" fill="#16335D"/>
<path d="M201.321 90.4297V90.4897L201.161 90.8997L200.741 91.2997L199.111 92.2497L197.391 92.9197L195.281 93.3497L201.321 90.4297Z" fill="#9A9DA5" fill-opacity="0.996"/>
<path d="M132.962 93.1387L133.102 101.199L133.002 107.199L133.032 109.859L133.372 112.369L134.012 114.709L134.952 116.899L136.512 119.359L135.132 117.869L134.052 116.209L133.052 113.599L132.662 110.669L132.602 102.789L132.962 93.1387Z" fill="#9A9DA5" fill-opacity="0.996"/>
<path d="M237.941 103.94L237.801 103.64L236.801 102.35L237.361 102.02H237.761L238.041 102.62L237.941 103.94Z" fill="#9A9DA5" fill-opacity="0.996"/>
<path d="M236.693 102.479L234.663 103.449L232.393 104.039L231.753 104.389L231.463 105.049L231.103 109.169L230.973 104.609L231.093 104.169L231.483 103.919L236.693 102.479Z" fill="#9A9DA5" fill-opacity="0.996"/>
<path d="M289.162 106.488L286.142 108.658L282.892 110.178L280.342 110.888L277.672 111.248L279.402 110.758L284.372 108.918L289.162 106.488Z" fill="#9A9DA5" fill-opacity="0.996"/>
<path d="M300.93 109.169L300.23 108.159L300.43 107.679L300.47 107.659L300.77 107.629L301 107.839L301.08 108.119L300.93 109.169Z" fill="#9A9DA5" fill-opacity="0.996"/>
<path d="M299.59 108.639L299.03 109.699L298.28 110.559L297 111.439L297.73 110.249L298.66 109.279L299.59 108.639Z" fill="#9A9DA5" fill-opacity="0.996"/>
<path d="M270.281 111.14L269.021 111.27L267.841 111.11L266.281 110.35L270.281 111.14Z" fill="#9A9DA5" fill-opacity="0.996"/>
<path d="M252.53 124.98L253.3 123.2L253.85 121.42L254.18 119.63L254.3 117.85L254.18 115.95L254.08 115.52L253.58 114.68L252.68 113.97L250.9 112.6L250.09 111.66L254.18 114.4L254.51 114.74L254.65 115.19V118.39L254.26 121.38L253.56 123.57L252.53 124.98Z" fill="#9A9DA5" fill-opacity="0.996"/>
<path d="M294.571 113.219L294.291 121.649L293.601 118.989L293.391 116.729L293.681 114.849L294.461 113.349L294.571 113.219Z" fill="#9A9DA5" fill-opacity="0.996"/>
<path d="M33.5714 114.66L34.2214 123.6L34.1514 132.5L33.5314 140.06L33.1914 127.41L33.5714 114.66Z" fill="#9A9DA5" fill-opacity="0.996"/>
<path d="M284.781 118.209L282.481 119.109L281.371 119.259L280.291 119.209L280.191 119.189L284.781 118.209Z" fill="#9A9DA5" fill-opacity="0.996"/>
<path d="M268.121 119.239L267.491 119.339L266.031 119.219L264.531 118.639L266.161 118.679L268.121 119.239Z" fill="#9A9DA5" fill-opacity="0.996"/>
<path d="M263.191 119.389V120.939L262.971 122.219L262.531 123.489L262.581 121.859L263.191 119.389Z" fill="#9A9DA5" fill-opacity="0.996"/>
<path d="M284.211 141.128L285.471 139.868L287.931 137.248L288.671 136.148L289.071 135.198L289.131 134.758L288.991 134.258L288.201 132.668L286.711 129.568L285.821 127.308L285.311 125.258L285.141 123.358L285.211 121.988L286.091 126.138L287.531 130.028L289.591 133.708L289.821 134.408L289.671 135.128L288.661 136.798L287.481 138.308L285.951 139.818L284.211 141.128Z" fill="#9A9DA5" fill-opacity="0.996"/>
<path d="M294.531 123.77L295.461 126.15L296.731 128.29L298.711 130.55L301.191 132.46L301.391 133.29L300.871 133.14L299.781 132.32L297.441 129.94L295.721 127.24L295.021 125.56L294.531 123.77Z" fill="#9A9DA5" fill-opacity="0.996"/>
<path d="M262.19 124.939L261.8 126.899L261.03 128.649L259.66 130.439L262.19 124.939Z" fill="#9A9DA5" fill-opacity="0.996"/>
<path d="M195.602 132.24L210.222 131.99L211.952 131.8L213.702 131.37L215.482 130.71L217.282 129.81L221.932 127.22L222.222 127.17L222.312 127.45L222.042 139.33L221.802 139.88L221.262 140.1H195.342L194.912 139.96L194.762 139.52V133.08L195.012 132.49L195.602 132.24Z" fill="#52B9F9"/>
<path d="M246.601 128.67L246.881 129.65L246.691 130.17L246.241 130.66L246.031 130.14L246.121 129.43L246.601 128.67Z" fill="#9A9DA5" fill-opacity="0.996"/>
<path d="M249.76 129.389L248.96 130.799L247.6 132.429L247.14 132.799L246.77 132.869L246.43 132.519L249.76 129.389Z" fill="#9A9DA5" fill-opacity="0.996"/>
<path d="M259.661 130.439L258.461 132.639L257.441 133.719L258.541 131.619L259.661 130.439Z" fill="#9A9DA5" fill-opacity="0.996"/>
<path d="M183.292 141.029L185.312 138.709L186.612 136.129L187.162 133.539V133.489L186.912 132.819L186.252 132.539L170.392 132.379L169.262 132.499L168.302 132.899L167.862 133.229L167.622 133.109L167.512 132.529L167.762 132.029L168.272 131.869H186.902L187.592 132.179L187.822 132.899L187.802 132.999L186.352 137.899L185.342 139.669L183.992 140.759L183.292 141.029Z" fill="#9A9DA5" fill-opacity="0.996"/>
<path d="M168.111 134.238L169.651 137.488L172.041 140.938L175.081 144.018L172.421 142.108L171.081 140.738L169.911 139.168L168.911 137.418L168.081 135.478L167.941 134.818L168.071 134.308L168.111 134.238Z" fill="#9A9DA5" fill-opacity="0.996"/>
<path d="M273.109 146.61L270.169 146.27L267.559 145.3L266.289 144.53L265.009 143.57L262.979 141.82L261.099 139.87L259.369 137.73L257.789 135.41L259.889 137.89L262.099 140.17L264.439 142.27L266.899 144.18L268.559 145.21L270.299 145.97L273.109 146.61Z" fill="#9A9DA5" fill-opacity="0.996"/>
<path d="M232.699 139.118L234.419 138.588L236.069 138.378L236.829 138.108L238.019 137.318L237.809 137.948L237.159 138.598L236.089 139.008L234.599 139.188L232.699 139.118Z" fill="#9A9DA5" fill-opacity="0.996"/>
<path d="M330.001 190.039L329.841 190.049L328.171 190.289L326.961 190.999L326.151 192.319L325.881 194.199L325.921 283.469L325.761 283.868L325.361 284.029H310.401H310.371L310.041 283.858L309.941 283.499L318.561 215.159L318.741 212.309L318.561 209.709L318.001 207.439L317.101 205.499L315.351 203.089L313.261 201.139L311.421 199.959L309.381 199.049L307.741 198.599L305.621 198.289L299.911 198.039L262.871 198.189L262.421 197.999L262.231 197.539L262.331 176.279L262.301 172.769L262.061 169.769L261.631 167.269L261.001 165.279L259.191 161.959L258.071 160.539L256.811 159.279L254.781 157.759L252.481 156.559L249.891 155.679L247.021 155.109L245.991 155.059L243.841 154.869L243.451 154.629L243.301 154.199L242.581 149.919L241.991 148.079L241.251 146.429L241.191 146.109L241.401 145.889L250.391 140.699L250.901 140.589L251.301 140.889L254.871 145.239L258.821 149.029L261.941 151.309L265.171 152.989L268.591 154.109L272.041 154.639H274.771L277.471 154.289L280.131 153.599L282.721 152.569L285.221 151.219L287.621 149.559L289.881 147.589L292.001 145.319L295.701 140.829L296.331 140.479L297.021 140.649L300.561 142.909L304.191 144.739L307.901 146.119L311.701 147.069L312.101 147.139L315.441 147.489L320.681 147.609L325.961 147.739L329.261 148.109L333.441 149.279L337.211 151.129L339.571 152.789L341.741 154.769L343.711 157.059L345.481 159.679L347.041 162.579L348.261 165.509L349.141 168.489L349.681 171.509L349.881 175.199L349.781 254.238L349.651 254.548L349.341 254.678H334.561L334.161 254.519L334.001 254.118L333.981 193.949L333.721 192.159L332.951 190.909L331.711 190.219L330.001 190.039Z" fill="#52B9F9"/>
<path d="M284.211 141.129L282.961 142.649L281.511 143.889L280.061 144.749L278.441 145.389L284.211 141.129Z" fill="#9A9DA5" fill-opacity="0.996"/>
<path d="M154.059 148.36L148.259 148.55L147.859 148.28L147.939 147.92L148.049 147.81L148.259 147.76L154.059 148.36Z" fill="#9A9DA5" fill-opacity="0.996"/>
<path d="M167.96 149.129L167.08 148.929L166.37 148.509L165.91 147.999L166.48 147.799L167.22 148.129L167.96 149.129Z" fill="#9A9DA5" fill-opacity="0.996"/>
<path d="M192.58 148.3L187.77 148.58L188.11 148.18L188.86 147.78L189.85 147.67L191.09 147.84L192.58 148.3Z" fill="#9A9DA5" fill-opacity="0.996"/>
<path d="M140.45 152.51L139.52 151.31L138.94 150.04L138.23 148.99L137.04 148.53L132.89 148.36L128.36 148.45L125.61 148.82L123.64 149.66L122.33 150.89L121.52 152.54L121.23 154.59L121.16 231.35L121 239.55L121.05 244.86L121.41 250.12L120.86 248.01L120.66 244.7L120.57 195.31L120.75 154.75L120.86 153.35L121.14 152.11L121.61 151.04L122.26 150.13L123.22 149.29L124.42 148.66L125.85 148.25L127.52 148.04L132.8 147.92L137.84 148.17L138.29 148.31L138.64 148.62L140 151.1L140.45 152.51Z" fill="#9A9DA5" fill-opacity="0.996"/>
<path d="M205.928 148.79L204.078 148.44L204.808 148.05L205.478 148.01L206.108 148.33L206.198 148.47L206.158 148.64L206.138 148.66L205.928 148.79Z" fill="#9A9DA5" fill-opacity="0.996"/>
<path d="M216.879 148.499L216.399 148.739L215.659 149.419L215.109 150.419L211.519 158.939L206.589 169.689L205.039 173.459L203.739 176.019L203.039 177.059L202.289 177.839L201.449 178.259L200.329 178.269L199.069 177.769L197.199 176.569L195.619 175.309L194.339 173.979L193.359 172.589L197.399 176.099L198.929 177.289L200.239 177.739L201.389 177.589L202.509 176.839L203.399 175.459L215.189 149.399L215.809 148.629L216.329 148.459L216.879 148.499Z" fill="#9A9DA5" fill-opacity="0.996"/>
<path d="M234.75 154.549L234.01 152.509L232.89 150.649L231.41 148.969L233.01 149.969L234.1 151.259L234.66 152.769L234.75 154.549Z" fill="#9A9DA5" fill-opacity="0.996"/>
<path d="M148.388 149.16L154.938 163.72L154.708 163.7L154.448 163.42L148.038 149.7L147.988 149.26L148.388 149.16Z" fill="#9A9DA5" fill-opacity="0.996"/>
<path d="M170.238 152.849L170.258 152.089L169.998 151.139L169.398 150.219L170.298 150.369L170.838 150.989L171.038 151.639L170.978 152.179L170.238 152.849Z" fill="#9A9DA5" fill-opacity="0.996"/>
<path d="M184.56 151.029L197.01 164.469L185.2 152.659L184.38 151.689L184.25 151.149L184.56 151.029Z" fill="#9A9DA5" fill-opacity="0.996"/>
<path d="M165.851 169.58L165.131 169.31L164.911 169.48L161.561 173.57L158.251 176.94L156.421 178.24L154.711 178.69L153.731 178.59L152.851 178.28L151.761 177.45L150.901 176.17L145.791 165.25L140.641 152.97L140.841 152.91L141.121 153.23L146.881 166.37L151.121 175.21L152.261 177L153.411 178.01L154.731 178.38L156.121 178L157.521 176.86L166.071 167.7L166.421 167.52L166.611 167.87L166.481 168.63L165.851 169.58Z" fill="#9A9DA5" fill-opacity="0.996"/>
<path d="M204.56 152.879L204.35 154.339L203.73 155.459L203.32 155.859L204.11 153.649L204.56 152.879Z" fill="#9A9DA5" fill-opacity="0.996"/>
<path d="M167.73 155.33L157.14 165.85L156.71 166.17L156.29 166.32H155.52L155.78 165.86L160.43 161.65L164.88 157.19L165.84 156.33L166.9 155.68L167.73 155.33Z" fill="#9A9DA5" fill-opacity="0.996"/>
<path d="M183.878 198.11H171.498L170.678 197.81L170.318 197.29L170.238 196.67L175.398 158.5L175.588 157.98L175.978 157.59L176.498 157.41L177.048 157.46L178.828 158.05L179.408 158.43L179.688 159.07L185.138 196.66L185.098 197.2L184.838 197.67L184.408 198L183.878 198.11Z" fill="#52B9F9"/>
<path d="M253.26 168.31L251.61 166.13L250.66 165.36L249.61 164.79L248.5 164.44L247.29 164.29L244.62 164.61L244.27 164.84L244.13 165.23V196.98L244.26 197.36L244.63 197.48L253.92 197.5L254 197.78L253.88 198L253.62 198.03L244.76 198.31L244.23 198.22L243.77 197.93L243.46 197.49L243.34 196.96V196.94V164.11L243.46 163.8L243.75 163.64L245.9 163.5L247.8 163.67L249.46 164.17L250.87 165L252.25 166.42L253.26 168.31Z" fill="#9A9DA5" fill-opacity="0.996"/>
<path d="M199.191 165.639L199.311 165.659V165.669L199.341 165.829L199.301 165.929L199.121 166.119L199.051 165.879L199.191 165.639Z" fill="#9A9DA5" fill-opacity="0.996"/>
<path d="M189.291 169.43L190.041 171.96L190.121 174.86L189.331 172.14L189.281 169.51L189.291 169.43Z" fill="#9A9DA5" fill-opacity="0.996"/>
<path d="M165.909 169.869L166.189 170.209L166.229 170.679L166.119 171.309L164.669 180.299L163.429 189.319L163.299 190.109L162.789 191.899L165.389 170.449L165.499 170.139L165.909 169.869Z" fill="#9A9DA5" fill-opacity="0.996"/>
<path d="M111.352 240.078L111.522 239.838L111.862 239.068L112.002 238.158L112.112 236.738L112.402 175.148L112.712 239.168L112.472 239.928L111.852 240.408L111.382 240.428L111.352 240.078Z" fill="#9A9DA5" fill-opacity="0.996"/>
<path d="M190.949 179.699L190.999 179.889L191.929 183.539L192.599 187.259L193.029 191.059L193.219 194.919L190.949 179.699Z" fill="#9A9DA5" fill-opacity="0.996"/>
<path d="M162.789 191.898L162.429 196.958L162.299 197.558L162.009 197.978L161.559 198.218L160.959 198.278L148.639 198.058L144.959 198.408L143.069 198.878L141.209 199.548L137.609 201.488L139.499 199.768L141.459 198.758L145.109 197.858L148.919 197.468L155.079 197.368L161.129 197.488H161.199L161.939 197.138L162.199 196.358L162.179 196.148L162.249 194.038L162.789 191.898Z" fill="#9A9DA5" fill-opacity="0.996"/>
<path d="M235.393 197.43L235.383 197.06L235.563 197L235.593 197.04L235.613 197.4L235.513 197.49L235.503 197.5L235.393 197.43Z" fill="#9A9DA5" fill-opacity="0.996"/>
<path d="M407.148 202.67L407.168 202.66L407.258 201.91L407.158 202.67H407.148Z" fill="#16335D"/>
<path d="M134.03 205.77L133.36 208.22L132.93 210.7L132.73 214.35L133.04 218.07L133.81 223.14L137.96 260.19L137.95 260.94L137.69 261.4L137.5 261.51L137.16 256.78L136.61 252.109L135.35 242.76L132.36 214.95L132.27 211.5L132.91 208.3L134.03 205.77Z" fill="#9A9DA5" fill-opacity="0.996"/>
<path d="M145.002 206.949L143.112 208.469L141.852 210.299L141.222 212.589L141.312 215.219L141.912 219.679L142.282 224.189L141.432 220.129L141.242 218.389L140.852 212.529L141.172 210.519L142.002 208.909L143.272 207.749L145.002 206.949Z" fill="#9A9DA5" fill-opacity="0.996"/>
<path d="M309.739 210.259L306.199 207.059L308.059 208.069L308.999 209.039L309.739 210.259Z" fill="#9A9DA5" fill-opacity="0.996"/>
<path d="M297.289 303.19L298.769 302.2L299.069 301.86L299.159 301.4L299.409 296.97L309.249 220.21L310.049 213.68L310.099 212.22L309.909 210.66L310.019 210.79L310.519 211.95L310.559 213.45L307.489 238.61L305.079 257.33L299.359 302.54L299.189 302.98L298.809 303.23L298.139 303.33L297.289 303.19Z" fill="#9A9DA5" fill-opacity="0.996"/>
<path d="M210.568 254.25L210.968 257.89L211.828 261.1L213.138 263.87L214.918 266.2L217.408 268.26L220.448 269.79L223.068 270.54L225.658 270.78L227.818 270.62L229.928 270.14L232.098 269.3L234.208 268.14L236.188 266.58L237.688 264.8L238.878 262.71L239.648 260.8L240.178 258.96L240.458 257.17L240.498 255.44L240.278 253.29L239.828 251.29L239.138 249.44L238.208 247.74L237.018 246.16L235.588 244.74L233.908 243.48L231.978 242.37L229.278 241.3L226.538 240.78L224.388 240.76L222.198 241.06L219.988 241.69L217.748 242.65L219.608 241.65L221.588 240.93L223.648 240.48L225.748 240.33L229.168 240.73L232.418 241.89L233.968 242.77L235.408 243.83L236.718 245.06L237.888 246.43L238.878 247.93L239.698 249.53L240.338 251.22L240.768 252.98L241.038 256.29L240.608 259.59L239.498 262.71L237.758 265.53L235.358 268.01L232.468 269.88L229.248 271.05L225.848 271.46L223.978 271.35L222.138 271.01L220.348 270.44L218.638 269.66L216.828 268.52L215.198 267.13L213.768 265.53L212.568 263.74L211.628 261.8L210.958 259.74L210.578 257.61L210.488 255.45L210.568 254.25Z" fill="#9A9DA5" fill-opacity="0.996"/>
<path d="M210.57 254.25L211.06 251.66L211.97 249.2L212.58 248.68L212.95 248.08L213.09 247.2L215.18 244.67L217.75 242.65L219.99 241.69L222.2 241.06L224.39 240.76L226.54 240.78L229.28 241.3L231.98 242.37L233.91 243.48L235.59 244.74L237.02 246.16L238.21 247.74L239.14 249.44L239.83 251.29L240.28 253.29L240.5 255.44L240.46 257.17L240.18 258.96L239.65 260.8L238.88 262.71L237.69 264.8L236.19 266.58L234.21 268.14L232.1 269.3L229.93 270.14L227.82 270.62L225.66 270.78L223.07 270.54L220.45 269.79L217.41 268.26L214.92 266.2L213.14 263.87L211.83 261.1L210.97 257.89L210.57 254.25ZM227.356 262.895L228.649 262.446L229.828 261.738L230.847 260.798L231.667 259.663L232.257 258.376L232.594 256.987L232.664 255.548L232.466 254.116L232.007 252.745L231.304 251.488L230.384 250.393L229.284 249.502L228.044 248.85L226.714 248.462L225.343 248.352L223.985 248.525L222.692 248.974L221.513 249.682L220.494 250.621L219.674 251.756L219.084 253.043L218.747 254.433L218.677 255.871L218.875 257.304L219.334 258.675L220.037 259.932L220.956 261.027L222.057 261.917L223.296 262.569L224.627 262.958L225.997 263.068L227.356 262.895Z" fill="#16335D"/>
<path d="M144.5 243.83L146.27 259.34L145.56 255.62L144.81 249.76L144.5 243.83Z" fill="#9A9DA5" fill-opacity="0.996"/>
<path d="M213.093 247.199L212.953 248.079L212.583 248.679L211.973 249.199L213.093 247.199Z" fill="#9A9DA5" fill-opacity="0.996"/>
<path d="M218.875 257.302C219.806 261.271 223.603 263.774 227.356 262.894C231.109 262.013 233.397 258.083 232.466 254.115C231.536 250.147 227.739 247.643 223.986 248.524C220.233 249.404 217.945 253.334 218.875 257.302Z" fill="#52B9F9"/>
<path d="M127.173 267.97L119.243 260.169L114.163 254.93L112.743 252.85L111.763 250.16L111.533 249.799L111.123 249.66L101.312 249.69L101.062 249.23L101.562 248.91L102.893 248.77L111.702 248.82L112.433 249.14L112.743 249.88L113.043 251.79L113.673 253.169L114.663 254.44L127.173 267.97Z" fill="#9A9DA5" fill-opacity="0.996"/>
<path d="M33.5234 251.898L33.9034 255.158L34.0434 260.778L33.5234 266.458V251.898Z" fill="#9A9DA5" fill-opacity="0.996"/>
<path d="M101.5 252.34L102.5 256.52L101.87 255.27L101.53 253.86L101.5 252.34Z" fill="#9A9DA5" fill-opacity="0.996"/>
<path d="M406.72 255.09L407.09 261.2L407.26 268.15L406.97 284.58L406.72 287.1L406.17 289.17L405.32 290.78L404.18 291.95L405.48 290.21L405.97 289L406.16 287.18L406.44 282.93L406.29 269.04L406.72 255.09Z" fill="#9A9DA5" fill-opacity="0.996"/>
<path d="M110.688 265.699L107.548 263.089L105.618 261.009L103.898 258.709L110.688 265.699Z" fill="#9A9DA5" fill-opacity="0.996"/>
<path d="M349.961 264.17L335.121 263.32L348.951 262.93L349.781 263.17L350.031 263.54L349.961 264.17Z" fill="#9A9DA5" fill-opacity="0.996"/>
<path d="M137.77 266.358L138.14 265.648L138.72 266.048L138.69 266.908L138.63 267.008L138.34 267.118L138.08 266.948L137.77 266.358Z" fill="#9A9DA5" fill-opacity="0.996"/>
<path d="M334.48 283.77L348.26 283.32L348.83 283.06L349.04 282.48V282.47L348.91 279.48L349.08 272.96L349.86 266.43L350.06 283.06V283.07L349.76 283.79L349.03 284.08L334.48 283.77Z" fill="#9A9DA5" fill-opacity="0.996"/>
<path d="M121.562 276.229L129.263 282.779L129.673 283.039L130.132 283.178L133.463 283.529L136.763 283.518L140.043 283.159L140.063 283.349L139.713 283.868L139.623 283.928L139.022 284.068L129.862 283.798L129.362 283.688L128.993 283.428L121.562 276.229Z" fill="#9A9DA5" fill-opacity="0.996"/>
<path d="M140.093 281.899L138.713 280.259L138.133 279.109L138.963 279.679L139.573 280.399L140.093 281.899Z" fill="#9A9DA5" fill-opacity="0.996"/>
<path d="M400.873 292.639L398.673 293.339L395.893 293.579L327.323 293.629H315.893L313.323 293.449L310.883 292.899L400.873 292.639Z" fill="#9A9DA5" fill-opacity="0.996"/>
<path d="M309.918 292.899L309.248 294.259L308.798 295.759L308.708 295.529L308.578 294.549L308.798 293.449L309.308 292.799L309.918 292.899Z" fill="#9A9DA5" fill-opacity="0.996"/>
<path d="M308.08 300.469L308.17 302.919L307.91 302.979L307.75 302.689V301.479L308.08 300.469Z" fill="#9A9DA5" fill-opacity="0.996"/>
<path d="M33.4991 301.398L34.3791 303.238L33.8391 303.218L33.4891 303.018L33.2891 302.408L33.4991 301.398Z" fill="#9A9DA5" fill-opacity="0.996"/>
<path d="M25.0103 302.548L24.9303 303.288L24.3903 303.498L17.4403 303.518L8.82031 303.078L13.3803 302.558L19.1803 302.318L25.0103 302.548Z" fill="#9A9DA5" fill-opacity="0.996"/>
<path d="M1.43982 303.85L0.969818 306.9L0.91983 309.93L1.24982 312.85L1.97983 315.75L3.08984 318.64L4.58984 321.5L7.29984 326.26L4.92984 322.94L3.02985 319.52L1.58984 316.01L0.639832 312.41L0.259827 309.95L0.0898438 307.45L0.16983 306.33L0.479828 305.3L1.43982 303.85Z" fill="#9A9DA5" fill-opacity="0.996"/>
<path d="M260.111 303.52L256.651 308.73L255.611 309.76L253.841 310.64L251.641 310.94L217.041 311.01L198.131 310.859L197.971 310.85L197.131 310.66L196.321 310.23L194.741 308.609L190.941 303.669L191.511 303.58L191.961 303.7L192.301 304.04L195.321 308.7L196.041 309.419L197.141 309.97L198.491 310.18L224.501 310.49L252.391 310.22L252.841 310.19L254.601 309.7L255.401 309.14L256.121 308.18L258.001 305.54L260.111 303.52Z" fill="#9A9DA5" fill-opacity="0.996"/>
<path d="M451.15 308.41L451.09 309.76L450.44 314.11L449.1 318.44L447.11 322.55L444.55 326.33L441.39 329.81L437.77 332.83L433.76 335.34L429.43 337.26L426.84 338.03L423.83 338.63L420.42 339.03L416.6 339.26L407.15 339.46L397.68 339.42L406.36 339.4L415.02 339.13L419.17 338.84L422.88 338.35L426.16 337.67L428.99 336.81L432.51 335.32L435.75 333.53L438.69 331.46L441.33 329.09L443.15 327.09L444.8 324.93L446.28 322.6L447.59 320.1L448.74 317.43L449.71 314.59L450.51 311.58L451.15 308.41Z" fill="#9A9DA5" fill-opacity="0.996"/>
<path d="M186.213 312.849L184.143 312.497L138.983 312.548L52.7329 312.529L12.3929 312.508L10.7029 312.678L10.0129 312.839L9.91281 312.648L9.88281 312.508L9.95282 312.178L10.2629 312.018L14.7029 311.729L94.8929 311.858L181.563 311.768L185.933 311.948L186.263 312.138L186.213 312.849Z" fill="#9A9DA5" fill-opacity="0.996"/>
<path d="M10.7617 314.94L12.5817 318.44L14.6917 321.49L17.1117 324.09L19.8417 326.24L23.0317 328.02L26.5717 329.29L30.4417 330.06L34.6417 330.33L105.512 330.45L189.312 330.32L197.392 330.43L207.642 330.55L401.642 330.3L413.312 330.29L420.242 330.01L422.862 329.66L424.922 329.19L425.792 328.91L428.482 327.82L431.062 326.41L433.542 324.71L435.922 322.69L437.532 320.96L438.702 319.35L439.692 317.59L440.512 315.69L441.152 313.64L441.172 313.54L440.962 312.83L440.292 312.52L420.522 312.42L400.772 312.6L282.642 312.57L266.632 312.63L265.832 312.77L264.992 313.16L263.222 314.72L264.142 313.23L265.332 312.26L266.312 311.9L267.412 311.79L309.142 311.81L415.422 311.94L428.362 311.79L441.292 311.6L441.682 311.67L442.282 312.2V312.81L441.332 315.65L439.562 318.89L437.412 321.73L435.052 324.19L432.492 326.28L429.742 327.98L426.832 329.28L423.722 330.21L420.422 330.78L416.922 330.97L335.952 331.14L260.912 331.07L119.392 331.3L39.8417 331.09L35.1917 330.96L31.2817 330.65L28.0917 330.16L25.6317 329.49L22.7117 328.22L20.2317 326.77L17.9117 325.03L15.7217 323.01L13.6917 320.7L11.7617 317.77L11.1417 316.34L10.7617 314.94Z" fill="#9A9DA5" fill-opacity="0.996"/>
<path d="M261.689 316.229L259.939 317.928L257.959 318.979L255.739 319.368L253.289 319.089L255.409 318.898L257.439 318.418L259.629 317.518L261.689 316.229Z" fill="#9A9DA5" fill-opacity="0.996"/>
<path d="M199.33 319.398L193.49 319.078L192.15 318.578L190.73 317.479L195.13 318.858L199.33 319.398Z" fill="#9A9DA5" fill-opacity="0.996"/>
<path d="M10.4379 329.479L9.81797 329.099L9.16797 328.459L8.66797 327.629L9.60797 328.139L10.0979 328.719L10.4379 329.479Z" fill="#9A9DA5" fill-opacity="0.996"/>
<path d="M56.3491 339.42L35.4991 339.49H32.8891L29.1091 339.25L25.4391 338.55L22.3291 337.55L19.3091 336.2L16.3791 334.48L13.5391 332.41L20.7991 336.32L23.2091 337.35L26.1091 338.13L29.4991 338.64L33.3891 338.89L56.3491 339.42Z" fill="#9A9DA5" fill-opacity="0.996"/>
</g>
<defs>
<clipPath id="clip0_777_26789">
<rect width="452" height="340" fill="white"/>
</clipPath>
</defs>
</svg>
