<svg width="655" height="655" viewBox="183.5 175 655 655" xmlns="http://www.w3.org/2000/svg">
  <path d="M193.38 416.96C193.89 417.39 195.34 418.89 196.42 419.56C197.51 420.24 165.28 420.8 199.9 421C234.51 421.2 367.42 420.94 404.13 420.76C440.83 420.59 416.84 420.33 420.11 419.93C423.37 419.52 423.12 418.61 423.72 418.35C424.18 417.86 425.89 416.57 426.45 415.44C427.02 414.31 426.94 413.56 427.1 411.58C427.25 409.6 427.22 429.6 427.37 403.57C427.53 377.54 428.01 292.78 428 255.41C427.99 218.04 427.44 192.02 427.32 179.35C426.86 178.91 426.31 177.36 424.53 176.73C422.75 176.1 419.28 175.81 416.63 175.57C413.98 175.32 422.64 175.33 408.62 175.27C394.61 175.21 353.23 175.07 332.54 175.21C311.85 175.35 293.82 175.69 284.5 176.1C275.18 176.51 279.88 176.84 276.65 177.65C273.41 178.47 269.49 179.4 265.11 180.99C260.73 182.58 253.99 185.54 250.36 187.21C246.73 188.88 245.62 189.67 243.33 191.04C241.04 192.41 238.78 193.85 236.63 195.42C234.48 196.99 232.43 198.72 230.43 200.48C228.43 202.24 227.36 203.07 224.62 205.99C221.88 208.9 216.54 214.88 213.98 217.95C211.41 221.02 210.71 222.17 209.23 224.4C207.76 226.62 206.41 228.93 205.16 231.28C203.9 233.63 202.98 235.43 201.68 238.5C200.38 241.57 198.46 246.56 197.36 249.7C196.25 252.85 195.69 254.78 195.05 257.37C194.41 259.95 193.9 261.24 193.51 265.22C193.13 269.19 192.93 271.87 192.76 281.21C192.59 290.55 192.55 299.23 192.51 321.25C192.47 343.28 192.35 397.41 192.5 413.36C192.65 429.31 193.24 416.36 193.38 416.96Z" fill="#6a3df0"/>
  <path d="M465.5 176.2C465.07 176.68 463.45 177.94 462.92 179.07C462.38 180.21 462.5 180.36 462.27 183.01C462.05 185.66 461.73 189.65 461.55 194.98C461.38 200.3 461.28 172.99 461.23 214.96C461.19 256.93 461.13 404.84 461.26 446.81C461.39 488.78 461.65 462.84 461.99 466.78C462.34 470.71 463.11 469.81 463.33 470.42C463.91 470.73 460.62 469.95 466.84 472.29C473.07 474.64 494.44 482.18 500.68 484.49C506.92 486.81 499.6 483.66 504.3 486.16C509.01 488.65 520.52 494.1 528.92 499.47C537.32 504.84 546.59 511.49 554.71 518.36C562.83 525.22 570.9 533.28 577.64 540.63C584.37 547.99 589.42 554.3 595.13 562.48C600.83 570.65 606.94 580.29 611.88 589.7C616.83 599.11 621.19 608.94 624.79 618.95C628.4 628.95 631.57 641.96 633.5 649.71C635.43 657.46 635.68 660.83 636.37 665.44C637.07 670.05 637.3 672.05 637.67 677.36C638.05 682.67 638.4 673.34 638.62 697.32C638.84 721.3 638.8 799.97 639 821.24C639.2 842.5 639.2 823.82 639.8 824.9C640.41 825.98 642.16 827.26 642.63 827.73C643.19 827.97 633.46 829.08 646.02 829.18C658.57 829.28 702.65 828.63 717.97 828.32C733.28 828.02 733.28 827.71 737.92 827.35C742.57 826.98 743.22 826.68 745.82 826.14C748.43 825.61 749.17 825.69 753.55 824.13C757.94 822.58 766.77 819.43 772.14 816.83C777.51 814.22 781.95 811.14 785.78 808.49C789.6 805.84 791.69 804.11 795.08 800.93C798.48 797.75 802.77 793.51 806.14 789.4C809.51 785.3 812.59 780.88 815.3 776.31C818.02 771.75 820.57 766.28 822.43 762.02C824.29 757.75 825.22 755.2 826.46 750.72C827.7 746.23 829.25 738.37 829.87 735.11C830.49 731.85 830.03 741.12 830.18 731.13C830.33 721.14 830.72 752.45 830.77 675.17C830.83 597.89 830.64 336.05 830.5 267.44C830.37 198.83 830.4 265.45 829.96 263.51C829.53 261.57 828.87 258.97 827.88 255.79C826.89 252.61 825.8 248.74 824 244.44C822.21 240.15 819.33 234.13 817.1 230.04C814.88 225.95 813.46 223.64 810.66 219.93C807.86 216.21 803.5 211.15 800.32 207.75C797.14 204.36 794.63 202.13 791.57 199.57C788.51 197.01 784.72 194.27 781.97 192.4C779.21 190.53 776.79 189.37 775.07 188.36C773.34 187.36 774.02 187.49 771.6 186.38C769.18 185.26 764.3 183.1 760.56 181.69C756.82 180.29 752.39 178.77 749.17 177.95C745.96 177.14 744.58 177.11 741.27 176.8C737.95 176.5 737.95 176.32 729.29 176.11C720.64 175.9 725.3 175.66 689.33 175.52C653.35 175.38 549.42 175.25 513.44 175.27C477.46 175.29 481.46 175.49 473.47 175.65C465.48 175.8 466.83 176.11 465.5 176.2Z" fill="#6a3df0"/>
  <path d="M194.15 458.91C193.96 460.23 193.3 461.48 192.99 466.79C192.68 472.1 192.36 446.12 192.28 490.77C192.2 535.42 192.36 693.39 192.5 734.7C192.63 776.01 192.25 735.41 193.1 738.62C193.94 741.83 196.11 749.55 197.58 753.97C199.05 758.39 200.61 762.09 201.92 765.15C203.24 768.21 204.18 769.98 205.47 772.32C206.75 774.65 207.73 776.41 209.63 779.14C211.53 781.87 214.77 786.11 216.87 788.69C218.98 791.28 219.88 792.28 222.23 794.63C224.59 796.98 228.51 800.6 231.02 802.79C233.52 804.99 235.1 806.23 237.25 807.81C239.39 809.39 241.03 810.55 243.89 812.26C246.75 813.97 251.41 816.56 254.39 818.05C257.36 819.54 258.6 820.08 261.73 821.21C264.86 822.34 269.96 823.92 273.16 824.82C276.37 825.72 277.68 826.06 280.96 826.61C284.24 827.16 279.54 827.74 292.85 828.12C306.17 828.49 308.18 828.78 360.83 828.85C413.48 828.91 566.87 828.77 608.76 828.5C650.65 828.24 611.6 827.48 612.17 827.28C612.5 826.71 613.69 826.42 614.14 823.86C614.59 821.29 614.76 824.55 614.88 811.89C614.99 799.24 614.87 760.58 614.82 747.91C614.76 735.25 614.74 738.56 614.56 735.92C614.38 733.28 613.88 732.71 613.74 732.07C613.14 731.82 611.4 730.91 610.14 730.57C608.88 730.22 610.84 730.23 606.18 730C601.53 729.77 623.53 729.38 582.21 729.21C540.89 729.04 396.17 729.23 358.27 729C320.36 728.77 355.35 728.02 354.77 727.82C354.3 727.35 352.57 726.07 351.94 725C351.31 723.93 351.19 760.66 351 721.4C350.81 682.15 350.97 532.12 350.8 489.47C350.62 446.82 350.17 470.15 349.95 465.49C349.73 460.84 349.75 462.82 349.47 461.53C349.2 460.25 348.48 458.41 348.29 457.79C347.72 457.49 346.8 456.35 344.91 455.97C343.02 455.58 344.92 455.63 336.93 455.47C328.94 455.3 312.27 455.03 296.95 454.97C281.62 454.9 260.95 454.91 244.96 455.08C228.97 455.25 208.98 455.79 200.99 456C192.99 456.2 198.14 455.81 197 456.3C195.86 456.79 194.63 458.48 194.15 458.91Z" fill="#6a3df0"/>
</svg>
