<svg xmlns="http://www.w3.org/2000/svg" width="276" height="263" viewBox="0 0 276 263"><desc>Chan Meng&apos;s monkey logo mark, blinking occasionally.</desc><style>.cv-blink-1 {
      animation: kf-cv-blink-1 5s ease-in-out infinite;
      transform-box: fill-box;
      transform-origin: center;
    }
    @keyframes kf-cv-blink-1 {
      0%, 92%, 100% { transform: scaleY(1); }
      96% { transform: scaleY(0.1); }
    }
    @media (prefers-reduced-motion: reduce) {
      * { animation: none !important; }
    }</style><path fill="#070607" fill-rule="evenodd" d="M58.26 196.44c-.43-1.49-1.12-3.01-2.03-4.26-.91-1.26-2.11-2.49-3.41-3.26-1.3-.76-2.83-1.1-4.38-1.32-1.54-.23-3.25.03-4.89-.01-1.64-.05-3.31-.07-4.96-.25s-3.31-.49-4.93-.83c-1.63-.35-3.26-.74-4.84-1.24-1.59-.5-3.16-1.09-4.67-1.78s-2.98-1.49-4.39-2.37-2.77-1.86-4.07-2.9c-1.3-1.03-2.54-2.16-3.71-3.33-1.18-1.18-2.3-2.43-3.33-3.73s-1.99-2.67-2.85-4.09-1.64-2.91-2.3-4.43c-.67-1.52-1.23-3.1-1.69-4.69s-.82-3.23-1.08-4.87-.42-3.31-.49-4.96c-.06-1.66-.04-3.34.1-4.99s.38-3.31.73-4.93c.35-1.61.82-3.22 1.39-4.78.57-1.55 1.26-3.08 2.03-4.55.78-1.46 1.66-2.89 2.61-4.25s2-2.67 3.1-3.91c1.1-1.25 2.28-2.44 3.52-3.55 1.23-1.11 2.54-2.16 3.89-3.11 1.36-.96 2.79-1.84 4.25-2.62a41 41 0 0 1 4.53-2.1c1.54-.61 3.13-1.14 4.74-1.57 1.6-.44 3.24-.78 4.88-1.03s3.31-.4 4.97-.47c1.66-.08 3.43.15 5 .02 1.57-.12 3.13-.15 4.41-.78 1.28-.62 2.26-1.78 3.25-2.97.98-1.19 1.77-2.79 2.68-4.18.92-1.38 1.85-2.78 2.83-4.14.97-1.35 1.98-2.69 3.02-3.99s2.12-2.58 3.23-3.83c1.11-1.24 2.25-2.46 3.43-3.64 1.18-1.19 2.39-2.34 3.63-3.46a99 99 0 0 1 3.81-3.24 97 97 0 0 1 4-3.02 89 89 0 0 1 8.47-5.34q2.19-1.215 4.44-2.31c1.5-.73 3.02-1.42 4.56-2.08 1.53-.65 3.09-1.26 4.66-1.84 1.56-.58 3.2-1.05 4.74-1.62 1.54-.56 3.24-.98 4.5-1.76 1.26-.79 2.36-1.71 3.05-2.93.68-1.23.81-2.85 1.04-4.42.24-1.57.21-3.33.38-4.99s.39-3.32.67-4.97a68.5 68.5 0 0 1 2.32-9.73c.51-1.58 1.08-3.15 1.72-4.69.63-1.54 1.34-3.05 2.11-4.53.77-1.47 1.61-2.92 2.52-4.31a45 45 0 0 1 2.95-4.02c1.06-1.28 2.2-2.51 3.41-3.64a39 39 0 0 1 3.87-3.15c1.35-.95 2.79-1.82 4.26-2.59 1.47-.76 3-1.45 4.56-2.01 1.56-.55 3.18-1.06 4.79-1.34 1.61-.27 3.32-.47 4.88-.29 1.57.19 3.21.63 4.49 1.42 1.28.78 2.46 2 3.17 3.3s1.09 2.97 1.11 4.49c.02 1.53-.37 3.23-.99 4.66-.61 1.43-1.61 2.78-2.71 3.93s-2.54 2.02-3.89 2.97c-1.34.94-2.85 1.72-4.18 2.71-1.32 1-2.61 2.06-3.77 3.23a31.5 31.5 0 0 0-3.16 3.84c-.94 1.35-1.81 2.86-2.5 4.29-.69 1.44-1.39 3.27-1.64 4.32-.25 1.06-.28 2 .12 2 .4.01 1.35-1.04 2.3-1.97.95-.94 2.22-2.49 3.42-3.65 1.2-1.15 2.45-2.26 3.77-3.27 1.31-1.02 2.68-1.98 4.11-2.82s2.92-1.6 4.46-2.22c1.53-.61 3.13-1.13 4.74-1.47s3.29-.57 4.92-.58c1.64-.02 3.32.13 4.9.5s3.22.93 4.58 1.73 2.71 1.86 3.57 3.08c.86 1.23 1.48 2.82 1.59 4.28.12 1.46-.23 3.16-.9 4.47-.66 1.32-1.86 2.49-3.1 3.44s-2.87 1.54-4.35 2.26c-1.47.72-3.08 1.28-4.53 2.08-1.44.8-2.88 1.71-4.14 2.72-1.26 1-2.7 2.28-3.41 3.33s-1.21 2.17-.84 2.98c.36.81 1.74 1.33 3.04 1.88 1.31.55 3.21.92 4.8 1.44s3.16 1.07 4.72 1.66 3.11 1.22 4.64 1.89c1.53.66 3.05 1.37 4.54 2.12q2.235 1.125 4.41 2.37c1.45.83 2.88 1.7 4.28 2.6 1.4.91 2.78 1.85 4.13 2.84 1.35.98 2.67 2 3.96 3.05 1.3 1.05 2.57 2.14 3.8 3.26 1.24 1.13 2.45 2.28 3.63 3.46 1.17 1.18 2.32 2.4 3.44 3.64a91 91 0 0 1 3.26 3.8c1.06 1.29 2.09 2.6 3.08 3.95.99 1.34 1.9 2.77 2.84 4.12s1.75 2.87 2.8 3.97c1.05 1.11 2.17 2.1 3.52 2.68 1.35.59 2.97.68 4.57.85 1.59.17 3.33.06 4.99.18s3.33.27 4.97.55c1.64.27 3.27.63 4.87 1.09 1.59.47 3.17 1.03 4.69 1.69 1.53.65 3.02 1.41 4.46 2.25 1.43.83 2.83 1.75 4.17 2.73 1.33.99 2.62 2.06 3.85 3.18 1.23 1.11 2.41 2.3 3.52 3.54 1.1 1.24 2.15 2.54 3.09 3.91.93 1.37 1.78 2.81 2.52 4.29.74 1.49 1.39 3.03 1.92 4.6.54 1.57.97 3.19 1.29 4.81.31 1.63.5 3.3.61 4.95.11 1.66.11 3.34.02 5-.09 1.65-.27 3.32-.55 4.95a40 40 0 0 1-1.15 4.85 39 39 0 0 1-1.76 4.67c-.69 1.5-1.48 2.98-2.36 4.39-.88 1.4-1.86 2.76-2.9 4.05a41 41 0 0 1-3.38 3.68 42 42 0 0 1-3.79 3.23c-1.33 1-2.72 1.93-4.15 2.78a47 47 0 0 1-4.44 2.3c-1.51.67-3.08 1.26-4.67 1.73-1.59.48-3.22.84-4.86 1.12-1.64.27-3.3.43-4.96.53-1.67.1-3.36.02-5 .05-1.65.03-3.34-.15-4.85.13-1.51.27-2.96.71-4.19 1.53-1.23.83-2.32 2.11-3.19 3.41-.87 1.31-1.54 2.88-2 4.42s-.59 3.2-.78 4.83c-.19 1.64-.18 3.34-.37 5-.18 1.65-.39 3.31-.73 4.94-.33 1.62-.75 3.24-1.27 4.82a43 43 0 0 1-1.84 4.64c-.71 1.5-1.52 2.96-2.38 4.39-.87 1.42-1.82 2.79-2.8 4.15-.97 1.35-1.98 2.68-3.04 3.97a62 62 0 0 1-3.31 3.75 56 56 0 0 1-3.61 3.46c-1.24 1.11-2.55 2.16-3.87 3.18s-2.67 2-4.04 2.95c-1.38.94-2.78 1.86-4.2 2.73-1.42.88-2.86 1.72-4.33 2.52-1.46.8-2.95 1.56-4.46 2.27-1.51.72-3.04 1.39-4.58 2.02a88 88 0 0 1-4.69 1.75c-1.58.53-3.18 1.01-4.79 1.45-1.61.43-3.24.81-4.87 1.15-1.64.35-3.28.65-4.93.91s-3.3.48-4.96.66c-1.66.17-3.33.31-5 .4-1.66.09-3.33.15-5 .15-1.67.01-3.34-.03-5.01-.11a84 84 0 0 1-4.99-.39c-1.66-.17-3.31-.39-4.96-.67-1.65-.27-3.29-.58-4.92-.95a93 93 0 0 1-4.85-1.24c-1.6-.46-3.19-.97-4.76-1.53a85 85 0 0 1-4.68-1.79q-2.31-.975-4.56-2.07c-1.5-.72-2.98-1.5-4.44-2.31s-2.9-1.66-4.31-2.55c-1.42-.88-2.8-1.81-4.17-2.78-1.36-.96-2.7-1.96-4.01-2.99a79 79 0 0 1-3.83-3.23 69 69 0 0 1-3.59-3.48c-1.16-1.2-2.27-2.45-3.34-3.73s-2.1-2.6-3.07-3.96c-.98-1.35-1.92-2.73-2.79-4.15-.86-1.43-1.68-2.89-2.39-4.39s-1.34-3.05-1.86-4.62c-.53-1.57-.97-3.19-1.32-4.81-.34-1.63-.59-3.29-.76-4.93-.16-1.65-.1-3.34-.23-4.95-.14-1.61-.15-3.21-.59-4.71m79.22-59.15c-1.01-.1-1.98-1.19-3.03-2.19-1.04-1-2.09-2.61-3.24-3.8-1.15-1.2-2.37-2.35-3.67-3.38a32 32 0 0 0-4.11-2.8c-1.44-.82-2.96-1.53-4.51-2.11s-3.17-1.02-4.79-1.35c-1.62-.32-3.29-.51-4.94-.6a36 36 0 0 0-4.99.1c-1.65.14-3.31.39-4.93.77-1.61.37-3.22.85-4.75 1.46a32 32 0 0 0-4.46 2.21c-1.42.85-2.78 1.84-4.06 2.89a37 37 0 0 0-3.62 3.43 35.4 35.4 0 0 0-3.12 3.89c-.93 1.36-1.77 2.81-2.48 4.31-.7 1.49-1.29 3.06-1.74 4.65s-.78 3.24-.94 4.88c-.17 1.64-.18 3.31-.05 4.96.12 1.64.41 3.3.8 4.9.4 1.61.94 3.2 1.58 4.72.63 1.53 1.4 3.03 2.25 4.45.86 1.41 1.83 2.78 2.9 4.05 1.06 1.26 2.25 2.43 3.49 3.54 1.24 1.1 2.84 2.05 3.94 3.08 1.1 1.02 2.32 1.98 2.64 3.07.31 1.08-.14 2.24-.76 3.44-.61 1.19-1.99 2.42-2.93 3.73s-1.98 2.67-2.72 4.12c-.74 1.46-1.33 3.04-1.71 4.63-.37 1.58-.56 3.26-.55 4.89.01 1.64.23 3.31.59 4.91.37 1.6.92 3.2 1.59 4.7s1.52 2.95 2.45 4.32c.93 1.36 2.01 2.65 3.13 3.87 1.13 1.21 2.36 2.35 3.62 3.44s2.58 2.11 3.94 3.08c1.35.97 2.75 1.89 4.18 2.73 1.44.85 2.92 1.62 4.43 2.32 1.51.71 3.07 1.33 4.63 1.9 1.57.58 3.16 1.09 4.76 1.55 1.6.47 3.23.87 4.86 1.23 1.63.35 3.27.66 4.92.91s3.31.44 4.97.58c1.67.15 3.34.23 5.01.26 1.66.04 3.34.02 5-.04 1.67-.06 3.34-.17 5-.33 1.66-.17 3.32-.38 4.97-.65s3.29-.59 4.91-.96c1.63-.36 3.25-.78 4.85-1.25 1.6-.48 3.19-1 4.74-1.61 1.55-.6 3.09-1.27 4.58-2.01s2.95-1.56 4.36-2.44c1.42-.88 2.79-1.84 4.12-2.85 1.33-1 2.62-2.07 3.85-3.19 1.22-1.13 2.42-2.3 3.52-3.55 1.09-1.25 2.16-2.55 3.04-3.94.89-1.38 1.69-2.86 2.26-4.39s.97-3.16 1.18-4.78c.21-1.63.23-3.32.09-4.96-.15-1.63-.45-3.3-.94-4.86s-1.18-3.08-2.01-4.49c-.83-1.42-2.05-2.72-2.96-3.99-.9-1.26-2.11-2.46-2.47-3.61-.36-1.16-.26-2.25.3-3.32.57-1.06 1.96-2.01 3.12-3.06 1.15-1.05 2.61-2.07 3.81-3.22s2.35-2.37 3.38-3.67c1.03-1.29 1.98-2.68 2.79-4.11.81-1.44 1.51-2.97 2.09-4.52.57-1.55 1.03-3.16 1.36-4.78s.54-3.29.61-4.94c.06-1.64-.01-3.32-.23-4.96-.21-1.63-.58-3.27-1.06-4.85-.49-1.58-1.12-3.14-1.85-4.63a31.9 31.9 0 0 0-5.68-8.14c-1.14-1.19-2.4-2.29-3.73-3.29-1.32-.99-2.73-1.9-4.19-2.68s-3-1.45-4.56-2.01c-1.56-.55-3.18-.99-4.8-1.31-1.63-.32-3.29-.52-4.95-.61-1.65-.08-3.33-.04-4.98.11-1.65.16-3.31.41-4.92.8s-3.21.9-4.73 1.53a32 32 0 0 0-4.42 2.29c-1.41.86-2.77 1.85-4.05 2.91-1.28 1.05-2.48 2.24-3.63 3.41s-2.21 2.75-3.27 3.62-2.06 1.69-3.08 1.59m100.05-8.47c-1.09-.16-2.33-.3-3.16-.05-.82.24-1.49.79-1.8 1.54-.31.76-.13 1.91-.04 2.99.08 1.08.39 2.31.54 3.48.15 1.16.26 2.33.34 3.5q.12 1.755.15 3.51c.03 1.18.02 2.35 0 3.52-.02 1.18-.07 2.35-.13 3.52-.07 1.17-.16 2.34-.28 3.51-.13 1.17-.31 2.33-.46 3.49-.15 1.15-.47 2.42-.43 3.44s.13 2.05.67 2.68c.55.63 1.57.94 2.57 1.09s2.32 0 3.45-.18c1.14-.18 2.28-.51 3.35-.92 1.08-.42 2.13-.96 3.1-1.58s1.89-1.37 2.73-2.16c.84-.8 1.61-1.69 2.31-2.62s1.34-1.92 1.88-2.95c.53-1.03 1.01-2.11 1.34-3.22.33-1.1.56-2.25.64-3.4.08-1.14.01-2.32-.16-3.46s-.48-2.29-.87-3.37c-.4-1.09-.9-2.16-1.5-3.15s-1.3-1.93-2.08-2.78-1.67-1.62-2.6-2.31-1.94-1.3-2.97-1.84c-1.03-.53-2.11-.99-3.21-1.37s-2.29-.75-3.38-.91m-194.9 2.42c-.26-.86-.78-1.58-1.54-1.96s-1.94-.4-3.01-.34c-1.06.05-2.29.35-3.39.69-1.11.33-2.19.78-3.21 1.31s-2.02 1.16-2.93 1.86c-.92.7-1.79 1.49-2.56 2.34-.77.86-1.47 1.8-2.05 2.79s-1.07 2.06-1.44 3.15a16.8 16.8 0 0 0-.77 3.37 17.4 17.4 0 0 0-.08 3.46c.09 1.14.3 2.3.61 3.4.31 1.11.74 2.21 1.25 3.24s1.12 2.03 1.81 2.96c.69.92 1.47 1.8 2.31 2.58.85.78 1.78 1.49 2.76 2.11.97.62 2.02 1.15 3.08 1.61s2.18.86 3.29 1.15c1.1.3 2.39.65 3.36.64.97-.02 1.95-.18 2.47-.74.51-.55.58-1.59.6-2.6.03-1.01-.3-2.3-.45-3.45-.16-1.15-.35-2.31-.48-3.47s-.25-2.32-.33-3.48c-.08-1.17-.13-2.33-.15-3.5-.03-1.17-.02-2.34.01-3.5a101 101 0 0 1 .42-6.99c.12-1.16.36-2.37.43-3.48.07-1.1.25-2.3-.01-3.15"/><g class="cv-blink-1"><circle cx="104.6" cy="152.59" r="16.55" fill="#070607"/><circle cx="170.76" cy="152.56" r="16.56" fill="#070607"/></g><path fill="#070607" d="M124.53 190.04c.8-.03 1.62-.16 2.39-.38s1.54-.54 2.23-.95c.69-.4 1.35-.91 1.9-1.48a8.1 8.1 0 0 0 1.39-1.96c.35-.71.61-1.5.71-2.28s.08-1.61-.08-2.38a7.5 7.5 0 0 0-.87-2.23c-.39-.68-.93-1.32-1.52-1.85s-1.28-.99-2-1.35c-.71-.35-1.51-.62-2.29-.79-.79-.17-1.61-.24-2.42-.21-.8.03-1.62.16-2.39.38s-1.54.54-2.23.95c-.69.4-1.36.91-1.9 1.48a8.1 8.1 0 0 0-1.39 1.96c-.35.7-.61 1.5-.71 2.28-.11.78-.08 1.61.08 2.38s.47 1.54.87 2.22c.39.68.93 1.32 1.52 1.86.59.53 1.28.99 2 1.35.71.35 1.51.62 2.29.79s1.61.24 2.42.21m27.39-.12c.78-.13 1.57-.37 2.3-.69.72-.33 1.43-.75 2.05-1.25s1.19-1.1 1.64-1.74.83-1.38 1.08-2.13c.24-.74.37-1.56.37-2.34s-.14-1.6-.38-2.34c-.25-.74-.64-1.47-1.11-2.1a8.2 8.2 0 0 0-1.69-1.68c-.64-.46-1.37-.84-2.11-1.12a10 10 0 0 0-2.35-.53c-.79-.07-1.61-.04-2.4.08-.78.13-1.57.37-2.3.69-.72.33-1.43.75-2.05 1.25-.61.5-1.19 1.09-1.64 1.74-.45.64-.83 1.38-1.08 2.13-.24.74-.37 1.56-.37 2.34s.14 1.6.38 2.34c.25.74.64 1.47 1.11 2.1.46.63 1.06 1.21 1.69 1.67.64.47 1.37.85 2.11 1.13a10 10 0 0 0 2.35.53c.79.07 1.61.04 2.4-.08m-44.54 17.85c.15-.91.73-1.87 1.46-2.32s1.9-.47 2.95-.38c1.04.1 2.22.6 3.34.95 1.11.35 2.22.79 3.34 1.14 1.12.36 2.25.7 3.39 1 1.14.29 2.29.57 3.44.79 1.16.22 2.32.39 3.49.53s2.35.23 3.52.31c1.18.07 2.35.12 3.53.14 1.18.03 2.36.02 3.53-.01 1.18-.03 2.36-.09 3.53-.17 1.18-.09 2.35-.2 3.52-.33 1.17-.14 2.33-.31 3.5-.5 1.16-.2 2.32-.42 3.47-.67s2.29-.54 3.43-.84 2.26-.68 3.4-.97c1.13-.29 2.34-.71 3.41-.77s2.25-.02 2.99.43c.75.45 1.32 1.37 1.46 2.26s-.17 2.1-.63 3.06c-.45.96-1.29 1.88-2.1 2.69s-1.79 1.5-2.75 2.18c-.96.67-1.97 1.28-3 1.85-1.02.57-2.08 1.1-3.15 1.58a44 44 0 0 1-6.65 2.33c-1.14.29-2.29.54-3.45.72s-2.34.28-3.51.36-2.35.11-3.53.12c-1.18 0-2.36-.02-3.53-.08-1.18-.06-2.35-.15-3.52-.27-1.17-.13-2.34-.28-3.5-.48a45 45 0 0 1-6.84-1.71c-1.11-.38-2.22-.79-3.3-1.25-1.08-.47-2.15-.97-3.17-1.54s-2.03-1.18-2.96-1.89c-.93-.7-1.85-1.46-2.6-2.32-.76-.86-1.53-1.83-1.95-2.82-.41-.99-.71-2.21-.56-3.12"/></svg>