<svg width="332" height="572" viewBox="0 0 332 572" fill="none" xmlns="http://www.w3.org/2000/svg">
<g clip-path="url(#clip0_777_29421)">
<rect width="332" height="572" fill="white"/>
<path d="M211.791 0.269531L113.551 55.1795L116.371 53.2395L120.201 51.0695L207.541 1.93953L209.861 0.819534L211.791 0.269531Z" fill="#228676"/>
<path d="M213.58 0.25L217.28 3.23001L220.92 6.27L223.72 9.59001L225.97 13.2L227.19 15.85L228.16 18.63L228.87 21.55L229.32 24.6L229.33 27.45L229.02 32.66L229.07 33.17L229.25 33.58L230.17 34.6L231.05 35.13L232.08 35.45L232.72 35.82L233.72 36.92L260.14 55.63L260.77 55.95L261.46 56.08L262.16 56.01L262.82 55.74L266.36 53.79L269.75 52.21L272.92 51.05L275.96 50.26L278.84 49.85L281.52 49.82L284.16 50.18L286.57 50.9L288.75 51.94L294.41 55.39L315.05 69.49L315.71 70.07L316.11 70.86L316.24 71.85L316.22 316.89L316.01 318.49L315.34 319.65L314.75 320.11L300.32 328.36L278.29 341.07L274.63 343.27L261.64 350.77L250.1 357.33L239.67 363.55L216.07 377.08L214.09 378.38L212.06 379.6L208.89 381.22L192.81 390.41L188.17 392.85L183.59 394.96L179.07 396.72L174.6 398.14L167.98 400.01L164.55 400.9L161.23 401.51L155.57 402.47L149.87 403.08L147.53 403.27L141.92 404.2L138.67 404.28L130.19 404.37L128.04 404.44L125.93 404.26L124.45 403.97L115.51 403.2L106.67 402.02L97.9402 400.43L89.3202 398.43L81.4202 396.21L73.6102 393.64L65.8902 390.72L58.2602 387.44L58.0002 387.61L31.2102 372.61L30.8502 372.48L30.5102 372.14L30.2902 371.7L29.7902 371.62L29.1202 370.9L28.3401 370.4L27.4402 370.12L27.2702 369.97L20.7102 365.38L15.3401 361.38L15.2402 360.91L14.5702 360.81L13.7602 351.84L13.7402 344.29L14.2202 328.81L14.0901 313.35L13.7002 303.87L13.7602 288.02L13.6602 265.08L14.0502 251.88L14.0901 238.69L13.6602 223L14.1802 214.85L14.1902 177.6L13.8302 168.82L13.7802 167.29L13.9802 166.6L14.2402 145.23L13.7802 123.93L14.1802 111.58L14.9002 110.84L15.3002 110.74L18.1602 109.47L105.97 59.91L109.81 57.64L113.55 55.18L211.79 0.270004L212.09 0.0800018L212.76 0L213.58 0.25ZM114.5 74.09L113.78 74.48L80.5202 93.22L79.5901 93.58L79.2302 94.02V94.12L78.8002 94.36L61.2502 103.67L51.2202 109.34L35.0102 118.88L35.0002 118.89L34.7002 119.28L34.7802 119.77L34.9602 119.96L35.5302 120.06L38.4402 122.34L42.5702 125.63L46.9102 128.59L51.7102 131.35L56.7402 133.74L69.6602 140.22L78.6802 143.96L88.1502 147.08L98.0802 149.55L108.46 151.4L115.2 152.24L121.89 152.78L128.51 153.05L135.08 153.03L141.59 152.72L148.03 152.13L154.42 151.25L160.75 150.08L165.6 148.99L172.3 147.08L174.89 146.1L176.98 145.1L211.47 125.79L295.87 78.19L296.31 77.56L296.09 76.82L295.94 76.69L281.55 66.86L280.75 66.44L279.95 66.28L279.11 66.38L278.26 66.74L267.44 72.99L266.81 73.35L266.69 73.33L242.24 86.94L242.2 87.12L241.81 87.34L239.93 88.04L238.16 88.94L236.52 90.02L235 91.3L234.74 91.39L221.2 99.06L220.83 99.43L220.23 99.36L219.74 99.49L219.68 99.52L206.65 107.02L194.15 113.9L193.19 114.27L192.18 114.4H161.29L160.88 114.1L160.7 113.53L167.03 110.02L168.86 109.35L170.65 108.4L172.33 107.17L172.48 106.91L172.75 106.93L175.43 105.76L240.55 69.15L241.99 68.17L242.78 67.2L244.69 66.33L245.07 65.84L245.06 65.75L244.55 65.08L232.25 56.41L232.17 56.38L232.07 56.43L231.99 56.51L231.49 56.24L231.57 56.11L230.71 55.25L229.75 54.58L228.51 54.06L227.65 53.11L226.73 52.7L226.44 52.69L226.16 52.65L225.52 52.19L224.76 51.22L223.92 50.8L222.97 50.93L217.92 53.46L212.27 57.02L212.01 57.29L211.69 57.31L187.45 70.98L187.21 71.28L186.71 71.36L175.19 78.05L161.19 86.05L161.09 86.22L160.8 86.28L153.78 90.36L138.71 98.84L138.2 99.31L137.72 99.36L130.74 103.25L122.62 107.63L114.58 112.19L112.8 113.09L110.96 113.77L109.17 114.18L107.55 114.29L92.9802 114.23L89.5502 114.33L83.8502 114.48L79.9702 114.34L79.4402 114.11L79.2902 113.63L79.6402 113.48L79.6902 113.51L81.0802 112.92L82.3002 112.12L83.3302 111.14L83.8302 110.64L84.2002 110.66L88.6102 108.46L109.43 96.65L124.52 87.87L166.86 63.84L184.26 53.95L200.15 44.84L210.14 39.33L210.96 38.8L211.49 38.2L211.85 37.37L212.03 36.1L212.19 32.19L212.13 28.47L211.86 24.92L211.37 21.55L210.28 20.59L209.6 20.43L209.52 20.49L208.77 20.47L208.64 20.53L152.55 52.24L117.04 72.15L115.62 73.09L114.5 74.09ZM187.53 158.15L187.36 158.45V374.37L187.46 374.61L187.87 374.67L299.83 310.03L300 309.73V94.65L299.91 94.41L299.49 94.35L187.53 158.15ZM30.6502 138.33L30.8102 140.84L30.7602 144.3L30.7102 146.67L31.0202 148.48L31.7402 149.63L33.0502 150.86L40.1702 156.4L47.7802 161.57L55.6902 166.25L64.0502 170.53L72.7002 174.32L81.7402 177.67L91.0002 180.51L100.39 182.81L100.77 182.76L100.9 182.4V168.13L100.78 167.73L100.41 167.53L92.3401 165.72L84.5602 163.64L76.9402 161.27L69.6302 158.64L62.5502 155.73L55.7902 152.58L49.1802 149.11L42.9202 145.41L31.1702 137.3L30.8401 137.2L30.6702 137.51L30.6502 138.33ZM116.75 184.97L116.9 185.37L117.27 185.56L122.96 186.04L128.59 186.29L134.17 186.32L139.7 186.13L145.17 185.72L150.59 185.08L155.96 184.22L161.27 183.13L166.16 181.85L170.87 180.25L171.23 179.98L171.36 179.53V164.38L171.04 164.1L171 164.11L166.13 165.51L161.22 166.71L155.56 167.83L149.84 168.7L144.06 169.32L138.23 169.67L126.96 169.83L117.27 169.38H117.25L116.9 169.52L116.75 169.87V184.97ZM30.7002 187.14L30.7502 187.63L31.1102 188.43L31.8202 189.14L37.9202 193.57L44.1702 197.7L50.5802 201.52L57.1502 205.02L67.4002 209.75L78.0102 213.78L88.9802 217.09L100.31 219.69L100.37 219.7L100.8 219.56L100.98 219.14V200.12L100.87 199.76L100.54 199.58L89.0002 196.97L77.6902 193.63L66.7402 189.59L56.0202 184.82L50.7502 182.1L45.0802 178.85L38.7602 174.92L31.1802 169.94L30.7302 169.82L30.6002 170.26L30.7002 187.14ZM171.28 197.82L161.88 199.95L152.41 201.48L143.71 202.34L134.95 202.7L126.13 202.56L117.24 201.92L116.83 202.01L116.69 202.41V221.31L116.85 221.82L117.33 222.03L127.69 222.78L137.93 222.83L148.05 222.18L158.05 220.82L164.53 219.56L170.95 217.99L171.27 217.78L171.4 217.41V197.91V197.9L171.28 197.82ZM75.8502 310.38L75.6802 310.75L75.2802 310.84L75.1902 310.81L66.4202 306.5L57.9802 301.64L52.9902 298.41L52.6702 298.06L52.5602 297.61V221.77L52.3602 221.04L51.8102 220.53L41.2802 214.63L31.0102 208L30.9502 207.97L30.6502 208.19V307.36L30.8602 308.34L31.4502 309.15L36.5502 313.42L41.9502 317.43L47.1802 320.93L52.5502 324.22L58.0702 327.31L63.7402 330.2L69.5602 332.88L75.5302 335.36L81.6402 337.64L87.9002 339.71L94.8902 341.73L100.42 342.96L100.78 342.9L100.9 342.55V237.16L100.78 236.77L100.44 236.59L88.2102 233.83L82.2502 232.17L76.3902 230.34L76.0502 230.38L75.8602 230.66L75.8502 230.72V310.38ZM117.17 238.54L116.9 238.63L116.77 238.88V238.9V345.52L116.92 345.92L117.31 346.11L126.28 346.77L135.15 346.86L143.94 346.38L152.64 345.32L161.65 343.6L170.57 341.24L171.16 340.82L171.39 340.14V235.28L171.23 234.92L170.86 234.81L170.8 234.82L162.68 236.66L154.49 238.04L145.28 239.03L135.99 239.44L126.62 239.28L117.17 238.54ZM31.0402 329.35L30.7402 329.25L30.6402 329.57L30.6302 347.68L30.5202 349.09L30.6002 350.32L31.0502 351.18L31.1002 351.23L34.9102 354.43L40.8002 358.56L49.2602 363.83L57.9102 368.59L66.7602 372.83L75.8102 376.54L81.7502 378.67L87.7802 380.57L93.8802 382.27L100.07 383.74L100.58 383.64L100.85 383.19V383.12V360.55L100.73 360.18L100.39 360L91.3202 358L81.5102 355.09L72.9302 352.03L64.5702 348.59L56.4302 344.76L48.5002 340.55L39.6302 335.21L31.0402 329.35ZM171.09 358.03L165.51 359.54L159.91 360.81L154.27 361.82L148.61 362.59L141.57 363.2L134.48 363.42L126.99 363.24L117.38 362.65L116.97 362.76L116.83 363.17V386.31L116.97 386.69L117.33 386.87L127.92 387.53L138.04 387.57L146.11 387.08L154.22 386.03L162.35 384.43L170.51 382.28L171.07 381.89L171.29 381.23V358.18L171.11 358.02L171.09 358.03Z" fill="black"/>
<path d="M232.078 35.45L231.048 35.13L230.168 34.6L229.248 33.58L229.068 33.17L229.018 32.66L229.328 27.45L229.318 24.6L228.868 21.55L228.158 18.63L227.188 15.85L225.968 13.2L223.718 9.59001L220.918 6.27L217.278 3.23001L213.578 0.25L216.038 1.67001L218.308 3.25L220.398 5L222.308 6.92001L223.958 8.90001L225.448 11.03L226.768 13.32L227.928 15.76L228.678 17.92L229.238 20.48L229.448 21.7L229.988 25.08L230.188 27.64L230.078 29.9L229.648 31.98L229.628 32.44L229.848 32.88L232.078 35.45Z" fill="#228676"/>
<path d="M209.52 20.4888L114.5 74.0887L115.62 73.0887L117.04 72.1487L152.55 52.2388L208.64 20.5287L208.77 20.4688L209.52 20.4888Z" fill="#228676"/>
<path d="M84.1992 110.659L209.909 38.6388L210.839 37.7588L211.149 36.5388L211.369 21.5488L211.859 24.9188L212.129 28.4688L212.189 32.1888L212.029 36.0988L211.849 37.3688L211.489 38.1988L210.959 38.7988L210.139 39.3288L200.149 44.8388L184.259 53.9488L166.859 63.8388L124.519 87.8688L109.429 96.6488L88.6092 108.459L84.1992 110.659Z" fill="#228676"/>
<path d="M315.053 69.4899L294.413 55.3899L288.753 51.9399L286.573 50.8999L284.163 50.1799L281.523 49.8199L278.843 49.8499L275.963 50.2599L272.923 51.0499L269.753 52.2099L266.363 53.7899L262.823 55.7399L262.163 56.0099L261.463 56.0799L260.773 55.9499L260.143 55.6299L233.723 36.9199L241.183 41.7399L250.263 47.8499L259.203 54.1699L260.343 54.7899L261.493 55.0199L262.533 54.8799L263.593 54.4199L268.153 52.0499L272.583 50.3699L276.883 49.3699L281.063 49.0599L283.433 49.2999L285.913 49.9699L288.503 51.0799L291.203 52.6199L303.303 60.7399L315.053 69.4899Z" fill="#228676"/>
<path d="M225.52 52.1888L223.56 51.4288L223.13 51.4188L222.64 51.5688L212.27 57.0188L217.92 53.4588L222.97 50.9288L223.92 50.7988L224.76 51.2188L225.52 52.1888Z" fill="#228676"/>
<path d="M228.508 54.0594L227.458 53.5795L226.438 52.6895L226.728 52.6995L227.648 53.1095L228.508 54.0594Z" fill="#228676"/>
<path d="M231.572 56.1105L230.232 55.4705L229.082 54.6305L228.512 54.0605L229.752 54.5805L230.712 55.2505L231.572 56.1105Z" fill="#228676"/>
<path d="M113.551 55.1797L109.811 57.6397L105.971 59.9097L18.1608 109.47L15.3008 110.74L18.9608 108.27L107.741 58.0997L111.161 56.2597L113.551 55.1797Z" fill="#228676"/>
<path d="M244.548 65.0809L231.988 56.5109L232.068 56.4309L232.168 56.3809L232.248 56.4109L244.548 65.0809Z" fill="#228676"/>
<path d="M69.6602 140.219L79.3202 143.699L88.8502 146.619L98.2302 148.969L107.48 150.759L113.53 151.499L120.65 151.919L133.84 152.159L139.62 152.049L145.7 151.619L152.07 150.869L158.74 149.799L162.66 148.999L166.5 147.999L170.26 146.819L173.95 145.449L176.63 144.319L181.93 141.559L192.96 135.439L251.07 102.719L261.98 96.5493L294.52 78.3793L295.17 77.9093L295.4 77.4193L295.21 76.9093L294.6 76.3893L283.03 68.6393L281.41 67.7293L279.87 67.2393L278.47 67.3393L276.81 68.0793L273.67 69.8793L267.44 72.9893L278.26 66.7393L279.11 66.3793L279.95 66.2793L280.75 66.4393L281.55 66.8593L295.94 76.6893L296.09 76.8193L296.31 77.5593L295.87 78.1893L211.47 125.789L176.98 145.099L174.89 146.099L172.3 147.079L165.6 148.989L160.75 150.079L154.42 151.249L148.03 152.129L141.59 152.719L135.08 153.029L128.51 153.049L121.89 152.779L115.2 152.239L108.46 151.399L98.0802 149.549L88.1502 147.079L78.6802 143.959L69.6602 140.219Z" fill="#228676"/>
<path d="M242.78 67.1992L241.99 68.1692L240.55 69.1492L175.43 105.759L172.75 106.929L242.78 67.1992Z" fill="#228676"/>
<path d="M241.81 87.3398L235 91.2999L236.52 90.0199L238.16 88.9398L239.93 88.0399L241.81 87.3398Z" fill="#228676"/>
<path d="M80.5205 93.2188L80.2405 93.5987L79.2305 94.1187V94.0187L79.5905 93.5787L80.5205 93.2188Z" fill="#228676"/>
<path d="M187.529 158.15L299.489 94.3496H299.829L299.999 94.6496V309.73L299.829 310.03L187.869 374.67H187.529L187.359 374.37V158.45V158.4L187.529 158.15ZM288.259 241.01L288.179 240.74L287.869 240.51L287.479 240.56L254.779 259.2L254.259 259.19L253.999 258.75V226.39L254.039 226.19L254.259 225.94L288.139 206.64L288.399 206.19V120.01L288.359 119.81L288.039 119.52L287.619 119.56L200.549 169.18L200.449 169.25L200.289 169.63V255.38L200.549 255.82L201.069 255.83L216.079 247.27L216.459 247.22L216.749 247.4L216.859 247.72V275.74L217.109 276.18L217.619 276.2L217.639 276.19L232.309 267.83L232.569 267.38V238.46L232.829 238.01L238.329 234.83H238.849L239.109 235.28V266.92L239.029 267.19L238.849 267.37L200.789 289.34L200.529 289.79V346.95L200.559 347.12L200.869 347.44L201.309 347.4L215.489 339.22L215.749 338.77V298.59L215.789 298.39L216.009 298.14L272.489 265.94L273.009 265.95L273.269 266.39V304.36L273.339 304.63L273.659 304.86L274.049 304.81L287.999 296.76L288.259 296.31V241.01Z" fill="#228676"/>
<path d="M78.7992 94.3594L57.4892 106.649L36.0892 118.689L35.4792 119.339L35.5292 120.059L34.9592 119.959L34.7792 119.769L34.6992 119.279L34.9992 118.889L35.0092 118.879L51.2192 109.339L61.2492 103.669L78.7992 94.3594Z" fill="#228676"/>
<path d="M220.829 99.4294L199.109 112.239L196.879 113.449L194.849 114.309L192.939 114.839L191.109 115.069L190.539 115.089L160.019 115.119L159.469 115.049L159.199 114.849L159.219 114.519L159.509 114.059L160.699 113.529L160.879 114.099L161.289 114.399H192.179L193.189 114.269L194.149 113.899L206.649 107.019L219.679 99.5194L219.739 99.4894L220.229 99.3594L220.829 99.4294Z" fill="#228676"/>
<path d="M130.742 103.25L110.902 114.75L110.192 115.05L109.432 115.15H78.5223L78.1523 115.02L78.1823 114.63L78.2023 114.6L78.6123 114.05L79.2923 113.63L79.4423 114.11L79.9723 114.34L83.8523 114.48L89.5523 114.33L92.9823 114.23L107.552 114.29L109.172 114.18L110.962 113.77L112.802 113.09L114.582 112.19L122.622 107.63L130.742 103.25Z" fill="#228676"/>
<path d="M172.327 107.17L170.647 108.4L168.857 109.35L167.027 110.02L172.327 107.17Z" fill="#228676"/>
<path d="M83.3314 111.141L82.3014 112.121L81.0814 112.921L79.6914 113.511L81.1814 112.191L83.3314 111.141Z" fill="#228676"/>
<path d="M14.1809 111.58L13.7808 123.93L13.3309 119.68L13.2109 114.35L13.4609 112.68L14.1809 111.58Z" fill="#228676"/>
<path d="M288.259 241.011V296.311L288.229 296.491L287.999 296.761L274.049 304.811H273.529L273.269 304.361V266.391L273.249 266.261L272.949 265.911L272.489 265.941L216.009 298.141L215.749 298.591V338.771L215.709 338.961L215.489 339.221L201.309 347.401H200.789L200.529 346.951V289.791L200.789 289.341L238.849 267.371L239.109 266.921V235.281L239.069 235.071L238.749 234.791L238.329 234.831L232.829 238.011L232.569 238.461V267.381L232.529 267.591L232.309 267.831L217.639 276.191L217.219 276.231L216.959 276.041L216.859 275.741V247.721L216.659 247.311L216.199 247.221L216.079 247.271L201.069 255.831L200.549 255.821L200.289 255.381V169.631L200.429 169.281L200.549 169.181L287.619 119.561L288.139 119.571L288.399 120.011V206.191L288.139 206.641L254.259 225.941L253.999 226.391V258.751L254.259 259.191L254.779 259.201L287.479 240.561L287.999 240.571L288.259 241.011ZM215.549 196.351L215.849 196.871H216.449L272.939 164.681L273.239 164.161V146.341L273.169 146.071L272.809 145.771L272.339 145.821L215.849 178.011L215.549 178.531V196.351ZM273.249 183.561L273.049 183.091L272.669 182.901L272.249 182.981L254.289 193.221L253.949 193.771V193.801V207.181L254.039 207.521L254.449 207.821L254.949 207.761L272.909 197.531L273.249 196.951V183.561ZM238.979 202.571L238.689 202.041L238.019 202.021L215.849 214.651L215.789 214.691L215.529 215.201V229.831L215.849 230.381H216.489L238.659 217.751L238.979 217.241V217.201V202.571Z" fill="black"/>
<path d="M56.7414 133.74L51.7114 131.35L46.9114 128.59L42.5714 125.63L38.4414 122.34L56.7414 133.74Z" fill="#228676"/>
<path d="M30.6523 138.329L30.6723 137.509L30.8423 137.199L31.1723 137.299L42.9223 145.409L49.1823 149.109L55.7923 152.579L62.5523 155.729L69.6323 158.639L76.9423 161.269L84.5623 163.639L92.3423 165.719L100.412 167.529L100.782 167.729L100.902 168.129V182.399L100.772 182.759L100.392 182.809L91.0023 180.509L81.7423 177.669L72.7023 174.319L64.0523 170.529L55.6923 166.249L47.7823 161.569L40.1723 156.399L33.0523 150.859L31.7423 149.629L31.0223 148.479L30.7123 146.669L30.7623 144.299L30.8123 140.839L30.6523 138.329Z" fill="#FDB707"/>
<path d="M215.551 196.348V178.528L215.851 178.008L272.341 145.818H272.941L273.241 146.338V164.158L273.201 164.378L272.941 164.678L216.451 196.868L216.051 196.938L215.701 196.738L215.551 196.348Z" fill="#228676"/>
<path d="M116.75 184.97V169.87L116.9 169.52L117.25 169.38H117.27L126.96 169.83L138.23 169.67L144.06 169.32L149.84 168.7L155.56 167.83L161.22 166.71L166.13 165.51L171 164.11L171.04 164.1L171.36 164.38V179.53L171.23 179.98L170.87 180.25L166.16 181.85L161.27 183.13L155.96 184.22L150.59 185.08L145.17 185.72L139.7 186.13L134.17 186.32L128.59 186.29L122.96 186.04L117.27 185.56L116.9 185.37L116.75 184.97Z" fill="#228676"/>
<path d="M13.7808 167.289L13.8309 168.819L13.4609 168.229L13.5108 167.779L13.7808 167.289Z" fill="#228676"/>
<path d="M30.6977 187.138L30.5977 170.258L30.7277 169.818L31.1777 169.938L38.7577 174.918L45.0777 178.848L50.7477 182.098L56.0177 184.818L66.7377 189.588L77.6877 193.628L88.9977 196.968L100.538 199.578L100.868 199.758L100.978 200.118V219.138L100.798 219.558L100.368 219.698L100.308 219.688L88.9777 217.088L78.0077 213.778L67.3977 209.748L57.1477 205.018L50.5777 201.518L44.1677 197.698L37.9177 193.568L31.8177 189.138L31.1077 188.428L30.7477 187.628L30.6977 187.138Z" fill="#F46641"/>
<path d="M273.249 183.559V196.949L273.209 197.189L272.909 197.529L254.949 207.759H254.279L253.949 207.179V193.799L253.989 193.579L254.289 193.219L272.249 182.979H272.919L273.249 183.559Z" fill="#228676"/>
<path d="M171.278 197.818L171.397 197.898V197.908V217.408L171.267 217.778L170.948 217.988L164.528 219.558L158.047 220.818L148.047 222.178L137.927 222.828L127.688 222.778L117.327 222.028L116.847 221.818L116.688 221.308V202.408L116.827 202.008L117.237 201.918L126.127 202.558L134.948 202.698L143.707 202.338L152.407 201.478L161.877 199.948L171.278 197.818Z" fill="#F46641"/>
<path d="M238.977 202.57V217.2L238.937 217.43L238.657 217.75L216.487 230.38H215.847L215.527 229.83V215.2L215.847 214.65L238.017 202.02H238.657L238.977 202.57Z" fill="#228676"/>
<path d="M75.8523 310.381V230.721L75.8623 230.661L76.0523 230.381L76.3923 230.341L82.2523 232.171L88.2123 233.831L100.442 236.591L100.782 236.771L100.902 237.161V342.551L100.782 342.901L100.422 342.961L94.8923 341.731L87.9023 339.711L81.6423 337.641L75.5323 335.361L69.5623 332.881L63.7423 330.201L58.0723 327.311L52.5523 324.221L47.1823 320.931L41.9523 317.431L36.5523 313.421L31.4523 309.151L30.8623 308.341L30.6523 307.361V208.191L30.9523 207.971L31.0123 208.001L41.2823 214.631L51.8123 220.531L52.3623 221.041L52.5623 221.771V297.611L52.6723 298.061L52.9923 298.411L57.9823 301.641L66.4223 306.501L75.1923 310.811L75.2823 310.841L75.6823 310.751L75.8523 310.381Z" fill="#FDB707"/>
<path d="M13.658 265.08L13.228 252.43L13.168 239.78L13.658 223L14.088 238.69L14.048 251.88L13.658 265.08Z" fill="#F46641"/>
<path d="M117.17 238.541L126.62 239.281L135.99 239.441L145.28 239.031L154.49 238.041L162.68 236.661L170.8 234.821L170.86 234.811L171.23 234.921L171.389 235.281V340.141L171.16 340.821L170.57 341.241L161.65 343.601L152.64 345.321L143.94 346.381L135.15 346.861L126.28 346.771L117.31 346.111L116.92 345.921L116.77 345.521V238.901V238.881L116.9 238.631L117.17 238.541Z" fill="#228676"/>
<path d="M13.6991 303.87L13.3591 299.449L13.2891 295.04L13.7591 288.02L13.6991 303.87Z" fill="#F46641"/>
<path d="M316.222 316.891V318.161L315.992 319.291L315.872 319.601L315.332 320.351L314.492 320.951L308.642 324.211L302.722 327.751L290.962 334.601L264.862 349.541L235.802 366.471L218.452 376.421L200.062 387.011L190.592 392.301L184.012 395.511L180.072 397.071L175.852 398.501L166.612 400.971L160.192 402.281L153.932 403.251L147.842 403.891L141.922 404.201L147.532 403.271L149.872 403.081L155.572 402.471L161.232 401.511L164.552 400.901L167.982 400.011L174.602 398.141L179.072 396.721L183.592 394.961L188.172 392.851L192.812 390.411L208.892 381.221L212.062 379.601L214.092 378.381L216.072 377.081L239.672 363.551L250.102 357.331L261.642 350.771L274.632 343.271L278.292 341.071L300.322 328.361L314.752 320.111L315.342 319.651L316.012 318.491L316.222 316.891Z" fill="#228676"/>
<path d="M31.0395 329.35L39.6295 335.21L48.4995 340.55L56.4295 344.76L64.5695 348.59L72.9295 352.03L81.5095 355.09L91.3195 358L100.39 360L100.73 360.18L100.85 360.55V383.12V383.19L100.58 383.64L100.07 383.74L93.8795 382.27L87.7795 380.57L81.7495 378.67L75.8095 376.54L66.7595 372.83L57.9095 368.59L49.2595 363.83L40.7995 358.56L34.9095 354.43L31.0995 351.23L31.0495 351.18L30.5995 350.32L30.5195 349.09L30.6295 347.68L30.6395 329.57L30.7395 329.25L31.0395 329.35Z" fill="#FDB707"/>
<path d="M13.7591 351.839L13.2891 348.439L13.3692 346.369L13.7392 344.289L13.7591 351.839Z" fill="#F46641"/>
<path d="M171.088 358.03L171.108 358.02L171.288 358.18V381.23L171.068 381.89L170.508 382.28L162.348 384.43L154.218 386.03L146.108 387.08L138.038 387.57L127.918 387.53L117.328 386.87L116.968 386.69L116.828 386.31V363.17L116.968 362.76L117.378 362.65L126.988 363.24L134.478 363.42L141.568 363.2L148.608 362.59L154.268 361.82L159.908 360.81L165.508 359.54L171.088 358.03Z" fill="#228676"/>
<path d="M15.3403 361.381L15.1503 361.531L14.7803 360.901L14.5703 360.811L15.2403 360.911L15.3403 361.381Z" fill="#228676"/>
<path d="M15.3423 361.381L20.7123 365.381L15.1523 361.531L15.3423 361.381Z" fill="#F46641"/>
<path d="M29.7914 371.619L28.5613 371.069L27.4414 370.119L28.3413 370.399L29.1214 370.899L29.7914 371.619Z" fill="#228676"/>
<path d="M30.5091 372.139L29.8992 371.799L29.7891 371.619L30.2891 371.699L30.5091 372.139Z" fill="#228676"/>
<path d="M58.0008 387.609L50.6109 384.189L43.4408 380.379L37.2409 376.649L31.2109 372.609L58.0008 387.609Z" fill="#F46641"/>
<path d="M124.452 403.969L121.612 404.109L116.982 403.909L110.042 403.079L103.162 401.989L96.3417 400.649L89.5917 399.069L83.1217 397.289L76.7117 395.279L70.3517 393.039L64.0617 390.559L61.6617 389.449L59.3717 388.159L58.2617 387.439L65.8917 390.719L73.6117 393.639L81.4217 396.209L89.3217 398.429L97.9417 400.429L106.672 402.019L115.512 403.199L124.452 403.969Z" fill="#228676"/>
<path d="M138.668 404.279L136.638 404.669L134.598 404.829L132.398 404.739L130.188 404.369L138.668 404.279Z" fill="#228676"/>
<path d="M47.39 467.039L47.33 462.769L46.7 458.929L45.5 455.509L43.72 452.529L42.43 450.999L40.96 449.609L39.29 448.369L37.43 447.269L36.28 446.709L34.28 445.909L32.19 445.309L30.01 444.889L27.75 444.669L22.53 444.759L17.55 445.579L15.4 446.229L13.37 447.059L11.61 448.009L10.03 449.149L9.09 449.979L6.78 452.489L4.78 455.439L3.21002 458.679L2 462.309L1.17001 466.259L0.730011 470.519L0.680023 475.099L1.03 479.849L1.48001 483.009L2.11002 485.979L2.91 488.759L3.89001 491.349L2.56 488.609L1.52002 485.849L0.77002 483.049L0.309998 480.219L0.300018 480.089L0 473.799L0.390015 467.159L0.820007 464.349L1.51001 461.569L2.44 458.809L3.63 456.079L4.73001 454.069L5.98001 452.249L7.38 450.619L8.95001 449.179L11.04 447.689L14.81 445.789L18.1 444.739L21.68 444.109L25.41 443.939L29.45 444.209L33.14 444.909L36.34 446.089L38.74 447.409L40.88 448.929L42.73 450.649L44.32 452.559L46.03 455.449L47.24 458.699L47.96 462.299L48.18 466.259L48.08 466.699L48.01 466.809L47.57 467.119L47.39 467.039Z" fill="#228676"/>
<path d="M283.128 457.711L282.528 455.621L281.718 453.701L280.708 451.981L279.498 450.431L277.738 448.791L275.678 447.431L273.318 446.341L270.648 445.521L266.968 444.821L263.368 444.501L259.828 444.551L256.358 444.981L253.888 445.531L251.578 446.281L249.508 447.271L247.678 448.481L246.078 449.911L244.758 451.531L243.668 453.361L242.798 455.411L242.158 457.671L241.988 460.541L241.938 462.561L241.868 463.451L241.368 461.791L241.328 459.911L241.908 456.811L242.958 453.491L244.308 450.851L246.138 448.761L246.748 448.271L249.978 446.161L252.688 445.021L257.238 444.281L263.738 443.961L266.258 444.021L268.628 444.281L270.848 444.751L272.918 445.411L275.368 446.521L277.498 447.861L279.288 449.431L280.748 451.221L281.608 452.661L282.288 454.231L283.128 457.711Z" fill="#228676"/>
<path d="M47.3897 467.04L40.4997 466.99L38.6397 466.92L37.1197 466.61L35.9297 466.05L35.0797 465.24L34.7297 464.37L34.6797 464.38L34.8897 464.17L35.1197 463.51L34.9997 462.6L34.3297 460.65L33.4597 459L32.3997 457.65L31.1397 456.6L29.1497 455.66L26.8097 455.24L23.7597 455.21L22.5197 455.08L21.3297 455.21L19.5697 455.95L17.9597 457.34L16.8997 458.67L16.0297 460.1L15.2097 461.95L14.6697 463.95L13.9197 468.94L13.6597 473.93L13.7697 477.42L14.1097 480.9L14.9997 484.88L15.6597 486.5L16.4597 487.89L17.8597 489.54L19.4897 490.79L21.1997 491.58L23.0997 492.05L28.0397 491.82L29.6897 491.42L31.1297 490.7L32.2397 489.77L33.1797 488.59L33.9397 487.14L34.5297 485.44L35.2897 481.93L35.7797 481.06L36.7097 480.71H46.5797H46.5897L47.3497 481.04L47.6497 481.81L47.2497 486.25L46.1797 490.46L45.2697 492.78L43.4397 495.26L41.4297 497.36L39.2497 499.07L36.8897 500.4L35.2097 501.07L26.5197 503.25L24.8297 503.41L23.5197 503.09L19.9497 502.64L16.6597 501.81L13.6497 500.57L10.9097 498.95L9.08966 497.51L7.40967 495.86L5.86969 494.01L4.48969 491.94L4.44968 491.91L4.38968 491.92L4.17969 492.07L3.88968 491.35L2.90967 488.76L2.10968 485.98L1.47968 483.01L1.02966 479.85L0.679688 475.1L0.729675 470.52L1.16968 466.26L1.99966 462.31L3.20969 458.68L4.77966 455.44L6.77966 452.49L9.08966 449.98L10.0297 449.15L11.6097 448.01L13.3697 447.06L15.3997 446.23L17.5497 445.58L22.5297 444.76L27.7497 444.67L30.0097 444.89L32.1897 445.31L34.2797 445.91L36.2797 446.71L37.4297 447.27L39.2897 448.37L40.9597 449.61L42.4297 451L43.7197 452.53L45.4997 455.51L46.6997 458.93L47.3297 462.77L47.3897 467.04Z" fill="black"/>
<path d="M283.131 457.71L283.471 462.53L272.121 462.15L271.651 462.02L271.331 461.65L270.471 459.36L269.941 458.06L269.211 456.97L268.281 456.07L267.211 455.37L265.921 454.84L264.551 454.52L263.031 454.41L261.501 454.52L260.001 454.83L258.591 455.33L255.681 457.1L254.591 459L254.281 460.86L254.531 462.11L255.141 463.35L256.381 464.74L258.211 466.02L260.221 467.01L262.041 467.55L267.641 468.9L273.031 470.78L276.401 472.27L279.671 473.99L282.901 477.39L283.671 479.74L284.191 482.11L284.471 484.55L284.511 487.06L284.311 489.63L283.931 491.12L283.151 492.84L282.301 494.63L281.791 496.07L280.821 497.24L279.761 498.14L276.401 500L272.901 501.42L269.751 502.32L266.491 502.89L259.581 502.96L255.941 502.47L252.641 501.56L249.661 500.23L247.021 498.48L244.371 495.95L242.171 492.85L241.881 492.38L241.901 492.34L241.701 490.16L241.261 488.98L241.091 488.51L241.051 488.05L241.101 484.75L245.351 484.11L249.551 484.14L253.041 484.69L253.151 486.4L253.491 487.9L254.051 489.19L254.841 490.27L256.551 491.56L258.991 492.55L261.471 493.01L263.181 493.02L264.921 492.79L266.681 492.31L268.461 491.58L269.681 490.89L270.661 490.12L271.371 489.26L271.841 488.31L272.061 487.24L272.001 486.07L271.681 484.81L271.081 483.46L268.821 481.52L266.001 479.91L259.371 477.74L252.471 476.26L248.181 474.06L244.461 469.86L243.361 467.83L242.261 464.2L242.191 464.1H242.091L242.011 464.15L241.941 464.31L241.811 463.95L241.871 463.45L241.941 462.56L241.991 460.54L242.161 457.67L242.801 455.41L243.671 453.36L244.761 451.53L246.081 449.91L247.681 448.48L249.511 447.27L251.581 446.28L253.891 445.53L256.361 444.98L259.831 444.55L263.371 444.5L266.971 444.82L270.651 445.52L273.321 446.34L275.681 447.43L277.741 448.79L279.501 450.43L280.711 451.98L281.721 453.7L282.531 455.62L283.131 457.71Z" fill="black"/>
<path d="M70.3108 465.4L70.3408 447.18L70.2208 446.57L69.8709 446.05L69.3508 445.7L68.7409 445.58H59.9108L58.9808 445.71L58.3309 446.11L57.9609 446.78L57.8709 447.72L57.9509 451.87L57.7908 468.63L58.0008 484.87L58.3108 499.78L58.4509 500.84L58.8108 501.97L57.9408 501.5L57.4808 501.01L57.2109 499.89L57.3108 447.19L57.4708 446.42L57.9108 445.77L58.5608 445.33L59.3309 445.18H68.5708L69.7308 445.35L70.5509 445.84L71.0509 446.67L71.2109 447.82V464.44L71.0708 464.93L70.7109 465.22L70.3108 465.4Z" fill="#228676"/>
<path d="M101.732 501.96L102.352 499.89L102.542 498.38L102.322 473.12L102.392 447.45L102.252 446.72L101.842 446.09L101.222 445.68L100.482 445.53H91.9123L91.1923 445.67L90.5723 446.08L90.1623 446.7L90.0123 447.43V466.79L89.8223 467.43L89.4023 467.8L88.8623 467.94H71.6823L71.1123 467.83L70.6723 467.51L70.2223 466.88L70.1523 466.35L70.4423 465.95L71.3423 466.82L72.2023 467.16H88.9923L89.3023 466.86V447.37L89.4723 446.53L89.9423 445.81L90.6523 445.34L91.4923 445.17H100.622L101.742 445.33L102.532 445.81L103.022 446.6L103.182 447.72L103.212 498.79L102.842 499.98L101.732 501.96Z" fill="#F46641"/>
<path d="M128.22 445.769L115.98 445.939L116.82 445.389L118.23 445.129L123.69 445.109L126.07 445.349L128.22 445.769Z" fill="#228676"/>
<path d="M172.257 477.43L168.977 472.85L166.097 468.12L162.927 462.44L157.987 454.05L155.967 450.27L154.987 448.59L153.217 446.13L152.817 445.82L152.327 445.71H142.617L141.957 445.84L141.397 446.22L141.017 446.78L140.887 447.44L141.027 501.65L140.497 500.78L140.187 499.35L140.027 490.1L140.357 468.16L140.477 446.34L140.707 445.75L141.267 445.46L145.637 445.12L150.297 445.01L152.347 445.3L153.897 446.16L154.767 447.22L165.887 466.71L169.227 471.79L171.457 475.68L172.257 477.43Z" fill="#228676"/>
<path d="M184.491 445.421L185.351 446.731L185.561 447.191L185.621 447.651L185.411 470.501L185.561 498.871L185.331 500.561L184.611 501.691L183.901 502.101L182.991 502.291L176.961 502.451L175.651 502.431L174.521 502.141L173.271 500.731L172.071 499.091L171.041 497.331L167.801 491.481L164.261 485.771L163.961 484.581L162.981 483.351L162.971 482.721L162.771 482.401L162.451 482.371L162.041 481.641L154.361 468.051L154.191 467.621L153.761 467.151L153.401 466.251L152.911 465.821L152.501 465.831L152.361 466.221L152.381 501.721L149.591 502.061L146.841 502.171L144.131 502.061L141.461 501.731L141.031 501.651L140.891 447.441L141.021 446.781L141.401 446.221L141.961 445.841L142.621 445.711H152.331L152.821 445.821L153.221 446.131L154.991 448.591L155.971 450.271L157.991 454.051L162.931 462.441L166.101 468.121L168.981 472.851L172.261 477.431L172.511 478.051L172.751 478.251L173.151 477.641L173.531 475.831L173.921 447.261L174.031 446.741L174.281 446.371L175.831 445.311L184.491 445.421Z" fill="black"/>
<path d="M210.18 467.071L210.11 467.561L210.6 467.931L211.72 468.071L219.57 468.031L229.32 467.731L230.37 467.841L231.13 468.261L231.62 468.991L231.81 470.041L232.02 474.521L231.94 475.661L231.54 476.551L230.81 477.361L229.89 478.031L210.71 478.071L210.35 478.191L210.22 478.571V490.541L210.35 490.921L210.71 491.041L235.67 491.371L235.32 500.491L235.18 501.221L234.85 501.741L234.32 502.051L233.6 502.151L199.66 502.271L198.62 502.351L198.01 501.821L197.59 500.781L197.31 496.351L197.25 447.331L197.42 446.491L197.9 445.771L198.61 445.301L199.46 445.131H234.13L234.9 445.451L235.22 446.221V454.921L234.88 455.751L234.05 456.091H210.77L210.41 456.211L210.28 456.571L210.18 467.071Z" fill="black"/>
<path d="M331.169 453.899L330.519 455.029L329.389 456.069L306.149 456.329L305.409 466.459L305.689 467.289L306.479 467.659H306.519H325.409L326.269 467.779L326.869 468.149L327.209 468.769L327.299 469.629L326.969 478.009L306.519 477.999L306.329 477.739L305.819 477.879L305.569 478.359L305.679 490.349L305.739 490.569L306.179 490.809L330.449 491.139L330.709 491.639L331.129 491.889L330.959 501.389L324.719 502.309L317.679 502.439L308.649 502.419L294.759 502.009L293.289 499.549L293.199 447.449L293.379 446.559L293.879 445.799L294.639 445.299L295.529 445.119H329.039L329.949 445.249L330.599 445.639L330.989 446.279L331.129 447.189L331.169 453.899Z" fill="black"/>
<path d="M175.831 445.311L174.281 446.371L174.031 446.741L173.921 447.261L173.531 475.831L173.301 449.851L173.411 447.191L173.611 446.301L174.051 445.741L174.081 445.721L174.861 445.381L175.831 445.311Z" fill="#228676"/>
<path d="M183.648 502.48L182.988 502.29L183.898 502.1L184.608 501.69L185.328 500.56L185.558 498.87L185.408 470.5L185.618 447.65L185.558 447.19L185.348 446.73L184.488 445.42L185.358 445.48L185.868 445.8L186.038 446.34L186.228 467.71L186.188 498.35L185.858 500.64L185.448 501.45L184.878 502.03L183.648 502.48Z" fill="#228676"/>
<path d="M70.3091 465.399L70.4391 465.949L70.1492 466.349L70.2191 466.879L70.6691 467.509L71.1091 467.829L71.6792 467.939H88.8591L89.6691 467.599L90.0091 466.789V447.429L90.1492 446.699L90.5691 446.089L91.1792 445.669L91.9091 445.529H100.479L101.219 445.679L101.839 446.089L102.249 446.719L102.389 447.449L102.319 473.119L102.539 498.379L102.349 499.889L101.729 501.959L90.6192 501.969L90.2591 500.869L90.1091 500.669L89.8791 500.279L89.8191 499.889V479.139L89.5491 478.469L88.8791 478.189L76.8591 478.159L76.8992 478.259L76.3091 478.149L75.5291 478.119L74.5192 478.249L74.2191 478.209L73.7491 478.239L73.0291 478.089L71.3491 478.299L71.2092 478.019L70.7191 478.179L70.3291 478.659L70.1891 479.259L70.3791 496.139V496.149L70.3891 496.509L70.6991 497.019L70.5391 497.089L70.3791 497.599L70.5691 498.119L70.6691 498.139L70.2791 499.259L70.1792 500.669V500.689L69.7191 501.379L68.4391 502.019L58.8091 501.969L58.4491 500.839L58.3091 499.779L57.9991 484.869L57.7891 468.629L57.9491 451.869L57.8692 447.719L57.9592 446.779L58.3291 446.109L58.9791 445.709L59.9091 445.579H68.7392L69.3491 445.699L69.8692 446.049L70.2191 446.569L70.3391 447.179L70.3091 465.399Z" fill="black"/>
<path d="M128.217 445.77L128.587 492.37L128.577 492.45L128.257 495.99L128.547 499.65L128.327 500.38L127.947 500.98L126.847 501.72L125.217 502L119.737 502.06L115.777 501.89L115.397 501.73L115.277 501.35L115.287 457.27L115.457 449.07L115.347 447.99L115.447 446.86L115.527 446.81L115.817 446.48L115.977 445.94L128.217 445.77Z" fill="black"/>
<path d="M115.979 445.939L115.819 446.479L115.529 446.809L115.449 446.859L115.979 445.939Z" fill="#228676"/>
<path d="M331.171 453.898L331.121 455.428L330.961 455.878L330.511 456.028L329.391 456.068L330.521 455.028L331.171 453.898Z" fill="#F46641"/>
<path d="M283.47 462.528L280.43 463.018L277.38 463.228L274.63 463.188L271.88 462.928L270.98 462.498L270.49 461.638L269.44 458.578L268.79 457.458L267.97 456.558L266.56 455.668L264.82 455.158L262.29 454.938L260.44 455.028L258.59 455.328L260 454.828L261.5 454.518L263.03 454.408L264.55 454.518L265.92 454.838L267.21 455.368L268.28 456.068L269.21 456.968L269.94 458.058L270.47 459.358L271.33 461.648L271.65 462.018L272.12 462.148L283.47 462.528Z" fill="#228676"/>
<path d="M23.7602 455.21L20.1202 456.79L18.6602 457.8L17.5702 459.04L17.3202 459.44L16.1202 461.88L15.4002 463.88L14.8702 465.96L14.2302 470.21L14.0602 474.46L14.5002 479.58L15.6302 484.68L16.5502 486.95L17.8802 488.86L18.9402 489.88L20.1602 490.75L21.5502 491.47L23.1002 492.05L21.2002 491.58L19.4902 490.79L17.8602 489.54L16.4602 487.89L15.6602 486.5L15.0002 484.88L14.1102 480.9L13.7702 477.42L13.6602 473.93L13.9202 468.94L14.6702 463.95L15.2102 461.95L16.0302 460.1L16.9002 458.67L17.9602 457.34L19.5702 455.95L21.3302 455.21L22.5202 455.08L23.7602 455.21Z" fill="#228676"/>
<path d="M34.6787 464.378L34.2387 462.558L33.6087 460.918L32.7786 459.458L31.7587 458.188L29.5687 456.448L26.8086 455.238L29.1487 455.658L31.1387 456.598L32.3987 457.648L33.4587 458.998L34.3287 460.648L34.9986 462.598L35.1187 463.508L34.8887 464.168L34.6787 464.378Z" fill="#228676"/>
<path d="M306.15 456.33L306.19 466.6L306.35 466.97L306.72 467.12H326.73L327.16 467.26L327.42 467.62L328.03 470.03L328.3 472.46L328.26 474.64L327.93 476.84L327.64 477.37L326.97 478.01L327.3 469.63L327.21 468.77L326.87 468.15L326.27 467.78L325.41 467.66H306.52H306.48L305.69 467.29L305.41 466.46L306.15 456.33Z" fill="#228676"/>
<path d="M255.677 457.1L255.207 459.17L255.197 461.19L255.737 463.44L255.987 463.86L256.327 464.17L260.537 466.46L262.507 467.22L264.407 467.71L268.797 468.78L272.807 470.19L276.427 471.92L279.667 473.99L276.397 472.27L273.027 470.78L267.637 468.9L262.037 467.55L260.217 467.01L258.207 466.02L256.377 464.74L255.137 463.35L254.527 462.11L254.277 460.86L254.587 459L255.677 457.1Z" fill="#228676"/>
<path d="M248.178 474.06L246.068 472.38L244.368 470.4L242.838 467.58L241.938 464.31L242.008 464.15L242.088 464.1H242.188L242.258 464.2L243.357 467.83L244.458 469.86L248.178 474.06Z" fill="#228676"/>
<path d="M40.502 466.988L35.962 466.918L35.512 466.798L35.222 466.428L35.172 466.288L35.082 465.238L35.932 466.048L37.122 466.608L38.642 466.918L40.502 466.988Z" fill="#228676"/>
<path d="M153.759 467.148L153.479 467.328L153.309 467.848L153.239 500.098L153.019 500.898L152.379 501.718L152.359 466.218L152.499 465.828L152.909 465.818L153.399 466.248L153.759 467.148Z" fill="#228676"/>
<path d="M210.179 467.068L229.999 467.148L230.749 467.288L231.409 467.698L231.869 468.308L232.079 469.048L232.249 472.208L232.209 475.838L232.039 476.768L231.619 477.448L230.899 477.878L229.889 478.028L230.809 477.358L231.539 476.548L231.939 475.658L232.019 474.518L231.809 470.038L231.619 468.988L231.129 468.258L230.369 467.838L229.319 467.728L219.569 468.028L211.719 468.068L210.599 467.928L210.109 467.558L210.179 467.068Z" fill="#228676"/>
<path d="M266.003 479.91L252.473 476.26L259.373 477.74L266.003 479.91Z" fill="#228676"/>
<path d="M281.789 496.071L282.299 494.631L283.149 492.841L283.929 491.121L284.309 489.631L284.509 487.061L284.469 484.551L284.189 482.111L283.669 479.741L282.899 477.391L283.949 479.471L284.689 481.641L285.099 483.671L285.239 485.761L285.139 487.921L284.779 490.151L284.059 492.491L282.949 494.581L281.789 496.071Z" fill="#228676"/>
<path d="M306.52 477.998L306.18 490.808L305.74 490.568L305.68 490.348L305.57 478.358L305.82 477.878L306.33 477.738L306.52 477.998Z" fill="#228676"/>
<path d="M71.3514 478.3L71.2214 482.8L71.2813 493.85L71.0014 495.65L70.6614 496.36L70.5514 496.46L70.4414 496.38L70.3714 496.24L70.3814 496.14L70.1914 479.26L70.3314 478.66L70.7214 478.18L71.2114 478.02L71.3514 478.3Z" fill="#F46641"/>
<path d="M74.52 478.251L73.96 478.411L73.9 478.331L73.75 478.241L74.22 478.211L74.52 478.251Z" fill="#228676"/>
<path d="M76.3108 478.149L76.0308 478.749L75.6409 479.059L74.9108 479.019L73.9609 478.409L74.5209 478.249L75.5308 478.119L76.3108 478.149Z" fill="#F46641"/>
<path d="M90.6194 501.968L89.5894 500.828L89.2794 500.018V479.658L89.1594 479.298L88.8094 479.168L77.7794 479.098L77.5594 479.068L77.1594 478.768L76.8594 478.158L88.8794 478.188L89.5494 478.468L89.8194 479.138V499.888L89.8794 500.278L90.1094 500.668L90.2594 500.868L90.6194 501.968Z" fill="#F46641"/>
<path d="M45.2692 492.778L46.1792 490.458L47.2491 486.248L47.6492 481.808L47.3491 481.038L46.5891 480.708H46.5791H36.7092L35.7791 481.058L35.2891 481.928L34.5291 485.438L33.9391 487.138L33.1792 488.588L32.2392 489.768L31.1291 490.698L29.6891 491.418L28.0391 491.818L29.7392 490.848L31.1691 489.728L32.3391 488.478L33.2392 487.078L34.0991 484.688L34.3391 481.958L34.4592 481.278L34.8291 480.698L35.3891 480.308L36.0691 480.158H36.0891H47.7491L48.0491 480.278L48.1991 480.568L48.3091 482.678L48.1991 484.708L47.8791 486.678L47.3591 488.568L46.4592 490.728L45.2692 492.778Z" fill="#228676"/>
<path d="M162.979 483.349L162.839 483.229L162.449 482.369L162.769 482.399L162.969 482.719L162.979 483.349Z" fill="#228676"/>
<path d="M164.26 485.77L164.07 485.58L163.39 484.59L162.98 483.35L163.96 484.58L164.26 485.77Z" fill="#228676"/>
<path d="M253.039 484.691L253.549 486.481L254.249 488.021L255.139 489.321L256.229 490.381L257.499 491.191L258.979 491.751L260.639 492.071L262.499 492.141L266.059 491.751L268.919 490.781L269.809 490.211L270.499 489.501L271.129 488.361L271.429 486.971L271.409 485.341L271.079 483.461L271.679 484.811L271.999 486.071L272.059 487.241L271.839 488.311L271.369 489.261L270.659 490.121L269.679 490.891L268.459 491.581L266.679 492.311L264.919 492.791L263.179 493.021L261.469 493.011L258.989 492.551L256.549 491.561L254.839 490.271L254.049 489.191L253.489 487.901L253.149 486.401L253.039 484.691Z" fill="#228676"/>
<path d="M241.1 484.75L241.05 488.05L241.09 488.51L241.26 488.98L241.7 490.16L241.9 492.34L240.96 489.91L240.66 487.48L240.78 486.12L241.1 484.75Z" fill="#228676"/>
<path d="M174.522 502.14L173.692 501.9L173.102 501.45L173.002 501.33L170.702 497.84L168.482 494.08L164.262 485.77L167.802 491.48L171.042 497.33L172.072 499.09L173.272 500.73L174.522 502.14Z" fill="#F46641"/>
<path d="M331.129 491.891L330.709 491.641L330.449 491.141L330.709 491.191L330.889 491.271L331.019 491.421L331.129 491.891Z" fill="#228676"/>
<path d="M23.5197 503.088L20.2297 502.888L17.0497 502.268L13.0597 500.778L9.27966 498.548L8.54968 497.988L7.23969 496.778L6.06967 495.388L5.04968 493.818L4.17969 492.068L4.38968 491.918L4.44968 491.908L4.48969 491.938L5.86969 494.008L7.40967 495.858L9.08966 497.508L10.9097 498.948L13.6497 500.568L16.6597 501.808L19.9497 502.638L23.5197 503.088Z" fill="#228676"/>
<path d="M235.67 491.369L236.22 495.279L236.14 499.369L235.76 500.999L234.94 502.139L233.87 502.739L232.47 502.949L203.24 503.059L200.9 502.729L199.66 502.269L233.6 502.149L234.32 502.049L234.85 501.739L235.18 501.219L235.32 500.489L235.67 491.369Z" fill="#228676"/>
<path d="M128.592 492.369L129.042 494.629L129.082 496.869L128.552 499.649L128.262 495.989L128.582 492.449L128.592 492.369Z" fill="#228676"/>
<path d="M45.2695 492.779L43.5695 495.779L42.5495 497.009L41.4295 498.049L38.0895 500.339L34.5195 501.969L30.6395 502.949L26.5195 503.249L35.2095 501.069L36.8895 500.399L39.2495 499.069L41.4295 497.359L43.4395 495.259L45.2695 492.779Z" fill="#228676"/>
<path d="M259.582 502.96L257.332 502.92L255.162 502.68L253.072 502.24L251.062 501.58L249.612 500.96L247.242 499.57L245.242 497.82L243.492 495.54L242.172 492.85L244.372 495.95L247.022 498.48L249.662 500.23L252.642 501.56L255.942 502.47L259.582 502.96Z" fill="#228676"/>
<path d="M70.6989 497.02L71.0189 497.54L70.6689 498.14L70.5689 498.12L70.3789 497.6L70.5389 497.09L70.6989 497.02Z" fill="#228676"/>
<path d="M279.758 498.141L276.928 500.271L273.858 501.771L270.308 502.691L266.488 502.891L269.748 502.321L272.898 501.421L276.398 500.001L279.758 498.141Z" fill="#228676"/>
<path d="M294.757 502.011L293.737 501.191L293.277 500.271L293.287 499.551L294.757 502.011Z" fill="#228676"/>
<path d="M70.1814 500.67L70.1514 501.39L70.0014 501.82L69.5714 502.04L68.4414 502.02L69.7214 501.38L70.1814 500.69V500.67Z" fill="#F46641"/>
<path d="M330.963 501.391L330.683 502.361L330.023 502.881L328.983 503.131H327.513L326.113 502.871L324.723 502.311L330.963 501.391Z" fill="#228676"/>
<path d="M317.678 502.44L315.318 502.87L312.958 502.99L310.798 502.84L308.648 502.42L317.678 502.44Z" fill="#228676"/>
<path d="M182.991 502.289L183.651 502.479L181.281 503.069L179.001 503.039L176.961 502.449L182.991 502.289Z" fill="#F46641"/>
<path d="M40.6912 529.619L39.7512 527.299L38.5912 525.259L37.2113 523.499L35.6213 521.999L33.8412 520.799L31.8512 519.859L29.6512 519.189L27.2412 518.779L18.5313 518.429L3.28125 518.589L11.8813 518.089L20.3412 518.039L27.1312 518.219L30.3713 518.979L33.6912 520.409L35.3512 521.409L36.8013 522.539L38.0312 523.799L39.0412 525.199L40.0612 527.289L40.6912 529.619Z" fill="#228676"/>
<path d="M83.8591 518.66L51.0391 518.86L51.0591 518.84L51.7791 518.37L52.7991 518.19L63.5591 518.01L73.7092 518.17L83.8591 518.66Z" fill="#228676"/>
<path d="M120.27 519.341L110.23 518.511L106.49 518.361L102.29 518.451L92.5195 519.341L92.5895 518.941L93.1295 518.471L94.1795 518.231L100.53 517.881L107 517.941L113.58 518.431L120.27 519.341Z" fill="#228676"/>
<path d="M174.979 519.31L144.079 519.03L142.799 519.2L141.889 519.74L141.329 520.64L141.119 521.9L140.839 535.98L140.409 531.96L140.199 528.14V524.5L140.419 521.05L140.689 519.92L141.239 519.08L142.249 518.47L143.639 518.25L158.689 518.08L174.279 518.16L174.799 518.28L175.179 518.63L175.209 518.67L174.979 519.31Z" fill="#228676"/>
<path d="M216.688 518.56L200.058 518.88L187.478 518.72L185.398 518.93L183.857 519.76L183.408 520.24L183.198 520.62L183.088 521.13L182.848 527.42L182.368 525.3L182.188 523.34L182.327 521.54L182.768 519.91L183.068 519.38L184.068 518.65L185.628 518.36L201.077 518.08L216.688 518.56Z" fill="#F46641"/>
<path d="M232.73 519.14L231.01 518.84L229.15 518.76L227.15 518.89L225.01 519.24L224.2 519.74L223.88 520.64L224.11 566.25L224.01 567.94L224.1 569.1L224.54 569.94L225.51 570.53L226.96 570.69L230.66 570.58L231.67 570.21L233.14 569.12L232.56 570.39L231.79 570.98L231.49 571.03L225.3 571.01L224.54 570.83L223.89 570.37L223.47 569.71L223.32 568.94V519.8L223.44 519.21L223.78 518.7L224.28 518.37L224.88 518.25H231.77L232.19 518.34L232.53 518.62L232.65 518.83L232.73 519.14Z" fill="#228676"/>
<path d="M253.7 518.921L244.82 518.751L248.03 518.011L249.58 517.961L251.09 518.111L253.7 518.921Z" fill="#228676"/>
<path d="M285.018 518.908L276.898 518.848L279.138 518.278L281.358 518.148L283.198 518.378L285.018 518.908Z" fill="#228676"/>
<path d="M305.152 527.559V526.979L305.462 526.629L306.022 526.399L307.962 526.259L316.892 526.409L327.452 526.349L328.352 526.199L329.002 525.799L329.382 525.149L329.512 524.249V520.909L329.382 520.009L329.002 519.369L328.362 518.989L327.462 518.859H299.132L297.672 519.069L296.632 519.689L296.002 520.739L295.802 522.199L296.002 569.669L295.482 568.069L295.272 566.449L295.262 566.099L295.422 521.739L295.662 520.159L296.342 519.019L297.482 518.349L299.062 518.119H327.902L328.922 518.269L329.662 518.709L330.092 519.439L330.242 520.459V524.609L330.092 525.669L329.632 526.439L328.872 526.899L327.812 527.059L306.302 527.099L305.682 527.219L305.152 527.559Z" fill="#228676"/>
<path d="M40.69 529.62L41.08 531.63L41.06 534.14L40.79 536.56L40.24 538.9L39.3 541.4L38.01 543.79L37.5 544.49L36.61 545.37L35.54 546.09L34.77 546.29L34.23 546.68L33.99 547.06L33.41 547.34L33.08 547.37L32.74 548.11L32.88 548.95L33.31 549.45L34.04 549.81L36.35 554.38L40.77 566.72L41.16 568.74L41.05 569.57L40.75 570.28L40.67 570.4L35.44 571.01L34.36 571.07L33.24 570.91L32.38 569.6L31.64 568.01L30.55 564.04L29.92 561.53L28.97 558.91L27.68 556.18L26.06 553.35L24.76 551.54L24.03 551L23.25 550.71L23.1 550.68L21.04 550.4L17.26 550.16L13.44 550.26L12.67 550.62L12.35 551.41L12.41 568.13L12.28 569.25L11.82 570.05L10.87 570.59L9.47 570.71L4.12003 570.55L3.36002 569.3L3.25 568.54L3.28 518.59L18.53 518.43L27.24 518.78L29.65 519.19L31.85 519.86L33.84 520.8L35.62 522L37.21 523.5L38.59 525.26L39.75 527.3L40.69 529.62ZM12.57 526.92L12.31 542.06L12.53 542.38L13.28 542.9L14.36 543.13L15.79 543.06L17.56 542.7L20.24 542.94L23.17 542.72L24.53 542.79L25.8 542.57L26.89 542.12L27.91 541.43L30.42 539.23L31.3 537.46L31.83 535.76L32.01 534.14L31.85 532.6L30.96 530.46L29.31 528.48L27.48 527.26L25.95 526.65L23.24 526.18L20.43 525.96L17.53 526L14.53 526.28L13.65 525.84L13.02 525.87L12.71 526.24L12.57 526.92Z" fill="black"/>
<path d="M120.271 519.339L124.381 521.879L127.401 524.529L128.601 527.479L129.881 530.669L130.551 533.059L131.311 537.929L131.671 542.749L131.631 547.509L131.191 552.219L130.331 556.999L129.241 560.339L127.561 563.249L126.141 564.919L124.481 566.399L122.571 567.709L120.411 568.829L118.331 569.519L115.621 569.999L112.271 570.259L108.291 570.309L95.0313 570.549L94.2414 570.439L93.5414 570.069L92.9114 569.309L92.6614 568.359L92.4414 563.129L92.5214 519.339L102.291 518.449L106.491 518.359L110.231 518.509L120.271 519.339ZM102.301 526.159L101.971 526.219L101.661 526.439L101.541 526.839V562.559L101.621 562.809L101.871 562.899L102.221 562.799L102.781 562.999L102.761 563.049H109.531L110.631 563.019L114.071 562.809L116.301 562.129L118.001 560.889L119.811 558.759L121.101 556.409L121.641 554.839L121.991 553.189L122.131 551.449L122.081 549.629L121.901 539.709L122.081 537.709L122.011 535.819L121.681 534.049L121.091 532.399L120.011 530.529L118.541 528.839L117.931 528.589L117.571 528.059L116.381 527.159L115.111 526.709L114.241 526.659L109.541 526.069L104.851 525.989L102.301 526.159Z" fill="black"/>
<path d="M216.692 518.561L217.172 526.651L205.662 526.271L194.232 526.181L192.982 526.321L192.432 526.721L192.412 526.951V527.861L192.332 527.851L192.362 539.541L192.372 540.191L192.312 540.571L192.492 540.851L193.052 541.021L210.712 540.951L211.652 541.081L212.322 541.481L212.732 542.151L212.862 543.091V546.091L212.732 547.021L212.332 547.691L211.662 548.101L210.732 548.241L192.992 548.361L192.592 548.501L192.332 548.861L192.452 549.191L192.482 549.941L192.252 551.201L192.432 552.291L192.482 552.411L192.272 570.421L185.412 570.691L184.532 570.551L183.772 570.071L183.252 569.351L183.062 568.471V568.431L182.982 535.111L182.852 527.421L183.092 521.131L183.202 520.621L183.412 520.241L183.862 519.761L185.402 518.931L187.482 518.721L200.062 518.881L216.692 518.561Z" fill="black"/>
<path d="M232.729 519.14L233.009 520.07L233.309 544.61L233.139 569.12L231.669 570.21L230.659 570.58L226.959 570.69L225.509 570.53L224.539 569.94L224.099 569.1L224.009 567.94L224.109 566.25L223.879 520.64L224.199 519.74L225.009 519.24L227.149 518.89L229.149 518.76L231.009 518.84L232.729 519.14Z" fill="black"/>
<path d="M244.817 518.75L253.697 518.92L254.767 519.97L255.517 521.13L265.687 538.28L266.857 540.02L267.237 540.88L268.307 543.12L269.707 545.08L269.737 545.11L275.567 555.11L275.837 555.35L276.137 555.12L276.197 554.61L275.907 553.83L276.027 553.36L276.097 518.9L276.897 518.85L285.017 518.91L285.347 542.21L285.277 565.6L284.847 570.09L278.747 570.65L276.547 570.42L275.667 570.06L274.947 569.54L274.157 568.46L273.137 566.48L271.737 564.08L254.337 535.79L253.637 535.3L253.537 535.25L253.217 535.31L253.067 535.61L253.217 569.94L249.457 571.01L249.247 571.06L248.127 571.17L246.947 571.02L245.527 570.41L244.027 569.3L244.257 545.03L244.287 520.67L244.817 518.75Z" fill="black"/>
<path d="M305.151 527.559L305.251 539.419L305.211 539.709L305.461 540.319L305.831 540.609L306.291 540.689L316.361 540.539L326.231 541.169L326.301 544.709L325.911 547.299L325.041 548.259L323.571 548.499L322.171 548.159L320.831 548.179L319.761 548.479L306.201 548.159L305.471 548.439L305.161 549.159V549.169L305.241 561.379L305.041 562.159L305.401 562.779L305.981 562.999H327.941L328.951 563.349L329.531 564.249L329.801 565.869V567.319L329.541 568.589L329.011 569.679L327.671 571.019L300.241 570.959L297.261 570.639L296.421 570.269L296.021 569.769L296.001 569.669L295.801 522.199L296.001 520.739L296.631 519.689L297.671 519.069L299.131 518.859H327.461L328.361 518.989L329.001 519.369L329.381 520.009L329.511 520.909V524.249L329.381 525.149L329.001 525.799L328.351 526.199L327.451 526.349L316.891 526.409L307.961 526.259L306.021 526.399L305.461 526.629L305.151 526.979V527.559Z" fill="black"/>
<path d="M51.04 518.858L83.86 518.658L83.93 525.618L81.71 526.268L60.48 526.238L59.36 526.368L58.89 526.708L59.2 527.418L59.33 540.088L59.26 540.148L59.27 540.388L59.63 540.838L60.18 541.008L79.16 540.898L79.63 541.068L80.18 541.578L80.15 547.518L79.98 547.928L79.56 548.098L60.51 548.148L59.71 548.078L59.42 548.288L59.13 549.038L59.33 549.318L59.37 561.228V561.258L59.53 561.968L59.95 562.568L60.58 562.958L61.3 563.078L68.86 562.788L81.54 562.688L83.26 562.828L83.67 562.988L83.82 563.398L84.13 569.148L82.63 570.058L82.35 570.198L80.97 570.458L65.97 570.438L50.92 570.668L50.2 569.558L49.8 568.378L49.75 568.088L50.14 551.578V535.068L49.77 518.948L51.04 518.858Z" fill="black"/>
<path d="M174.98 519.309L175.17 525.969L150.9 525.999L150.52 526.099L150.25 526.389L150.15 527.039L150.25 527.159L150.5 536.519L150.17 538.389L150.25 540.199L150.28 540.399L150.57 540.879L151.09 541.069L169.23 540.719L170.12 540.939L171.18 541.649L171.2 546.579L170.04 547.529L169.67 548.089L151.53 548.199L151.11 547.849L150.74 547.959L150.38 548.399L150.51 549.299L150.57 549.369L150.64 549.429L150.2 555.879L150.33 562.049L150.48 562.699L150.9 563.199L151.08 563.079L174.32 563.149L174.75 563.329L174.94 563.749L175.13 569.009L174.4 569.919L173.73 570.409L172.99 570.639L172.06 570.679L166.49 570.479L161.38 570.539L156.65 570.609L150.44 570.439L143.85 570.249L142.9 569.999L141.27 569.259L140.84 535.979L141.12 521.899L141.33 520.639L141.89 519.739L142.8 519.199L144.08 519.029L174.98 519.309Z" fill="black"/>
<path d="M276.101 518.898L276.031 553.358L275.551 553.148L275.241 552.678L275.141 551.958L275.211 520.188L275.311 519.438L275.621 519.008L276.101 518.898Z" fill="#228676"/>
<path d="M49.7723 518.949L50.1423 535.069V551.579L49.7523 568.089L49.1823 552.429L49.1523 536.769L49.7723 518.949Z" fill="#228676"/>
<path d="M127.401 524.529L128.511 525.979L129.451 527.609L130.231 529.439L130.831 531.449L131.891 536.599L132.261 540.599L132.271 541.849L132.231 548.109L131.911 552.659L131.231 556.519L130.171 559.749L129.031 562.029L127.691 564.059L126.161 565.839L124.431 567.359L122.281 568.759L119.891 569.839L117.521 570.499L114.581 570.949L111.091 571.179L107.031 571.199L93.9814 570.989L93.4514 570.879L92.9914 570.569L92.6914 570.119L92.5714 569.589L92.4414 563.129L92.6614 568.359L92.8714 569.229L93.3914 569.949L94.1514 570.409L95.0313 570.549L108.291 570.309L112.271 570.259L115.621 569.999L118.331 569.519L120.411 568.829L122.571 567.709L124.481 566.399L126.141 564.919L127.561 563.249L129.241 560.339L130.331 556.999L131.191 552.219L131.631 547.509L131.671 542.749L131.311 537.929L130.551 533.059L129.881 530.669L128.601 527.479L127.401 524.529Z" fill="#228676"/>
<path d="M175.168 525.971L175.138 526.631L174.808 526.871L174.228 526.961L150.248 527.161L150.148 527.041L150.248 526.391L150.518 526.101L150.898 526.001L175.168 525.971Z" fill="#228676"/>
<path d="M83.9306 525.619L83.5806 526.279L83.0906 526.749L81.9606 527.049L60.2306 527.149L59.4506 527.299L59.2006 527.419L58.8906 526.709L59.3606 526.369L60.4806 526.239L81.7106 526.269L83.9306 525.619Z" fill="#228676"/>
<path d="M14.5303 526.28L14.2203 526.26L13.3903 526.42L12.5703 526.92L12.7103 526.24L13.0203 525.87L13.6503 525.84L14.5303 526.28Z" fill="#228676"/>
<path d="M217.17 526.65L204.87 527.16L192.41 526.95L192.43 526.72L192.98 526.32L194.23 526.18L205.66 526.27L217.17 526.65Z" fill="#228676"/>
<path d="M102.299 526.158L102.219 562.798L101.869 562.898L101.619 562.808L101.539 562.558V526.838L101.659 526.438L101.969 526.218L102.299 526.158Z" fill="#228676"/>
<path d="M117.568 528.058L114.238 526.658L115.108 526.708L116.378 527.158L117.568 528.058Z" fill="#228676"/>
<path d="M192.358 539.54L192.328 527.85L192.838 528.15L193.058 528.51L193.068 528.54L193.288 532.59L192.908 537.08L192.888 537.56L192.988 538.04L193.108 538.63L192.988 539.09L192.358 539.54Z" fill="#228676"/>
<path d="M30.4187 539.229L30.9387 537.518L31.2287 535.849L31.2786 534.229L31.0886 532.659L30.4287 530.518L29.3086 528.479L30.9587 530.458L31.8487 532.599L32.0087 534.138L31.8287 535.758L31.2987 537.458L30.4187 539.229Z" fill="#F46641"/>
<path d="M121.899 539.71L120.949 534.61L120.149 531.89L118.539 528.84L120.009 530.53L121.089 532.4L121.679 534.05L122.009 535.82L122.079 537.71L121.899 539.71Z" fill="#228676"/>
<path d="M41.0617 534.141L41.0917 537.091L40.6217 539.741L39.6717 541.901L38.2817 543.561L38.0117 543.791L39.3017 541.401L40.2417 538.901L40.7917 536.561L41.0617 534.141Z" fill="#228676"/>
<path d="M192.27 570.419L191.99 570.499L189.98 570.939L187.9 571.139L185.75 571.109L183.53 570.829L183.12 570.619L182.92 570.209L182.67 569.059L182.36 567.449L182.32 566.619L182.09 546.039L182.21 541.269L182.73 536.569L182.98 535.109L183.06 568.429V568.469L183.25 569.349L183.77 570.069L184.53 570.549L185.41 570.689L192.27 570.419Z" fill="#F46641"/>
<path d="M284.85 570.089L283.58 570.649L281.97 570.999L280.02 571.159L277.73 571.109L275.83 570.719L274.54 569.809L274.22 569.359L269.09 560.749L263.77 552.329L262.98 550.739L261.96 548.779L259.38 544.939L257.02 540.989L254.34 535.789L271.74 564.079L273.14 566.479L274.16 568.459L274.95 569.539L275.67 570.059L276.55 570.419L278.75 570.649L284.85 570.089Z" fill="#228676"/>
<path d="M150.502 536.52L151.442 539.469L151.682 539.82L152.072 539.96L158.992 540.12L166.742 540.01L170.382 540.169L170.892 540.289L171.182 540.539L171.202 540.57L171.302 541.039L171.182 541.65L170.122 540.94L169.232 540.719L151.092 541.07L150.572 540.88L150.282 540.4L150.252 540.2L150.172 538.39L150.502 536.52Z" fill="#228676"/>
<path d="M305.251 539.42L305.271 539.44L306.111 540.01L307.481 540.18L325.181 540.13L325.931 540.34L326.341 540.89L326.231 541.17L316.361 540.54L306.291 540.69L305.831 540.61L305.461 540.32L305.211 539.71L305.251 539.42Z" fill="#228676"/>
<path d="M59.3317 540.09L79.2517 540.11L79.8617 540.3L80.2717 540.8L80.1817 541.58L79.6317 541.07L79.1617 540.9L60.1817 541.01L59.6317 540.84L59.2717 540.39L59.2617 540.15L59.3317 540.09Z" fill="#228676"/>
<path d="M192.452 549.189L192.332 548.859L192.592 548.499L192.992 548.359L210.732 548.239L211.662 548.099L212.332 547.689L212.732 547.019L212.862 546.089V543.089L212.732 542.149L212.322 541.479L211.652 541.079L210.712 540.949L193.052 541.019L192.492 540.849L192.312 540.569L192.372 540.189L210.882 540.119L211.893 540.259L212.612 540.689L213.042 541.399L213.182 542.409V546.689L213.033 547.729L212.582 548.479L211.852 548.919L210.822 549.069L192.452 549.189Z" fill="#F46641"/>
<path d="M269.738 545.111L269.708 545.081L268.308 543.121L267.238 540.881L268.568 542.711L269.568 544.671L269.738 545.111Z" fill="#228676"/>
<path d="M27.908 541.43L26.888 542.12L25.798 542.57L24.528 542.79L23.168 542.72L27.908 541.43Z" fill="#228676"/>
<path d="M17.5586 542.7L15.7887 543.06L14.3587 543.13L13.2786 542.9L12.5286 542.38L12.3086 542.06L13.4986 542.02L15.5286 542.2L17.5586 542.7Z" fill="#F46641"/>
<path d="M275.908 553.829L276.198 554.609L276.138 555.119L275.838 555.349L275.568 555.109L269.738 545.109L272.308 548.899L274.678 552.799L274.718 552.859L275.168 553.369L275.908 553.829Z" fill="#228676"/>
<path d="M35.5383 546.09L35.3883 546.33L34.8283 546.8L33.9883 547.06L34.2283 546.68L34.7683 546.29L35.5383 546.09Z" fill="#228676"/>
<path d="M171.202 546.58L171.162 547.18L170.942 547.64L170.722 547.86L169.672 548.09L170.042 547.53L171.202 546.58Z" fill="#228676"/>
<path d="M33.4083 547.34L33.3383 548.35L34.0383 549.81L33.3083 549.45L32.8783 548.95L32.7383 548.11L33.0783 547.37L33.4083 547.34Z" fill="#228676"/>
<path d="M325.909 547.301L325.749 548.021L325.039 548.261L325.909 547.301Z" fill="#228676"/>
<path d="M151.529 548.2L150.769 549.12L150.509 549.3L150.379 548.4L150.739 547.96L151.109 547.85L151.529 548.2Z" fill="#228676"/>
<path d="M60.5089 548.15L59.3289 549.32L59.1289 549.04L59.4189 548.29L59.7089 548.08L60.5089 548.15Z" fill="#228676"/>
<path d="M323.572 548.498L322.162 548.808L320.972 548.768L319.762 548.478L320.832 548.178L322.172 548.158L323.572 548.498Z" fill="#228676"/>
<path d="M102.762 563.051L103.212 562.551L103.692 562.361L104.432 562.651L104.852 562.831L105.252 562.701L106.342 562.341L107.002 562.461L107.482 562.571H108.012L113.152 561.921L114.762 561.601L116.182 561.101L117.422 560.411L118.472 559.531L119.362 558.441L120.052 557.161L120.942 554.401L122.082 549.631L122.132 551.451L121.992 553.191L121.642 554.841L121.102 556.411L119.812 558.761L118.002 560.891L116.302 562.131L114.072 562.811L110.632 563.021L109.532 563.051H102.762Z" fill="#228676"/>
<path d="M151.079 563.08L150.899 563.2L150.479 562.7L150.329 562.05L150.199 555.88L150.639 549.43L151.189 553.46L151.389 557.5L151.079 563.08Z" fill="#228676"/>
<path d="M26.0611 553.348L24.8911 552.378L23.7311 551.678L22.6011 551.248L21.4811 551.098L14.0811 551.128L13.4811 551.388L13.2411 551.978L13.2911 557.178L13.2811 566.838L13.0711 569.258L12.7211 570.358L12.0111 570.758L10.7411 570.958L6.83108 570.998L4.12109 570.548L9.47106 570.708L10.8711 570.588L11.8211 570.048L12.2811 569.248L12.4111 568.128L12.3511 551.408L12.6711 550.618L13.4411 550.258L17.2611 550.158L21.0411 550.398L23.1011 550.678L23.2511 550.708L24.0311 550.998L24.7611 551.538L26.0611 553.348Z" fill="#228676"/>
<path d="M192.48 549.939L192.87 550.409L192.95 551.279L192.48 552.409L192.43 552.289L192.25 551.199L192.48 549.939Z" fill="#228676"/>
<path d="M33.2387 570.91L32.4587 570.7L31.6087 569.79L31.1487 568.14L30.6087 565.6L29.5787 562.29L26.0586 553.35L27.6787 556.18L28.9687 558.91L29.9187 561.53L30.5487 564.04L31.6387 568.01L32.3787 569.6L33.2387 570.91Z" fill="#F46641"/>
<path d="M36.3477 554.381L38.4277 558.791L39.9777 563.351L40.7677 566.721L36.3477 554.381Z" fill="#228676"/>
<path d="M305.239 561.381L305.209 561.711L305.449 561.911L305.979 561.981L325.479 562.121L327.139 562.311L329.519 562.921L329.899 563.161L330.079 563.581L330.339 567.111L330.099 569.721L329.749 570.431L328.929 570.921L327.669 571.021L329.009 569.681L329.539 568.591L329.799 567.321V565.871L329.529 564.251L328.949 563.351L327.939 563.001H305.979L305.399 562.781L305.039 562.161L305.239 561.381Z" fill="#F46641"/>
<path d="M81.5394 562.69L68.8594 562.79L72.2794 562.26L75.6894 562.09L78.6194 562.26L81.5394 562.69Z" fill="#F46641"/>
<path d="M84.128 569.148L83.898 569.928L83.448 570.418L82.768 570.768L80.718 571.058L63.818 571.008L50.918 570.668L65.968 570.438L80.968 570.458L82.348 570.198L82.628 570.058L84.128 569.148Z" fill="#228676"/>
<path d="M175.13 569.01L175.3 569.67L175.27 570.18L175.03 570.63L174.639 570.96L174.15 571.1H174.06L143.82 571.09L142.91 570.99L142.27 570.67L141.27 569.26L142.9 570L143.85 570.25L150.44 570.44L156.65 570.61L161.38 570.54L166.49 570.48L172.06 570.68L172.99 570.64L173.73 570.41L174.4 569.92L175.13 569.01Z" fill="#228676"/>
<path d="M246.947 571.021L245.027 570.991L244.717 570.941H244.697L244.277 570.471L244.027 569.301L245.527 570.411L246.947 571.021Z" fill="#228676"/>
<path d="M253.221 569.939L253.061 570.469L252.601 570.879L251.851 571.109L249.461 571.009L253.221 569.939Z" fill="#228676"/>
<path d="M40.6714 570.398L39.4414 570.838L37.5014 571.138L35.4414 571.008L40.6714 570.398Z" fill="#228676"/>
</g>
<defs>
<clipPath id="clip0_777_29421">
<rect width="332" height="572" fill="white"/>
</clipPath>
</defs>
</svg>
