<svg width="455" height="458" viewBox="0 0 455 458" fill="none" xmlns="http://www.w3.org/2000/svg">
<rect width="454.031" height="457.851" fill="white"/>
<path d="M158.549 0.0898438L132.709 0.589844L101.699 0.759857L93.1289 0.429871L158.549 0.0898438Z" fill="black"/>
<path d="M215.179 5.21002L215.769 6.04001L217.179 7.27002L249.689 40.2L251.359 42.37L253.729 44.94L291.969 83.48L297.949 89.12L298.529 89.67L298.649 89.96L299.819 91.05L338.169 129.76L344.999 137.28L350.179 142.5L355.559 147.52L355.939 148.24L359.579 155.59L360.039 162.45L359.779 169.43L359.269 217.12L359.409 271.75L359.249 272.94L358.739 273.69L358.329 273.91L346.979 262.5L328.929 243.7L311.279 225.06L287.719 200.07L278.459 190.44L240.779 151.14L240.239 150.42L236.939 146.6L233.149 143.16L232.989 142.99L232.679 142.43L232.199 142.22L228.999 138.87L228.479 138.05L227.969 137.93L171.449 79.78L159.169 66.81L147.939 55.9L93.1289 0.430023L101.699 0.76001L132.709 0.589996L158.549 0.0899963L202.699 0L206.329 0.360016L209.669 1.39001L212.559 3L215.179 5.21002Z" fill="black"/>
<path d="M217.18 7.27094L215.77 6.04092L215.18 5.21094L216.04 5.74094L216.7 6.41092L217.18 7.27094Z" fill="black"/>
<path d="M130.63 53.2805L139.36 62.7805L145.03 68.4705L150.88 73.9905L176.31 99.7305L176.36 99.9305L176.32 100.05L187.23 110.98L187.78 111.29L187.86 111.67L189.68 113.93L190.97 114.99L207.76 132.48L213 138.62L217.3 142.94L221.88 146.99L238.63 164.19L241.3 167.56L243.28 169.48L245.47 171.2L263.55 190.24L269.85 197.31L276.76 203.95L289.94 217.6L292.1 220.43L293.6 221.89L295.26 223.19L326.55 256.19L328.28 258.39L331.46 261.82L334.99 264.95L351.64 282.51L350.84 283.03L350.72 283.06H222.83L222.57 283.03L217.98 281.6L214.57 279.94L211.57 277.53L207.39 273.31L205.49 271.31L199.42 265.39L186.97 252.33L176.92 241.78L168.74 233.03L153.12 217.03L140.24 203.53L129.15 192.18L129.28 192.03L128.95 191.5L128.7 191.39L128.42 191.51L128.25 191.25L127.91 190.55L127.03 189.91L108.69 171.24L97.9403 159.34L97.5703 158.54L95.4103 154.87L93.8903 151.31L92.9803 147.85L92.7103 144.49L92.9003 113.48L92.6703 79.2905L92.5703 64.6605L92.8903 15.2305L93.0203 15.0005L93.2703 14.9805L93.3603 15.0405L130.63 53.2805Z" fill="black"/>
<path d="M249.688 40.2012L297.948 89.1212L291.968 83.4812L253.728 44.9412L251.357 42.3712L249.688 40.2012Z" fill="black"/>
<path d="M130.629 53.2812L138.849 61.2013L146.749 69.4213L150.879 73.9913L145.029 68.4713L139.359 62.7812L130.629 53.2812Z" fill="black"/>
<path d="M171.448 79.7804L147.938 55.9004L159.168 66.8104L171.448 79.7804Z" fill="black"/>
<path d="M97.5683 158.54L95.4683 155.77L94.5183 153.96L93.7283 151.9L92.3983 146.18L92.1283 144.81L91.9883 143.41V71.7302L92.1383 67.6902L92.5683 64.6602L92.6683 79.2902L92.8983 113.48L92.7083 144.49L92.9783 147.85L93.8883 151.31L95.4083 154.87L97.5683 158.54Z" fill="black"/>
<path d="M299.818 91.0509L298.648 89.9609L299.518 90.4809L299.818 91.0509Z" fill="black"/>
<path d="M190.969 114.99L189.679 113.93L187.859 111.67L189.119 112.65L190.169 113.79L190.969 114.99Z" fill="black"/>
<path d="M355.558 147.52L350.178 142.5L344.998 137.28L338.168 129.76L346.318 137.52L351.018 142.44L355.558 147.52Z" fill="black"/>
<path d="M207.758 132.48L215.118 139.49L221.878 146.99L217.298 142.94L212.998 138.62L207.758 132.48Z" fill="black"/>
<path d="M228.999 138.87L228.509 138.61L227.969 137.93L228.479 138.05L228.999 138.87Z" fill="black"/>
<path d="M232.989 142.991L232.969 142.981L232.199 142.221L232.679 142.431L232.989 142.991Z" fill="black"/>
<path d="M240.778 151.14L233.148 143.16L236.938 146.6L240.238 150.42L240.778 151.14Z" fill="black"/>
<path d="M359.578 155.59L355.938 148.24L357.158 149.74L358.148 151.36L359.018 153.39L359.578 155.59Z" fill="black"/>
<path d="M108.688 171.24L106.548 169.15L101.178 163.66L99.3875 161.46L97.9375 159.34L108.688 171.24Z" fill="black"/>
<path d="M238.629 164.191L245.469 171.201L243.279 169.481L241.299 167.561L238.629 164.191Z" fill="black"/>
<path d="M359.78 169.43L359.97 221.63L359.92 274.17L359.62 274.92L358.89 275.25L358.57 275.18L358.32 274.74L358.33 273.91L358.74 273.69L359.25 272.94L359.41 271.75L359.27 217.12L359.78 169.43Z" fill="black"/>
<path d="M128.247 191.25L127.527 190.66L127.027 189.91L127.907 190.55L128.247 191.25Z" fill="black"/>
<path d="M263.551 190.24L276.761 203.95L269.851 197.31L263.551 190.24Z" fill="black"/>
<path d="M129.148 192.181L128.988 192.111L128.418 191.511L128.698 191.391L128.948 191.501L129.278 192.031L129.148 192.181Z" fill="black"/>
<path d="M295.258 223.19L293.598 221.89L292.098 220.43L289.938 217.6L295.258 223.19Z" fill="black"/>
<path d="M326.551 256.191L334.991 264.951L331.461 261.821L328.281 258.391L326.551 256.191Z" fill="black"/>
<path d="M351.638 282.511L352.128 283.001L351.838 283.651L351.188 283.911L240.458 283.971H238.088L231.718 283.931L227.198 283.721L223.178 283.281L219.528 282.581L216.478 281.421L213.088 279.341L210.278 277.081L207.068 274.001L203.448 270.111L199.418 265.391L205.488 271.311L207.388 273.311L211.568 277.531L214.568 279.941L217.978 281.601L222.568 283.031L222.828 283.061H350.718L350.838 283.031L351.638 282.511Z" fill="black"/>
<path d="M199.84 323.031L201.3 323.671L202.86 323.981H204.51L207.09 324.891L209.1 326.011L211.24 326.631L211.86 326.921L212.13 327.221L217.42 330.711L217.91 331.291L219.43 332.371L220.22 333.291L220.55 334.261L220.46 335.151L220 336.071L218.7 337.371L217.58 338.791L216.23 341.181L214.67 342.941L212.88 344.381L212.61 344.561L211.69 344.691L211.18 344.511L210.01 343.871L208.96 342.921L207.9 341.651L206.69 340.551L203.66 338.651L199.78 337.181L195.19 336.191L193.02 336.081L190.99 336.441L189.46 337.061L187.7 337.561L186.19 338.411L185.26 339.251L184.35 340.501L183.84 341.831L183.78 343.621L184.07 344.831L185.15 346.731L186.95 348.341L189.5 349.681L192.61 350.631L200.47 352.561L208.12 354.821L215.16 358.681L217.3 360.511L219.16 362.761L219.75 364.251L220.79 367.841L221.37 371.601L221.5 375.521L221.16 379.611L221.07 380.421L220.52 381.441L219.6 382.841L218.97 384.801L217.22 387.361L215.6 389.061L213.73 390.541L212.5 391.131L211.76 391.981L211.73 392.031L205.99 394.861L204.1 395.041L202.41 395.631L202.14 395.771L189.75 395.931L183.61 394.181L177.71 391.881L174.89 390.531L169.98 386.871L167.4 383.891L167.27 382.541L167.63 381.501L168.41 380.511L168.96 380.211L169.27 379.811L169.32 379.231L171.66 376.361L173.35 375.081L174.21 374.101L174.92 372.961L175.51 372.771L176.31 372.811L177.16 373.161L178.97 375.351L181.04 377.221L182.65 378.361L187.64 381.311L190.22 382.341L192.89 382.631L195.04 382.901L197.17 382.871L200.11 382.301L200.87 382.531L201.35 382.321L201.8 381.821L202.91 381.331H203.51L204.26 381.071L204.96 380.491L205.19 380.021L204.99 379.921L205.38 379.791L206.45 378.961L207.17 377.961L207.49 377.001L207.58 375.931L207.79 374.141L207.4 372.531L207.5 372.171L207.36 371.781L207.19 371.651L206.97 371.701L206.77 371.281L206.85 371.231L205.34 369.721L203.63 368.601L202 367.961L200.22 367.611L194.69 366.161L186.78 363.961L178.7 360.431L178.02 360.051L177.58 359.541L177.54 359.471L174.99 357.101L172.88 354.421L171.42 351.851L170.3 349.051L169.82 345.801L169.73 342.561L170 339.651L170.51 338.661L170.79 337.621L170.83 336.231L172.9 332.191L177 328.011L177.21 327.731L177.73 327.451L186.04 323.721L186.63 323.571L187.55 323.761L188.37 323.651L189.27 323.061L199.84 323.031Z" fill="black"/>
<path d="M337.36 322.971L338.83 323.591L340.14 323.781L341.53 323.661L341.8 323.621L342.89 323.941L343.78 324.561L344.6 324.691L344.99 324.581L348.21 325.951L351.29 327.581L355.95 330.741L360.23 334.551L360.77 335.281L361.07 336.121L361.13 337.031L360.93 337.911L360.11 339.331L358.66 341.071L356.45 343.221L354.01 345.281L353.15 345.791L352.28 345.971L351.35 345.801L350.42 345.271L345.49 341.281L344.99 340.581L344.37 340.051L342.87 339.531L340.95 338.541L338.04 337.471L334.95 336.811L333.97 336.381L332.97 336.181L331.6 336.301L330.2 336.861L326.6 337.551L323.25 338.791L320.67 340.211L318.25 342.011L316.39 343.261L315.09 344.651L313.14 347.881L311.67 351.141L310.68 354.451L310.18 357.791L310.17 361.311L310.69 364.871L311.73 368.481L313.3 372.121L314.38 373.661L316.18 375.381L316.65 375.891L317.65 377.111L318.81 378.081L319.93 378.721L321.16 379.181L322.2 379.671L324.95 380.891L327.06 381.551L330.13 382.071L333.08 382.211L335.91 381.961L338.62 381.321L340.88 380.451L343.04 379.291L345.12 377.841L347.1 376.101L348.09 375.101L348.31 374.291L348.27 374.181L348.57 373.381L348.62 372.591L348.5 371.971L348.82 370.541L348.78 369.671L348.39 369.001L347.8 368.471L347.05 368.131L346.21 368.021L332.66 368.121L332.04 365.351L331.71 362.371L331.68 359.181L331.93 355.791L332.17 355.321L332.65 355.131L354.95 354.961L358.92 355.051L361.68 355.361L362.55 355.901L363.19 357.091L363.38 358.181L363.17 358.891L363.3 359.941L363.07 374.801L362.74 378.691L361.91 381.481L360.13 384.311L357.63 386.811L354.77 388.781L351.24 391.141L347.2 393.111L343.02 394.611L338.21 395.731L333.23 396.261L331.07 396.211L327.14 396.241L325.99 396.341L324.75 395.721L323.71 395.221L322.79 395.201L322.42 395.351L313.98 391.991L313.71 391.541L313.27 391.311L312.67 391.261L312.25 391.011L311.76 390.331L311.17 390.001L310.7 389.971L306.85 386.631L303.45 382.921L301.23 379.971L299.24 376.811L299.54 376.421L299.42 376.041L299.33 375.981L299.18 375.991L299.08 376.271L298.53 374.981L298.6 374.251L298.4 373.751L297.92 373.471L297.68 373.031L297.54 372.291L297.72 371.651L297.19 370.911L296.48 368.961L296.63 367.781L296.38 366.781L296.17 366.431L295.75 360.991L295.87 355.591L296.03 353.861L298.16 346.511L299.1 344.081L299.96 342.501L301.55 339.961L302.88 337.231L303.04 337.011L303.46 336.691L309.31 330.741L309.99 330.021L310.7 329.671L319.91 324.761L320.44 324.701L327.76 323.041L337.36 322.971Z" fill="black"/>
<path d="M36.16 324.851L30.25 323.841L30.01 323.821L0 324.231L0.880005 323.481L1.84003 323.071L2.45001 323.001L16.3 322.961L27.2 323.141L31.54 323.641L36.16 324.851Z" fill="black"/>
<path d="M141.709 323.53L93.2791 324L92.6591 324.13L92.1391 324.48L91.7891 325L91.6691 325.62L91.6291 394.29L91.0291 392.87L90.8291 391.75L90.7891 359.02L91.0691 326.03L91.2091 325.38L91.6691 324.58L92.2591 323.94L93.5391 323.25L95.1991 323L119.619 322.98L141.709 323.53Z" fill="black"/>
<path d="M189.269 323.061L188.369 323.651L187.549 323.761L186.629 323.571L189.269 323.061Z" fill="black"/>
<path d="M204.51 323.981H202.86L201.3 323.671L199.84 323.031L202.3 323.291L204.51 323.981Z" fill="black"/>
<path d="M263.599 323.481L255.919 323.511L252.059 324.351L252.659 324.061L255.089 323.251L257.729 322.871L260.559 322.951L263.599 323.481Z" fill="black"/>
<path d="M327.758 323.041L320.438 324.701L322.878 323.701L325.258 323.181L327.758 323.041Z" fill="black"/>
<path d="M341.529 323.661L340.139 323.781L338.829 323.591L337.359 322.971L339.099 323.061L340.759 323.401L341.529 323.661Z" fill="black"/>
<path d="M412.68 332.62L407.28 325.35L406.669 324.71L405.93 324.23L405.1 323.93L404.22 323.84L393.02 324L395.75 323.24L398.609 322.82L401.59 322.74L404.7 323.01L405.33 323.17L406.359 323.85L407.419 325.18L407.859 325.8L412.68 332.62Z" fill="black"/>
<path d="M439.051 394.39L441.661 395.1L444.571 395.47L447.771 395.51L451.261 395.2L451.951 394.98L452.521 394.52L452.901 393.9L453.031 393.18V325.77L452.891 325.06L452.501 324.44L451.921 324.01L451.211 323.83L442.951 323.71L440.591 324.09L439.681 324.5L438.961 325.05L439.391 324.01L440.041 323.4L440.711 323.21L445.781 323L450.951 323.19L452.181 323.63L453.001 324.65L453.771 327.2L454.031 330V388.5L453.771 391.76L452.911 394.59L452.151 395.52L451.031 395.92L445.871 396.1L440.821 395.91L439.871 395.6L439.381 395.11L439.051 394.39Z" fill="black"/>
<path d="M263.598 323.48L265.028 323.73L265.908 324.38L266.218 325.14L266.208 326.13L266.188 327.7L265.938 360.46L266.118 393.23L265.788 394.45L265.128 395.05L256.318 395.23L255.798 395.18L251.898 394.71L252.058 324.35L255.918 323.51L263.598 323.48Z" fill="black"/>
<path d="M412.68 332.621L413.29 333.301L413.609 334.011L418.2 340.391L422.72 346.401L422.78 346.831L423.41 347.531L426.51 352.281L429.79 356.891L435.33 363.821L435.669 363.881L436.59 365.881L437.94 367.231L438.31 367.451L438.59 367.401L438.68 367.221L438.46 366.821L438.69 366.701L438.84 366.461L438.859 365.921L438.669 365.421L438.57 364.431L438.77 363.101L439 361.301L438.91 344.631L438.6 327.991L438.96 325.051L439.68 324.501L440.59 324.091L442.95 323.711L451.21 323.831L451.919 324.011L452.5 324.441L452.89 325.061L453.03 325.771V393.181L452.9 393.901L452.52 394.521L451.95 394.981L451.26 395.201L447.77 395.511L444.57 395.471L441.66 395.101L439.049 394.391L438.06 392.471L432.93 385.721L431.99 384.811L431.22 383.521L431.1 382.961L430.89 382.721L430.59 382.821L422.43 371.851L422.21 371.031L421.799 370.381L420.859 369.751L416.18 363.551L416.07 362.931L415.41 362.521L413.08 359.521L412.33 357.961L410.9 356.731L409.74 355.181L408.14 353.841L408.48 353.211L408.23 352.711L407.5 352.231L407.43 352.201L407.15 352.261L407.03 352.521L407.22 386.841L406.64 395.001L397.2 395.251L394.82 394.941L393.9 394.541L393.15 393.971L393.02 324.001L404.22 323.841L405.1 323.931L405.93 324.231L406.669 324.711L407.28 325.351L412.68 332.621Z" fill="black"/>
<path d="M36.16 324.85L39.37 325.98L50.39 332.94L51.93 334.14L52.93 335.49L55.44 339.1L57.48 342.51L59.02 345.71L60.09 348.7L61.06 353.06L61.52 358.11L61.3 363.27L60.39 368.55L58.8 373.93L57.71 376.35L56 379.17L53.68 382.4L50.74 386.02L49.55 387.21L48.45 387.97L39.9 392.96L39.68 393.21L39.02 393.13L38.2 393.31L35.51 394.1L32.67 394.63L29.59 394.93L26.13 395.01L2.93002 395.1L0.470001 394.73L0.26001 394.57L0.140015 394.42L0.0299988 394L0 324.23L30.01 323.82L30.25 323.84L36.16 324.85ZM16.03 381.75L25.64 381.72L29.4 381.59L32.91 380.76L34.9 379.93L36.8 378.85L38.61 377.52L40.34 375.94L40.45 375.68L40.88 375.2L41.55 374.85L43.7 372.26L45.28 369.42L45.93 367.68L46.39 365.87L46.76 361.99L46.56 355.95L46.58 354.31L46.29 352.76L45.83 351.57L45.16 350.43L42.47 345.75L41.66 344.45L40.65 343.38L38.95 342.29L31.91 338.61L28.5 337.59L24.6 337.02L20.12 336.86L14.38 337.1L13.8 337.37L13.57 337.96L13.45 380.26L13.58 381.35L14 381.92L14.09 381.96L14.91 382.04L16.03 381.75Z" fill="black"/>
<path d="M141.709 323.531L142.319 325.581L141.989 335.011L141.849 335.841L141.499 336.481L140.579 337.071L139.209 337.251L106.219 336.971H106.209L105.339 337.341L104.989 338.221L105.039 351.021L105.269 351.921L105.679 352.341L105.949 352.411L106.249 352.021H133.219L134.199 352.391L134.699 353.321L135.319 357.881L134.969 360.181L135.039 361.721L135.349 363.271L135.069 364.351L134.249 365.611L122.649 365.051L115.699 365.001L105.839 365.381L105.249 365.651L105.009 366.251L105.149 380.911L105.349 381.481L105.359 381.491L105.389 381.511L105.999 381.641L106.679 381.751L108.289 381.901L108.969 381.771L111.349 381.711L113.779 381.961L114.669 382.031L125.989 381.961L139.429 382.061L142.439 382.521L142.269 392.741L142.089 393.951L141.569 394.781L140.789 395.221L139.719 395.351L114.429 395.041L93.4489 395.201L92.8289 395.131L91.7289 394.481L91.6289 394.291L91.6689 325.621L91.7889 325.001L92.1389 324.481L92.6589 324.131L93.2789 324.001L141.709 323.531Z" fill="black"/>
<path d="M186.04 323.721L177.73 327.451L179.55 326.161L181.48 325.121L183.7 324.271L186.04 323.721Z" fill="black"/>
<path d="M344.991 324.581L344.601 324.691L343.781 324.561L342.891 323.941L344.171 324.151L344.991 324.581Z" fill="black"/>
<path d="M211.24 326.631L209.1 326.011L207.09 324.891L209.13 325.521L211.24 326.631Z" fill="black"/>
<path d="M319.909 324.76L310.699 329.67L314.139 327.29L316.929 325.87L319.909 324.76Z" fill="black"/>
<path d="M438.961 325.051L438.601 327.991L438.301 327.441L438.311 326.341L438.961 325.051Z" fill="black"/>
<path d="M142.318 325.58L142.848 328.27L143.078 330.86L142.988 333.34L142.598 335.73L142.228 336.62L141.578 337.33L140.738 337.8L139.788 337.96H106.498L106.078 338.14L105.908 338.57L106.248 352.02L105.948 352.41L105.678 352.34L105.268 351.92L105.038 351.02L104.988 338.22L105.338 337.34L106.208 336.97H106.218L139.208 337.25L140.578 337.07L141.498 336.48L141.848 335.84L141.988 335.01L142.318 325.58Z" fill="black"/>
<path d="M50.3911 332.94L39.3711 325.98L42.5311 327.23L45.4611 328.85L48.0311 330.73L50.3911 332.94Z" fill="black"/>
<path d="M266.208 326.131L266.557 326.641L266.617 327.111L266.188 327.701L266.208 326.131Z" fill="black"/>
<path d="M217.419 330.711L212.129 327.221L213.959 328.001L215.599 329.031L217.419 330.711Z" fill="black"/>
<path d="M176.998 328.01L172.898 332.19L173.788 330.66L174.928 329.39L176.998 328.01Z" fill="black"/>
<path d="M219.428 332.371L217.908 331.291L217.418 330.711L218.328 331.211L219.058 331.861L219.428 332.371Z" fill="black"/>
<path d="M309.311 330.74L303.461 336.69L304.611 334.87L305.981 333.27L307.541 331.9L309.311 330.74Z" fill="black"/>
<path d="M50.7383 386.02L53.6783 382.4L55.9983 379.17L57.7083 376.35L58.7983 373.93L60.3883 368.55L61.2983 363.27L61.5183 358.11L61.0583 353.06L60.0883 348.7L59.0183 345.71L57.4783 342.51L55.4383 339.1L52.9283 335.49L56.1783 339.43L58.7083 343.72L60.4383 348.06L61.5383 352.7L62.1083 357.9L62.0483 362.87L61.3683 367.62L60.0683 372.13L58.4383 375.86L56.3383 379.42L53.7683 382.81L50.7383 386.02Z" fill="black"/>
<path d="M220 336.07L219.12 337.8L218.03 339.35L216.23 341.18L217.58 338.79L218.7 337.37L220 336.07Z" fill="black"/>
<path d="M170 339.65L170.11 338.32L170.45 337.07L170.83 336.23L170.79 337.62L170.51 338.66L170 339.65Z" fill="black"/>
<path d="M208.961 342.92L203.711 339.51L201.381 338.3L198.661 337.38L195.771 336.86L192.701 336.76L189.461 337.06L190.991 336.44L193.021 336.08L195.191 336.19L199.781 337.18L203.661 338.65L206.691 340.55L207.901 341.65L208.961 342.92Z" fill="black"/>
<path d="M334.949 336.81L330.199 336.86L331.599 336.3L332.969 336.18L333.969 336.38L334.949 336.81Z" fill="black"/>
<path d="M31.9092 338.611L29.0892 338.181L25.9392 337.931L17.5992 337.941L14.3292 338.011L14.2292 338.021L13.9492 338.391V379.811L14.0592 380.261L14.3692 380.611L16.0292 381.751L14.9092 382.041L14.0892 381.961L13.9992 381.921L13.5792 381.351L13.4492 380.261L13.5692 337.961L13.7992 337.371L14.3792 337.101L20.1192 336.861L24.5992 337.021L28.4992 337.591L31.9092 338.611Z" fill="black"/>
<path d="M302.877 337.23L301.547 339.96L299.957 342.5L299.097 344.08L298.157 346.51L296.027 353.86L296.897 349.55L298.257 345.44L300.277 341.22L302.877 337.23Z" fill="black"/>
<path d="M345.491 341.281L342.871 339.531L344.371 340.051L344.991 340.581L345.491 341.281Z" fill="black"/>
<path d="M318.248 342.01L315.698 344.76L313.728 347.43L312.348 350.03L311.538 352.55L310.848 356.82L310.628 360.73L310.878 364.28L311.598 367.47L313.088 370.53L316.178 375.38L314.378 373.66L313.298 372.12L311.728 368.48L310.688 364.87L310.168 361.31L310.178 357.79L310.678 354.45L311.668 351.14L313.138 347.88L315.088 344.65L316.388 343.26L318.248 342.01Z" fill="black"/>
<path d="M42.4692 345.751L38.9492 342.291L40.6492 343.381L41.6592 344.451L42.4692 345.751Z" fill="black"/>
<path d="M423.409 347.53L422.779 346.83L422.719 346.4L423.229 346.89L423.419 347.39L423.409 347.53Z" fill="black"/>
<path d="M435.33 363.821L429.79 356.891L426.51 352.281L423.41 347.531L435.33 363.821Z" fill="black"/>
<path d="M177.541 359.471L174.731 357.461L172.581 355.011L171.141 352.241L170.301 349.051L171.421 351.851L172.881 354.421L174.991 357.101L177.541 359.471Z" fill="black"/>
<path d="M46.5602 355.95L45.1602 350.43L45.8302 351.57L46.2902 352.76L46.5802 354.31L46.5602 355.95Z" fill="black"/>
<path d="M408.137 353.841L407.937 363.591L408.027 371.731L407.957 379.531L407.217 386.841L407.027 352.521L407.147 352.261L407.427 352.201L407.497 352.231L408.227 352.711L408.477 353.211L408.137 353.841Z" fill="black"/>
<path d="M215.161 358.68L208.121 354.82L211.021 355.95L213.641 357.49L215.161 358.68Z" fill="black"/>
<path d="M413.078 359.52L412.138 358.66L411.398 357.68L410.898 356.73L412.328 357.96L413.078 359.52Z" fill="black"/>
<path d="M135.319 357.881L135.699 360.041L135.659 361.641L135.349 363.271L135.039 361.721L134.969 360.181L135.319 357.881Z" fill="black"/>
<path d="M363.378 358.18L363.608 358.99L363.298 359.94L363.168 358.89L363.378 358.18Z" fill="black"/>
<path d="M186.779 363.96L184.399 363.41L182.149 362.56L180.379 361.6L178.699 360.43L186.779 363.96Z" fill="black"/>
<path d="M41.5508 374.85L43.3608 371.83L44.8308 368.67L45.9608 365.4L46.7608 361.99L46.3908 365.87L45.9308 367.68L45.2808 369.42L43.7008 372.26L41.5508 374.85Z" fill="black"/>
<path d="M416.18 363.55L415.41 362.52L416.07 362.93L416.18 363.55Z" fill="black"/>
<path d="M219.16 362.76L220.83 365.92L221.86 369.22L222.2 371.71L222.19 374.27L221.85 376.9L221.16 379.61L221.5 375.52L221.37 371.6L220.79 367.84L219.75 364.25L219.16 362.76Z" fill="black"/>
<path d="M435.668 363.881L436.968 365.541L438.458 366.821L438.678 367.221L438.588 367.401L438.308 367.451L437.938 367.231L436.588 365.881L435.668 363.881Z" fill="black"/>
<path d="M134.248 365.61L106.338 365.96L106.048 366.09L105.928 366.38L105.998 381.64L105.388 381.51L105.358 381.49L105.348 381.48L105.148 380.91L105.008 366.25L105.248 365.65L105.838 365.38L115.698 365L122.648 365.05L134.248 365.61Z" fill="black"/>
<path d="M296.481 368.96L296.331 368.56L296.141 367.53L296.171 366.43L296.381 366.78L296.631 367.78L296.481 368.96Z" fill="black"/>
<path d="M206.849 371.231L200.219 367.611L201.999 367.961L203.629 368.601L205.339 369.721L206.849 371.231Z" fill="black"/>
<path d="M348.5 371.97L347.88 370.22L347.84 369.62L347.66 369.19L347.23 369L343.4 369.03L337.12 368.94L334.78 368.63L332.66 368.12L346.21 368.02L347.05 368.13L347.8 368.47L348.39 369L348.78 369.67L348.82 370.54L348.5 371.97Z" fill="black"/>
<path d="M422.429 371.85L420.859 369.75L421.799 370.38L422.209 371.03L422.429 371.85Z" fill="black"/>
<path d="M297.538 372.29L297.278 371.66L297.188 370.91L297.718 371.65L297.538 372.29Z" fill="black"/>
<path d="M207.399 372.53L206.979 371.74L206.969 371.7L207.189 371.65L207.359 371.78L207.499 372.17L207.399 372.53Z" fill="black"/>
<path d="M174.92 372.961L174.21 374.101L173.35 375.081L171.66 376.361L172.87 374.601L173.82 373.711L174.92 372.961Z" fill="black"/>
<path d="M182.65 378.36L181.04 377.22L178.97 375.35L177.16 373.16L182.65 378.36Z" fill="black"/>
<path d="M298.528 374.981L297.938 373.591L297.918 373.471L298.398 373.751L298.598 374.251L298.528 374.981Z" fill="black"/>
<path d="M347.098 376.1L347.428 375.34L348.268 374.18L348.308 374.29L348.088 375.1L347.098 376.1Z" fill="black"/>
<path d="M40.3406 375.941L38.6106 377.521L36.8006 378.851L34.9006 379.931L32.9106 380.761L29.4006 381.591L25.6406 381.721L32.9006 380.171L34.4006 379.681L36.1306 378.821L40.3406 375.941Z" fill="black"/>
<path d="M205.379 379.79L207.579 375.93L207.489 377L207.169 377.96L206.449 378.96L205.379 379.79Z" fill="black"/>
<path d="M299.238 376.81L299.078 376.27L299.178 375.99L299.328 375.98L299.418 376.04L299.538 376.42L299.238 376.81Z" fill="black"/>
<path d="M321.158 379.181L319.928 378.721L318.808 378.081L317.648 377.111L316.648 375.891L321.158 379.181Z" fill="black"/>
<path d="M169.32 379.23L169.27 379.81L168.96 380.21L168.41 380.51L168.72 379.87L169.32 379.23Z" fill="black"/>
<path d="M204.99 379.92L205.19 380.02L204.96 380.49L204.26 381.07L203.51 381.33H202.91L204.99 379.92Z" fill="black"/>
<path d="M108.97 381.77L108.29 381.9L106.68 381.75L107.03 381.4L107.46 381.18L108.05 381.07L108.52 381.19L108.97 381.77Z" fill="black"/>
<path d="M192.891 382.631L190.221 382.341L187.641 381.311L192.891 382.631Z" fill="black"/>
<path d="M220.519 381.441L220.069 383.071L218.969 384.801L219.599 382.841L220.519 381.441Z" fill="black"/>
<path d="M201.799 381.82L201.349 382.32L200.869 382.53L200.109 382.3L201.799 381.82Z" fill="black"/>
<path d="M91.7309 394.48L92.8309 395.13L93.4509 395.2L114.431 395.04L139.721 395.35L140.791 395.22L141.571 394.78L142.091 393.95L142.271 392.74L142.441 382.52L142.901 393.96L142.781 394.7L142.391 395.33L141.781 395.77L141.061 395.93H141.021L96.2009 395.91L94.2209 395.74L92.2109 395.26L91.8109 394.98L91.7109 394.59L91.7309 394.48Z" fill="black"/>
<path d="M431.22 383.521L430.59 382.821L430.89 382.721L431.1 382.961L431.22 383.521Z" fill="black"/>
<path d="M169.978 386.871L168.438 385.801L167.818 384.941L167.398 383.891L169.978 386.871Z" fill="black"/>
<path d="M357.631 386.811L355.201 389.191L351.981 391.411L348.211 393.311L343.911 394.901L339.371 396.051L334.881 396.681L330.681 396.741L327.141 396.241L331.071 396.211L333.231 396.261L338.211 395.731L343.021 394.611L347.201 393.111L351.241 391.141L354.771 388.781L357.631 386.811Z" fill="black"/>
<path d="M48.4484 387.971L46.6084 389.461L44.6484 390.761L42.3384 391.971L39.8984 392.961L48.4484 387.971Z" fill="black"/>
<path d="M312.249 391.011L311.049 390.331L310.699 389.971L311.169 390.001L311.759 390.331L312.249 391.011Z" fill="black"/>
<path d="M189.751 395.931L187.301 395.671L184.931 395.211L182.641 394.571L180.431 393.731L177.591 392.301L174.891 390.531L177.711 391.881L183.611 394.181L189.751 395.931Z" fill="black"/>
<path d="M213.73 390.541L212.78 391.401L211.73 392.031L211.76 391.981L212.5 391.131L213.73 390.541Z" fill="black"/>
<path d="M313.978 391.99L312.668 391.26L313.268 391.31L313.708 391.54L313.978 391.99Z" fill="black"/>
<path d="M39.6788 393.211L36.2288 394.421L32.9188 395.281L29.7388 395.801L26.6988 395.981L2.19876 396.001L1.33878 395.801L0.838776 395.381L0.46875 394.731L2.92877 395.101L26.1288 395.011L29.5888 394.931L32.6688 394.631L35.5088 394.101L38.1988 393.311L39.0188 393.131L39.6788 393.211Z" fill="black"/>
<path d="M406.638 395.001L403.898 395.741L401.018 396.131L397.998 396.171L394.838 395.871L394.038 395.641L393.488 395.201L393.218 394.661L393.148 393.971L393.898 394.541L394.818 394.941L397.198 395.251L406.638 395.001Z" fill="black"/>
<path d="M265.128 395.051L264.738 395.761L264.198 395.961L260.618 396.201L257.378 396.071L254.468 395.581L251.898 394.711L255.798 395.181L256.318 395.231L265.128 395.051Z" fill="black"/>
<path d="M205.991 394.861L204.161 395.461L202.141 395.771L202.411 395.631L204.101 395.041L205.991 394.861Z" fill="black"/>
<path d="M324.748 395.721L322.418 395.351L322.788 395.201L323.708 395.221L324.748 395.721Z" fill="black"/>
<path d="M234.417 421.031L235.218 421.521L236.367 421.851H237.667L245.628 426.321L244.708 428.361L242.958 430.761L241.987 431.631L240.948 432.041L240.518 432.081L239.677 431.701L238.088 430.291L236.328 429.461L235.917 429.351L233.268 428.251L230.628 427.931L228.677 428.191L226.728 428.881L225.518 429.081L224.768 429.591L224.148 430.431L222.438 432.001L221.548 432.751L221.138 433.511L220.948 434.451L220.298 436.781L220.038 438.961L220.148 441.011L220.628 442.921L221.467 444.651L222.678 446.251L224.238 447.721L226.158 449.051L227.917 449.961L229.747 450.461L231.888 450.541L234.107 450.091L235.607 449.611L237.057 449.121L237.997 448.501L238.547 447.791L238.978 446.791L239.388 446.131L239.578 445.441L239.448 444.301L239.188 443.961L239.098 443.951L238.688 444.261L238.078 444.031L237.658 443.951L230.917 443.901L230.228 443.611L229.948 442.931V438.111L230.247 437.381L230.978 437.081H245.177L245.628 437.221L245.927 437.591L246.268 438.821L246.338 440.041L246.328 440.111L246.198 451.521L244.417 453.031L243.338 453.251L242.788 453.721L242.708 454.021L238.758 456.051L237.557 455.981L236.588 456.291L235.888 456.941L235.737 457.061L228.268 457.311L225.878 456.841L223.688 456.131L221.698 455.161L219.908 453.941L219.518 453.621L215.728 449.531L213.168 443.531L213.057 443.011L212.688 439.051L213.038 434.951L213.527 434.251L213.678 433.541L213.548 432.921L215.838 428.261L222.018 423.011L224.078 422.061L226.478 421.321L228.997 420.901L231.648 420.801L234.417 421.031Z" fill="black"/>
<path d="M326.229 423.181L329.969 426.401L330.429 427.241L330.229 428.171L328.539 430.781L328.029 431.371L327.439 431.751L326.129 431.931L325.419 431.661L321.529 428.861L320.849 428.201L320.169 427.971L319.429 428.181L318.349 427.981L316.429 427.991L314.459 428.461L313.029 429.151L312.319 430.081L312.339 431.311L313.139 432.811L314.859 434.011L317.049 435.201L318.469 435.571L319.979 435.681L322.189 436.131L324.399 437.001L326.699 438.341L328.549 439.861L329.939 441.541L330.889 443.381L331.379 445.381L331.429 447.531L331.029 449.851L330.199 452.331L326.999 455.251L324.869 456.011L323.779 456.751L322.669 457.191L321.569 457.311L318.879 457.031L315.899 457.321L315.159 457.311L314.549 457.081L314.269 456.861L312.939 456.191L311.739 455.871L310.459 455.771L308.699 454.841L307.129 453.691L305.429 451.931L304.969 450.871L305.139 449.731L306.019 448.041L306.959 446.771L307.959 445.991L308.899 445.751L309.719 445.921L310.589 446.511L311.199 447.511L311.969 448.311L313.559 449.221L315.659 449.821L317.639 450.741L319.589 450.981L321.329 450.591L323.029 449.631L323.479 448.841L324.039 448.301L324.499 447.591L324.579 446.961L323.999 446.151L323.729 445.541L322.919 444.591L321.719 443.861L320.159 442.991L318.529 442.461L316.669 442.271L313.519 441.431L310.889 440.281L308.809 438.841L307.209 437.071L306.559 436.021L306.779 435.491L306.629 434.961L306.129 434.411L305.819 431.801L305.969 429.261L306.309 427.611L306.859 425.981L308.139 425.071L308.759 424.001L308.809 423.681L312.659 421.611L313.059 421.831L314.019 421.741L315.189 420.961L318.409 420.871L321.509 421.311L323.909 422.071L326.229 423.181Z" fill="black"/>
<path d="M140.231 421.451L132.881 421.881L125.581 421.641L125.321 421.621L124.281 421.861L123.121 422.721L123.461 421.991L123.951 421.461L124.541 421.151L125.321 421.021L130.681 420.871L136.021 421.061L140.231 421.451Z" fill="black"/>
<path d="M185.23 421.9L179.7 421.86L177.8 422.22L177.1 422.59L176.55 423.1L176.25 423.57L176.97 421.9L177.3 421.49L178.14 421.06L178.3 421.04L180.84 420.83L182.82 420.9L184.3 421.27L185.23 421.9Z" fill="black"/>
<path d="M237.668 421.851H236.368L235.218 421.521L234.418 421.031L235.688 421.151L236.878 421.481L237.668 421.851Z" fill="black"/>
<path d="M315.19 420.961L314.02 421.741L313.06 421.831L312.66 421.611L315.19 420.961Z" fill="black"/>
<path d="M287.3 421.531L284.93 421.931L282.75 421.621L284.36 421.211H285.81L287.3 421.531Z" fill="black"/>
<path d="M140.23 421.451L142.09 422.071L143.79 422.961L144.55 423.491L147.23 426.011L147.29 426.341L147.61 427.021L148.17 427.631L149.03 429.201L149.56 431.411L149.11 436.911L148.73 438.551L148.01 440.231L146.21 442.431L143.91 444.311L141.98 444.761L139.9 445.981L130.82 445.831L130.39 446.001L130.21 446.431V455.861L129.92 456.571L129.22 456.881L123.53 457.051V457.041L123.64 455.671L123.5 454.281L123.77 442.101L123.82 431.241L123.44 427.061L123.17 426.701L122.93 426.601L123.12 422.721L124.28 421.861L125.32 421.621L125.58 421.641L132.88 421.881L140.23 421.451ZM130.31 428.861L130.1 429.731L130.19 438.341L130.29 438.671L130.57 438.871H130.96L131 438.691L134.64 439.121L136.4 439.041L138.1 438.761L138.75 438.601L139.78 438.521L140.65 438.181L141.47 437.441L142.07 436.341L142.42 435.101L142.54 433.861L142.28 432.091L141.54 430.311L141 429.611L140.27 429.061L138.16 428.301L135.14 428.021L131.12 428.221L130.94 428.241L130.58 428.371L130.31 428.861Z" fill="black"/>
<path d="M282.751 421.621L284.931 421.931L287.301 421.531L288.471 423.111L288.911 424.921L288.691 427.031L288.091 427.861L287.361 428.321L286.631 428.411L278.091 428.231L274.391 428.411L271.071 428.771L271.001 435.441L271.141 435.811L271.501 435.971L285.461 436.501L285.701 439.771V439.811L285.571 440.721L285.101 441.501L284.361 442.051L283.471 442.261L271.281 442.711L270.881 444.801L270.781 447.031L271.011 449.301L271.201 449.681L271.571 449.881L272.941 450.141L287.721 450.271L288.481 450.211L288.801 450.361L289.001 450.751V455.941L288.701 456.671L287.961 456.971H264.581L264.141 456.791L263.961 456.351V422.831L264.191 422.261L264.751 422.011L282.751 421.621Z" fill="black"/>
<path d="M185.231 421.901L186.901 424.781L187.961 427.221L188.761 429.781L192.141 439.191L192.821 440.391L193.001 441.491L198.011 455.141L198.071 456.011L197.821 456.581L197.121 456.871L192.141 456.951L191.041 456.601L190.281 455.721L189.071 453.061L188.931 451.811L188.431 450.871L187.781 450.361L175.151 450.031L174.261 450.301L173.721 451.041L172.231 455.641L171.511 456.631L170.351 457.011H166.401L165.811 456.891L165.311 456.551L164.991 456.041L164.891 455.451V455.401L165.211 453.751L165.941 452.061L168.851 443.391L168.901 443.181L169.051 443.351L175.701 425.011L175.651 424.881L175.731 424.281L176.251 423.571L176.551 423.101L177.101 422.591L177.801 422.221L179.701 421.861L185.231 421.901ZM177.421 442.441L177.151 442.361L177.071 442.661L177.201 442.941L177.481 443.061H184.981H185.031L185.441 442.831L185.541 442.381L185.441 441.951L184.631 440.281L184.681 439.381L184.411 438.751L183.951 438.421L183.681 437.871L183.651 437.411L182.981 434.911L181.701 432.451L181.481 432.121L181.671 431.871L181.561 431.611L181.431 431.501L180.841 431.411L180.411 431.831L177.101 441.421L177.001 441.941L177.111 442.281L177.421 442.441Z" fill="black"/>
<path d="M222.02 423.01L215.84 428.26L216.78 426.68L217.94 425.34L219.79 423.97L222.02 423.01Z" fill="black"/>
<path d="M328.54 430.78L330.23 428.17L330.43 427.24L329.97 426.4L326.23 423.18L328.14 424.06L329.63 425.09L330.59 426.25L330.91 427.37L330.79 428.2L330.34 429.08L329.61 429.91L328.54 430.78Z" fill="black"/>
<path d="M147.231 426.01L144.551 423.49L145.561 424.04L146.391 424.75L147.231 426.01Z" fill="black"/>
<path d="M308.809 423.68L308.759 424L308.139 425.07L306.859 425.98L307.869 424.46L308.809 423.68Z" fill="black"/>
<path d="M148.17 427.63L147.61 427.02L147.29 426.34L147.23 426.01L147.35 426.1L147.87 426.74L148.17 427.63Z" fill="black"/>
<path d="M245.628 426.32L245.498 427.63L245.068 428.96L244.328 430.23L243.278 431.43L241.928 432.57L241.048 432.86L240.178 432.56L235.918 429.35L236.328 429.46L238.088 430.29L239.678 431.7L240.518 432.08L240.948 432.04L241.988 431.63L242.958 430.76L244.708 428.36L245.628 426.32Z" fill="black"/>
<path d="M123.528 457.05L122.948 454.95L122.758 452.48L122.868 428.48L122.928 426.6L123.168 426.7L123.438 427.06L123.818 431.24L123.768 442.1L123.498 454.28L123.638 455.67L123.528 457.04V457.05Z" fill="black"/>
<path d="M288.69 427.031L288.61 427.841L288.28 428.401L287.8 428.691L287.14 428.801L271.07 428.771L274.39 428.411L278.09 428.231L286.63 428.411L287.36 428.321L288.09 427.861L288.69 427.031Z" fill="black"/>
<path d="M321.53 428.861L320.29 428.601L319.43 428.181L320.17 427.971L320.85 428.201L321.53 428.861Z" fill="black"/>
<path d="M138.749 438.6L140.409 437.9L141.549 436.84L142.139 435.45L142.229 433.72L141.859 431.97L141.009 430.55L139.829 429.65L138.159 429.07L136.099 428.83L133.179 428.85L130.309 428.86L130.579 428.37L130.939 428.24L131.119 428.22L135.109 428.02L138.109 428.29L140.249 429.05L140.989 429.6L141.539 430.31L142.279 432.09L142.539 433.86L142.419 435.1L142.069 436.34L141.469 437.44L140.649 438.18L139.779 438.52L138.749 438.6Z" fill="black"/>
<path d="M314.46 428.461L313.5 429.221L312.94 430.121L312.77 431.371L313.14 432.811L312.34 431.311L312.32 430.081L313.03 429.151L314.46 428.461Z" fill="black"/>
<path d="M226.728 428.881L224.148 430.431L224.768 429.591L225.518 429.081L226.728 428.881Z" fill="black"/>
<path d="M130.998 438.69L130.958 438.87H130.568L130.288 438.67L130.188 438.34L130.098 429.73L130.608 429.91L130.818 430.48L130.998 438.69Z" fill="black"/>
<path d="M149.558 431.41L149.958 433.41L149.948 435.36L149.318 437.84L148.008 440.23L148.728 438.55L149.108 436.91L149.558 431.41Z" fill="black"/>
<path d="M181.48 432.12L181.24 432.13L180.67 432.55L180.22 433.52L177.42 442.44L177.11 442.28L177 441.94L177.1 441.42L180.41 431.83L180.84 431.41L181.43 431.5L181.56 431.61L181.67 431.87L181.48 432.12Z" fill="black"/>
<path d="M222.439 432L220.949 434.45L221.139 433.51L221.549 432.75L222.439 432Z" fill="black"/>
<path d="M183.649 437.411L182.429 435.081L181.729 432.661L181.699 432.451L182.979 434.911L183.649 437.411Z" fill="black"/>
<path d="M213.039 434.95L213.549 432.92L213.679 433.54L213.529 434.25L213.039 434.95Z" fill="black"/>
<path d="M319.979 435.68L318.469 435.57L317.049 435.2L314.859 434.01L317.409 434.55L319.979 435.68Z" fill="black"/>
<path d="M306.129 434.41L306.629 434.96L306.779 435.49L306.559 436.02L306.229 435.37L306.109 434.71L306.129 434.41Z" fill="black"/>
<path d="M271.277 442.71L283.467 442.26L284.357 442.05L285.097 441.5L285.567 440.72L285.697 439.81V439.77L285.457 436.5L286.087 439.28V440.49L285.887 441.58L285.297 442.43L284.317 442.75L271.277 442.71Z" fill="black"/>
<path d="M330.198 452.33L331.028 449.85L331.428 447.53L331.378 445.38L330.888 443.38L329.938 441.54L328.548 439.86L326.698 438.34L324.398 437L326.978 438.22L329.028 439.63L330.548 441.25L331.528 443.06L331.998 445.08L331.928 447.3L331.328 449.71L330.198 452.33Z" fill="black"/>
<path d="M184.629 440.28L183.979 438.66L183.949 438.42L184.409 438.75L184.679 439.38L184.629 440.28Z" fill="black"/>
<path d="M246.329 440.111L246.889 443.101L247.029 446.071L246.789 448.801L246.199 451.521L246.329 440.111Z" fill="black"/>
<path d="M193 441.49L194.73 445.23L196.22 449.06L198.01 455.14L193 441.49Z" fill="black"/>
<path d="M321.718 443.86L316.668 442.27L318.528 442.46L320.158 442.99L321.718 443.86Z" fill="black"/>
<path d="M215.728 449.531L214.458 447.851L213.578 445.831L213.168 443.531L215.728 449.531Z" fill="black"/>
<path d="M238.978 446.791L238.688 444.261L239.098 443.951L239.188 443.961L239.448 444.301L239.578 445.441L239.388 446.131L238.978 446.791Z" fill="black"/>
<path d="M143.908 444.311L143.568 444.571L141.878 445.481L139.898 445.981L141.978 444.761L143.908 444.311Z" fill="black"/>
<path d="M324.04 448.3L324 446.15L324.58 446.96L324.5 447.59L324.04 448.3Z" fill="black"/>
<path d="M310.59 446.51L312.01 447.44L313.56 449.22L311.97 448.31L311.2 447.51L310.59 446.51Z" fill="black"/>
<path d="M234.11 450.091L231.89 450.541L229.75 450.461L227.92 449.961L226.16 449.051L234.11 450.091Z" fill="black"/>
<path d="M219.52 453.621L217.74 452.291L216.38 450.681L215.73 449.531L219.52 453.621Z" fill="black"/>
<path d="M323.03 449.631L321.33 450.591L319.59 450.981L317.64 450.741L315.66 449.821L318.95 450.031L323.03 449.631Z" fill="black"/>
<path d="M189.067 453.061L188.277 451.751L187.777 450.361L188.427 450.871L188.927 451.811L189.067 453.061Z" fill="black"/>
<path d="M244.421 453.031L242.711 454.021L242.791 453.721L243.341 453.251L244.421 453.031Z" fill="black"/>
<path d="M326.997 455.25L325.967 456L324.857 456.5L323.777 456.75L324.867 456.01L326.997 455.25Z" fill="black"/>
<path d="M314.271 456.86L312.061 456.51L310.461 455.77L311.741 455.87L312.941 456.19L314.271 456.86Z" fill="black"/>
<path d="M238.761 456.05L235.891 456.94L236.591 456.29L237.561 455.98L238.761 456.05Z" fill="black"/>
<path d="M235.74 457.061L233.27 457.741L230.85 457.851L228.27 457.311L235.74 457.061Z" fill="black"/>
<path d="M321.568 457.311L320.158 457.721L318.078 457.811L315.898 457.321L318.878 457.031L321.568 457.311Z" fill="black"/>
</svg>
