<svg width="688" height="711" viewBox="0 0 688 711" fill="none" xmlns="http://www.w3.org/2000/svg">
<g clip-path="url(#clip0_777_31018)">
<rect width="688" height="711" fill="white"/>
<path d="M585.13 164.07L585.32 165.09L585.94 164.26L589.39 156.33L593.69 145.13L596.99 136.48L605.85 113.24L613.09 94.16L613.31 93.58L614.68 90.53L615.35 89.55L616.19 88.72L617.11 88.11L618.24 87.64L618.68 87.41L618.97 87.06L620.22 84.54L623.22 76.4L626.69 67.75L627.95 65.27L629.57 62.95L631.52 60.87L633.74 59.06L636.05 57.68L638.53 56.65L641.01 56.06L643.58 55.88L647.11 56.41L651.8 57.89L668.57 64.23L670.83 65.25L672.85 66.49L674.54 67.89L675.98 69.51L677.37 71.78L678.37 74.41L678.85 76.48L679.12 78.53L679.18 80.54L679.01 82.53L678.32 85.59L675.88 92.43L671.03 105.12L670.2 108.26L670.16 108.74L670.28 109.26L671.69 112.86L671.82 113.51L671.7 114.17L620.06 248.35L620.02 248.6L620.09 248.81L624.63 257.09L624.72 257.16L624.79 257.08L636.27 231.04L647.3 205.14L657.87 179.38L667.99 153.77L669.12 150.14L669.1 149.68L668.73 149.41L668.59 149.36L664.85 147.94L663.93 147.34L663.36 146.64L663.11 145.76L663.16 144.63L664.2 140.96L668.24 129.63L669.25 127.07L670.28 124.96L671.34 123.31L672.41 122.1L673.82 121.06L675.34 120.38L676.87 120.05H678.51L680.25 120.36L682.09 120.98L683.55 121.72L684.77 122.61L685.74 123.63L686.47 124.79L686.99 126.24L687.2 127.82L687.08 129.5L686.64 131.27L681.53 146.03L675.49 162.48L668.52 180.61L660.63 200.44L653.51 217.67L646.19 234.56L638.7 251.11L631.01 267.31L630.36 269.19L630.19 271.04L630.43 272.55L631.11 274.63L634.95 285.46L638.25 296.38L641.01 307.4L643.22 318.51L644.84 329.33L645.96 340.23L646.57 351.23L646.67 362.31L646.41 370.3L645.84 378.67L644.95 387.42L643.75 396.56L642.66 403.24L641.32 410.05L639.75 416.84L637.92 423.76L635.84 430.8L633.51 437.98L627.93 453.15L623.84 462.88L619.33 472.34L614.4 481.54L609.05 490.48L605.33 496.17L601.43 501.75L595.85 508.98L589.69 516L587.09 519.3L585.83 520.98L585.44 521.63L585.25 523.16L585.24 523.54L584.9 535.04L584.44 541.49L583.54 546.4L582.57 549.47L581.37 552.43L579.89 555.36L578.19 558.16L576.22 560.9L574.04 563.5L571.61 566L569 568.33L566.2 570.51L563.25 572.5L560.1 574.33L556.83 575.95L553.48 577.34L550.06 578.51L546.6 579.43L543.11 580.11L535.52 580.95L526.99 581.22L363.74 580.83L350.57 580.73L339.09 580.72L323.32 580.96L309.44 581.16L301.49 581.06L282.35 580.47L268.33 580.5L255.04 580.82L247.08 580.79L234.5 580.46L225.24 580.56L208.52 580.96L196.94 580.84L184.15 580.39L176.04 580.27L165.41 580.54L147.3 581.05L130.24 581.13L123.88 580.95L117.8 580.53L111.73 579.59L108.88 578.85L106.17 577.92L103.65 576.83L101.25 575.55L98.9997 574.09L96.8797 572.44L93.8597 569.46L91.1997 566.01L88.9597 562.15L87.0897 557.8L86.5397 555.7L86.1497 552.92L85.8997 545.29L86.0297 510.79L85.7897 507.6L85.0597 504.83L84.3597 503.22L83.4297 501.64L75.3797 489.43L70.8297 482.23L66.3097 474.32L62.1197 466.33L58.2497 458.25L54.6997 450.1L51.4797 441.87L48.5697 433.56L45.9897 425.17L43.7397 416.7L41.5597 406.98L39.7997 397.15L38.4597 387.22L37.5297 377.19L37.0297 367.06L36.9297 356.82L37.2597 346.48L37.9997 336.04L39.1797 325.56L40.7097 316.25L43.4397 303.76L46.6397 291.81L50.2997 280.37L54.4297 269.47L59.8297 257.23L66.8497 242.91L70.6097 236.04L74.9597 229.06L79.8697 221.97L85.3697 214.77L85.5997 214.38L85.7397 213.88L86.0197 209.79L85.9597 52.79L86.2297 47.26L87.0397 41.91L88.3797 36.74L90.2397 31.77L92.5297 27.21L95.2997 22.86L98.5297 18.76L102.23 14.91L105.35 12.16L108.6 9.7L111.99 7.50999L115.52 5.59999L119.58 3.81999L123.8 2.37999L128.2 1.28L132.76 0.519989L139.7 0.149994L152.74 0.0299988L553.99 0L564.51 0.169998L568.01 0.529999L571.21 1.29999L574.1 2.48999L576.7 4.07999L578.92 6.00999L580.87 8.31999L582.53 11.02L583.91 14.1L584.49 15.98L584.9 18.14L585.21 23.29L584.95 105.82L585.12 161.54L585.13 164.07ZM519.07 546.69L519 547.19L518.73 547.62L518.32 547.92L517.83 548.03H517.8H487.61L486.69 548.21L485.91 548.71L484.95 549.65L481.69 552.52L480.23 553.39L478.78 553.95L478.66 553.98L476 554.61L473.77 554.91L471.78 554.9L469.97 554.61L467.71 553.8L465.73 552.39L463.27 549.81L463.04 549.55L462.03 548.69L460.36 548.12L457.82 547.99H457.74L387.5 548.04L383.61 547.96L380.51 547.71L379.83 547.53L379.37 547.17L379.13 546.65L379.11 545.95L379.16 545.55L379.33 544.96L379.71 544.47L380.23 544.15L380.83 544.04H459.99L460.78 543.7L461.08 542.9V542.85L461.02 540.44L461.26 538.09L461.63 536.45L462.38 533.28L462.78 530.52L463.3 524.91L463.92 517.39L463.85 512.78L463.58 512.24L463.02 512.02H381.47L380.27 511.85L379.52 511.33L379.27 510.79L379.23 510.1L379.22 510.02L379.19 509.86L379.27 509.22L379.62 508.65L380.19 508.26L380.88 508.12L413.5 507.97L420.34 507.55L425.83 507.19L438.49 507.08L444.51 507.23L452.87 507.84L461.83 507.96L462.69 507.83L463.31 507.46L463.7 506.84L463.85 505.98L464.1 482L464.25 480.33L464.73 478.07L464.91 477.34L464.73 476.45L463.95 476L463.83 475.99L381.12 476.05L380.18 475.91L379.55 475.51L379.2 474.72L379.23 473.59L379.22 473.48L379.21 473.47L379.12 473.15L379.3 472.38L379.97 471.69L381 471.22L382.21 471.05L465.81 471.04L466.64 470.78L467.18 470.1L477.86 442.34L478.05 441.5L477.91 440.84L477.44 440.36L476.63 440.06L474.24 439.93L431.04 440.06L381.23 439.98L380.23 439.83L379.57 439.39L379.29 438.82L379.25 438.06L379.24 437.99L379.28 437.2L379.57 436.62L380.17 436.22L381.09 436.08L440.25 436.03L444.88 435.86L450.74 435.32L454.65 435.16L459.93 435.39L466.18 435.36L468.44 435.38L471.31 435.66L475.41 435.95L477.07 435.83L478.56 435.51L479.97 435.01L480.78 434.45L481.31 433.63L492.56 404.91L492.58 404.2L491.91 403.97L385.24 404.02L381.96 403.79L379.7 403.11L379.36 402.85L379.1 402.38L378.92 401.1L379.19 400.2L379.82 399.6L380.69 399.25L383.61 399.02H383.99L493.62 399.06L494.54 398.77L495.13 398.02L506.39 368.75L506.4 368.15L505.86 367.97L384.49 368.09L382.21 367.88L380.12 367.25L379.64 366.97L379.07 366.23L378.9 365.29L379.15 364.36L379.79 363.63L380.85 363.15L382.25 363L507.41 363.05L508.49 362.74L509.13 361.86L519.79 333.76L519.98 333.06L519.87 332.55L519.74 332.39L519.27 332.09L518.72 331.98L383.99 332.02L383.05 331.98L381.36 331.67L379.7 331.07L379.32 330.79L379.1 330.36L378.93 329.02L379.24 328.1L379.78 327.61L380.53 327.31L382.99 327.1L521.45 327.05L522.33 326.78L522.91 326.05L534.5 296.43L534.52 296.1L534.19 296.01L532.41 295.95L530.92 295.4L529.56 294.14L529.07 293.21V292.49L529.08 292.46L529.81 291.56L530.89 291.19L536.09 290.95L536.61 290.77L536.93 290.33L543.58 272.56L554.05 246.13L561.06 228.49L570.3 205.34L571.49 201.9L572.34 198.25L572.85 194.39L573.02 190.31L572.95 23.33L572.8 20.61L572.35 18.31L571.61 16.5L570.55 15.04L569.17 13.92L567.43 13.1L565.31 12.55L562.79 12.26L551.53 11.99L152.74 12.05L139.44 12.18L132.77 12.57L129.48 13.22L126.28 14.13L122.46 15.59L118.77 17.45L115.21 19.7L111.78 22.34L109.07 24.9L106.52 27.9L104.1 31.34L101.84 35.22L100.15 39.08L98.9497 43.39L98.2297 48.25L97.9897 53.54L97.9797 543.61L98.0697 549.74L98.3197 552.94L99.0697 555.52L100.22 557.93L101.81 560.23L103.74 562.29L106.08 564.17L108.66 565.71L111.4 566.87L114.24 567.64L118.45 567.95L126.77 568.05H244.72L245.58 567.7L245.94 566.84L246.02 523.79L246.18 520.22L246.33 514.78L246.02 508.28L245.92 479.65L246.23 415.04L246.4 405.88L246.47 401.34L246.32 396.72L246.01 388.74L245.95 380.5L246.13 372.02L246.56 363.29L246.57 360.57L246.31 356.62L246.03 351.61L246.01 304.54L246.69 292.74L246.96 278.57V247.79L246.8 237.98L246.4 228.37L246.02 217.16L246.27 208.94L246.58 201L246.27 191.88L246.04 183.61L246.16 171.25L246.32 170.24L246.77 169.56L247.58 169.18H248.74L248.88 169.21L249.59 169.42L250.16 169.78L250.8 170.78L251.01 172.25L250.97 565.28L251.15 566.51L251.67 567.39L252.56 567.92L253.79 568.09L527.75 568.05H528.93L536.01 567.99L540.76 567.69L544.93 567.03L548.76 565.94L550.12 565.42L553.05 564.07L556.04 562.41L559.07 560.45L562.15 558.19L564.5 556.18L566.56 554.02L568.34 551.71L569.84 549.24L571.21 546.21L572.21 542.98L572.56 540.66L572.8 536.98L573 525.56L572.96 374.55L572.48 371.7L572.35 371.45L572.19 371.68L558.8 407.34L545.2 442.23L525.1 493.61L523.51 496.93L521.54 499.88L507.09 518.19L492.17 537.73L490.48 540.23L489.16 542.74L489.1 542.93L489.29 543.7L490.01 544.05H517.71L518.63 544.35L518.99 545.26L519.07 546.69ZM635.1 75.13L633.24 79.87L629.04 90.14L628.92 90.68L629.02 91.22L629.32 91.69L629.78 91.99L629.83 92.01L641.88 96.57L655.83 102.24L657.61 102.8L659.38 102.98L660.03 102.96L660.46 102.81L660.7 102.44L663.52 94.33L666.85 85.87L668.21 82.08L668.58 79.66L668.15 77.54L667.21 75.84L665.92 74.65L664.21 73.8L647.81 67.97L645.18 67.18L643.28 66.94L642.17 67.07L640.14 67.91L638.31 69.51L636.6 71.95L635.1 75.13ZM659.747 116.046L659.873 115.34L659.72 114.638L659.31 114.049L658.705 113.662L624.219 100.147L623.512 100.02L622.811 100.174L622.222 100.584L621.834 101.189L620.273 105.174L620.146 105.88L620.3 106.582L620.71 107.171L621.314 107.558L655.801 121.073L656.507 121.2L657.209 121.046L657.798 120.636L658.185 120.031L659.747 116.046ZM617.37 114.56L617.35 114.55L617.04 114.71L527.03 344.61V344.62L527.05 345.2L527.48 345.59L564.69 358.91L565.55 358.87L566.14 358.25L653.56 131.09L653.71 130.24L653.52 129.41L653.03 128.7L652.3 128.24L617.37 114.56ZM66.7297 420.01H83.6097L84.6297 419.86L85.3697 419.43L85.7997 418.69L85.9497 417.67V414.47L85.7997 413.45L85.3697 412.73L84.6397 412.29L83.6097 412.14H65.3397L64.5197 411.85L64.0497 411.1L60.8897 397.38L60.8397 396.75L61.0097 396.32L61.4097 396.09L62.0397 396.06L69.6197 396.65L75.0997 396.84L80.0297 396.7L84.5397 396.2L85.1797 396L85.6397 395.65L85.9197 395.14L86.0097 394.47V390.49L85.9197 389.87L85.6597 389.43L85.2197 389.17L84.5997 389.08H60.8097L60.1997 388.99L59.7497 388.74L59.4397 388.31L59.2997 387.7L58.1697 375.23L58.4397 374.39L59.2297 374.01H59.2797H84.9797L85.7097 373.71L86.0097 372.98V367.55L85.9197 366.9L85.6397 366.44L85.1797 366.16L84.5297 366.07H58.7697L58.2497 365.86L58.0297 365.34V352.37L58.1197 351.77L58.3797 351.33L58.8097 351.08L59.4097 350.99H84.6197L85.2397 350.9L85.6797 350.64L85.9397 350.2L86.0297 349.58V345.61L85.9397 344.97L85.6697 344.52L85.2097 344.24L84.5597 344.15H59.8997L59.2297 344.05L58.7697 343.76L58.5297 343.28L58.5097 342.6L59.9697 329.04L60.3597 328.28L61.1597 327.98H84.4497L85.1397 327.88L85.6397 327.58L85.9297 327.09L86.0297 326.4V322.4L85.9497 321.83L85.6997 321.42L85.2897 321.17L84.7197 321.09H62.3397L61.5897 320.76L61.3397 319.98L61.3597 319.88L64.2097 306.81L64.4997 306.09L65.0097 305.51L65.6897 305.13L66.4497 305H84.6397L85.2397 304.91L85.6697 304.66L85.9197 304.23L86.0097 303.63V299.51L85.9197 298.88L85.6497 298.43L85.2197 298.18L84.6197 298.09H67.1097L66.5797 297.85L66.4297 297.29L66.4597 297.18L71.3797 283.45L71.5797 283.18L71.8997 283.08H84.4897L85.1697 282.98L85.6497 282.69L85.9397 282.21L86.0397 281.53V276.72L85.9397 276.01L85.6297 275.5L85.1197 275.19L84.4097 275.09H75.3897L75.2397 275.07L74.7597 274.7V274.09L81.1097 260.55L81.4397 260.16L81.9497 260.02H85.0297L85.7397 259.73L86.0497 259.03L85.8197 253.69L85.5997 250.88L85.6897 248.39L85.8797 246.29L86.0897 240.19L85.8097 234.05L85.6997 233.46L85.5097 233.23L85.2297 233.35L84.8597 233.82L81.1797 239.86L77.6697 246.01L74.3297 252.25L71.1797 258.59L68.2297 264.97L65.4697 271.43L62.8997 277.97L60.5197 284.58L58.3497 291.21L56.3797 297.9L54.6397 304.55L53.0897 311.25L51.7497 318.01L50.6097 324.8L49.6997 331.53L48.9897 338.3L48.1097 351.65L47.9297 362.96L48.4697 374.91L49.5997 386.71L51.3197 398.39L53.6397 409.93L56.7197 421.94L60.4697 433.81L64.8697 445.53L69.9397 457.09L73.5897 464.03L80.7497 476.75L80.8197 476.87L83.3097 480.69L85.4497 483.95L85.6297 484.06L85.8097 483.97L85.8397 483.87L86.0597 479.85V475.97L85.8297 472.23L85.3797 468.63L85.3097 468.11L85.2997 466.28L85.6497 463.98L86.0397 461.27L85.9897 460.27L85.6897 459.54L84.7297 458.75L82.9797 458.2L81.3297 457.71L80.8897 457.41L80.6397 457.03L74.8297 444.15L74.8497 443.5L75.3597 443.11L75.5097 443.09H83.3397L84.5097 442.92L85.3397 442.42L85.8397 441.59L86.0097 440.42V437.87L85.8397 436.68L85.3297 435.82L84.4697 435.31L83.2797 435.14H72.5597L71.5597 434.86L70.9897 434.04L66.2297 420.71V420.19L66.7297 420.01ZM609.18 275.87L608.08 278.1L607.2 280.86V281.34L607.45 281.74L608.11 282.23L609.02 282.63L610.8 283.22L612.01 282.96L612.67 282.47L614.96 278.34L617.28 272.71L617.64 271.32L617.7 269.89L617.48 268.47L616.98 267.13L615.71 264.57L615.05 263.54L614.42 263.22L613.83 263.61L613.28 264.7L611.93 268.96L610.8 272.52L609.58 275.18L609.18 275.87ZM599.4 466.75L594.14 475.71L592.63 478.18L591.4 479.79L590.17 480.93L588.92 481.62L587.57 481.98L586 482.02L585.26 482.27L584.91 482.98L585.05 486.89L585.9 490.72L585.94 492.98L585.24 497.15L584.98 498.84L584.95 501.79L585.11 502.74L585.44 503.16L585.96 503.03L586.66 502.37L591.16 496.87L595.4 491.21L599.39 485.41L603.12 479.45L604.52 477.07L609.51 467.29L617.16 450.61L621.2 440.87L624.29 431.94L626.62 423.93L628.66 416.13L630.42 408.43L631.89 400.91L633.09 393.48L634 386.22L634.64 379.02L635.02 371.78L635.26 353.8L635.07 346.11L634.67 339.29L633.67 329.52L632.23 320L630.36 310.7L628.05 301.65L623.08 285.19L622.8 284.52L622.5 284.3L622.19 284.5L621.86 285.15L620.56 287.94L618.74 290.88L617.5 293.1L617.08 295.07L617.21 296.26L617.66 297.54L617.68 297.61L617.61 297.89L617.35 298.01H600.72L600.35 298.12L600.15 298.44L598.4 304.72L598.39 304.75L598.61 304.99H618.26L619.11 305.29L619.59 306.05L622.89 320.39L622.9 320.45L622.76 320.89L622.33 321.08H594.02L593.23 321.18L592.56 321.46L592.01 321.95L591.58 322.63L589.97 326.08L589.84 326.67L589.98 327.25L590.35 327.72L590.89 327.98L591.19 328.01H622.83L623.68 328.34L624.09 329.17L625.39 343.42L625.24 343.86L624.82 344.06H624.8H586.64L585.79 344.18L585.2 344.55L584.89 345.16L584.85 346.01L585.13 349.07L585.35 349.86L585.85 350.52L586.54 350.95L587.35 351.1H625.23L625.76 351.32L625.98 351.85V365.08L625.7 365.76L625.03 366.05L587.29 367.08L586.58 367.2L586.07 367.51V367.52L585.75 368.03L585.63 368.74L585.53 372.45L585.63 373.04L585.95 373.54L586.44 373.88L587.02 374H587.04H624.92L625.57 374.22L625.72 374.89L624.29 388.2L623.97 388.81L623.33 389.06H586.22L585.69 389.24L585.53 389.77L585.66 394.73L585.9 395.34L586.47 395.67L589.57 396.01L593.28 396.09L608.96 395.98L622.52 396.08H622.58L623.02 396.34L623.12 396.84L620.01 411.14L619.6 411.79L618.88 412.05H586.97L586.21 412.3L585.95 413.08V418.79L586.25 419.68L587.14 419.98H617.17L617.31 419.99L617.88 420.39L617.94 421.08L613.53 433.41L613.17 434.09L612.62 434.62L611.96 434.96L611.22 435.08H587.08L586.23 435.36L585.95 436.21V441.86L586.25 442.75L587.12 443.04H609.39L609.54 443.06L610 443.42V444.01L603.86 457.1L603.25 457.79L602.37 458.05H585.79L585.61 458.11L585.54 458.29L585.35 465.18L585.5 465.33L598.57 465.12L599.29 465.2L599.68 465.48L599.73 466L599.4 466.75ZM514.23 489.75L514.75 489.78L515.1 489.37L562.13 369.24L562.14 369.21L562.26 368.46L562.08 367.72L561.63 367.1L560.97 366.7L524.54 353.67L523.74 353.65L523.23 354.27L500.11 414.75L492.87 433.4L476.12 475.05V475.46L476.4 475.77L477.18 476.16L481.32 478.01L497.92 483.56L514.23 489.75ZM486.62 528.65L509.71 498.4L510.13 497.65L510.16 497.01L509.79 496.49L509.03 496.09L475.97 484.26L475.25 484.33L474.86 484.93L474.85 485.1L474.83 487.61L474.48 490.85L474.14 494.07L473.85 508.37L473.98 523.2L474.1 523.87L474.41 524.47L474.88 524.95L475.47 525.27L485.7 528.93L486.2 528.96L486.62 528.65Z" fill="black"/>
<path d="M175.77 30.2383L180.8 30.4583L185.73 31.1083L190.48 32.1483L195.1 33.5683L199.66 35.4083L204.04 37.6083L208.24 40.1783L212.22 43.0783L215.97 46.3083L219.47 49.8483L222.21 53.1383L224.73 56.7383L227.06 60.7083L229.12 64.8983L230.85 69.1983L232.24 73.6083L233.26 77.9683L233.91 82.3283L234.25 89.0783L233.85 95.6583L232.72 102.138L230.88 108.378L229.19 112.568L227.17 116.598L224.84 120.478L222.21 124.188L219.27 127.708L216.04 131.028L212.53 134.148L208.74 137.038L205.6 139.118L202.38 140.978L199.07 142.618L195.68 144.028L191.16 145.528L186.49 146.658L181.69 147.408L176.74 147.788L175.66 147.828L174.59 147.788L169.64 147.398L164.84 146.638L160.17 145.498L155.66 143.998L152.27 142.578L148.96 140.928L145.74 139.068L142.61 136.978L138.82 134.078L135.32 130.958L132.09 127.628L129.16 124.098L126.53 120.388L124.21 116.508L122.2 112.468L120.52 108.278L118.69 102.038L117.57 95.5483L117.18 88.9683L117.53 82.2283L118.19 77.8683L119.22 73.5083L120.62 69.0983L122.36 64.7983L124.42 60.6183L126.76 56.6483L129.29 53.0483L132.03 49.7783L135.54 46.2383L139.29 43.0183L143.28 40.1183L147.48 37.5583L151.87 35.3583L156.43 33.5383L161.05 32.1183L165.8 31.0883L170.74 30.4483L175.77 30.2383ZM131.11 88.1383V84.9283L131.33 84.3983L131.85 84.1683L134.94 84.0783L135.56 83.9483L136.1 83.6183L136.49 83.1183L136.68 82.5083L137.66 77.5483L139.29 72.7583L141.56 68.1283L144.41 63.8283L147.72 59.9883L151.5 56.6383L155.58 53.9183L160.01 51.7883L164.22 50.3783L168.5 49.3983L171.88 48.9483L175.3 48.7583L178.77 48.8383L182.29 49.1783L184.88 49.6283L187.44 50.2883L192.45 52.1583L197.28 54.7783L201.74 58.0583L205.59 61.7983L208.87 66.0283L211.44 70.5983L213.21 75.3183L215.27 82.2583L215.49 82.5883L215.85 82.7483L217.54 83.3983L218.34 84.0883L219 84.9983L219.5 86.1383L219.86 87.4983L219.89 88.1983L219.69 88.6983L219.24 89.0183L218.55 89.1383L216.82 89.1883L216.13 89.3083L215.62 89.6083L215.31 90.1183L215.19 90.8083L214.99 93.6783L214.59 96.4783L213.97 99.2983L213.17 102.028L212.06 104.938L210.73 107.728L209.15 110.458L207.37 113.048L205.39 115.488L203.22 117.758L200.9 119.848L198.42 121.748L195.8 123.438L193.06 124.928L190.2 126.188L187.25 127.218L184.25 127.998L181.17 128.528L178.14 128.798L175.07 128.818L171.7 128.548L168.32 127.958L165.03 127.078L161.76 125.868L154.41 122.288L153.74 122.078H153.03L152.36 122.298L151.79 122.708L147.4 127.108L147.1 127.558L147.01 128.088L147.13 128.608L147.44 129.048L147.49 129.088L150.18 131.058L153.31 132.828L158.77 135.168L164.43 136.898L170.13 137.948L175.89 138.338L181.46 138.068L186.96 137.118L192.25 135.488L197.17 133.248L201.78 130.508L205.99 127.448L209.82 124.068L213.26 120.348L216.28 116.338L218.93 112.008L220.92 107.978L222.51 103.888L223.7 99.7383L224.49 95.5383L224.89 91.1783L224.87 86.7683L224.43 82.2883L223.58 77.7583L222.56 74.0383L221.28 70.4783L219.74 67.0783L217.94 63.8283L216.45 61.5483L212.43 56.4083L208 51.9183L203.17 48.1083L197.95 44.9783L193.24 42.8883L188.27 41.3083L183.02 40.2383L177.52 39.6883L172.95 39.6583L168.51 40.0183L164.2 40.7883L160.03 41.9683L157.12 43.0583L154.28 44.3483L151.5 45.8583L148.8 47.5683L144.64 50.6983L140.91 54.1383L137.56 57.9383L134.65 61.9983L132.55 65.6183L130.77 69.4083L129.32 73.3283L128.19 77.3983L127.39 81.6283L126.91 85.9683L126.77 90.3983L126.97 94.9083L127.41 98.2983L128.15 101.638L129.24 105.058L130.6 108.398L132.28 111.768L134.32 115.208L136.58 118.518L139.17 121.838L140.05 122.628L140.97 122.958L141.93 122.798L142.93 122.178L146.24 119.418L147.01 118.568L147.3 117.688L147.12 116.768L146.48 115.828L144.45 113.408L142.62 110.788L141.01 107.988L139.65 105.068L138.54 102.038L137.7 98.9383L137.16 95.9083L136.91 92.8883L136.76 90.8583L136.47 89.7883L136.12 89.4283L135.64 89.2683L131.75 88.8483L131.27 88.6383L131.11 88.1383ZM189.22 58.0283L186 56.8783L182.65 56.0183L179.33 55.4983L175.98 55.2883L172.79 55.4083L169.64 55.8583L166.68 56.6183L163.82 57.7183L163.65 57.8183L163.25 58.2183L163.05 58.7583L163.1 59.3183L163.38 59.8183L164.03 60.5583L165.96 62.6883L167.52 64.1183L169.05 65.1683L170.6 65.8883L172.39 66.3383L173.29 66.4783L177.07 67.0083L179.8 67.0983L182.09 66.7783L184.06 66.0183L185.81 64.7683L187.29 63.0983L189.71 59.5983L189.85 58.7483L189.31 58.0683L189.22 58.0283ZM143.81 82.3383L143.91 82.9283L144.56 83.7883L145.59 84.1183H155.53L156.25 83.9983L156.9 83.6583L157.4 83.1183L157.7 82.4583L158.24 80.0183L159.07 76.3883L159.88 74.2183L161.58 70.6783L161.68 70.4283L161.8 68.9583L161.24 67.2783L159.97 65.4283L158.24 63.7883L156.99 63.2083H155.79L154.56 63.6583L153.27 64.5283L151.84 65.8783L150.36 67.6583L148.84 69.8083L145.7 75.2883L144.87 77.1283L144.28 78.9083L143.92 80.6483L143.81 82.3383ZM206.76 84.1283L206.89 84.1183L207.43 83.9483L207.86 83.5783L208.09 83.0683L208.1 82.4983L207.35 79.4383L206.32 76.4983L204.81 73.3083L202.94 70.2583L200.71 67.3583L198.11 64.6083L197.58 64.2683L196.96 64.1383L196.34 64.2483L195.8 64.5783L194.2 66.2583L192.93 68.1183L191.78 70.7283L191.14 73.6283L191.12 75.9883L191.58 79.3783L192.05 82.7583L192.18 83.3583L192.48 83.7883L192.93 84.0383L193.53 84.1283H206.76ZM167.5 84.1783L183.14 83.9783L184.01 83.6083L184.37 82.7283L184.36 82.4183L184.18 80.7283L183.68 79.1083L182.88 77.6183L181.81 76.3183L180.52 75.2583L179.05 74.4683L177.46 73.9983L175.81 73.8483L174.59 73.8683L172.94 74.0483L171.36 74.5683L169.91 75.3883L168.64 76.4783L167.61 77.8083L166.85 79.3083L166.39 80.9483L166.24 82.6383L166.25 82.9483L166.6 83.7983L167.45 84.1683L167.5 84.1783ZM162.93 100.748L161 98.1583L159.46 95.7183L158.31 93.4383L157.54 91.3083L156.93 90.5283L155.87 90.1383L154.51 89.9983L143.79 90.0783L143.25 90.3383L143.1 90.9083L143.12 91.0083L143.9 93.8983L144.33 96.6083L144.7 98.1983L145.59 100.408L148.88 106.638L150.3 108.748L151.98 110.588L153.68 111.998L154.3 112.148L154.86 111.828L162.94 101.238L162.93 100.748ZM184.24 90.0683H166.89L166.12 90.4383L165.94 91.2783L166.03 91.4983L167.05 93.1883L168.21 94.6883L169.49 95.9983L170.91 97.1183L172.55 98.0883L174.33 98.8383L176.3 99.2583L178.07 99.1383L179.14 98.7883L180.12 98.2583L181.96 96.5783L183.59 94.0783L184.88 90.9583L184.82 90.3883L184.35 90.0783L184.24 90.0683ZM208.49 90.8983L208.55 90.8283L208.66 90.5883L208.6 90.2183L208.29 90.0183H208.23H194.18L193.39 90.2683L192.89 90.9283L190.53 97.5183L190.31 98.5283L190.36 99.5483L190.67 100.528L191.22 101.398L198.79 110.448L199.3 110.908L199.8 111.048L200.28 110.868L200.75 110.378L203.17 106.828L205.09 103.668L206.22 101.258L207.13 98.3883L207.82 95.0783L208.3 91.3183L208.36 91.0883L208.49 90.8983ZM172.24 121.508L175.08 121.808H177.9L180.57 121.558L183.22 121.038L185.86 120.268L188.49 119.238L192.66 117.268L193.27 116.848L193.57 116.348L193.53 115.778L193.18 115.128L189.62 110.928L187.88 109.308L186.17 107.988L184.47 106.968L182.88 106.308L181.33 105.948L179.75 105.908L176.85 106.288L174.09 106.938L171.48 107.848L169.01 109.028L166.72 110.438L164.56 112.118L162.55 114.048L160.67 116.238L160.38 116.738L160.34 117.198L160.54 117.608L160.99 117.978L163.77 119.398L167.41 120.598L172.24 121.508Z" fill="black"/>
<path d="M361.811 53.6584L363.071 55.0584L364.291 55.8784L365.721 56.4684L370.601 58.0384L377.021 60.0684L380.971 61.5384L385.631 63.9284L387.301 65.0784L388.671 66.4784L389.791 68.2184L390.571 70.2384L391.241 73.3784L391.421 76.2884L391.091 78.9584L390.271 81.4084L389.081 83.4384L387.481 85.2684L384.631 87.5984L381.521 89.3484L379.651 90.0884L377.701 90.6284L373.561 91.1784L370.541 91.1984L367.611 90.9784L364.901 90.5384L362.331 89.8484L360.031 88.9584L357.881 87.8284L355.991 86.5084L354.281 84.9484L352.641 82.9684L351.261 80.6784L350.181 78.1784L349.371 75.3684L349.601 74.9084L358.471 70.9084L358.831 71.0884L358.841 71.1384L358.971 72.7184L359.311 74.3584L360.521 77.3584L361.301 78.5984L362.231 79.6984L363.221 80.5484L364.321 81.1984L366.421 82.0184L368.621 82.5684L370.781 82.8184L372.921 82.7784L374.881 82.4584L376.741 81.8584L378.381 80.9984L379.851 79.8584L380.841 78.7784L381.701 77.5284L382.111 76.3284L382.041 75.3184L381.631 74.3284L380.871 73.2784L379.851 72.2784L378.391 71.1784L376.621 70.1284L373.011 68.6184L371.001 68.0584L365.101 66.3384L361.341 64.9384L358.261 63.3284L355.721 61.3884L353.561 58.9784L352.471 56.8784L351.911 54.2484L351.871 51.0384L352.381 47.6684L352.941 45.8484L353.731 44.2284L355.251 42.1984L357.301 40.4184L359.731 39.0084L362.611 37.9084L365.871 37.1684L369.411 36.8184L373.111 36.8584L376.731 37.3084L379.321 37.9484L381.681 38.8484L383.811 40.0184L385.701 41.4484L387.371 43.1484L388.801 45.1084L389.991 47.3284L390.961 49.8184L391.071 50.4384L390.971 50.9684L390.651 51.3984L390.111 51.7384L384.061 54.4584L383.471 54.6284L382.981 54.5684L382.581 54.2684L382.281 53.7384L381.361 51.6884L380.341 50.0084L379.201 48.6584L377.921 47.6184L375.991 46.6684L373.741 46.1384L370.981 45.9484L367.511 46.1084L365.931 46.3384L364.551 46.7684L363.391 47.3984L362.441 48.2184L361.911 48.8884L361.231 50.2784L361.061 51.6284L361.281 52.6484L361.811 53.6584Z" fill="black"/>
<path d="M493.711 54.7295L493.511 54.2195L493.221 54.6795L480.891 89.1095L480.371 89.7995L479.541 90.0595H473.061L472.371 89.8395L471.941 89.2695L459.321 53.9395L459.041 53.4295L458.951 54.0095V89.2995L458.731 89.8195L458.211 90.0395H449.961L449.251 89.7395L448.961 89.0295V38.9995L449.271 38.2495L450.021 37.9395H461.971L462.571 38.1295L462.951 38.6295L475.991 75.1395L476.371 75.6695L476.751 75.1395L489.481 39.5595L489.821 38.8895L490.301 38.4095L490.921 38.1195L491.671 38.0195H502.951L503.791 38.2995L504.041 39.1395L503.711 49.2895L503.141 69.6595L503.161 85.9195L503.461 88.1195L503.691 89.4195V89.4495L503.551 89.8495L503.161 90.0195H494.591L494.121 89.8295L493.911 89.3595L493.831 77.8995L494.121 61.6595L494.061 58.1095L493.711 54.7295Z" fill="black"/>
<path d="M522.993 47.5098V58.1198L523.023 58.3498L523.343 58.8298L523.893 59.0198H544.883L545.753 59.3098L546.043 60.1698V65.9098L545.753 66.7698L544.883 67.0598H523.733L523.173 67.2498L522.983 67.8098V79.9098L523.143 80.7198L523.603 81.4098L524.293 81.8698L525.113 82.0298H548.993L549.713 82.3298L550.013 83.0498V89.0398L549.723 89.7398L549.013 90.0298H513.483L513.123 89.8798L512.973 89.5298V39.0398L513.273 38.3098L514.003 38.0098H549.093L549.783 38.2898L550.063 38.9798V44.8598L549.843 45.5298L549.173 45.7898L523.273 47.2098L522.993 47.5098Z" fill="black"/>
<path d="M270.99 69.6683V89.1583L270.77 89.8083L270.12 90.0283H260.74L260.22 89.8083L260 89.2883V38.8383L260.24 38.2583L260.81 38.0183L277.61 37.9883L285.95 38.1483L289.91 38.4583L291.74 38.9783L293.46 39.7183L295.33 40.8483L297 42.2283L298.45 43.8383L299.68 45.6583L300.67 47.6883L301.38 49.8683L301.78 52.0783L301.89 54.3783L301.82 55.5083L301.46 57.4883L300.81 59.3683L299.84 61.2183L298.63 62.9183L297.12 64.5583L295.4 66.0083L293.43 67.2983L291.34 68.3483L290.96 68.7683L291.02 69.3283L291.06 69.3883L295 75.2583L299.8 83.6183L302.94 89.1683L303 89.3083L302.9 89.8083L302.44 90.0283H293.62L292.83 89.9283L292.15 89.6483L291.6 89.1683L291.17 88.5083L281.94 69.8683L281.4 69.2483L280.62 69.0483H271.61L271.15 69.2083L270.99 69.6683ZM270.93 48.1683L271.05 59.9883V60.0183L271.39 60.7583L272.14 61.0583L284.53 60.9283L285.92 60.7783L287.26 60.3783L288.48 59.7283L289.55 58.8683L290.43 57.8183L291.08 56.6383L291.47 55.3483L291.59 54.0083V53.7083L291.44 52.3783L291.02 51.0983L290.35 49.9183L289.45 48.8983L288.36 48.0583L287.12 47.4383L285.78 47.0583L284.39 46.9483L272 47.0783L271.24 47.3983L270.93 48.1683Z" fill="black"/>
<path d="M319.712 67.0691L319.182 67.2891L318.962 67.8191V80.9291L319.252 81.6391L319.952 81.9591L325.302 82.0391L330.052 81.7791L332.852 81.4791L337.402 81.0391L340.622 81.0591L343.282 81.5291L345.532 82.4991L345.902 82.8591L346.022 83.3591V89.2791L345.952 89.5891L345.682 89.8991L345.292 90.0091H309.722L309.222 89.7991L309.012 89.2991V39.0091L309.302 38.3191L309.992 38.0391H345.032L345.862 38.3191L346.122 39.1591L345.962 44.8491L345.592 45.7291L344.732 46.0891H320.692L319.612 46.4691L319.022 47.4491L318.992 47.7891V58.1891L319.192 58.7891L319.812 58.9991H340.922L341.762 59.2791L342.042 60.1291V66.0191L341.782 66.8091L341.002 67.0691H319.712Z" fill="black"/>
<path d="M414.482 81.579L415.782 81.999L417.742 82.199L420.252 82.169L422.482 81.919L424.412 81.329L426.002 80.409L427.512 78.889L428.682 76.849L429.412 74.429L429.762 71.599L429.982 60.299L430.012 38.929V38.919L430.312 38.229L431.012 37.959L439.002 38.169L439.672 38.419L439.902 39.069L440.112 55.649L440.002 68.859L439.792 72.959L439.392 76.429L438.772 79.279L437.962 81.499L436.432 84.039L434.682 86.019L432.642 87.649L430.242 89.029L427.632 90.069L424.642 90.819L421.542 91.209L418.272 91.249L415.022 90.939L412.852 90.509L410.772 89.889L408.802 89.079L406.962 88.069L405.292 86.919L403.792 85.599L402.442 84.109L401.282 82.459L399.892 79.609L399.022 76.399L398.192 70.289L398.012 54.469L398.062 38.749L398.272 38.249L398.782 38.039H408.242L408.742 38.249L408.952 38.749L408.992 69.649L409.052 72.509L409.292 74.689L409.762 76.469L410.532 78.069L412.112 79.929L414.482 81.579Z" fill="black"/>
<path d="M546.729 113.049H260.289C259.046 113.049 258.039 114.056 258.039 115.299V115.779C258.039 117.021 259.046 118.029 260.289 118.029H546.729C547.972 118.029 548.979 117.021 548.979 115.779V115.299C548.979 114.056 547.972 113.049 546.729 113.049Z" fill="black"/>
<path d="M311.31 131.109L313.15 131.399L314.92 132.039L316.64 133.049L318.15 134.359L319.37 135.859L320.27 137.539L320.8 139.279L320.95 141.099L320.84 142.279L320.46 143.789L319.83 145.259L318.94 146.679L317.78 148.069L316.77 148.979L315.74 149.589L313.58 150.129L310.3 150.109L307.05 149.789L304.95 149.019L303.99 148.299L303.08 147.289L302.08 145.789L301.34 144.279L300.87 142.749L300.66 141.209L300.67 140.029L301.01 138.229L301.72 136.559L302.8 134.979L304.16 133.619L305.81 132.479L307.63 131.649L309.45 131.199L311.31 131.109Z" fill="black"/>
<path d="M533.219 135.039H330.019C326.755 135.039 324.109 137.685 324.109 140.949V141.129C324.109 144.393 326.755 147.039 330.019 147.039H533.219C536.483 147.039 539.129 144.393 539.129 141.129V140.949C539.129 137.685 536.483 135.039 533.219 135.039Z" fill="black"/>
<path d="M120.972 183.82L119.942 182.08L119.262 180.37L118.922 178.71V177.08L119.402 175.14L120.392 173.26L121.892 171.43L123.912 169.66L124.942 169L126.842 168.29L128.992 168.05L159.072 168.11L184.862 168.16L203.502 168.02L222.512 168.07L224.152 168.2L225.802 168.54L227.302 169.05L228.722 169.75L229.912 170.57L230.962 171.54L231.772 172.6L232.392 173.79L232.612 174.39L232.982 176.04L233.092 177.71L232.932 179.34L232.522 180.9L231.852 182.41L230.942 183.77L229.872 184.87L228.602 185.77L227.492 186.31L224.912 186.88L220.902 187.07L127.252 187.11L125.212 186.94L123.572 186.37L122.222 185.36L120.972 183.82ZM141.492 181.42L141.372 181.77L141.672 182H141.682H192.372L192.542 181.95L205.262 173.7L205.412 173.48L205.332 173.22L205.092 173.11H153.212L153.152 173.12L153.032 173.17L141.492 181.42ZM142.322 173.06L136.902 173L129.262 173.16L127.962 173.34L126.902 173.76L125.652 174.86L124.502 176.7L124.062 177.93L124.072 179.08L124.392 179.93L124.992 180.72L126.152 181.64L127.332 182.1L128.392 182.17L129.472 181.97L131.952 180.74L142.482 173.62L142.822 173.22L142.322 173.06ZM205.202 181.41L205.132 181.86L205.392 182.09L205.622 182.13L223.992 181.97L224.932 181.86L225.742 181.56L226.902 180.53L227.632 178.91L227.752 177.08L227.262 175.38L226.732 174.61L225.472 173.65L223.692 173.1L221.452 172.95L218.412 173.15L216.332 173.73L213.822 175.12L209.412 178.17L205.202 181.41Z" fill="black"/>
<path d="M551.732 177.609L551.552 179.449L551.012 181.209L550.142 182.839L548.972 184.259L547.552 185.429L545.922 186.299L544.162 186.839L542.322 187.019H274.262L272.422 186.839L270.662 186.299L269.032 185.429L267.612 184.259L266.442 182.839L265.572 181.209L265.032 179.449L264.852 177.609V177.469L265.032 175.629L265.572 173.869L266.442 172.239L267.612 170.819L269.032 169.649L270.662 168.779L272.422 168.239L274.262 168.059H542.322L544.162 168.239L545.922 168.779L547.552 169.649L548.972 170.819L550.142 172.239L551.012 173.869L551.552 175.629L551.732 177.469V177.609ZM546.322 177.509L545.982 175.799L545.012 174.349L543.562 173.379L541.852 173.039H274.332L272.622 173.379L271.172 174.349L270.202 175.799L269.862 177.509V177.569L270.202 179.279L271.172 180.729L272.622 181.699L274.332 182.039H541.852L543.562 181.699L545.012 180.729L545.982 179.279L546.322 177.569V177.509Z" fill="black"/>
<path d="M158.399 220.609L158.209 220.929L157.529 221.649L156.609 222.199L155.429 222.579L153.999 222.779L146.809 223.209L139.909 223.339L133.299 223.189L126.989 222.749L126.199 222.519L125.539 222.029L125.099 221.319L124.949 220.509V209.139L125.059 208.419L125.399 207.779L125.909 207.269L126.559 206.949L128.759 206.349L130.419 206.119L144.279 205.959L154.079 206.309L154.869 206.499L155.599 206.919L156.999 208.479L158.229 211.039L158.869 213.719L159.319 214.619L160.269 214.989L224.769 215.119L225.699 215.289L226.339 215.649L226.889 216.199L227.769 217.919V217.989L227.749 218.009L226.239 219.429L225.239 219.899L159.129 220.159L158.689 220.279L158.399 220.609ZM153.468 212.935L153.322 212.22L152.913 211.616L152.305 211.214L151.588 211.075L130.929 211.183L130.214 211.329L129.609 211.738L129.207 212.347L129.068 213.063L129.09 217.223L129.236 217.938L129.645 218.542L130.254 218.944L130.97 219.083L151.63 218.975L152.345 218.829L152.949 218.42L153.351 217.811L153.49 217.095L153.468 212.935Z" fill="black"/>
<path d="M305.811 219.509L308.391 219.109L312.541 218.979L348.201 219.219L348.881 219.379L349.441 219.799L349.781 220.419L349.851 221.109L349.821 221.269L349.551 221.939L348.131 223.199L347.361 223.519L346.601 223.599L330.091 223.039L313.801 223.219L311.201 223.459H308.911L306.481 223.059L305.781 223.129L305.281 223.619L304.321 225.169L303.151 226.319L301.961 227.049L300.621 227.549L299.081 227.849L297.161 227.979L280.741 228.209L277.811 227.959L274.831 227.119L274.131 226.759L273.601 226.259L273.211 225.529L273.051 224.629L272.891 218.679L273.131 214.039L273.461 212.919L274.161 211.989L275.131 211.359L276.271 211.109L288.201 210.889L301.231 211.179L302.661 211.369L303.431 211.809L304.171 213.059L304.671 214.659L304.961 216.599L305.011 218.889L305.201 219.479L305.811 219.509ZM300.031 217.279L299.661 216.399L298.781 216.029H279.101L278.221 216.399L277.851 217.279V221.779L278.221 222.659L279.101 223.029H298.781L299.661 222.659L300.031 221.779V217.279Z" fill="black"/>
<path d="M536.03 218.119L539.48 218.269L541.89 218.889L542.49 219.299L542.9 219.889L543.09 220.589L543.02 221.309L542.54 222.179L541.79 222.659L540.73 222.849L536.14 222.989L531.55 223.069L530.49 222.929L529.71 222.489L529.19 221.639L529.09 220.929L529.24 220.219L529.63 219.609L530.2 219.169L532.58 218.429L536.03 218.119Z" fill="black"/>
<path d="M368.979 219.31L369.729 219.65L370.019 220.43L369.989 221.2L369.649 222.3L368.759 223.2L367.439 223.78L365.909 223.95L362.749 223.85L361.229 223.58L359.959 222.91L359.129 221.95L358.859 220.84L358.889 220.06L359.229 219.3L359.999 219.01L368.979 219.31Z" fill="black"/>
<path d="M380.988 219.059L517.698 219.029L518.338 219.119L518.768 219.399L518.998 219.859L519.018 220.499L518.918 221.409L518.738 222.009L518.358 222.499L517.828 222.829L517.218 222.939L381.608 223.119L380.308 222.939L379.538 222.389L379.328 221.849V221.159L379.338 221.059L379.328 220.959L379.348 220.119L379.648 219.519L380.188 219.179L380.988 219.059Z" fill="black"/>
<path d="M189.17 236.479L186.95 236.419L183.76 237.119L181.45 237.679L179.78 237.879L169.83 237.999L160.81 237.739L159.26 237.309L157.45 236.169L157.18 235.789L157.25 235.339L157.92 234.289L158.79 233.579L160.37 233.169L179.76 233.109L185.69 233.629L188.03 233.669L191.12 233.409L194.42 233.159L209.8 233.139L210.42 233.229L210.85 233.499L211.07 233.949L211.09 234.579L210.96 235.839L210.8 236.469L210.48 236.939L210.01 237.259L209.38 237.409L201.82 237.859L193.08 237.699L191.23 237.449L190.06 236.909L189.55 236.599L189.17 236.479Z" fill="black"/>
<path d="M402.608 237.039H333.528C332.175 237.039 331.078 238.136 331.078 239.489V239.569C331.078 240.922 332.175 242.019 333.528 242.019H402.608C403.961 242.019 405.058 240.922 405.058 239.569V239.489C405.058 238.136 403.961 237.039 402.608 237.039Z" fill="black"/>
<path d="M433.459 237.039L449.38 237.169L450.549 237.309L451.359 237.639L451.94 238.169L452.479 238.979L452.63 239.909L452.12 240.699L450.76 241.489L449.339 241.929L448.24 242.029L433.44 242.049L418.649 241.899L417.539 241.789L416.13 241.339L414.779 240.539L414.27 239.749L414.43 238.809L414.969 238.009L415.56 237.489L416.38 237.159L417.539 237.039H433.459Z" fill="black"/>
<path d="M129.913 251.08L130.213 251.79L130.923 252.08H145.213L145.973 252.19L146.523 252.52L146.843 253.06L146.953 253.82V254.55L146.823 255.25L146.453 255.87L145.893 256.31L145.213 256.53L139.703 257.02L134.233 256.99L127.493 256.25L126.433 255.92L125.693 255.33L125.343 254.73L125.173 253.99L124.973 249.53L125.193 243.9L125.363 243.11L125.743 242.54L126.333 242.2L127.133 242.09H127.833L128.743 242.22L129.393 242.61L129.783 243.26L129.913 244.17V251.08Z" fill="black"/>
<path d="M305.589 259.4L305.139 259.76L303.669 260.68L301.999 261.35L300.139 261.77L298.089 261.93L285.699 262.04L276.149 261.92L274.949 261.65L273.949 260.95L273.269 259.92L273.039 258.72V248L273.349 246.94L274.189 246.21L276.229 245.44L277.949 245.14L288.689 245.01L298.799 245.08L300.879 245.24L302.569 245.65L303.869 246.34L304.669 247.26L304.989 248.07L305.079 249.05L304.959 254.07V254.15L305.289 254.78L305.979 254.96L307.929 254.81L310.579 254.93L312.259 255.01L318.969 255.08L332.519 255.1L342.019 254.54L346.599 254.22L348.069 254.56L349.059 255.36L349.819 256.63L349.859 256.96L349.869 257.05L349.749 257.81L349.339 258.47L348.709 258.91L347.949 259.06H306.499L305.999 259.15L305.589 259.4ZM277.919 257.04L299.859 256.92L300.049 256.8L300.079 256.7L300.049 252.33L299.909 251.43L299.499 250.67L298.899 250.17L298.189 249.99L279.509 250.09L278.799 250.27L278.209 250.78L277.809 251.55L277.669 252.45L277.699 256.82L277.919 257.04ZM305.319 258.71L305.329 258.74L305.489 258.91H305.499L305.699 258.59V258.38H305.489L305.319 258.52V258.71Z" fill="black"/>
<path d="M173.051 251.419L173.361 250.679L174.101 250.369H224.691L225.871 250.519L226.871 250.959L227.541 251.599L227.771 252.369V252.989L227.541 253.759L226.871 254.399L225.871 254.839L224.691 254.989H174.101L173.361 254.679L173.051 253.939V251.419Z" fill="black"/>
<path d="M413.771 254.519L418.461 254.899L423.771 255.109H439.881L454.901 255.029L470.481 254.529L484.461 254.049L514.781 254.019L539.541 254.279L541.411 254.669L543.381 255.759L543.651 256.089L543.671 256.549L543.251 257.759L542.701 258.469L542.001 258.819L541.001 258.939L387.491 258.999L380.561 258.689L379.701 258.449L379.201 258.009L379.051 257.309L379.291 256.379L379.331 256.299L379.851 255.439L380.531 254.799L381.431 254.379L382.511 254.219L398.821 253.869L413.771 254.519Z" fill="black"/>
<path d="M367.978 255.063L359.978 255.076C358.951 255.078 358.12 255.913 358.121 256.94L358.122 257.119C358.124 258.146 358.958 258.978 359.985 258.976L367.985 258.963C369.012 258.961 369.844 258.127 369.842 257.1L369.841 256.92C369.84 255.892 369.005 255.061 367.978 255.063Z" fill="black"/>
<path d="M184.58 268.039L204.24 267.959L206.48 268.109L208.38 268.509L210.23 269.179L211 269.879L211.17 270.899L210.91 271.749L210.44 272.299L209.54 272.599L196.97 273.149L184.6 273.369L172.24 273.239L159.66 272.789L158.77 272.499L158.29 271.949L158.02 271.099L158.19 270.079L158.95 269.379L160.8 268.689L162.68 268.269L164.93 268.109L184.58 268.039Z" fill="black"/>
<path d="M402.642 273.039H333.402C332.082 273.039 331.012 274.109 331.012 275.429V275.669C331.012 276.989 332.082 278.059 333.402 278.059H402.642C403.962 278.059 405.032 276.989 405.032 275.669V275.429C405.032 274.109 403.962 273.039 402.642 273.039Z" fill="black"/>
<path d="M449.564 273.086L416.844 273.029C415.502 273.026 414.412 274.112 414.41 275.454V275.534C414.407 276.876 415.493 277.966 416.835 277.969L449.555 278.026C450.897 278.028 451.987 276.942 451.99 275.6V275.52C451.992 274.178 450.906 273.088 449.564 273.086Z" fill="black"/>
<path d="M129.91 286.159L130.21 286.869L130.93 287.159L145.29 287.069L146.06 287.179L146.61 287.499L146.94 288.049L147.05 288.809L147.06 289.549L146.93 290.249L146.57 290.869L146 291.319L145.32 291.549L139.79 292.069L134.28 292.079L127.5 291.369L126.43 291.039L125.68 290.449L125.33 289.849L125.16 289.109L124.93 284.629L125.12 278.969L125.28 278.169L125.67 277.599L126.26 277.249L127.06 277.129H127.76L128.68 277.259L129.33 277.639L129.73 278.299L129.86 279.209L129.91 286.159Z" fill="black"/>
<path d="M225.928 286.049H166.028C164.951 286.049 164.078 286.922 164.078 287.999V288.059C164.078 289.136 164.951 290.009 166.028 290.009H225.928C227.005 290.009 227.878 289.136 227.878 288.059V287.999C227.878 286.922 227.005 286.049 225.928 286.049Z" fill="black"/>
<path d="M308.349 295.549L295.779 295.059H275.809L274.329 294.859L273.459 294.249L273.199 293.219L273.219 292.769L273.349 292.029L273.689 291.489L274.229 291.179L274.979 291.069L347.719 291.039L348.609 291.169L349.269 291.549L349.749 292.409L349.839 293.689V293.719L349.769 293.859L348.169 295.409L347.329 295.839L346.519 295.989L318.749 296.009L313.519 295.879L308.349 295.549Z" fill="black"/>
<path d="M364.273 296.136C367.518 296 370.098 294.691 370.036 293.213C369.974 291.734 367.293 290.645 364.049 290.781C360.804 290.917 358.224 292.226 358.286 293.705C358.348 295.184 361.029 296.272 364.273 296.136Z" fill="black"/>
<path d="M449.441 291.038L514.741 290.988L518.451 291.248L519.291 291.628L519.741 292.288L519.831 293.088L519.681 293.638L519.251 294.318L518.541 294.878L516.431 295.798L515.121 296.058L513.741 296.108L449.441 296.038L385.141 296.148L383.771 296.098L382.451 295.838L380.341 294.918L379.641 294.358L379.201 293.688L379.051 293.128L379.091 292.498L379.361 291.928L379.831 291.498L380.431 291.288L384.141 291.028L449.441 291.038Z" fill="black"/>
<path d="M209.092 304.068H166.752C165.426 304.068 164.352 305.143 164.352 306.468V306.528C164.352 307.854 165.426 308.928 166.752 308.928H209.092C210.417 308.928 211.492 307.854 211.492 306.528V306.468C211.492 305.143 210.417 304.068 209.092 304.068Z" fill="black"/>
<path d="M402.649 309.068H332.749C331.39 309.068 330.289 310.17 330.289 311.528V311.588C330.289 312.947 331.39 314.048 332.749 314.048H402.649C404.008 314.048 405.109 312.947 405.109 311.588V311.528C405.109 310.17 404.008 309.068 402.649 309.068Z" fill="black"/>
<path d="M450.141 309.059H417.4C416.064 309.059 414.98 310.142 414.98 311.479V311.559C414.98 312.895 416.064 313.979 417.4 313.979H450.141C451.477 313.979 452.56 312.895 452.56 311.559V311.479C452.56 310.142 451.477 309.059 450.141 309.059Z" fill="black"/>
<path d="M305.23 330.638L305.11 331.658L304.37 332.408L303.31 332.948L301.25 333.608L299.01 333.868L287.35 334.028L278.37 333.948L276.64 333.738L274.21 332.828L273.39 332.058L273.07 330.978L273.02 329.488L273.04 321.548L273.35 319.328L273.67 318.578L274.12 318.008L274.79 317.568L275.63 317.288L278.37 317.068H299.58L301.83 317.218L303.2 317.598L303.37 317.698L304.35 318.728L304.93 320.408L305.13 322.648L304.95 325.588V325.618L305.01 326.158L305.28 326.618L305.71 326.948L306.23 327.078H306.29L347.93 327.028L349.05 327.338L349.71 328.218L349.97 329.668L349.96 329.768L349.7 330.598L349.04 331.288L348.07 331.758L346.94 331.928L310.5 332.118L307.24 331.778L306.35 331.328L305.87 330.558L305.76 330.388L305.6 330.328H305.48L305.31 330.418L305.24 330.528L305.23 330.638ZM300.35 323.108L300.56 322.748L300.59 322.328L300.24 322.098L297.89 321.648L296.07 321.598L291.09 321.928L284.25 322.098L278.52 322.238L278.24 322.358L278.1 322.628L277.46 328.578L277.53 328.868L277.81 328.968H300.03L300.26 328.938L300.7 328.738L301 328.368L301.11 327.898L301.01 327.428L300.33 325.448L300.13 323.488L300.35 323.108Z" fill="black"/>
<path d="M359.58 327.199L360.17 326.949L368.24 327.169L368.96 327.349L369.53 327.819L369.85 328.489V329.219L369.76 329.519L369.04 330.659L368.21 331.359L367.22 331.829L365.99 332.109L364.68 332.179L363.07 332.009L361.5 331.639L359.97 331.069L358.73 330.379L358.4 330.019L358.32 329.539L358.68 328.419L359.58 327.199Z" fill="black"/>
<path d="M158.17 348.139V348.679L158.59 349.009L158.72 349.019L225.48 349.099L226.52 349.369L227.25 350.229L227.62 351.689L227.6 351.799L227.16 352.639L226.49 353.309L225.66 353.739L224.75 353.889L158.91 354.259L158.58 354.369L155.69 356.439L155.23 356.669L154.71 356.759L130.5 357.269L128.22 357.009L126.37 356.139L125.12 354.889L124.21 353.179L123.85 351.719L123.75 349.849L123.9 347.569L124.31 344.869L125.02 342.559L126.13 341.149L127.09 340.579L128.23 340.259L131.89 340.059L133.1 340.049L153.75 340.099L155.44 340.359L156.73 341.069L157.72 342.469L158.3 344.129L158.57 345.619L158.53 346.959L158.17 348.139ZM153.919 346.443L153.808 345.897L153.495 345.434L153.03 345.127L152.482 345.021L130.302 345.137L129.755 345.249L129.293 345.561L128.986 346.027L128.88 346.574L128.901 350.594L129.012 351.141L129.325 351.603L129.79 351.911L130.338 352.017L152.518 351.901L153.064 351.789L153.527 351.477L153.834 351.011L153.94 350.463L153.919 346.443Z" fill="black"/>
<path d="M402.66 345.039H333.4C332.085 345.039 331.02 346.105 331.02 347.419V347.679C331.02 348.994 332.085 350.059 333.4 350.059H402.66C403.974 350.059 405.04 348.994 405.04 347.679V347.419C405.04 346.105 403.974 345.039 402.66 345.039Z" fill="black"/>
<path d="M415.051 347.579V347.459L415.191 346.419L415.631 345.679L416.411 345.209L417.501 345.049L450.791 345.029L451.511 345.129L451.971 345.439L452.171 345.959L452.121 346.669L451.751 348.369L451.491 349.099L451.051 349.619L450.451 349.939L449.681 350.039L417.501 350.019L416.481 349.879L415.731 349.439L415.241 348.669L415.051 347.579Z" fill="black"/>
<path d="M347.266 362.977L275.386 363.102C274.027 363.105 272.928 364.208 272.93 365.566V365.626C272.933 366.985 274.036 368.085 275.394 368.082L347.274 367.957C348.633 367.954 349.732 366.851 349.73 365.492V365.432C349.728 364.074 348.624 362.974 347.266 362.977Z" fill="black"/>
<path d="M367.565 362.96L361.307 363.102C360.026 363.131 359.011 364.193 359.04 365.474L359.046 365.754C359.075 367.035 360.137 368.049 361.418 368.02L367.677 367.878C368.958 367.849 369.973 366.787 369.944 365.506L369.937 365.226C369.908 363.945 368.846 362.931 367.565 362.96Z" fill="black"/>
<path d="M158.423 366.988H209.973L210.743 367.248L210.993 368.008V370.008L210.723 370.808L209.923 371.058L196.213 371.008L186.253 371.328L178.623 371.598L172.323 371.388L166.533 371.098L158.343 370.928L157.753 370.838L157.323 370.588L157.043 370.168L156.933 369.578L156.883 368.618L156.973 368.008L157.293 367.488L157.783 367.128L158.383 366.988H158.423Z" fill="black"/>
<path d="M129.9 384.128L130.2 384.838L130.93 385.128L145.34 385.038L146.11 385.138L146.66 385.468L147 386.008L147.11 386.778L147.12 387.518L146.99 388.228L146.62 388.848L146.06 389.298L145.37 389.528L139.82 390.058L134.3 390.068L127.49 389.358L126.42 389.038L125.67 388.448L125.32 387.838L125.14 387.098L124.91 382.598L125.09 376.918L125.26 376.118L125.64 375.538L126.23 375.198L127.03 375.078L127.74 375.068L128.66 375.198L129.32 375.588L129.72 376.238L129.85 377.158L129.9 384.128Z" fill="black"/>
<path d="M367.779 381.01L402.939 381.16L404.189 381.53L405.029 382.52L405.259 383.46L405.079 384.32L404.679 384.84L404.019 385.23L401.739 385.9L367.769 386.06L333.799 385.83L331.529 385.16L330.869 384.77L330.469 384.25L330.289 383.39L330.519 382.45L331.369 381.46L332.609 381.09L367.779 381.01Z" fill="black"/>
<path d="M449.6 381.094L417.46 380.982C416.124 380.977 415.036 382.057 415.032 383.394L415.031 383.494C415.027 384.83 416.106 385.917 417.443 385.922L449.583 386.034C450.919 386.039 452.006 384.959 452.011 383.623V383.523C452.016 382.186 450.936 381.099 449.6 381.094Z" fill="black"/>
<path d="M225.11 384.109H167.33C166.004 384.109 164.93 385.184 164.93 386.509V386.569C164.93 387.895 166.004 388.969 167.33 388.969H225.11C226.435 388.969 227.51 387.895 227.51 386.569V386.509C227.51 385.184 226.435 384.109 225.11 384.109Z" fill="black"/>
<path d="M305.331 403.489L304.851 404.699L304.191 405.409L304.091 405.469L301.781 406.479L299.741 406.849L292.611 407.099L284.341 407.289L278.581 406.849L276.541 406.499L275.101 406.049L274.131 405.339L273.381 403.909L273.041 401.529L272.871 396.819L273.091 392.619L273.351 391.579L273.871 390.819L274.661 390.349L275.721 390.169L288.511 389.969L302.031 390.219L302.811 390.339L303.451 390.639L304.241 391.479L304.771 392.869L305.001 394.699L305.011 397.349L305.001 398.089L305.131 398.489L305.471 398.729L307.921 399.149L308.491 399.159L325.501 399.019L347.891 399.119L348.701 399.239L349.291 399.589L349.731 400.419L349.771 401.649L349.461 402.189L348.761 402.969L347.891 403.569L346.901 403.939L345.861 404.059L325.131 404.039L311.001 404.239L308.161 404.039L305.971 403.239L305.571 403.159L305.331 403.489ZM277.771 400.869L278.091 401.679L278.891 402.019H298.921L299.711 401.689L300.041 400.899V396.129L299.721 395.349L298.951 395.009L279.071 394.479L278.271 394.789L277.921 395.569L277.771 400.869Z" fill="black"/>
<path d="M367.591 399.09H360.791C359.504 399.09 358.461 400.133 358.461 401.42V401.64C358.461 402.927 359.504 403.97 360.791 403.97H367.591C368.878 403.97 369.921 402.927 369.921 401.64V401.42C369.921 400.133 368.878 399.09 367.591 399.09Z" fill="black"/>
<path d="M208.501 402.09H174.361C173.035 402.09 171.961 403.164 171.961 404.49V404.59C171.961 405.915 173.035 406.99 174.361 406.99H208.501C209.826 406.99 210.901 405.915 210.901 404.59V404.49C210.901 403.164 209.826 402.09 208.501 402.09Z" fill="black"/>
<path d="M402.582 417.049H332.882C331.523 417.049 330.422 418.15 330.422 419.509V419.569C330.422 420.927 331.523 422.029 332.882 422.029H402.582C403.941 422.029 405.042 420.927 405.042 419.569V419.509C405.042 418.15 403.941 417.049 402.582 417.049Z" fill="black"/>
<path d="M450.257 417.029L416.897 417.088C415.566 417.09 414.489 418.171 414.492 419.502V419.582C414.494 420.913 415.575 421.99 416.906 421.988L450.266 421.929C451.597 421.927 452.674 420.846 452.672 419.515L452.671 419.435C452.669 418.104 451.588 417.027 450.257 417.029Z" fill="black"/>
<path d="M171.112 420.148H128.292C126.983 420.148 125.922 421.21 125.922 422.518V422.578C125.922 423.887 126.983 424.948 128.292 424.948H171.112C172.421 424.948 173.482 423.887 173.482 422.578V422.518C173.482 421.21 172.421 420.148 171.112 420.148Z" fill="black"/>
<path d="M225.124 420.123L186.384 420.055C185.059 420.053 183.982 421.125 183.98 422.451V422.531C183.978 423.856 185.05 424.933 186.376 424.935L225.116 425.003C226.441 425.005 227.518 423.932 227.52 422.607V422.527C227.522 421.201 226.45 420.125 225.124 420.123Z" fill="black"/>
<path d="M305.261 438.909L305.501 439.389L305.591 439.819L305.221 440.049L300.991 440.819L281.581 441.089L280.781 441.119L278.071 441.129L276.091 440.869L274.561 440.269L273.581 439.349L273.211 438.549L273.051 437.549L272.961 431.249L273.131 425.689L273.271 425.129L273.601 424.659L274.071 424.339L274.631 424.219L288.031 423.959L301.531 424.219L302.841 424.449L303.841 425.029L304.331 425.619L304.681 426.359L304.961 428.319L305.031 435.089L305.041 435.199L305.421 435.709L306.051 435.759L307.301 435.429L308.751 435.269L324.001 435.009L345.741 435.169L346.931 435.329L347.961 435.759L348.821 436.449L349.521 437.419L349.751 437.909L349.761 438.859L349.451 439.499L349.001 439.779L348.371 439.879L330.871 440.059L309.731 440.039L307.461 439.719L306.561 439.329L305.801 438.789L305.161 438.399L305.261 438.909ZM277.991 435.149L278.171 435.629L278.611 435.909L278.811 435.929H299.361L299.961 435.669L300.181 435.069L299.851 429.099L299.631 428.579L299.111 428.329H298.991L278.501 429.449L278.261 429.499L277.861 429.819L277.721 430.319L277.991 435.149Z" fill="black"/>
<path d="M368.68 435.965L360.201 436.054C359.521 436.061 358.976 436.617 358.984 437.296L358.999 438.776C359.006 439.456 359.563 440 360.242 439.993L368.721 439.905C369.401 439.897 369.946 439.341 369.938 438.662L369.923 437.182C369.916 436.503 369.359 435.958 368.68 435.965Z" fill="black"/>
<path d="M158.642 460.459L157.302 462.039L156.202 462.809L154.922 463.379L153.462 463.739L151.822 463.889L137.802 464.139L128.432 463.999L127.242 463.729L126.222 463.069L125.492 462.099L125.132 460.929L124.762 454.509L124.832 451.899L125.072 450.129L125.822 448.609L126.502 447.999L127.372 447.549L129.672 447.119L142.722 446.879L153.992 447.249L155.952 447.819L156.692 448.419L157.352 449.679L157.772 450.999L157.952 452.379L157.892 453.809L158.132 454.649L158.912 455.049H158.982H225.632L226.632 455.189L227.342 455.619L227.772 456.329L227.912 457.329V457.769L227.742 458.629L227.252 459.359L226.532 459.849L225.672 460.019H159.432L158.972 460.129L158.642 460.459ZM153.111 453.357L153.004 452.837L152.707 452.397L152.264 452.105L151.743 452.004L130.744 452.114L130.224 452.22L129.784 452.517L129.492 452.96L129.391 453.481L129.413 457.701L129.519 458.221L129.816 458.66L130.259 458.953L130.78 459.054L151.78 458.944L152.3 458.838L152.739 458.54L153.032 458.098L153.133 457.577L153.111 453.357Z" fill="black"/>
<path d="M396.392 453.488L400.182 453.448L402.432 453.598L403.162 453.858L403.852 454.378L404.972 456.058L404.962 456.378L404.782 456.978L404.402 457.478L403.872 457.808L403.252 457.928L367.522 458.078L332.302 457.928L331.272 457.768L330.542 457.328L330.192 456.798L330.012 456.118L330.102 455.368L330.542 454.768L331.622 454.068L332.872 453.568L334.342 453.228L335.792 453.118L384.742 453.068L390.592 453.268L396.392 453.488Z" fill="black"/>
<path d="M451.79 456.86L451.7 457.24L451.38 457.61L450.91 457.76L418.62 458.21L416.89 458.11L415.42 457.77L414.43 457.24L414.08 456.61L414.07 455.67L414.4 455.03L415.37 454.48L416.83 454.1L418.56 453.95L450.85 453.5L451.47 453.74L451.75 454.38L451.79 456.86Z" fill="black"/>
<path d="M347.64 471.039H275.32C274.049 471.039 273.02 472.069 273.02 473.339V473.739C273.02 475.009 274.049 476.039 275.32 476.039H347.64C348.91 476.039 349.94 475.009 349.94 473.739V473.339C349.94 472.069 348.91 471.039 347.64 471.039Z" fill="black"/>
<path d="M367.564 471.049L361.345 471.19C360.053 471.219 359.03 472.291 359.059 473.583L359.065 473.842C359.094 475.134 360.165 476.158 361.457 476.129L367.676 475.988C368.968 475.958 369.991 474.887 369.962 473.595L369.956 473.335C369.927 472.043 368.856 471.02 367.564 471.049Z" fill="black"/>
<path d="M179.585 473.058L157.405 473.02C156.096 473.017 155.033 474.077 155.031 475.386V475.506C155.029 476.815 156.088 477.877 157.397 477.88L179.577 477.918C180.886 477.921 181.948 476.862 181.951 475.553V475.433C181.953 474.124 180.894 473.061 179.585 473.058Z" fill="black"/>
<path d="M200.968 473.039L209.918 473.159L210.798 473.479L211.348 474.239L211.538 475.239L211.368 476.069L210.968 476.619L210.318 477.049L208.298 477.579L200.978 477.879L193.648 477.609L191.628 477.089L190.978 476.649L190.568 476.109L190.398 475.279L190.588 474.279L191.138 473.509L192.018 473.189L200.968 473.039Z" fill="black"/>
<path d="M129.359 489.68L129.379 490.18L129.739 490.53L131.529 491.03L133.489 491.17L207.989 491.04L222.259 490.66L225.359 490.84L226.449 491.16L227.239 491.64L227.549 492.04L227.649 492.49L227.539 493.51L227.139 494.25L226.359 494.74L225.239 494.92L166.239 495.03L158.839 495.33L158.409 495.46L158.149 495.81L157.469 496.91L156.659 497.56L155.779 497.83H154.809L151.999 497.06L150.109 496.46L148.739 496.25L128.929 495.96L127.529 495.76L126.399 495.2L125.979 494.82L125.269 493.44L124.899 491.21L124.859 488.05L125.159 484V483.98L125.329 483.25L125.669 482.69L126.259 482.25L127.069 482.02L128.249 482.16L128.789 482.54L129.189 483.11L129.709 484.85L129.769 487.36L129.359 489.68Z" fill="black"/>
<path d="M368.05 489.049L401.6 489.249L403.85 489.919L404.5 490.309L404.9 490.819L405.07 491.669L404.84 492.599L404.01 493.569L402.78 493.939L368.05 494.039L333.31 493.909L332.09 493.539L331.25 492.569L331.02 491.639L331.2 490.789L331.6 490.279L332.25 489.889L334.5 489.229L368.05 489.049Z" fill="black"/>
<path d="M434.29 489.709L441.31 489.219L449.11 489.439L450.22 489.659L451.15 490.159L451.78 490.849L452.01 491.649L452.03 491.739L452.17 492.779L451.92 493.499L451.35 493.879L450.45 494.009L416.57 493.929H416.43L415.77 493.729L415.25 493.279L414.95 492.659L414.93 491.969L415 491.589L415.33 490.639L415.9 489.969L416.69 489.589L417.71 489.509L427.93 489.939L434.29 489.709Z" fill="black"/>
<path d="M305.668 511.378L305.308 511.328L305.068 511.598V511.758L305.048 513.038L304.458 514.068L303.268 514.938L301.598 515.558L299.738 515.838L280.238 516.138L277.128 515.838L274.358 514.908L273.478 514.148L273.098 513.058L272.898 508.898L272.938 504.788L273.268 501.578L273.658 500.588L274.288 499.798L275.218 499.288L276.518 499.068L288.788 498.908L302.188 499.198L302.928 499.398L303.508 499.888L304.148 501.048L304.628 502.628L304.948 504.608L305.108 506.998L305.338 507.658L306.018 507.888L347.718 508.108L348.428 508.198L349.008 508.468L349.628 509.158L350.008 510.188V510.278L349.678 510.958L349.178 511.498L348.548 511.848L347.858 511.968L307.158 512.148L306.698 512.068L306.298 511.858L305.668 511.378ZM300.028 505.258L299.668 504.398L298.808 504.038H279.068L278.208 504.398L277.848 505.258V509.818L278.208 510.678L279.068 511.038H298.808L299.668 510.678L300.028 509.818V505.258Z" fill="black"/>
<path d="M364.062 507L365.792 507.05L367.202 507.33L368.322 507.81L369.212 508.58L369.942 510.08L369.952 510.11L369.782 511.04L368.992 511.56L366.362 511.93L364.202 512.06L362.032 512.05L359.392 511.82L358.572 511.34L358.352 510.42V510.39L359.002 508.85L359.852 508.04L360.942 507.5L362.342 507.15L364.062 507Z" fill="black"/>
<path d="M208.669 508.049H158.369C157.082 508.049 156.039 509.092 156.039 510.379V510.479C156.039 511.766 157.082 512.809 158.369 512.809H208.669C209.956 512.809 210.999 511.766 210.999 510.479V510.379C210.999 509.092 209.956 508.049 208.669 508.049Z" fill="black"/>
<path d="M130.728 525.909L132.988 526.199L167.368 526.039L225.268 526.109L225.968 526.199L226.558 526.469L227.268 527.319L227.648 528.669V528.699L227.638 528.769L227.238 529.599L226.608 530.259L225.798 530.689L224.898 530.839L172.988 531.189L160.618 531.269L159.108 531.469L157.088 531.989L155.188 532.489L153.798 532.669L152.518 532.519L150.788 531.989L149.268 531.509L148.178 531.349L131.278 530.899L129.448 530.689L127.698 530.249L125.788 529.439L125.418 529.119L125.238 528.649L124.898 524.529L124.968 520.439L125.258 517.629L125.438 516.979L125.788 516.499L126.578 516.129L127.728 516.139L128.218 516.309L128.918 516.649L129.388 517.129L129.628 517.749L129.648 518.519L129.118 523.419L129.168 524.219L129.478 524.949L130.018 525.539L130.728 525.909Z" fill="black"/>
<path d="M380.591 525.568L385.241 525.179L389.971 524.979L399.691 525.179L402.311 525.689L404.271 526.099L404.711 526.299L404.931 526.739L405.021 528.369L404.831 529.549L404.581 529.909L404.171 530.029H332.011L331.111 529.898L330.491 529.508L330.161 528.859L330.121 527.948L330.311 527.429L331.501 526.099L332.121 525.739L332.691 525.629L353.431 526.049L376.491 525.958L380.591 525.568Z" fill="black"/>
<path d="M432.62 525.629L435.39 525.839L439.17 525.879L449.71 525.459L450.76 525.549L451.58 525.939L452.15 526.619L452.5 527.609L452.57 527.999L452.54 528.709L452.24 529.349L451.7 529.809L451.02 530.009L450.87 530.019L415.95 530.029L415.03 529.899L414.44 529.499L414.18 528.759L414.33 527.689L414.35 527.599L414.59 526.779L415.23 526.059L416.19 525.549L417.34 525.319L425.38 525.109L432.62 525.629Z" fill="black"/>
<path d="M347.938 544.039H275.038C273.956 544.039 273.078 544.917 273.078 545.999V546.059C273.078 547.142 273.956 548.019 275.038 548.019H347.938C349.021 548.019 349.898 547.142 349.898 546.059V545.999C349.898 544.917 349.021 544.039 347.938 544.039Z" fill="black"/>
<path d="M359.027 544.869L359.267 544.299L359.837 544.059H367.307L368.297 544.189L369.147 544.569L369.707 545.129L369.907 545.789V546.229L369.707 546.889L369.147 547.449L368.297 547.829L367.307 547.959H359.837L359.267 547.719L359.027 547.149V544.869Z" fill="black"/>
<path d="M535.201 548.409L533.801 548.379L531.961 548.299L530.591 547.919L529.411 547.149L528.961 546.419L529.011 545.569L529.341 545.009L530.141 544.449L531.311 544.219L540.531 544.139L541.531 544.309L542.291 544.759L542.841 545.569L543.081 546.729L542.901 547.489L542.221 547.889L538.821 548.419L535.201 548.409Z" fill="black"/>
<path d="M33.4908 621.179C41.6038 621.179 48.1808 614.602 48.1808 606.489C48.1808 598.376 41.6038 591.799 33.4908 591.799C25.3777 591.799 18.8008 598.376 18.8008 606.489C18.8008 614.602 25.3777 621.179 33.4908 621.179Z" fill="black"/>
<path d="M649.508 621.188C657.616 621.188 664.188 614.616 664.188 606.508C664.188 598.401 657.616 591.828 649.508 591.828C641.401 591.828 634.828 598.401 634.828 606.508C634.828 614.616 641.401 621.188 649.508 621.188Z" fill="black"/>
<path d="M341.848 599.969L617.478 600.059L618.788 600.209L619.928 600.639L620.798 601.239L621.518 601.989L622.128 602.959L622.548 604.049L622.768 605.209L622.788 606.399L622.588 607.579L622.168 608.709L620.988 610.599L619.628 611.849L618.408 612.459L616.848 612.869L612.318 613.069H611.548L341.848 613.039L72.158 613.059H71.388L66.858 612.859L65.298 612.459L64.078 611.839L62.708 610.589L61.538 608.699L61.118 607.569L60.918 606.389L60.938 605.199L61.158 604.039L61.578 602.949L62.188 601.979L62.908 601.229L63.778 600.639L64.918 600.199L66.218 600.049L341.848 599.969Z" fill="black"/>
<path d="M144.688 658.179L145.578 659.109L146.798 659.969L150.188 661.489L168.838 668.069L173.658 670.249L177.558 672.689L180.548 675.339L181.658 676.719L182.558 678.199L183.678 680.779L184.428 683.389L184.838 686.079L184.868 688.739L184.428 691.989L183.458 695.099L182.018 698.019L180.118 700.709L177.798 703.119L175.088 705.189L172.118 706.839L168.838 708.089L165.798 708.889L162.738 709.449L159.668 709.769L156.608 709.859L153.608 709.709L150.638 709.319L147.708 708.689L144.818 707.809L142.008 706.689L139.258 705.319L138.848 705.089L136.718 703.689L134.778 702.089L132.968 700.229L131.358 698.199L129.958 695.999L128.768 693.659L127.778 691.119L127.028 688.499L126.988 687.839L127.188 687.209L127.588 686.689L128.148 686.349L138.428 682.309L138.448 682.299L138.798 682.329L139.018 682.609L139.358 683.959L140.068 686.599L140.778 688.399L141.448 689.599L143.588 692.389L146.118 694.639L148.308 695.989L150.738 697.019L153.388 697.739L156.278 698.139L158.548 698.199L160.868 698.009L163.018 697.579L165.058 696.899L166.738 696.059L168.228 694.999L169.388 693.789L170.288 692.369L170.748 691.209L171.038 689.929L171.058 687.229L170.768 686.019L170.228 684.899L169.388 683.769L168.348 682.739L165.358 680.749L161.728 679.229L141.218 672.639L138.428 671.239L135.858 669.379L133.568 667.149L131.658 664.589L130.268 661.939L129.348 659.119L128.958 656.339L129.108 653.499L129.468 651.829L130.368 648.999L131.388 646.579L132.638 644.409L134.048 642.569L135.538 641.079L137.288 639.709L139.968 638.029L142.708 636.639L145.528 635.519L148.408 634.689L152.018 634.059L155.738 633.859L160.628 634.149L165.358 634.979L169.428 636.249L172.778 637.949L176.958 641.139L178.928 643.029L180.638 644.929L182.108 646.869L183.238 648.719L184.098 650.539L184.678 652.369L184.618 653.359L183.888 654.039L173.338 659.259L172.808 659.279L172.428 658.909L172.408 658.849L170.268 652.519L169.628 651.349L168.748 650.279L167.568 649.249L166.218 648.349L162.768 646.809L159.148 646.009L155.698 645.879L151.908 646.159L150.288 646.479L148.698 647.039L147.188 647.809L145.828 648.769L144.748 649.829L143.888 651.019L143.348 652.239L143.098 653.549L143.138 654.689L143.428 655.889L143.928 657.019L144.688 658.179Z" fill="black"/>
<path d="M426.13 652.189L425.88 653.819L425.87 655.269L426.1 656.629L426.56 657.809L427.78 659.439L429.63 660.819L432.19 661.999L435.99 663.229L436.66 663.429L440.29 664.479L446.1 666.189L450.28 667.619L453.92 669.139L457.09 670.799L459.83 672.619L462.1 674.609L464.01 676.859L465.43 679.239L466.53 682.139L467.11 685.209L467.24 687.999L467.04 690.649L466.51 693.249L465.65 695.689L464.48 698.009L463.01 700.139L461.21 702.159L459.14 703.959L456.8 705.549L454.24 706.909L451.48 708.029L448.55 708.899L444.76 709.619L440.71 709.959L436.55 709.899L432.58 709.459L428.81 708.639L425.41 707.489L422.28 705.959L419.64 704.159L417.57 702.349L415.7 700.429L414.04 698.369L412.58 696.199L410.71 692.559L409.34 688.629L409.37 688.139L409.69 687.759L411.46 686.759L416.06 684.589L420.92 682.899L421.49 682.919L421.74 683.439L422.42 686.619L423.65 689.559L425.4 692.169L427.62 694.389L429.13 695.479L430.78 696.409L432.48 697.109L434.3 697.629L436.97 698.079L439.83 698.249L442.61 698.089L445.13 697.629L447.37 696.879L449.2 695.889L450.7 694.659L451.9 693.119L452.51 691.859L452.92 690.429L453.09 688.939L453.06 687.299L452.86 686.269L452.45 685.289L451 683.359L448.67 681.529L445.9 680.149L429.79 674.989L426.34 673.619L421 671.059L418.07 669.209L415.59 666.799L414.33 665.049L413.33 663.169L412.55 661.069L412.03 658.869L411.77 656.559L411.78 654.189L412.05 651.799L412.57 649.399L413.19 647.679L414.14 645.919L415.4 644.119L416.99 642.269L418.19 641.069L420.76 638.989L423.53 637.299L426.63 635.899L429.88 634.889L433.38 634.209L437.15 633.869L440.92 633.909L444.86 634.319L447.95 634.939L450.85 635.839L453.57 637.019L456.11 638.469L459.12 640.779L461.82 643.549L464.21 646.789L466.3 650.499L466.77 651.849L466.83 653.149L466.71 653.779L466.49 654.219L466.12 654.509L455.65 659.689L455.25 659.699L454.99 659.399L454.97 659.329L454.41 656.599L453.56 654.219L452.37 652.099L450.91 650.319L449.5 649.089L447.94 648.079L446.14 647.229L444.19 646.599L441.99 646.149L439.66 645.919L434.5 646.049L431.95 646.549L429.72 647.509L427.92 648.889L426.7 650.579L426.13 652.189Z" fill="black"/>
<path d="M74.1794 693.478L69.3894 706.878L68.7394 707.728L67.7294 708.048H55.0494L54.5094 707.968L54.1994 707.748L54.1094 707.368L54.2394 706.848L80.8194 639.528L81.0094 639.048L81.9794 636.858L83.0394 635.648L84.1794 635.108L85.7694 634.898L95.4394 635.008L96.6594 635.428L97.4494 636.448L125.459 707.728L125.469 707.968L125.249 708.048H111.799L111.029 707.948L110.389 707.658L109.889 707.178L109.519 706.518L107.329 700.728L105.369 694.658L104.839 693.428L104.139 692.658L102.959 692.168L101.029 692.038L100.319 692.018L78.2394 691.958L76.1494 692.138L74.8194 692.638L74.4394 692.998L74.1794 693.478ZM79.2594 680.548L79.2494 680.568L79.3294 680.988L79.7194 681.178L99.5894 681.038L99.7894 680.998L100.029 680.748L100.039 680.398L89.8994 651.688L89.6394 651.418H89.2494L88.9894 651.698L79.2594 680.548Z" fill="black"/>
<path d="M220.08 667.349L220.4 667.789L220.72 667.929L221.03 667.779L221.34 667.339L237.82 636.209L238.67 635.269L239.89 634.959H253.67L253.84 634.989L254.19 635.339L254.12 635.829L250.67 641.209L228.51 679.069L227.7 680.899L227.43 682.649V684.429L227.09 689.559L227.08 694.989L227.4 700.719L228.05 706.739L228.06 706.809L227.75 707.679L226.9 708.039H213.56L213.17 707.869L213.01 707.479L212.97 684.809V684.749L212.71 680.959L212.33 679.479L211.76 678.229L211.66 678.049L186.28 635.679L186.16 635.139L186.69 634.959H201.79L202.22 635.079L202.54 635.399L220.08 667.349Z" fill="black"/>
<path d="M297.98 679.558V707.248L297.75 707.808L297.19 708.038H284.75L284.19 707.848L284 707.278V636.048L284.28 635.368L284.95 635.068L301.44 634.908L316.49 635.178L321.07 635.598L325.73 636.578L328.58 637.538L331.31 638.878L333.77 640.498L335.99 642.428L337.78 644.498L339.23 646.798L340.24 649.168L340.84 651.708L340.93 652.468L341.15 657.388L340.79 661.658L339.85 665.248L339.16 666.808L338.3 668.268L336.76 670.278L335.01 672.058L333.02 673.648L330.82 674.998L328.4 676.118L325.77 676.998L325.61 677.068L325.29 677.558L325.49 678.118L327.86 680.798L329.85 683.928L340.82 703.218L342.2 705.438L343.71 707.488L343.78 707.808L343.56 708.038L343.44 708.058H329.36L328.35 707.798L327.57 707.098L324.01 701.198L319.7 692.798L315.09 683.988L314.17 681.808L313.7 680.548L313.14 679.798L311.91 679.178L310.08 678.998L298.53 679.008L298.14 679.168L297.98 679.558ZM300.8 667.128L318.02 667.008L320.64 666.578L322.99 665.468L324.69 663.978L325.95 662.158L326.82 659.978L327.2 657.658L327.09 655.308L326.47 653.048L325.42 651.088L323.9 649.428L322.84 648.658L321.62 648.038L318.96 647.318L315.65 646.988L311.96 646.828L302.26 647.018L299.71 647.118L299.17 647.358L298.96 647.908L298.88 650.818L298.56 653.498L298.16 656.458L297.93 659.738L298.09 666.408L298.25 666.928L298.61 667.328L299.11 667.538L299.65 667.528L299.83 667.468L300.24 667.288L300.8 667.128Z" fill="black"/>
<path d="M608.16 657.229L589.69 707.549L589.4 707.959L588.9 708.099H579.5L578.53 707.789L577.91 706.969L560.67 657.609L560.45 657.239L560.32 657.649L559.81 664.039L559.96 707.389L559.76 707.869L559.27 708.069H547.78L547.23 707.839L547 707.299V635.939L547.29 635.239L547.99 634.949H564.11L564.93 635.209L565.45 635.889L584.25 688.539L584.44 688.809L584.64 688.539L603.45 635.979L604 635.259L604.86 634.989H621.43L621.82 635.149L621.98 635.539V707.069L621.67 707.809L620.93 708.119H608.81L608.43 707.989L608.32 707.609L608.8 693.799L608.89 676.379L608.5 669.859L608.11 662.779L608.24 660.089L608.6 657.579L608.58 657.429L608.43 657.339L608.19 657.219H608.17L608.16 657.229Z" fill="black"/>
<path d="M15 647.769V664.169L15.01 664.279L15.38 664.879L16.08 664.989L20.11 664.229L24.78 664.029L35.79 664.429L45.46 665.219L45.9 665.439L46.08 665.899V674.799L45.72 675.679L44.84 676.039H15.49L15.12 676.169L14.99 676.539V695.019L15.29 695.739L16.02 696.039L39.74 696.099L44.96 696.349L50.27 696.959L50.88 697.299L51.11 697.959L50.86 707.129L50.58 707.779L49.92 708.049H0.540009L0.160004 707.889L0 707.499V636.099L0.300003 635.359L1.03 635.059H49.18L49.81 635.149L50.26 635.419L50.55 635.869L50.66 636.509L50.93 646.239L50.71 646.799L50.16 647.039H50.15H15.73L15.18 647.219L15 647.769Z" fill="black"/>
<path d="M365.988 676.539V695.029L366.278 695.729L366.968 696.019L397.238 695.969L400.378 696.119L402.358 696.629L402.858 697.059L403.028 697.709V707.129L402.758 707.769L402.118 708.039H351.818L351.388 707.849L351.238 707.409L351.248 707.349L351.828 703.369L352.018 698.789L352.058 636.309L352.428 635.419L353.318 635.049H400.838L401.628 635.309L401.888 636.099V645.239L401.748 645.929L401.358 646.509L400.778 646.899L400.088 647.039H366.848L366.178 647.269L365.948 647.939V663.999L366.218 664.679L366.888 664.979L372.928 665.029L378.888 664.699L382.968 664.459L387.918 664.519L394.378 664.969L396.268 665.129L396.858 665.409L397.098 666.019V674.789L396.728 675.669L395.848 676.039H366.488L366.118 676.169L365.988 676.539Z" fill="black"/>
<path d="M505.563 697.17H506.243L509.823 697.05L512.203 696.46L513.763 695.66L515.143 694.68L517.223 692.43L518.773 689.57L519.733 686.15L520.053 682.31L519.963 635.82L520.203 635.24L520.783 635H533.113L533.763 635.22L533.983 635.87L534.073 683.32L533.873 687.09L533.243 690.61L532.193 693.89L530.723 696.93L529.463 698.89L528.003 700.73L526.333 702.45L524.473 704.06L522.633 705.35L520.623 706.49L518.353 707.52L515.973 708.37L510.793 709.61L508.133 709.94L505.583 710.06L503.033 709.95L500.373 709.63L495.193 708.42L492.813 707.57L490.533 706.55L488.513 705.42L486.673 704.14L484.803 702.54L483.133 700.82L481.663 698.99L480.393 697.03L478.913 694L477.853 690.72L477.213 687.2L476.993 683.44L476.883 635.99L477.103 635.33L477.753 635.11L490.083 635.06L490.663 635.3L490.903 635.88L491.003 682.37L491.343 686.2L492.313 689.62L493.873 692.48L495.973 694.72L497.343 695.69L498.913 696.49L501.293 697.06L504.883 697.18L505.563 697.17Z" fill="black"/>
<path d="M648.988 676.789V695.029L649.288 695.739L649.998 696.039H685.358L685.808 696.219L685.988 696.669V707.039L685.698 707.749L684.988 708.039H635.268L635.068 707.959L634.988 707.759V635.879L635.198 635.259L635.818 635.049H685.018L685.818 635.319L686.068 636.139L685.828 645.109L685.658 645.849L685.228 646.479L684.598 646.889L683.848 647.039H649.488L649.108 647.169L648.988 647.529V662.889L649.278 663.599L649.988 663.909L679.638 664.709L679.948 664.819L680.048 665.129V674.999L679.788 675.779L678.998 676.039H649.738L649.178 676.229L648.988 676.789Z" fill="black"/>
</g>
<defs>
<clipPath id="clip0_777_31018">
<rect width="688" height="711" fill="white"/>
</clipPath>
</defs>
</svg>
