<svg xmlns="http://www.w3.org/2000/svg" viewBox="0 0 100 100" width="100" height="100">
<rect x="1" y="1" width="98" height="98" rx="20" fill="#ffffff" stroke="#e6e4df" stroke-width="1.5"/>
<svg x="17" y="17" width="66" height="66" preserveAspectRatio="xMidYMid meet" xmlns="http://www.w3.org/2000/svg" xmlns:xlink="http://www.w3.org/1999/xlink" viewBox="0 0 1038 1045"><path fill="#EE242A" d="M506.645 46.85C766.485 40.2957 982.486 245.505 989.208 505.305C995.931 765.105 790.832 981.209 531 988.097C270.932 994.993 54.559 789.694 47.8304 529.658C41.1017 269.621 246.568 53.4103 506.645 46.85Z"/><path fill="#FEFEFE" d="M488.264 449.143C492.491 448.865 496.212 449.232 500.001 451.321C507.98 455.722 511.959 465.311 514.346 473.642C522.355 501.597 523.323 565.09 508.85 590.375C505.468 596.284 500.684 599.628 494.251 601.436C489.686 601.819 485.349 601.236 481.382 598.808C473.271 593.844 469.361 582.564 467.173 573.812C460.375 546.63 459.017 484.228 473.591 460.251C477.13 454.428 481.578 450.748 488.264 449.143Z"/><path fill="#EE242A" d="M488.884 457.189C489.923 457.117 491.005 457.022 492.041 457.161C494.143 457.443 495.622 458.637 496.877 460.284C508.092 475.001 505.327 551.756 502.517 571.636C501.428 579.34 499.958 588.466 493.393 593.421C492.374 593.513 491.322 593.615 490.306 593.451C488.13 593.102 486.607 591.878 485.325 590.138C474.243 575.11 477.012 499.526 479.712 479.694C480.779 471.858 482.205 462.245 488.884 457.189Z"/><path fill="#FEFEFE" d="M645.541 449.116C661.751 447.788 669.382 463.451 672.221 476.921C677.882 503.786 684.83 593.213 650.771 601.485C634.28 602.497 626.982 587.155 624.027 573.36C618.385 547.017 611.676 456.806 645.541 449.116Z"/><path fill="#EE242A" d="M646.072 457.15C647.201 457.095 648.336 457.015 649.455 457.233C651.566 457.645 653.096 459.032 654.27 460.776C664.827 476.459 662.724 555.787 658.691 576.626C657.457 583.007 655.775 589.685 650.115 593.501C649.279 593.543 648.417 593.591 647.583 593.503C645.133 593.245 643.441 591.728 642.086 589.781C631.321 574.313 633.788 494.372 637.584 474.231C638.781 467.88 640.448 460.964 646.072 457.15Z"/><path fill="#FEFEFE" d="M501.425 179.316C531.261 176.528 571.277 182.517 600.163 189.624L600.142 202.865C552.92 189.825 506.492 188.783 458.454 197.714C373.091 212.847 297.455 261.801 248.699 333.476C234.409 354.783 225.247 373.523 215.604 397.023L202.237 396.992C251.293 268.956 364.88 187.381 501.425 179.316Z"/><path fill="#FEFEFE" d="M387.847 450.531C399.028 450.397 409.036 449.76 419.53 454.362C436.059 461.609 440.949 479.595 437.481 496.103C434.978 508.02 428.993 515.36 418.975 521.795C426.092 547.006 435.442 574.802 443.307 600.046L428.715 600.073C421.417 573.703 412.789 546.203 404.988 519.856C410.957 516.845 413.736 515.016 417.808 509.523C427.046 495.823 427.095 467.383 409.843 459.793C407.359 458.7 404.604 458.188 401.948 457.668C401.514 460.504 401.704 469.246 401.708 472.351L401.742 500.84L401.718 600.043L387.865 600.071C387.338 550.583 387.834 500.085 387.847 450.531Z"/><path fill="#FEFEFE" d="M269.708 450.511L281.35 450.515C283.431 467.441 286.328 485.471 288.771 502.413L302.854 600.043L289.033 600.078C288.244 591.254 286.252 580.763 285.213 571.743C284.73 567.549 283.06 554.622 282.049 551.221L264.449 551.218C261.833 564.965 259.739 585.546 257.868 600.038L248.336 600.058C248.699 595.698 249.583 591.073 250.175 586.714C256.341 541.307 263.797 495.94 269.708 450.511Z"/><path fill="#EE242A" d="M273.162 486.64C274.231 490.265 275.519 501.657 276.098 505.961L281.212 543.48L272.896 543.453L265.221 543.459C267.547 528.229 269.162 512.804 271.397 497.553C271.931 493.909 272.331 490.229 273.162 486.64Z"/><path fill="#FEFEFE" d="M800.999 666.975L815.45 667.037C812.345 673.221 809.027 679.295 805.501 685.25C759.365 763.188 684.094 819.553 596.314 841.894L584.983 844.43L584.882 831.014C591.198 829.882 599.466 827.648 605.661 825.85C691.055 801.065 758.263 744.233 800.999 666.975Z"/><path fill="#FEFEFE" d="M216.88 667.011L230.835 666.975C233.43 671.678 236.115 676.33 238.89 680.928C276.039 741.565 331.977 788.413 398.197 814.349C415.859 821.321 430.15 825.337 448.453 829.851L448.39 843.327C440.793 841.921 431.738 839.51 424.333 837.359C351.074 815.967 287.102 770.638 242.64 708.616C232.429 694.445 225.253 682.234 216.88 667.011Z"/><path fill="#FEFEFE" d="M828.3 449.132C851.971 447.141 855.621 475.702 856.513 492.983L842.459 493.021C842.208 487.035 841.953 455.616 829.822 456.753C823.636 457.332 821.205 467.142 821.041 472.82C820.145 503.89 847.49 526.231 854.065 555.456C858.213 573.425 854.014 597.042 833.474 601.619C809.692 601.779 805.517 575.569 804.737 557.29L818.965 557.29C819.111 563.754 819.529 570.107 820.697 576.586C821.816 582.797 827.072 599.259 836.012 592.227C839.613 589.394 842.269 582.949 842.671 578.224C844.792 553.27 827.614 532.122 816.909 511.066C808.918 495.724 803.253 475.131 813.051 459.27C816.634 453.47 821.808 450.503 828.3 449.132Z"/><path fill="#FEFEFE" d="M546.869 450.522C560.775 450.371 572.754 449.419 584.915 458.015C601.548 469.774 602.463 495.21 591.052 510.873C584.696 519.599 575.23 523.438 564.672 524.878L564.623 519.912C567.087 518.883 569.944 517.526 572.091 515.871C585.631 505.433 588.077 479.171 577.486 466.033C573.244 460.77 567.375 458.59 560.796 458.04L560.794 475.812L560.792 600.08L546.909 600.107C546.556 582.304 546.837 563.757 546.835 545.873L546.869 450.522Z"/><path fill="#FEFEFE" d="M192.964 450.516L229.383 450.521L229.399 458.272L207.051 458.293L207.083 517.122C214.08 517.043 221.077 517.042 228.074 517.119L228.082 524.927L207.048 524.91L207.064 587.43L207.128 592.307L230.564 592.305L230.57 600.037L193.015 600.067C192.696 575.264 192.989 549.794 192.985 524.937L186.883 524.973L186.874 517.124L192.98 517.114L192.964 450.516Z"/><path fill="#FEFEFE" d="M311.654 450.519L365.012 450.512L365.041 458.283L345.377 458.302L345.376 580.414L345.369 600.038L331.353 600.058C330.843 553.155 331.331 505.278 331.325 458.296L311.686 458.299L311.654 450.519Z"/><path fill="#FEFEFE" d="M704.81 450.537L718.743 450.517L718.769 592.292L742.232 592.295L742.245 600.083L704.828 600.105L704.81 450.537Z"/><path fill="#FEFEFE" d="M764.886 450.522L778.763 450.517L778.76 600.084L764.909 600.106C764.163 550.94 764.838 499.856 764.886 450.522Z"/></svg>
</svg>
