<svg width="400" height="601" viewBox="0 0 400 601" fill="none" xmlns="http://www.w3.org/2000/svg">
<g clip-path="url(#clip0_777_29193)">
<rect width="400" height="601" fill="white"/>
<path d="M274.599 3.66L268.059 1.74001L264.099 0.940002L258.059 0.669998L249.429 0.720001L234.759 0.940002L58.7891 0.970001L60.2891 0.279999L62.5991 0.0500031L252.349 0L258.979 0.209991L265.089 0.830002L269.859 1.88L274.599 3.66Z" fill="#676661"/>
<path d="M56.6495 1.18867L46.7595 3.32867L37.1195 6.21867L27.9495 9.76868L27.5995 9.79868L27.5195 9.68867L30.3695 8.22867L32.8195 7.22867L41.9895 4.16867L52.0695 1.46867L54.1195 1.14867L56.1395 1.13867L56.6495 1.18867Z" fill="#676661"/>
<path d="M58.7918 0.970154L234.762 0.940155L249.432 0.720154L258.062 0.670151L264.102 0.940155L268.062 1.74016L274.602 3.66016L275.302 3.74016L275.682 4.01015L275.692 4.02016L287.752 10.9702L288.372 11.3701L288.582 11.7702L298.082 21.1902L300.422 23.7702L301.922 26.6102L304.712 30.9102L307.162 35.4301L311.232 44.2301L312.842 48.0602L314.152 51.6602L315.132 55.0201L315.812 58.1501L316.602 64.6902L316.702 71.2101L316.262 76.6702V76.7101L316.322 77.3301L316.612 77.8802L317.102 78.2602L317.702 78.4301L325.072 78.8401L332.762 79.0501L349.112 78.8601L350.022 79.0801L351.342 79.5602L356.432 80.7902L361.352 82.4601L365.602 84.3202L369.702 86.5302L373.682 89.1002L377.512 92.0102L383.172 97.5302L388.392 104.64L391.692 111.26L394.032 119.09L395.132 124.02L395.512 128.87L395.522 135.19L395.342 146.37L395.412 175.85L395.282 205.24L393.742 205.94L392.272 206.35L390.892 206.46L389.582 206.27L388.752 205.97L388.422 205.8L387.472 205.05L386.792 204.06L386.332 202.8L386.172 201.47L386.032 175.27L386.172 140.03L386.042 131.07L385.492 125.57L384.182 120.36L382.392 115.51L380.122 111.01L377.382 106.88L373.952 102.88L369.972 99.2802L365.462 96.0901L360.412 93.3102L355.692 91.2802L351.072 89.8301L346.552 88.9402L342.122 88.6201L317.032 88.8301L316.702 88.9502L316.602 89.2602V97.5201L316.722 97.8802L317.082 97.9901L339.672 97.8802H340.052L343.142 98.0501L346.172 98.4802L349.222 99.1801L352.192 100.15L355.092 101.37L357.872 102.84L360.512 104.52L363.012 106.42L365.342 108.52L367.502 110.81L369.462 113.27L371.202 115.89L372.712 118.63L373.982 121.51L374.962 124.39L375.702 127.38L376.032 130.04L376.282 134.25L376.512 147.28L376.492 171.65L376.282 192.12L376.052 193.65L375.432 194.87L374.072 195.98L372.082 196.6L371.632 196.55L369.732 196L368.362 194.97L367.542 193.48L367.262 191.51L367.202 140.61L367.132 136.38L366.882 132.74L366.452 129.68L365.832 127.21L364.842 124.56L363.642 122.09L362.232 119.78L360.622 117.65L358.582 115.48L356.282 113.52L353.732 111.78L350.922 110.25L346.732 108.54L345.032 108.11L343.612 107.97L316.932 107.84L316.782 107.89L316.742 108.02V117.48L316.812 117.7L317.032 117.77L337.402 117.66L339.702 117.87L341.932 118.35L344.032 119.08L346.072 120.07L348.032 121.32L349.922 122.82L351.442 124.29L352.762 125.84L353.892 127.49L354.832 129.23L355.662 131.3L356.242 133.48L356.582 135.77L356.682 138.18L356.572 163.89L356.822 185.58L356.732 187.55L356.392 189.17L355.792 190.5L354.862 191.57L353.512 192.36L351.692 192.74L350.452 192.66L349.392 192.26L348.552 191.61L347.912 190.76L347.472 189.74L347.262 188.59L347.002 181.03L347.162 140.7L347.072 137.8L346.762 135.51L346.162 133.52L345.312 131.92L343.782 130.2L341.602 128.69L340.052 128.08L338.012 127.66L335.462 127.44L332.412 127.43L317.192 127.59L316.862 127.72L316.732 128.05V198.82L316.422 199.75L315.492 200.06H308.452L307.722 199.91L307.102 199.5L306.682 198.88L306.532 198.15L306.432 186.51L306.842 101.03L306.742 92.3901L306.342 85.4601L306.252 66.4702L305.972 63.5201L305.692 61.0002L305.632 59.0501L305.282 57.1902L304.112 54.3802L303.962 54.2602L303.832 53.5702L302.602 49.6501L301.162 45.8401L299.502 42.1602L297.632 38.6002L293.752 32.5401L289.192 26.8602L285.132 22.8401L281.582 19.5502L278.612 17.3602L275.402 15.4601L275.352 15.4402L275.272 15.4501L275.122 15.5802L275.092 15.6602L275.042 15.6501L274.652 15.3102L274.282 14.8201L273.762 14.5802L273.072 14.5602L272.052 14.1702L271.582 13.8902L268.072 12.4501L264.462 11.6002L261.092 11.3201L257.642 11.5202L252.012 12.4501L248.622 13.4202L245.662 15.0002L244.032 16.3201L242.572 17.8701L241.272 19.6702L240.152 21.7101L239.572 22.3502L239.392 22.9702L239.472 23.3302L238.552 25.4301L238.402 25.8302L237.672 28.4702L237.402 31.2802L237.252 47.1101L237.312 63.4202L237.362 83.4102L237.242 138.6L237.202 215.28L237.332 303.03L237.662 307.18L238.592 311.01L239.512 313.16L240.752 315.07L242.932 317.24L245.682 318.97L248.622 320.87L249.502 321.38L252.262 322.48L255.352 322.98L261.852 323.14L268.402 322.77L270.312 323.69L271.562 325L272.022 326.05L272.222 327.25L272.162 328.61L271.842 330.14L270.862 331.09L269.772 331.79L268.052 332.37L266.102 332.48L257.362 332.21L248.582 332.4L221.352 332.14L102.102 332.07L82.0918 331.94L61.6318 331.93L41.2218 332.27L38.1618 332.5L35.2618 333.21L32.5918 334.37L30.0818 335.99L28.3918 337.03L26.4918 337.92L24.8018 339.08L22.9617 340.94L19.8918 343.97L18.3218 345.58L16.9518 347.33L15.3618 349.93L14.1318 352.78L14.2418 352.73L14.0818 352.99L13.6118 353.55L13.7518 353.83L12.5318 356.25L11.5318 359.21L10.8518 362.22L10.4118 366.39L10.5518 370.65L11.2218 375.91L12.1418 380.26L12.5918 381.8L13.6718 384.6L15.0418 387.31L16.7018 389.92L18.6517 392.44V392.58L18.8318 393.02L19.3118 393.44L20.1018 394.2L20.3818 394.84L23.6718 398.96L27.4118 402.54L31.4218 405.49L35.8418 407.94L46.7318 413.13L52.3618 416.49L54.6218 418.17L56.5018 419.87L61.3418 424.24L65.6516 427.79L70.1418 430.74L74.8118 433.1L79.6618 434.86L82.6718 435.64L85.7518 436.19L88.8918 436.54L92.1018 436.66L176.972 436.78L333.612 436.65L344.182 436.3L348.102 435.87L351.122 435.27L354.382 434.29L357.522 433.1L360.542 431.7L363.432 430.1L367.652 427.22L371.582 423.85L374.442 420.87L377.002 417.7L379.262 414.35L381.212 410.83L383.352 405.82L384.902 400.57L385.842 395.12L386.152 389.53V314.15L386.292 307.92L386.732 306.71L387.432 305.74L388.362 305.02L389.532 304.53L390.952 304.27L392.612 304.25L393.792 304.54L394.612 305.13L395.272 306.04L395.352 399.87L395.502 400.21L395.512 400.73L395.292 401.3L391.382 413.71L391.142 414.2L386.192 422.3L384.222 425.07L382.592 427L379.372 430.41L377.742 432.38L376.412 433.65L374.752 434.59L370.792 437.15L367.582 439.31L365.212 440.64L359.602 443.01L354.242 444.8L349.692 445.76L344.892 446.11L279.612 446.34L91.6917 446.41L85.1718 446.12L81.7117 445.61L78.7318 444.93L73.3218 443.12L66.8618 440.44L66.6516 440.41L65.8918 439.81L65.5918 439.42L64.8218 439.32L64.4118 439.06L63.8118 438.37L63.1118 437.88L62.0518 437.55L61.5618 437.27L61.4017 437.06L60.9718 436.46L60.5418 436.25L60.3518 436.28L57.8818 434.55L55.9617 432.49L53.5618 430.21L50.9718 428.07L48.2117 426.08L45.2718 424.22L42.1418 422.52L38.8318 420.95L31.6817 418.25L29.9518 416.73L28.0718 415.34L26.0218 414.1L23.8118 413L20.1517 409.98L12.9017 402.34L12.6718 402.16L12.1418 401.3L11.9617 400.74L11.5418 400.53L11.4317 399.89L10.8318 399.57L10.1218 398.89L9.72171 398.14L8.67172 395.76L7.51172 393.8L6.14172 391.95L5.86172 391.53L5.58172 390.18L4.8417 388.82L3.4617 385.23L2.3717 381.85L1.5917 378.7L1.11172 375.76L0.901703 372.34L0.911713 367.78L1.07171 359.81L0.831726 72.0302L0.911713 51.0501L0.761719 49.9301L0.881714 48.6501L1.10171 48.7101L1.32171 48.4601L1.4617 47.8401L2.00171 44.2402L2.79171 40.7502L3.8117 37.3701L5.0917 34.0802L7.49173 29.2901L10.4518 24.7402L13.8118 20.8201L17.2318 16.9102L18.4118 15.7702L19.6817 14.9601L27.2518 9.98015L27.4617 9.86015L27.5218 9.69016L27.6018 9.80016L27.9518 9.77016L37.1218 6.22015L46.7618 3.33015L56.6517 1.19016L57.1918 0.740158L57.9118 0.660156L58.7918 0.970154ZM75.5218 51.0102L75.1018 51.4402L74.0418 52.6602L73.7018 53.6002L73.6118 54.6801L73.8518 56.0702L74.4518 57.1602L75.1418 57.8001L76.0018 58.2502L78.1018 58.6201H128.092L168.832 58.2802L169.742 57.8202L170.282 57.2602L171.422 55.8901L171.802 54.5201L171.402 53.1201L170.212 51.7302L169.692 51.1401L169.052 51.0302L168.632 50.4001L167.622 50.1002L124.632 50.1902L77.1217 50.0801L76.4617 50.1702L75.9417 50.4301L75.5218 51.0102ZM30.2818 56.8202L25.7218 59.8102L24.2318 60.4102L23.0118 61.3001L22.3418 62.0501L14.3318 69.5501L13.3218 70.7101L12.4218 72.2101L11.7618 73.9001L11.3618 75.7802L11.2218 77.8401L11.1718 103.85L11.3818 129.61L11.4617 129.91L12.0018 130.26L12.5918 129.98L13.1318 129.21L15.6918 127L16.4718 126.93L16.8818 126.29L19.7818 124.03L20.5418 123.88L21.3118 123.06L22.8918 122.41L23.7318 121.46L23.8218 121.18L26.1318 120.08L27.9818 118.91L29.3618 117.67L30.2918 116.37L30.9418 96.0702L30.9218 73.7902L30.6817 64.1801L30.2818 56.8202ZM74.8918 106.01L74.3818 106.25L73.9518 106.99L73.5118 108.04L73.4218 109.06L73.6817 110.02L74.2818 110.95L74.8717 111.4L75.3618 112.03L75.9317 112.63L76.5618 112.94L76.9218 112.98L189.052 112.96L190.972 112.83L192.292 112.44L193.052 111.94L193.622 111.3L194.032 110.44L194.212 109.42L194.082 107.99L193.362 106.37L193.122 105.67L192.742 105.32L192.022 105.42L79.5718 105.03L78.2318 104.7L77.1118 104.62L76.1917 104.77L75.4818 105.17L74.8918 106.01ZM24.4218 135.82L12.8318 144.62L12.3118 144.91L11.6918 145.75L11.4218 147.04L11.2418 151.93L11.3718 156.19L11.5318 156.58L11.9418 156.69L12.4017 156.52L12.5418 156.19L13.7918 155.07L15.1718 154.34L15.8718 153.38L15.9017 153.29L23.6018 147.74L25.8718 146.83L27.1918 146.01L28.4118 145.01L28.4317 144.94L28.5418 144.86L29.2618 144.82L29.6517 144.57L29.6618 143.95L30.1018 142.77L30.2318 139.06L30.1318 134.77L30.6218 132.92L30.4818 132.35L29.9317 132.15L29.6918 132.25L24.4218 135.82ZM24.3418 161.76L23.7418 162.27L23.5718 162.29L20.7418 164L18.1517 165.98L14.9518 169.16L12.1817 172.85L11.5918 173.95L11.3818 174.78L11.1318 202.62L11.4617 230.37L11.6218 230.69L11.9617 230.75L12.0518 230.72L12.5718 230.19L12.5918 230.11L13.8218 229.01L15.0918 228.39L15.9418 227.51L16.1618 227.08L17.2418 226.1L18.2818 225.53L27.7318 219.91L29.2318 218.92L30.0318 218.03L30.3818 217.17L30.5318 216.04L30.8718 203.71L31.0218 191.32L30.9617 178.87L30.7018 166.37L31.0118 158.56L30.7718 158.01L30.1918 157.88L30.0018 157.97L24.3418 161.76ZM75.7618 166.24L78.9317 166.86L81.6018 167.06L184.352 167.01L188.252 166.86L191.562 166.42L192.042 166.57L192.512 166.45L192.742 166.25L192.852 165.95L193.872 164.42L194.192 162.9L193.942 161.7L193.242 160.5L192.542 159.82L191.002 159.18L188.682 159.04H188.352L76.4718 159.08L75.0118 159.5L74.0518 160.29L73.6118 161.32L73.4718 163.63L73.7018 164.53L74.1418 165.26L74.8418 165.85L75.7618 166.24ZM75.1718 214.25L73.9417 215.9L73.5418 217.68L73.8518 219.08L74.7918 220.08L76.3818 220.74L168.892 220.84L169.762 220.8L170.592 220.1L170.972 219.78L171.182 219.21L171.272 219.26L171.362 219.28L171.412 219.23L171.862 218.23L171.972 217.25L171.752 216.33L171.202 215.43L171.082 215.29L170.682 214.52L170.142 213.91L169.032 213.32L167.592 213.12L76.8818 213.1L75.7918 213.4L75.1718 214.25ZM29.5718 233.78L25.6817 235.82L21.4218 238.27L17.5718 241.2L15.2618 243.39L13.1418 245.78L11.9418 247.72L11.3518 249.96L11.2318 253.11V254.04L11.2018 278.84L11.3818 303.71L11.4518 304.34L11.8218 305.03L12.1817 304.59L12.4017 304.85L12.7117 304.98L12.9918 304.79L13.1118 304.63L14.6517 303.01L24.2618 296.47L25.2418 296.21L25.7918 295.72L25.9118 295.16L28.0518 293.6L29.8218 291.76L30.0818 291.44L30.3118 291.05L30.3918 290.62L30.8318 279.07L31.0318 267.54L30.9617 256.03L30.6517 244.54L30.6718 233.97L30.5618 233.53L30.2218 233.25L29.5418 233.16L29.5718 233.78ZM168.872 275.01L170.422 274.08L171.412 272.86L171.822 271.34L171.662 269.52L170.872 268.29L169.862 267.48L169.022 267.17L168.072 267.07L77.9118 267.06L76.0818 267.32L74.7818 268.11L74.0418 269.39L73.8218 271.17V271.4L74.0518 273.18L74.8018 274.45L76.1018 275.24L77.9617 275.5L168.602 275.42L168.932 275.31L168.872 275.01Z" fill="black"/>
<path d="M275.688 4.01953L279.268 5.53952L282.668 7.36952L285.268 9.06952L287.747 10.9695L275.688 4.01953Z" fill="#676661"/>
<path d="M27.2497 9.97852L19.6797 14.9585L21.5397 13.3885L23.4997 11.9985L27.2497 9.97852Z" fill="#676661"/>
<path d="M271.578 13.8884L267.728 12.7384L263.918 12.0284L260.168 11.7584L256.458 11.9284L253.468 12.3984L250.048 13.5284L246.158 15.5784L243.478 17.5784L241.678 19.4984L240.148 21.7084L241.268 19.6684L242.568 17.8684L244.028 16.3184L245.658 14.9984L248.618 13.4184L252.008 12.4484L257.638 11.5184L261.088 11.3184L264.458 11.5984L268.068 12.4484L271.578 13.8884Z" fill="#676661"/>
<path d="M298.078 21.1895L288.578 11.7695L291.358 13.8195L293.898 16.1195L296.098 18.5395L298.078 21.1895Z" fill="#676661"/>
<path d="M274.65 15.3086L274.14 15.1486L273.07 14.5586L273.76 14.5786L274.28 14.8186L274.65 15.3086Z" fill="#676661"/>
<path d="M285.13 22.8394L275.09 15.6595L275.12 15.5795L275.27 15.4494L275.35 15.4395L275.4 15.4594L278.61 17.3595L281.58 19.5495L285.13 22.8394Z" fill="#676661"/>
<path d="M17.2289 16.9102L13.8089 20.8201L10.4489 24.7402L7.48892 29.2901L5.0889 34.0802L3.8089 37.3701L2.78891 40.7502L1.9989 44.2402L1.45889 47.8401L1.31891 48.4601L1.09891 48.7101L0.878906 48.6501L1.66891 43.5802L2.95889 38.6702L4.5589 34.3102L6.5889 30.0901L9.0289 26.0101L11.8789 22.0502L14.5389 19.0901L17.2289 16.9102Z" fill="#676661"/>
<path d="M240.151 21.709L239.471 23.329L239.391 22.969L239.571 22.349L240.151 21.709Z" fill="#2A4563"/>
<path d="M377.512 92.0095L373.682 89.0995L369.702 86.5295L365.602 84.3195L361.352 82.4595L356.432 80.7895L351.342 79.5595L350.022 79.0795L349.112 78.8595L332.762 79.0495L325.072 78.8395L317.702 78.4295L317.102 78.2595L316.612 77.8795L316.322 77.3295L316.262 76.7095V76.6695L316.702 71.2095L316.602 64.6895L315.812 58.1495L315.132 55.0195L314.152 51.6595L312.842 48.0595L311.232 44.2295L307.162 35.4295L304.712 30.9095L301.922 26.6095L300.422 23.7695L305.222 30.8695L309.312 38.3095L311.282 42.5795L313.032 46.9595L314.562 51.4395L315.872 56.0295L316.812 60.5495L317.152 64.5895L317.062 77.4295L317.242 77.8895L317.702 78.0895H317.712L343.082 78.0995L347.092 78.2995L351.012 78.7895L354.832 79.5695L358.552 80.6495L363.582 82.6295L368.412 85.1895L373.062 88.3195L377.512 92.0095Z" fill="#676661"/>
<path d="M238.549 25.4297L238.159 30.7797L238.079 45.5997L238.269 68.5597L238.229 69.2397L238.219 69.4897V70.2397V70.4897L238.229 71.2397L238.219 73.4897V74.2397V74.4897V75.2397L238.209 75.4797L238.129 76.2397L238.159 155.73L238.059 304.78L238.339 307.98L239.179 310.96L240.269 313.17L241.709 315.25L243.509 317.18L245.679 318.97L242.929 317.24L240.749 315.07L239.509 313.16L238.589 311.01L237.659 307.18L237.329 303.03L237.199 215.28L237.239 138.6L237.359 83.4097L237.309 63.4197L237.249 47.1097L237.399 31.2797L237.669 28.4697L238.399 25.8297L238.549 25.4297Z" fill="#676661"/>
<path d="M303.828 53.5694L300.788 46.1594L297.188 39.0594L293.418 32.8294L289.188 26.8594L293.747 32.5394L297.628 38.5994L299.497 42.1594L301.158 45.8394L302.598 49.6494L303.828 53.5694Z" fill="#335C81"/>
<path d="M297.65 87.9899L297.29 88.1499L297 88.8399L297.17 90.0599L297.44 92.0499L297.28 107.56L297.68 123.11L297.14 187.21L296.87 189.02L296.11 190.39L294.88 191.29L293.19 191.78L293.03 191.79L290.89 191.37L290.07 190.94L289.41 190.37L288.74 189.24L288.43 187.79L288.02 178.68L288.1 175.01L288.36 171.92L288.71 131.69L288.34 91.4199L288.46 71.7699L288.74 69.7199L288.79 67.5199L288.63 65.1799L288.24 62.6899L288.02 58.7199L287.15 54.9599L286.21 52.5799L284.98 50.2999L283.46 48.1199L281.65 46.0299L279.83 44.3799L277.04 42.1899L275.9 41.1799L275.23 40.1899L274.91 38.8699L274.94 36.8699L275.23 35.8399L275.75 35.2099L276.53 34.7299L278.13 34.2199L279.64 34.1699L281.7 34.6799L283.73 35.6899L285.72 37.1799L287.67 39.1599L290.02 42.1099L292.05 45.1699L293.77 48.3499L295.18 51.6499L296.34 55.3499L297.13 59.1799L297.56 63.1499L297.62 67.2499L297.42 73.8199L297.65 87.9899Z" fill="#335C81"/>
<path d="M279.731 120.71L279.231 133.3L279.221 145.89L279.651 157.57L278.581 169.88L278.461 170.34L278.171 170.75L276.721 171.7L275.681 172L274.541 172.05L273.301 171.87L271.961 171.45L271.481 169.94L271.131 168.12L270.831 163.53L270.271 94.5599L270.201 75.0299L270.011 70.7499L269.381 66.9399L268.311 63.7299L266.791 61.0099L264.301 58.1199L261.421 55.8499L259.401 54.7299L257.211 53.8599L254.861 53.2399L252.361 52.8599L250.781 52.4899L249.571 51.7299L248.831 50.7699L248.361 49.5299L248.141 47.3099L248.341 46.3599L248.741 45.5899L249.431 44.8899L250.321 44.3999L251.481 44.0599L252.791 43.9199L256.261 44.1699L260.121 45.1099L263.051 46.2299L265.761 47.5799L268.251 49.1799L270.541 51.0099L272.621 53.0999L274.481 55.4399L276.121 58.0199L277.551 60.8399L278.241 62.6899L278.741 64.6799L279.031 66.8099L279.131 69.0799L279.091 81.0499L279.121 99.3599L279.501 110.9L279.731 120.71Z" fill="#335C81"/>
<path d="M169.05 51.0301L75.5195 51.0101L75.9395 50.4301L76.4595 50.1701L77.1195 50.0801L124.63 50.1901L167.62 50.1001L168.63 50.4001L169.05 51.0301Z" fill="#676661"/>
<path d="M4.84 388.819L4.44 389.029L2.64999 384.229L1.73001 380.959L1.02002 377.629L0.51001 374.229L0.220001 370.759L0 362.949L0.0700073 351.919L0.130005 346.059V56.0288L0.320007 53.3088L0.910004 51.0488L0.830017 72.0288L1.07001 359.809L0.910004 367.779L0.899994 372.339L1.11002 375.759L1.59 378.699L2.37 381.849L3.45999 385.229L4.84 388.819Z" fill="#676661"/>
<path d="M75.0994 51.4395L74.0894 54.4195L74.0394 54.8994L74.1994 55.3495L74.9594 56.4294L76.3194 57.7495L76.7694 57.9894L77.2194 58.0594L168.829 58.2794L128.089 58.6194H78.0994L75.9994 58.2495L75.1394 57.7994L74.4494 57.1595L73.8494 56.0695L73.6094 54.6794L73.6994 53.5995L74.0394 52.6595L75.0994 51.4395Z" fill="#676661"/>
<path d="M170.277 57.2585L170.167 56.6385L170.297 56.2385L170.437 56.1285L171.067 55.5585L171.367 54.7685L171.277 53.9185L170.807 53.2085L170.337 52.8885L170.287 52.8585L170.117 52.4685L170.207 51.7285L171.397 53.1185L171.797 54.5185L171.417 55.8885L170.277 57.2585Z" fill="#676661"/>
<path d="M305.689 60.9989L304.109 54.3789L305.279 57.1889L305.629 59.0489L305.689 60.9989Z" fill="#335C81"/>
<path d="M30.2913 116.368L30.2812 56.8184L30.6812 64.1783L30.9212 73.7884L30.9412 96.0684L30.2913 116.368Z" fill="#676661"/>
<path d="M25.7198 59.8086L22.3398 62.0486L23.0099 61.2986L24.2299 60.4086L25.7198 59.8086Z" fill="#676661"/>
<path d="M288.458 71.7694L288.238 62.6895L288.628 65.1794L288.788 67.5194L288.738 69.7195L288.458 71.7694Z" fill="#676661"/>
<path d="M261.819 71.6895L261.439 89.8395L261.259 108.01L261.299 126.22L261.549 144.45L261.709 145.41L261.529 146.55L260.969 147.7L260.189 148.51L259.019 148.97L256.549 149.11L254.679 148.77L253.359 147.92L252.829 147.16L252.499 146.21L252.359 145.07L252.429 143.74L252.569 69.2395L252.659 67.1595L253.399 65.5695L254.089 64.9095L254.979 64.3995L255.999 64.0795L257.009 64.0195L258.239 64.2795L259.439 64.9095L260.299 65.6195L260.979 66.4496L261.529 67.5396L261.859 68.7695L261.949 70.1495L261.819 71.6895Z" fill="#335C81"/>
<path d="M252.43 143.74L252.25 69.6302L252.28 69.5103L252.35 69.4203L252.57 69.2402L252.43 143.74Z" fill="#676661"/>
<path d="M14.328 69.5488L13.458 71.1989L12.808 72.9189L12.288 75.1689L12.108 77.5288L12.068 98.0888L12.158 127.989L12.378 128.759L13.128 129.209L12.588 129.979L11.998 130.259L11.458 129.909L11.378 129.609L11.168 103.849L11.218 77.8388L11.358 75.7788L11.758 73.8988L12.418 72.2088L13.318 70.7088L14.328 69.5488Z" fill="#676661"/>
<path d="M261.822 71.6895L262.142 103.129L262.012 138.279L261.882 141.649L261.552 144.449L261.302 126.219L261.262 108.009L261.442 89.8394L261.822 71.6895Z" fill="#676661"/>
<path d="M306.431 186.509L306.141 170.569L306.341 85.459L306.741 92.389L306.841 101.029L306.431 186.509Z" fill="#2A4563"/>
<path d="M297.65 87.9902L298.02 96.2702L298.16 104.54L298.09 112.8L297.79 121.04L297.68 123.11L297.28 107.56L297.44 92.0502L297.17 90.0602L297 88.8402L297.29 88.1502L297.65 87.9902Z" fill="#676661"/>
<path d="M395.278 205.239L395.078 221.569L394.978 221.999L394.638 222.379L394.298 222.609L391.638 219.419L388.858 216.379L385.608 213.559L382.218 211.009L378.688 208.739L375.028 206.739L371.198 205.009L367.238 203.559L363.698 202.589L359.778 201.859L355.478 201.369L350.798 201.119L334.108 200.979L322.308 201.139L313.348 201.069L309.938 200.809L306.728 200.229L306.338 200.009L306.198 199.589L305.988 192.989L306.008 191.569L306.138 170.569L306.428 186.509L306.528 198.149L306.678 198.879L307.098 199.499L307.718 199.909L308.448 200.059H315.488L316.418 199.749L316.728 198.819V128.049L316.768 127.849L317.188 127.589L332.408 127.429L335.458 127.439L338.008 127.659L340.048 128.079L341.598 128.689L343.778 130.199L345.308 131.919L346.158 133.519L346.758 135.509L347.068 137.799L347.158 140.699L346.998 181.029L347.258 188.589L347.468 189.739L347.908 190.759L348.548 191.609L349.388 192.259L350.448 192.659L351.688 192.739L353.508 192.359L354.858 191.569L355.788 190.499L356.388 189.169L356.728 187.549L356.818 185.579L356.568 163.889L356.678 138.179L356.578 135.769L356.238 133.479L355.658 131.299L354.828 129.229L353.888 127.489L352.758 125.839L351.438 124.289L349.918 122.819L348.028 121.319L346.068 120.069L344.028 119.079L341.928 118.349L339.698 117.869L337.398 117.659L317.028 117.769L316.808 117.699L316.738 117.479V108.019L316.778 107.889L316.928 107.839L343.608 107.969L345.028 108.109L346.728 108.539L350.918 110.249L353.728 111.779L356.278 113.519L358.578 115.479L360.618 117.649L362.228 119.779L363.638 122.089L364.838 124.559L365.828 127.209L366.448 129.679L366.878 132.739L367.128 136.379L367.198 140.609L367.258 191.509L367.538 193.479L368.358 194.969L369.728 195.999L371.628 196.549L372.078 196.599L374.068 195.979L375.428 194.869L376.048 193.649L376.278 192.119L376.488 171.649L376.508 147.279L376.278 134.249L376.028 130.039L375.698 127.379L374.958 124.389L373.978 121.509L372.708 118.629L371.198 115.889L369.458 113.269L367.498 110.809L365.338 108.519L363.008 106.419L360.508 104.519L357.868 102.839L355.088 101.369L352.188 100.149L349.218 99.1791L346.168 98.4792L343.138 98.0491L340.048 97.8792H339.668L317.078 97.9891L316.718 97.8792L316.598 97.5191V89.2592L316.698 88.9492L317.028 88.8291L342.118 88.6191L346.548 88.9391L351.068 89.8291L355.688 91.2791L360.408 93.3091L365.458 96.0891L369.968 99.2791L373.948 102.879L377.378 106.879L380.118 111.009L382.388 115.509L384.178 120.359L385.488 125.569L386.038 131.069L386.168 140.029L386.028 175.269L386.168 201.469L386.328 202.799L386.788 204.059L387.468 205.049L388.418 205.799L388.748 205.969L389.578 206.269L390.888 206.459L392.268 206.349L393.738 205.939L395.278 205.239ZM336.957 142.808L336.599 140.989L335.572 139.446L334.033 138.414L332.215 138.049H332.015L330.197 138.407L328.654 139.434L327.622 140.974L327.257 142.791L327.179 187.371L327.538 189.189L328.565 190.732L330.104 191.764L331.921 192.129H332.121L333.939 191.771L335.482 190.744L336.515 189.205L336.879 187.388L336.957 142.808Z" fill="#335C81"/>
<path d="M288.36 171.92L288.34 91.4199L288.71 131.69L288.36 171.92Z" fill="#676661"/>
<path d="M271.957 171.449L271.287 170.989L270.517 169.769L270.247 168.009L270.117 131.289L270.267 94.5586L270.827 163.529L271.127 168.119L271.477 169.939L271.957 171.449Z" fill="#676661"/>
<path d="M79.5706 105.029L77.9206 104.969L76.3906 105.299L74.8906 106.009L75.4806 105.169L76.1906 104.769L77.1106 104.619L78.2306 104.699L79.5706 105.029Z" fill="#2A4563"/>
<path d="M193.36 106.368L192.02 105.418L192.74 105.318L193.12 105.668L193.36 106.368Z" fill="#2A4563"/>
<path d="M73.948 106.99L74.278 110.95L73.678 110.02L73.418 109.06L73.508 108.04L73.948 106.99Z" fill="#676661"/>
<path d="M75.3594 112.03H189.099L190.879 111.82L192.399 111.18L193.379 110.42L194.209 109.42L194.029 110.44L193.619 111.3L193.049 111.94L192.289 112.44L190.969 112.83L189.049 112.96L76.9194 112.98L76.5594 112.94L75.9294 112.63L75.3594 112.03Z" fill="#676661"/>
<path d="M391.688 111.26L393.617 115.84L395.008 120.56L395.878 125.6L396.158 130.78V223.4L395.938 224.17L395.258 223.73L394.298 222.61L394.638 222.38L394.978 222L395.078 221.57L395.277 205.24L395.408 175.85L395.337 146.37L395.518 135.19L395.508 128.87L395.128 124.02L394.027 119.09L391.688 111.26Z" fill="#676661"/>
<path d="M279.729 120.709L280.169 134.559L280.049 148.399L279.649 157.569L279.219 145.889L279.229 133.299L279.729 120.709Z" fill="#676661"/>
<path d="M23.8187 121.18L23.7287 121.46L22.8887 122.41L21.3086 123.06L23.8187 121.18Z" fill="#676661"/>
<path d="M21.3112 123.059L20.5413 123.879L19.7812 124.029L20.4312 123.419L21.1512 123.089L21.3112 123.059Z" fill="#2A4563"/>
<path d="M16.8814 126.289L16.4714 126.929L15.6914 126.999L16.8814 126.289Z" fill="#2A4563"/>
<path d="M30.128 134.768L30.158 133.788L29.858 133.188L29.788 133.138L29.378 132.988L28.948 133.108L24.418 135.818L29.688 132.248L29.928 132.148L30.478 132.348L30.618 132.918L30.128 134.768Z" fill="#676661"/>
<path d="M332.217 138.05L332.017 138.049C329.393 138.045 327.263 140.168 327.258 142.791L327.18 187.371C327.176 189.994 329.299 192.125 331.922 192.129L332.122 192.13C334.746 192.134 336.876 190.011 336.88 187.388L336.958 142.808C336.963 140.185 334.84 138.054 332.217 138.05Z" fill="black"/>
<path d="M29.6591 143.949L29.649 144.569L29.2591 144.819L28.5391 144.859L29.6591 143.949Z" fill="#2A4563"/>
<path d="M12.8283 144.619L12.2483 147.319L11.9983 150.139L12.0983 153.099L12.5383 156.189L12.3983 156.519L11.9383 156.689L11.5283 156.579L11.3683 156.189L11.2383 151.929L11.4183 147.039L11.6883 145.749L12.3083 144.909L12.8283 144.619Z" fill="#676661"/>
<path d="M28.4077 145.01L27.1877 146.01L25.8677 146.83L23.5977 147.74L26.4277 145.87L28.4077 145.01Z" fill="#2A4563"/>
<path d="M15.899 153.289L15.869 153.379L15.1691 154.339L13.7891 155.069L14.869 153.919L15.899 153.289Z" fill="#2A4563"/>
<path d="M18.2812 225.529L28.9912 218.659L29.8112 217.779L30.1112 216.609V159.589L30.0112 159.289L29.6912 159.319L24.3412 161.759L30.0012 157.969L30.1912 157.879L30.7712 158.009L31.0112 158.559L30.7013 166.369L30.9612 178.869L31.0212 191.319L30.8713 203.709L30.5312 216.039L30.3812 217.169L30.0312 218.029L29.2312 218.919L27.7312 219.909L18.2812 225.529Z" fill="#676661"/>
<path d="M76.4688 159.08L75.3887 160.16L74.6387 161.21L74.2086 162.25L74.1087 163.27L74.5586 164.78L75.7587 166.24L74.8386 165.85L74.1387 165.26L73.6987 164.53L73.4688 163.63L73.6087 161.32L74.0487 160.29L75.0087 159.5L76.4688 159.08Z" fill="#676661"/>
<path d="M23.5689 162.289L16.6989 167.889L15.0089 169.519L13.5989 171.339L12.5489 173.159L11.7189 175.129L11.5589 176.239L11.8089 177.019L12.0689 177.809L12.1089 178.249L12.1289 229.009L12.1389 229.189L12.5889 230.109L12.5689 230.189L12.0489 230.719L11.9589 230.749L11.6189 230.689L11.4589 230.369L11.1289 202.619L11.3789 174.779L11.5889 173.949L12.1789 172.849L14.9489 169.159L18.1489 165.979L20.7389 163.999L23.5689 162.289Z" fill="#676661"/>
<path d="M192.852 165.949L192.742 166.249L192.512 166.449L192.042 166.569L191.562 166.419L192.852 165.949Z" fill="#2A4563"/>
<path d="M245.358 300.089L245.608 299.939L245.828 299.279L245.968 245.279L245.558 191.259L245.528 176.079L245.708 174.819L246.248 173.919L247.138 173.389L248.388 173.209H251.278L252.518 173.389L253.408 173.919L253.928 174.809L254.088 176.059L254.158 180.959L254.498 186.389L254.478 189.179L254.348 192.009L253.928 215.409L254.118 234.029L254.628 253.969L254.638 265.359L254.448 275.279L254.598 282.699L254.998 300.089L254.748 303.369L253.908 306.319L253.128 307.639L251.948 308.549L251.078 308.829L250.168 308.869L249.158 308.679L248.188 308.249L247.308 307.619L246.558 306.799L246.038 305.919L245.698 304.919L245.328 302.469L245.358 300.089Z" fill="#335C81"/>
<path d="M343.57 288.558L331.13 288.308L318.71 288.258L306.29 288.428L293.88 288.808L289.67 289.848L285.79 291.288L282.23 293.138L278.99 295.398L276.81 297.328L274.8 299.478L272.96 301.848L271.31 304.448L269.92 306.588L268.81 307.688L268.24 307.958L267.37 308.178L266.41 308.188L264.26 307.588L263.87 307.328L263.57 306.888L263.04 305.128L262.92 302.998L263.35 300.718L264.3 298.458L265.76 296.178L269.02 292.278L272.53 288.888L276.31 286.028L280.34 283.688L284.79 281.818L289.52 280.498L294.53 279.748L299.82 279.548L346.04 279.448L349.87 279.398L353.61 279.648L357.26 280.218L360.81 281.098L365.69 282.858L370.38 285.248L371.61 285.768L372.81 285.878L373.69 285.678L374.55 285.238L376.88 283.568L379.01 281.748L380.96 279.788L382.72 277.688L384.45 275.158L385.96 272.458L387.22 269.578L388.25 266.508L389.15 262.778L389.67 259.088L389.83 255.438L389.61 251.828L388.63 246.608L386.85 241.478L385.29 238.228L383.51 235.188L381.49 232.378L379.24 229.788L376.35 227.068L373.16 224.638L369.65 222.498L365.84 220.658L364.53 220.128L361.34 219.078L358.04 218.328L354.63 217.868L351.1 217.698L332.38 217.708L323.28 217.408L314.15 217.338L305.01 217.468L295.85 217.828L291.3 217.298L287.02 216.308L283.01 214.868L279.26 212.978L275.29 210.238L271.68 206.908L268.41 202.968L265.5 198.438L264.11 195.528L263.18 192.508L262.75 189.918L262.83 187.878L263.51 186.258L264.39 185.338L265.75 184.568L267.09 184.318L268.08 184.438L269.04 184.798L270.01 185.448L270.9 186.318L271.53 187.378L272.07 188.978L272.99 191.888L274.17 194.598L275.59 197.088L277.27 199.378L279.07 201.328L281.09 203.098L283.33 204.688L285.79 206.088L288 207.088L290.27 207.858L294.25 208.648L302.98 208.938L323.42 209.138L344.35 208.788L349.18 208.828L356.23 209.168L359.54 209.468L362.58 209.948L365.32 210.598L367.79 211.428L373.07 213.818L377.89 216.638L382.26 219.878L386.18 223.558L388.82 226.608L391.21 229.898L393.34 233.428L395.22 237.198L397.1 242.108L398.38 247.128L398.87 250.178L399.14 253.268L399.2 256.398L399.05 259.568L398.38 264.708L397.22 269.568L395.57 274.148L393.43 278.448L390.74 282.538L387.55 286.338L383.84 289.848L379.62 293.058L377.09 294.568L374.75 295.488L372.65 295.778L370.76 295.488L370.12 295.238L362.26 291.588L358.41 290.088L354.72 289.258L349.19 288.718L343.57 288.558Z" fill="#335C81"/>
<path d="M245.359 300.09L245.559 191.26L245.969 245.28L245.829 299.28L245.609 299.94L245.359 300.09Z" fill="#676661"/>
<path d="M262.43 282.829L262.76 246.529L262.58 210.259L262.48 209.919L262.33 209.779L261.98 208.819L262 207.979L262.15 207.689L262.43 207.869L266.11 211.949L270.05 215.499L274.25 218.499L278.7 220.959L283.24 222.819L288.03 224.169L293.05 225.019L298.31 225.369H314.9L333.1 224.799L338.67 224.739L347.62 224.909L352.07 225.129L355.94 225.549L359.23 226.149L361.94 226.949L366 228.819L369.7 231.239L373.09 234.229L376.01 237.669L378.46 241.529L380.35 245.689L381.61 249.969L382.24 254.399L382.26 257.739L381.85 260.989L380.84 264.719L379.24 268.329L377.05 271.829L374.28 275.219L373.26 276.119L372.24 276.569L370.82 276.589L368.95 275.999L365.52 274.659L362.32 273.629L359.37 272.909L356.66 272.489L347.08 271.909L333.5 271.719L311.32 271.799L296.7 272.069L293.41 272.279L290.18 272.709L287.01 273.339L283.91 274.189L280.73 275.299L277.61 276.639L274.57 278.209L271.6 280.019L263.42 285.929L263.05 286.039L262.79 285.759L262.37 284.309L262.4 282.949L262.43 282.829Z" fill="#335C81"/>
<path d="M262.428 282.829L262.328 209.779L262.478 209.919L262.578 210.259L262.758 246.529L262.428 282.829Z" fill="#676661"/>
<path d="M171.078 215.29L169.788 214.25L168.648 214.04L104.858 214L79.348 214.01L75.168 214.25L75.788 213.4L76.878 213.1L167.588 213.12L169.028 213.32L170.138 213.91L170.678 214.52L171.078 215.29Z" fill="#676661"/>
<path d="M171.18 219.21L171.2 215.43L171.75 216.33L171.97 217.25L171.86 218.23L171.41 219.23L171.36 219.28L171.27 219.26L171.18 219.21Z" fill="#676661"/>
<path d="M73.9391 215.898L74.0691 217.408L74.5491 218.738L75.3091 219.818L76.3791 220.738L74.7891 220.078L73.8491 219.078L73.5391 217.678L73.9391 215.898Z" fill="#676661"/>
<path d="M332.382 217.71L295.852 217.83L305.012 217.47L314.152 217.34L323.282 217.41L332.382 217.71Z" fill="#676661"/>
<path d="M170.591 220.1L169.761 220.8L168.891 220.84L169.731 220.24L170.591 220.1Z" fill="#676661"/>
<path d="M16.1603 227.08L15.9403 227.51L15.0903 228.39L13.8203 229.01L14.5703 228.16L15.4403 227.48L16.1603 227.08Z" fill="#676661"/>
<path d="M29.8191 291.76L29.9991 290.52L30.149 241.8L30.0091 236.99L29.5691 233.78L29.5391 233.16L30.2191 233.25L30.5591 233.53L30.6691 233.97L30.649 244.54L30.959 256.03L31.0291 267.54L30.8291 279.07L30.3891 290.62L30.3091 291.05L30.0791 291.44L29.8191 291.76Z" fill="#676661"/>
<path d="M25.6792 235.818L19.4692 240.288L15.7492 243.438L13.0292 246.878L12.4992 247.968L12.4392 248.298L12.3392 249.908L12.1292 277.238L12.1792 304.588L11.8192 305.028L11.4492 304.338L11.3792 303.708L11.1992 278.838L11.2292 254.038V253.108L11.3492 249.958L11.9392 247.718L13.1392 245.778L15.2592 243.388L17.5692 241.198L21.4192 238.268L25.6792 235.818Z" fill="#676661"/>
<path d="M171.66 269.519L170.41 268.449L169.14 268.079H169.11H77.1303L75.6303 268.299L74.6503 268.959L74.2003 270.019L74.2603 271.489L74.2803 271.629L74.6203 273.019L75.3103 274.049L76.5503 274.779L78.2603 275.019L168.87 275.009L168.93 275.309L168.6 275.419L77.9603 275.499L76.1003 275.239L74.8003 274.449L74.0503 273.179L73.8203 271.399V271.169L74.0403 269.389L74.7803 268.109L76.0803 267.319L77.9103 267.059L168.07 267.069L169.02 267.169L169.86 267.479L170.87 268.289L171.66 269.519Z" fill="#676661"/>
<path d="M346.04 279.449L299.82 279.549L317.65 279.049L335.48 279.129L346.04 279.449Z" fill="#676661"/>
<path d="M343.569 288.56L293.879 288.81L306.289 288.43L318.709 288.26L331.129 288.31L343.569 288.56Z" fill="#676661"/>
<path d="M395.35 399.869L395.27 306.039L395.26 291.019L395.07 290.349L394.52 289.439L395.19 288.819L395.54 288.719L395.83 288.949L395.86 289.079L396.16 296.779L396.14 392.279L395.96 396.549L395.35 399.869Z" fill="#2A4563"/>
<path d="M394.518 289.439L395.068 290.349L395.258 291.019L395.268 306.039L394.608 305.129L393.788 304.539L392.608 304.249L390.948 304.269L389.528 304.529L388.358 305.019L387.428 305.739L386.728 306.709L386.288 307.919L386.148 314.149V389.529L385.838 395.119L384.898 400.569L383.348 405.819L381.208 410.829L379.258 414.349L376.998 417.699L374.438 420.869L371.578 423.849L367.648 427.219L363.428 430.099L360.538 431.699L357.518 433.099L354.378 434.289L351.118 435.269L348.098 435.869L344.178 436.299L333.608 436.649L176.968 436.779L92.098 436.659L88.888 436.539L85.748 436.189L82.668 435.639L79.658 434.859L74.808 433.099L70.138 430.739L65.648 427.789L61.338 424.239L58.698 418.059L58.578 417.629L58.588 417.099L58.748 415.409L58.548 413.809L57.648 411.719L55.018 407.779L51.168 401.949L48.668 397.509L47.548 394.949L46.718 392.329L46.178 389.669L45.918 386.989L45.968 383.989L46.358 381.009L47.108 378.079L48.198 375.199L49.218 373.249L50.418 371.539L51.798 370.059L53.358 368.839L54.798 367.999L56.368 367.349L58.048 366.879L59.848 366.589L60.058 366.609L60.448 366.969L60.368 367.499L58.368 370.589L56.728 373.829L55.498 377.099L54.658 380.439L54.258 383.689V386.939L54.678 390.049L55.528 393.109L57.258 396.869L59.638 400.269L61.028 401.629L62.488 402.549L63.968 402.979L65.218 402.839L66.078 402.369L66.858 401.529L67.288 400.469L67.268 399.729L66.998 398.959L64.218 393.189L63.028 389.829L62.418 386.419L62.348 384.269L62.508 382.099L62.888 379.909L63.508 377.699L65.148 373.599L66.998 370.239L68.758 368.189L69.598 367.629L70.458 367.359L76.018 366.839L76.758 366.879L77.088 367.099L77.038 367.499L76.578 368.079L74.738 370.409L73.278 373.239L72.098 376.579L71.298 379.899L70.878 383.199L70.828 386.489L71.178 389.849L71.918 393.199L73.068 396.529L74.608 399.839L75.768 401.419L77.898 403.629L78.908 404.249L79.708 404.389L80.528 404.289L81.418 403.939L82.238 403.379L82.958 402.629L83.498 401.769L83.768 400.949L83.808 400.129L83.318 398.809L82.088 396.789L80.788 394.629L79.778 392.459L79.038 390.189L78.588 387.919L78.428 385.669L78.528 383.429L78.898 381.109L79.528 378.809L80.438 376.439L81.588 374.119L83.028 371.759L84.688 369.469L85.428 368.729L86.358 368.139L87.448 367.739L88.638 367.529L93.948 367.099L94.848 367.119L95.258 367.369L95.178 367.879L94.558 368.639L93.038 370.329L91.128 373.049L89.578 376.059L88.398 379.369L87.568 382.969L87.298 385.239L87.378 389.039L88.128 392.879L89.528 396.759L91.598 400.689L92.808 402.489L93.988 403.769L95.198 404.549L96.338 404.789L97.728 404.379L99.158 403.299L99.978 401.959L100.148 400.779L99.888 399.349L99.228 397.809L98.048 395.779L96.768 393.479L95.748 390.219L95.358 386.939L95.448 384.779L95.808 382.619L96.438 380.449L97.348 378.269L99.318 374.639L101.448 371.759L103.768 369.609L106.348 368.099L109.128 367.229L111.468 366.989L115.118 366.939L126.358 367.359L126.738 367.519L126.748 367.919L125.788 371.959L125.208 376.699L125.008 382.139L125.188 388.289L125.818 393.339L127.118 398.199L129.078 402.969L131.638 407.459L134.848 411.729L138.568 415.609L142.748 419.039L147.338 421.969L151.198 423.779L155.368 425.079L159.858 425.869L164.648 426.139L258.258 426.809L259.908 426.639L261.538 426.409L263.658 426.759L299.798 427.089L332.778 427.019L338.548 426.869L343.408 426.529L347.348 426.009L350.388 425.289L353.328 424.239L356.108 422.979L358.728 421.509L361.198 419.829L364.198 417.319L366.928 414.439L369.388 411.199L371.578 407.609L372.938 404.889L374.068 402.079L375.118 398.739L375.868 395.289L376.328 391.729L376.488 388.069L376.448 317.349L376.178 315.489L375.368 314.149L374.068 313.339L372.258 313.039H371.988L370.258 313.229L368.918 313.909L367.898 315.209L367.338 317.089L366.968 320.649L366.898 324.279L367.298 382.549L367.168 389.799L366.668 394.459L365.668 398.129L364.228 401.629L362.358 404.889L360.118 407.889L357.538 410.539L354.638 412.819L351.538 414.629L348.198 416.009L345.628 416.649L342.338 417.099L338.318 417.359L333.588 417.429L266.098 417.299L261.208 417.749L248.158 417.719L235.188 417.459L228.768 416.949L226.128 416.459L223.868 415.819L220.838 414.629L217.918 413.219L215.238 411.639L212.708 409.849L210.378 407.879L208.238 405.699L206.368 403.399L204.698 400.909L203.168 397.829L202.288 394.719L202.048 392.829L202.008 390.919L202.188 388.869L202.588 386.769L207.398 367.189L217.798 367.619L228.848 367.699L273.148 367.829L280.118 367.699L284.608 367.149L287.298 366.379L289.968 365.339L292.618 364.019L295.248 362.429L299.718 359.149L303.678 355.549L307.118 351.649L310.038 347.419L312.408 342.969L314.278 338.219L315.658 333.169L316.538 327.809L316.848 323.209L316.938 316.669L316.458 297.719L316.318 297.279L315.988 296.969L314.478 296.449L312.578 296.239L326.288 296.009L327.328 295.889L339.058 295.879L340.388 295.889L351.818 296.459L355.178 296.999L358.058 297.999L365.458 301.219L368.028 302.129L370.538 302.679L372.988 302.849L375.378 302.659L378.438 301.829L381.398 300.359L386.818 296.789L389.948 294.139L394.518 289.439ZM324.828 377.629H277.298L275.298 377.909L273.838 378.769L272.938 380.189L272.578 382.189L272.558 382.699V382.759L272.908 384.449L273.988 385.889L275.608 386.859L277.538 387.209L321.568 387.279L325.808 387.079L328.508 386.509L330.688 385.419L332.558 383.999L334.448 381.819L335.828 379.269L336.698 376.319L336.988 373.149L336.878 314.199L336.588 312.229L335.738 310.839L335.078 310.339L334.258 309.989L332.178 309.759L331.988 309.769L329.748 310.299L328.888 310.789L328.208 311.419L327.418 312.879L327.168 314.789L327.388 375.059L327.198 376.039L326.648 376.869L325.818 377.429L324.828 377.629ZM237.708 400.079L233.968 399.739L233.678 399.709L231.538 399.309L229.818 398.659L227.628 397.179L226.058 395.319L225.178 393.299L224.798 390.979L224.948 388.779L225.568 386.799L226.838 384.789L228.598 383.179L230.758 382.019L233.208 381.369L239.118 380.829L239.808 380.719L241.458 379.939L242.658 378.599L243.258 376.939L243.148 375.169L242.588 373.999L242.418 373.769L241.108 372.839L239.188 372.429L235.708 372.379L232.468 372.769L229.468 373.589L226.708 374.839L224.868 376.009L222.718 377.779L220.858 379.759L219.298 381.939L218.068 384.289L217.118 386.949L216.558 389.759L216.478 392.889L217.028 395.819L217.618 397.399L218.418 398.909L220.608 401.739L223.208 404.049L226.078 405.829L228.698 406.929L231.508 407.649L234.508 408.009L237.698 407.989L285.898 408.179L334.178 408.049L336.498 408.079L337.398 408.069L340.268 407.729L342.998 406.949L345.678 405.709L348.148 404.089L350.478 402.019L352.488 399.659L354.148 397.049L355.408 394.259L356.018 392.099L356.448 389.419L356.708 386.229L356.788 382.519L356.518 322.529L356.268 318.609L355.568 317.069L354.938 316.449L354.148 315.959L352.148 315.329L350.348 315.419L349.048 316.029L347.878 317.099L347.498 317.669L347.278 318.429L347.218 319.549V319.779L347.038 383.499L346.738 389.369L346.358 391.479L345.838 393.029L344.868 394.649L343.638 395.979L342.188 396.969L340.498 397.679L338.548 398.109L336.358 398.239L288.198 398.279L239.418 398.759L238.348 399.079L238.288 399.139L237.708 400.079Z" fill="#335C81"/>
<path d="M25.9117 295.16L25.7917 295.72L25.2417 296.21L24.2617 296.47L25.9117 295.16Z" fill="#676661"/>
<path d="M312.58 296.24L314.48 296.45L315.99 296.97L316.32 297.28L316.46 297.72L316.94 316.67L316.85 323.21L316.54 327.81L315.66 333.17L314.28 338.22L312.41 342.97L310.04 347.42L307.12 351.65L303.68 355.55L299.72 359.15L295.25 362.43L292.62 364.02L289.97 365.34L287.3 366.38L284.61 367.15L280.12 367.7L273.15 367.83L228.85 367.7L217.8 367.62L207.4 367.19L207.16 364.78V362.29L207.4 359.71L207.89 357.05L280.79 356.8L283.15 356.68L285.38 356.17L287.45 355.3L289.4 354.04L290.47 353.64L291.4 353.07L292.16 352.36L292.19 352.25L292.49 351.81L293.07 351.47L294.74 350.59L296.12 349.43L297.44 347.52L301.01 342.65L302.92 339.69L304.37 336.56L305.39 333.15L305.92 329.55V327.78L306.27 326.79L306.35 317.06L306.4 306.45L306.28 296.44L312.58 296.24Z" fill="black"/>
<path d="M297.877 303.849L297.307 310.638L297.337 317.409L297.787 322.589L297.367 326.169L296.607 329.568L295.527 332.799L294.117 335.849L292.297 338.828L290.127 341.628L287.607 344.229L284.727 346.648L282.887 347.669L280.877 348.118L278.967 347.919L277.517 347.118L276.627 345.969L276.117 344.328L276.217 343.018L276.877 341.359L277.627 340.318L278.867 339.188L282.487 336.178L284.657 334.059L286.057 332.078L287.127 329.739L287.877 327.039L288.307 323.989L288.657 318.859L288.777 313.659L288.667 308.368L288.327 303.008L288.547 302.398L289.227 301.239L290.217 300.219L291.517 299.319L293.117 298.559L294.357 298.229L295.537 298.249L296.607 298.589L296.987 298.868L297.227 299.279L297.797 301.618L297.877 303.849Z" fill="#335C81"/>
<path d="M288.332 303.01L288.672 308.37L288.783 313.66L288.663 318.86L288.312 323.99L288.332 303.01Z" fill="#676661"/>
<path d="M297.883 303.85L298.272 309.17L298.332 314.49L297.792 322.59L297.342 317.41L297.312 310.64L297.883 303.85Z" fill="#676661"/>
<path d="M324.832 377.63L325.822 377.43L326.652 376.87L327.202 376.04L327.392 375.06L327.172 314.79L327.422 312.88L328.212 311.42L328.892 310.79L329.753 310.3L331.992 309.77L332.182 309.76L334.262 309.99L335.082 310.34L335.742 310.84L336.592 312.23L336.883 314.2L336.992 373.15L336.702 376.32L335.832 379.27L334.452 381.82L332.562 384L330.693 385.42L328.512 386.51L325.812 387.08L321.572 387.28L277.542 387.21L275.612 386.86L273.992 385.89L272.913 384.45L272.562 382.76V382.7L272.582 382.19L272.943 380.19L273.842 378.77L275.302 377.91L277.302 377.63H324.832Z" fill="black"/>
<path d="M261.54 426.409L260.93 425.279L260.44 423.639L260.32 421.839L260.58 419.869L261.21 417.749L266.1 417.299L333.59 417.429L338.32 417.359L342.34 417.099L345.63 416.649L348.2 416.009L351.54 414.629L354.64 412.819L357.54 410.539L360.12 407.889L362.36 404.889L364.23 401.629L365.67 398.129L366.67 394.459L367.17 389.799L367.3 382.549L366.9 324.279L366.97 320.649L367.34 317.089L367.9 315.209L368.92 313.909L370.26 313.229L371.99 313.039H372.26L374.07 313.339L375.37 314.149L376.18 315.489L376.45 317.349L376.49 388.069L376.33 391.729L375.87 395.289L375.12 398.739L374.07 402.079L372.94 404.889L371.58 407.609L369.39 411.199L366.93 414.439L364.2 417.319L361.2 419.829L358.73 421.509L356.11 422.979L353.33 424.239L350.39 425.289L347.35 426.009L343.41 426.529L338.55 426.869L332.78 427.019L299.8 427.089L263.66 426.759L261.54 426.409Z" fill="black"/>
<path d="M237.699 407.99L237.709 400.08L238.289 399.14L238.349 399.08L239.419 398.76L288.199 398.28L336.359 398.24L338.549 398.11L340.499 397.68L342.189 396.97L343.639 395.98L344.869 394.65L345.839 393.03L346.359 391.48L346.739 389.37L347.039 383.5L347.219 319.78V319.55L347.279 318.43L347.499 317.67L347.879 317.1L349.049 316.03L350.349 315.42L352.149 315.33L354.149 315.96L354.939 316.45L355.569 317.07L356.269 318.61L356.519 322.53L356.789 382.52L356.709 386.23L356.449 389.42L356.019 392.1L355.409 394.26L354.149 397.05L352.489 399.66L350.479 402.02L348.149 404.09L345.679 405.71L342.999 406.95L340.269 407.73L337.399 408.07L336.499 408.08L334.179 408.05L285.899 408.18L237.699 407.99Z" fill="black"/>
<path d="M268.397 322.769L261.847 323.139L255.347 322.979L252.257 322.479L249.497 321.379L248.617 320.869L251.397 321.689L253.027 321.939L260.777 321.999L268.397 322.769Z" fill="#676661"/>
<path d="M305.922 329.549L305.392 333.149L304.372 336.559L302.922 339.689L301.012 342.649L303.822 336.289L304.962 332.959L305.922 329.549Z" fill="#2A4563"/>
<path d="M271.838 330.139L271.438 330.909L270.548 331.799L269.278 332.429L267.628 332.799L265.598 332.909L254.938 332.729L248.578 332.399L257.358 332.209L266.098 332.479L268.048 332.369L269.768 331.789L270.858 331.089L271.838 330.139Z" fill="#676661"/>
<path d="M41.222 332.27L30.082 335.99L32.592 334.37L35.262 333.21L38.162 332.5L41.222 332.27Z" fill="#335C81"/>
<path d="M28.3909 337.029L22.9609 340.939L24.8009 339.079L26.4909 337.919L28.3909 337.029Z" fill="#2A4563"/>
<path d="M198.148 340.119L198.178 340.419L197.908 340.619L197.348 340.679L61.2183 340.569L60.7483 340.409L60.7383 340.169L198.148 340.119Z" fill="#676661"/>
<path d="M227.277 349.89L225.697 349.57L223.347 349.47L58.7373 349.52L56.4272 349.63L54.8972 349.95L51.2472 350.85L47.8473 352.09L44.6973 353.67L41.8072 355.58L39.4873 357.52L37.3573 359.72L35.4173 362.17L33.6772 364.88L32.7573 366.82L31.8173 369.61L31.3672 371.03L30.7772 371.8L29.3773 372.98L28.0872 373.69L26.9072 373.8L25.2573 373.27L24.0673 372.37L23.2072 370.96L22.8672 369.07L23.0673 366.97L23.7973 364.72L26.4873 359.44L29.6373 354.81L33.2373 350.8L37.2873 347.43L39.7273 345.84L42.3072 344.44L45.0373 343.24L47.8972 342.24L50.8972 341.43L54.0373 340.81L57.3173 340.39L60.7373 340.17L60.7472 340.41L61.2172 340.57L197.347 340.68L197.907 340.62L198.177 340.42L198.147 340.12L215.577 340L222.727 340.21L228.817 340.59L230.437 340.95L231.627 341.73L232.187 342.47L232.557 343.39L232.757 345.78L232.537 346.96L232.047 347.94L231.277 348.73L230.217 349.32L228.887 349.7L227.277 349.89Z" fill="#335C81"/>
<path d="M19.8889 343.969L14.1289 352.779L15.3589 349.929L16.9489 347.329L18.3189 345.579L19.8889 343.969Z" fill="#676661"/>
<path d="M297.44 347.52L296.12 349.43L294.74 350.59L293.07 351.47L297.44 347.52Z" fill="#2A4563"/>
<path d="M227.282 349.889L54.9023 349.949L56.4323 349.629L58.7423 349.519L223.352 349.469L225.702 349.569L227.282 349.889Z" fill="#676661"/>
<path d="M292.158 352.359L291.398 353.069L290.468 353.639L289.398 354.039L290.038 353.379L291.008 352.759L292.158 352.359Z" fill="#2A4563"/>
<path d="M14.0794 352.99L13.7494 353.83L13.6094 353.55L14.0794 352.99Z" fill="#2A4563"/>
<path d="M289.399 354.039L287.449 355.299L285.379 356.169L283.149 356.679L280.789 356.799L289.399 354.039Z" fill="#335C81"/>
<path d="M12.5302 356.25L11.4702 361.13L10.9502 365.92V370.61L11.4702 375.22L12.5002 379.65L14.0402 384L16.0901 388.27L18.6501 392.44L16.7002 389.92L15.0402 387.31L13.6702 384.6L12.5901 381.8L12.1402 380.26L11.2202 375.91L10.5502 370.65L10.4102 366.39L10.8502 362.22L11.5302 359.21L12.5302 356.25Z" fill="#676661"/>
<path d="M207.891 357.05L207.401 359.71L207.161 362.29V364.78L207.401 367.19L202.591 386.77L202.191 388.87L202.011 390.92L202.051 392.83L202.291 394.72L203.171 397.83L204.701 400.91L206.371 403.4L208.241 405.7L210.381 407.88L212.711 409.85L215.241 411.64L217.921 413.22L220.841 414.63L223.871 415.82L226.131 416.46L228.771 416.95L235.191 417.46L248.161 417.72L261.211 417.75L260.581 419.87L260.321 421.84L260.441 423.64L260.931 425.28L261.541 426.41L259.911 426.64L258.261 426.81L164.651 426.14L159.861 425.87L155.371 425.08L151.201 423.78L147.341 421.97L142.751 419.04L138.571 415.61L134.851 411.73L131.641 407.46L129.081 402.97L127.121 398.2L125.821 393.34L125.191 388.29L125.011 382.14L125.211 376.7L125.791 371.96L126.751 367.92L126.741 367.52L126.361 367.36L115.121 366.94L111.471 366.99L109.131 367.23L106.351 368.1L103.771 369.61L101.451 371.76L99.3206 374.64L97.3506 378.27L96.4406 380.45L95.8106 382.62L95.4506 384.78L95.3606 386.94L95.7506 390.22L96.7706 393.48L98.0506 395.78L99.2306 397.81L99.8906 399.35L100.151 400.78L99.9806 401.96L99.1606 403.3L97.7306 404.38L96.3406 404.79L95.2006 404.55L93.9906 403.77L92.8106 402.49L91.6006 400.69L89.5306 396.76L88.1306 392.88L87.3806 389.04L87.3006 385.24L87.5706 382.97L88.4006 379.37L89.5806 376.06L91.1306 373.05L93.0406 370.33L94.5606 368.64L95.1805 367.88L95.2606 367.37L94.8506 367.12L93.9506 367.1L88.6406 367.53L87.4506 367.74L86.3606 368.14L85.4305 368.73L84.6906 369.47L83.0306 371.76L81.5906 374.12L80.4406 376.44L79.5306 378.81L78.9006 381.11L78.5306 383.43L78.4305 385.67L78.5906 387.92L79.0406 390.19L79.7806 392.46L80.7906 394.63L82.0906 396.79L83.3206 398.81L83.8106 400.13L83.7706 400.95L83.5006 401.77L82.9605 402.63L82.2406 403.38L81.4206 403.94L80.5306 404.29L79.7105 404.39L78.9106 404.25L77.9006 403.63L75.7706 401.42L74.6106 399.84L73.0706 396.53L71.9206 393.2L71.1805 389.85L70.8306 386.49L70.8806 383.2L71.3006 379.9L72.1006 376.58L73.2806 373.24L74.7406 370.41L76.5806 368.08L77.0406 367.5L77.0906 367.1L76.7606 366.88L76.0206 366.84L70.4605 367.36L69.6006 367.62L68.7606 368.18L67.0106 370.22L65.1506 373.59L63.5106 377.7L62.8906 379.91L62.5106 382.1L62.3506 384.27L62.4206 386.42L63.0306 389.83L64.2206 393.19L67.0006 398.96L67.2706 399.73L67.2906 400.47L66.8606 401.53L66.0806 402.37L65.2206 402.84L63.9706 402.98L62.4906 402.55L61.0306 401.63L59.6406 400.27L57.2606 396.87L55.5306 393.11L54.6805 390.05L54.2606 386.94V383.69L54.6606 380.44L55.5006 377.1L56.7306 373.83L58.3706 370.59L60.3706 367.5L60.4506 366.97L60.0606 366.61L59.8506 366.59L58.0506 366.88L56.3706 367.35L54.8006 368L53.3606 368.84L51.8006 370.06L50.4206 371.54L49.2206 373.25L48.2006 375.2L47.1106 378.08L46.3606 381.01L45.9706 383.99L45.9206 386.99L46.1805 389.67L46.7206 392.33L47.5506 394.95L48.6706 397.51L51.1706 401.95L55.0206 407.78L57.6506 411.72L58.5506 413.81L58.7506 415.41L58.5906 417.1L58.5806 417.63L58.7006 418.06L61.3406 424.24L56.5006 419.87L54.6206 418.17L52.3606 416.49L46.7306 413.13L43.8406 408.9L41.4305 404.55L39.5006 400.08L38.0506 395.48L37.9706 395.16L37.3706 392.33L37.0106 389.52L36.8906 386.73L37.0206 383.97L37.0406 383.76L37.4806 380.58L38.4406 376.5L39.8306 372.5L40.9806 370L42.3306 367.7L43.8706 365.59L45.6106 363.68L48.5906 361.17L48.6805 361.16L49.9006 360.94L51.0906 360.42L52.2706 359.6L53.4305 358.49L55.6206 357.62L58.3506 357.25L68.3506 357.05L138.121 356.99L207.891 357.05ZM177.341 367.42L177.221 366.95L176.761 366.79H160.841L160.011 367.12L159.641 367.94L158.471 382.6L158.141 388.88L158.481 394.19L159.281 397.9L160.141 400.28L161.241 402.58L162.591 404.81L164.201 406.97L166.541 409.55L169.041 411.77L171.701 413.63L174.531 415.14L177.171 416.17L179.941 416.93L182.841 417.4L185.871 417.59L186.001 417.56L186.151 417.32L186.031 417.07L183.421 415.05L180.981 412.78L178.691 410.25L176.741 407.66L175.151 405.05L173.971 402.53L173.151 399.96L172.771 397.57L172.641 393.94L172.931 391.61L174.471 385.72L175.721 379.73L176.681 373.63L177.341 367.42ZM163.571 417.67L164.081 417.69L164.431 417.47L164.441 417.08L164.311 416.95L161.131 414.64L158.371 411.95L156.981 410.25L155.181 407.65L153.631 404.97L152.351 402.21L151.311 399.37L150.431 395.91L149.901 392.33L149.741 388.64L149.931 384.84L151.801 367.76L151.811 367.69L151.601 367.07L150.991 366.8H135.751L135.001 367.09L134.631 367.8L133.491 376.13L133.061 381.53L133.271 387.66L133.971 392.28L135.301 396.67L137.141 400.59L139.541 404.3L141.851 407.1L144.341 409.58L147.011 411.74L149.871 413.57L153.001 415.11L156.331 416.31L159.851 417.16L163.571 417.67ZM210.621 417.68L210.741 417.64L210.811 417.57L210.841 417.36L210.761 417.16L210.621 417.04L208.071 415.53L205.721 413.84L203.591 411.97L201.671 409.92L201.661 409.91L198.101 405.26L196.701 403.02L195.611 400.89L194.781 398.83L194.171 396.71L193.811 394.66L193.701 392.55L193.961 389.66L196.021 379.3L198.821 367.69L198.751 367.27L198.391 367.04H198.321H185.841H185.781L185.061 367.41L184.831 368.19L185.031 371.9L184.711 375.69L184.421 377.57L183.381 383.38L182.131 389.16L181.181 394.31L181.051 396.2L181.151 397.63L181.911 400.46L183.101 403.15L184.761 405.78L186.771 408.2L189.231 410.51L191.961 412.52L194.951 414.23L198.041 415.55L200.931 416.43L203.991 417.08L207.221 417.49L210.621 417.68Z" fill="#2A4563"/>
<path d="M53.4298 358.49L52.2699 359.6L51.0898 360.42L49.8998 360.94L48.6798 361.16L48.5898 361.17L50.5699 359.67L51.9499 358.99L53.4298 358.49Z" fill="#335C81"/>
<path d="M177.341 367.419L176.681 373.629L175.721 379.729L174.471 385.719L172.931 391.609L172.641 393.939L172.771 397.569L173.151 399.959L173.971 402.529L175.151 405.049L176.741 407.659L178.691 410.249L180.981 412.779L183.421 415.049L186.031 417.069L186.151 417.319L186.001 417.559L185.871 417.589L182.841 417.399L179.941 416.929L177.171 416.169L174.531 415.139L171.701 413.629L169.041 411.769L166.541 409.549L164.201 406.969L162.591 404.809L161.241 402.579L160.141 400.279L159.281 397.899L158.481 394.189L158.141 388.879L158.471 382.599L159.641 367.939L160.011 367.119L160.841 366.789H176.761L177.221 366.949L177.341 367.419Z" fill="#335C81"/>
<path d="M163.572 417.669L159.852 417.159L156.332 416.309L153.003 415.109L149.872 413.569L147.012 411.739L144.342 409.579L141.852 407.099L139.542 404.299L137.143 400.589L135.302 396.669L133.972 392.279L133.272 387.659L133.062 381.529L133.492 376.129L134.632 367.799L135.003 367.089L135.753 366.799H150.992L151.602 367.069L151.812 367.689L151.802 367.759L149.932 384.839L149.742 388.639L149.902 392.329L150.432 395.909L151.312 399.369L152.352 402.209L153.632 404.969L155.182 407.649L156.982 410.249L158.372 411.949L161.132 414.639L164.312 416.949L164.442 417.079L164.432 417.469L164.082 417.689L163.572 417.669Z" fill="#335C81"/>
<path d="M210.621 417.679L207.221 417.489L203.991 417.079L200.931 416.429L198.041 415.549L194.951 414.229L191.961 412.519L189.231 410.509L186.771 408.199L184.761 405.779L183.101 403.149L181.911 400.459L181.151 397.629L181.051 396.199L181.181 394.309L182.131 389.159L183.381 383.379L184.421 377.569L184.711 375.689L185.031 371.899L184.831 368.189L185.061 367.409L185.781 367.039H185.841H198.321H198.391L198.751 367.269L198.821 367.689L196.021 379.299L193.961 389.659L193.701 392.549L193.811 394.659L194.171 396.709L194.781 398.829L195.611 400.889L196.701 403.019L198.101 405.259L201.661 409.909L201.671 409.919L203.591 411.969L205.721 413.839L208.071 415.529L210.621 417.039L210.761 417.159L210.841 417.359L210.811 417.569L210.741 417.639L210.711 417.659L210.621 417.679Z" fill="#335C81"/>
<path d="M237.71 400.079L237.7 407.989L234.51 408.009L231.51 407.649L228.7 406.929L226.08 405.829L223.21 404.049L220.61 401.739L218.42 398.909L217.62 397.399L217.03 395.819L216.48 392.889L216.56 389.759L217.12 386.949L218.07 384.289L219.3 381.939L220.86 379.759L222.72 377.779L224.87 376.009L226.71 374.839L229.47 373.589L232.47 372.769L235.71 372.379L239.19 372.429L241.11 372.839L242.42 373.769L242.59 373.999L243.15 375.169L243.26 376.939L242.66 378.599L241.46 379.939L239.81 380.719L239.12 380.829L233.21 381.369L230.76 382.019L228.6 383.179L226.84 384.789L225.57 386.799L224.95 388.779L224.8 390.979L225.18 393.299L226.06 395.319L227.63 397.179L229.82 398.659L231.54 399.309L233.68 399.709L233.97 399.739L237.71 400.079Z" fill="#2A4563"/>
<path d="M5.85752 391.528L4.4375 389.028L4.8375 388.818L5.57752 390.178L5.85752 391.528Z" fill="#2A4563"/>
<path d="M9.71671 398.139L6.13672 391.949L7.50672 393.799L8.66672 395.759L9.71671 398.139Z" fill="#2A4563"/>
<path d="M19.3123 393.439L18.8323 393.019L18.6523 392.579V392.439L19.3123 393.439Z" fill="#2A4563"/>
<path d="M20.3789 394.84L24.2189 398.77L28.3089 402.41L31.9889 405.28L35.8389 407.94L31.4189 405.49L27.4089 402.54L23.6689 398.96L20.3789 394.84Z" fill="#676661"/>
<path d="M11.542 400.528L11.042 399.998L10.832 399.568L11.432 399.888L11.542 400.528Z" fill="#2A4563"/>
<path d="M12.1391 401.299L11.8191 401.049L11.5391 400.529L11.959 400.739L12.1391 401.299Z" fill="#2A4563"/>
<path d="M395.289 401.299L394.599 404.909L393.589 408.419L392.579 411.099L391.379 413.709L395.289 401.299Z" fill="#676661"/>
<path d="M20.1523 409.98L18.0123 408.34L16.0823 406.51L14.3923 404.52L12.9023 402.34L20.1523 409.98Z" fill="#676661"/>
<path d="M31.6786 418.25L31.6087 418.37L23.8086 413L26.0187 414.1L28.0687 415.34L29.9487 416.73L31.6786 418.25Z" fill="#2A4563"/>
<path d="M391.138 414.199L388.438 419.519L385.188 424.419L381.698 428.579L377.738 432.379L379.368 430.409L382.588 426.999L384.218 425.069L386.188 422.299L391.138 414.199Z" fill="#676661"/>
<path d="M31.6794 418.25L38.8294 420.95L42.1394 422.52L45.2694 424.22L48.2094 426.08L50.9694 428.07L53.5594 430.21L55.9594 432.49L50.2594 428.47L44.2994 424.77L38.0794 421.41L31.6094 418.37L31.6794 418.25Z" fill="#676661"/>
<path d="M376.409 433.648L372.969 436.358L369.389 438.768L365.689 440.868L361.859 442.658L357.379 444.328L352.729 445.598L349.199 446.208L344.719 446.648L339.259 446.918L332.849 447.008L94.6594 447.028L88.4894 446.838L83.6294 446.248L78.4394 445.108L72.8494 443.508L69.4694 442.148L66.8594 440.438L73.3194 443.118L78.7294 444.928L81.7094 445.608L85.1694 446.118L91.6894 446.408L279.609 446.338L344.889 446.108L349.689 445.758L354.239 444.798L359.599 443.008L365.209 440.638L367.579 439.308L370.789 437.148L374.749 434.588L376.409 433.648Z" fill="#676661"/>
<path d="M61.3977 437.06L60.7877 436.81L60.4177 436.43L60.3477 436.28L60.5377 436.25L60.9677 436.46L61.3977 437.06Z" fill="#2A4563"/>
<path d="M64.4069 439.059L62.6569 438.099L62.0469 437.549L63.1069 437.879L63.8069 438.369L64.4069 439.059Z" fill="#2A4563"/>
<path d="M65.8903 439.808L65.0303 439.498L64.8203 439.318L65.5903 439.418L65.8903 439.808Z" fill="#676661"/>
<path d="M181.35 492.27L170.95 489.59L168.03 489.13L164.67 488.98L158.34 488.75L160.21 488.32L162.09 488.16L163.35 488.21L171.81 489.28L174.12 489.69L178.12 490.79L181.35 492.27Z" fill="#676661"/>
<path d="M158.338 488.748L164.668 488.978L168.028 489.128L170.948 489.588L181.348 492.268L182.058 492.418L182.558 492.768L182.578 492.788L184.268 493.888L185.528 495.198L185.308 495.798L185.088 495.998L185.018 495.988L182.998 500.228L181.428 504.598L180.668 507.438L180.498 508.338L179.928 509.398L179.568 509.648L179.148 509.568L176.078 507.908L174.258 506.738L172.318 505.888L169.888 505.328L167.308 505.218L159.588 505.288L158.668 505.128L157.858 505.258L157.078 505.768L154.718 506.798L152.578 508.138L151.068 509.388L149.698 510.838L148.458 512.468L147.358 514.288L146.068 517.058L145.418 519.908L145.348 521.638L145.498 523.388L145.878 525.158L146.488 526.958L146.828 527.688V527.848L147.248 529.228L147.918 530.428L148.688 531.298L149.638 532.038L150.608 532.768L151.578 533.798L152.878 534.988L154.328 535.848L156.098 536.438L158.048 536.628L162.208 536.568L164.368 536.808L166.488 536.308L168.568 535.068L168.988 533.908L169.208 532.598L169.058 529.528L169.238 528.938L169.158 528.548L168.808 528.338L168.198 528.328L166.168 528.868L164.568 528.818L162.668 528.428L163.008 522.408L162.598 516.488L162.538 516.048L186.208 515.868L186.798 516.058L186.978 516.658L187.098 528.008L187.218 537.478L186.758 552.188L176.448 553.798L174.728 553.908L172.768 553.688L172.928 550.658L172.678 550.078L172.068 549.928L171.898 549.988L170.528 550.738L167.888 551.998L167.218 552.198L160.518 553.978L155.818 553.858L145.298 551.648L139.958 548.878L139.748 548.268L139.388 547.858L138.888 547.658H138.258L134.578 544.108L133.148 541.368L131.248 539.258L130.858 538.528L130.648 537.478L130.278 537.058L130.148 537.048L127.488 527.088L127.398 515.748L130.088 508.278L132.268 504.058L134.998 500.318L137.468 497.788L140.258 495.528L143.378 493.558L146.828 491.868L151.908 490.218L157.098 488.928L157.618 488.648L158.338 488.748Z" fill="black"/>
<path d="M157.098 488.93L151.908 490.22L146.828 491.87L143.378 493.56L140.258 495.53L137.468 497.79L134.998 500.32L132.268 504.06L130.088 508.28L127.398 515.75L128.018 512.37L128.948 509.3L130.168 506.54L131.688 504.09L134.968 499.79L137.408 497.08L139.288 495.61L142.558 493.43L145.308 491.87L148.178 490.64L152.518 489.45L157.098 488.93Z" fill="#676661"/>
<path d="M308.312 489.119L321.182 491.749L322.163 491.869L322.812 492.269L323.072 492.739L323.163 493.359L322.832 495.039L319.832 506.639L319.552 506.909L319.082 506.989L318.022 506.849L313.253 505.529L308.512 504.639L303.792 504.199L299.092 504.189L296.842 504.609L295.952 505.049L295.212 505.649L294.592 506.469L294.163 507.469L294.112 509.469L294.682 511.079L295.812 512.269L297.512 513.109L301.702 514.089L311.072 516.479L314.353 517.449L317.413 518.819L319.332 519.949L321.092 521.379L322.443 523.059L322.822 523.739L324.312 527.249L325.103 530.689L325.253 533.009L325.202 536.349L325.012 537.929L324.492 539.569L322.322 545.249L317.973 549.669L315.732 550.469L314.652 551.159L313.672 552.049L310.302 553.179L308.562 553.129L307.332 553.679L307.112 553.899L305.242 554.309L303.482 554.319L290.172 554.119L289.932 554.109L289.332 553.909L289.003 553.769L288.082 553.449L283.663 552.739L279.503 551.809L275.383 550.629L275.142 550.559L274.562 549.959L275.542 543.369L276.902 536.779L276.962 536.169L276.812 535.829L276.542 535.729L276.943 535.299L277.292 535.079L277.712 535.119L278.022 535.319L283.272 537.259L288.642 538.399L291.342 538.669L295.242 539.119L299.103 539.029L301.862 538.639L302.982 538.649L304.042 538.459L305.283 537.939L306.432 537.089L306.982 536.459L307.342 535.759L307.512 534.899L307.422 533.939L307.012 532.719L306.342 531.729L305.322 530.909L303.982 530.379L298.652 529.169L290.732 527.659L287.663 526.869L284.682 525.609L281.772 523.879L278.952 521.679L278.562 521.339L278.122 520.549L277.672 519.099L277.012 517.759L276.082 516.459L275.772 515.889L275.693 515.069L275.862 513.859L275.802 512.689L275.402 511.279L275.232 509.349L275.422 507.529L278.582 498.159L282.582 493.999L286.052 492.319L289.612 490.919L292.862 489.909L296.182 489.129L299.122 488.819L302.122 488.709L305.193 488.809L308.312 489.119Z" fill="black"/>
<path d="M296.178 489.129L292.858 489.909L289.608 490.919L286.048 492.319L282.578 493.999L285.038 492.219L287.678 490.839L289.668 490.099L291.748 489.569L293.918 489.249L296.178 489.129Z" fill="#676661"/>
<path d="M321.182 491.749L308.312 489.119L311.522 489.309L314.742 489.809L317.962 490.629L321.182 491.749Z" fill="#676661"/>
<path d="M78.13 490.689L84.65 498.759L84.91 499.679L85.47 500.619L86.37 501.809L89.78 506.119L93.35 510.299L100.38 519.879L101.12 520.719L101.64 520.899L101.95 520.439L102.03 519.329L101.51 490.089L119.99 490.209L119.6 495.029L119.34 539.799L119.58 551.979V552.009L119.3 552.719L118.59 553.019H104.44L103.86 552.739L91.06 536.779L90.44 536.259L90.03 535.639L89.89 535.279L89 533.639L87.83 532.299L87.16 531.749L86.09 529.989L84.69 528.259L83.04 526.719L80.48 523.759L80.72 523.869L80.39 523.389L79.88 523.209L79.46 523.539L79.42 523.789L80.07 532.889L80.16 553.359L62.55 553.029L62.17 552.899L62.03 552.489L62 490.089L75.87 489.949L76.78 490.139L78.13 490.689Z" fill="black"/>
<path d="M7.30719 490.059L6.9372 491.129L6.7872 492.319L6.17719 491.649L6.11719 490.789L6.32721 490.369L6.77719 490.149L7.30719 490.059Z" fill="#676661"/>
<path d="M53.8272 505.589L26.0372 505.139L25.4472 505.349L25.1471 505.899L24.9472 508.089L24.9872 510.179L25.2672 512.179L25.7972 514.089L41.5372 513.689L44.6171 514.009L47.6471 513.879L49.2272 513.629L49.4772 523.049L49.1471 524.989L49.2372 527.109V527.159L49.0072 527.799L48.3872 528.069H26.5571L26.0072 528.179L25.5472 528.489L25.2372 528.959L25.1272 529.509V536.409L25.2272 537.089L25.5172 537.579L26.0072 537.879L26.7071 537.979L34.4872 537.839L42.1972 537.859L47.6672 537.759L53.5972 537.199L53.9271 553.569L53.5072 553.549L41.9172 553.109L30.3172 552.959L18.6972 553.109L7.0672 553.549L7.05719 505.279L6.61719 497.019L6.9072 495.839L6.98722 494.659L6.7172 492.839L6.7872 492.319L6.9372 491.129L7.30719 490.059L52.7071 490.079L53.6072 490.379L53.8971 491.279L53.8272 505.589Z" fill="black"/>
<path d="M61.998 490.09L62.028 552.49L62.168 552.9L62.548 553.03L80.158 553.36L75.738 553.89L71.378 554.15L67.078 554.13L62.838 553.85L62.188 553.66L61.648 553.25L61.288 552.67L61.168 552V490.59L61.238 490.33L61.468 490.14L61.998 490.09Z" fill="#676661"/>
<path d="M101.508 490.09L102.028 519.33L101.948 520.44L101.638 520.9L101.118 520.72L100.378 519.88L93.3477 510.3L99.7777 518.28L100.248 518.75L100.578 518.84L100.788 518.56L100.868 517.91L101.508 490.09Z" fill="#676661"/>
<path d="M197.52 490.059L197.88 498.919L198.01 507.759L197.89 516.589L197.54 525.399L197.22 518.449L197.07 509.779L197.15 499.179L197.52 490.059Z" fill="#2A4563"/>
<path d="M215.678 490.049L215.228 512.859L215.398 535.529L215.498 536.409L215.758 536.769L215.968 536.749L240.378 537.049L240.838 537.239L241.038 537.699L241.548 552.309L240.938 552.929L240.348 553.139L218.708 553.059L196.988 553.469L197.538 525.399L197.888 516.589L198.008 507.759L197.878 498.919L197.518 490.059L215.678 490.049Z" fill="black"/>
<path d="M215.97 536.749L215.76 536.769L215.5 536.409L215.4 535.529L215.23 512.859L215.68 490.049L216.18 513.459L215.97 536.749Z" fill="#2A4563"/>
<path d="M266.648 553.129L248.218 553.149L248.148 490.489L248.258 490.169L248.578 490.059H266.558L266.848 490.149L266.958 490.459L267.048 552.489L266.958 552.859L266.648 553.129Z" fill="black"/>
<path d="M334.659 490.169H345.259L351.609 489.879L351.299 513.479L351.549 514.239L352.299 514.489H370.149L370.779 514.229L371.039 513.599L371.159 490.089L372.589 490.009L373.569 490.159L383.759 490.129L388.969 490.059L389.359 491.529L389.439 551.669L389.339 552.389L389.039 552.889L388.519 553.189L387.789 553.279L371.869 553.109L371.539 553.049L371.129 552.699L370.859 552.049L370.919 551.359L370.849 551.269L371.079 549.049L370.789 545.659L370.979 543.449L370.689 541.479L370.969 530.919L370.719 530.279L370.089 529.999H370.079H352.629L351.749 530.369L351.379 531.249V552.149L351.079 552.889L350.339 553.189H334.479L333.819 553.099L333.349 552.809L333.069 552.339L332.969 551.669L333.219 490.259L333.729 490.089L334.659 490.169Z" fill="black"/>
<path d="M371.161 490.089L371.041 513.599L370.961 513.979L370.631 514.349L370.151 514.489H352.301L351.551 514.239L351.301 513.479L351.611 489.879L352.071 513.589L352.221 513.919L352.561 514.059H369.851L370.121 513.789V490.699L370.261 490.239L370.691 490.009L371.051 490.039L371.161 490.089Z" fill="#676661"/>
<path d="M370.859 552.049L371.129 552.699L371.539 553.049L371.869 553.109L387.789 553.279L388.519 553.189L389.039 552.889L389.339 552.389L389.439 551.669L389.359 491.529L388.969 490.059L389.619 490.089L389.969 490.229L390.089 490.589V551.779L389.919 552.649L389.429 553.379L388.689 553.859L387.829 554.029L372.119 553.989L371.389 553.849L370.759 553.459L370.319 552.859L370.129 552.149V552.129L370.859 552.049Z" fill="#676661"/>
<path d="M333.221 490.258L332.971 551.669L333.071 552.339L333.351 552.809L333.821 553.099L334.481 553.188H350.341L351.081 552.888L351.381 552.148V531.247L351.751 530.369L352.631 529.997H370.081H370.091L370.721 530.279L370.971 530.919L370.691 541.479L369.991 531.469L369.861 531.138L369.511 531.029H352.591L352.231 531.179L352.081 531.539V553.539L351.971 553.888L351.621 553.997H334.091L333.341 553.849L332.711 553.429L332.291 552.799L332.141 552.049L332.171 490.779L332.181 490.678L332.521 490.229L333.221 490.258Z" fill="#676661"/>
<path d="M119.989 490.209V553.449L119.809 553.869L119.389 554.049H105.759L104.289 553.719L103.129 552.739L91.0586 536.779L103.859 552.739L104.439 553.019H118.589L119.299 552.719L119.579 552.009V551.979L119.339 539.799L119.599 495.029L119.989 490.209Z" fill="#676661"/>
<path d="M185.528 495.199L184.268 493.889L182.578 492.789L184.868 493.379L185.488 493.789L185.778 494.279L185.528 495.199Z" fill="#676661"/>
<path d="M6.72155 492.84L6.99157 494.66L6.91156 495.84L6.62155 497.02L6.23156 496L6.10156 494.98L6.26156 493.91L6.72155 492.84Z" fill="#676661"/>
<path d="M322.83 495.039L319.96 507.439L319.66 507.899L319.11 507.889L314.22 506.379L309.26 505.419L303.85 504.999L298.36 505.219L297.8 505.299L295.91 506.039L294.16 507.469L294.59 506.469L295.21 505.649L295.95 505.049L296.84 504.609L299.09 504.189L303.79 504.199L308.51 504.639L313.25 505.529L318.02 506.849L319.08 506.989L319.55 506.909L319.83 506.639L322.83 495.039Z" fill="#676661"/>
<path d="M185.022 495.99L183.822 500.16L182.262 504.17L180.672 507.44L181.432 504.6L183.002 500.23L185.022 495.99Z" fill="#676661"/>
<path d="M278.581 498.16L275.421 507.53L275.391 504.95L275.891 502.54L276.951 500.26L278.581 498.16Z" fill="#676661"/>
<path d="M93.3523 510.3L89.7823 506.12L86.3723 501.81L85.4723 500.62L84.9123 499.68L84.6523 498.76L93.3523 510.3Z" fill="#676661"/>
<path d="M53.8292 505.589L26.4592 506.009L26.0992 506.359L25.7992 514.089L25.2692 512.179L24.9892 510.179L24.9492 508.089L25.1492 505.899L25.4492 505.349L26.0392 505.139L53.8292 505.589Z" fill="#676661"/>
<path d="M159.588 505.289L158.638 505.609L157.078 505.769L157.858 505.259L158.668 505.129L159.588 505.289Z" fill="#2A4563"/>
<path d="M176.082 507.909L167.312 505.219L169.893 505.329L172.322 505.889L174.262 506.739L176.082 507.909Z" fill="#676661"/>
<path d="M275.689 515.069L275.289 512.839L275.399 511.279L275.799 512.689L275.859 513.859L275.689 515.069Z" fill="#2A4563"/>
<path d="M49.2291 513.63L47.649 513.88L44.619 514.01L41.5391 513.69L43.5691 513.3L45.5191 513.16L47.4091 513.27L49.2291 513.63Z" fill="#676661"/>
<path d="M322.319 545.25L324.489 539.57L325.009 537.93L325.199 536.35L325.249 533.01L325.099 530.69L324.309 527.25L322.819 523.74L322.439 523.06L321.089 521.38L319.329 519.95L317.409 518.82L314.349 517.45L311.069 516.48L301.699 514.09L307.489 514.91L313.039 516.43L316.559 517.8L319.559 519.5L321.949 521.72L323.669 524.31L324.839 527.37L325.479 530.34L325.749 533.21L325.659 536L325.189 538.7L324.059 542.05L322.319 545.25Z" fill="#676661"/>
<path d="M147.362 514.289L146.722 516.499L146.292 518.739L146.052 522.799L146.492 526.959L145.882 525.159L145.502 523.389L145.352 521.639L145.422 519.909L146.072 517.059L147.362 514.289Z" fill="#676661"/>
<path d="M162.538 516.049L162.598 516.489L163.008 522.409L162.668 528.429L162.238 525.859L162.008 523.309L161.988 520.779L162.188 518.279L162.538 516.049Z" fill="#2A4563"/>
<path d="M278.118 520.549L277.218 519.319L276.538 517.959L276.078 516.459L277.008 517.759L277.668 519.099L278.118 520.549Z" fill="#2A4563"/>
<path d="M301.859 538.64L306.159 536.99L306.559 536.74L306.829 536.33L307.129 535.08L307.039 534L306.459 532.87L305.309 531.85L303.719 531.07L301.779 530.53L298.929 529.97L290.919 528.25L285.289 526.39L283.009 525.38L281.159 524.24L279.699 522.8L278.949 521.68L281.769 523.88L284.679 525.61L287.659 526.87L290.729 527.66L298.649 529.17L303.979 530.38L305.319 530.91L306.339 531.73L307.009 532.72L307.419 533.94L307.509 534.9L307.339 535.76L306.979 536.46L306.429 537.09L305.279 537.94L304.039 538.46L302.979 538.65L301.859 538.64Z" fill="#676661"/>
<path d="M49.4789 523.049L49.9189 525.409L49.9489 527.639L49.8089 528.159L49.4789 528.599L49.0189 528.889L48.4789 528.989H26.6089L26.2189 529.119L26.0889 529.509V536.719L26.1689 536.949L26.3789 537.019L53.5989 537.199L47.6689 537.759L42.1989 537.859L34.4889 537.839L26.7089 537.979L26.0089 537.879L25.5189 537.579L25.2289 537.089L25.1289 536.409V529.509L25.2389 528.959L25.5489 528.489L26.0089 528.179L26.5589 528.069H48.3889L49.0089 527.799L49.2389 527.159V527.109L49.1489 524.989L49.4789 523.049Z" fill="#676661"/>
<path d="M80.478 523.759L80.068 532.889L79.418 523.789L79.458 523.539L79.878 523.209L80.388 523.389L80.718 523.869L80.478 523.759Z" fill="#2A4563"/>
<path d="M87.1591 531.749L84.929 529.449L83.0391 526.719L84.6891 528.259L86.0891 529.989L87.1591 531.749Z" fill="#676661"/>
<path d="M130.148 537.05L129.048 535.07L128.238 532.99L127.608 530.12L127.488 527.09L130.148 537.05Z" fill="#2A4563"/>
<path d="M149.638 532.04L148.688 531.3L147.918 530.43L147.248 529.23L146.828 527.85L149.638 532.04Z" fill="#676661"/>
<path d="M169.062 529.53L167.792 529.04L166.172 528.87L168.202 528.33L168.812 528.34L169.162 528.55L169.242 528.94L169.062 529.53Z" fill="#2A4563"/>
<path d="M89.8902 535.28L88.5502 534.03L87.5502 532.59L87.1602 531.75L87.8302 532.3L89.0002 533.64L89.8902 535.28Z" fill="#676661"/>
<path d="M158.048 536.629L156.098 536.439L154.328 535.849L152.878 534.989L151.578 533.799L158.048 536.629Z" fill="#676661"/>
<path d="M168.571 535.068L166.491 536.308L164.371 536.808L162.211 536.568L168.571 535.068Z" fill="#676661"/>
<path d="M291.34 538.67L288.64 538.4L283.27 537.26L278.02 535.32L279.13 535.25L279.73 535.4L279.9 535.46L285.55 537.26L291.34 538.67Z" fill="#676661"/>
<path d="M274.56 549.958L274.28 549.008L274.25 548.279L276.54 535.729L276.81 535.828L276.96 536.169L276.9 536.779L275.54 543.369L274.56 549.958Z" fill="#676661"/>
<path d="M130.858 538.529L130.208 537.499L130.148 537.049L130.278 537.059L130.648 537.479L130.858 538.529Z" fill="#2A4563"/>
<path d="M134.58 544.11L132.61 541.84L131.25 539.26L133.15 541.37L134.58 544.11Z" fill="#676661"/>
<path d="M370.851 551.27L370.441 551.03L370.391 550.98L370.161 550.5L370.051 548.08L370.621 545.99L370.791 545.66L371.081 549.05L370.851 551.27Z" fill="#676661"/>
<path d="M139.962 548.88L138.322 547.72L138.262 547.66H138.892L139.392 547.86L139.752 548.27L139.962 548.88Z" fill="#2A4563"/>
<path d="M317.972 549.67L316.662 550.72L315.242 551.51L313.672 552.05L314.652 551.16L315.732 550.47L317.972 549.67Z" fill="#676661"/>
<path d="M172.77 553.69L172.46 553.72L172.14 553.61L172.04 553.29V551.58L171.94 551.28L171.63 551.32L168.56 552.61L165.39 553.48L162.98 553.85L160.52 553.98L167.22 552.2L167.89 552L170.53 550.74L171.9 549.99L172.07 549.93L172.68 550.08L172.93 550.66L172.77 553.69Z" fill="#676661"/>
<path d="M303.479 554.319L299.409 555.009L295.159 554.969L285.529 553.659L280.439 552.679L278.689 552.199L277.029 551.539L275.379 550.629L279.499 551.809L283.659 552.739L288.079 553.449L288.999 553.769L289.329 553.909L289.929 554.109L290.169 554.119L303.479 554.319Z" fill="#676661"/>
<path d="M155.821 553.858L153.181 553.838L150.601 553.488L147.911 552.758L145.301 551.648L155.821 553.858Z" fill="#676661"/>
<path d="M186.759 552.189L185.489 552.719L183.379 553.379L181.159 553.769L178.859 553.909L176.449 553.799L186.759 552.189Z" fill="#676661"/>
<path d="M241.548 552.309L241.688 552.869L241.598 553.309L241.038 553.759L239.968 553.939L230.428 554.169H220.078L208.938 553.939L196.988 553.469L218.708 553.059L240.348 553.139L240.938 552.929L241.548 552.309Z" fill="#676661"/>
<path d="M53.9303 553.569L42.1903 554.009L30.4603 554.159L18.7603 553.999L7.07031 553.549L18.7003 553.109L30.3203 552.959L41.9203 553.109L53.5103 553.549L53.9303 553.569Z" fill="#676661"/>
<path d="M266.649 553.129L266.239 553.799L265.869 553.899L256.729 554.069L249.119 553.969L248.539 553.779L248.219 553.149L266.649 553.129Z" fill="#676661"/>
<path d="M310.299 553.179L307.109 553.899L307.329 553.679L308.559 553.129L310.299 553.179Z" fill="#2A4563"/>
<path d="M314.599 568.39L313.179 567.29L311.649 566.7L310.049 566.62L308.359 567.02L310.349 566.04L311.249 565.91L312.079 566.01L313.449 566.8L314.599 568.39Z" fill="#676661"/>
<path d="M28.9997 567.84L26.0897 567.22L24.6197 566.96L23.1697 566.91L16.3397 567.05L9.7597 566.94L9.02969 567.06L8.4097 567.46L7.98972 568.06L7.83969 568.78V568.82L8.14969 599.75L7.3197 596.96L7.0097 593.53L6.92969 579.23L7.14969 569.34L7.32971 568.36L7.74969 567.56L8.74969 566.77L10.2297 566.35L15.2597 565.93L20.0697 566.04L24.6497 566.68L28.9997 567.84Z" fill="#676661"/>
<path d="M85.8523 567.219L64.7523 566.899L64.0723 567.019L63.4823 567.399L63.0923 567.959L62.9423 568.639L62.4823 598.069L62.1523 569.339L62.3723 568.119L63.0523 567.079L64.0623 566.379L65.2723 566.109L74.4823 566.039L83.6523 566.259L85.1123 566.489L85.8023 567.049L85.8523 567.219Z" fill="#676661"/>
<path d="M136.441 569L132.871 567.64L130.971 567.04L129.211 566.86L115.921 566.91L115.091 567.25L114.741 568.08V597.8L114.891 598.55L115.331 599.19L115.971 599.6L116.731 599.72H116.801L122.151 599.61L126.901 599.54L130.351 599.21L132.671 598.35L134.071 597.84L135.221 597.92L135.181 597.93L130.691 599.24L126.011 600.02L121.141 600.26L116.081 599.97L115.321 599.74L114.701 599.26L114.281 598.59L114.141 597.81V568.47L114.281 567.46L114.711 566.73L115.431 566.27L116.441 566.09L122.131 566L127.811 566.16L131.081 566.62L134.081 567.65L136.441 569Z" fill="#676661"/>
<path d="M193.221 566.63L183.211 567.03L172.391 566.72L179.541 566L186.371 565.99L193.221 566.63Z" fill="#676661"/>
<path d="M246.831 568.24L246.311 567.51L245.671 567.04L244.571 566.84L235.231 567.05L225.521 566.89H225.501L224.921 567L224.431 567.32L224.111 567.81L223.991 568.39L223.911 597.13L224.041 598.08L224.431 598.82L225.171 599.38L226.231 599.67L226.801 599.42L227.621 598.89L228.211 598.2L228.551 597.38L228.671 596.42V586.49L228.761 585.86L229.031 585.43L229.481 585.18L230.121 585.13L237.931 585.64L239.491 585.45L240.891 584.63L241.951 583.3L242.041 584.18L241.831 584.9L241.361 585.47L240.591 585.83L239.461 585.96L229.821 585.99L229.261 586.22L229.021 586.78V597.74L228.881 598.69L228.481 599.38L227.791 599.78L226.841 599.92H225.281L224.311 599.78L223.611 599.36L223.191 598.66L223.051 597.68V569.54L223.311 568.24L224.031 567.13L225.131 566.38L226.421 566.1L244.811 566.08L246.061 566.27L246.771 566.8L246.951 567.43L246.831 568.24Z" fill="#676661"/>
<path d="M335.39 566.689L331.27 567.189L332.36 566.349L333.47 566.029L334.42 566.169L335.39 566.689Z" fill="#676661"/>
<path d="M388.342 566.519L367.352 566.749L368.422 566.299L369.362 566.119L378.912 565.959L388.342 566.519Z" fill="#676661"/>
<path d="M278.92 597.999L276.96 599.769L276.44 599.919H275.33L273.84 598.529L273.68 598.249L273.97 590.759L274.04 583.229L273.89 575.679L273.52 568.089L274.15 567.139L274.94 566.559L275.66 566.369L276.46 566.399L278.37 567.109L278.71 567.419L278.82 567.859L278.92 597.999Z" fill="black"/>
<path d="M193.428 571.399L192.478 571.079L191.538 571.009L190.038 571.419L178.628 571.189H178.618L178.068 571.289L177.618 571.599L177.308 572.059L177.198 572.599L177.208 580.459L189.958 580.849L190.558 582.039L190.798 583.069V583.109L190.698 583.859L190.308 584.509L189.698 584.959L188.958 585.139L177.088 585.599L177.178 594.129L177.308 594.589L177.658 594.899L178.268 595.219L180.638 595.619L182.928 595.309L194.218 595.379L194.658 595.479L195.018 595.809L195.418 596.609L195.538 597.159L194.898 598.589L193.978 599.739L193.838 599.869L174.158 599.919H174.148L173.378 599.759L172.728 599.329L172.298 598.669L172.148 597.899L172.388 566.719L183.208 567.029L193.218 566.629L194.158 566.779L194.758 567.189L195.008 567.779L195.028 569.069L194.678 570.659L194.438 571.079L194.038 571.319L193.908 571.359L193.428 571.399Z" fill="black"/>
<path d="M314.599 568.389L328.909 587.229L329.779 588.329L330.379 588.839L330.809 588.919L331.069 588.569L331.159 587.779L331.269 567.189L335.389 566.689L335.789 567.279L335.979 568.149L336.429 594.809L336.279 595.729L336.429 597.479L335.949 598.519L335.369 599.149L333.849 599.609L332.439 599.569L331.049 598.979L328.609 595.839L328.199 594.789L327.539 594.069L327.059 593.809L314.709 577.789L313.909 576.789L313.529 576.629L313.189 576.869L313.149 577.059L313.479 598.529L312.269 599.349L311.349 599.689L309.939 599.279L308.779 598.579L308.429 598.249L308.359 567.019L310.049 566.619L311.649 566.699L313.179 567.289L314.599 568.389Z" fill="black"/>
<path d="M388.34 571.45L379.1 571.289L373 571.099L372.3 571.219L371.71 571.599L371.31 572.18L371.16 572.87V572.9L371.22 580.409L373.86 580.81L376.59 580.969L379.42 580.9L382.34 580.59L384.37 581.07L384.76 582.71L384.53 584.09L384.42 584.33L383.68 584.93L382.67 585.18L381.11 585.34L372.12 585.27L371.57 585.34L371.26 585.56L371.2 586.01V594.349L371.36 594.75L371.76 594.93L388.15 595.33L389.79 597.26L389.71 598L389.41 598.659L388.89 599.26L388.08 599.539L387.82 599.909L368.11 599.919L367.36 599.77L366.73 599.349L366.31 598.719L366.16 597.969L366.18 567.76L366.4 567.7L367.09 567L367.26 566.919L367.35 566.75L388.34 566.52L389.38 567.469L389.85 568.52V569.289L389.55 570.2L389.06 570.88L388.34 571.45Z" fill="black"/>
<path d="M28.9998 567.84L31.6798 570L33.0199 573.2L33.5699 576.31L33.4899 579.6L32.4998 581.89L31.0598 583.71L30.0199 584.55L28.8299 585.24L25.9799 586.14L25.4298 586.3L25.2098 586.53L25.3199 586.83L25.7699 587.19L26.0199 587.38L26.5199 588.2L28.0499 590.46L30.3199 592.51L31.4598 593.59L32.3199 594.7L32.9199 595.85L33.2399 597.03L33.0598 598.17L32.2098 599.47L30.1898 599.18L28.8499 598.54L27.6299 597.53L23.2299 592.55L22.5499 591.06L21.9199 590.39L21.0999 589.85L19.9298 588.35L18.5399 587.25L18.8098 587.06L18.8199 587.05L18.8599 586.79L18.6599 586.62L17.2798 586.21L16.0099 586.05L14.8499 586.13L13.8098 586.46L12.9398 587L12.9298 597.52L10.8199 599.74L9.91986 599.9L8.14984 599.75L7.83984 568.82V568.78L7.98987 568.06L8.40985 567.46L9.02985 567.06L9.75986 566.94L16.3398 567.05L23.1699 566.91L24.6198 566.96L26.0898 567.22L28.9998 567.84ZM13.0598 572.5L13.2899 580.9L13.4199 581.32L13.8098 581.55L16.9998 582.12L20.1798 582.25L22.4998 582.06L24.8098 581.63L26.7999 580.88L28.1299 579.66L28.5499 578.87L28.7999 577.97L28.7899 575.8L28.4998 574.66L27.9598 573.69L26.8899 572.7L25.3998 572.03L24.8199 571.5L24.1699 571.21L23.0099 571.26L17.6498 571.37L15.4998 570.98L13.5999 571.27L12.9998 571.53L12.7098 571.83L12.8398 572.22L13.0598 572.5Z" fill="black"/>
<path d="M85.8505 567.218L86.0605 569.018L85.8205 569.988L85.2505 570.368L85.0305 570.778L85.0505 570.948L82.3505 571.338L77.7705 570.998L73.5505 570.938L69.3205 571.128L68.4305 571.248L67.9505 571.608L67.8805 572.028L68.0405 572.588L68.0705 579.778L68.4505 580.688L69.3605 581.068H80.1305L80.7104 581.288L80.9905 581.828L81.0305 583.458L80.7505 585.188L68.8105 585.508L68.5705 585.368L68.3105 585.378L68.2205 585.618L67.9705 591.218L67.5905 592.998L67.9005 594.408L68.2505 594.898L68.3605 594.788L68.5205 595.098L69.0805 595.468L70.1005 595.608L76.7905 595.568L82.3505 595.258L83.5205 595.168L84.8505 595.318L85.2705 595.498L85.5605 595.878L85.9905 597.778L85.9705 598.268L85.8005 598.888L85.4205 599.398L84.8805 599.748L84.2505 599.878L74.7905 599.978L65.6105 599.858L64.1705 599.618L63.1005 598.978L62.4805 598.068L62.9405 568.638L63.0905 567.958L63.4805 567.398L64.0705 567.018L64.7505 566.898L85.8505 567.218Z" fill="black"/>
<path d="M136.438 568.999L138.738 570.959L140.608 573.209L141.548 574.759L142.328 576.429L143.368 580.099L143.188 581.619L143.218 583.209L143.478 584.809L142.578 588.629L140.368 593.299L135.218 597.919L134.068 597.839L132.668 598.349L130.348 599.209L126.898 599.539L122.148 599.609L116.798 599.719H116.728L115.968 599.599L115.328 599.189L114.888 598.549L114.738 597.799V568.079L115.088 567.249L115.918 566.909L129.208 566.859L130.968 567.039L132.868 567.639L136.438 568.999ZM123.668 595.209L127.538 595.059L129.328 594.699L131.038 594.149L132.508 593.459L133.848 592.579L134.968 591.579L135.928 590.399L137.018 588.239L137.698 587.359L137.638 586.199L137.948 584.689L138.028 583.039L137.848 581.269L137.438 579.369L136.888 577.729L136.168 576.279L135.288 575.009L134.248 573.929L132.848 572.929L131.228 572.169L128.838 571.449L126.418 571.029L123.418 570.919L120.358 571.269L120.088 571.049L119.528 571.309L119.398 571.629V594.249L119.598 594.909L120.138 595.339L121.038 595.579H122.328L123.668 595.209Z" fill="black"/>
<path d="M246.83 568.24L246.82 569.12L246.56 569.87L245.64 570.81L244.07 571.41L243.3 571.08H242.61L241.87 571.33L230.48 571.01L229.83 571.09L229.36 571.35L229.08 571.81L228.99 572.46V579.69L229.08 580.3L229.34 580.74L229.78 581L230.39 581.08L239.91 581.17L240.87 581.33L241.53 581.76L241.87 582.41L241.95 583.3L240.89 584.63L239.49 585.45L237.93 585.64L230.12 585.13L229.48 585.18L229.03 585.43L228.76 585.86L228.67 586.49V596.42L228.55 597.38L228.21 598.2L227.62 598.89L226.8 599.42L226.23 599.67L225.17 599.38L224.43 598.82L224.04 598.08L223.91 597.13L223.99 568.39L224.11 567.81L224.43 567.32L224.92 567L225.5 566.89H225.52L235.23 567.05L244.57 566.84L245.67 567.04L246.31 567.51L246.83 568.24Z" fill="black"/>
<path d="M367.09 566.997L366.4 567.698L366.18 567.758L366.33 567.247L366.44 567.138L366.79 566.979L367.09 566.997Z" fill="#2A4563"/>
<path d="M273.519 568.09L273.889 575.68L274.039 583.23L273.969 590.76L273.679 598.25L273.339 596.2L273.129 593.28L272.949 580.03L273.139 573.89L273.519 568.09Z" fill="#676661"/>
<path d="M33.4897 579.6L33.5697 576.31L33.0197 573.2L31.6797 570L33.0797 571.87L33.9097 573.9L34.1397 575.23V576.63L33.9297 578.09L33.4897 579.6Z" fill="#676661"/>
<path d="M85.8213 569.99L85.7713 570.57L85.0513 570.95L85.0312 570.78L85.2513 570.37L85.8213 569.99Z" fill="#676661"/>
<path d="M17.6509 571.369L13.8309 572.029L13.3609 572.188L13.0609 572.497L12.8409 572.219L12.7109 571.828L13.0009 571.529L13.6009 571.268L15.5009 570.979L17.6509 571.369Z" fill="#676661"/>
<path d="M25.4016 572.029L23.0117 571.259L24.1717 571.209L24.8217 571.499L25.4016 572.029Z" fill="#2A4563"/>
<path d="M69.3189 571.129L68.9789 571.399L68.0389 572.589L67.8789 572.029L67.9489 571.609L68.4289 571.249L69.3189 571.129Z" fill="#2A4563"/>
<path d="M120.358 571.269L120.108 594.079L120.358 594.729L120.988 595.029L123.668 595.209L122.328 595.579H121.038L120.138 595.339L119.598 594.909L119.398 594.249V571.629L119.528 571.309L120.088 571.049L120.358 571.269Z" fill="#676661"/>
<path d="M193.429 571.4L193.029 571.52L191.589 571.67L190.039 571.42L191.539 571.01L192.479 571.08L193.429 571.4Z" fill="#2A4563"/>
<path d="M244.067 571.41L243.087 571.66L241.867 571.33L242.607 571.08H243.297L244.067 571.41Z" fill="#676661"/>
<path d="M388.342 571.449L384.942 571.859L382.032 571.779L379.102 571.289L388.342 571.449Z" fill="#676661"/>
<path d="M24.8086 581.629L26.0687 580.769L27.0387 579.849L27.7287 578.859L28.1287 577.799L28.2387 576.419L27.9286 574.949L27.0187 573.409L25.3986 572.029L26.8887 572.699L27.9586 573.689L28.4986 574.659L28.7887 575.799L28.7987 577.969L28.5487 578.869L28.1287 579.659L26.7987 580.879L24.8086 581.629Z" fill="#676661"/>
<path d="M314.708 577.789L314.298 578.759L314.188 579.649L314.218 589.179L313.478 598.529L313.148 577.059L313.188 576.869L313.528 576.629L313.908 576.789L314.708 577.789Z" fill="#676661"/>
<path d="M143.368 580.1L143.908 582.18L143.838 583.49L143.478 584.81L143.217 583.21L143.188 581.62L143.368 580.1Z" fill="#676661"/>
<path d="M189.961 580.848L177.211 580.458L180.231 580.038L183.261 579.898L186.351 580.048L188.251 580.348L189.961 580.848Z" fill="#676661"/>
<path d="M382.339 580.589L379.419 580.899L376.589 580.969L373.859 580.809L371.219 580.409L376.029 579.969L379.179 580.109L382.339 580.589Z" fill="#676661"/>
<path d="M177.09 585.6L188.96 585.14L189.7 584.96L190.31 584.51L190.7 583.86L190.8 583.11V583.07L190.56 582.04L189.96 580.85L190.55 581.19L190.92 581.64L191.01 581.89L191.1 583.41L190.75 584.8L190.46 585.17L190.03 585.35L186.5 585.87L181.82 586.03L177.09 585.6Z" fill="#676661"/>
<path d="M371.199 586.008L371.259 585.558L371.569 585.338L372.119 585.268L381.109 585.338L382.669 585.178L383.679 584.928L384.419 584.328L384.529 584.088L384.759 582.708L384.369 581.068L384.849 581.718L385.169 583.018L384.929 584.618L384.339 585.468L383.359 585.808L371.199 586.008Z" fill="#676661"/>
<path d="M80.7486 585.189L78.0987 585.749L75.3686 586.069L72.5387 586.139L69.6287 585.969L69.1887 585.819L68.8086 585.509L80.7486 585.189Z" fill="#676661"/>
<path d="M18.5414 587.249L12.9414 586.999L13.8113 586.459L14.8514 586.129L16.0114 586.049L17.2813 586.209L18.6614 586.619L18.8614 586.789L18.8214 587.049L18.8113 587.059L18.5414 587.249Z" fill="#676661"/>
<path d="M137.02 588.239L137.64 586.199L137.7 587.359L137.02 588.239Z" fill="#2A4563"/>
<path d="M30.3195 592.509L28.0495 590.459L26.5195 588.199L27.8795 589.279L29.0395 590.519L30.3195 592.509Z" fill="#676661"/>
<path d="M142.577 588.629L142.177 590.639L141.457 592.039L140.367 593.299L142.577 588.629Z" fill="#676661"/>
<path d="M23.2277 592.55L22.1577 591.53L21.3577 590.37L21.0977 589.85L21.9177 590.39L22.5477 591.06L23.2277 592.55Z" fill="#676661"/>
<path d="M67.9698 591.219L68.2498 594.899L67.8998 594.409L67.5898 592.999L67.9698 591.219Z" fill="#2A4563"/>
<path d="M328.612 595.839L327.702 594.869L327.062 593.809L327.542 594.069L328.202 594.789L328.612 595.839Z" fill="#676661"/>
<path d="M336.427 594.809L336.787 595.809L336.747 596.629L336.427 597.479L336.277 595.729L336.427 594.809Z" fill="#676661"/>
<path d="M82.3495 595.26L76.7895 595.57L70.0995 595.61L69.0795 595.47L68.5195 595.1L82.3495 595.26Z" fill="#2A4563"/>
<path d="M182.93 595.31L180.64 595.62L178.27 595.22L179.91 595L181.52 595.05L182.93 595.31Z" fill="#2A4563"/>
<path d="M389.788 597.26L388.148 595.33L388.948 595.42L389.488 595.75L389.788 596.36V597.26Z" fill="#676661"/>
<path d="M195.54 597.16L195.48 598.67L194.96 599.57L194.47 599.81L193.84 599.87L193.98 599.74L194.9 598.59L195.54 597.16Z" fill="#676661"/>
<path d="M12.9303 597.52L12.8203 598.719L12.2403 599.56L11.6303 599.78L10.8203 599.74L12.9303 597.52Z" fill="#676661"/>
<path d="M32.2089 599.469L30.7089 599.949L29.4589 599.799L28.4089 598.999L27.6289 597.529L28.8489 598.539L30.1889 599.179L32.2089 599.469Z" fill="#676661"/>
<path d="M278.921 598L278.721 598.9L278.281 599.49L277.711 599.75L276.961 599.77L278.921 598Z" fill="#676661"/>
<path d="M311.35 599.69L309.66 599.79L309.09 599.62L308.69 599.31L308.47 598.85L308.43 598.25L308.78 598.58L309.94 599.28L311.35 599.69Z" fill="#676661"/>
<path d="M275.328 599.919L274.508 599.829L273.998 599.489L273.828 599.079L273.838 598.529L275.328 599.919Z" fill="#676661"/>
<path d="M335.371 599.148L334.051 600.029L332.831 600.208L331.911 599.828L331.051 598.979L332.441 599.568L333.851 599.609L335.371 599.148Z" fill="#676661"/>
<path d="M388.89 599.26L388.88 599.48L388.59 599.78L387.82 599.91L388.08 599.54L388.89 599.26Z" fill="#676661"/>
</g>
<defs>
<clipPath id="clip0_777_29193">
<rect width="400" height="601" fill="white"/>
</clipPath>
</defs>
</svg>
