<svg width="1024" height="1024" viewBox="0 0 1024 1024" fill="none" xmlns="http://www.w3.org/2000/svg">
<path d="M0 200C0 89.5431 89.5431 0 200 0H824C934.457 0 1024 89.5431 1024 200V824C1024 934.457 934.457 1024 824 1024H200C89.5431 1024 0 934.457 0 824V200Z" fill="#006951"/>
<path d="M645.536 308.179C646.109 307.215 653.795 299.954 655.024 298.769C676.604 277.99 699.225 258.318 722.799 239.831C728 235.828 737.177 228.447 742.516 225.158C740.457 229.547 732.746 230.985 732.658 235.285C733.614 236.684 734.038 237.052 734.028 238.839C736.582 238.893 740.446 232.365 742.221 233.925C737.522 238.234 729.524 244.137 724.335 248.283C716.894 254.297 709.618 260.512 702.515 266.921C690.073 277.924 677.886 289.212 665.964 300.776C660.605 305.89 653.434 313.29 648.16 317.94C647.455 318.943 641.038 325.512 639.828 326.772C633.606 333.204 627.431 339.682 621.306 346.206C603.708 365.203 583.905 387.942 567.228 407.857C555.638 421.978 544.382 436.368 533.469 451.018C497.129 499.343 463.36 549.549 432.303 601.428C414.194 631.528 396.445 663.275 380.247 694.49C378.752 697.371 377.98 707.39 377.289 711.299C376.027 718.186 374.264 724.971 372.015 731.601C353.519 785.83 324.801 827.085 283.43 865.984C339.393 887.755 380.02 835.524 413.433 799.18C420.485 791.51 428.372 782.129 434.226 773.606C436.23 770.689 438.766 760.537 440.334 756.42C444.576 745.527 449.141 734.763 454.022 724.142C472.682 683.433 525.491 600.285 568.194 584.68C591.734 576.078 622.303 581.424 644.419 591.842C615.317 619.963 605.688 639.256 584.817 673.528C575.374 689.031 565.443 704.231 555.038 719.105C532.721 750.916 509.718 781.354 482.238 808.896C476.751 814.394 470.886 820.22 465.743 826.005C464.634 832.606 464.631 840.045 466.469 846.52C468.535 853.801 473.082 859.625 479.755 863.187C489.545 868.413 500.128 866.391 509.2 860.956C553.091 834.663 609.147 716.581 635.774 669.104C650.169 643.436 665.766 616.597 685.136 594.353C703.582 573.17 727.516 555.463 754.603 547.272C788.147 537.128 828.033 541.175 858.879 557.868C881.729 570.234 898.91 589.315 906.306 614.436C913.683 640.333 910.524 668.096 897.518 691.673C883.428 717.027 859.857 735.757 831.976 743.755C813.997 748.888 790.349 749.759 773.207 740.53C755.948 731.237 749.373 712.915 759.633 695.431C762.5 690.487 766.573 686.352 771.473 683.41C792.101 671.044 811.742 687.011 833.473 680.539C845.772 676.876 856.136 670.106 862.551 658.802C867.68 649.854 869.01 639.225 866.245 629.289C857.845 599.768 822.013 591.509 795.823 599.772C744.736 615.891 719.209 674.47 697.838 718.788C690.693 733.759 683.103 748.514 675.077 763.031C643.438 819.633 597.117 886.26 531.654 906.072C488.863 919.023 436.314 903.736 423.41 856.606C376.062 900.867 311.429 935.948 252.432 888.892C239.376 896.926 224.198 900.832 208.885 900.097C187.783 898.915 170.932 887.199 157.205 871.854C121.117 831.514 105.467 768.021 108.331 714.936C111.592 654.5 142.021 599.381 186.674 559.368C194.131 552.686 212.977 537.343 221.733 534.903C229.885 532.632 305.405 538.68 320.096 539.499C315.853 545.616 309.052 552.046 303.81 557.5C297.805 563.858 291.841 570.256 285.919 576.693C262.626 601.922 240.579 629.281 223.102 659.73C197.236 706.085 174.007 765.923 186.229 819.575C192.012 844.96 208.741 860.5 235.163 852.954C234.624 826.005 245.047 799.909 257.118 776.15C275.669 739.638 319.144 680.695 359.094 667.68C365.487 658.886 373.697 644.838 379.855 635.321C393.623 613.904 407.764 592.728 422.27 571.804C474.152 496.826 531.657 425.9 594.29 359.639C605.686 347.684 616.776 335.884 628.739 324.465C634.322 319.135 639.759 313.285 645.536 308.179Z" fill="#FBF7EF"/>
<path d="M737.186 165.221C749.066 142.652 764.572 122.641 789.929 115.251C838.317 101.347 897.09 133.642 912.004 181.608C915.452 192.695 918.696 203.645 912.626 214.305C898.894 238.42 877.34 250.623 850.461 254.198C867.946 260.621 886.44 251.243 900.906 241.907C897.897 262.859 891.896 278.472 874.738 292.571C860.771 305.339 843.552 314.005 824.976 317.617C818.67 318.89 812.858 319.588 806.467 319.845C805.478 319.885 805.033 320.124 804.452 320.827C805.222 322.18 806.935 322.827 808.411 323.174C831.634 328.634 853.381 320.877 873.468 310.988C854.754 350.459 811.793 387.212 768.102 394.331C756.155 396.791 741.38 396.951 729.096 397.972L728.743 398.431C731.203 401.644 748.902 403.289 753.185 403.766C769.378 405.571 783.99 402.074 799.356 397.496C753.761 445.266 699.447 474.246 634.033 485.497C619.56 487.986 605.662 488.258 591.566 490.329C596.161 492.114 604.146 492.916 609.242 493.378C626.551 494.986 644 494.142 661.072 490.869C669.175 489.304 677.101 487.106 685.266 485.55C662.71 503.367 638.748 516.117 612.61 527.935C572.052 546.273 528.2 555.234 488.826 576.465C486.52 577.709 479.217 580.698 478.007 582.615L478.532 583.184C481.282 583.399 485.339 581.997 488.051 581.349C505.372 577.216 523.295 570.752 540.979 568.792C534.605 572.759 524.151 577.375 517.214 580.682L479.352 598.756C462.999 606.558 450.018 614.44 434.422 622.836C438.207 614.54 445.244 602.946 450.016 595.085C457.931 582.075 465.978 569.145 474.156 556.299C485.959 537.652 497.853 518.372 510.043 500.021C534.64 462.916 561.033 427.033 589.127 392.499C599.276 380.093 613.813 361.865 625 350.712C625.729 349.365 637.422 337.047 639.388 334.96C657.719 315.175 676.692 295.995 696.276 277.45C705.968 268.189 720.229 254.651 730.962 246.723C731.506 245.953 738.034 240.542 739.174 239.598C755.891 225.852 773.205 212.848 791.067 200.626L790.634 199.619C779.523 206.779 768.641 214.288 758.002 222.133C754.055 225.026 745.853 231.664 742.223 233.924C740.448 232.364 736.584 238.892 734.03 238.838C734.04 237.051 733.616 236.683 732.66 235.284C732.748 230.984 740.459 229.546 742.518 225.157C745.727 220.178 797.995 188.912 807.628 183.708C805.105 183.751 802.417 185.551 800.171 186.722C758.42 208.483 720.011 236.431 683.299 265.688C671.562 275.203 658.974 285.105 647.892 295.296L626.34 315.414C623.487 318.093 619.063 322.579 616.199 324.89C616.511 321.818 619.555 321.675 619.801 319.53C618.18 319.496 618.164 319.658 616.594 320.155L616.135 319.646L616.674 318.056C614.092 315.376 612.416 317.605 610.107 315.644C608.089 313.929 606.054 309.18 604.075 307.319C602.794 306.115 600.414 306.196 598.672 304.932C592.787 300.167 586.803 295.159 580.614 290.802C577.783 288.81 573.12 287.232 569.943 285.63C564.604 282.939 559.01 280.554 553.595 278.001C549.32 275.986 545.328 273.032 541.051 271.167C536.524 269.193 529.291 269.696 525.183 266.949C550.312 228.997 593.903 191.592 633.151 168.985C619.5 201.149 613.018 211.478 613.075 249.008C618.479 235.356 623.05 218.48 631.802 206.063C633.681 201.623 639.233 193.848 642.159 189.768C660.802 163.762 687.953 141.408 717.742 129.432C730.888 124.296 744.634 120.85 758.648 119.179C744.643 135.52 741.399 143.83 737.186 165.221Z" fill="url(#paint0_linear_1026_28084)"/>
<path d="M841.764 166.51L843.251 167.301C839.253 169.508 815.788 182.693 812.954 185.315C807.709 188.352 795.301 195.868 790.63 199.62C779.519 206.78 768.637 214.289 757.998 222.134C754.051 225.027 745.849 231.665 742.219 233.925C740.444 232.365 736.58 238.893 734.026 238.839C734.036 237.052 733.612 236.684 732.656 235.285C732.744 230.985 740.455 229.547 742.514 225.158C745.723 220.179 797.991 188.913 807.624 183.709C808.223 183.53 817.084 178.899 818.189 178.332C825.99 174.277 833.849 170.336 841.764 166.51Z" fill="#F7EE83"/>
<path d="M841.766 166.511C844.676 165.185 847.468 163.8 850.543 162.924C848.278 164.335 845.598 166.119 843.253 167.302L841.766 166.511Z" fill="#E3C576"/>
<path d="M525.181 266.949C529.289 269.696 536.522 269.193 541.049 271.167C545.326 273.032 549.318 275.986 553.593 278.001C559.008 280.554 564.602 282.939 569.941 285.63C573.118 287.232 577.782 288.81 580.613 290.802C586.802 295.159 592.786 300.167 598.671 304.932C600.413 306.196 602.793 306.115 604.074 307.319C606.053 309.18 608.087 313.929 610.105 315.644C612.414 317.605 614.091 315.376 616.673 318.056L616.134 319.646L616.592 320.155C618.162 319.658 618.178 319.496 619.799 319.53C619.553 321.675 616.509 321.818 616.197 324.89C614.574 326.676 605.026 336.272 603.585 337.153C599.53 342.343 585.255 356.45 579.785 362.32C565.432 377.822 551.44 393.656 537.822 409.807C494.171 461.582 455.582 517.039 416.729 572.399C405.71 588.099 395.174 603.961 385.312 620.414C385.438 604.315 386.977 587.972 388 571.868C389.722 544.744 391.171 516.868 397.404 490.339C398.554 485.444 402.589 470.373 406.763 467.804C407.461 469.641 407.148 473.916 407.165 475.971C407.254 486.4 409.801 539.141 416.008 544.787C416.75 543.843 417.031 541.328 417.061 540.115C418.105 497.396 419.306 455.639 432.396 414.557C442.111 384.068 454.99 364.03 474.654 339.502C468.065 373.627 467.242 399.99 470.211 434.545C470.445 437.274 470.245 441.282 472.237 443.063C475.585 442.131 477.225 413.093 478.22 407.75C484.602 373.472 491.744 323.853 509.767 293.314L510.281 292.459C513.465 284.672 520.541 273.895 525.181 266.949Z" fill="url(#paint1_linear_1026_28084)"/>
<defs>
<linearGradient id="paint0_linear_1026_28084" x1="762.812" y1="92.7618" x2="592.492" y2="668.171" gradientUnits="userSpaceOnUse">
<stop stop-color="#BE1737"/>
<stop offset="1" stop-color="#49FF75"/>
</linearGradient>
<linearGradient id="paint1_linear_1026_28084" x1="554.208" y1="302.387" x2="394.216" y2="622.146" gradientUnits="userSpaceOnUse">
<stop stop-color="#749457"/>
<stop offset="1" stop-color="#75D86E"/>
</linearGradient>
</defs>
</svg>
