<?xml version="1.0" encoding="utf-8" ?><svg xmlns="http://www.w3.org/2000/svg" xmlns:xlink="http://www.w3.org/1999/xlink" width="1024" height="1024" viewBox="0 0 1024 1024"><path fill="#3A3D51" d="M0 0L7.21788 0L8.55071 0L182.232 0L183.158 0L836.353 0L837.28 0L839.215 0L840.413 0L1024 0L1024 141.375L1024 158.154L1024 300.082L1024 500.027L1024 508.049L1024 522.309L1024 543.882L1024 878.29L1024 924.641L1024 1024L1016.76 1024L1015.52 1024L840.678 1024L839.167 1024L837.706 1024L835.847 1024L187.492 1024L185.428 1024L182.074 1024L180.594 1024L9.84489 1024L8.5025 1024L1.78577 1024L0.678226 1024L0 1024L0 899.272L0 880.439L0 812.726L0 802.574L0 514.423L0 511.5L0 509.379L0 185.057L0 124.968L0 0Z"/><path fill="#3A3D51" d="M0 0L7.21788 0L8.55071 0L182.232 0L179.294 3.28195L179.703 4.21543C171.633 13.1783 162.863 21.5088 154.526 30.2375L94.8107 92.8442C85.1391 103 75.573 113.491 65.8057 123.599C59.3149 130.317 52.3152 139.009 45.3491 145.023C47.0652 150.852 62.8943 208.645 62.7309 209.76C60.0708 206.668 48.1978 154.464 44.3798 145.433C39.8469 148.873 22.7836 172.097 19.7813 172.242C16.6947 167.517 4.23314 148.54 1.07553 145.616C1.17039 140.943 2.0855 128.196 0 124.968L0 0Z"/><path fill="#3A3D51" d="M8.55071 0L182.232 0L179.294 3.28195C155.035 27.241 118.431 67.6435 93.2713 92.8014C93.0067 92.8266 92.742 92.8517 92.4774 92.8768L37.5446 31.4452C28.0847 20.9642 18.4662 10.0075 8.55071 0Z"/><path fill="#70727E" d="M7.21788 0L8.55071 0C18.4662 10.0075 28.0847 20.9642 37.5446 31.4452L92.4774 92.8768C92.742 92.8517 93.0067 92.8266 93.2713 92.8014C118.431 67.6435 155.035 27.241 179.294 3.28195L179.703 4.21543C171.633 13.1783 162.863 21.5088 154.526 30.2375L94.8107 92.8442C85.1391 103 75.573 113.491 65.8057 123.599C59.3149 130.317 52.3152 139.009 45.3491 145.023C47.0652 150.852 62.8943 208.645 62.7309 209.76C60.0708 206.668 48.1978 154.464 44.3798 145.433C44.4776 143.362 39.7504 128.596 38.8209 125.353C30.7393 97.2847 22.2856 69.3249 13.4622 41.481C11.641 35.607 1.71709 7.04524 2.23504 2.53969C3.35692 3.79163 4.33228 10.3985 5.1306 12.9448L45.2508 144.268C47.5221 142.079 49.741 139.629 51.8509 137.28C65.0462 122.589 78.9644 108.558 92.2234 93.9351C85.2896 86.8384 79.2893 78.5314 72.5079 71.6449C50.1681 48.9586 29.8645 22.0757 7.21788 0Z"/><path fill="#3A3D51" d="M839.215 0L840.413 0L1024 0L1024 141.375L1024 158.154L1023.04 153.951L1022.89 147.686C1019.98 151.897 1010.73 164.902 1008.65 169.087L1007.71 168.785C1006.89 169.569 1004.92 172.43 1004.14 173.495C998.988 168.303 989.913 156.735 984.895 150.748C971.561 134.839 959.132 119.065 944.156 104.491C941.101 101.518 935.457 95.0092 932.119 93.1976C927.082 98.9579 913.176 112.413 909.752 117.283C903.231 117.65 880.562 121.989 877.442 121.149C881.121 120.189 884.764 120.056 888.544 119.441C895.366 118.332 902.066 117.036 908.941 116.296C916.51 108.773 924.036 100.561 931.375 92.7694C921.132 83.9598 912.32 73.1669 902.777 63.7179L859.423 20.2881C852.848 13.6633 845.458 6.77237 839.215 0Z"/><path fill="#81838D" d="M839.215 0L840.413 0L889.949 50.0495C899.757 59.7903 909.789 69.0641 918.996 79.4381C922.898 83.8349 927.653 87.8857 931.49 92.298C949.391 73.2013 967.017 53.8489 984.364 34.2468C989.007 29.0814 1009.19 6.17313 1013.5 3.41697L1013.72 3.80392C1012.11 6.2869 1007.36 10.3704 1005.1 12.7895C1001.28 16.8783 997.547 20.9307 993.8 25.0964L958.967 63.6605C950.27 73.3516 941.135 83.846 932.119 93.1976C927.082 98.9579 913.176 112.413 909.752 117.283C903.231 117.65 880.562 121.989 877.442 121.149C881.121 120.189 884.764 120.056 888.544 119.441C895.366 118.332 902.066 117.036 908.941 116.296C916.51 108.773 924.036 100.561 931.375 92.7694C921.132 83.9598 912.32 73.1669 902.777 63.7179L859.423 20.2881C852.848 13.6633 845.458 6.77237 839.215 0Z"/><defs><linearGradient id="gradient_0" gradientUnits="userSpaceOnUse" x1="1014.0161" y1="158.18925" x2="1015.1105" y2="158.89209"><stop offset="0" stop-color="#4D4D66"/><stop offset="1" stop-color="#767883"/></linearGradient></defs><path fill="url(#gradient_0)" d="M1007.71 168.785C1011.67 162.14 1019.79 151.857 1022.87 144.572C1023.03 144.188 1023.01 143.414 1023.79 141.792L1024 141.375L1024 158.154L1023.04 153.951L1022.89 147.686C1019.98 151.897 1010.73 164.902 1008.65 169.087L1007.71 168.785Z"/><path fill="#5D6071" d="M1020.6 10.3025C1021.07 12.5881 1019.38 16.1178 1018.62 18.5665L1010.75 44.4633C1000.69 77.569 990.551 109.728 981.615 143.272C981.493 143.033 981.342 142.807 981.249 142.556C980.286 139.976 1015.84 22.6737 1020.6 10.3025Z"/><path fill="#3A3D51" d="M108.65 915.163C114.539 913.283 120.357 911.753 126.39 910.433C158.739 903.353 191.274 897.281 223.88 891.521C234.993 889.558 247.226 887.815 258.095 885.22C258.643 890.849 261.657 906.326 262.812 912.389C264.185 919.59 267.568 940.784 269.766 946.91C252.937 963.449 233.123 979.782 215.951 996.132C212.877 999.059 198.903 1011.21 196.861 1014C195.763 1015.6 195.281 1016.21 193.979 1017.64C192.204 1019.33 188.958 1022.27 187.492 1024L185.428 1024L182.074 1024L180.594 1024C179.812 1022.3 178.253 1020.99 176.9 1019.65L177.867 1019.15C172.674 1013.43 166.753 1007.59 161.415 1001.88L122.509 960.147C115.516 952.743 100.929 938.068 95.2556 930.547C100.464 925.352 103.963 920.426 108.65 915.163Z"/><path fill="#999A9E" d="M185.428 1024C188.9 1021.8 193.05 1016.91 196.861 1014C195.763 1015.6 195.281 1016.21 193.979 1017.64C192.204 1019.33 188.958 1022.27 187.492 1024L185.428 1024Z"/><defs><linearGradient id="gradient_1" gradientUnits="userSpaceOnUse" x1="177.64073" y1="1018.9849" x2="177.86499" y2="1021.0684"><stop offset="0" stop-color="#93999A"/><stop offset="1" stop-color="#AFABB9"/></linearGradient></defs><path fill="url(#gradient_1)" d="M177.867 1019.15C179.199 1020.7 180.695 1022.53 182.074 1024L180.594 1024C179.812 1022.3 178.253 1020.99 176.9 1019.65L177.867 1019.15Z"/><path fill="#FFF667" d="M218.455 928.837C219.635 928.44 220.919 929.04 221.373 930.2C221.827 931.359 221.29 932.671 220.153 933.18C219.367 933.532 218.452 933.423 217.771 932.896C217.09 932.37 216.754 931.511 216.897 930.662C217.04 929.813 217.639 929.112 218.455 928.837Z"/><path fill="#3A3D51" d="M845.123 1019.14C872.101 989.56 902.191 960.945 929.22 931.225C950.773 953.23 971.612 976.049 992.177 998.976C999.65 1007.31 1008.27 1015.7 1015.52 1024L840.678 1024C841.921 1022.3 843.637 1020.66 845.123 1019.14Z"/><path fill="#3A3D51" d="M17.1846 1015.59C24.5409 1007.76 90.3126 933.941 94.615 931.735C111.206 949.979 128.757 967.922 145.512 986.119C155.803 997.296 166.317 1008.8 176.9 1019.65C178.253 1020.99 179.812 1022.3 180.594 1024L9.84489 1024C11.7994 1021.24 14.8668 1018.08 17.1846 1015.59Z"/><path fill="#81838D" d="M258.009 884.461L252.586 855.605C251.401 849.46 248.706 835.808 248.528 829.869C250.021 835.344 251.372 844.867 252.43 850.737C254.489 861.886 256.627 873.021 258.843 884.14C265.085 883.415 299.63 876.327 302.446 876.817L302.33 877.541C288.605 880.479 272.837 881.949 258.754 885.418C262.614 906.14 266.193 925.584 270.389 946.241L356.934 868.01C342.39 870.126 327.942 873.704 313.275 875.153C310.513 875.426 306.099 877.27 303.528 876.882L303.83 876.324C318.929 872.379 343.953 868.938 359.994 866.533C346.024 878.696 332.075 891.886 318.283 904.369L229.553 985.014C225.533 988.689 196.704 1016.28 193.979 1017.64C195.281 1016.21 195.763 1015.6 196.861 1014C198.903 1011.21 212.877 999.059 215.951 996.132C233.123 979.782 252.937 963.449 269.766 946.91C267.568 940.784 264.185 919.59 262.812 912.389C261.657 906.326 258.643 890.849 258.095 885.22C247.226 887.815 234.993 889.558 223.88 891.521C191.274 897.281 158.739 903.353 126.39 910.433C120.357 911.753 114.539 913.283 108.65 915.163C103.963 920.426 100.464 925.352 95.2556 930.547C100.929 938.068 115.516 952.743 122.509 960.147L161.415 1001.88C166.753 1007.59 172.674 1013.43 177.867 1019.15L176.9 1019.65C166.317 1008.8 155.803 997.296 145.512 986.119C128.757 967.922 111.206 949.979 94.615 931.735C90.3126 933.941 24.5409 1007.76 17.1846 1015.59L16.7992 1014.75C17.9208 1013.05 23.5745 1007.07 25.1388 1005.4L41.3456 988.058C59.1656 968.699 75.756 949.578 94.1251 930.311C97.9494 926.179 105.049 918.766 108.126 914.383C127.028 908.744 147.288 905.147 166.665 901.266C197.041 895.28 227.492 889.678 258.009 884.461Z"/><path fill="#70727E" d="M152.916 512.033C151.317 508.751 144.862 496.355 144.265 493.63L144.502 493.311C147.98 499.397 150.953 506.586 154.284 512.318C147.199 525.306 140.607 539.097 134.182 552.439C130.891 559.274 125.114 570.299 122.854 577.212L123.361 577.527C127.249 579.895 131.837 582.172 135.959 584.156C153.077 592.395 170.333 600.268 187.14 609.15C192.492 611.979 198.64 613.818 203.485 617.572C201.435 617.154 191.996 612.366 189.655 611.208L162.77 597.873C113.937 573.967 63.3708 552.158 17.475 522.562C14.3592 520.553 10.9109 518.901 8.098 516.491C10.3737 516.52 20.0451 523.107 22.6975 524.822C54.212 545.192 88.2966 560.133 121.431 577.326L142.759 533.031C145.564 527.297 149.708 518.316 152.798 513.014C138.086 513.119 6.52093 512.485 4.37358 513.566L3.34352 511.957L6.35959 511.92C54.7675 512.872 104.38 511.191 152.916 512.033Z"/><path fill="#5D6071" d="M870.739 512.523C871.973 513.478 871.58 512.836 872.098 513.996C881.072 534.082 893.41 555.149 901.582 575.554C912.417 571.246 923.418 565.06 933.858 559.788C949.472 551.904 965.131 543.977 980.826 536.229C994.53 529.465 1009.11 521.168 1023.19 515.453C1023.17 516.057 1023.22 517.347 1023.01 517.82C1022.76 517.609 1022.51 517.398 1022.25 517.187C1018.99 517.698 1005.27 525.01 1001.3 526.965C976.745 539.14 952.29 551.509 927.934 564.07C925.132 565.509 902.328 576.604 902.409 576.906C902.735 578.128 914.168 602.109 915.267 604.461L935.648 647.88C940.045 657.218 950.817 677.527 953.622 686.29C952.786 685.488 947.491 674.248 946.502 672.244C936.665 652.361 927.098 632.344 917.804 612.201C912.474 600.807 907.084 588.527 901.304 577.354C895.247 580.777 887.369 583.966 880.934 587.175C866.309 594.471 851.703 601.927 836.769 608.56C831.48 610.909 823.986 615.623 818.655 616.958C821.009 614.54 893.005 580.346 901.052 576.526C893.183 557.894 883.637 540.021 874.602 521.94C873.079 518.892 871.702 515.794 870.739 512.523Z"/><path fill="#70727E" d="M46.4452 880.029C53.2013 858.704 62.9843 825.066 75.9004 807.065C74.4191 811.094 66.4175 827.539 64.0445 831.075C65.8335 833.33 67.4416 831.801 68.3029 833.929C66.052 833.846 65.7177 833.017 63.426 833.74C60.7624 836.034 59.9925 842.014 58.6617 845.525C54.1887 857.326 50.8516 869.536 46.9042 881.512C49.5761 883.564 60.9626 895.084 63.2235 897.787C68.8922 904.565 91.7309 924.379 94.1251 930.311C89.4631 926.499 81.5912 917.843 77.1202 913.231L46.6975 882.303C36.0146 914.741 25.587 947.263 15.4157 979.866C14.0016 984.266 7.43606 1006.18 5.99042 1008.22C6.14319 1002.97 12.1972 987.542 14.0584 981.55L34.5789 917.07C38.321 905.449 41.9805 893.177 46.0226 881.69C45.6323 879.945 22.9128 859.674 19.3461 853.352C21.8076 855.261 24.2536 858.018 26.4291 860.328C32.8711 867.168 39.603 873.591 46.4452 880.029Z"/><path fill="#81838D" d="M908.729 910.314C905.581 909.726 890.793 906.91 889.721 905.232C889.608 905.245 905.978 908.962 906.525 909.207C914.865 912.946 923.182 923.6 929.57 930.471C933.571 933.405 947.288 948.639 951.353 952.877C965.613 967.744 979.474 983.524 993.302 998.813C1001.07 1007.4 1009.08 1015.27 1016.76 1024L1015.52 1024C1008.27 1015.7 999.65 1007.31 992.177 998.976C971.612 976.049 950.773 953.23 929.22 931.225C902.191 960.945 872.101 989.56 845.123 1019.14L844.054 1018.68C872.536 989.72 900.672 960.417 928.456 930.783C922.437 924.236 915.253 916.243 908.729 910.314Z"/><path fill="#70727E" d="M767.133 139.865C777.612 137.861 788.434 136.134 798.956 134.243C805.686 133.033 815.632 131.053 822.126 130.745C818.347 132.563 772.162 140.097 766.867 140.478C771.208 157.068 772.202 177.123 776.292 194.025C776.911 196.584 778.321 201.017 777.76 203.37C776.737 201.938 772.978 180.423 772.483 177.645C770.31 165.343 768.227 153.026 766.234 140.695C754.065 143.907 731.596 146.925 718.394 149.216C702.305 152.008 680.145 157.082 664.703 158.437L664.43 158.022L666.525 156.348L667.085 156.818C671.306 157.259 698.597 151.927 705.268 150.673C725.07 146.952 746.706 144.103 766.219 139.832C765.578 137.269 765.08 135.242 764.657 132.607L764.952 131.874L764.638 131.636L764.81 131.403C766.2 134.56 766.469 136.485 767.133 139.865Z"/><path fill="#81838D" d="M831.547 5.35411C831.911 5.16966 834.984 2.44161 836.126 1.63372C833.185 5.15973 825.992 11.2212 822.195 14.6724C815.365 20.9681 808.572 27.303 801.816 33.6768C775.108 58.6657 748.152 83.3894 720.954 107.844C706.974 120.313 692.919 132.506 679.655 145.761C676.246 149.168 670.908 153.584 667.085 156.818L666.525 156.348L779.552 53.0977C790.664 42.8935 801.674 32.5792 812.581 22.1563C817.172 17.8546 826.74 8.57668 831.547 5.35411Z"/><path fill="#70727E" d="M1018.66 506.423C1016.79 505.298 1009.79 502.308 1007 500.849L963.587 478.603C931.582 462.336 900.049 445.252 867.827 429.405C854.341 422.772 840.773 416.636 827.495 409.743C824.321 408.095 821.16 407.085 818.221 405.212L818.352 404.669C819.94 404.954 841.696 415.824 844.96 417.352C889.009 437.972 931.762 461.387 975.08 483.463C976.965 484.425 979.089 485.084 981.177 486.105C993.049 491.908 1006.85 501.411 1019.28 505.334L1019.96 505.541L1018.66 506.423Z"/><path fill="#5D6071" d="M1023.04 153.951L1024 158.154L1024 300.082C1021.56 296.497 1024.31 201.116 1022.47 198.022C1018.51 207.408 1013.62 214.772 1010.63 225.226L1009.92 225.302C1011.49 218.006 1015.48 210.499 1018.69 203.795C1019.23 202.677 1022.34 196.584 1022.43 195.805C1023.81 183.126 1022.14 167.15 1023 154.587L1023.04 153.951Z"/><path fill="#70727E" d="M1014.51 511.709C990.825 512.716 963.067 511.785 939.106 511.931C919.825 512.049 891.773 512.678 873.37 510.63C878.138 509.558 895.856 510.827 902.086 510.839L975.004 510.979C985.648 511.018 1003.75 511.631 1013.82 510.884L1014.48 510.83L1014.51 511.709Z"/><path fill="#70727E" d="M932.119 93.1976C935.457 95.0092 941.101 101.518 944.156 104.491C959.132 119.065 971.561 134.839 984.895 150.748C989.913 156.735 998.988 168.303 1004.14 173.495C1004.92 172.43 1006.89 169.569 1007.71 168.785L1008.65 169.087C1007.5 170.613 1005.3 173.307 1004.56 174.927C1001.29 178.355 992.537 193.675 991.187 197.969C993.18 187.364 999.563 182.917 1003.16 174.481C1000.54 170.709 995.919 165.423 992.881 161.75C989.012 157.072 984.249 150.652 980.138 146.444C975.75 142.151 969.186 133.077 964.777 128.151C956.207 118.576 948.322 109.557 938.739 100.855C936.947 99.2276 933.245 95.183 932.119 93.1976Z"/><path fill="#81838D" d="M663.508 866.087C665.2 866.326 668.616 866.526 669.709 867.544C668.909 867.913 668.274 868.066 667.409 868.221C667.687 869.199 747.045 941.19 755.176 947.621L757.549 949.893L756.903 950.321C754.855 949.315 740.045 935.708 737.182 933.115L685.024 885.797C677.833 879.22 670.47 872.914 663.508 866.087Z"/><path fill="#70727E" d="M1018.4 502.565C1014.15 498.511 1009.48 495.016 1005.23 490.749C989.166 474.601 973.564 458.07 956.998 442.41C953.223 438.842 949.041 434.78 945.731 430.828L945.716 429.975L945.392 430.356L945.099 429.724C949.579 431.338 980.642 465.006 986.809 470.454C992.375 475.371 1000.01 485.014 1006 490.351C1008.96 492.999 1016.9 499.283 1018.57 502.01L1018.4 502.565Z"/><defs><linearGradient id="gradient_2" gradientUnits="userSpaceOnUse" x1="999.09503" y1="568.30731" x2="1001.1324" y2="569.31183"><stop offset="0" stop-color="#505367"/><stop offset="1" stop-color="#82828D"/></linearGradient></defs><path fill="url(#gradient_2)" d="M1023.09 522.892L1024 522.309L1024 543.882L1023.28 543.488C1022.69 539.506 1022.96 531.168 1022.89 526.696C1010.75 546.813 1000.94 566.976 990.816 588.12C988.748 592.438 981.25 607.499 980.216 611.584L979.301 611.318C983.141 601.289 987.937 592.098 992.626 582.486C998.566 569.999 1004.67 557.593 1010.94 545.27C1013.64 540.002 1022.22 527.25 1023.09 522.892Z"/><path fill="#999A9E" d="M757.549 949.893C773.299 964.018 788.954 978.246 804.516 992.578C812.917 1000.19 830.963 1015.94 837.706 1024L835.847 1024C833.921 1019.23 766.054 959.1 756.903 950.321L757.549 949.893Z"/><path fill="#70727E" d="M41.272 418.557C40.5173 422.232 37.6739 428.202 36.0902 431.771C27.0277 452.192 17.9991 472.597 9.42317 493.232C7.29505 498.353 2.90622 505.281 1.59643 510.28L0.62412 510.448L0.316206 511.492L0 511.5L0 509.379C4.6197 503.266 15.4456 476.996 18.787 469.101C23.7716 457.365 28.9226 445.701 34.2382 434.112C36.1098 429.973 39.0374 421.984 41.272 418.557Z"/><defs><linearGradient id="gradient_3" gradientUnits="userSpaceOnUse" x1="11.769946" y1="158.53564" x2="9.0164022" y2="160.08453"><stop offset="0" stop-color="#656574"/><stop offset="1" stop-color="#7A808E"/></linearGradient></defs><path fill="url(#gradient_3)" d="M0 124.968C2.0855 128.196 1.17039 140.943 1.07553 145.616C4.23314 148.54 16.6947 167.517 19.7813 172.242L19.2329 172.772C13.5565 166.064 6.73786 153.849 0.992461 146.418L0.585571 170.398C0.519967 174.225 0.559732 181.482 0 185.057L0 124.968Z"/><path fill="#5D6071" d="M901.484 447.739L902.115 447.976C901.705 450.512 898.155 456.618 896.937 459.318C889.233 476.399 879.288 492.588 872.079 509.821C871.65 510.846 871.404 511.593 870.739 512.523L869.883 511.51C870.365 509.243 882.644 485.866 884.55 482.192C890.388 470.941 895.897 459.148 901.484 447.739Z"/><path fill="#999A9E" d="M929.57 930.471C933.041 925.589 971.653 884.975 975.793 882.262C973.654 885.929 931.278 929.6 929.57 930.471Z"/><path fill="#70727E" d="M44.3798 145.433C39.7403 154.024 25.369 166.724 20.2794 174.284C17.6992 177.227 5.55781 193.906 3.82166 194.651C3.39723 193.235 19.3051 175.465 19.2329 172.772L19.7813 172.242C22.7836 172.097 39.8469 148.873 44.3798 145.433Z"/><path fill="#5D6071" d="M964.261 207.886C964.536 202.234 977.776 151.545 980.138 146.444C980.263 150.948 971.16 181.992 969.553 187.881C967.977 193.654 966.321 200.944 965.036 207.481L964.261 207.886Z"/><path fill="#5D6071" d="M24.8387 180.138C27.0766 178.522 40.6462 167.96 41.7694 168.09L41.5649 167.844L42.2935 167.665L41.7284 168.263L41.8904 167.787C40.5043 170.009 28.3164 178.756 25.4528 180.881L27.1887 183.282C29.7177 187.882 31.6135 191.997 33.8462 196.693C35.064 199.254 36.1886 200.114 37.3932 203.25L37.1126 203.63C34.087 200.977 29.2396 187.688 26.0415 183.711C25.3271 182.823 20.5222 175.433 20.2794 174.284C22.236 175.497 23.5401 178.091 24.8387 180.138Z"/><defs><linearGradient id="gradient_4" gradientUnits="userSpaceOnUse" x1="1019.978" y1="878.56055" x2="1018.5081" y2="879.95264"><stop offset="0" stop-color="#4C4E68"/><stop offset="1" stop-color="#626679"/></linearGradient></defs><path fill="url(#gradient_4)" d="M1024 924.641C1022.93 918.286 1023.06 904.385 1023.19 897.462C1023.44 884.344 1020.98 886.996 1017.43 876.442L1017.73 875.949C1019.53 877.412 1019.96 881.547 1022.09 883.557C1022.27 881.351 1022.02 879.407 1024 878.29L1024 924.641Z"/><defs><linearGradient id="gradient_5" gradientUnits="userSpaceOnUse" x1="6.7242117" y1="870.2464" x2="8.1677933" y2="870.95514"><stop offset="0" stop-color="#57576D"/><stop offset="1" stop-color="#8A8A90"/></linearGradient></defs><path fill="url(#gradient_5)" d="M0 880.439L1.07061 880.898L1.40908 882.592C5.17042 878.309 8.55499 864.644 12.5094 859.834C13.3178 858.851 13.1546 858.85 13.4257 857.562L14.1385 857.23C11.7039 865.519 4.28461 876.994 1.51854 885.323C0.647494 887.946 0.728725 895.364 0 899.272L0 880.439Z"/><path fill="#70727E" d="M1023.41 507.916L1024 508.049L1024 522.309L1023.09 522.892C1022.6 520.514 1022.55 520.191 1023.01 517.82C1023.22 517.347 1023.17 516.057 1023.19 515.453C1023.14 514.044 1023.24 513.287 1022.53 512.069C1020.42 510.945 1017.15 511.56 1014.51 511.709L1014.48 510.83C1018.54 509.933 1021.93 512.33 1023.41 507.916Z"/><defs><linearGradient id="gradient_6" gradientUnits="userSpaceOnUse" x1="4.0166106" y1="805.55682" x2="3.4639723" y2="804.96118"><stop offset="0" stop-color="#767785"/><stop offset="1" stop-color="#9396A5"/></linearGradient></defs><path fill="url(#gradient_6)" d="M0 802.574C1.83942 803.439 1.35942 804.711 1.28117 806.644C3.8947 806.536 4.79167 802.695 7.15918 801.463C7.4872 804.47 1.6095 806.073 0.89168 811.653L0 812.726L0 802.574Z"/><path fill="#5D6071" d="M1004.56 174.927C1007.54 177.53 1014.27 185.891 1016.02 189.43L1015.31 189.565C1013.22 187.141 1005.65 177.505 1004.56 174.927Z"/><defs><linearGradient id="gradient_7" gradientUnits="userSpaceOnUse" x1="1019.705" y1="504.38062" x2="1020.3799" y2="503.5997"><stop offset="0" stop-color="#7F7C83"/><stop offset="1" stop-color="#A2A2A3"/></linearGradient></defs><path fill="url(#gradient_7)" d="M1022.98 505.998C1023.09 504.168 1023.19 502.337 1023.27 500.506L1024 500.027L1024 508.049L1023.41 507.916C1023.11 506.867 1023.33 507.408 1022.7 506.316C1020.79 506.754 1020.56 506.808 1018.66 506.423L1019.96 505.541L1020.63 505.303C1019.88 504.301 1019.21 503.515 1018.4 502.565L1018.57 502.01C1019.85 503.043 1021.7 504.84 1022.98 505.998Z"/><path fill="#70727E" d="M979.301 611.318L980.216 611.584C978.832 614.478 974.648 625.788 973.856 627.08L973.44 626.54C973.414 625.338 978.46 613.492 979.301 611.318Z"/><path fill="#FFF667" d="M1009.92 225.302L1010.63 225.226C1012.7 226.393 1012.33 225.772 1012.92 227.556L1012.37 228.596C1011.02 229.403 1009.45 230.251 1008.11 229.062C1008.75 227.827 1009.35 226.573 1009.92 225.302Z"/><path fill="#70727E" d="M4.61339 1011.49L5.46009 1010.97C4.19085 1015.3 2.96602 1019.65 1.78577 1024L0.678226 1024C1.96763 1019.99 3.29518 1015.52 4.57802 1011.42L4.61339 1011.49Z"/><defs><linearGradient id="gradient_8" gradientUnits="userSpaceOnUse" x1="11.808877" y1="1019.0729" x2="13.191123" y2="1019.9271"><stop offset="0" stop-color="#87899A"/><stop offset="1" stop-color="#ACB0B4"/></linearGradient></defs><path fill="url(#gradient_8)" d="M16.7992 1014.75L17.1846 1015.59C14.8668 1018.08 11.7994 1021.24 9.84489 1024L8.5025 1024C11.2377 1020.64 13.8365 1017.88 16.7992 1014.75Z"/><path fill="#81838D" d="M1.59643 510.28C3.09559 509.892 6.46519 508.285 8.02636 507.592L8.46829 508.079L3.2691 511.23C1.33053 512.047 2.2834 511.993 0.316206 511.492L0.62412 510.448L1.59643 510.28Z"/><path fill="#81838D" d="M755.176 947.621C754.723 944.084 755.901 938.848 756.616 935.272L757.221 935.092C756.995 937.503 756.216 945.816 755.176 947.621Z"/><defs><linearGradient id="gradient_9" gradientUnits="userSpaceOnUse" x1="2.7701268" y1="512.00439" x2="2.7458963" y2="513.50397"><stop offset="0" stop-color="#7D8087"/><stop offset="1" stop-color="#BCBFB9"/></linearGradient></defs><path fill="url(#gradient_9)" d="M3.2691 511.23L3.34352 511.957L4.37358 513.566L5.38711 514.92C2.59272 514.733 2.04672 512.551 0.805607 513.44L0.752262 514.271L0 514.423L0 511.5L0.316206 511.492C2.2834 511.993 1.33053 512.047 3.2691 511.23Z"/><path fill="#5D6071" d="M41.272 418.557C41.3829 416.007 43.1005 412.961 44.706 411.015C44.1446 413.017 42.9621 417.444 41.272 418.557Z"/><defs><linearGradient id="gradient_10" gradientUnits="userSpaceOnUse" x1="842.26013" y1="1019.9651" x2="842.94733" y2="1020.7812"><stop offset="0" stop-color="#777B8A"/><stop offset="1" stop-color="#A6A8AC"/></linearGradient></defs><path fill="url(#gradient_10)" d="M839.167 1024C840.771 1022.51 842.568 1020.36 844.054 1018.68L845.123 1019.14C843.637 1020.66 841.921 1022.3 840.678 1024L839.167 1024Z"/><path fill="#70727E" d="M836.353 0L837.28 0L836.126 1.63372C834.984 2.44161 831.911 5.16966 831.547 5.35411C831.924 4.26639 835.311 1.06893 836.353 0Z"/><path fill="#81838D" d="M182.232 0L183.158 0L179.703 4.21543L179.294 3.28195L182.232 0Z"/><path fill="#E8365A" d="M580.345 482.915L580.85 482.483C587.723 476.677 598.944 469.079 606.541 463.323L672.323 414.113L708.213 387.627C715.372 382.246 722.475 376.544 729.87 371.61C734.037 368.83 739.494 369.059 742.393 373.333C744.175 375.961 744.171 377.878 744.217 380.996C744.125 396.213 744.151 411.445 744.18 426.665L744.124 573.946L744.17 642.435C744.155 647.698 744.292 653.185 744.117 658.442C743.852 666.429 745.532 677.75 738.001 682.968C729.103 689.133 720.01 694.907 711.021 700.85L662.809 733.337L550.065 809.436C542.485 814.49 534.537 819.71 527.198 825.066C509.457 838.013 494.551 822.821 479.744 813.08C448.422 792.403 417.346 771.357 386.521 749.948C363.443 734.198 339.561 719.328 316.635 703.298C309.817 698.531 302.296 694.311 295.432 689.56C291.385 686.973 286.009 685.512 282.182 682.541C280.487 681.226 279.296 675.138 279.264 672.99C279.091 661.273 279.283 649.547 279.292 637.827L279.307 570.645L279.536 379.84C283.067 376.089 285.954 373.047 290.101 369.958L397.435 448.723L425.051 468.719C431.637 473.44 438.959 478.417 445.004 483.709C446.271 496.472 448.89 508.422 451.251 521.002L458.573 561.675C461.666 578.678 464.352 596.106 467.656 613.02C476.341 655.402 484.713 697.848 492.77 740.353C494.656 750.305 496.94 760.726 498.664 770.619C499.067 769.052 499.271 768.887 500.107 767.535C500.064 762.87 499.009 755.787 498.636 750.851L495.185 707.574L485.838 573.005C484.552 551.699 482.409 531.388 482.41 510.014C491.091 517.063 498.714 522.266 508.046 528.536C506.875 554.32 506.957 775.222 511.218 779.267C512.238 766.298 512.207 753.954 512.664 741.045L515.108 651.879L516.705 569.884C516.893 556.503 517.475 541.574 517.088 528.337C524.042 522.507 538.449 512.569 546.125 507.153C537.767 590.664 530.145 674.246 523.262 757.891C523.345 759.802 523.016 760.014 523.96 761.266L525.333 761.694L560.092 586.537C566.979 552.25 575.276 517.506 580.345 482.915Z"/><path fill="#24273F" d="M521.936 773.894C521.97 768.378 522.633 763.347 523.262 757.891C523.345 759.802 523.016 760.014 523.96 761.266L525.333 761.694C524.582 765.546 523.732 770.674 522.726 774.369L521.936 773.894Z"/><path fill="#561C2E" d="M498.927 772.471L500.531 772.921C500.623 776.071 501.125 779.873 501.28 783.274C500.209 780.341 499.514 775.686 498.927 772.471Z"/><path fill="#24273F" d="M500.107 767.535C500.269 769.27 500.494 771.201 500.531 772.921L498.927 772.471L498.664 770.619C499.067 769.052 499.271 768.887 500.107 767.535Z"/><path fill="#561C2E" d="M521.936 773.894L522.726 774.369C522.527 776.055 522.566 777.656 521.596 778.963C521.133 777.413 521.648 775.554 521.936 773.894Z"/><path fill="#3A3D51" d="M601.651 484.636C605.169 481.497 609.028 478.94 612.744 476.074C639.582 455.38 667.334 435.961 694.657 415.939C703.31 409.598 715.097 402.41 722.734 395.217C722.323 414.689 722.322 434.701 722.517 454.207C723.26 528.546 721.294 603.34 722.696 677.633C697.839 693.603 673.598 710.577 649.184 727.196C623.661 744.75 597.924 761.992 571.979 778.918L543.93 797.657C538.663 801.226 533.051 805.334 527.692 808.584C533.707 797.429 537.918 784.785 542.845 773.078C559.084 734.489 576.218 696.334 593.612 658.259C594.759 655.746 596.201 653.133 597.105 650.553L596.391 650.26L597.235 648.635L596.904 647.874C592.739 646.797 590.06 645.576 586.078 643.875C585.222 645.897 585.318 646.659 583.805 647.741L583.347 648.588C580.144 654.632 577.082 664.309 574.447 670.823C561.583 702.619 547.443 733.864 535.991 766.215C533.757 772.528 531.399 778.936 529.745 785.431C529.559 782.073 537.196 747.952 538.34 743.258C543.018 724.065 546.89 703.877 551.529 684.745L575.106 591.509C581.095 566.389 587.252 541.309 593.575 516.271C595.623 508.142 599.161 491.955 601.651 484.636Z"/><path fill="#E4B879" d="M639.865 500.088C642.029 498.264 644.222 496.613 646.543 494.992C663.654 483.036 680.429 470.104 698.118 459.046C687.753 474.466 674.236 499.103 665.508 515.2C649.361 544.609 633.953 574.418 619.298 604.598C614.471 614.216 609.755 623.891 605.151 633.618C603.104 637.958 599.349 646.668 597.105 650.553L596.391 650.26L597.235 648.635L596.904 647.874C592.739 646.797 590.06 645.576 586.078 643.875C585.222 645.897 585.318 646.659 583.805 647.741C590.348 628.558 600.273 605.087 607.732 585.913C618.772 557.429 629.484 528.819 639.865 500.088Z"/><path fill="#E4B879" d="M686.353 564.945C687.668 567.109 686.597 624.514 686.518 632.163C683.586 636.298 676.949 643.317 673.425 647.213C664.457 657.137 655.394 666.975 646.237 676.726L568.488 761.591L568.202 761.534C568.255 759.769 627.713 662.921 634.72 651.005L665.959 598.855C672.375 588.102 679.522 575.208 686.353 564.945Z"/><path fill="#3A3D51" d="M301.936 395.132C342.739 423.038 383.143 454.906 423.761 483.482C430.965 515.839 438.583 548.102 446.613 580.264C451.341 599.402 456.555 618.59 460.93 637.829L479.851 721.335C483.053 735.965 486.869 756.822 490.632 770.678L489.089 770.951C488.086 768.576 487.256 765.762 486.37 763.289C475.578 733.18 462.134 704.072 450.502 674.263C447.381 666.264 442.921 655.053 438.924 647.695L438.27 647.45C437.207 645.097 437.654 645.034 435.861 644.019C432.527 644.115 429.878 646.006 428.148 648.858C428.472 650.624 428.807 651.176 429.546 652.77L428.919 653.074C440.875 681.154 453.78 708.95 465.704 737.294L483.1 778.768C487.326 788.906 490.757 797.887 495.724 807.753C482.379 800.1 466.611 788.774 453.624 779.923L392.146 738.228C369.684 722.979 346.548 708.292 324.286 692.686C317.302 687.791 309.148 682.835 302.462 677.792L302.493 495.3L302.461 432.207C302.429 420.519 302.726 406.584 301.936 395.132Z"/><defs><linearGradient id="gradient_11" gradientUnits="userSpaceOnUse" x1="355.49579" y1="587.02374" x2="408.09842" y2="524.90759"><stop offset="0" stop-color="#ECAE72"/><stop offset="1" stop-color="#E1C283"/></linearGradient></defs><path fill="url(#gradient_11)" d="M328.526 464.539C334.309 467.294 347.01 476.711 352.332 480.577C363.648 488.901 375.062 497.093 386.571 505.15C393.519 525.066 401.022 544.659 408.511 564.358C412.891 575.879 416.772 587.749 421.123 599.353L432.763 630.567C434.615 635.573 437.485 642.717 438.924 647.695L438.27 647.45C437.207 645.097 437.654 645.034 435.861 644.019C432.527 644.115 429.878 646.006 428.148 648.858C428.472 650.624 428.807 651.176 429.546 652.77L428.919 653.074C425.774 647.414 421.687 638.012 418.756 631.943C412.371 618.829 405.905 605.754 399.36 592.719C382.596 559.606 364.455 527.433 346.417 495.011C340.7 484.735 334.679 474.557 328.526 464.539Z"/><path fill="#E4B879" d="M338.538 569.343C339.877 570.53 347.552 582.416 349.204 584.95C368.006 613.792 385.44 643.612 403.25 673.071L436.489 728.273C440.69 735.196 454.043 754.811 456.106 761.746C449.774 755.38 441.864 745.642 435.317 738.644L356.187 652.884C350.104 646.327 344.369 639.566 338.197 633.088C337.814 622.972 338.258 611.51 338.306 601.322C338.356 590.863 338.168 579.731 338.538 569.343Z"/><path fill="#561C2E" d="M490.632 770.678C491.979 776.239 493.112 781.481 494.335 787.062C492.33 782.518 490.713 775.895 489.089 770.951L490.632 770.678Z"/><path fill="#FEFEFE" d="M389.488 260.782L389.576 214.761C402.265 237.975 414.832 269.842 426.165 294.221L474.117 399.707C485.954 425.396 497.396 451.264 508.441 477.303C509.476 479.686 510.57 482.688 512.149 484.655L512.818 484.859L512.909 483.529C514.389 482.263 515.401 480.11 516.391 478.369L516.857 479.194C522.829 469.505 528.421 459.202 534.137 449.318C540.555 438.43 547.035 427.579 553.576 416.765C577.83 376.827 602.331 337.039 627.078 297.404C634.297 285.777 641.421 274.091 648.448 262.347C653.043 254.813 659.141 244.344 664.761 237.957C664.968 253.807 665.042 269.66 664.981 285.512C637.388 325.214 609.37 364.619 580.933 403.721C568.9 420.29 556.461 436.435 545.1 453.539C543.347 456.177 535.851 466.623 534.992 468.695C536.944 466.922 543.485 458.948 545.526 456.556C554.924 445.431 564.192 434.195 573.326 422.852L661.675 315.177C669.658 305.522 677.186 295.433 685.21 285.81C688.876 281.414 692.588 276.196 696.622 272.183C696.853 287.032 696.975 301.883 696.987 316.733C663.733 349.766 632.559 385.644 599.315 418.835C582.124 435.998 565.768 454.415 548.185 471.191L549.135 471.608C559.45 461.277 573.458 450.748 584.468 440.564C620.283 407.562 656.778 375.305 693.929 343.814C704.364 334.944 714.619 325.55 725.146 316.946C725.508 328.833 725.317 341.135 725.285 353.055C684.784 384.175 643.992 414.917 602.916 445.274L558.372 477.87C548.767 484.79 538.953 491.37 529.354 498.276C523.858 502.23 518.51 506.811 513.139 510.98C501.798 502.42 490.173 494.95 478.748 486.66L384.429 417.76L327.494 375.444C319.626 369.578 307.067 359.651 299.372 354.63L299.436 317.719C327.463 341.678 355.26 365.906 382.823 390.398C397.227 403.365 411.347 416.856 425.759 429.735C437.725 440.544 449.792 451.241 461.959 461.824C467.794 466.847 480.762 477.423 485.887 482.661L486.949 482.243C477.673 473.359 468.491 463.478 459.428 454.328C439.703 434.65 420.153 414.798 400.779 394.775C385.33 378.863 370.061 362.778 354.974 346.522C346.046 337.081 335.651 326.751 327.29 316.986C326.904 302.278 327.271 287.308 327.472 272.57C360.671 310.33 391.94 350.932 423.708 390.01L469.673 445.72C476.877 454.336 484.451 462.753 491.449 471.513L492.238 471.195C467.041 436.907 442.866 402.13 417.93 367.728L383.866 320.595C375.808 309.52 366.504 297.219 358.998 285.875C359.027 269.332 359.329 252.923 359.233 236.369C377.79 263.824 393.172 290.752 410.186 319.058L475.393 425.734C481.862 436.177 488.153 446.765 494.489 457.29C497.898 462.953 501.329 470.292 505.102 475.541L505.329 475.376C502.664 468.745 496.992 458.301 493.623 451.658C486.264 437.009 478.746 422.441 471.071 407.955C444.554 358.04 417.228 309.948 389.488 260.782Z"/><path fill="#C3C3C6" d="M549.135 471.608C546.509 474.562 539.765 480.803 536.701 483.104L536.968 482.758L536.92 482.428C540.34 478.644 544.278 474.476 548.185 471.191L549.135 471.608Z"/><path fill="#999A9E" d="M516.391 478.369L516.857 479.194C515.828 481.214 514.489 483.317 512.818 484.859L512.909 483.529C514.389 482.263 515.401 480.11 516.391 478.369Z"/><path fill="#70727E" d="M492.238 471.195C493.29 472.546 495.043 474.45 495.377 476.022C493.631 474.858 492.697 473.239 491.449 471.513L492.238 471.195Z"/><path fill="#C3C3C6" d="M486.949 482.243C488.289 483.508 489.117 483.847 489.567 485.353C488.021 485.048 487.08 483.811 485.887 482.661L486.949 482.243Z"/><path fill="#E5E4E6" d="M529.591 475.897L529.792 476.838C528.926 478.553 526.77 481.064 525.504 482.655L525.274 481.821C525.874 479.932 528.206 477.323 529.591 475.897Z"/><path fill="#C3C3C6" d="M532.636 471.377C533.081 472.964 531.92 473.815 530.995 475.055C530.51 473.682 531.853 472.477 532.636 471.377Z"/><path fill="#FEFEFE" d="M634.101 214.611C634.089 227.984 634.204 243.746 633.985 256.859C633.895 262.217 620.383 283.848 616.841 290.332L556.841 399.012C547.359 416.621 538.116 434.359 529.115 452.219C525.418 459.633 520.323 471.886 516.391 478.369C515.401 480.11 514.389 482.263 512.909 483.529C513.539 480.018 514.206 478.39 515.456 475.056C520.734 461.33 526.829 448.433 532.912 435.053L552.278 392.481L602.948 282.404C612.889 260.88 625.141 236.081 634.101 214.611Z"/><path fill="#81838D" d="M258.23 66.9651C259.889 68.2995 284.611 90.5995 284.885 90.8732C293.073 99.0296 350.998 147.46 353.79 152.716C346.665 146.936 339.114 140.098 332.296 133.879C311.837 115.222 289.255 97.4626 269.515 78.1648C268.499 94.8067 262.5 114.219 260.697 131.028C260.179 135.855 258.23 138.046 261.52 140.023C264.192 141.628 278.991 142.658 280.234 143.822L279.989 144.212C275.592 143.696 261.794 140.484 259.042 141.53C258.318 145.201 251.94 180.532 251.292 181.028C250.975 179.746 257.542 144.54 258.356 140.907C252.088 139.583 244.34 137.782 238.1 136.829C243.713 136.664 252.635 138.647 258.248 140.057C259.757 131.916 269.621 80.1803 267.694 77.2424C266.112 74.8301 262.594 71.9738 260.338 70.1496L258.23 66.9651Z"/><path fill="#3A3D51" d="M992.026 771.579L992.082 770.686C997.806 771.703 1007.82 788.821 1012.97 790.118L1013.11 790.899L1011.57 791.129C1011.5 793.216 1017.89 802.471 1019.58 804.262C1017.9 803.655 1013.91 799.395 1011.93 797.764L1014.04 798.457C1014.17 797.389 1013.24 796.612 1012.41 795.434L1010.5 796.165C1009.9 794.604 1010.25 795.325 1008.75 794.088L1007.88 793.852C1003.47 793.245 994.737 781.647 993.213 777.288L993.77 776.356C993.115 774.389 992.419 773.786 992.026 771.579Z"/><path fill="#5D6071" d="M992.026 771.579L992.082 770.686C997.806 771.703 1007.82 788.821 1012.97 790.118L1013.11 790.899L1011.57 791.129C1011.5 793.216 1017.89 802.471 1019.58 804.262C1017.9 803.655 1013.91 799.395 1011.93 797.764L1014.04 798.457C1014.17 797.389 1013.24 796.612 1012.41 795.434L1010.5 796.165C1009.9 794.604 1010.25 795.325 1008.75 794.088L1010.32 791.161C1006.92 786.15 997.151 774.354 992.026 771.579Z"/><path fill="#313644" d="M1010.32 791.161C1011.02 793.337 1011.59 793.632 1012.41 795.434L1010.5 796.165C1009.9 794.604 1010.25 795.325 1008.75 794.088L1010.32 791.161Z"/><path fill="#4B4E66" d="M1007.88 793.852C1003.47 793.245 994.737 781.647 993.213 777.288L993.77 776.356C996.652 782.451 998.847 784.671 1003.68 789.581C1004.76 790.681 1007.04 792.694 1007.88 793.852Z"/><path fill="#5D6071" d="M121.398 447.209C115.604 438.711 111.587 426.463 106.488 417.366C105.35 415.336 103.985 412.755 103.131 410.602C107.41 415.15 117.829 439.561 122.255 447.213C123.22 449.143 123.956 450.189 124.133 452.285C123.031 451.778 122.143 449.76 121.388 448.495C110.526 453.444 100.123 459.115 89.5146 464.547C72.897 472.911 56.3107 481.095 40.2038 490.414C32.1886 495.051 23.8808 499.532 15.8637 504.208C15.1103 504.647 13.444 504.772 12.5707 504.789C12.5413 504.832 40.2484 489.114 42.2558 488.017C55.8583 480.465 69.6385 473.543 83.4965 466.495C96.1202 460.075 108.616 453.306 121.398 447.209Z"/><path fill="#5D6071" d="M958.705 834.288C962.972 837.098 992.797 925.128 996.6 937.651C999.999 948.845 1021.42 1007.11 1020.88 1013.8C1019.24 1011.9 1015.79 996.899 1014.59 993.24C1001.87 954.506 988.23 915.978 975.334 877.301C970.806 863.72 962.141 847.586 958.705 834.288Z"/><path fill="#5D6071" d="M1.79587 516.596C6.26849 519.171 46.4582 614.011 50.5576 625.77L50.201 625.872C49.0636 625.173 46.9945 619.028 46.4398 617.42C41.6734 603.607 35.3311 590.639 29.3816 577.313L7.77408 528.851C5.86331 524.615 3.52144 520.581 1.79587 516.596Z"/><path fill="#5D6071" d="M82.6122 659.085C80.3465 664.415 77.6308 669.404 75.2334 675.05L74.8417 675.113L74.8186 675.086C75.5381 669.148 79.6553 664.936 81.347 658.995C79.4857 658.112 79.0142 658.019 77.6378 656.568L77.8743 656.078C78.9866 656.542 80.0897 657.027 81.1829 657.534C84.9547 654.953 104.817 609.337 109.604 601.609C112.604 596.765 116.468 585.145 120.348 579.751C118.475 587.103 114.39 593.375 111.261 600.033C102.377 618.935 92.1693 638.108 83.5708 657.094L82.6122 659.085Z"/><path fill="#81838D" d="M976.741 739.93C977.08 741.623 976.68 741.147 977.612 742.238C977.97 740.586 978.979 725.956 979.349 722.752C980.832 710.348 982.768 698.003 985.154 685.741C985.52 683.756 986.815 675.576 987.505 674.183L987.977 673.968C988.277 676.671 985.332 688.248 984.668 692.061C982.62 703.834 976.358 743.319 979.812 753.642L979.461 754.634C978.439 762.796 983.102 763.204 981.718 772.893L980.979 773.48L981.684 773.423L981.551 774.114C979.712 771.58 977.472 745.537 975.938 739.834L976.741 739.93Z"/><path fill="#5D6071" d="M998.879 253L999.169 253.668C995.634 259.996 993.315 266.943 990.282 273.544C981.946 291.689 973.207 308.837 963.521 326.265C958.965 334.499 954.601 342.837 950.431 351.273C949.843 350.101 949.948 350.146 949.639 348.829C952.523 346.264 956.832 336.377 959.146 332.366C971.596 310.785 982.441 288.327 992.719 265.646C994.753 261.157 996.123 257.18 998.879 253Z"/><path fill="#81838D" d="M765.388 883.065C767.415 871.602 769.562 860.16 771.829 848.741C773.156 841.865 774.636 835.035 775.484 828.089L776.106 828.084C776.749 829.243 773.142 847.029 772.612 849.763C768.974 868.574 765.568 887.429 762.397 906.324C761.843 909.539 758.521 931.168 757.474 932.49C757.649 927.586 759.258 919.497 760.131 914.4L765.401 884.222L765.388 883.065Z"/><path fill="#5D6071" d="M954.521 688.054C956.33 681.784 967.957 640.523 970.587 637.058C970.051 640.612 968.888 643.538 967.876 646.955C963.895 660.397 959.05 673.907 955.764 687.541C958.216 694.478 961.252 699.575 963.897 705.997C968.036 716.051 973.661 729.692 976.741 739.93L975.938 739.834C968.772 719.14 963.373 707.392 954.521 688.054Z"/><path fill="#999A9E" d="M6.9449 519.577L7.28593 519.516C12.8256 522.878 69.9228 584.676 74.8329 591.695C73.8686 591.391 73.3234 591.2 72.6003 590.404C62.1643 578.924 51.7178 567.404 41.2783 555.931C30.0737 543.589 18.6271 531.468 6.9449 519.577Z"/><path fill="#81838D" d="M1006.33 534.006C1006.29 534.38 1006.25 534.754 1006.21 535.128C990.051 551.139 963.814 578.437 948.347 593.372L948.174 592.448C949.308 590.508 965.089 575.082 967.871 572.287L991.81 548.224C996.175 543.84 1001.73 537.945 1006.33 534.006Z"/><path fill="#70727E" d="M949.259 351.518C949.164 353.191 906.195 442.214 903.327 445.57C903.265 443.982 910.891 429.519 912.069 427.073L936.122 377.723C939.019 371.773 946.017 356.481 949.259 351.518Z"/><path fill="#999A9E" d="M74.2802 435.317L74.8608 435.917C73.62 439.45 19.234 493.732 12.6537 500.024L12.3223 499.753C13.7363 497.657 16.0944 495.689 17.8912 493.858C36.8051 474.59 56.306 455.454 74.2802 435.317Z"/><path fill="#70727E" d="M122.255 447.213C122.89 446.573 201.464 407.17 203.015 406.861L203.385 407.23C198.505 410.692 124.828 447.001 122.255 447.213Z"/><path fill="#999A9E" d="M196.772 10.342C209.15 22.1736 221.68 33.8451 234.359 45.3537C238.781 49.31 255.085 63.1985 258.23 66.9651L260.338 70.1496C244.868 55.1199 227.262 40.9883 211.745 25.8269C206.687 20.8842 200.585 15.8596 195.837 10.7066L196.772 10.342Z"/><path fill="#5D6071" d="M42.9644 292.721L43.7887 292.761C45.2043 294.927 50.0694 305.208 51.5007 308.139C54.5058 314.294 59.2613 322.129 61.7906 328.074C59.6126 327.015 51.6599 310.407 50.1027 307.185C48.795 312.941 47.3755 318.671 45.8451 324.372C44.8975 327.625 38.8542 346.657 37.3582 348.129C37.0817 347.21 42.611 331.332 43.3903 328.998C45.9487 321.333 47.7213 314.048 49.4408 306.16C47.4028 301.525 44.9275 297.537 42.9644 292.721Z"/><path fill="#70727E" d="M990.428 820.566C988.054 821.44 987.751 821.673 985.298 821.614C988.737 820.6 989.096 820.217 990.754 817.046L991.568 817.195L991.663 818.655C993.831 819.413 994.402 817.39 996.981 818.017L997.108 818.73L995.997 819.424L999.616 820.868C997.7 821.959 998.459 821.239 997.284 823.145C997.354 824.307 997.385 825.395 996.762 826.38C994.075 830.631 997.169 831.357 996.622 834.15C995.263 831.93 991.771 823.519 990.428 820.566Z"/><path fill="#24273F" d="M995.997 819.424L999.616 820.868C997.7 821.959 998.459 821.239 997.284 823.145L995.017 824.78C993.163 824.709 994.093 824.915 992.275 823.551C991.713 821.696 991.787 822.641 992.251 820.604C993.733 819.253 993.51 819.687 995.997 819.424Z"/><path fill="#5D6071" d="M67.7336 689.358C69.2805 690.883 73.0414 707.453 72.7914 709.639C69.8489 707.117 70.6205 694.038 67.7684 691.395C66.0278 693.446 55.0845 719.687 53.4692 723.503C51.5476 728.285 49.4558 736.117 47.6403 739.996C47.8735 732.926 63.9156 695.434 67.7336 689.358Z"/><path fill="#81838D" d="M289.506 145.414C292.439 144.784 349.047 156.086 357.205 157.208L356.953 157.384L357.457 157.67C355.904 158.263 291.031 146.642 289.506 145.414Z"/><path fill="#5D6071" d="M999.988 392.272L1000.78 392.371C1007.84 410.325 1011.46 429.377 1017.53 447.661C1018.36 450.161 1020.3 454.862 1020.35 457.311C1018.11 456.035 1003.26 400.061 999.988 392.272Z"/><path fill="#5D6071" d="M52.9535 637.27L53.9139 637.471C58.3339 650.458 61.724 663.566 65.4866 676.741C66.4087 679.97 67.2984 682.993 68.6026 686.092C69.6721 684.148 72.4661 677.878 73.8386 676.827L73.797 677.633C72.5817 680.149 69.7192 686.932 68.1505 688.505C67.0471 687.022 66.4975 683.58 65.9338 681.708C62.2874 669.595 59.8461 657.166 55.4773 645.271C54.5552 642.761 53.4882 639.872 52.9535 637.27Z"/><path fill="#4B4E66" d="M5.66422 549.625L7.09372 550.337C8.66358 553.107 9.04013 555.309 9.89204 558.288C15.0378 576.284 17.9412 596.557 23.1865 614.301C22.9472 614.153 21.9956 613.384 21.954 613.201C18.2625 596.884 14.3169 580.602 10.4194 564.336C9.30907 559.703 8.25121 553.491 5.66422 549.625Z"/><path fill="#FFF667" d="M81.8571 341.827C83.398 341.629 84.9256 342.281 85.8476 343.531C86.7695 344.782 86.9409 346.434 86.2952 347.847C85.6495 349.26 84.2883 350.212 82.7394 350.334C80.4258 350.516 78.3894 348.819 78.15 346.511C77.9106 344.203 79.5555 342.124 81.8571 341.827Z"/><path fill="#5D6071" d="M36.4038 674.823L37.2167 675.174C38.8758 682.175 45.9746 728.871 44.7227 733.484C43.5833 732.781 43.6195 727.129 43.3873 725.426C41.2346 709.634 40.2164 690.159 36.4038 674.823Z"/><path fill="#FFF667" d="M916.579 742.787C918.76 742.077 921.103 743.27 921.811 745.452C922.518 747.633 921.322 749.975 919.14 750.68C916.961 751.385 914.624 750.191 913.917 748.013C913.21 745.834 914.402 743.496 916.579 742.787Z"/><path fill="#5D6071" d="M36.6861 762.956L36.7639 763.347C36.0696 766.57 20.6491 782.534 17.8011 786.677C16.5178 788.544 11.517 795.506 10.1986 797.091C10.4904 795.313 11.1812 794.519 12.099 792.88L11.0561 792.065C10.9472 790.867 10.6518 787.757 10.9583 786.85C11.9269 788.5 11.8921 788.978 13.3882 789.848C15.4935 789.18 32.7075 766.237 36.6861 762.956Z"/><path fill="#FFF667" d="M978.203 232.807C984.601 232.409 986.085 236.257 982.947 241.358C977.095 241.114 975.589 237.674 978.203 232.807Z"/><path fill="#FFF667" d="M42.4186 231.9C47.8432 233.624 47.5823 237.591 44.1993 241.277C37.7802 240.581 37.8438 235.156 42.4186 231.9Z"/><path fill="#4B4E66" d="M19.5717 242.234C20.0299 242.101 19.7238 242.157 20.5047 242.256C27.3505 258.185 35.1618 274.403 42.4031 290.25C42.2732 290.19 42.136 290.144 42.0134 290.07C40.1282 288.934 20.8936 246.816 19.5717 242.234Z"/><path fill="#5D6071" d="M24.1147 390.691C24.8885 391.321 24.611 390.921 24.9211 391.908C21.3284 399.728 10.2327 438.845 9.69448 447.561L9.19065 446.555C10.0306 435.704 20.1148 401.818 24.1147 390.691Z"/><path fill="#FFF667" d="M980.196 781.24C985.08 784.155 985.63 787.451 980.122 790.444C973.84 787.814 975.695 784.354 980.196 781.24Z"/><path fill="#5D6071" d="M973.101 397.837C973.591 397.666 973.291 397.719 974.016 397.835C980.388 414.932 988.216 428.582 994.845 444.783C991.911 442.966 974.604 402.813 973.101 397.837Z"/><path fill="#FFF667" d="M40.4426 782.374C41.7483 781.72 43.3072 781.834 44.5038 782.671C45.7004 783.508 46.3424 784.933 46.1764 786.384C46.0104 787.835 45.063 789.078 43.7082 789.623C41.7283 790.419 39.4729 789.511 38.5963 787.566C37.7198 785.62 38.5344 783.329 40.4426 782.374Z"/><path fill="#FFF667" d="M946.544 348.652C940.312 353.59 936.243 343.493 942.425 341.705C944.471 342 944.716 342.385 946.428 343.708C946.359 345.66 946.396 346.7 946.544 348.652Z"/><path fill="#FFF667" d="M82.9835 793.392C84.2635 792.742 85.7973 792.844 86.9789 793.66C88.1605 794.476 88.8001 795.874 88.6449 797.302C88.4898 798.729 87.5649 799.957 86.2355 800.5C84.2938 801.293 82.0721 800.414 81.1994 798.507C80.3267 796.599 81.1138 794.343 82.9835 793.392Z"/><path fill="#70727E" d="M754.861 77.2048L755.744 77.7854C758.201 82.5195 763.545 121.589 764.876 129.329C762.897 127.117 760.863 110.341 760.228 106.355C758.649 96.6007 756.86 86.8818 754.861 77.2048Z"/><path fill="#FFF667" d="M105.429 742.878C105.612 743.065 106.195 744.049 106.359 744.312L107.756 744.463L106.85 743.746L109.456 744.227L110.2 745.326C110.426 747.371 110.393 747.273 109.752 749.259C107.197 751.299 106.003 751.711 103.284 749.659C101.617 746.304 102.852 744.879 105.429 742.878Z"/><path fill="#FFF667" d="M934.83 221.26C936.186 220.861 937.651 221.237 938.647 222.239C939.644 223.241 940.011 224.708 939.605 226.062C939.199 227.415 938.084 228.437 936.7 228.725C934.677 229.146 932.683 227.895 932.181 225.89C931.679 223.886 932.848 221.843 934.83 221.26Z"/><path fill="#FFF667" d="M934.661 794.252C936.523 793.315 938.792 794.042 939.765 795.886C940.737 797.729 940.055 800.012 938.23 801.02C937.018 801.69 935.539 801.653 934.362 800.922C933.185 800.192 932.495 798.883 932.557 797.5C932.619 796.116 933.423 794.874 934.661 794.252Z"/><path fill="#70727E" d="M135.086 116.908C136.214 116.372 181.725 125.51 183.014 126.598C180.477 127.071 135.788 117.564 135.086 116.908Z"/><path fill="#FFF667" d="M81.3598 673.667C83.3768 673.211 85.3904 674.442 85.903 676.446C86.4156 678.449 85.2411 680.497 83.253 681.065C81.9162 681.448 80.4772 681.074 79.4959 680.089C78.5147 679.104 78.1461 677.663 78.5336 676.328C78.9212 674.993 80.0037 673.973 81.3598 673.667Z"/><path fill="#FFF667" d="M918.602 274.257C919.942 273.921 921.358 274.339 922.301 275.348C923.244 276.357 923.564 277.799 923.138 279.113C922.712 280.426 921.606 281.405 920.25 281.669C918.231 282.061 916.265 280.774 915.819 278.765C915.372 276.757 916.606 274.758 918.602 274.257Z"/><path fill="#FFF667" d="M85.0782 221.346C86.4822 222.047 87.5587 222.584 88.9106 223.415C90.1112 235.388 75.4651 226.877 85.0782 221.346Z"/><path fill="#FFF667" d="M940.399 674.667C941.664 674.057 943.164 674.197 944.294 675.031C945.425 675.865 946.001 677.256 945.792 678.645C945.583 680.035 944.622 681.194 943.295 681.658C941.398 682.321 939.313 681.388 938.544 679.531C937.774 677.674 938.588 675.54 940.399 674.667Z"/><path fill="#FFF667" d="M59.7035 731.302C61.7109 730.952 63.6336 732.259 64.0459 734.255C64.4582 736.251 63.2111 738.213 61.2292 738.687C59.8914 739.007 58.4854 738.573 57.5602 737.555C56.635 736.537 56.3373 735.097 56.7833 733.795C57.2293 732.494 58.3483 731.539 59.7035 731.302Z"/><path fill="#FFF667" d="M961.922 730.86C963.224 730.358 964.697 730.616 965.749 731.531C966.802 732.447 967.263 733.869 966.946 735.228C966.63 736.587 965.588 737.659 964.239 738.015C962.306 738.525 960.311 737.436 959.695 735.534C959.079 733.632 960.057 731.58 961.922 730.86Z"/><path fill="#FFF667" d="M106.064 274.85C108.043 274.603 109.862 275.967 110.179 277.937C110.496 279.906 109.196 281.772 107.239 282.158C105.911 282.42 104.545 281.936 103.678 280.896C102.81 279.855 102.58 278.425 103.078 277.165C103.575 275.905 104.72 275.017 106.064 274.85Z"/><path fill="#FFF667" d="M57.7225 805.804C61.7321 808.808 63.2595 811.602 58.4938 814.819C52.3784 812.874 54.3605 809.163 57.7225 805.804Z"/><path fill="#5D6071" d="M22.5329 615.75L23.3646 615.84C25.3238 625.603 28.0482 635.446 29.8519 645.305C30.9672 651.4 32.8962 657.029 33.8228 663.27C33.1559 662.637 32.6417 661.961 32.4576 661.009C29.5361 645.903 25.4534 630.85 22.5329 615.75Z"/><path fill="#5D6071" d="M55.3844 387.357C54.8434 383.895 70.4672 352.902 71.9922 347.869C72.2486 347.749 72.505 347.629 72.7613 347.509L73.041 348.214C72.2038 350.532 71.139 352.78 70.0718 354.994C65.0136 365.49 60.1428 376.085 56.0515 387.001C55.8291 387.119 55.6068 387.238 55.3844 387.357Z"/><path fill="#5D6071" d="M109.246 758.12L109.678 758.351C109.548 759.34 90.5501 791.351 89.0124 793.613L88.3615 793.06C91.3244 787.896 106.787 760.532 109.246 758.12Z"/><path fill="#FFF667" d="M51.5583 388.28C53.3933 388.498 53.4065 388.39 54.9109 389.588C56.5189 392.823 55.2032 394.312 52.9001 396.569C47.5902 395.187 48.511 391.467 51.5583 388.28Z"/><path fill="#FFF667" d="M972.366 627.793C974.148 627.853 974.217 628.172 975.231 629.153C976.423 632.322 974.362 634.495 971.897 636.085C969.787 634.631 968.818 634.257 968.813 631.596C969.652 629.589 970.561 629.181 972.366 627.793Z"/><path fill="#FFF667" d="M58.1314 283.124C59.9356 282.829 61.6619 283.976 62.0876 285.754C62.5133 287.532 61.4939 289.337 59.7515 289.891C58.5061 290.286 57.1441 289.953 56.2226 289.026C55.301 288.1 54.9745 286.736 55.3766 285.493C55.7787 284.25 56.842 283.335 58.1314 283.124Z"/><path fill="#FFF667" d="M49.9998 627.74C54.6641 628.099 57.0574 630.804 53.7392 635.024C48.3234 635.465 47.6061 631.753 49.9998 627.74Z"/><path fill="#FFF667" d="M965.209 807.071C967.014 806.787 968.729 807.955 969.125 809.738C969.522 811.522 968.464 813.307 966.708 813.814C965.471 814.172 964.137 813.813 963.246 812.882C962.356 811.951 962.056 810.603 962.468 809.382C962.88 808.162 963.936 807.271 965.209 807.071Z"/><path fill="#5D6071" d="M39.3389 764.295L39.894 764.918C37.281 771.836 21.4676 793.058 14.6512 796.979L14.3749 796.451C27.5496 784.994 29.9249 779.049 39.3389 764.295Z"/><path fill="#FFF667" d="M963.686 283.653C965.356 283.03 967.224 283.801 967.969 285.42C968.714 287.039 968.084 288.958 966.525 289.822C965.408 290.44 964.039 290.382 962.978 289.67C961.918 288.959 961.345 287.714 961.494 286.445C961.643 285.177 962.49 284.099 963.686 283.653Z"/><path fill="#5D6071" d="M972.636 313.837L973.48 313.609C976.212 317.542 984.794 344.292 987.288 350.729C984.978 349.328 975.169 319.531 972.636 313.837Z"/><path fill="#70727E" d="M185.191 126.19C190.823 127.249 222.854 132.472 225.843 134.124L225.828 135.19C221.58 133.069 194.343 128.982 187.909 127.595C185.886 127.159 186.039 127.466 185.191 126.19Z"/><path fill="#5D6071" d="M80.5825 364.226L81.353 364.096C85.8216 373.346 93.9277 388.399 97.3857 397.295C94.645 395.719 85.9247 374.577 83.3438 370.336C82.7725 369.397 80.8659 365.214 80.5825 364.226Z"/><path fill="#FFF667" d="M106.028 822.233C107.114 821.742 108.38 821.872 109.343 822.574C110.306 823.275 110.819 824.44 110.685 825.624C110.551 826.808 109.791 827.829 108.695 828.298C107.025 829.012 105.091 828.249 104.36 826.586C103.629 824.923 104.373 822.981 106.028 822.233Z"/><path fill="#FFF667" d="M988.721 666.028C990.544 665.896 992.131 667.263 992.27 669.085C992.41 670.908 991.049 672.5 989.227 672.646C987.395 672.793 985.793 671.423 985.653 669.591C985.513 667.759 986.888 666.162 988.721 666.028Z"/><path fill="#FFF667" d="M914.751 196.926C916.524 196.867 918.027 198.219 918.157 199.988C918.288 201.757 916.999 203.314 915.236 203.516C914.031 203.655 912.846 203.122 912.15 202.127C911.454 201.133 911.359 199.838 911.901 198.752C912.444 197.667 913.538 196.965 914.751 196.926Z"/><path fill="#81838D" d="M41.5444 757.398C40.7523 758.544 40.6786 758.875 39.5454 759.631C39.6719 758.514 43.5053 752.469 44.2629 749.077C45.3415 744.248 43.5875 739.34 44.1212 736.719C44.9539 738.135 45.5422 741.654 46.3644 743.88L46.5517 744.377L46.7118 744.304C45.4432 747.64 44.5935 751.12 44.1821 754.665C43.6509 756.819 44.0871 756.462 42.6951 757.642L41.5444 757.398Z"/><path fill="#24273F" d="M41.5444 757.398C42.3339 755.78 42.4709 755.014 44.1821 754.665C43.6509 756.819 44.0871 756.462 42.6951 757.642L41.5444 757.398Z"/><path fill="#FFF667" d="M57.736 209.283C59.3513 208.677 61.1603 209.426 61.8746 210.996C62.589 212.567 61.9646 214.422 60.446 215.241C59.3679 215.823 58.0555 215.755 57.043 215.066C56.0304 214.376 55.4863 213.18 55.6321 211.964C55.7779 210.748 56.5892 209.714 57.736 209.283Z"/><path fill="#5D6071" d="M124.073 453.238C126.545 454.834 138.925 480.857 140.434 484.757C137.956 483.436 125.799 457.318 124.073 453.238Z"/><path fill="#5D6071" d="M79.2373 691.691C79.5164 691.813 79.8072 691.912 80.0747 692.059C81.1508 692.647 92.4424 724.639 93.7636 728.208C91.3852 726.525 81.3595 696.743 79.2373 691.691Z"/><path fill="#FFE54B" d="M95.4855 905.397C94.2642 905.259 93.3397 904.229 93.3356 903C93.3315 901.771 94.2492 900.734 95.4696 900.588C96.69 900.443 97.8257 901.235 98.1106 902.43C98.8292 904.19 99.9344 904.453 100.809 906.744L100.527 907.554C97.3421 907.72 98.4041 905.821 95.4855 905.397Z"/><path fill="#313644" d="M98.1106 902.43C98.8292 904.19 99.9344 904.453 100.809 906.744L100.527 907.554C97.3421 907.72 98.4041 905.821 95.4855 905.397C96.2689 905.485 97.0462 905.186 97.5686 904.596C98.0911 904.005 98.2933 903.197 98.1106 902.43Z"/><path fill="#FFF667" d="M33.1124 666.318C34.1305 665.682 35.418 665.662 36.4547 666.269C37.4914 666.875 38.1062 668.006 38.0507 669.206C37.9953 670.405 37.2788 671.475 36.1906 671.983C34.6438 672.705 32.8022 672.098 31.9872 670.598C31.1721 669.099 31.6651 667.224 33.1124 666.318Z"/><path fill="#5D6071" d="M941.662 799.243C943.628 800.42 956.711 828.9 957.028 832.434C953.618 826.627 944.242 805.675 941.662 799.243Z"/><path fill="#FFF667" d="M969.82 388.678C974.101 389.913 975.106 392.381 972.541 396.239C967.074 395.67 967.33 392.584 969.82 388.678Z"/><path fill="#5D6071" d="M951.375 351.911C953.605 353.643 964.217 376.375 966.422 380.766L965.882 380.826C963.497 378.116 952.76 355.991 951.375 351.911Z"/><path fill="#5D6071" d="M1000.37 841.368C1001.95 842.945 1016.2 871.284 1016.91 873.79L1016.19 873.858C1015.06 871.825 1014.09 869.708 1013.12 867.601C1009.03 858.787 1003.67 850.535 1000.37 841.368Z"/><path fill="#70727E" d="M875.204 121.27L875.381 121.25L875.721 121.566C872.464 123.259 847.408 127.267 841.798 128.396C841.365 128.375 841.613 128.434 841.11 128.06C842.755 126.666 871.048 122.118 875.204 121.27Z"/><path fill="#FFF667" d="M916.511 822.941C918.156 822.489 919.858 823.446 920.327 825.086C920.796 826.726 919.856 828.438 918.221 828.924C917.148 829.242 915.987 828.96 915.18 828.184C914.372 827.409 914.044 826.26 914.32 825.175C914.595 824.09 915.432 823.237 916.511 822.941Z"/><path fill="#FFF667" d="M965.235 209.289C966.787 208.759 968.476 209.579 969.02 211.127C969.563 212.674 968.756 214.37 967.213 214.926C965.652 215.489 963.932 214.671 963.382 213.105C962.833 211.539 963.665 209.826 965.235 209.289Z"/><path fill="#FFF667" d="M69.0235 187.807C71.3014 188.441 72.3025 188.577 72.952 190.962C72.6215 192.737 72.1333 192.954 70.79 194.165C68.687 193.462 67.4874 193.196 66.6542 191.04C66.9574 189.353 67.7189 188.958 69.0235 187.807Z"/><path fill="#5D6071" d="M72.7613 347.509C73.2197 342.782 76.1916 337.66 77.4576 333.504C78.345 330.59 80.1479 322.593 80.4566 319.753L81.3321 319.682C81.2778 324.085 75.3114 344.395 72.7613 347.509Z"/><path fill="#FFF667" d="M108.819 197.257C109.821 196.962 110.904 197.238 111.643 197.977C112.382 198.715 112.659 199.798 112.364 200.8C112.07 201.803 111.251 202.564 110.23 202.785C108.729 203.111 107.239 202.19 106.859 200.702C106.48 199.213 107.345 197.691 108.819 197.257Z"/><path fill="#5D6071" d="M997.503 451.77L998.104 451.611C1000.23 454.795 1007.17 469.052 1008.91 472.78L1008.45 472.905C1006.56 471.045 998.578 454.804 997.503 451.77Z"/><path fill="#5D6071" d="M1013.24 574.728L1013.81 574.918C1013.81 574.82 1006.76 600.308 1006.43 601.236C1005.39 598.212 1011.85 578.861 1013.24 574.728Z"/><path fill="#70727E" d="M709.127 873.067C711.787 872.697 733.424 877.196 737.78 877.936L737.707 878.856C730.945 876.849 714.322 875.375 709.127 873.067Z"/><path fill="#5D6071" d="M988.848 357.324C990.619 358.541 996.566 380.489 997.708 384.278C995.817 383.031 989.367 360.514 988.848 357.324Z"/><path fill="#FFF667" d="M953.704 188.234C954.592 187.762 955.665 187.805 956.512 188.346C957.36 188.886 957.851 189.841 957.798 190.846C957.745 191.85 957.155 192.747 956.255 193.195C954.888 193.875 953.229 193.331 952.531 191.973C951.833 190.616 952.355 188.949 953.704 188.234Z"/><path fill="#FFF667" d="M992.727 199.371C994.202 199.155 995.582 200.147 995.847 201.614C996.112 203.08 995.168 204.493 993.711 204.808C992.724 205.022 991.699 204.68 991.038 203.917C990.376 203.153 990.184 202.09 990.535 201.143C990.887 200.196 991.728 199.517 992.727 199.371Z"/><path fill="#5D6071" d="M34.6498 357.274C35.5002 359.992 28.928 378.968 27.6018 383.28C27.4534 382.847 27.3051 382.414 27.1567 381.981C29.1064 374.728 32.2293 363.94 34.6498 357.274Z"/><path fill="#FFF667" d="M31.2129 200.505C32.6345 200.345 33.9384 201.31 34.2013 202.716C34.4641 204.122 33.5967 205.493 32.2133 205.857C31.2242 206.118 30.1725 205.804 29.4884 205.043C28.8044 204.283 28.6027 203.204 28.966 202.248C29.3292 201.292 30.1965 200.619 31.2129 200.505Z"/><path fill="#70727E" d="M108.599 110.504L109.11 110.288C112.437 111.305 132.573 115.849 133.477 116.568L132.642 116.839C128.881 116.044 110.185 112.455 108.599 110.504Z"/><path fill="#81838D" d="M940.128 838.404L940.593 838.488L940.759 839.101C936.897 841.69 922.714 845.93 917.716 847.921L917.135 847.802L917.296 847.161C924.933 844.306 932.618 841.564 940.128 838.404Z"/><path fill="#81838D" d="M998.748 629.348C999.374 631.344 994.016 650.488 993.129 654.306C992.943 653.865 992.756 653.424 992.569 652.982C993.878 647.211 996.716 634.403 998.748 629.348Z"/><path fill="#4B4E66" d="M71.1546 258.702C73.2374 260.856 73.5715 269.296 74.144 272.653C74.5781 275.198 75.6033 278.316 75.8414 280.687L74.9826 280.828C74.6735 279.372 74.0716 276.101 73.3005 274.781C72.3954 273.232 72.3375 275.683 71.3766 272.933C72.0225 272.785 72.6385 272.694 73.2959 272.625C73.4096 269.198 71.6671 262.66 71.1546 258.702Z"/><path fill="#5D6071" d="M14.9349 814.948L15.941 814.71C16.0908 815.297 16.3984 816.361 16.4986 816.96C17.4407 822.585 22.164 827.89 24.509 833.557C21.7534 832.046 14.8112 818.567 14.9349 814.948Z"/><path fill="#5D6071" d="M1005.69 601.826C1006.58 603.999 1000.96 623.258 999.93 626.698C999.26 624.84 1004.64 604.659 1005.69 601.826Z"/><path fill="#FFE54B" d="M186.1 191.746C187.44 191.278 188.906 191.977 189.388 193.312C189.869 194.647 189.185 196.12 187.854 196.615C186.505 197.116 185.006 196.42 184.519 195.066C184.031 193.712 184.741 192.22 186.1 191.746Z"/><path fill="#5D6071" d="M946.428 343.708C947.149 340.661 943.116 337.283 943.105 334.371L943.827 334.229C945.976 337.299 949.845 344.787 947.787 348.285L946.544 348.652C946.396 346.7 946.359 345.66 946.428 343.708Z"/><path fill="#FFF667" d="M913.687 174.221C914.558 173.926 915.52 174.122 916.206 174.734C916.891 175.347 917.194 176.281 916.998 177.18C916.802 178.078 916.137 178.801 915.259 179.072C913.927 179.484 912.511 178.748 912.081 177.422C911.651 176.095 912.367 174.669 913.687 174.221Z"/><path fill="#FFF667" d="M215.515 92.208C216.276 91.6751 217.266 91.5988 218.1 92.0088C218.933 92.4188 219.477 93.2501 219.519 94.1779C219.56 95.1057 219.094 95.9826 218.301 96.4661C217.127 97.1815 215.598 96.8363 214.846 95.6862C214.093 94.5362 214.39 92.9965 215.515 92.208Z"/><path fill="#FFF667" d="M840.733 830.04L841.103 830.079C842.636 831.159 842.64 830.82 843.323 832.285C842.976 833.677 842.931 833.792 842.301 835.082L841.568 834.693C841.203 834.729 840.23 835.042 839.832 835.156C838.318 834.182 838.766 834.825 838.187 833.379C838.701 831.248 838.708 831.808 840.733 830.04Z"/><path fill="#FFE54B" d="M85.3664 730.055C85.7517 730.166 86.9345 731.266 87.331 731.604C87.9962 734.879 85.9901 735.303 83.4333 735.917C82.5742 734.91 82.6256 734.833 82.137 733.576C83.0399 731.629 83.6664 733.153 86.0808 731.378L85.0416 730.696L85.3664 730.055Z"/><path fill="#FFF667" d="M913.608 258.759C914.741 258.11 916.183 258.458 916.895 259.552C917.608 260.646 917.343 262.106 916.292 262.88C915.556 263.422 914.581 263.512 913.758 263.114C912.936 262.716 912.401 261.895 912.369 260.982C912.338 260.068 912.814 259.213 913.608 258.759Z"/><path fill="#FFF667" d="M936.555 730.726C937.365 730.34 938.321 730.426 939.049 730.95C939.778 731.474 940.163 732.353 940.055 733.244C939.947 734.135 939.362 734.896 938.53 735.23C937.297 735.726 935.893 735.152 935.359 733.935C934.825 732.718 935.355 731.297 936.555 730.726Z"/><path fill="#FFE54B" d="M36.5306 351.251C38.1139 352.134 38.1243 352.05 39.237 353.598C39.2591 355.813 39.2622 355.113 37.9708 357.294C36.0908 357.244 35.6312 356.797 34.9294 355.274C35.0608 353.293 35.4783 352.908 36.5306 351.251Z"/><path fill="#FFF667" d="M904.275 284.662C905.149 284.345 906.127 284.552 906.799 285.195C907.471 285.838 907.72 286.806 907.443 287.693C907.165 288.58 906.409 289.234 905.49 289.379C904.244 289.577 903.052 288.795 902.737 287.573C902.423 286.351 903.088 285.091 904.275 284.662Z"/><path fill="#70727E" d="M93.5167 94.7989C96.5121 95.6825 105.049 106.102 107.086 109.053C104.595 108.258 95.5957 97.4118 93.5167 94.7989Z"/><path fill="#FFF667" d="M10.6519 297.375L11.3275 298.284C11.4104 301.9 10.3322 307.653 9.60148 311.28C7.58109 309.712 9.90171 299.77 10.6519 297.375Z"/><path fill="#5D6071" d="M22.2778 181.974L22.7251 182.309C22.047 183.718 11.5691 191.451 9.40607 193.143L8.91179 192.8C9.9724 190.727 19.9076 183.674 22.2778 181.974Z"/><path fill="#FFF667" d="M106.41 175.187C107.238 174.921 108.145 175.126 108.777 175.723C109.41 176.319 109.667 177.213 109.45 178.055C109.232 178.897 108.573 179.553 107.731 179.768C106.482 180.087 105.206 179.357 104.849 178.118C104.492 176.88 105.183 175.582 106.41 175.187Z"/><path fill="#FFF667" d="M184.613 830.73C185.713 830.162 187.065 830.552 187.692 831.619C188.32 832.686 188.005 834.057 186.974 834.743C186.255 835.221 185.33 835.263 184.571 834.851C183.812 834.439 183.342 833.641 183.351 832.778C183.36 831.914 183.845 831.126 184.613 830.73Z"/><path fill="#FFE54B" d="M161.118 777.821C162.181 777.159 163.579 777.461 164.274 778.504C164.97 779.547 164.711 780.953 163.69 781.68C163.001 782.171 162.1 782.248 161.337 781.881C160.575 781.514 160.073 780.761 160.027 779.916C159.982 779.071 160.399 778.269 161.118 777.821Z"/><path fill="#FFE54B" d="M986.302 352.758C987.097 352.447 988 352.603 988.645 353.163C989.289 353.724 989.569 354.596 989.372 355.427C989.174 356.258 988.531 356.911 987.703 357.121C986.528 357.419 985.324 356.752 984.953 355.598C984.582 354.444 985.173 353.2 986.302 352.758Z"/><path fill="#5D6071" d="M946.344 711.373C948.169 713.382 944.185 716.647 945.141 719.351C946.131 722.151 948.654 721.541 950.125 723.559L949.547 723.818L948.206 723.015C945.871 721.666 942.85 720.251 940.994 718.47L941.23 718.064C942.738 718.999 942.112 718.906 943.693 718.967C944.629 717.508 945.774 713.234 946.344 711.373Z"/><path fill="#5D6071" d="M29.5916 824.776C29.7023 825.181 29.8129 825.586 29.9236 825.991C27.5498 830.398 24.3854 837.316 22.474 841.721C22.3518 841.238 22.2297 840.754 22.1075 840.27C23.9218 835.434 27.2914 829.178 29.5916 824.776Z"/><path fill="#5D6071" d="M979.812 753.642C982.674 756.729 985.321 762.518 987.649 766.365C984.862 764.01 981.587 757.626 979.461 754.634L979.812 753.642Z"/><path fill="#FFF667" d="M136.977 754.856C138.105 754.389 139.398 754.918 139.876 756.041C140.354 757.164 139.839 758.462 138.722 758.952C137.988 759.274 137.138 759.177 136.496 758.698C135.854 758.219 135.519 757.432 135.618 756.637C135.718 755.842 136.236 755.162 136.977 754.856Z"/><path fill="#4B4E66" d="M988.075 868.412L988.194 869.657C985.212 873.539 982.016 876.797 978.367 880.062L978.177 879.274C981.513 875.756 984.813 872.014 988.075 868.412Z"/><path fill="#FFF667" d="M833.043 678.438C833.237 678.536 834.761 679.943 835.034 680.189C835.035 682.027 834.635 681.906 833.32 683.777C832.151 682.838 830.938 682.129 830.455 680.78C831.26 679.555 831.857 679.266 833.043 678.438Z"/><path fill="#F8F2C5" d="M1016.71 296.745C1018.92 298.688 1019.54 307.791 1019.89 311.204C1017.94 308.104 1016.97 300.465 1016.71 296.745Z"/><path fill="#FFF667" d="M140.029 828.773C140.714 828.339 141.582 828.317 142.288 828.715C142.995 829.114 143.424 829.869 143.407 830.68C143.389 831.49 142.927 832.226 142.204 832.593C141.157 833.125 139.876 832.741 139.295 831.721C138.714 830.7 139.037 829.402 140.029 828.773Z"/><path fill="#5D6071" d="M62.6395 330.755C65.0361 332.213 70.5375 344.023 71.6004 347.123C69.5309 345.287 64.2016 333.945 62.6395 330.755Z"/><path fill="#FFF667" d="M23.3945 384.728L24.4143 385.058C25.6071 386.671 25.8016 387.154 26.6554 389.003L26.0567 390.489C24.4031 389.737 23.3126 389.461 22.2921 387.977C22.1932 386.034 22.1857 386.684 23.3945 384.728Z"/><path fill="#FFF667" d="M1000.31 385.186C1001.05 384.792 1001.96 384.86 1002.63 385.36C1003.3 385.861 1003.63 386.704 1003.47 387.527C1003.3 388.35 1002.68 389.005 1001.87 389.211C1000.8 389.481 999.702 388.913 999.307 387.887C998.911 386.861 999.343 385.702 1000.31 385.186Z"/><path fill="#FFF667" d="M136.62 732.759C137.678 732.503 138.759 733.081 139.133 734.103C139.507 735.125 139.055 736.264 138.082 736.752C137.347 737.12 136.465 737.034 135.815 736.531C135.164 736.028 134.859 735.196 135.031 734.392C135.203 733.587 135.821 732.952 136.62 732.759Z"/><path fill="#FFF667" d="M885.529 732.294C886.232 731.917 887.086 731.963 887.744 732.414C888.402 732.865 888.754 733.645 888.656 734.436C888.559 735.228 888.028 735.899 887.28 736.176C886.229 736.566 885.054 736.075 884.593 735.053C884.131 734.03 884.541 732.825 885.529 732.294Z"/><path fill="#5D6071" d="M918.538 753.275L919.225 753.158C920.975 756.35 924.199 762.926 925.224 766.219C923.223 764.94 919.339 755.731 918.538 753.275Z"/><path fill="#FFF667" d="M861.928 245.304C862.638 245.003 863.456 245.113 864.061 245.592C864.666 246.071 864.961 246.842 864.831 247.602C864.701 248.362 864.165 248.991 863.436 249.241C862.361 249.609 861.189 249.06 860.783 248C860.377 246.939 860.883 245.748 861.928 245.304Z"/><path fill="#FFF667" d="M90.8791 692.151C91.8971 691.733 93.0654 692.168 93.5625 693.15C94.0596 694.132 93.7186 695.331 92.7793 695.904C92.1018 696.317 91.2496 696.315 90.5738 695.899C89.898 695.483 89.5131 694.723 89.5775 693.932C89.642 693.141 90.1449 692.453 90.8791 692.151Z"/><path fill="#FFE54B" d="M885.228 826.9C886.631 827.487 886.69 827.378 887.61 828.543C887.406 830.288 887.29 829.892 885.838 831.501L885.419 831.642C883.814 830.375 883.727 830.738 883.291 829.161L885.228 826.9Z"/><path fill="#FFE54B" d="M140.02 809.235C140.652 808.822 141.459 808.783 142.128 809.133C142.797 809.483 143.225 810.167 143.246 810.922C143.268 811.677 142.879 812.385 142.231 812.772C141.256 813.354 139.994 813.05 139.392 812.087C138.79 811.124 139.069 809.856 140.02 809.235Z"/><path fill="#FFF667" d="M879.982 807.17C881.319 807.554 881.591 807.764 882.819 808.382L883.019 809.197L881.384 811.704C880.142 811.416 880.082 811.341 878.938 810.741C878.682 808.908 878.952 809.202 879.982 807.17Z"/><path fill="#FFE54B" d="M882.167 751.125C883.505 751.745 883.489 751.842 884.697 752.735C885.263 754.544 885.041 754.069 884.36 756.259C882.934 755.814 882.728 755.733 881.411 755.033C880.98 753.219 881.375 753.263 882.167 751.125Z"/><path fill="#FFE54B" d="M938.444 290.824C939.503 290.577 940.574 291.187 940.903 292.224C941.231 293.261 940.707 294.377 939.698 294.785C938.972 295.078 938.143 294.94 937.551 294.427C936.96 293.914 936.706 293.113 936.894 292.353C937.082 291.592 937.681 291.002 938.444 290.824Z"/><path fill="#70727E" d="M40.8013 823.934C42.3154 823.964 53.4314 828.462 54.3692 829.518L53.3874 829.748C49.5352 828.511 44.1402 826.193 40.8013 823.934Z"/><path fill="#4B4E66" d="M983.107 771.178C985.977 772.955 987.304 782.745 987.941 786.186C986.798 785.369 984.241 774.171 983.107 771.178Z"/><path fill="#81838D" d="M251.099 181.3C252.235 184.151 249.543 193.964 248.603 197.24C247.887 194.959 250.364 184.284 251.099 181.3Z"/><path fill="#81838D" d="M969.611 824.249C970.518 824.514 970.947 824.051 972.475 824.548L971.906 824.48L971.718 825.006C968.551 825.204 965.944 825.598 962.811 826.064C961.175 826.083 960.096 826.226 958.553 825.663C959.882 825.162 967.608 824.492 969.611 824.249Z"/><path fill="#FFF667" d="M806.112 91.8124C806.785 91.4893 807.581 91.56 808.186 91.9968C808.792 92.4335 809.11 93.1663 809.016 93.9069C808.922 94.6475 808.43 95.2773 807.735 95.5486C806.714 95.9466 805.561 95.4666 805.125 94.4617C804.688 93.4568 805.124 92.2866 806.112 91.8124Z"/><path fill="#FFF667" d="M164.239 245.747C165.203 245.326 166.329 245.71 166.836 246.632C167.342 247.554 167.061 248.71 166.189 249.298C165.55 249.728 164.722 249.76 164.052 249.38C163.381 249.001 162.983 248.275 163.022 247.506C163.062 246.737 163.533 246.056 164.239 245.747Z"/><path fill="#4B4E66" d="M907.618 751.85C909.78 752.889 915.988 759.11 916.203 761.411C914.688 760.89 908.635 753.516 907.618 751.85Z"/><path fill="#FFF667" d="M838.462 192.739C839.373 192.128 840.605 192.355 841.239 193.25C841.872 194.146 841.675 195.384 840.795 196.039C840.207 196.477 839.427 196.562 838.758 196.26C838.089 195.959 837.636 195.318 837.574 194.587C837.513 193.855 837.853 193.148 838.462 192.739Z"/><path fill="#FFE54B" d="M207.839 325.26C208.561 325.016 209.358 325.199 209.901 325.734C210.444 326.268 210.639 327.063 210.406 327.788C210.174 328.514 209.552 329.046 208.8 329.165C207.764 329.328 206.776 328.672 206.526 327.654C206.275 326.636 206.846 325.596 207.839 325.26Z"/><path fill="#FFF667" d="M139.613 265.304C140.541 264.88 141.639 265.219 142.167 266.093C142.694 266.966 142.483 268.096 141.676 268.72C141.064 269.192 140.236 269.272 139.546 268.925C138.855 268.578 138.425 267.866 138.439 267.093C138.454 266.321 138.91 265.625 139.613 265.304Z"/><path fill="#FFF667" d="M928.031 322.803C928.967 322.263 930.164 322.577 930.714 323.506C931.265 324.436 930.965 325.636 930.042 326.198C929.435 326.567 928.676 326.581 928.056 326.235C927.435 325.889 927.049 325.237 927.044 324.526C927.038 323.816 927.416 323.158 928.031 322.803Z"/><path fill="#5D6071" d="M980.242 801.891C984.734 803.251 986.482 806.338 988.957 810.195C987.378 809.459 981.484 803.355 980.242 801.891Z"/><path fill="#999A9E" d="M195.837 10.7066C192.654 7.78007 189.307 4.88223 186.586 1.53509C188.82 2.67457 194.734 8.39844 196.772 10.342L195.837 10.7066Z"/><path fill="#999A9E" d="M961.505 831.04L962.29 831.219C961.034 832.509 952.74 834.939 950.67 835.614L950.233 835.779L950.133 835.182C953.012 833.493 958.162 832.096 961.505 831.04Z"/><path fill="#FFF667" d="M139.627 195.277C140.555 194.895 141.621 195.283 142.086 196.171C142.552 197.059 142.264 198.156 141.422 198.702C140.805 199.102 140.013 199.118 139.379 198.744C138.745 198.369 138.378 197.668 138.43 196.934C138.483 196.199 138.947 195.558 139.627 195.277Z"/><path fill="#5D6071" d="M96.9935 397.759C99.3597 399.585 101.867 406.5 103.378 409.735C100.834 408.263 98.2603 400.838 96.9935 397.759Z"/><path fill="#FFE54B" d="M861.13 776.172C861.76 775.846 862.517 775.893 863.102 776.294C863.686 776.695 864.003 777.385 863.927 778.089C863.85 778.794 863.392 779.399 862.735 779.665C861.782 780.051 860.694 779.619 860.265 778.685C859.835 777.75 860.216 776.644 861.13 776.172Z"/><path fill="#FFF667" d="M926.999 119.185C927.855 118.722 928.923 118.976 929.48 119.774C930.037 120.572 929.906 121.661 929.177 122.305C928.625 122.793 927.842 122.921 927.164 122.634C926.485 122.347 926.031 121.697 925.996 120.961C925.961 120.225 926.351 119.535 926.999 119.185Z"/><path fill="#F8F2C5" d="M919.12 713.525C920.887 713.39 921.066 713.276 922.818 713.738C923.803 715.199 923.521 714.367 923.312 716.422C921.487 716.629 921.597 716.67 919.843 716.175C918.743 714.767 919.085 715.584 919.12 713.525Z"/><path fill="#24273F" d="M85.0782 221.346C86.0437 219.663 86.1923 219.17 87.7772 217.989C88.9923 219.205 88.0168 221.226 88.9106 223.415C87.5587 222.584 86.4822 222.047 85.0782 221.346Z"/><path fill="#5D6071" d="M50.6294 396.822C51.1544 398.922 47.0437 406.655 45.8797 409.17C45.346 406.872 49.2931 399.195 50.6294 396.822Z"/><path fill="#FFF667" d="M833.077 341.753C834.063 341.63 834.974 342.3 835.149 343.278C835.324 344.257 834.703 345.201 833.735 345.427C833.062 345.584 832.357 345.357 831.902 344.837C831.448 344.317 831.317 343.588 831.563 342.942C831.809 342.296 832.391 341.839 833.077 341.753Z"/><path fill="#FFF667" d="M5.93276 713.321C6.53205 712.991 7.26367 713.013 7.84135 713.38C8.41903 713.747 8.75093 714.399 8.70718 715.082C8.66344 715.765 8.25101 716.369 7.63126 716.659C6.71563 717.088 5.62523 716.713 5.16686 715.812C4.70848 714.911 5.04736 713.809 5.93276 713.321Z"/><path fill="#81838D" d="M848.456 897.407C849.302 897.352 857.855 898.947 859.171 899.172L859.27 899.95C856.843 899.839 850.149 899.08 848.456 897.407Z"/><path fill="#FFF667" d="M209.595 695.8C210.515 695.424 211.568 695.84 211.982 696.743C212.396 697.647 212.023 698.716 211.137 699.167C210.531 699.476 209.804 699.427 209.244 699.041C208.684 698.655 208.381 697.992 208.454 697.316C208.527 696.64 208.965 696.058 209.595 695.8Z"/><path fill="#5D6071" d="M1015.41 485.8C1015.92 485.634 1015.59 485.694 1016.41 485.827C1018.41 488.848 1019.36 490.971 1020.9 494.246C1018.61 492.991 1016.6 488.278 1015.41 485.8Z"/><path fill="#4B4E66" d="M1010.05 316.732C1011.54 319.693 1009.16 326.916 1008.27 330.131C1007.84 328.217 1009.65 319.416 1010.05 316.732Z"/><path fill="#5D6071" d="M46.4847 822.931C48.0893 822.47 55.6228 824.409 57.0308 825.534C55.6708 825.896 47.69 823.778 46.4847 822.931Z"/><path fill="#5D6071" d="M75.6352 680.093C78.622 681.801 78.4685 686.402 79.8736 689.628C79.3347 689.819 79.6711 689.751 78.8445 689.661C78.0067 686.717 77.0374 682.691 75.6352 680.093Z"/><path fill="#5D6071" d="M1019.38 555.364L1019.87 555.92C1019.57 558.308 1017.52 563.641 1016.64 566.174L1016.05 565.919C1016.51 563.279 1018.43 558.117 1019.38 555.364Z"/><path fill="#81838D" d="M695.489 870.642C699.267 870.995 701.488 871.346 705.212 872.104L705.291 872.867C703.11 872.847 696.793 872.226 695.489 870.642Z"/><path fill="#F8F2C5" d="M86.0674 659.005C86.7995 659.169 87.3494 659.775 87.4405 660.52C87.5316 661.264 87.1441 661.986 86.473 662.321C85.8019 662.656 84.9925 662.532 84.4522 662.012C83.9118 661.492 83.7575 660.688 84.0669 660.004C84.4131 659.24 85.2482 658.823 86.0674 659.005Z"/><path fill="#5D6071" d="M74.1266 351.215L74.984 351.274C76.655 353.791 77.9137 356.957 79.1618 359.75L78.333 359.485C76.5918 356.964 75.3975 354.017 74.1266 351.215Z"/><path fill="#FFF667" d="M880.364 217.207C880.896 216.792 881.619 216.717 882.225 217.015C882.831 217.312 883.214 217.93 883.21 218.605C883.207 219.28 882.818 219.894 882.209 220.186C881.398 220.575 880.424 220.29 879.95 219.525C879.476 218.76 879.654 217.761 880.364 217.207Z"/><path fill="#5D6071" d="M21.1492 842.442C21.5244 844.614 17.5554 851.381 16.299 853.531C16.0695 851.807 20.0058 844.035 21.1492 842.442Z"/><path fill="#4B4E66" d="M939.035 325.268L939.65 325.108C940.996 326.675 942.049 330.793 943.445 333.349C941.089 332.102 940.091 328.032 939.035 325.268Z"/><path fill="#70727E" d="M765.401 884.222C763.112 883.606 758.983 882.419 756.793 882.038L757.856 882.181C758.591 881.698 764.144 882.854 765.388 883.065L765.401 884.222Z"/><path fill="#81838D" d="M227.52 134.412C229.117 134.193 235.297 135.375 236.489 136.542C235.288 136.894 228.593 135.343 227.52 134.412Z"/><path fill="#5D6071" d="M1.70331 197.791C4.17343 198.967 5.42931 203.323 6.01593 205.811C3.18428 202.89 3.36005 201.664 1.70331 197.791Z"/><path fill="#5D6071" d="M30.1117 245.67C32.8507 246.954 33.9274 250.331 35.3377 253.229C33.3479 252.283 31.1413 247.711 30.1117 245.67Z"/><path fill="#4B4E66" d="M45.8663 796.014C45.4279 798.701 42.0265 802.199 39.9454 803.86C39.6787 802.243 44.5696 797.603 45.8663 796.014Z"/><path fill="#5D6071" d="M927.109 288.034C927.443 289.612 923.548 293.339 922.399 294.635L922.169 293.821C923.06 291.689 925.402 289.521 927.109 288.034Z"/><path fill="#4B4E66" d="M900.404 295.84C902.263 296.569 905.273 299.226 906.215 300.914L905.805 301.022C903.612 300.296 901.709 297.685 900.404 295.84Z"/><path fill="#5D6071" d="M943.708 721.451C943.975 723.494 941.71 727.45 940.555 729.138C939.791 727.364 942.635 722.908 943.708 721.451Z"/><path fill="#5D6071" d="M949.521 702.259C950.375 704.24 948.815 707.21 947.991 709.445L947.285 709.101C947.621 707.254 948.85 704.134 949.521 702.259Z"/><path fill="#5D6071" d="M991.997 654.752L992.761 655.576C992.492 657.833 991.828 659.566 991.136 661.722L990.444 661.254C990.949 659.084 991.467 656.916 991.997 654.752Z"/><path fill="#70727E" d="M935.218 336.733L935.698 336.594C937.027 337.322 939.149 339.82 939.159 341.401C937.976 341.135 936.167 338.045 935.218 336.733Z"/><path fill="#70727E" d="M830.818 894.137C833.407 894.463 836.079 894.502 837.7 896.111C835.263 896.067 832.488 895.906 830.818 894.137Z"/><path fill="#5D6071" d="M10.0298 501.475L10.2122 502.131C8.25982 504.167 7.14705 505.254 5.55421 507.642C5.35345 507.445 5.4974 507.623 5.08179 506.793C6.29438 504.848 8.34225 503.098 10.0298 501.475Z"/><path fill="#5D6071" d="M103.33 323.012C105.539 323.12 107.042 324.488 108.44 326.081C106.59 325.517 104.226 324.785 103.33 323.012Z"/><path fill="#5D6071" d="M8.19161 845.845C10.7718 846.626 12.0322 848.253 14.0021 850.146C11.1155 849.338 9.98227 848.195 8.19161 845.845Z"/><path fill="#999A9E" d="M794.585 887.897C796.019 887.568 799.296 888.263 800.513 889.121C799.076 889.356 795.627 888.827 794.585 887.897Z"/><path fill="#313644" d="M83.5708 657.094C84.7425 657.828 85.2269 657.959 86.0674 659.005C85.2482 658.823 84.4131 659.24 84.0669 660.004L82.6122 659.085L83.5708 657.094Z"/><path fill="#5D6071" d="M949.135 797.86C952.143 798.404 953.185 798.986 955.027 801.351C952.341 800.451 951.389 799.533 949.135 797.86Z"/><path fill="#81838D" d="M282.016 144.334C284.133 143.709 286.759 144.699 288.808 145.416C287.173 145.57 283.191 145.342 282.016 144.334Z"/><path fill="#999A9E" d="M912.253 719.402L912.713 720.006C911.787 721.058 910.854 722.104 909.915 723.144L909.26 722.121C910.243 720.285 910.244 720.704 912.253 719.402Z"/><path fill="#5D6071" d="M1004.75 823.371C1005.14 825.304 1003.29 827.881 1002.27 829.644C1001.83 827.712 1003.68 825.261 1004.75 823.371Z"/><path fill="#5D6071" d="M952.398 725.388C954.524 725.947 955.922 727.605 957.539 729.133C954.75 728.376 953.958 727.806 952.398 725.388Z"/><path fill="#81838D" d="M739.224 878.649C741.833 878.25 744.106 878.876 746.488 879.898C744.273 880.223 741.282 879.599 739.224 878.649Z"/><path fill="#999A9E" d="M356.753 154.918C358.348 155.654 361.107 157.9 362.47 159.035C359.233 158.417 358.799 157.541 356.753 154.918Z"/><path fill="#BBBAAC" d="M1007.54 235.768C1008.07 235.544 1008.64 235.507 1009.24 235.408C1010.77 235.922 1010.91 235.858 1012.11 236.997C1010.18 236.978 1009.17 237.023 1007.54 235.768Z"/><path fill="#70727E" d="M40.4753 820.449C42.0008 820.6 44.2305 821.573 45.1211 822.879C43.0793 822.339 42.5061 822.216 40.6405 821.299L40.4753 820.449Z"/><path fill="#5D6071" d="M1013.43 527.385C1013.89 527.794 1013.72 527.519 1013.78 528.285L1010.63 531.075L1010.24 530.649C1010.94 529.14 1012.05 528.546 1013.43 527.385Z"/><path fill="#5D6071" d="M944.64 795.359C946.194 795.581 948.122 796.179 949.127 797.411L948.62 797.62C946.975 797.432 945.997 796.4 944.64 795.359Z"/><path fill="#BBBAAC" d="M42.8263 768.427C43.7987 769.45 42.7504 771.522 42.3836 772.828L41.6309 772.219C41.4723 770.332 41.8247 770.442 42.8263 768.427Z"/><path fill="#70727E" d="M79.7513 306.876L80.6166 307.619C81.2798 309.237 80.9339 310.818 80.7862 312.612C79.8941 310.964 79.9149 308.797 79.7513 306.876Z"/><path fill="#F8F2C5" d="M905.151 306.705L906.093 307.207L906.187 308.046L904.486 309.986L903.859 309.766C903.614 308.397 904.125 308.29 905.151 306.705Z"/><path fill="#81838D" d="M112.533 753.871L112.686 753.907L112.894 754.458L110.362 757.618C109.796 756.62 109.934 756.987 109.728 755.892C111.21 755.27 111.443 754.974 112.533 753.871Z"/><path fill="#4B4E66" d="M1003.44 243.387L1003.89 243.926C1003.47 245.488 1003.12 246.512 1002.56 248.033L1002.09 247.725C1001.9 246.224 1002.76 244.969 1003.44 243.387Z"/><path fill="#5D6071" d="M94.7361 732.265C95.5843 732.964 96.2551 733.815 96.9912 734.647L96.7733 735.368L96.3656 736.011C95.5127 735.283 95.1784 733.547 94.7361 732.265Z"/><path fill="#81838D" d="M948.223 835.638L948.779 835.669C948.173 836.81 947.336 836.902 945.919 837.635L945.214 837.389L945.182 836.748L948.223 835.638Z"/><path fill="#70727E" d="M913.927 301.774C914.589 301.989 914.263 301.809 914.856 302.393C914.077 303.001 913.305 303.617 912.539 304.241L912.202 304.71C912.371 303.37 912.971 303.033 913.927 301.774Z"/><path fill="#70727E" d="M991.566 347.863L991.998 348.031L992.018 348.678L989.811 350.891L989.216 350.846L989.158 350.181L991.566 347.863Z"/><path fill="#5D6071" d="M1014.79 569.297C1015.89 570.255 1015.01 571.846 1014.67 573.208C1013.38 572.115 1014.33 570.772 1014.79 569.297Z"/><path fill="#70727E" d="M985.431 817.637C986.461 817.519 987.223 817.487 988.261 817.452L988.314 818.169C987.93 818.57 988.224 818.306 987.268 818.725L985.431 817.637Z"/><path fill="#999A9E" d="M57.9469 825.587C59.421 825.739 60.4463 825.644 61.5133 826.609C59.756 827.195 59.3191 826.48 57.9469 825.587Z"/><path fill="#5D6071" d="M97.3707 318.731C99.406 319.405 99.7281 319.085 100.525 320.477C99.1178 320.926 98.24 319.594 97.3707 318.731Z"/><path fill="#81838D" d="M100.202 715.732C101.679 716.717 101.598 717.22 101.825 718.81L101.317 718.872C100.629 717.576 100.599 717.139 100.202 715.732Z"/><path fill="#5D6071" d="M112.604 264.174L112.905 264.468L112.741 266.342C112.161 266.096 112.464 266.304 112.003 265.52L112.604 264.174Z"/></svg>