<svg width="818" height="803" viewBox="0 0 818 803" fill="none" xmlns="http://www.w3.org/2000/svg">
<path d="M392.629 0.173615C398.34 0.0736153 404.054 -0.0223834 409.767 0.00461656C417.96 0.0426166 426.259 -0.0633825 434.44 0.419617C526.421 5.84362 614.047 42.2976 683.363 102.724C690.978 109.363 698.156 116.891 705.261 124.081C777.819 197.51 818.664 299.404 817.943 402.489C817.193 509.741 776.297 608.693 699.878 684.118C694.689 689.24 689.545 694.644 684.07 699.449C670.61 711.264 656.393 721.778 641.583 731.782C637.161 734.769 632.948 738.14 628.435 740.976C621.921 745.069 614.968 748.626 608.209 752.3C602.595 755.352 597.079 758.697 591.356 761.533C557.155 778.483 516.885 790.68 479.235 797.029C461.671 799.991 443.435 802.655 425.591 802.538C419.188 802.718 412.77 802.925 406.363 802.85C371.566 802.447 340.52 798.561 306.641 790.256C297.957 788.127 289.18 786.025 280.672 783.257C274.08 781.111 267.575 778.417 261.08 775.982C249.642 771.694 237.999 767.141 227.041 761.729C221.221 758.855 215.535 755.502 209.838 752.377C203.3 748.79 196.498 745.359 190.194 741.385C185.974 738.724 182.003 735.606 177.858 732.818C162.609 722.564 147.825 711.661 134.024 699.485C125.802 692.231 118.023 683.979 110.348 676.134C37.9187 602.1 -1.09386 500.425 0.023345 397.233C1.01735 305.414 32.4567 219.108 90.7757 148.259C103.175 133.197 116.991 119.615 130.931 106.013C135.107 101.939 139.837 98.4386 144.368 94.7736C149.311 90.7746 154.081 86.5076 159.153 82.6746C164.227 78.8396 169.729 75.4366 175.015 71.8956C179.883 68.6336 184.533 64.9526 189.486 61.8436C195.987 57.7606 202.926 54.2066 209.667 50.5306C215.193 47.5176 220.627 44.2226 226.272 41.4406C237.533 35.8886 249.432 31.2476 261.192 26.8766C267.385 24.5746 273.495 21.9536 279.771 19.8886C302.132 12.5296 326.187 7.56762 349.435 4.12462C363.564 2.03262 378.333 -0.00438473 392.629 0.173615Z" fill="#333230"/>
<path d="M407.269 27.187C414.013 26.423 422.648 27.119 429.504 27.337C463.74 28.429 496.835 37.021 527.254 52.814C538.346 58.572 546.768 63.401 556.684 70.815C608.186 109.324 607.03 152.677 595.642 210.32C593.097 223.203 589.598 243.91 591.409 256.735C592.865 267.04 597.01 276.033 604.844 282.965C610.138 287.65 612.779 290.623 619.635 293.608C628.105 297.295 637.097 297.826 646.152 297.907C670.455 298.124 691.47 294.613 712.215 310.817C726.138 321.693 736.524 340.766 738.235 358.227C739.38 372.438 739.262 387.23 738.998 401.546C738.672 419.263 740.667 438.494 736.641 455.7C732.116 475.045 720.518 491.14 703.147 500.734C669.475 519.33 625.577 492.146 599.619 528.51C585.938 547.43 591.434 569.204 594.772 590.538C596.33 600.201 598.346 609.305 599.603 618.966C604.937 650.326 602.945 684.62 582.201 710.696C555.283 744.533 503.27 768.293 461.039 775.313C454.499 776.4 448.399 777.318 441.808 777.85C437.038 778.236 429.783 777.902 425.503 778.521L424.643 778.652C417.73 779.428 408.907 778.712 401.818 778.478C356.98 776.993 311.863 761.735 275.743 735.396C224.061 697.71 224.772 652.774 236.241 595.74C238.872 582.658 242.298 562.033 240.495 549.034C239.105 539.019 234.963 529.883 227.343 523.119C222.143 518.504 219.567 515.509 212.815 512.463C204.055 508.511 194.885 508.051 185.463 507.937C160.974 507.64 141.216 511.403 120.1 495.247C105.577 484.134 95.3296 464.479 93.5636 446.623C92.5056 435.926 92.6835 418.771 92.9135 407.769C93.7495 376.407 87.8435 348.219 108.963 321.766C134.289 290.044 163.26 299.967 198.229 297.178C211.765 296.098 223.934 288.228 232.308 277.332C245.665 259.95 240.623 235.809 237.23 215.887C229.508 175.756 221.58 129.855 249.764 95.091C279.701 59.445 325.761 39.097 370.719 30.55C384.023 28.021 394.653 29.028 406.415 27.318L407.269 27.187Z" fill="#FEFEFE"/>
<path d="M399.289 46.1145C409.213 45.2215 424.513 45.5025 434.512 46.2775C489.23 50.5205 546.45 76.9575 567.969 130.553C582.59 166.967 571.343 202.905 565.545 239.566C562.876 256.448 560.962 281.675 561.217 298.967L597.427 298.951C623.301 318.263 639.736 309.161 669.251 312.376C682.487 313.818 697.112 323.187 704.848 333.873C709.352 340.094 715.411 351.4 716.37 359.112C718.157 373.489 717.286 391.898 717.428 406.627C716.902 418.711 718.147 432.091 716.633 444.035C714.488 460.954 702.259 479.704 686.972 487.177C653.012 503.779 631.214 482.123 597.4 506.846C585.696 507.161 572.678 506.899 560.9 506.894C561.135 524.218 562.975 549.451 565.446 566.341C568.085 584.382 572.618 600.881 574.339 619.735C577.247 651.6 572.042 678.374 551.331 703.901C522.107 739.921 479.346 755.341 434.344 759.557C427.209 760.376 417.534 760.138 410.246 760.043C351.118 759.272 286.684 732.737 263.643 674.425C249.5 638.632 260.638 602.96 266.39 566.944C269.295 548.757 270.674 525.371 271.03 506.896C258.941 506.758 246.615 506.877 234.507 506.873C213.723 491.59 203.51 494.111 178.427 493.932C173.173 493.842 167.673 494.244 162.479 493.368C138.211 489.278 120.379 470.064 115.635 446.237C114.414 440.104 114.68 433.312 114.6 427.006L114.507 396.618C114.552 386.017 113.965 371.323 115.41 361.086C118.222 338.581 139.183 315.005 162.273 312.542C191.996 309.371 207.675 318.411 234.521 299.023C245.914 298.639 259.201 298.955 270.738 298.958C271.038 282.914 268.471 253.307 266.049 237.498C263.316 219.651 259.01 204.016 257.453 185.162C254.824 153.343 260.247 126.788 280.969 101.488C310.931 64.9085 353.622 50.3765 399.289 46.1145Z" fill="#333230"/>
<path d="M334.583 291.973C387.874 291.191 443.962 291.735 497.361 291.966C496.163 315.731 495.276 316.094 518.31 315.971L542.794 315.805C542.346 355.857 543.117 396.291 542.771 436.366C542.619 454.085 543.317 473.384 542.565 490.893C542.544 501.298 543.053 511.826 543.013 521.946C533.828 521.903 514.832 520.674 506.914 522.583C504.039 523.276 501.243 524.698 499.162 526.821C487.866 538.346 499.492 560.136 487.138 573.906C484.219 577.16 480.276 579.57 476.082 580.778C470.501 582.385 464.088 582.422 458.304 582.638C443.925 583.174 429.558 582.465 415.185 582.542C398.722 582.63 373.989 584.459 358.48 581.272C353.729 580.296 349.358 578.182 345.74 574.933C340.305 570.051 338.574 563.037 338.369 556.006C338.075 545.86 340.116 534.144 332.112 526.304C330.749 524.969 329.193 523.9 327.607 522.856C327.424 522.735 327.246 522.605 327.059 522.49C324.725 521.062 294.376 521.463 289.331 521.548C289.276 511.387 289.481 501.027 289.353 490.918C288.73 470.679 289.182 448.031 289.181 427.605L289.218 315.832L314.009 315.954C337.449 316.056 335.392 315.328 334.583 291.973Z" fill="#FEFEFE"/>
<path d="M542.568 490.893C542.547 501.298 543.056 511.826 543.016 521.946C533.831 521.903 514.835 520.674 506.917 522.583C504.042 523.276 501.246 524.698 499.165 526.821C487.869 538.346 499.495 560.136 487.141 573.906C484.222 577.16 480.279 579.57 476.085 580.778C470.504 582.385 464.091 582.422 458.307 582.638C443.928 583.174 429.561 582.465 415.188 582.542C398.725 582.63 373.992 584.459 358.483 581.272C353.732 580.296 349.361 578.182 345.743 574.933C340.308 570.051 338.577 563.037 338.372 556.006C338.078 545.86 340.119 534.144 332.115 526.304C330.752 524.969 329.196 523.9 327.61 522.856C327.427 522.735 327.249 522.605 327.062 522.49C324.728 521.062 294.379 521.463 289.334 521.548C289.279 511.387 289.484 501.027 289.356 490.918C306.557 491.707 324.252 487.851 338.044 501.619C349.842 513.488 349.493 529.356 348.822 545.102C348.341 556.37 353.581 572.134 366.847 573.64C376.574 574.744 388.723 573.951 398.836 574.047C419.504 574.244 440.386 573.912 461.073 573.96C465.975 573.945 470.438 572.576 474.151 569.207C493.428 551.718 472.461 522.898 493.534 501.976C507.425 488.184 524.688 491.284 542.568 490.893Z" fill="#F3D3CA"/>
<path d="M372.165 306.048L373.933 305.981C402.1 305.122 431.077 306.394 459.3 306.121C471.744 306 468.002 331.813 467.958 340.964C473.192 340.962 478.555 340.794 483.784 340.835C495.022 340.924 502.043 339.895 501.962 353.361C501.804 381.24 502.359 409.333 501.688 437.175C501.474 446.042 488.984 445.096 483.198 444.99C478.148 444.897 473.001 444.951 467.952 444.926C467.893 450.474 468.137 456.072 468.12 461.62C468.096 469.201 468.604 475.918 459.797 477.855C441.201 478.39 421.727 478.113 403.129 477.931C362.133 477.53 363.718 485.076 363.971 444.921C356.85 444.947 349.675 444.989 342.559 445.008C334.371 445.12 329.972 442.539 329.995 433.861C330.079 405.502 329.591 376.946 330.246 348.619C330.45 339.773 343.325 340.785 349.111 340.86C354.045 340.924 359.042 340.908 363.972 340.939C364.04 334.806 363.781 328.615 363.811 322.479C363.848 314.848 363.26 307.868 372.165 306.048Z" fill="#F3D3CA"/>
<path d="M422.752 318.852C423.822 318.848 424.41 318.944 425.475 319.086C426.549 320.835 417.117 369.655 415.938 375.715C435.556 376.868 455.537 374.62 473.978 375.256C469.15 383.264 458.788 394.613 452.811 402.286C437.794 421.566 421.155 440.591 406.379 459.965C405.132 459.949 404.668 459.893 403.439 459.77C402.549 458.137 411.491 409.245 413.149 403.333C408.285 402.683 400.807 402.955 395.72 402.913C382.149 402.799 368.505 403.433 354.922 403.831C358.375 397.796 369.319 385.153 374.236 378.983L422.752 318.852Z" fill="#FEFEFE"/>
<path d="M444.926 498.951L466.954 498.919L466.963 520.917L444.977 520.914L444.926 498.951Z" fill="#F3D3CA"/>
<path d="M404.941 498.944L426.955 498.915L426.964 520.916L404.978 520.915L404.941 498.944Z" fill="#F3D3CA"/>
<path d="M364.945 498.95L386.967 498.917L386.965 520.915L364.979 520.914L364.945 498.95Z" fill="#F3D3CA"/>
<path d="M364.965 537.934L386.96 537.926L386.952 559.903L364.978 559.926L364.965 537.934Z" fill="#53A4EE"/>
<path d="M444.961 537.935L466.953 537.927L466.949 559.906L444.976 559.924L444.961 537.935Z" fill="#53A4EE"/>
<path d="M404.965 537.934L426.954 537.927L426.95 559.904L404.977 559.921L404.965 537.934Z" fill="#53A4EE"/>
<path d="M400.248 63.1298C402.898 62.6658 425.11 62.7548 428.764 62.9728C466.857 65.2528 503.19 77.6838 529.765 105.832C558.48 134.352 558.166 171.494 550.33 208.555C545.969 229.18 542.42 251.107 542.43 272.405C542.433 280.327 543.191 288.433 542.851 296.568C535.029 297.049 527.046 296.947 519.198 296.942C518.791 291.148 518.482 285.48 518.45 279.625C518.38 267.185 520.436 254.067 510.859 244.205C505.738 238.933 499.094 236.89 491.961 236.913C492.123 228.701 491.162 222.669 485.441 216.624C473.154 203.642 450.341 209.175 446.18 226.856C445.567 229.461 445.243 235.495 443.776 236.865C442.179 237.464 441.393 237.156 439.709 236.868C438.532 235.018 438.932 229.553 438.326 227.195C436.677 220.774 432.615 215.797 427.147 212.308C414.129 206.042 399.14 210.283 394.106 224.572C392.7 228.564 392.359 232.565 391.274 236.629C389.606 236.928 388.229 237.199 387.052 235.92C386.809 228.986 385.225 222.25 380.438 216.86C372.167 207.496 355.944 207 347.151 215.94C340.775 222.423 339.891 228.387 339.969 236.904C333.701 236.774 327.096 238.726 322.4 242.967C311.675 252.654 313.456 265.465 313.489 278.356C313.505 284.588 313.115 290.791 312.734 296.932C307.566 296.963 294.768 297.391 290.278 296.231C285.915 292.004 292.526 272.372 289.993 267.548C288.069 263.885 288.516 248.02 287.852 242.99C285.044 221.71 279.175 200.971 277.451 179.5C275.366 153.535 281.215 130.363 298.317 110.307C324.073 80.1038 361.543 66.1258 400.248 63.1298Z" fill="#FEFEFE"/>
<path d="M338.227 112.865C339.794 112.731 341.366 112.512 342.586 113.729C348.492 119.944 336.787 125.695 333.412 129.506C317.383 147.604 309.063 170.753 306.73 194.629C305.698 205.186 305.727 214.894 305.258 225.304C299.794 201.84 295.418 184.527 302.582 159.931C308.437 139.83 319.739 123.097 338.227 112.865Z" fill="#53A4EE"/>
<path d="M490.176 112.732C500.553 112.024 515.495 130.967 520.323 139.036C536.167 165.515 535.089 193.293 527.609 222.12L526.718 224.71L526.458 224.597C527.438 187.685 520.597 147.547 490.953 122.63C486.516 118.901 486.553 117.133 490.176 112.732Z" fill="#53A4EE"/>
<path d="M509.882 545.734C514.217 537.411 518.852 537.876 527.592 537.961C532.483 538.009 537.462 538.145 542.36 538.251C542.67 541.844 542.871 545.624 543.024 549.303C544.649 588.371 563.168 627.576 550.454 666.514C548.513 672.458 545.419 678.007 542.53 683.379C489.974 770.222 307.191 763.823 279.107 657.939C271.686 621.919 286.693 586.979 288.864 551.283C289.057 548.109 288.182 539.051 291.163 538.156C298.251 538.213 307.62 537.285 314.325 538.59C318.457 539.393 320.097 542.319 322.035 545.626C321.776 550.491 321.578 555.271 321.833 560.103C322.83 578.94 337.241 595.063 355.818 598.246C362.921 599.463 370.437 599.191 377.679 599.201L406.503 599.226L447.111 599.219C467.193 599.194 485.997 601.399 500.338 584.31C510.346 572.385 510.999 560.727 509.882 545.734Z" fill="#FEFEFE"/>
<path d="M526.519 579.769C527.787 584.49 529.04 588.934 530.129 593.723C538.334 629.796 528.534 673.881 493.722 692.932C490.843 693.231 487.111 691.649 487.403 688.592C488.221 683.687 495.314 679.525 498.561 675.982C523.268 649.014 526.408 614.279 526.519 579.769Z" fill="#53A4EE"/>
<path d="M305.367 580.417C305.6 613.316 307.796 641.497 327.939 669.503C331.998 676.453 340.389 680.291 343.994 687.313C345.902 691.031 341.95 692.853 339.171 693.239C326.538 688.087 315.771 674.623 309.499 662.861C295.811 637.189 296.813 607.612 305.367 580.417Z" fill="#53A4EE"/>
<path d="M595.926 315.096C612.881 327.476 627.051 329.399 647.521 329.575C653.14 329.624 659.045 329.329 664.583 330.365C674.743 332.266 684.331 339.106 690.057 347.617C693.118 352.168 695.514 357.428 696.558 362.829C698.152 371.077 698.121 434.636 696.474 442.89C694.227 454.15 687.199 463.697 677.78 470.052C653.88 484.384 626.452 465.505 595.927 491.047L595.926 315.096Z" fill="#FEFEFE"/>
<path d="M235.387 315.372L235.726 315.681C236.196 317.695 236.016 327.486 236.016 330.109L236.002 361.716L236.019 491.068C207.542 466.485 180.706 483.503 155.53 470.885C146.55 465.419 137.339 454.46 135.65 443.794C133.554 430.563 134.792 415.446 134.488 401.92C134.218 389.952 134.424 377.465 135.024 365.524C135.409 358.95 139.52 350.964 143.449 345.764C159.693 324.265 179.89 331.514 203.082 328.904C214.994 327.564 226.016 322.771 235.387 315.372Z" fill="#FEFEFE"/>
<path d="M376.124 253.37L402.773 253.383C403.37 256.886 403.858 259.316 404.763 262.746C409.109 267.808 416.305 270.683 422.354 266.196C426.942 262.792 427.029 258.689 427.657 253.431L455.802 253.385C457.064 259.15 456.079 264.011 462.977 266.975C466.582 268.525 470.241 268.43 473.899 266.954C481.515 263.883 478.611 259.553 480.694 254.312C482.116 253.102 481.651 253.482 483.953 253.361C488.867 253.246 489.985 253.424 494.454 254.898C495.849 256.796 496.708 258.578 497.806 260.65C497.264 264.973 497.504 272.377 497.519 276.945L334.422 276.96C334.438 272.304 334.677 265.027 334.074 260.614C336.457 255.812 336.832 254.971 342.013 253.447C344.912 253.329 348.402 253.427 351.349 253.433C351.673 257.016 351.554 259.593 353.475 262.785C357.038 268.709 364.681 270.23 370.324 266.207C375.116 262.789 375.288 258.711 376.124 253.37Z" fill="#53A4EE"/>
<path d="M562.871 313.855L577.152 313.918C575.993 353.316 577.574 393.511 576.966 432.989C576.667 452.362 576.736 472.595 577.155 491.945L562.898 492.011L562.871 313.855Z" fill="#53A4EE"/>
<path d="M254.711 313.914L269.021 313.878L269.015 492L254.728 491.959C255.965 447.05 254.239 401.459 254.937 356.482C255.154 342.492 255.13 327.861 254.711 313.914Z" fill="#53A4EE"/>
<path d="M361.135 223.399C371.295 222.032 374.034 230.257 373.646 238.589C370.926 233.668 370.39 231.976 365.866 228.587C359.206 226.858 357.492 231.621 353.657 236.073L353.231 235.534C353.179 228.452 355.151 226.936 361.135 223.399Z" fill="#FEFEFE"/>
<path d="M466.122 223.455C475.233 222.234 481.371 232.55 477.809 235.848C474.63 232.305 476.627 232.136 470.945 228.395L470.369 228.022C463.33 227.826 463.188 232.836 458.722 236.005L458.242 235.41C458.136 228.518 460.412 226.681 466.122 223.455Z" fill="#FEFEFE"/>
<path d="M413.775 223.454C420.511 222.676 427.514 229.464 425.184 236.29L424.557 236.487C422.985 232.286 421.597 230.659 417.65 228.29L417.092 227.963C409.976 228.094 409.159 234.154 405.511 236.026C403.739 230.069 409.026 225.713 413.775 223.454Z" fill="#FEFEFE"/>
<path d="M307.343 34.0957L307.535 34.4077C306.007 35.4267 294.318 40.7037 290.68 42.6697C269.896 53.8987 252.87 66.4677 236.234 83.2827C225.203 94.4327 222.333 103.942 217.436 118.686C210.877 138.434 209.672 158.112 211.769 178.735C212.313 185.593 214.885 192.72 215.595 199.474C217.44 217.039 223.131 233.905 223.763 251.583C224.283 266.117 217.565 270.391 208.829 279.506C206.19 280.185 198.916 283.463 198.952 283.463C195.049 283.506 188.504 283.168 184.487 283.167C159.365 283.161 140.994 281.398 117.963 294.142C109.808 298.655 111.962 297.948 105.194 303.761C92.1983 314.926 83.3124 329.52 78.3034 345.845C77.0504 349.928 75.8653 353.958 75.4853 358.363C73.9803 375.828 74.2644 394.074 74.2734 411.647C74.2804 424.236 74.2903 438.823 75.9513 451.2C76.7213 456.936 81.3463 469.287 84.1413 474.702C96.1704 498.004 114.435 514.169 140.127 520.398C149.387 522.644 158.803 522.696 168.207 522.62C174.633 522.568 181.272 522.643 187.68 522.763C189.042 522.788 198.169 522.121 198.56 522.281C201.792 523.603 205.068 525.257 209.06 526.518C212.364 530.885 219.233 534.793 221.79 542.044C227.017 557.463 220.271 575.038 218.108 590.366C216.222 603.73 212.835 617.076 211.423 630.274C210.272 641.028 210.572 656.46 212.473 667.064C215.106 681.757 220.317 698.338 227.345 711.585C236.273 725.405 257.526 742.237 271.34 751.711C277.334 755.821 285.25 759.739 291.657 764.104L282.342 761.134C162.305 720.019 71.3603 626.861 35.5933 504.992C-16.6162 327.101 73.2644 136.74 240.068 58.8297C262.644 48.2847 283.29 40.9227 307.343 34.0957Z" fill="#F3D3CA"/>
<path d="M149.52 176.097C183.909 172.83 210.028 209.479 208.977 241.529C208.141 267.019 201.208 272.008 175.881 271.858C165.753 270.958 157.821 269.406 147.417 263.853C127.145 253.034 109.679 226.476 118.038 203.002C119.99 197.522 130.25 199.175 134.341 198.357C140.936 197.039 136.277 184.073 139.748 180.182C142.383 177.058 145.735 176.546 149.52 176.097Z" fill="#FEFEFE"/>
<path d="M175.072 531.131C182.731 530.455 196.869 531.647 202.612 537.217C207.908 542.353 208.864 555.207 208.959 562.189C209.34 590.057 191.071 619.29 163.04 625.896C158.808 626.892 154.604 626.924 150.268 626.89C146.999 626.522 143.637 625.999 140.965 623.963C137.132 621.042 138.616 614.868 138.17 610.298C137.116 599.48 126.511 607.499 119.841 602C117.106 599.745 116.292 595.635 116.07 592.181C115.146 577.747 119.943 564.704 129.368 553.856C141.738 539.617 156.445 532.564 175.072 531.131Z" fill="#FEFEFE"/>
<path d="M549.203 46.9004C550.521 47.0524 552.048 47.6834 553.29 48.1704C647.453 85.4254 721.571 155.333 763.594 247C843.517 421.337 775.305 629.276 611.095 726.233C595.373 735.516 580.572 742.849 563.914 750.393C564.054 748.871 573.544 742.078 575.381 740.708C582.774 735.198 588.988 729.059 595.518 722.688C606.425 712.047 610.71 699.361 615.12 685.178C623.563 658.365 622.282 632.732 616.272 605.588C615.188 600.693 614.659 594.452 613.644 589.338C611.393 578.005 608.53 566.046 608.214 554.461C607.785 538.764 614.379 535.711 623.112 526.322C625.649 525.65 633.085 522.319 633.186 522.326C638.065 522.656 643.756 522.627 648.558 522.648C672.98 522.757 691.439 524.162 713.699 511.851C720.151 508.282 720.816 507.172 726.248 502.56C739.717 491.125 748.885 475.868 753.943 459.032C755.068 455.289 756.084 451.476 756.447 447.472C757.636 434.348 757.662 420.583 757.62 407.357C757.566 390.456 758.084 371.866 756.047 355.168C755.32 349.211 750.554 336.491 747.826 331.203C733.523 303.479 710.565 286.397 679.153 283.512C671.783 282.835 664.03 283.457 656.428 283.23C649.059 283.01 640.434 283.229 633.05 283.512C633.546 283.493 624.506 279.856 622.944 279.366C619.502 275.008 612.867 271.04 610.383 264.5C604.744 248.978 611.581 231.215 613.769 215.744C615.694 202.134 619.064 188.665 620.527 175.181C621.686 164.499 621.314 148.846 619.364 138.297C616.685 123.807 611.564 107.553 604.721 94.4184C596.349 81.0964 575.105 64.2994 561.961 55.0624C558.407 52.5644 553.041 49.4804 549.203 46.9004Z" fill="#F3D3CA"/>
<path d="M646.746 531.13C682.155 527.535 720.313 560.113 713.078 597.142C711.239 606.555 699.916 602.723 694.291 604.979C691.298 606.179 691.963 617.696 690.983 621.465C689.927 622.738 688.626 623.928 687.431 625.083C685.619 625.813 683.974 626.264 682.061 626.528C650.898 630.837 625.07 600.757 621.638 571.925C620.452 561.961 620.353 546.818 626.432 538.153C630.041 533.01 640.875 531.649 646.746 531.13Z" fill="#FEFEFE"/>
<path d="M672.52 176.118C679.924 175.351 685.996 175.472 691.009 181.452C692.346 186.785 691.604 191.513 692.651 196.85C696.771 199.76 704.285 197.418 710.471 200.961C718.118 211.693 712.343 232.508 705.391 242.633C694.747 258.133 681.204 267.01 662.899 270.774C652.456 272.566 637.227 272.8 628.131 266.376C623.252 262.531 622.142 254.208 621.402 248.588C617.221 216.818 638.639 179.616 672.52 176.118Z" fill="#FEFEFE"/>
</svg>
