<svg width="595" height="483" viewBox="0 0 595 483" fill="none" xmlns="http://www.w3.org/2000/svg">
<rect width="595" height="483" fill="white"/>
<path d="M302.208 0.130005L305.588 0.5L308.218 0.23999L314.468 0.529999L329.018 1.72L343.518 3.62L353.718 5.44L363.808 7.72L369.268 9.16L369.528 9.35999L369.568 9.69L351.788 76.06L345.588 76.85L338.508 77.12H301.338L301.328 0.48999L301.438 0.139984L301.808 0L301.908 0.00997925L302.208 0.130005Z" fill="#E44349"/>
<path d="M308.221 0.240845L305.591 0.500854L302.211 0.130859L308.221 0.240845Z" fill="#EA7A4A"/>
<path d="M293.859 107.481L293.519 57.9408L293.449 1.53079L293.179 0.870789L292.519 0.59079L282.449 0.380798L293.449 0.300781L294.049 0.540802L294.289 1.14078L294.319 103.651L294.209 105.791L293.859 107.481Z" fill="#EC9940"/>
<path d="M282.452 0.380859L292.522 0.590851L293.182 0.87085L293.452 1.53085L293.522 57.9409L293.702 73.6508L293.232 76.9008L292.942 77.2708L292.472 77.2809L291.812 76.9908L291.282 76.8308L290.942 76.8109L243.872 77.1508L225.602 10.3008L225.612 9.84085L225.942 9.53085L229.712 8.02084L234.432 6.77084L250.032 3.76083L264.562 1.62085L271.382 1.03085L282.452 0.380859Z" fill="#E44349"/>
<path d="M236.15 76.4395L228.53 76.8894L219.69 77.0094L176.791 76.7195L155.601 37.3894L155.52 36.9894L155.8 36.6794L156.791 36.1094L163.19 32.5695L169.701 29.2294L176.321 26.0794L183.06 23.1194L189.9 20.3495L196.851 17.7794L203.92 15.3994L211.09 13.2094L217.851 11.1895L218.39 11.2294L218.731 11.6494L218.74 11.6694L236.15 76.4395Z" fill="#E44349"/>
<path d="M418.67 76.3199L411.95 76.9199L405.28 77.1599L382.35 77.1099L359.16 76.4199L376.49 12.3299L376.91 11.7699L377.6 11.6699L385.49 13.7299L399.66 18.6999L407.5 21.5999L413.61 24.1899L426.15 30.2299L439.28 37.0299L439.59 37.3999L439.54 37.8799V37.8899L418.67 76.3199Z" fill="#E44349"/>
<path d="M168.783 76.8613L146.553 76.9313L135.913 77.0313L126.563 76.9213L104.163 76.4613L99.7031 76.0813L107.113 69.5813L114.713 63.3713L122.513 57.4513L130.503 51.8313L139.133 46.2213L147.973 40.9413H147.983L148.613 40.8613L149.113 41.2613L168.783 76.8613Z" fill="#E44349"/>
<path d="M495.88 76.8L464.35 77.16L432.92 76.85L430.211 76.59L426.98 75.93L445.81 42.06L446.12 41.76L446.55 41.75L448.32 42.38L450.16 43.32L462.35 50.9L474.03 59L485.211 67.64L495.88 76.8Z" fill="#E44349"/>
<path d="M293.861 107.479L293.701 117.709L284.001 118.019L274.281 118.129L254.811 117.749L243.871 77.1494L290.941 76.8094L291.281 76.8294L291.811 76.9894L292.471 77.2794L292.521 77.2994L292.961 77.2594L293.231 76.8994L293.701 73.6494L293.521 57.9395L293.861 107.479Z" fill="#E76046"/>
<path d="M351.788 76.0605L340.428 117.431L301.328 117.901L301.338 77.1205H338.508L345.588 76.8506L351.788 76.0605Z" fill="#E76046"/>
<path d="M418.672 76.3203L395.212 118.26L348.062 117.72L359.163 76.4203L382.353 77.1103L405.283 77.1603L411.952 76.9203L418.672 76.3203Z" fill="#E76046"/>
<path d="M426.978 75.9297L430.208 76.5897L432.918 76.8497L464.348 77.1597L495.878 76.7997L498.928 79.9997L499.108 80.3697L498.928 80.7497L464.198 117.18L458.198 117.61L431.008 117.96L403.648 117.76L426.978 75.9297Z" fill="#E76046"/>
<path d="M99.7 76.0801L104.16 76.4601L126.56 76.9201L135.91 77.0301L146.55 76.9301L168.78 76.8601L191.07 117.41L131.77 117.92L96.19 80.4501L96 80.0501L96.2 79.6301L99.7 76.0801Z" fill="#E76046"/>
<path d="M247.059 116.669L241.809 117.329L236.539 117.689L233.559 117.769L209.069 117.879L204.549 118.029L199.859 118.489L176.789 76.7195L219.689 77.0094L228.529 76.8894L236.149 76.4395L247.059 116.669Z" fill="#E76046"/>
<path d="M120.869 117.101L116.729 117.511L89.2687 117.891L61.7188 117.711L67.9888 109.571L73.1488 103.391L78.5187 97.3809L84.1088 91.5309L89.8988 85.8608L90.3888 85.6309L90.8488 85.8809L120.869 117.101Z" fill="#E76046"/>
<path d="M532.83 117.13L523.31 117.71L513.82 117.87L482.15 117.7L478.78 117.37L474.91 116.44L504.28 86.2898L504.94 86.0098L505.6 86.2898L518.33 99.6198L525.78 108.17L532.83 117.13Z" fill="#E76046"/>
<path d="M474.909 116.439L478.779 117.369L482.149 117.699L513.819 117.869L523.309 117.709L532.829 117.129L547.189 137.299L547.319 137.739L547.039 138.089L525.919 151.489L441.039 150.749L474.909 116.439Z" fill="#EA7A4A"/>
<path d="M247.059 116.67L256.439 150.67L254.019 151.26L251.969 151.42L235.519 151.19L218.949 151.56L199.859 118.49L204.549 118.03L209.069 117.88L233.559 117.77L236.539 117.69L241.809 117.33L247.059 116.67Z" fill="#EA7A4A"/>
<path d="M120.871 117.1L154.871 151.02L150.811 151.43L76.2812 151.33L69.7213 151.73L48.8913 138.32L48.5312 137.81L48.6314 137.19L55.0414 127.01L61.7213 117.71L89.2713 117.89L116.731 117.51L120.871 117.1Z" fill="#EA7A4A"/>
<path d="M464.201 117.18L429.971 151.58L410.741 151.18L391.831 151.17L388.751 151L385.121 150.44L403.651 117.76L431.011 117.96L458.201 117.61L464.201 117.18Z" fill="#EA7A4A"/>
<path d="M191.071 117.41L209.84 150.51L164.67 151.27L131.77 117.92L191.071 117.41Z" fill="#EA7A4A"/>
<path d="M340.431 117.43L330.951 152.47L328.351 151.58L325.201 151.25L301.281 151.27L301.331 117.9L340.431 117.43Z" fill="#EA7A4A"/>
<path d="M293.702 117.711L293.353 151.361L264.122 151.191L254.812 117.751L274.283 118.131L284.003 118.021L293.702 117.711Z" fill="#EA7A4A"/>
<path d="M395.212 118.261L376.162 151.331L352.802 151.241L346.072 150.981L339.172 150.231L348.062 117.721L395.212 118.261Z" fill="#EA7A4A"/>
<path d="M152.389 209.821L130.949 209.551L109.559 209.671L90.5586 209.791L65.3086 209.611L60.1887 209.561L52.7486 209.621L45.8686 209.931L39.5487 210.501L33.7786 211.331L18.0986 207.291L17.5986 207.051L17.2386 206.641L17.0586 206.111L17.0986 205.561V205.551L19.0986 198.781L21.2586 192.251L23.5787 185.951L26.0586 179.881L31.6287 167.431L37.1686 156.021L40.4786 150.091L44.0586 144.871L44.3886 144.631L44.7786 144.731L152.389 209.821Z" fill="#EC9940"/>
<path d="M554.349 149.781L552.669 150.281L551.019 150.571L549.409 150.641L547.829 150.501L545.809 149.991L543.859 149.111L550.689 145.121L551.099 145.031L551.419 145.291L554.349 149.781Z" fill="#EA7A4A"/>
<path d="M543.859 149.111L545.809 149.991L547.829 150.501L549.409 150.641L551.019 150.571L552.669 150.281L554.349 149.781L559.919 159.391L564.799 169.321L566.429 173.081L570.609 183.491L574.899 195.111L576.899 201.241L578.369 206.861L578.329 207.251L577.989 207.461L569.099 209.681L563.649 210.031L558.109 210.361L552.989 210.181L543.399 209.901L529.629 209.751L489.559 209.841L475.139 209.891L442.699 210.181L543.859 149.111Z" fill="#EC9940"/>
<path d="M209.842 150.51L234.252 192.59L234.422 193.57L233.902 194.42L221.352 204.33L220.462 204.67L219.602 204.28L208.562 194.16L198.572 184.64L164.672 151.27L209.842 150.51Z" fill="#EC9940"/>
<path d="M376.159 151.33L369.179 164.06L361.749 176.44L358.469 182.33L356.869 184.81L354.489 187.83L353.949 188.19H353.499L352.989 187.96L352.769 187.73L352.749 187.16L352.849 186.83L353.989 183.63L355.139 181.05L355.939 178.48L356.399 175.92L356.509 173.37L356.279 170.83L355.699 168.3L354.769 165.78L353.499 163.26L351.209 160.03L348.299 157.27L346.709 156.15L345.009 155.2L343.319 154.49L341.549 153.97L338.849 153.12L338.549 152.87L338.539 152.48L339.169 150.23L346.069 150.98L352.799 151.24L376.159 151.33Z" fill="#EC9940"/>
<path d="M429.971 151.579L375.461 204.999L374.901 205.239L374.321 205.049L361.341 194.529L360.871 194.019L360.641 193.469L360.661 192.869L360.921 192.239L385.121 150.439L388.751 150.999L391.831 151.169L410.741 151.179L429.971 151.579Z" fill="#EC9940"/>
<path d="M441.042 150.75L525.922 151.49L427.482 210.92L423.882 210.39L421.002 210.16L400.732 209.83L389.672 209.51L387.852 209.4L385.132 209.06L382.352 208.39L441.042 150.75Z" fill="#EC9940"/>
<path d="M218.949 151.56L235.519 151.19L251.969 151.42L254.019 151.26L256.439 150.67L257.009 152.3L256.949 153.05L256.339 153.5L256.239 153.52L253.419 153.92L250.669 154.52L248.459 155.59L245.329 157.97L243.979 159.05L242.689 160.17L241.689 161.33L240.279 163.53L239.059 165.94L238.139 168.39L237.479 170.93L237.169 173.29L237.149 175.64L237.439 177.81L238.059 179.91L240.199 185.11L240.259 185.65L240.249 185.67L240.179 185.82L240.079 185.92L239.829 186.02L239.589 185.86L234.489 178.79L230.579 172.62L218.949 151.56Z" fill="#EC9940"/>
<path d="M154.869 151.02L178.699 174.99L195.089 190.87L206.269 201.45L213.819 208.88L210.749 209.98L208.049 210.26L197.379 209.86L186.709 209.8L178.409 209.98L170.109 210.36L168.189 210.23L165.109 209.71L69.7188 151.73L76.2787 151.33L150.809 151.43L154.869 151.02Z" fill="#EC9940"/>
<path d="M293.351 151.359L293.171 180.009L292.901 180.639L292.261 180.889L288.791 180.949L285.411 181.289L282.131 181.879L278.951 182.749L278.811 182.779L278.311 182.579L278.161 182.069L279.091 176.279L279.291 174.089L279.261 171.959L279.011 169.889L278.551 167.889L277.291 164.689L275.481 161.739L273.131 159.069L270.301 156.699L268.601 155.639L266.821 154.549L265.601 153.579L264.701 152.519L264.191 151.429L264.121 151.189L293.351 151.359Z" fill="#EC9940"/>
<path d="M330.951 152.47L327.671 154.4L324.581 156.59L321.521 159.19L319.621 161.15L318.101 163.13L316.941 165.15L316.151 167.2L315.511 169.94L315.211 172.7L315.391 176.86L316.331 181.06L316.251 181.63L315.761 181.93H315.631L301.921 180.74L301.141 180.41L300.891 179.6L301.281 151.27L325.201 151.25L328.351 151.58L330.951 152.47Z" fill="#EC9940"/>
<path d="M348.98 166.841L347.11 164.471L345.09 162.561L342.92 161.111L340.61 160.121L338.8 159.681L336.92 159.501L333.65 159.721L330.65 160.581L327.85 162.121L325.32 164.341L323.97 166.031L322.96 167.871L322.18 170.241L321.86 172.811L322.01 175.591L322.62 178.571L321.68 175.401L321.52 172.111L321.94 169.601L322.81 167.211L324.11 165.011L325.79 163.071L327.37 161.761L329.14 160.681L331.04 159.861L333.05 159.311L336.08 159.031L339.1 159.361L342.15 160.371L344.9 162.021L347.21 164.211L348.98 166.841Z" fill="#EA7A4A"/>
<path d="M265.679 161.03L261.569 159.92L259.519 159.66L257.479 159.61L254.449 159.9L257.309 159.4L260.199 159.42L263.029 159.97L265.679 161.03Z" fill="#787D71" fill-opacity="0.996"/>
<path d="M348.979 166.84L349.729 168.55L350.249 170.34L350.519 172.18L350.539 174.04L350.289 175.97L349.509 177.99L348.559 179.82L347.429 181.47L346.109 182.94L344.579 184.26L342.849 185.39L340.929 186.32L338.829 187.06L336.279 187.32L333.729 187.13L328.009 184.93L326.319 183.65L324.829 182.14L323.589 180.44L322.619 178.57L322.009 175.59L321.859 172.81L322.179 170.24L322.959 167.87L323.969 166.03L325.319 164.34L327.849 162.12L330.649 160.58L333.649 159.72L336.919 159.5L338.799 159.68L340.609 160.12L342.919 161.11L345.089 162.56L347.109 164.47L348.979 166.84Z" fill="#072931"/>
<path d="M265.681 161.031L265.851 161.121L267.961 162.811L269.701 164.651L271.061 166.621L272.041 168.721L272.651 170.911L272.891 173.231L272.781 175.671L272.321 178.251L271.411 180.101L270.231 181.821L268.811 183.371L267.171 184.711L262.971 186.181L261.061 186.731L259.011 186.951L254.881 187.271L252.651 186.641L250.561 185.681L248.191 183.491L246.361 181.201L245.061 178.811L244.291 176.311L244.051 173.661L244.361 170.911L245.161 168.291L246.391 165.951L247.871 164.091L249.711 162.461L251.901 161.061L254.451 159.901L257.481 159.611L259.521 159.661L261.571 159.921L265.681 161.031Z" fill="#072931"/>
<path d="M254.453 159.9L251.903 161.06L249.713 162.46L247.873 164.09L246.393 165.95L245.163 168.29L244.363 170.91L244.053 173.66L244.293 176.31L245.063 178.81L246.363 181.2L248.193 183.49L250.563 185.68L247.983 183.86L245.893 181.55L244.393 178.85L243.553 175.91L243.383 174.04L243.473 172.17L243.823 170.32L244.433 168.52L245.283 166.81L246.363 165.22L247.663 163.78L249.143 162.5L251.663 160.95L254.453 159.9Z" fill="#EA7A4A"/>
<path d="M272.322 178.251L272.782 175.671L272.892 173.231L272.652 170.911L272.042 168.721L271.062 166.621L269.702 164.651L267.962 162.811L265.852 161.121L268.542 162.951L270.722 165.311L272.282 168.071L273.142 171.111L273.302 172.911L273.222 174.721L272.892 176.511L272.322 178.251Z" fill="#787D71" fill-opacity="0.996"/>
<path d="M350.288 175.971L349.718 177.981L348.858 179.891L347.708 181.651L346.308 183.221L344.678 184.581L342.858 185.681L340.898 186.521L338.828 187.061L340.928 186.321L342.848 185.391L344.578 184.261L346.108 182.941L347.428 181.471L348.558 179.821L349.508 177.991L350.288 175.971Z" fill="#236391"/>
<path d="M267.173 184.711L264.063 186.411L261.363 187.241L258.563 187.581L256.713 187.531L254.883 187.271L259.013 186.951L261.063 186.731L262.973 186.181L267.173 184.711Z" fill="#787D71" fill-opacity="0.996"/>
<path d="M333.732 187.13L330.752 186.33L328.012 184.93L333.732 187.13Z" fill="#787D71" fill-opacity="0.996"/>
<path d="M258.37 195.501L257.37 195.791L256.48 195.451L257.22 195.211L258.37 195.501Z" fill="#787D71" fill-opacity="0.996"/>
<path d="M336.359 195.5L335.379 195.71L334.039 195.49L335.259 195.26L336.289 195.47L336.359 195.5Z" fill="#787D71" fill-opacity="0.996"/>
<path d="M256.482 195.451L257.372 195.791L258.372 195.501L260.952 195.851L267.072 198.791L269.182 200.881L270.972 203.441L273.072 211.511L273.202 224.911L273.022 226.391L272.992 228.441L273.282 230.061L274.022 231.711L278.342 238.481L281.882 243.191L285.742 247.681L286.762 248.591L287.062 249.151L292.552 255.591L293.022 256.171L293.322 256.821L293.852 257.091L294.022 257.391L294.342 258.111L294.772 258.401L295.432 259.941L295.572 261.451L295.142 263.041L294.092 264.591L293.572 265.131L292.672 265.621L289.712 266.411L286.812 263.981L284.002 261.201L281.272 258.081L278.632 254.621L278.392 254.651L277.742 254.261L277.132 253.171L273.402 247.941L273.032 247.661L272.592 247.741L272.232 248.081L272.212 248.581L272.532 249.221L272.312 249.861L271.642 253.141L271.542 255.081L271.672 257.041L271.612 257.431L271.592 259.631L272.112 261.891L272.462 262.931L273.452 265.081L274.762 267.101L275.552 268.281L276.102 269.681L279.322 278.081L282.072 286.691L284.352 295.501L286.162 304.511L286.502 304.961L286.672 305.651L286.562 306.481L286.662 309.111L286.992 311.701L287.922 315.561L288.492 317.621L288.552 319.621L288.682 324.671L284.922 325.441L283.642 325.291L282.312 325.361L279.502 326.171L279.002 326.471L278.532 326.531L277.992 326.251L277.512 325.581L276.732 323.071L275.312 317.611L273.622 312.371L271.682 307.331L269.472 302.511L269.192 302.191L268.842 302.101L268.912 301.611L267.932 299.001L266.392 296.521L266.322 296.731L266.162 296.431L261.982 290.121L261.332 289.751L260.652 290.061L260.522 290.291L259.272 293.511L256.892 298.821L254.142 303.971L251.032 308.981L247.552 313.841L242.792 319.741L237.532 325.101L233.162 328.861L233.142 328.881L232.332 329.081L231.632 328.641L225.512 320.081L225.262 319.281L225.532 318.481L233.452 308.011L234.102 307.631L234.512 307.121L234.672 306.071L236.752 302.091L238.092 299.821L239.322 296.901L240.762 292.491L241.832 288.151L242.542 283.901L242.882 279.721L243.292 273.161L243.052 266.661L242.832 264.491L242.052 256.111L241.942 255.831L242.072 253.441L241.952 251.081L241.242 247.381L240.862 243.521L241.032 241.511L240.902 239.541L240.392 237.351L239.852 229.481L240.382 228.341L240.552 227.411L240.492 226.431L240.332 226.071L240.062 226.361L239.702 227.271L238.252 232.091L237.182 236.771L236.392 241.521L235.902 246.351L235.712 251.261L235.812 263.201L235.172 264.681L234.402 265.641L233.392 266.441L232.122 267.091L230.612 267.581L228.992 267.051L228.582 266.661L227.432 265.151L226.622 263.321L226.152 261.151L226.012 258.651L226.462 248.761L227.582 239.261L229.362 230.161L231.812 221.451L237.752 208.891L238.322 208.321L239.412 206.851L240.222 205.131L240.272 204.931L240.732 204.461L245.562 199.911L245.532 199.821L245.762 199.491L246.512 199.121L247.702 198.771L248.442 198.131L248.582 197.871L249.532 197.681L250.242 197.241L250.542 196.871L253.012 196.401L254.362 195.801L255.292 195.561L256.482 195.451Z" fill="#072931"/>
<path d="M334.042 195.49L335.382 195.71L336.362 195.5L338.562 195.74L346.322 200.05L347.862 201.77L349.032 203.63L350.042 206.17L350.832 208.76L351.612 212.89L351.862 217.15L351.532 228.16L351.672 229.78L352.282 231.45L353.352 233.14L354.902 234.88L361.132 243.18L364.172 247.45L367.442 251.52L372.832 257.31L373.802 258.74L374.332 260.25L374.372 262.32L373.822 262.89L373.172 263.84L372.692 264.94L370.902 265.89L369.122 266.19L367.902 266.02L366.682 265.54L364.832 264.19L363.062 262.13L351.612 247.49L351.082 247.14L350.442 247.2L350.412 247.21L350.252 247.9L350.542 248.58L350.852 248.73L350.392 249.61L350.342 250.91L349.862 254.17L349.642 256.97L349.672 259.29L349.972 261.15L350.592 262.88L351.782 265.41L355.832 272.89L355.902 273.01L356.062 273.66L359.692 283.89L362.762 294.28L364.562 301.61L366.092 309.01L367.522 314.09L368.432 319.23L368.632 321.03L368.552 322.89L368.132 324.38L367.862 324.73L367.512 324.88L359.922 326.53L358.972 326.38L358.372 325.64L355.552 317.5L352.362 309.68L348.802 302.16L344.862 294.95L344.582 294.67L344.462 294.64L344.212 294.72L344.282 294.69L344.092 294.47L342.962 292.23L341.842 290.7L340.502 289.3L340.152 289.16L339.792 289.3L339.562 289.63L339.512 289.9L338.942 291.72L338.242 293.03L335.472 298.74L332.432 304.29L327.992 311.45L323.082 318.35L318.022 323.67L312.292 328.56L310.752 327.67L310.622 327.41L310.142 326.33L309.432 325.6L309.032 325.39L308.472 324.91L308.192 324.36L308.162 324.12L307.432 322.8L306.492 321.72L305.602 321.04L305.072 320.76L304.742 320.37L304.632 319.4L304.662 319.24L305.282 317.87L306.502 316.64L309.452 313.03L312.072 309.28L314.372 305.38L316.332 301.34L318.042 296.92L319.382 292.33L320.352 287.59L320.962 282.68L320.972 281.22L321.232 279.91L321.602 277.92L321.842 275.55L321.882 273.15L321.712 270.71L321.332 268.25L320.872 263.51L319.322 247.07L318.782 242.07L319.022 240.13L318.982 238.21L318.332 235.16L317.942 228.76L318.252 228.03L318.282 226.79L318.072 226.3L317.822 226.77L316.152 233.12L314.902 239.31L314.082 245.35L313.682 251.23L313.472 255.21L313.742 260.72L313.862 263.02L313.622 264.56L313.142 265.56L312.482 266.35L311.602 266.96L310.512 267.34L309.052 267.27L307.782 266.99L306.692 266.53L305.792 265.86L304.712 264.31L304.142 262.21L303.852 261.22L304.132 258.52L303.912 256.84L304.122 250.87L304.572 249.28L304.592 247.76L304.452 247.07L304.482 246.73L304.662 246.55L304.692 246.52V246.5L305.742 238.54L307.472 229.92L309.802 221.4L310.442 220.56L310.822 219.65L310.952 218.44L311.272 217.29L311.772 216.24L311.782 216.22L312.802 214.98L313.152 213.37L315.442 208.69L317.362 205.71L319.572 202.91L321.272 201.13L323.072 199.6L324.992 198.3L327.012 197.24L330.392 196.07L334.042 195.49Z" fill="#072931"/>
<path d="M254.359 195.801L253.009 196.401L250.539 196.871L250.829 196.701L252.489 196.051L254.359 195.801Z" fill="#787D71" fill-opacity="0.996"/>
<path d="M346.323 200.05L338.562 195.74L341.112 196.37L343.372 197.46L344.932 198.62L346.323 200.05Z" fill="#787D71" fill-opacity="0.996"/>
<path d="M267.069 198.79L260.949 195.85L262.449 196.17L263.869 196.68L265.529 197.58L267.069 198.79Z" fill="#787D71" fill-opacity="0.996"/>
<path d="M250.538 196.871L250.238 197.241L249.528 197.681L248.578 197.871L248.968 197.551L250.538 196.871Z" fill="#236391"/>
<path d="M248.582 197.871L248.442 198.131L247.702 198.771L246.512 199.121L247.172 198.571L248.582 197.871Z" fill="#236391"/>
<path d="M245.56 199.91L240.73 204.46L241.59 203.14L242.6 201.98L243.98 200.84L245.56 199.91Z" fill="#787D71" fill-opacity="0.996"/>
<path d="M270.973 203.439L272.373 206.189L272.993 208.749L273.073 211.509L270.973 203.439Z" fill="#787D71" fill-opacity="0.996"/>
<path d="M349.031 203.631L350.271 205.721L351.181 207.761L351.751 209.751L352.001 211.681L352.381 225.911L352.601 229.031L353.391 231.941L354.901 234.881L353.351 233.141L352.281 231.451L351.671 229.781L351.531 228.161L351.861 217.151L351.611 212.891L350.831 208.761L350.041 206.171L349.031 203.631Z" fill="#787D71" fill-opacity="0.996"/>
<path d="M237.75 208.891L238.81 206.941L240.22 205.131L239.41 206.851L238.32 208.321L237.75 208.891Z" fill="#787D71" fill-opacity="0.996"/>
<path d="M382.349 208.391L385.129 209.061L387.849 209.401L389.669 209.511L400.729 209.831L420.999 210.161L423.879 210.391L427.479 210.921L395.719 229.681L395.239 229.601L380.859 211.381L380.539 210.521L380.979 209.711L382.349 208.391Z" fill="#EDB833"/>
<path d="M213.819 208.881L214.409 209.401L214.639 209.961L214.289 210.871L207.049 220.111L200.389 229.451L199.709 229.981L198.859 229.791L165.109 209.711L168.189 210.231L170.109 210.361L178.409 209.981L186.709 209.801L197.379 209.861L208.049 210.261L210.749 209.981L213.819 208.881Z" fill="#EDB833"/>
<path d="M237.753 208.891L231.812 221.451L233.402 216.921L235.452 212.641L237.753 208.891Z" fill="#787D71" fill-opacity="0.996"/>
<path d="M569.101 209.68L546.251 216.34L531.771 220.33L506.901 226.9L481.621 233.84L462.331 239.07L409.561 253.38L406.901 253.98L406.001 253.8L405.391 253.12L398.501 237.51L398.391 236.48L399.091 235.71L442.701 210.18L475.141 209.89L489.561 209.84L529.631 209.75L543.401 209.9L552.991 210.18L558.111 210.36L563.651 210.03L569.101 209.68Z" fill="#EDB833"/>
<path d="M152.391 209.821L195.631 235.791L196.151 236.211L196.431 236.701L196.481 237.261L196.301 237.901L189.451 253.461L189.181 253.781L188.761 253.821L183.851 252.511L179.451 251.311L171.311 249.361L160.441 246.401L147.631 242.951L131.921 238.781L79.0513 224.171L41.2113 214.041L37.7012 212.941L33.7812 211.331L39.5513 210.501L45.8713 209.931L52.7514 209.621L60.1913 209.561L65.3113 209.611L90.5613 209.791L109.561 209.671L130.951 209.551L152.391 209.821Z" fill="#EDB833"/>
<path d="M311.781 216.221L313.151 213.371L312.801 214.981L311.781 216.221Z" fill="#787D71" fill-opacity="0.996"/>
<path d="M88.3898 234.04L87.8298 234.65L86.1898 235.55L84.0099 235.85L22.4698 235.58L17.0898 235.78L13.3898 235.69L9.83984 235.14L14.0298 216.76L14.4398 215.43L15.0598 214.23L15.3298 214.01L15.6798 213.99L88.3898 234.04Z" fill="#EC9940"/>
<path d="M585.19 235.3L546.82 235.86L508.62 235.97L506.74 235.52L506.48 235.32L506.66 235.06L508.48 233.65L578.38 214.63L579.18 214.57L579.93 214.83L580.53 215.36L580.87 216.08L580.88 216.13L585.19 235.3Z" fill="#EC9940"/>
<path d="M309.801 221.399L310.951 218.439L310.821 219.649L310.441 220.559L309.801 221.399Z" fill="#787D71" fill-opacity="0.996"/>
<path d="M231.808 221.451L229.358 230.161L227.578 239.261L226.458 248.761L226.008 258.651L226.148 261.151L226.618 263.321L227.428 265.151L228.578 266.661L228.988 267.051L228.008 266.871L227.238 266.431L226.468 265.251L225.948 263.371L225.608 261.401L225.488 257.161L225.748 253.121L226.598 242.901L227.678 235.481L229.438 228.271L231.808 221.451Z" fill="#787D71" fill-opacity="0.996"/>
<path d="M309.8 221.4L307.47 229.92L305.74 238.54L304.69 246.5V246.52L304.66 246.55L304.48 246.73L304.76 242.38L305.28 238.09L306.04 233.86L307.03 229.7L308.29 225.52L309.8 221.4Z" fill="#787D71" fill-opacity="0.996"/>
<path d="M273.198 224.91L273.528 228.14L274.408 231.15L276.008 234.19L280.348 240.44L285.738 247.68L281.878 243.19L278.338 238.48L274.018 231.71L273.278 230.06L272.988 228.44L273.018 226.39L273.198 224.91Z" fill="#787D71" fill-opacity="0.996"/>
<path d="M239.851 229.48L238.351 234.77L237.161 240.16L236.281 245.66L235.711 251.26L235.901 246.35L236.391 241.52L237.181 236.77L238.251 232.09L239.701 227.27L240.061 226.36L240.331 226.07L240.491 226.43L240.551 227.41L240.381 228.34L239.851 229.48Z" fill="#787D71" fill-opacity="0.996"/>
<path d="M317.94 228.761L316.12 235.951L314.67 243.541L313.68 251.231L314.08 245.351L314.9 239.311L316.15 233.121L317.82 226.771L318.07 226.301L318.28 226.791L318.25 228.031L317.94 228.761Z" fill="#787D71" fill-opacity="0.996"/>
<path d="M508.482 233.65L506.663 235.06L506.482 235.32L506.742 235.52L508.622 235.97L546.822 235.86L585.192 235.3L587.173 246.03L588.533 257.02L589.262 268.24L589.382 279.72L589.033 280.55L588.192 280.89H410.932L410.392 280.78L409.943 280.48L409.633 280.03L409.522 279.49L409.342 275.38L408.872 271.19L408.112 266.93L407.062 262.58L407.163 261.7L407.842 261.13L412.533 259.71L474.092 242.53L491.232 237.93L508.482 233.65Z" fill="#EDB833"/>
<path d="M88.3879 234.041L101.738 237.531L177.088 257.721L182.188 258.811L186.228 259.661L187.168 260.301L187.498 261.381L187.238 264.311L186.748 266.971L186.048 270.301L185.578 273.551L185.318 276.741L185.288 279.861L185.018 280.551L184.338 280.851H184.328L9.80797 281.031L8.02797 280.921L6.33797 280.591L5.64797 280.111L5.41797 279.301L7.17797 251.641L7.96797 245.501L9.83797 235.141L13.3879 235.691L17.0879 235.781L22.4679 235.581L84.0079 235.851L86.188 235.551L87.8279 234.651L88.3879 234.041Z" fill="#EDB833"/>
<path d="M318.78 242.07L318.5 240.67L318.23 237.94L318.331 235.16L318.98 238.21L319.021 240.13L318.78 242.07Z" fill="#787D71" fill-opacity="0.996"/>
<path d="M240.858 243.52L240.618 242.4L240.328 239.91L240.388 237.35L240.898 239.54L241.028 241.51L240.858 243.52Z" fill="#787D71" fill-opacity="0.996"/>
<path d="M372.833 257.31L367.443 251.52L364.173 247.45L361.133 243.18L372.833 257.31Z" fill="#787D71" fill-opacity="0.996"/>
<path d="M304.121 250.87L304.451 247.07L304.591 247.76L304.571 249.28L304.121 250.87Z" fill="#787D71" fill-opacity="0.996"/>
<path d="M363.06 262.131L359.84 258.571L356.78 254.871L353.9 251.051L353.01 250.031L351.97 249.251L350.85 248.731L350.54 248.581L350.25 247.901L350.41 247.211L350.44 247.201L351.08 247.141L351.61 247.491L363.06 262.131Z" fill="#787D71" fill-opacity="0.996"/>
<path d="M241.938 255.831L241.238 247.381L241.948 251.081L242.068 253.441L241.938 255.831Z" fill="#787D71" fill-opacity="0.996"/>
<path d="M277.131 253.17L275.121 251.1L273.871 249.37L273.331 248.85L273.061 248.83L272.531 249.22L272.211 248.58L272.231 248.08L272.591 247.74L273.031 247.66L273.401 247.94L277.131 253.17Z" fill="#787D71" fill-opacity="0.996"/>
<path d="M272.309 249.861L272.349 253.201L271.669 257.041L271.539 255.081L271.639 253.141L272.309 249.861Z" fill="#787D71" fill-opacity="0.996"/>
<path d="M350.341 250.91L350.161 254.57L350.311 258.16L350.911 261.15L352.211 264.48L355.831 272.89L351.781 265.41L350.591 262.88L349.971 261.15L349.671 259.29L349.641 256.97L349.861 254.17L350.341 250.91Z" fill="#787D71" fill-opacity="0.996"/>
<path d="M289.713 266.411L286.623 264.381L283.743 261.731L281.083 258.481L278.633 254.621L281.273 258.081L284.003 261.201L286.813 263.981L289.713 266.411Z" fill="#787D71" fill-opacity="0.996"/>
<path d="M242.831 264.491L242.491 262.431L242.431 261.441L242.051 256.111L242.831 264.491Z" fill="#787D71" fill-opacity="0.996"/>
<path d="M293.851 257.09L293.321 256.82L293.02 256.17L293.59 256.64L293.851 257.09Z" fill="#787D71" fill-opacity="0.996"/>
<path d="M303.852 261.22L303.512 259.48L303.582 258.17L303.912 256.84L304.132 258.52L303.852 261.22Z" fill="#787D71" fill-opacity="0.996"/>
<path d="M294.77 258.401L294.34 258.111L294.02 257.391L294.67 257.961L294.77 258.401Z" fill="#787D71" fill-opacity="0.996"/>
<path d="M294.09 264.59L295.14 263.04L295.57 261.45L295.43 259.94L294.77 258.4L295.94 260.05L296.2 260.84L296.23 261.62L296.05 262.39L295.63 263.15L294.09 264.59Z" fill="#787D71" fill-opacity="0.996"/>
<path d="M272.109 261.891L274.759 267.101L273.449 265.081L272.459 262.931L272.109 261.891Z" fill="#236391"/>
<path d="M310.511 267.341L309.011 267.591H307.711L306.621 267.341L305.721 266.831L305.021 266.061L304.521 265.041L304.231 263.751L304.141 262.211L304.711 264.311L305.791 265.861L306.691 266.531L307.781 266.991L309.051 267.271L310.511 267.341Z" fill="#787D71" fill-opacity="0.996"/>
<path d="M374.371 262.32L373.871 263.69L373.051 264.68L372.691 264.94L373.171 263.84L373.821 262.89L374.371 262.32Z" fill="#236391"/>
<path d="M235.809 263.201L235.739 264.501L235.309 265.581L234.589 266.371L233.569 266.971L232.239 267.371L230.609 267.581L232.119 267.091L233.389 266.441L234.399 265.641L235.169 264.681L235.809 263.201Z" fill="#787D71" fill-opacity="0.996"/>
<path d="M321.23 279.91L321.331 268.25L321.711 270.71L321.88 273.15L321.841 275.55L321.6 277.92L321.23 279.91Z" fill="#787D71" fill-opacity="0.996"/>
<path d="M286.162 304.51L284.352 295.5L282.072 286.69L279.322 278.08L276.102 269.68L277.832 272.81L278.872 275.1L281.062 281.42L282.922 287.84L284.802 296.1L286.162 304.51Z" fill="#787D71" fill-opacity="0.996"/>
<path d="M366.092 309.01L364.562 301.61L362.762 294.28L359.693 283.89L356.062 273.66L356.932 274.68L357.582 276.03L359.872 282.73L361.982 289.74L363.932 297.06L365.702 304.68L366.082 307.08L366.092 309.01Z" fill="#787D71" fill-opacity="0.996"/>
<path d="M236.75 302.091L238.56 297.471L240.1 292.781L241.74 286.321L242.88 279.721L242.54 283.901L241.83 288.151L240.76 292.491L239.32 296.901L238.09 299.821L236.75 302.091Z" fill="#787D71" fill-opacity="0.996"/>
<path d="M306.5 316.64L309.21 312.86L311.66 308.97L313.85 304.97L315.78 300.86L317.49 296.49L318.92 292.01L320.08 287.4L320.96 282.68L320.35 287.59L319.38 292.33L318.04 296.92L316.33 301.34L314.37 305.38L312.07 309.28L309.45 313.03L306.5 316.64Z" fill="#787D71" fill-opacity="0.996"/>
<path d="M185.198 298.14L184.468 289.71L184.058 288.88L183.198 288.54L165.738 288.41L184.138 288.26L184.848 288.55L185.148 289.25L185.198 298.14Z" fill="#787D71" fill-opacity="0.996"/>
<path d="M165.739 288.41L183.199 288.54L184.059 288.88L184.469 289.71L185.199 298.14L185.389 299.59L185.259 301.11L185.129 301.41L184.679 301.69L173.799 303.41L160.729 305.52L147.769 307.91L134.909 310.57L122.149 313.51L109.489 316.72L96.9396 320.21L84.4896 323.97L72.1496 328.01L63.1896 331.19L53.3895 334.93L37.6496 341.28L28.5396 345.38L16.4296 351L16.0496 351.01L15.7696 350.76L14.2796 347.48L13.3896 344.95L11.3096 336.77L9.55953 328.56L8.14952 320.3L7.05953 312.02L6.73952 308.94L6.71953 302.37L6.07953 295.89L5.77953 292.39L5.51953 288.89L165.739 288.41Z" fill="#236391"/>
<path d="M589.222 291.111L588.772 291.331L588.672 291.631L587.732 306.571L587.012 313.461L586.132 319.961L585.052 326.131L583.602 332.871L581.792 340.161L579.612 348.011L579.042 349.251L578.232 349.961L577.102 350.151L564.852 344.451L553.672 339.541L543.572 335.441L534.542 332.141L524.452 328.641L514.322 325.181L498.782 320.571L484.122 316.511L470.332 313.001L457.432 310.041L438.412 306.371L415.352 302.701L414.102 302.171L413.242 302.131L412.332 302.341L409.852 301.691L410.052 295.351L410.462 289.371L410.612 289.011L410.982 288.891H588.582L589.052 289.031L589.302 289.431L589.382 290.211L589.222 291.111Z" fill="#236391"/>
<path d="M5.51953 288.891L5.77953 292.391L6.07953 295.891L6.71953 302.371L6.73952 308.941L5.76953 298.871L5.51953 288.891Z" fill="#787D71" fill-opacity="0.996"/>
<path d="M344.092 294.47L339.512 289.9L339.562 289.63L339.792 289.3L340.152 289.16L340.502 289.3L341.842 290.7L342.962 292.23L344.092 294.47Z" fill="#787D71" fill-opacity="0.996"/>
<path d="M266.161 296.43L264.091 294.07L262.611 291.87L262.141 291.24L261.691 291.04L261.241 291.26L260.811 291.91L254.121 305.2L251.641 309.01L247.551 313.84L251.031 308.98L254.141 303.97L256.891 298.82L259.271 293.51L260.521 290.29L260.651 290.06L261.331 289.75L261.981 290.12L266.161 296.43Z" fill="#787D71" fill-opacity="0.996"/>
<path d="M589.222 291.111L589.292 294.121L589.142 297.791L587.922 310.911L585.992 323.821L583.352 336.511L580.002 349.001L579.632 350.211L579.412 350.581L578.972 350.771L578.832 350.791L577.982 350.661L577.102 350.151L578.232 349.961L579.042 349.251L579.612 348.011L581.792 340.161L583.602 332.871L585.052 326.131L586.132 319.961L587.012 313.461L587.732 306.571L588.672 291.631L588.772 291.331L589.222 291.111Z" fill="#787D71" fill-opacity="0.996"/>
<path d="M338.238 293.031L335.558 299.571L332.308 305.781L330.258 309.071L328.038 312.271L325.648 315.361L323.078 318.351L327.988 311.451L332.428 304.291L335.468 298.741L338.238 293.031Z" fill="#787D71" fill-opacity="0.996"/>
<path d="M368.631 321.031L369.181 322.591V324.041L369.041 324.541L368.801 324.901L368.401 325.101L359.881 326.951L359.211 326.971L358.581 326.751L358.061 326.311L357.741 325.721L355.391 318.851L352.851 312.131L349.771 305.471L344.211 294.721L344.461 294.641L344.581 294.671L344.861 294.951L348.801 302.161L352.361 309.681L355.551 317.501L358.371 325.641L358.971 326.381L359.921 326.531L367.511 324.881L367.861 324.731L368.131 324.381L368.551 322.891L368.631 321.031Z" fill="#787D71" fill-opacity="0.996"/>
<path d="M409.849 301.69L409.409 300.39L409.289 298.9L409.499 297.22L410.049 295.35L409.849 301.69Z" fill="#787D71" fill-opacity="0.996"/>
<path d="M268.911 301.61L268.081 300.44L267.101 298.57L266.391 296.52L267.931 299L268.911 301.61Z" fill="#787D71" fill-opacity="0.996"/>
<path d="M276.73 323.07L268.84 302.1L269.19 302.19L269.47 302.51L271.68 307.33L273.62 312.37L275.31 317.61L276.73 323.07Z" fill="#787D71" fill-opacity="0.996"/>
<path d="M415.348 302.701L413.788 302.681L412.328 302.341L413.238 302.131L414.098 302.171L415.348 302.701Z" fill="#787D71" fill-opacity="0.996"/>
<path d="M342.029 303.71L341.439 303.84L340.859 304.44L336.679 311.37L331.919 317.81L328.359 321.91L333.609 314.74L337.489 308.89L341.129 302.87L341.449 302.6L341.769 302.87L342.029 303.71Z" fill="#787D71" fill-opacity="0.996"/>
<path d="M269.52 320.499L274.26 339.369L276.09 348.139L276.41 349.769L276.93 351.169L277.63 352.339L278.53 353.279L279.65 354.009L280.96 354.499L281.14 354.539L283.35 354.849L285.66 354.719L288.08 354.149L290.6 353.149L297.91 349.769L298.77 349.629L299.33 349.869L299.84 350.389L300.1 350.749L301.37 352.069L302.95 353.139H302.99L303.54 353.329L304.07 353.769L304.58 354.469L305.13 354.869L307.47 355.819L309.79 356.459L312.1 356.799L314.39 356.829L317.86 356.299L321.3 355.049L323.27 353.499L324.99 351.24L325.7 348.639L325.75 347.409L325.59 346.219L324.86 344.329L323.55 342.559L321.66 340.93L319.18 339.419L315.15 336.709L315.16 335.829L315.24 335.409L315.52 334.979L319.3 331.119L328.36 321.909L331.92 317.809L336.68 311.369L340.86 304.439L341.44 303.839L342.03 303.709L342.38 304.109L343.11 306.169L344.05 308.099L345.73 310.609L351.69 326.819L352.2 329.729L352.93 332.169L353.92 334.539L355.7 341.459L356.03 344.979L356.74 348.169L357.85 351.009L359.35 353.519L360.91 354.349L362.3 354.859L363.52 355.069L364.56 354.969L366.21 354.639L367.79 354.529L370.12 354.139L372.71 353.089L373.64 352.549L375.3 352.129L382.9 349.369L390.34 346.149L392.08 345.219L393.56 344.199L394.76 343.079L395.7 341.859L396.38 340.539L396.79 339.169L396.92 337.759L396.79 336.299L396.38 334.779L395.71 333.219L394.91 331.919L393.95 330.839L392.55 329.769L390.98 329.009L389.13 328.499L387.18 328.289L385 328.339L382.64 328.699L380.28 329.339L378.1 330.189L377.59 330.299L377.09 330.189L376.68 329.879L376.44 329.419L376.4 329.24L375.65 323.599L374.67 318.059L373.47 312.609L372.04 307.259L371.28 304.319L371.31 303.909L371.69 303.749L373.2 303.809L374.54 304.169L395.58 306.289L416.51 309.089L418.58 309.399L419.27 309.349L421.38 309.459L423.5 309.939L458.35 316.469L458.85 316.529L458.99 316.629L460.81 317.279L462.55 317.409L469.66 319.069L476.01 320.579L476.3 320.869L477.26 321.299H478.56L478.83 321.399L493.57 325.419L493.62 325.449L495.2 326.159L497.08 326.399L497.89 326.559L497.98 326.619L505.35 328.839L508.71 329.809L530.03 337.189L530.19 337.139L530.78 337.189L531.46 337.589L555.52 347.109L556.62 347.49L556.77 347.589L562.58 350.139L567.93 352.499L569.9 353.729L571.95 354.74L574.81 355.769L591.95 364.269L593.19 364.999L593.53 365.509L592.99 365.829L591.56 365.93L312.56 365.969L302.71 366.079L294.6 366.409L281.83 366.019L269.07 365.859L256.31 365.93L243.56 366.219L238.31 366.409L229.6 366.039L220.81 365.909L2.81 366.039L0.75 366.479H0.389999L0.169998 366.229L0.0200043 365.889L0 365.619L0.190002 365.439L18.22 356.579L20.05 356.049L22.34 355.049L24.51 353.699L26.85 352.659L44.57 344.889L70.92 334.889L72.45 334.369L79.7 331.93L106.26 323.859L118.32 320.809L123.09 319.599L135.29 316.659L135.55 316.519L135.54 316.609H136.23L136.91 316.639L141.22 315.689L145.41 314.439L161.09 311.549L171.29 309.769L172.05 309.549L172.78 309.539L173.1 309.609L185.42 307.659L185.47 307.499L185.5 307.619L212.79 304.839L213.96 304.449L215.24 304.519L224.8 304.059H228.76L229.09 304.229L229.15 304.599L229.08 304.719L224.42 310.609L220.59 314.68L216.63 318.579L212.52 322.289L208.27 325.829L207.83 326.18L206.67 327.359L205.96 328.689L205.74 329.699L205.69 331.439L205.9 333.019L206.4 334.609L207.25 336.279L208.49 338.039L210.34 340.24L213.79 343.599L218 348.399L220.21 350.979L222.67 353.279L225.4 355.329L227.17 356.269L229 356.759L231.34 356.769L233.52 357.039L235.25 356.93L236.99 356.529L237.87 356.699L238.69 356.629L239.52 356.279L240.27 355.639L241.98 354.729L243.35 353.689L244.38 352.519L245.07 351.219L245.4 349.919L245.45 348.509L245.22 346.99L244.7 345.359L243.91 344.099L242.43 342.549L239.65 340.419L235.34 337.199L234.42 336.389L234.39 336.359L234.25 335.969L234.44 335.589L239.5 331.43L241.41 330.119L242.93 328.219L246.58 324.599L250.59 320.659L254.22 316.419L258.05 310.999L261.35 305.159L262.04 303.699L262.45 303.129L262.75 302.939L263 303.189L264.96 307.449L266.71 311.749L268.22 316.099L269.52 320.499Z" fill="#072931"/>
<path d="M301.321 313.651L298.551 316.181L296.251 319.001L295.761 319.561L295.361 319.691L295.041 319.411L294.821 318.701L291.711 303.011L307.581 302.861L308.161 303.131L308.301 303.741L308.251 303.901L306.711 306.781L304.251 310.351L301.321 313.651Z" fill="#072931"/>
<path d="M291.711 303.01L294.821 318.7L295.041 319.41L295.361 319.69L295.761 319.56L296.251 319L298.551 316.18L301.321 313.65L296.651 319.15L296.511 319.38L295.651 320.71L295.211 321L294.871 321.02L294.631 320.78L294.481 320.28L291.711 303.01Z" fill="#787D71" fill-opacity="0.996"/>
<path d="M418.579 309.4L416.509 309.09L395.579 306.29L374.539 304.17L379.689 304.22L385.809 304.74L411.419 307.82L415.069 308.45L418.579 309.4Z" fill="#787D71" fill-opacity="0.996"/>
<path d="M345.733 310.611L344.053 308.101L343.113 306.171L342.383 304.111L344.173 306.821L345.053 308.661L345.733 310.611Z" fill="#787D71" fill-opacity="0.996"/>
<path d="M212.79 304.84L185.5 307.62L196.52 306.06L207.57 305.09L212.79 304.84Z" fill="#787D71" fill-opacity="0.996"/>
<path d="M261.348 305.16L258.048 311L254.218 316.42L250.588 320.66L246.578 324.6L250.838 319.7L256.318 312.62L261.348 305.16Z" fill="#787D71" fill-opacity="0.996"/>
<path d="M233.449 308.01L234.669 306.07L234.509 307.12L234.099 307.63L233.449 308.01Z" fill="#787D71" fill-opacity="0.996"/>
<path d="M286.562 306.48L287.922 315.56L286.992 311.7L286.663 309.11L286.562 306.48Z" fill="#787D71" fill-opacity="0.996"/>
<path d="M375.299 352.13L388.099 346.61L390.049 345.67L391.809 344.6L393.369 343.4L394.749 342.08L395.719 340.68L396.299 339.07L396.469 337.36L396.229 335.66L395.349 333.47L394.049 331.7L393.079 330.84L391.949 330.12L389.239 329.13L386.599 328.87L383.409 329.2L377.699 330.51L377.109 330.56L376.549 330.37L376.109 329.98L375.859 329.44L375.839 329.36L372.039 307.26L373.469 312.61L374.669 318.06L375.649 323.6L376.399 329.24L376.439 329.42L376.679 329.88L377.089 330.19L377.589 330.3L378.099 330.19L380.279 329.34L382.639 328.7L384.999 328.34L387.179 328.29L389.129 328.5L390.979 329.01L392.549 329.77L393.949 330.84L394.909 331.92L395.709 333.22L396.379 334.78L396.789 336.3L396.919 337.76L396.789 339.17L396.379 340.54L395.699 341.86L394.759 343.08L393.559 344.2L392.079 345.22L390.339 346.15L382.899 349.37L375.299 352.13Z" fill="#787D71" fill-opacity="0.996"/>
<path d="M423.5 309.939L434.72 311.549L445.85 313.599L458.35 316.469L423.5 309.939Z" fill="#787D71" fill-opacity="0.996"/>
<path d="M224.421 310.611L217.201 318.621L214.471 321.241L212.341 322.941L209.301 325.301L206.981 327.811L206.841 328.001L206.201 329.641L206.211 331.721L206.551 333.201L207.161 334.671L208.021 336.141L209.151 337.601L213.791 343.601L210.341 340.241L208.491 338.041L207.251 336.281L206.401 334.611L205.901 333.021L205.691 331.441L205.741 329.701L205.961 328.691L206.671 327.361L207.831 326.181L208.271 325.831L212.521 322.291L216.631 318.581L220.591 314.681L224.421 310.611Z" fill="#787D71" fill-opacity="0.996"/>
<path d="M145.409 314.439L141.219 315.689L136.909 316.639L136.229 316.609H135.539L145.409 314.439Z" fill="#236391"/>
<path d="M462.548 317.411L460.808 317.281L458.988 316.631L460.378 316.701L461.688 317.021L462.548 317.411Z" fill="#787D71" fill-opacity="0.996"/>
<path d="M288.551 319.621L289.091 321.311L289.311 322.701L289.211 323.781L288.781 324.571L288.681 324.671L288.551 319.621Z" fill="#787D71" fill-opacity="0.996"/>
<path d="M269.52 320.5L271.541 326.66L273.11 332.92L274.261 339.37L269.52 320.5Z" fill="#787D71" fill-opacity="0.996"/>
<path d="M478.562 321.3H477.262L476.302 320.87L476.012 320.58L478.562 321.3Z" fill="#787D71" fill-opacity="0.996"/>
<path d="M308.162 324.121L307.192 323.391L306.402 322.521L305.602 321.041L306.492 321.721L307.432 322.801L308.162 324.121Z" fill="#787D71" fill-opacity="0.996"/>
<path d="M220.819 324.37L220.089 324.74L219.509 324.73L219.289 324.59L220.169 323.92L220.479 323.83L220.719 324.03L220.819 324.37Z" fill="#787D71" fill-opacity="0.996"/>
<path d="M220.821 324.371L222.081 326.181L222.881 327.711L223.921 329.001L224.731 329.721L225.851 330.851L226.641 331.971L227.101 333.081L227.231 334.181V334.201L226.511 334.801L226.271 335.401L226.421 335.861L226.841 336.321L227.011 336.871L226.921 337.101L226.901 337.321L227.071 337.711L229.211 340.091L231.551 342.231L233.711 343.881L236.011 345.361L237.701 346.701L239.041 348.271L239.291 348.661L239.381 349.251L239.011 349.721L238.971 349.741L237.381 350.401L235.811 350.831L234.261 351.031L232.741 350.991L231.231 350.721L229.751 350.211L228.291 349.471L226.851 348.491L225.581 346.981L224.261 345.661L221.551 343.041L217.451 338.251L213.681 333.461L213.221 332.551L213.121 331.541L213.391 330.561L213.991 329.741L218.821 325.571L219.171 325.141L219.291 324.591L219.511 324.731L220.091 324.741L220.821 324.371Z" fill="#072931"/>
<path d="M219.29 324.59L219.17 325.14L218.82 325.57L213.99 329.74L213.39 330.56L213.12 331.54L213.22 332.55L213.68 333.46L217.45 338.25L221.55 343.04L224.26 345.66L225.58 346.98L226.85 348.49L223.35 345.73L220.93 343.27L213.53 334.17L212.39 332.29L212.18 331.68V331.04L212.4 330.44L212.82 329.95L219.29 324.59Z" fill="#787D71" fill-opacity="0.996"/>
<path d="M301.04 325.361L301.98 326.841L303.12 328.101L304.38 329.101L306.74 332.351L306.93 332.791L306.91 333.271L306.72 334.811L306.97 336.141L307.29 337.071L307.81 337.801L308.3 338.181L311.45 341.191L317.78 345.951L318.58 346.741L319.49 348.101L317.63 349.521L316.69 349.871L315.76 349.991L315.56 349.981L313.2 349.991L310.58 350.291L309.31 349.721L304.52 346.471L298.1 339.981L293.6 334.411L291.82 331.741L291.66 331.291L291.75 330.851L291.92 330.561L292.84 329.871L294.55 329.031L296.11 327.991L298.51 325.651L299.27 324.981L300 324.791L300.53 324.941L301.04 325.361Z" fill="#072931"/>
<path d="M284.92 325.441L279.5 326.171L282.31 325.361L283.64 325.291L284.92 325.441Z" fill="#787D71" fill-opacity="0.996"/>
<path d="M301.039 325.361L302.869 326.941L304.379 329.101L303.119 328.101L301.979 326.841L301.039 325.361Z" fill="#787D71" fill-opacity="0.996"/>
<path d="M310.621 327.411L309.521 326.311L309.031 325.391L309.431 325.601L310.141 326.331L310.621 327.411Z" fill="#787D71" fill-opacity="0.996"/>
<path d="M497.08 326.4L495.2 326.16L493.62 325.45L493.57 325.42L495.27 325.64L497.08 326.4Z" fill="#787D71" fill-opacity="0.996"/>
<path d="M298.51 325.65L296.11 327.99L294.55 329.03L292.84 329.87L298.51 325.65Z" fill="#787D71" fill-opacity="0.996"/>
<path d="M224.728 329.72L223.918 329L222.878 327.71L222.078 326.18L223.858 328.12L224.728 329.72Z" fill="#236391"/>
<path d="M351.691 326.82L353.921 334.54L352.931 332.17L352.201 329.73L351.691 326.82Z" fill="#787D71" fill-opacity="0.996"/>
<path d="M312.29 328.56L311.91 328.76L311.36 328.51L310.75 327.67L312.29 328.56Z" fill="#787D71" fill-opacity="0.996"/>
<path d="M242.93 328.221L241.41 330.121L239.5 331.431L240.75 330.011L242.14 328.791L242.93 328.221Z" fill="#236391"/>
<path d="M530.031 337.191L508.711 329.811L515.661 331.821L522.501 334.161L530.031 337.191Z" fill="#787D71" fill-opacity="0.996"/>
<path d="M319.3 331.121L315.52 334.981L315.24 335.411L315.16 335.831L315.15 336.711L314.48 336.381L314.25 336.011L314.39 335.591L314.55 335.391L316.72 333.091L319.3 331.121Z" fill="#787D71" fill-opacity="0.996"/>
<path d="M369.383 331.831L368.133 331.781L367.062 331.521L368.462 331.111L369.223 331.301L369.383 331.831Z" fill="#787D71" fill-opacity="0.996"/>
<path d="M367.06 331.52L368.13 331.78L369.38 331.83L369.77 334.6L370.76 337.37L371.09 337.84L371.56 338.17L372.12 338.31L372.69 338.25L381.32 335.74L382.86 335.3L385.18 334.93L387.57 334.87L388.65 335.06L389.51 335.52L390.07 336.12L390.48 336.93L390.55 337.35L390.42 337.86L389.53 339.09L388.43 339.9L387.06 340.43L378.5 343.85L369.86 347.05L367.29 347.96L365.41 348.26L364.33 348.12L363.92 347.91L363.68 347.49L360.34 334.4L360.43 333.54L361.17 332.87L362.6 332.53L364.03 332.59L365.2 332.31L366.33 331.72L366.54 331.57L367.06 331.52Z" fill="#072931"/>
<path d="M284.09 331.961L279.16 333.011L279.17 332.741L279.23 332.571L279.36 332.461L281.52 331.851L282.79 331.801L284.09 331.961Z" fill="#787D71" fill-opacity="0.996"/>
<path d="M366.332 331.721L365.202 332.311L364.032 332.591L362.602 332.531L363.852 332.001L365.052 331.751L366.332 331.721Z" fill="#787D71" fill-opacity="0.996"/>
<path d="M286.53 335.02L286.54 335.04L287.3 336.95L288.61 338.72L290.46 340.35L292.86 341.85L295.05 344.37L295.21 344.77L294.98 345.13L293.89 345.47L284.88 347.88L283.86 348.05L283.05 347.85L282.39 347.22L281.96 346.17L279.28 334.08L279.16 333.01L284.09 331.96L284.92 331.91L285.58 332.13L286.01 332.55L286.31 333.17L286.53 335.02Z" fill="#072931"/>
<path d="M381.323 335.74L372.693 338.25L372.123 338.31L371.563 338.17L371.093 337.84L370.763 337.37L369.773 334.6L369.383 331.83L371.343 337.08L371.943 337.76L372.853 337.87L381.323 335.74Z" fill="#787D71" fill-opacity="0.996"/>
<path d="M227.231 334.201L227.11 335.411L226.84 336.321L226.42 335.861L226.27 335.401L226.511 334.801L227.231 334.201Z" fill="#787D71" fill-opacity="0.996"/>
<path d="M281.961 346.17L280.831 342.5L279.891 338.33L279.281 334.08L281.961 346.17Z" fill="#787D71" fill-opacity="0.996"/>
<path d="M387.06 340.43L381.79 343.07L376.37 345.34L370.41 347.35L364.29 348.92L363.9 348.87L363.59 348.48L360.34 334.4L363.68 347.49L363.92 347.91L364.33 348.12L365.41 348.26L367.29 347.96L369.86 347.05L378.5 343.85L387.06 340.43Z" fill="#787D71" fill-opacity="0.996"/>
<path d="M286.531 335.02L292.861 341.85L290.461 340.35L288.611 338.72L287.301 336.95L286.541 335.04L286.531 335.02Z" fill="#787D71" fill-opacity="0.996"/>
<path d="M308.303 338.181L307.813 337.801L307.293 337.071L306.973 336.141L307.683 336.901L308.303 338.181Z" fill="#236391"/>
<path d="M227.008 336.871L236.008 345.361L233.708 343.881L231.548 342.231L229.208 340.091L227.068 337.711L226.898 337.321L226.918 337.101L227.008 336.871Z" fill="#787D71" fill-opacity="0.996"/>
<path d="M555.521 347.11L531.461 337.59L542.821 341.61L549.211 344.24L555.521 347.11Z" fill="#787D71" fill-opacity="0.996"/>
<path d="M324.99 351.24L325.35 349.26L325.24 347.38L324.54 345.36L323.24 343.46L321.37 341.45L319.18 339.42L321.66 340.93L323.55 342.56L324.86 344.33L325.59 346.22L325.75 347.41L325.7 348.64L324.99 351.24Z" fill="#787D71" fill-opacity="0.996"/>
<path d="M355.699 341.461L359.349 353.521L357.849 351.011L356.739 348.171L356.029 344.981L355.699 341.461Z" fill="#787D71" fill-opacity="0.996"/>
<path d="M309.31 349.721L307.25 348.881L305.79 347.841L304.52 346.471L309.31 349.721Z" fill="#787D71" fill-opacity="0.996"/>
<path d="M319.488 348.1L318.718 349.41L317.428 350.31L315.648 350.76L313.358 350.75L310.578 350.29L313.198 349.99L315.558 349.98L315.758 349.99L316.688 349.87L317.628 349.52L319.488 348.1Z" fill="#787D71" fill-opacity="0.996"/>
<path d="M290.6 353.151L288.08 354.151L285.66 354.721L283.35 354.851L281.14 354.541L280.96 354.501L279.65 354.011L278.53 353.281L277.63 352.341L276.93 351.171L276.41 349.771L276.09 348.141L276.97 350.331L277.84 351.881L278.87 353.021L280 353.681L281.06 353.911L282.6 353.991L286.59 353.831L290.6 353.151Z" fill="#787D71" fill-opacity="0.996"/>
<path d="M231.34 356.77L229 356.76L227.17 356.27L225.4 355.33L222.67 353.28L220.21 350.98L218 348.4L223.36 353.1L224.88 354.23L226.72 355.22L228.87 356.06L231.34 356.77Z" fill="#787D71" fill-opacity="0.996"/>
<path d="M299.84 350.391L301.33 351.371L302.95 353.141L301.37 352.071L300.1 350.751L299.84 350.391Z" fill="#787D71" fill-opacity="0.996"/>
<path d="M574.81 355.77L571.95 354.74L569.9 353.73L567.93 352.5L574.81 355.77Z" fill="#787D71" fill-opacity="0.996"/>
<path d="M372.709 353.09L370.119 354.14L367.789 354.53L372.709 353.09Z" fill="#236391"/>
<path d="M24.5088 353.701L22.3388 355.051L20.0487 356.051L18.2188 356.581L24.5088 353.701Z" fill="#787D71" fill-opacity="0.996"/>
<path d="M321.3 355.05L317.86 356.3L314.39 356.83L312.1 356.8L309.79 356.46L307.47 355.82L305.13 354.87L304.58 354.47L304.07 353.77L306.22 354.97L307.5 355.47L310.2 355.84L312.9 355.98L317.1 355.78L321.3 355.05Z" fill="#787D71" fill-opacity="0.996"/>
<path d="M240.268 355.641L239.518 356.281L238.688 356.631L237.868 356.701L236.988 356.531L240.268 355.641Z" fill="#787D71" fill-opacity="0.996"/>
<path d="M294.603 366.411L276.332 366.931L258.062 366.951L238.312 366.411L243.562 366.221L256.312 365.931L269.073 365.861L281.832 366.021L294.603 366.411Z" fill="#787D71" fill-opacity="0.996"/>
<path d="M467.959 397.251L466.389 395.301L464.689 393.571L462.859 392.031L460.909 390.711L457.389 388.951L453.509 387.771L451.699 387.531L449.139 387.451L441.809 387.751L441.829 387.711L441.199 387.521L446.669 386.841L449.229 386.811L451.669 386.981L453.989 387.361L456.189 387.951L458.279 388.741L460.249 389.741L462.419 391.181L464.439 392.921L466.279 394.941L467.959 397.251Z" fill="#787D71" fill-opacity="0.996"/>
<path d="M351.301 393.1L348.301 390.96L345.091 389.29L342.081 388.22L339.591 387.71L336.981 387.59L331.921 387.55L331.771 387.54L330.041 387.64L327.951 388.1L324.221 389.31L322.021 390.42L320.051 391.72L318.291 393.19L316.761 394.84L315.501 396.59L314.451 398.49L313.591 400.56L312.941 402.79L312.131 407.37L311.891 411.94L312.131 415.76L312.771 419.57L313.521 422.02L314.721 424.66L317.371 429.46L315.671 427.19L314.041 424.33L312.791 421.22L311.921 417.86L311.421 414.25L311.301 410.07L311.671 406.1L312.511 402.35L313.831 398.82L314.901 396.72L316.151 394.71L318.091 392.46L320.591 390.57L323.621 389.05L327.211 387.9L329.841 387.35L332.461 387.02L335.051 386.92L337.621 387.04L340.611 387.48L343.571 388.22L346.351 389.32L348.831 390.84L351.301 393.1Z" fill="#787D71" fill-opacity="0.996"/>
<path d="M401.568 389.501L397.038 388.321L392.828 387.621L388.908 387.401L385.308 387.651L383.108 388.141L380.578 389.011L377.738 390.281L374.578 391.931L376.048 390.891L379.168 389.191L382.588 387.961L386.298 387.181L390.308 386.861L394.098 387.081L397.708 387.881L401.568 389.501Z" fill="#787D71" fill-opacity="0.996"/>
<path d="M441.202 387.521L441.832 387.711L441.812 387.751L449.142 387.451L451.702 387.531L453.512 387.771L457.392 388.951L460.912 390.711L462.862 392.031L464.692 393.571L466.392 395.301L467.962 397.251L468.962 399.191L470.172 403.501L471.052 408.011L471.582 412.731L471.782 417.651L471.792 454.361L471.312 460.061L470.162 465.491L469.132 468.461L467.812 471.111L466.202 473.471L464.312 475.511L462.272 477.161L459.982 478.531L457.442 479.631L454.652 480.461L454.442 480.511L451.222 481.071L447.932 481.281L444.552 481.161L441.102 480.691L438.442 480.061L436.002 479.181L433.782 478.041L431.792 476.651L430.462 475.471L429.032 473.861L427.792 472.061L426.742 470.071L425.872 467.891L424.602 463.831L424.122 461.401L423.422 452.441V414.141L424.102 408.821L424.442 405.981L425.052 403.611L427.552 397.171L433.412 390.961L433.482 390.871L441.432 387.741L441.622 387.591L441.202 387.521ZM452.552 466.931L452.462 466.741L452.822 466.761L454.472 464.991L455.492 463.001L455.842 461.371L455.832 459.621L456.092 410.371L455.932 407.831L455.602 406.791L455.102 405.921L454.452 404.401L453.662 403.121L452.722 402.091L451.652 401.321L449.812 400.661L448.072 400.311L446.432 400.281L444.882 400.571L443.652 401.061L442.492 401.781L441.482 402.661L440.242 404.331L439.352 406.421L438.822 408.991L438.622 412.151L438.432 433.271L438.522 455.171L438.842 459.961L439.682 463.521L440.722 465.511L442.142 466.971L443.692 467.811L445.532 468.251L449.092 468.411L450.422 468.191L451.582 467.691L452.552 466.931Z" fill="#072931"/>
<path d="M351.299 393.101L351.749 394.061L352.859 394.881L353.109 395.191L354.979 399.141L356.269 403.231L356.809 405.981L357.109 408.791L357.159 411.661L356.969 414.591L356.689 415.701L356.129 416.491L355.349 416.941L354.319 417.121L353.329 417.131L350.199 416.991L348.519 416.951L346.219 416.871L344.579 416.491L344.299 416.311L344.069 415.951L343.569 409.551L343.239 406.991L342.589 404.831L341.619 403.061L340.329 401.691L339.159 400.921L337.819 400.371L336.289 400.051L334.589 399.941L332.059 400.251L329.919 401.181L329.239 401.661L327.929 403.051L327.019 404.971L326.679 407.271L326.379 410.071L326.689 413.071L326.929 414.931L327.509 416.641L328.449 418.261L329.749 419.711L332.799 423.001L347.019 434.031L352.149 439.311L356.739 448.011L356.789 448.031L357.009 448.311L357.099 448.871L357.669 453.831L357.889 456.931L357.709 460.211L357.139 463.661L356.189 467.301L355.339 469.591L354.279 471.681L353.009 473.551L351.539 475.201L349.889 476.621L348.049 477.831L345.139 479.291L342.259 480.341L339.409 480.951L336.599 481.151L331.699 481.011L328.549 480.661L324.619 479.621L321.249 478.141L318.439 476.241L316.189 473.901L315.319 472.631L313.539 469.011L312.329 464.881L311.669 460.221L311.579 455.041L311.449 452.951L311.659 452.151L312.059 451.501L313.259 450.721L315.089 450.471L321.869 450.571L323.799 451.041L324.419 451.451L324.809 451.961L324.959 452.971L324.589 456.401L324.929 459.681L325.189 460.721L326.019 463.381L327.439 465.481L329.329 466.961L331.759 467.941L334.119 468.241L336.199 468.171L338.009 467.711L339.549 466.891L340.719 465.791L341.659 464.381L342.359 462.661L342.839 460.611L343.059 457.601L342.729 454.721L342.219 452.941L341.479 451.211L340.509 449.541L339.309 447.911L336.249 444.691L334.679 443.431L333.089 442.401L332.589 441.911L332.579 441.881L322.259 434.131L317.369 429.461L314.719 424.661L313.519 422.021L312.769 419.571L312.129 415.761L311.889 411.941L312.129 407.371L312.939 402.791L313.589 400.561L314.449 398.491L315.499 396.591L316.759 394.841L318.289 393.191L320.049 391.721L322.019 390.421L324.219 389.311L327.949 388.101L330.039 387.641L331.769 387.541L331.919 387.551L336.979 387.591L339.589 387.711L342.079 388.221L345.089 389.291L348.299 390.961L351.299 393.101Z" fill="#072931"/>
<path d="M401.571 389.5L401.621 389.44L401.741 389.65L404.881 391.69L407.571 394.14L408.911 395.74L410.091 397.48L412.011 401.37L412.991 406.5L413.551 411.67L413.671 416.52L413.421 421.4L413.171 421.95L412.621 422.22L409.091 422.48L405.721 422.46L402.511 422.16L399.461 421.57L398.981 410.17L398.921 407.95L398.551 406.01L397.871 404.34L396.891 402.96L395.781 401.99L394.441 401.23L392.871 400.68L391.061 400.35L388.601 400.43L386.421 401.18L384.371 402.6L383.311 403.89L382.521 405.71L382.001 408.09L381.781 410.92L381.431 433.01L381.681 453.83L381.811 456.32L382.511 461.48L382.611 461.63L382.971 462.51L383.051 463.57L383.991 465.13L385.041 466.38L386.211 467.34L387.491 467.99L388.671 468.31L389.931 468.42L391.271 468.3L392.701 467.97L395.081 466.93L396.901 465.41L397.501 464.64L398.271 463.25L398.901 461.02L398.981 458.56L399.431 446.16L400.371 445.73L401.081 445.56L409.931 445.43H410.561L411.831 445.6L412.891 446.08L413.771 446.92L413.981 447.44L413.731 447.5L413.711 447.53V447.55L413.801 453.88L413.341 460.56L412.791 464.14L411.961 467.35L410.841 470.18L409.441 472.62L407.551 474.99L405.361 476.98L403.281 478.36L401.001 479.47L398.501 480.3L395.801 480.86L391.291 480.99L388.981 481.08L386.751 481.4L385.291 481.25L384.051 480.89L374.361 476.36L373.081 475.4L372.041 474.17L367.251 461.9L366.881 460.27L366.861 458.44L367.041 458.08L367.121 457.7L366.531 418.4L366.581 415.23L366.821 411.32L367.281 407.41L367.891 404.35L368.831 401.28L370.101 398.18L371.711 395.07L374.581 391.93L377.741 390.28L380.581 389.01L383.111 388.14L385.311 387.65L388.911 387.4L392.831 387.62L397.041 388.32L401.571 389.5Z" fill="#072931"/>
<path d="M441.43 387.74L433.48 390.87L435.081 389.72L436.78 388.82L439.021 388.09L441.43 387.74Z" fill="#787D71" fill-opacity="0.996"/>
<path d="M34.2924 388.49L3.5625 388.82L4.7225 388.24L4.9425 388.15L5.9525 387.97L17.2324 387.9L31.8326 388.02L34.2924 388.49Z" fill="#787D71" fill-opacity="0.996"/>
<path d="M96.7388 396.86L95.0087 394.74L93.1287 392.97L91.1088 391.54L88.9487 390.45L87.1088 389.82L82.4988 388.95L77.5087 388.75L66.7287 388.89L53.7188 388.81L54.8088 388.17L55.8488 387.94L74.3088 387.75L78.2488 387.82L81.6587 388.09L84.5588 388.58L86.9387 389.28L90.5487 390.84L93.2888 392.52L95.2687 394.38L96.5988 396.52L96.7388 396.86Z" fill="#787D71" fill-opacity="0.996"/>
<path d="M125.229 388.861L114.869 388.771L113.619 388.941L112.729 389.471L112.199 390.351L112.019 391.601V477.511L112.209 478.451L112.729 479.241L113.529 479.771L114.459 479.961H124.239L125.179 479.771L125.969 479.241L126.499 478.441L126.689 477.501L126.749 391.381L126.709 390.691L126.859 390.371L127.029 390.361L127.309 392.151L127.299 477.401L127.149 478.331L126.349 479.561L124.959 480.321L123.029 480.741L120.859 480.991L115.829 480.981L113.659 480.531L112.839 480.081L112.199 479.491L111.549 478.271L111.329 476.681L111.289 396.151L111.369 391.201L111.529 390.291L111.889 389.581L112.689 388.911L113.839 388.481L116.619 387.991L120.429 387.881L124.309 388.411L125.229 388.861Z" fill="#787D71" fill-opacity="0.996"/>
<path d="M182.061 388.959L141.781 388.819L141.791 388.809L142.861 388.049L143.571 387.939L179.521 387.979L181.171 388.229L181.701 388.509L182.031 388.889L182.061 388.959Z" fill="#787D71" fill-opacity="0.996"/>
<path d="M210.723 389.73L206.773 388.93L202.493 388.54L197.893 388.56L192.973 389L197.673 387.98L202.383 387.6L205.073 387.67L207.773 387.95L209.563 388.47L210.173 388.89L210.583 389.42L210.723 389.73Z" fill="#787D71" fill-opacity="0.996"/>
<path d="M241.3 389.25L238.16 388.7L236.31 388.58L232.51 388.63L231.07 388.53L234.27 387.92L237.36 388.02L239.35 388.48L241.3 389.25Z" fill="#787D71" fill-opacity="0.996"/>
<path d="M302.121 407.93L300.641 402.2L299.921 399.95L298.981 397.91L297.821 396.08L296.451 394.46L296.121 394.14L293.551 392.23L290.221 390.59L286.621 389.46L283.321 389.01L257.321 388.76L256.211 388.92L255.411 389.4L254.941 390.2L254.781 391.31V477.9L254.941 478.69L255.381 479.36L256.051 479.8L256.831 479.96L277.491 479.97L281.681 479.82L285.311 479.43L288.401 478.79L290.941 477.92L293.641 476.46L295.971 474.62L298.171 472.07L299.911 469.03L301.181 465.49L301.991 461.46L301.691 464.89L300.971 467.99L299.831 470.76L298.261 473.2L296.731 474.89L294.931 476.38L292.361 477.88L289.221 479.07L285.511 479.96L281.231 480.56L274.781 481L268.261 481.08L261.651 480.8L254.961 480.16L254.571 479.99L254.411 479.6L254.191 475.43L254.281 396.4L254.531 391.13L254.801 389.82L255.421 388.87L256.351 388.3L257.611 388.07L268.171 387.84L278.391 387.99L285.371 388.74L289.211 389.59L292.621 391.04L294.921 392.56L296.681 394.18L298.231 396.08L299.531 398.17L300.571 400.36L301.671 404.01L302.121 407.93Z" fill="#787D71" fill-opacity="0.996"/>
<path d="M526.483 397.041L522.762 393.591L520.902 392.221L519.033 391.101L517.173 390.221L515.303 389.591L513.433 389.191L511.562 389.041L485.432 388.851L484.633 389.011L483.952 389.451L483.492 390.121L483.312 390.911L482.973 403.391L482.473 400.061L482.312 396.811L482.503 393.641L483.022 390.541L483.112 390.171L483.582 389.191L484.582 388.461L486.073 388.131L493.452 387.781L500.823 387.841L506.772 388.171L512.723 388.771L514.673 389.131L516.702 389.731L521.022 391.671L522.303 392.521L523.642 393.691L526.483 397.041Z" fill="#787D71" fill-opacity="0.996"/>
<path d="M577.453 388.4L562.983 388.91L548.543 388.73L540.973 388.36L550.063 387.95L559.183 387.82L568.303 387.97L577.453 388.4Z" fill="#787D71" fill-opacity="0.996"/>
<path d="M17.3383 403.131L17.2383 402.581L17.5383 401.891L17.9783 401.531L18.4983 401.421H42.7183L43.3083 401.301L43.8184 400.971L44.1483 400.471L44.2683 399.881V390.131L43.9383 389.311L43.1383 388.941L35.7283 388.561L37.7683 388.121L39.8083 388.031L41.8083 388.271L43.8083 388.851L44.2083 389.111L44.4484 389.521L45.1183 392.321L45.3184 395.121L45.0483 397.791L44.3484 400.461L44.1283 400.881L43.7584 401.211L42.7483 401.641L41.4883 401.801L19.2183 401.821L18.7883 401.891L18.3283 402.181L17.3383 403.131Z" fill="#787D71" fill-opacity="0.996"/>
<path d="M35.7288 388.56L43.1388 388.94L43.9388 389.31L44.2687 390.13V399.88L44.1488 400.47L43.8188 400.97L43.3088 401.3L42.7188 401.42H18.4988L17.9787 401.53L17.5388 401.89L17.2387 402.58L17.3387 403.13L17.2888 426.15L17.3987 426.63L17.7688 427.07L17.6088 427.58L17.6687 427.96L17.7187 428.03L18.3588 428.54L19.1588 428.74L28.0588 428.79L36.7788 428.47L37.6488 428.6L38.4988 429.24L39.1488 430.4L39.3488 432.94L39.3188 435.54L39.0688 438.17L38.5788 440.86L18.5588 440.98L17.9288 441.23L17.6287 441.84L17.3887 444.4L16.9787 479.18L15.6287 479.83L14.4987 480.02L9.37876 480.01L4.12876 480.25L3.50875 480.09L3.40876 480.02L3.11875 479.65L2.44875 477.75L2.21875 475.9L2.32875 391.9L2.41875 391L2.82875 389.88L3.55875 388.82L34.2887 388.49L35.7288 388.56Z" fill="#072931"/>
<path d="M231.072 388.531L232.512 388.631L236.312 388.581L238.162 388.701L241.302 389.251L241.572 390.431L241.442 391.151L241.362 432.511L241.503 473.841L241.292 476.951L240.932 480.081L238.292 480.261L237.062 480.101L227.052 479.911L227.003 479.831L226.762 479.791L227.052 479.741L227.102 479.711L227.062 479.591L226.872 479.351L225.143 476.641L223.893 473.551L215.442 446.581L205.962 417.361L205.652 416.641L205.382 416.411L205.132 416.671L204.912 417.421L204.862 418.171L205.072 418.621L205.512 418.781L205.082 479.531L201.042 480.301L197.102 480.321L195.622 480.041L194.173 480.021L194.112 480.031L193.283 479.451L192.772 478.721L192.602 477.931L192.952 449.151L192.923 420.401L192.393 397.961L192.312 393.531L192.972 389.001L197.893 388.561L202.492 388.541L206.772 388.931L210.722 389.731L216.932 408.461L220.003 419.551L222.272 426.441L224.792 433.261L227.673 442.101L227.982 444.021L228.522 445.271L228.902 445.651L229.132 445.161L229.212 443.801L229.162 389.941L229.742 389.051L230.452 388.591L231.072 388.531Z" fill="#072931"/>
<path d="M540.972 388.361L548.542 388.731L562.982 388.911L577.452 388.401L579.072 388.711L580.222 389.291L580.612 393.991L580.462 398.541L580.182 399.691L579.612 400.501L579.582 400.531L578.862 400.991L577.292 401.291L565.312 401.041L554.702 401.181L554.032 401.461L553.732 402.111L553.432 408.261L553.372 414.441L553.562 420.661L553.992 426.901L574.502 427.211L575.392 428.571L575.492 428.931V436.661L575.282 437.701L574.692 438.591L573.802 439.181L572.762 439.391H555.302L554.502 439.501L553.932 439.851L553.592 440.421L553.472 441.231V466.291L553.852 467.211L554.772 467.581L578.812 467.541L579.922 467.881L581.092 468.921L581.312 471.441L581.282 475.081L580.862 478.751L580.572 479.321L580.332 479.441L578.972 479.981L578.332 480.041L541.462 480.111L541.382 480.171L540.942 480.291L540.362 480.161L538.742 479.211L538.632 400.191L538.422 394.111L538.582 390.951L538.662 390.061L538.672 390.001L538.922 389.511L539.382 389.071L540.972 388.361Z" fill="#072931"/>
<path d="M53.3634 388.721L52.5134 389.751L52.2734 390.161L52.1934 390.621L51.9034 411.391L51.4534 405.621L51.2734 399.851L51.4334 392.741L51.6134 391.511L52.0934 389.981L52.3134 389.341L52.6734 388.841H52.6834L52.7334 388.821L53.3634 388.721Z" fill="#787D71" fill-opacity="0.996"/>
<path d="M53.7203 388.81L66.7303 388.89L77.5103 388.75L82.5003 388.95L87.1103 389.82L88.9503 390.45L91.1103 391.54L93.1303 392.97L95.0103 394.74L96.7403 396.86L97.1203 397.27L97.2903 397.87L97.4503 398.52L97.7503 398.85L97.8103 398.87L98.1103 399.39L99.4803 405.99L100.04 412.3L100.01 415.35L99.7803 418.33L99.3503 421.23L98.7103 424.07L98.0603 426.11L97.2203 427.99L96.2003 429.71L95.0003 431.28L92.8903 433.31L90.3703 434.99L90.1603 435.15L89.9703 435.87L90.4403 436.44L92.6003 437.6L94.4703 439.07L96.2603 441.13L97.6703 443.6L98.4403 445.64L98.9703 447.88L99.2603 450.33L99.3103 452.97L99.3803 463.38L100.04 474.5L100.14 475.02L100.28 477.07L100.03 479.19L99.8403 479.39L99.0803 479.82L98.0503 479.95L88.9603 480.03L87.2103 479.83L85.9403 479.11L85.1803 477.88L84.9003 476.14L84.6003 451.78L84.3203 449.16L83.5203 446.8L83.1303 446.06L82.8903 445.96L82.5603 445.31L81.5003 444.09L80.5003 443.34L79.3303 442.76L78.0103 442.36L76.5303 442.13L72.1203 441.95L68.2103 442.25L67.7803 442.41L67.5603 442.76L67.5903 442.9L67.2403 444.15L67.1803 477.65L66.3903 479.82L54.8703 480.14L54.2903 480.16L53.3503 479.82L52.3703 478.37L52.1203 476.82L51.9803 472.6L51.8503 449.39L52.2003 440.24L52.1503 433.08L51.8203 425.91L51.9003 411.39L52.1903 390.62L52.2703 390.16L52.5103 389.75L53.3603 388.72L53.8003 388.68L53.7203 388.81ZM67.7703 401.89H67.5703L67.4303 402L67.3503 402.31L67.2203 415.38L67.3803 428.45L67.4503 429.14L67.7103 429.5L68.6403 429.8L69.7803 429.75L72.4703 429.85L74.9803 429.44L76.9003 429.62L78.6103 429.5L80.1003 429.09L81.3903 428.38L82.3703 427.48L83.1803 426.35L83.8103 424.96L84.2603 423.34L84.6803 420.78L84.9103 418.03L84.7903 411.95L84.7603 411.51L84.2003 407.1L83.7003 405.55L83.0103 404.31L81.8103 402.99L80.8903 402.36L79.7903 401.89L76.9003 401.29L73.0003 401.17L68.1603 401.54L68.0203 401.53L67.9103 401.54L67.7703 401.89Z" fill="#072931"/>
<path d="M125.231 388.86V388.87L125.49 389.01L126.011 389.56L126.481 390.39L126.75 391.38L126.69 477.5L126.5 478.44L125.97 479.24L125.18 479.77L124.24 479.96H114.46L113.53 479.77L112.731 479.24L112.21 478.45L112.02 477.51V391.6L112.201 390.35L112.731 389.47L113.62 388.94L114.87 388.77L125.231 388.86Z" fill="#072931"/>
<path d="M182.063 388.96L182.153 399.92L181.413 400.63L180.583 401.08L179.383 401.27L157.853 401.02L155.663 401.27L154.773 401.94L154.493 403.03L154.973 426.89L175.603 427.23L176.273 430.22L176.553 433.88L176.263 437.63L176.103 438.09L175.793 438.48L175.343 438.81L174.293 439.24L173.043 439.35L156.333 439.05L155.653 439.19L155.083 439.58L154.703 440.15L154.573 440.83V465.82L154.723 466.56L155.133 467.18L155.763 467.61L156.503 467.76L182.033 468.08L182.173 479.13L181.173 479.74L180.163 479.97H180.063L142.753 480.03L141.733 479.83L140.863 479.26L140.293 478.4L140.083 477.38L140.183 408.16L139.943 399.53L139.723 391.15L139.783 390.67L140.293 389.74L141.293 388.94L141.783 388.82L182.063 388.96Z" fill="#072931"/>
<path d="M302.121 407.93L301.991 461.46L301.181 465.49L299.911 469.03L298.171 472.07L295.971 474.62L293.641 476.46L290.941 477.92L288.401 478.79L285.311 479.43L281.681 479.82L277.491 479.97L256.831 479.96L256.051 479.8L255.381 479.36L254.941 478.69L254.781 477.9V391.31L254.941 390.2L255.411 389.4L256.211 388.92L257.321 388.76L283.321 389.01L286.621 389.46L290.221 390.59L293.551 392.23L296.121 394.14L296.451 394.46L297.821 396.08L298.981 397.91L299.921 399.95L300.641 402.2L302.121 407.93ZM269.261 401.55V466.22L269.411 466.63L269.801 466.83L270.551 466.92L274.271 467.63L277.701 467.75L280.841 467.3L283.701 466.25L283.851 466.18L285.451 463.59L286.561 460.86L287.091 458.46L287.281 455.96L287.271 413.15L286.841 408.96L286.671 406.63L285.871 404.71L285.031 403.7L283.921 402.85L282.651 401.98L281.621 401.58L278.381 401.12L275.241 400.96L272.201 401.11L269.261 401.55Z" fill="#072931"/>
<path d="M127.028 390.36L126.858 390.37L126.708 390.69L126.748 391.38L126.478 390.39L126.008 389.56L125.488 389.01L126.078 389.03L126.628 389.47L127.028 390.36Z" fill="#236391"/>
<path d="M141.288 388.939L140.288 389.74L139.778 390.669L139.718 391.149L139.938 399.529L140.178 408.159L140.078 477.379L140.288 478.399L140.858 479.259L141.728 479.829L142.748 480.029L180.058 479.969H180.158L181.168 479.74L182.168 479.129L182.068 479.599L181.888 479.969L181.518 480.18L177.698 480.829L172.808 481.029L161.838 481.039L149.848 480.979L142.148 480.43L142.018 480.409L140.978 480.089L140.118 479.419L139.548 478.479L139.348 477.409L139.328 390.649L139.488 389.949L140.138 389.309L141.288 388.939Z" fill="#787D71" fill-opacity="0.996"/>
<path d="M526.482 397.04L527.762 400.53L528.782 404.16L529.522 407.93L530.002 411.84L530.202 415.88L530.132 420.06L529.802 424.38L529.192 428.84L528.442 432.11L527.342 435.03L525.882 437.61L524.062 439.83L523.432 440.45L521.222 442.16L518.632 443.55L515.662 444.62L512.312 445.37L509.402 445.75L506.262 445.96L499.352 445.81L498.632 446.05L498.312 446.74V446.76L498.212 477.17L497.922 478.72L496.922 480.17L486.832 480.04L485.122 479.78L483.312 478.9L483.192 478.57L482.922 476.87L483.262 470.53L483.232 464.21L482.922 458.92L483.422 434.32L483.162 409.75L482.972 403.39L483.312 390.91L483.492 390.12L483.952 389.45L484.632 389.01L485.432 388.85L511.562 389.04L513.432 389.19L515.302 389.59L517.172 390.22L519.032 391.1L520.902 392.22L522.762 393.59L526.482 397.04ZM498.362 401.88L498.202 403.69L497.972 431.81L498.132 432.24L498.522 432.47L502.322 432.89L506.572 432.83L509.232 432.3L510.332 431.78L511.282 431.1L512.632 429.63L513.542 427.99L513.972 426.42L514.202 423.74L514.082 420.45L513.912 409.95L513.922 408.38L513.722 406.94L513.302 405.65L512.692 404.49L511.832 403.45L510.772 402.62L509.462 402L507.892 401.57L506.072 401.35L503.242 401.31L500.452 401.53L498.362 401.88ZM509.472 445.19L509.732 445.18L509.802 445.15L509.832 445.13L509.792 444.95L509.412 444.93L509.232 445.08L509.472 445.19Z" fill="#072931"/>
<path d="M580.221 389.291L581.121 392.501L581.331 395.681L581.031 398.111L580.331 400.521L579.691 401.211L577.391 401.861L576.571 401.911L555.201 401.881L554.571 402.141L554.311 402.761L553.991 426.901L553.561 420.661L553.371 414.441L553.431 408.261L553.731 402.111L554.031 401.461L554.701 401.181L565.311 401.041L577.291 401.291L578.861 400.991L579.581 400.531L579.611 400.501L580.181 399.691L580.461 398.541L580.611 393.991L580.221 389.291Z" fill="#787D71" fill-opacity="0.996"/>
<path d="M412.008 401.37L410.088 397.48L408.908 395.74L407.568 394.14L404.878 391.69L401.738 389.65L403.598 390.49L405.278 391.48L406.798 392.62L408.138 393.93L409.408 395.51L410.478 397.28L411.338 399.23L412.008 401.37Z" fill="#787D71" fill-opacity="0.996"/>
<path d="M229.162 389.939L229.212 443.799L229.132 445.159L228.902 445.649L228.522 445.269L227.982 444.019L227.672 442.099L228.132 439.559L228.292 437.149L228.312 417.019L228.102 396.899L228.342 393.629L229.162 389.939Z" fill="#787D71" fill-opacity="0.996"/>
<path d="M433.411 390.961L427.551 397.171L428.611 395.261L429.931 393.591L431.531 392.151L433.411 390.961Z" fill="#787D71" fill-opacity="0.996"/>
<path d="M241.44 391.15L242.08 393.56L242.3 396.4L242.39 470.65L242.02 475.99L241.56 478.19L240.93 480.08L241.29 476.95L241.5 473.84L241.36 432.51L241.44 391.15Z" fill="#787D71" fill-opacity="0.996"/>
<path d="M352.861 394.88L351.751 394.06L351.301 393.1L352.141 393.88L352.861 394.88Z" fill="#236391"/>
<path d="M538.631 400.191L538.371 403.541L538.421 394.111L538.631 400.191Z" fill="#787D71" fill-opacity="0.996"/>
<path d="M326.68 407.269L327.02 404.969L327.93 403.049L329.24 401.659L329.92 401.18L332.06 400.249L334.59 399.939L336.29 400.049L337.82 400.369L339.16 400.919L340.33 401.689L341.62 403.059L342.59 404.829L343.24 406.99L343.57 409.549L344.07 415.949L344.3 416.309L344.58 416.49L346.22 416.869L348.52 416.949L350.2 416.99L353.33 417.129L354.32 417.119L355.35 416.939L356.13 416.49L356.69 415.699L356.97 414.589L357.16 411.659L357.11 408.789L356.81 405.979L356.27 403.229L354.98 399.139L353.11 395.189L354.52 397.249L355.61 399.349L356.77 402.799L357.36 406.599L357.42 410.899L356.95 416.49L356.78 416.899L356.41 417.139L353.95 417.74L351.48 417.999L347.69 417.769L343.86 416.759L343.4 416.43L343.27 415.849L343.34 411.469L342.99 408.039L342.54 406.24L341.88 404.68L341.03 403.339L339.98 402.24L338.45 401.209L336.63 400.519L334.62 400.229L332.75 400.449L331.57 400.889L330.45 401.559L330.35 401.639L329.17 402.689L328.16 403.979L327.34 405.509L326.68 407.269Z" fill="#787D71" fill-opacity="0.996"/>
<path d="M371.709 395.07L370.099 398.18L368.829 401.28L367.889 404.35L367.279 407.41L366.819 411.32L366.579 415.23L366.529 418.4L367.119 457.7L367.039 458.08L366.859 458.44L366.849 458.43L366.559 456.9L366.199 416.9L366.329 412.01L366.589 408.28L367.319 404L368.719 400.02L370.059 397.48L371.709 395.07Z" fill="#787D71" fill-opacity="0.996"/>
<path d="M427.552 397.17L425.052 403.61L424.442 405.98L424.102 408.82L423.422 414.14L423.632 408.71L424.102 405.57L424.832 402.45L425.772 399.93L427.112 397.72L427.552 397.17Z" fill="#787D71" fill-opacity="0.996"/>
<path d="M97.8091 398.871L97.7491 398.851L97.4491 398.521L97.2891 397.871L97.5591 398.191L97.8091 398.871Z" fill="#236391"/>
<path d="M192.6 477.931L192.23 458.501L192.07 439.081L192.11 419.661L192.35 400.241L192.39 397.961L192.92 420.401L192.95 449.151L192.6 477.931Z" fill="#787D71" fill-opacity="0.996"/>
<path d="M468.962 399.189L470.352 402.569L471.352 406.169L471.972 409.959L472.212 413.969L472.452 449.649L472.202 456.139L471.402 462.529L470.502 466.009L468.822 470.169L467.112 473.199L464.932 475.759L462.272 477.819L459.082 479.449L455.182 480.709L450.282 481.719L446.962 481.949L443.382 481.559L439.582 480.779L436.542 479.959L434.762 479.219L432.872 478.089L431.212 476.789L430.072 475.529L428.602 473.789L427.222 472.18L426.342 470.729L426.212 470.439L425.132 467.619L424.302 464.749L423.702 461.759L423.352 458.719L423.262 455.609L423.422 452.439L424.122 461.399L424.602 463.829L425.872 467.889L426.742 470.069L427.792 472.059L429.032 473.859L430.462 475.469L431.792 476.649L433.782 478.039L436.002 479.18L438.442 480.059L441.102 480.689L444.552 481.159L447.932 481.279L451.222 481.069L454.442 480.509L454.652 480.459L457.442 479.629L459.982 478.529L462.272 477.159L464.312 475.509L466.202 473.469L467.812 471.109L469.132 468.459L470.162 465.49L471.312 460.059L471.792 454.359L471.782 417.649L471.582 412.729L471.052 408.009L470.172 403.499L468.962 399.189Z" fill="#787D71" fill-opacity="0.996"/>
<path d="M100.039 474.501L99.3787 463.381L99.3087 452.971L99.2587 450.331L98.9688 447.881L98.4387 445.641L97.6687 443.601L96.2587 441.131L94.4688 439.071L92.5987 437.601L90.4387 436.441L89.9688 435.871L90.1587 435.151L90.3687 434.991L92.8887 433.311L94.9987 431.281L96.1987 429.711L97.2188 427.991L98.0587 426.111L98.7087 424.071L99.3487 421.231L99.7787 418.331L100.009 415.351L100.039 412.301L99.4787 405.991L98.1087 399.391L98.9487 401.381L99.7487 404.141L100.209 407.111L100.379 410.491L100.279 414.831L99.9187 421.241L99.1387 424.881L97.7287 428.161L96.4187 430.171L94.8288 432.031L92.9387 433.721L90.7687 435.251L90.6488 435.351L90.5387 435.791L90.8387 436.151L93.7687 437.821L94.9987 438.841L96.0687 440.001L96.9688 441.271L97.7188 442.681L98.7487 445.871L98.8787 446.481L99.9187 452.141L100.299 456.341L100.339 465.401L100.039 474.501Z" fill="#787D71" fill-opacity="0.996"/>
<path d="M182.148 399.92L182.128 400.54L181.928 401.03L181.138 401.61L179.798 401.81L155.628 401.86L155.378 401.96L155.268 402.21L154.968 426.89L154.488 403.03L154.768 401.94L155.658 401.27L157.848 401.02L179.378 401.27L180.578 401.08L181.408 400.63L182.148 399.92Z" fill="#787D71" fill-opacity="0.996"/>
<path d="M451.65 401.321L448.94 400.811L446.28 400.761L444.12 401.181L442.38 402.121L441.12 403.491L440.22 405.331L439.59 408.061L439.37 411.401L439.36 459.151L439.74 462.221L440.2 463.601L440.84 464.861L441.1 465.261L441.94 466.241L442.8 466.901L443.8 467.411L446.24 467.961L447.93 468.001L450.25 467.681L452.55 466.931L451.58 467.691L450.42 468.191L449.09 468.411L445.53 468.251L443.69 467.811L442.14 466.971L440.72 465.511L439.68 463.521L438.84 459.961L438.52 455.171L438.43 433.271L438.62 412.151L438.82 408.991L439.35 406.421L440.24 404.331L441.48 402.661L442.49 401.781L443.65 401.061L444.88 400.571L446.43 400.281L448.07 400.311L449.81 400.661L451.65 401.321Z" fill="#787D71" fill-opacity="0.996"/>
<path d="M538.739 479.209L538.269 467.039L538.039 455.519V444.639L538.279 434.399L538.609 417.979L538.369 403.539L538.629 400.189L538.739 479.209Z" fill="#236391"/>
<path d="M398.98 410.17L397.97 406.44L397.11 404.39L395.76 402.73L394.14 401.58L392.44 400.97L390.52 400.79L388.77 400.96L387.2 401.4L385.83 402.1L384.66 403.06L383.81 404.12L383.17 405.38L382.74 406.81L382.55 408.41L382.39 417.15L382.34 456.37L382.51 461.48L381.81 456.32L381.68 453.83L381.43 433.01L381.78 410.92L382 408.09L382.52 405.71L383.31 403.89L384.37 402.6L386.42 401.18L388.6 400.43L391.06 400.35L392.87 400.68L394.44 401.23L395.78 401.99L396.89 402.96L397.87 404.34L398.55 406.01L398.92 407.95L398.98 410.17Z" fill="#787D71" fill-opacity="0.996"/>
<path d="M283.922 402.851L280.902 402.141L277.862 401.861L275.322 401.951L272.362 401.981L269.262 401.551L272.202 401.111L275.242 400.961L278.382 401.121L281.622 401.581L282.652 401.981L283.922 402.851Z" fill="#787D71" fill-opacity="0.996"/>
<path d="M74.9834 429.44L77.2134 429.22L79.1334 428.72L80.7434 427.92L82.0434 426.83L82.7834 425.88L83.3534 424.77L84.0334 422.12L84.3934 417.16L84.4634 410.63L84.1534 408.05L83.2834 405.78L82.0634 404.05L80.4234 402.55L79.5934 402.07L78.8134 401.91L70.5334 401.89H67.7734L67.9134 401.54L68.0234 401.53L68.1634 401.54L72.9534 401.17L76.8234 401.28L79.7634 401.88L80.8834 402.36L81.8134 402.99L83.0134 404.31L83.7034 405.55L84.2034 407.1L84.7634 411.51L84.7934 411.95L84.9134 418.03L84.6834 420.78L84.2634 423.34L83.8134 424.96L83.1834 426.35L82.3734 427.48L81.3934 428.38L80.1034 429.09L78.6134 429.5L76.9034 429.62L74.9834 429.44Z" fill="#787D71" fill-opacity="0.996"/>
<path d="M399.461 421.571L402.511 422.161L405.721 422.461L409.091 422.481L412.621 422.221L413.171 421.951L413.421 421.401L413.671 416.521L413.551 411.671L412.991 406.501L412.011 401.371L412.771 402.721L413.471 405.871L414.021 409.841L414.241 413.871L414.111 417.971L413.641 422.131L413.451 422.531L413.051 422.681L407.041 422.911L401.101 422.751L400.951 422.731L400.121 422.411L399.661 422.001L399.461 421.571Z" fill="#787D71" fill-opacity="0.996"/>
<path d="M513.909 409.951L513.659 408.951L513.009 406.541L512.359 404.901L511.509 403.641L510.509 402.841L509.299 402.411L503.929 401.791L498.359 401.881L500.449 401.531L503.239 401.311L506.069 401.351L507.889 401.571L509.459 402.001L510.769 402.621L511.829 403.451L512.689 404.491L513.299 405.651L513.719 406.941L513.919 408.381L513.909 409.951Z" fill="#787D71" fill-opacity="0.996"/>
<path d="M286.842 408.96L285.672 405.57L284.862 404.12L283.922 402.85L285.032 403.7L285.872 404.71L286.672 406.63L286.842 408.96Z" fill="#787D71" fill-opacity="0.996"/>
<path d="M498.203 403.689L498.283 431.329L498.403 431.709L498.783 431.839L507.253 431.939L509.523 431.68L510.383 431.329L511.063 430.829L512.133 429.68L512.783 428.639L513.133 427.459L513.293 425.649L513.673 422.319L514.083 420.449L514.203 423.74L513.973 426.419L513.543 427.99L512.633 429.629L511.283 431.099L510.333 431.779L509.233 432.299L506.573 432.829L502.323 432.889L498.523 432.469L498.133 432.24L497.973 431.809L498.203 403.689Z" fill="#787D71" fill-opacity="0.996"/>
<path d="M456.092 410.37L455.102 405.92L455.602 406.79L455.932 407.83L456.092 410.37Z" fill="#787D71" fill-opacity="0.996"/>
<path d="M216.93 408.461L224.79 433.261L222.27 426.441L220 419.551L216.93 408.461Z" fill="#787D71" fill-opacity="0.996"/>
<path d="M326.691 413.07L329.751 419.71L328.451 418.26L327.511 416.64L326.931 414.93L326.691 413.07Z" fill="#787D71" fill-opacity="0.996"/>
<path d="M226.759 479.79L225.779 478.75L224.879 477.29L223.229 472.99L222.589 471.09L220.649 465.19L217.179 453.59L213.509 441.99L209.609 430.38L205.509 418.78L205.069 418.62L204.859 418.17L204.909 417.42L205.129 416.67L205.379 416.41L205.649 416.64L205.959 417.36L215.439 446.58L223.889 473.55L225.139 476.64L226.869 479.35L227.059 479.59L227.099 479.71L227.049 479.74L226.759 479.79Z" fill="#787D71" fill-opacity="0.996"/>
<path d="M347.021 434.03L332.801 423L337.931 426.5L342.581 430.12L347.021 434.03Z" fill="#787D71" fill-opacity="0.996"/>
<path d="M51.85 449.39L51.4 443.44L51.25 437.5L51.39 431.7L51.82 425.91L52.15 433.08L52.2 440.24L51.85 449.39Z" fill="#787D71" fill-opacity="0.996"/>
<path d="M17.7694 427.07L18.4094 427.7L19.2494 427.91L36.2994 427.92L37.9594 428.17L38.9294 428.88L39.1794 429.55L39.1494 430.4L38.4994 429.24L37.6494 428.6L36.7794 428.47L28.0594 428.79L19.1594 428.74L18.3594 428.54L17.7194 428.03L17.6694 427.96L17.6094 427.58L17.7694 427.07Z" fill="#787D71" fill-opacity="0.996"/>
<path d="M182.03 468.081L156.5 467.761L155.76 467.611L155.13 467.181L154.72 466.561L154.57 465.821V440.831L154.7 440.151L155.08 439.581L155.65 439.191L156.33 439.051L173.04 439.351L174.29 439.241L175.34 438.811L175.79 438.481L176.1 438.091L176.26 437.631L176.55 433.881L176.27 430.221L175.6 427.231L176.09 427.211L176.42 427.611L177.16 430.131L177.43 432.661L177.24 435.191L176.59 437.731L176.05 438.811L175.3 439.451L174.65 439.721L173.06 439.931L155.6 439.901L155.31 440.191V466.631L155.58 466.911L174.56 466.871L178.77 467.161L180.52 467.541L182.03 468.081Z" fill="#787D71" fill-opacity="0.996"/>
<path d="M581.093 468.921L579.923 467.881L578.813 467.541L554.773 467.581L553.853 467.211L553.473 466.291V441.231L553.593 440.421L553.933 439.851L554.503 439.501L555.303 439.391H572.763L573.803 439.181L574.693 438.591L575.283 437.701L575.493 436.661V428.931L575.393 428.571L574.503 427.211L574.783 427.201L575.073 427.291L575.243 427.521L575.813 429.381L576.283 432.581L576.143 435.941L575.623 437.851L574.613 439.151L573.193 439.821L571.333 439.941L555.213 439.821L554.583 440.081L554.323 440.711V466.631L554.623 466.941L578.783 466.991L579.903 467.161L580.653 467.651L580.973 468.201L581.093 468.921Z" fill="#787D71" fill-opacity="0.996"/>
<path d="M67.3828 428.451L69.7828 429.751L68.6427 429.801L67.7127 429.501L67.4528 429.141L67.3828 428.451Z" fill="#787D71" fill-opacity="0.996"/>
<path d="M332.582 441.881L329.752 440.161L327.052 438.261L324.592 436.271L322.262 434.131L332.582 441.881Z" fill="#787D71" fill-opacity="0.996"/>
<path d="M352.148 439.311L354.228 441.771L355.728 444.481L356.338 446.201L356.738 448.011L352.148 439.311Z" fill="#787D71" fill-opacity="0.996"/>
<path d="M38.5806 440.861L36.8306 441.621L35.3006 441.911L19.2306 441.971L18.7706 442.081L18.4706 442.411L17.3906 444.401L17.6306 441.841L17.9306 441.231L18.5606 440.981L38.5806 440.861Z" fill="#787D71" fill-opacity="0.996"/>
<path d="M82.5586 445.311L81.1987 444.311L79.7386 443.581L78.1987 443.141L76.5586 442.971L67.5886 442.901L67.5586 442.761L67.7786 442.411L68.2086 442.251L72.1186 441.951L76.5286 442.131L78.0087 442.361L79.3286 442.761L80.4986 443.341L81.4986 444.091L82.5586 445.311Z" fill="#787D71" fill-opacity="0.996"/>
<path d="M331.762 467.94L334.272 467.99L336.452 467.68L338.302 467L339.812 465.95L340.772 464.86L341.522 463.54L342.062 461.98L342.392 460.2L342.522 458.16L342.432 456.21L342.122 454.34L341.582 452.55L340.342 450.01L338.592 447.66L335.912 444.89L333.092 442.4L334.682 443.43L336.252 444.69L339.312 447.91L340.512 449.54L341.482 451.21L342.222 452.94L342.732 454.72L343.062 457.6L342.842 460.61L342.362 462.66L341.662 464.38L340.722 465.79L339.552 466.89L338.012 467.71L336.202 468.17L334.122 468.24L331.762 467.94Z" fill="#787D71" fill-opacity="0.996"/>
<path d="M413.77 446.92L412.89 446.08L411.83 445.6L410.56 445.43H409.93L401.08 445.56L400.37 445.73L399.43 446.16L399.8 445.69L400.61 445.22L403.46 444.88L406.31 444.77L409.46 444.93L412.6 445.38L413.33 445.73L413.67 446.26L413.77 446.92Z" fill="#787D71" fill-opacity="0.996"/>
<path d="M509.41 444.93L509.79 444.95L509.831 445.13L509.8 445.15L509.73 445.18L509.47 445.19L509.23 445.08L509.41 444.93Z" fill="#787D71" fill-opacity="0.996"/>
<path d="M100.033 479.191L100.073 479.561L100.003 479.931L99.6827 480.151L96.5827 480.831L93.4728 481.101L90.3927 480.971L87.3128 480.441L86.2228 479.971L85.3927 479.161L84.8327 478.101L84.4528 476.691L84.2427 474.921L84.1127 467.701L84.1928 453.151L83.9428 449.621L83.1328 446.061L83.5227 446.801L84.3228 449.161L84.6028 451.781L84.9027 476.141L85.1827 477.881L85.9428 479.111L87.2127 479.831L88.9627 480.031L98.0527 479.951L99.0827 479.821L99.8428 479.391L100.033 479.191Z" fill="#787D71" fill-opacity="0.996"/>
<path d="M413.98 447.439L414.2 450.669L414.29 458.149L414.03 461.509L413.44 464.699L412.52 467.719L411.26 470.559L409.69 473.189L407.8 475.649L406.54 476.889L405.04 478.009L403.28 478.979L401.28 479.829L398.28 480.769L395.3 481.399L392.34 481.699L389.4 481.689L386.75 481.399L388.98 481.079L391.29 480.99L395.8 480.859L398.5 480.299L401 479.469L403.28 478.359L405.36 476.979L407.55 474.99L409.44 472.619L410.84 470.18L411.96 467.349L412.79 464.139L413.34 460.559L413.8 453.879L413.71 447.549V447.529L413.73 447.499L413.98 447.439Z" fill="#787D71" fill-opacity="0.996"/>
<path d="M311.58 455.041L311.67 460.221L312.33 464.881L313.54 469.011L315.32 472.631L316.19 473.901L318.44 476.241L321.25 478.141L324.62 479.621L328.55 480.661L331.7 481.011L336.6 481.151L339.41 480.951L342.26 480.341L345.14 479.291L348.05 477.831L349.89 476.621L351.54 475.201L353.01 473.551L354.28 471.681L355.34 469.591L356.19 467.301L357.14 463.661L357.71 460.211L357.89 456.931L357.67 453.831L357.1 448.871L357.78 451.121L358.23 454.971L358.29 458.711L357.93 462.341L357.18 465.861L356.14 468.981L354.87 471.701L353.36 474.061L351.6 476.061L349.59 477.691L347.69 478.801L345.61 479.641L341.85 480.771L338.5 481.561L335.58 482.001L333.07 482.111L330.02 481.691L325.51 480.551L323.5 479.871L321.71 479.051L320.12 478.091L318.74 476.981L315.55 473.571L314.4 471.951L313.55 470.391L312.34 467.191L311.65 464.301L311.3 461.311L311.27 458.231L311.58 455.041Z" fill="#787D71" fill-opacity="0.996"/>
<path d="M321.87 450.57L315.09 450.47L316.88 450.1L318.66 450.01L320.27 450.17L321.87 450.57Z" fill="#787D71" fill-opacity="0.996"/>
<path d="M324.96 452.971L325.19 460.721L324.93 459.681L324.59 456.401L324.96 452.971Z" fill="#787D71" fill-opacity="0.996"/>
<path d="M383.051 463.571L384.641 465.741L385.571 466.541L386.591 467.161L387.631 467.561L390.321 468.001L391.571 467.931L392.771 467.661L393.951 467.181L395.071 466.471L397.111 464.431L397.981 462.431L398.981 458.561L398.901 461.021L398.271 463.251L397.501 464.641L396.901 465.411L395.081 466.931L392.701 467.971L391.271 468.301L389.931 468.421L388.671 468.311L387.491 467.991L386.211 467.341L385.041 466.381L383.991 465.131L383.051 463.571Z" fill="#787D71" fill-opacity="0.996"/>
<path d="M482.92 476.87L482.29 471.58L482.18 466.31L482.42 462.61L482.92 458.92L483.23 464.21L483.26 470.53L482.92 476.87Z" fill="#787D71" fill-opacity="0.996"/>
<path d="M452.82 466.761L453.23 466.141L454.8 463.051L455.83 459.621L455.84 461.371L455.49 463.001L454.47 464.991L452.82 466.761Z" fill="#787D71" fill-opacity="0.996"/>
<path d="M372.04 474.17L370.14 471.61L368.72 468.85L367.68 465.5L367.25 461.9L372.04 474.17Z" fill="#787D71" fill-opacity="0.996"/>
<path d="M283.851 466.18L283.701 466.25L280.841 467.3L277.701 467.75L274.271 467.63L270.551 466.92L277.491 466.93L280.741 466.65L283.851 466.18Z" fill="#787D71" fill-opacity="0.996"/>
<path d="M52.1186 476.82L51.7386 475.87L51.5586 474.91L51.6287 473.77L51.9787 472.6L52.1186 476.82Z" fill="#787D71" fill-opacity="0.996"/>
<path d="M384.049 480.891L381.089 480.241L378.359 479.151L376.279 477.911L374.359 476.361L384.049 480.891Z" fill="#787D71" fill-opacity="0.996"/>
<path d="M53.35 479.821L52.84 479.831L52.49 479.661L52.4 479.551L52.37 479.501L52.25 479.011L52.37 478.371L53.35 479.821Z" fill="#787D71" fill-opacity="0.996"/>
<path d="M496.922 480.17L493.522 480.96L490.152 481.15L487.112 480.8L484.092 479.95L483.562 479.57L483.552 479.56L483.312 478.9L485.122 479.78L486.832 480.04L496.922 480.17Z" fill="#787D71" fill-opacity="0.996"/>
<path d="M16.9829 479.18L17.0128 479.51L16.9129 479.87L16.6228 480.09L14.4529 480.66L12.2628 481L8.2328 481.01L4.13281 480.25L9.38281 480.01L14.5029 480.02L15.6329 479.83L16.9829 479.18Z" fill="#787D71" fill-opacity="0.996"/>
<path d="M580.571 479.32L580.481 479.61L580.351 479.84L580.031 480.08L578.421 480.66L576.771 480.99L575.061 481.1L546.311 480.89L543.641 480.68L541.461 480.11L578.331 480.04L578.971 479.98L580.331 479.44L580.571 479.32Z" fill="#787D71" fill-opacity="0.996"/>
<path d="M66.3911 479.82L64.7911 480.45L63.1511 480.88L61.1611 481.12L59.1211 481.08L57.0211 480.75L54.8711 480.14L66.3911 479.82Z" fill="#787D71" fill-opacity="0.996"/>
<path d="M205.081 479.531L203.151 480.481L201.561 480.891L199.871 481.041L198.091 480.931L196.211 480.541L197.101 480.321L201.041 480.301L205.081 479.531Z" fill="#787D71" fill-opacity="0.996"/>
<path d="M197.099 480.32L196.209 480.54L195.169 480.4L194.109 480.03L194.169 480.02L195.619 480.04L197.099 480.32Z" fill="#236391"/>
<path d="M237.061 480.1L237.121 480.31L233.991 480.94L230.931 480.92L228.971 480.55L227.051 479.91L237.061 480.1Z" fill="#EC9940"/>
<path d="M238.292 480.26L237.122 480.31L237.062 480.1L238.292 480.26Z" fill="#787D71" fill-opacity="0.996"/>
</svg>
