<svg xmlns="http://www.w3.org/2000/svg" viewBox="0 0 100 100" width="100" height="100">
<rect x="1" y="1" width="98" height="98" rx="20" fill="#ffffff" stroke="#e6e4df" stroke-width="1.5"/>
<svg x="17" y="17" width="66" height="66" preserveAspectRatio="xMidYMid meet" viewBox="0 0 980.00 778.00" xmlns="http://www.w3.org/2000/svg">
  <defs><linearGradient id="gavigoFrame" x1="0" y1="0" x2="0" y2="1"><stop offset="0" stop-color="#0082FB"/><stop offset="1" stop-color="#0064E0"/></linearGradient></defs>
  <path d="M819.5 753.5C817.12 753.21 814.92 752.75 812.75 752.25C810.58 751.75 808.5 751.16 806.5 750.5C804.5 749.83 802.62 749.04 800.74 748.25C798.87 747.46 797.03 746.62 795.24 745.75C793.45 744.88 791.7 743.96 789.99 743C788.28 742.04 786.61 741.04 784.99 740C783.37 738.95 781.74 737.91 780.24 736.74C778.74 735.58 777.4 734.25 775.99 733C774.57 731.75 773.19 730.45 771.74 729.24C770.28 728.03 768.7 726.94 767.24 725.73C765.79 724.52 764.37 723.27 763 721.98C761.63 720.68 760.33 719.31 759 717.97C757.67 716.64 756.33 715.3 755 713.97C753.67 712.64 752.33 711.3 751 709.97C749.67 708.63 748.33 707.3 747 705.97C745.67 704.63 744.29 703.34 743 701.96C741.71 700.59 740.45 699.18 739.24 697.72C738.03 696.27 736.93 694.69 735.72 693.24C734.51 691.79 733.25 690.37 731.96 689C730.66 687.63 729.29 686.33 727.96 685C726.62 683.67 725.29 682.33 723.95 681C722.62 679.67 721.28 678.33 719.95 677C718.62 675.67 717.28 674.33 715.95 673C714.61 671.67 713.28 670.33 711.95 669C710.61 667.67 709.28 666.33 707.94 665C706.61 663.67 705.31 662.29 703.94 661C702.57 659.71 701.16 658.45 699.71 657.23C698.25 656.02 696.68 654.93 695.22 653.72C693.76 652.51 692.37 651.23 690.95 649.98C689.53 648.74 688.16 647.44 686.7 646.23C685.24 645.02 683.71 643.89 682.22 642.72C680.72 641.55 679.21 640.38 677.71 639.21C676.21 638.05 674.72 636.88 673.21 635.71C671.71 634.55 670.24 633.35 668.69 632.23C667.14 631.11 665.55 630.04 663.92 629C662.3 627.96 660.6 626.99 658.94 625.98C657.28 624.97 655.64 623.95 653.98 622.94C652.32 621.93 650.66 620.92 649 619.91C647.34 618.91 645.67 617.91 644 616.91C642.33 615.92 640.66 614.92 638.98 613.93C637.3 612.94 635.65 611.93 633.93 610.98C632.21 610.03 630.47 609.11 628.68 608.23C626.89 607.35 625.04 606.54 623.2 605.7C621.37 604.87 619.56 604.01 617.68 603.23C615.79 602.44 613.86 601.7 611.9 601C609.94 600.3 607.9 599.67 605.9 599C603.9 598.33 601.93 597.63 599.89 597C597.86 596.37 595.79 595.77 593.67 595.22C591.55 594.67 589.36 594.2 587.2 593.7C585.03 593.2 582.88 592.68 580.67 592.22C578.45 591.77 576.16 591.39 573.91 590.97C571.67 590.55 569.4 590.15 567.19 589.69C564.98 589.23 562.92 588.63 560.66 588.22C558.41 587.81 556.07 587.47 553.66 587.22C551.25 586.96 548.65 586.9 546.19 586.69C543.73 586.48 541.33 586.21 538.91 585.97C536.48 585.73 534.12 585.42 531.62 585.25C529.12 585.08 526.48 585.06 523.9 584.97C521.33 584.87 518.73 584.81 516.18 584.68C513.64 584.56 511.2 584.33 508.65 584.22C506.1 584.1 503.49 584.04 500.86 584C498.23 583.96 495.53 584 492.86 584C490.19 584 487.53 584 484.86 584C482.19 584 479.52 584 476.86 584C474.19 584 471.48 583.96 468.85 584C466.23 584.04 463.64 584.12 461.1 584.25C458.56 584.38 456.1 584.58 453.6 584.75C451.1 584.92 448.59 585.08 446.1 585.25C443.6 585.42 441.12 585.61 438.63 585.79C436.15 585.97 433.63 586.12 431.17 586.33C428.71 586.54 426.27 586.76 423.88 587.04C421.49 587.32 419.14 587.63 416.84 588C414.54 588.37 412.3 588.79 410.09 589.25C407.88 589.71 405.79 590.28 403.58 590.75C401.38 591.22 399.11 591.61 396.87 592.04C394.64 592.47 392.33 592.84 390.16 593.34C388 593.84 385.93 594.43 383.87 595.04C381.81 595.65 379.83 596.34 377.83 597C375.82 597.66 373.87 598.38 371.82 599C369.78 599.62 367.77 600.3 365.57 600.75C363.37 601.2 360.93 601.64 358.61 601.7C356.3 601.77 353.78 601.62 351.66 601.16C349.54 600.69 347.62 599.87 345.91 598.91C344.2 597.95 342.71 596.77 341.41 595.41C340.11 594.04 338.99 592.49 338.11 590.7C337.22 588.92 336.51 586.8 336.11 584.7C335.71 582.6 335.51 580.21 335.7 578.1C335.89 576 336.53 573.93 337.25 572.05C337.97 570.18 338.95 568.42 340.05 566.85C341.15 565.28 342.38 563.85 343.85 562.65C345.32 561.45 347.09 560.56 348.85 559.65C350.61 558.74 352.51 557.97 354.4 557.2C356.3 556.42 358.21 555.67 360.21 555C362.21 554.33 364.3 553.76 366.41 553.2C368.52 552.64 370.73 552.19 372.86 551.64C374.98 551.1 377.06 550.51 379.16 549.95C381.26 549.38 383.29 548.74 385.47 548.25C387.64 547.76 389.97 547.42 392.22 547C394.47 546.58 396.76 546.21 398.97 545.75C401.18 545.29 403.26 544.71 405.47 544.25C407.68 543.79 409.89 543.33 412.23 543C414.56 542.67 417.02 542.46 419.48 542.25C421.94 542.04 424.52 541.96 426.98 541.75C429.44 541.54 431.82 541.25 434.23 541C436.65 540.75 438.99 540.43 441.48 540.25C443.98 540.07 446.61 540.04 449.18 539.94C451.74 539.84 454.33 539.76 456.87 539.63C459.41 539.51 461.87 539.3 464.43 539.19C466.99 539.09 469.61 539.03 472.24 539C474.88 538.97 477.58 539 480.25 539C482.91 539 485.58 539 488.25 539C490.92 539 493.58 539 496.25 539C498.92 539 501.59 539 504.25 539C506.92 539 509.59 539 512.26 539C514.92 539 517.63 538.96 520.26 539C522.88 539.04 525.47 539.12 528.01 539.25C530.55 539.38 533.01 539.58 535.51 539.75C538.01 539.92 540.55 540.04 543.01 540.25C545.47 540.46 547.89 540.71 550.27 541C552.64 541.29 554.93 541.67 557.27 542C559.6 542.33 561.94 542.67 564.27 543C566.6 543.33 568.94 543.67 571.27 544C573.61 544.33 575.98 544.62 578.28 545C580.57 545.38 582.82 545.79 585.03 546.25C587.24 546.71 589.36 547.25 591.53 547.75C593.7 548.25 595.88 548.74 598.03 549.25C600.19 549.76 602.33 550.29 604.46 550.82C606.59 551.36 608.72 551.9 610.82 552.47C612.92 553.03 615.02 553.6 617.07 554.22C619.13 554.83 621.17 555.45 623.15 556.15C625.12 556.84 627.01 557.62 628.9 558.4C630.78 559.18 632.58 560.04 634.47 560.82C636.36 561.6 638.32 562.31 640.22 563.07C642.13 563.84 644.07 564.57 645.9 565.4C647.73 566.23 649.49 567.14 651.23 568.07C652.96 569.01 654.6 570.04 656.3 571C658.01 571.96 659.73 572.91 661.48 573.83C663.23 574.74 665.1 575.54 666.83 576.48C668.55 577.42 670.22 578.43 671.83 579.48C673.44 580.54 674.9 581.74 676.49 582.83C678.07 583.91 679.69 584.96 681.32 586C682.94 587.04 684.64 588.01 686.24 589.08C687.84 590.15 689.37 591.28 690.91 592.41C692.45 593.53 693.94 594.72 695.49 595.83C697.05 596.94 698.67 597.98 700.24 599.08C701.81 600.18 703.38 601.27 704.91 602.41C706.44 603.55 707.91 604.75 709.41 605.91C710.91 607.08 712.44 608.22 713.92 609.42C715.39 610.61 716.82 611.85 718.25 613.08C719.68 614.32 721.07 615.6 722.5 616.83C723.93 618.07 725.4 619.27 726.83 620.5C728.26 621.74 729.68 622.99 731.09 624.25C732.49 625.52 733.88 626.79 735.26 628.09C736.63 629.38 738 630.68 739.34 632C740.69 633.32 742.01 634.67 743.35 636C744.68 637.33 746.01 638.67 747.35 640C748.68 641.33 750.02 642.67 751.35 644C752.69 645.33 754.02 646.67 755.35 648C756.69 649.33 758.02 650.67 759.36 652C760.69 653.33 762.02 654.67 763.36 656C764.69 657.33 766.03 658.67 767.36 660C768.69 661.33 770.04 662.65 771.36 664C772.68 665.35 773.98 666.71 775.27 668.09C776.56 669.47 777.8 670.9 779.09 672.28C780.38 673.66 781.68 675.02 783 676.37C784.32 677.72 785.67 679.04 787 680.37C788.33 681.71 789.67 683.04 791 684.37C792.33 685.71 793.65 687.06 795 688.38C796.35 689.69 797.69 691.02 799.1 692.28C800.5 693.54 801.97 694.75 803.44 695.94C804.91 697.13 806.42 698.29 807.94 699.44C809.46 700.59 810.92 701.79 812.54 702.85C814.16 703.9 815.75 704.97 817.64 705.75C819.53 706.53 821.65 707.18 823.89 707.5C826.12 707.82 828.72 707.83 831.04 707.65C833.37 707.48 835.73 707 837.85 706.45C839.97 705.9 841.92 705.19 843.75 704.35C845.58 703.52 847.23 702.5 848.85 701.45C850.47 700.4 851.95 699.22 853.45 698.05C854.95 696.88 856.45 695.71 857.85 694.45C859.25 693.18 860.58 691.85 861.85 690.45C863.12 689.05 864.29 687.55 865.45 686.05C866.62 684.55 867.76 683.02 868.85 681.44C869.94 679.87 870.98 678.23 872 676.59C873.02 674.95 874.02 673.28 875 671.59C875.98 669.89 876.94 668.2 877.85 666.44C878.76 664.68 879.61 662.86 880.46 661.04C881.31 659.22 882.13 657.37 882.96 655.54C883.79 653.71 884.65 651.89 885.46 650.04C886.28 648.19 887.1 646.34 887.86 644.43C888.61 642.52 889.31 640.55 890 638.57C890.69 636.6 891.33 634.57 892 632.57C892.67 630.57 893.36 628.59 894 626.57C894.64 624.54 895.28 622.51 895.86 620.43C896.44 618.34 896.93 616.16 897.47 614.03C898.01 611.91 898.56 609.79 899.11 607.67C899.66 605.55 900.25 603.48 900.75 601.31C901.25 599.14 901.66 596.88 902.11 594.67C902.57 592.45 903.01 590.24 903.47 588.03C903.93 585.82 904.44 583.66 904.86 581.41C905.28 579.17 905.64 576.86 906 574.55C906.36 572.24 906.67 569.88 907 567.55C907.33 565.21 907.67 562.88 908 560.55C908.33 558.21 908.67 555.88 909 553.54C909.33 551.21 909.67 548.88 910 546.54C910.33 544.21 910.71 541.91 911 539.54C911.29 537.16 911.54 534.75 911.75 532.29C911.96 529.83 912.08 527.29 912.25 524.78C912.42 522.28 912.62 519.82 912.75 517.28C912.88 514.74 912.92 512.11 913 509.53C913.08 506.95 913.12 504.32 913.25 501.78C913.38 499.24 913.62 496.82 913.75 494.28C913.88 491.73 913.96 489.15 914 486.52C914.04 483.9 914.04 481.15 914 478.52C913.96 475.9 913.88 473.31 913.75 470.77C913.62 468.23 913.38 465.81 913.25 463.27C913.12 460.72 913.08 458.1 913 455.51C912.92 452.93 912.88 450.3 912.75 447.76C912.62 445.22 912.42 442.76 912.25 440.26C912.08 437.76 911.96 435.22 911.75 432.76C911.54 430.3 911.27 427.9 911 425.51C910.73 423.11 910.38 420.8 910.13 418.38C909.88 415.96 909.71 413.46 909.5 411C909.29 408.54 909.13 406.04 908.88 403.62C908.63 401.21 908.31 398.85 908 396.5C907.69 394.14 907.33 391.83 907 389.49C906.67 387.16 906.35 384.8 906 382.49C905.65 380.18 905.29 377.87 904.87 375.62C904.45 373.37 903.95 371.2 903.49 368.99C903.04 366.78 902.54 364.62 902.12 362.36C901.71 360.11 901.4 357.76 901 355.48C900.6 353.21 900.21 350.94 899.75 348.73C899.29 346.52 898.75 344.4 898.25 342.23C897.75 340.06 897.25 337.89 896.75 335.73C896.25 333.56 895.75 331.39 895.25 329.22C894.75 327.06 894.25 324.89 893.75 322.72C893.25 320.55 892.75 318.39 892.25 316.22C891.75 314.05 891.29 311.84 890.75 309.72C890.21 307.59 889.61 305.53 889 303.47C888.39 301.4 887.7 299.43 887.12 297.35C886.53 295.27 886.02 293.11 885.48 290.98C884.94 288.85 884.45 286.68 883.87 284.59C883.29 282.51 882.64 280.48 882 278.46C881.36 276.43 880.67 274.45 880 272.45C879.33 270.45 878.67 268.45 878 266.45C877.33 264.45 876.67 262.45 876 260.45C875.33 258.45 874.67 256.45 874 254.45C873.33 252.45 872.69 250.42 872 248.45C871.31 246.47 870.62 244.5 869.86 242.58C869.11 240.67 868.26 238.85 867.47 236.97C866.68 235.09 865.88 233.23 865.11 231.33C864.34 229.43 863.63 227.47 862.86 225.58C862.08 223.68 861.26 221.84 860.47 219.97C859.68 218.09 858.89 216.2 858.11 214.32C857.32 212.44 856.56 210.54 855.75 208.68C854.94 206.82 854.08 205.01 853.25 203.18C852.42 201.34 851.61 199.48 850.75 197.68C849.89 195.87 848.99 194.1 848.11 192.32C847.22 190.53 846.34 188.75 845.46 186.96C844.59 185.17 843.77 183.32 842.86 181.56C841.95 179.81 840.96 178.12 840 176.42C839.04 174.71 838.05 173.03 837.1 171.31C836.15 169.59 835.26 167.82 834.31 166.1C833.36 164.38 832.39 162.68 831.41 161C830.43 159.32 829.42 157.65 828.41 156C827.39 154.35 826.36 152.72 825.3 151.1C824.25 149.48 823.15 147.92 822.1 146.3C821.05 144.68 820.04 143.03 819 141.4C817.96 139.78 816.94 138.12 815.85 136.55C814.76 134.97 813.6 133.47 812.45 131.95C811.3 130.43 810.11 128.95 808.95 127.45C807.78 125.95 806.63 124.43 805.45 122.95C804.26 121.46 803.09 119.97 801.85 118.54C800.61 117.11 799.31 115.75 798 114.39C796.69 113.03 795.33 111.72 794 110.38C792.67 109.05 791.33 107.72 790 106.38C788.67 105.05 787.36 103.69 786 102.38C784.64 101.07 783.26 99.79 781.84 98.53C780.43 97.28 778.98 96.06 777.53 94.84C776.08 93.63 774.62 92.42 773.12 91.25C771.62 90.08 770.08 88.96 768.53 87.84C766.98 86.72 765.46 85.58 763.84 84.53C762.23 83.47 760.56 82.47 758.84 81.53C757.12 80.58 755.31 79.72 753.52 78.84C751.73 77.96 749.95 77.08 748.11 76.25C746.28 75.42 744.43 74.6 742.52 73.84C740.62 73.08 738.68 72.35 736.68 71.68C734.68 71.01 732.65 70.37 730.52 69.84C728.38 69.31 726.17 68.85 723.85 68.5C721.53 68.15 719.06 67.96 716.6 67.75C714.14 67.54 711.6 67.33 709.1 67.25C706.6 67.17 704.06 67.12 701.6 67.25C699.14 67.38 696.68 67.67 694.34 68C692.01 68.33 689.73 68.72 687.59 69.25C685.45 69.78 683.45 70.44 681.51 71.17C679.56 71.89 677.79 72.79 675.92 73.58C674.04 74.37 672.14 75.14 670.25 75.92C668.36 76.69 666.42 77.42 664.58 78.25C662.75 79.08 661.03 80.03 659.25 80.92C657.47 81.81 655.71 82.71 653.91 83.59C652.12 84.46 650.26 85.27 648.49 86.17C646.73 87.07 645.03 88.04 643.32 89C641.62 89.96 639.95 90.96 638.24 91.92C636.53 92.88 634.82 93.83 633.08 94.76C631.34 95.69 629.59 96.61 627.83 97.51C626.06 98.41 624.24 99.26 622.49 100.17C620.73 101.09 619.01 102.03 617.31 103C615.62 103.97 613.98 105 612.31 106C610.64 107 608.98 108 607.31 109C605.64 110 603.99 111.01 602.31 112C600.63 112.99 598.96 113.99 597.23 114.92C595.49 115.86 593.69 116.72 591.9 117.6C590.11 118.47 588.24 119.27 586.47 120.17C584.71 121.07 583.01 122.04 581.3 123C579.59 123.96 577.96 124.99 576.22 125.93C574.49 126.86 572.69 127.73 570.9 128.6C569.1 129.48 567.25 130.29 565.47 131.18C563.69 132.06 561.98 133.02 560.22 133.93C558.45 134.83 556.73 135.77 554.89 136.61C553.06 137.44 551.15 138.2 549.21 138.93C547.28 139.66 545.24 140.29 543.28 141C541.32 141.71 539.37 142.42 537.46 143.18C535.55 143.94 533.76 144.82 531.82 145.54C529.88 146.27 527.88 146.94 525.82 147.54C523.76 148.15 521.59 148.65 519.45 149.18C517.32 149.72 515.22 150.28 513.02 150.75C510.82 151.22 508.57 151.64 506.27 152C503.97 152.36 501.56 152.71 499.2 152.93C496.84 153.16 494.48 153.36 492.13 153.37C489.79 153.38 487.46 153.21 485.13 153C482.8 152.79 480.45 152.45 478.13 152.13C475.81 151.81 473.46 151.46 471.19 151.06C468.92 150.67 466.66 150.26 464.51 149.75C462.35 149.24 460.3 148.62 458.25 148C456.21 147.38 454.25 146.67 452.25 146C450.25 145.33 448.25 144.67 446.25 144C444.25 143.33 442.21 142.71 440.25 142C438.29 141.29 436.37 140.54 434.49 139.75C432.62 138.96 430.83 138.08 428.99 137.25C427.16 136.42 425.29 135.62 423.49 134.75C421.69 133.88 419.95 132.96 418.18 132.06C416.41 131.16 414.66 130.24 412.87 129.37C411.08 128.49 409.21 127.69 407.42 126.81C405.64 125.92 403.9 125 402.17 124.06C400.45 123.12 398.79 122.11 397.06 121.17C395.33 120.23 393.58 119.31 391.81 118.42C390.03 117.53 388.18 116.71 386.42 115.81C384.65 114.9 382.92 113.97 381.22 113C379.52 112.03 377.89 111 376.22 110C374.55 109 372.89 107.99 371.22 107C369.54 106.01 367.86 105.03 366.16 104.05C364.47 103.08 362.78 102.1 361.05 101.16C359.33 100.22 357.58 99.3 355.8 98.41C354.03 97.52 352.17 96.7 350.41 95.8C348.64 94.9 346.91 93.97 345.21 93C343.51 92.03 341.88 90.99 340.2 90C338.53 89.01 336.88 87.99 335.15 87.05C333.43 86.11 331.64 85.22 329.85 84.35C328.06 83.47 326.21 82.65 324.4 81.8C322.58 80.95 320.77 80.09 318.94 79.25C317.12 78.41 315.28 77.58 313.44 76.75C311.61 75.92 309.82 75.04 307.94 74.25C306.06 73.46 304.15 72.7 302.19 72C300.22 71.3 298.21 70.65 296.14 70.05C294.07 69.44 292.02 68.83 289.8 68.39C287.57 67.94 285.24 67.61 282.79 67.39C280.35 67.16 277.7 67.07 275.13 67.05C272.57 67.02 269.92 67.09 267.43 67.25C264.93 67.41 262.51 67.67 260.17 68C257.84 68.33 255.59 68.75 253.42 69.25C251.25 69.75 249.21 70.38 247.17 71C245.13 71.62 243.13 72.29 241.17 73C239.21 73.71 237.26 74.42 235.42 75.25C233.57 76.08 231.85 77.02 230.12 77.96C228.39 78.9 226.73 79.9 225.04 80.88C223.35 81.86 221.67 82.84 220 83.84C218.33 84.84 216.65 85.83 215.04 86.88C213.43 87.94 211.86 89.04 210.33 90.17C208.79 91.3 207.33 92.51 205.83 93.67C204.33 94.84 202.79 95.97 201.32 97.18C199.86 98.38 198.42 99.61 197.04 100.89C195.65 102.17 194.33 103.52 193 104.85C191.67 106.19 190.35 107.54 189.04 108.89C187.72 110.24 186.39 111.58 185.11 112.96C183.83 114.35 182.57 115.77 181.35 117.22C180.13 118.66 178.97 120.16 177.78 121.65C176.6 123.13 175.42 124.62 174.25 126.12C173.08 127.62 171.94 129.14 170.78 130.65C169.63 132.16 168.44 133.64 167.31 135.19C166.19 136.73 165.12 138.33 164.03 139.9C162.94 141.48 161.9 143.1 160.78 144.66C159.67 146.21 158.45 147.66 157.34 149.22C156.23 150.78 155.16 152.37 154.12 154C153.08 155.63 152.12 157.33 151.12 159C150.12 160.67 149.08 162.3 148.12 164C147.15 165.7 146.23 167.44 145.34 169.22C144.45 171 143.67 172.89 142.78 174.67C141.89 176.44 140.96 178.18 140 179.89C139.04 181.6 137.98 183.2 137.03 184.92C136.08 186.64 135.17 188.4 134.3 190.2C133.43 191.99 132.64 193.86 131.8 195.7C130.97 197.53 130.13 199.37 129.3 201.2C128.47 203.03 127.63 204.87 126.8 206.7C125.97 208.53 125.09 210.33 124.3 212.2C123.5 214.07 122.78 216.02 122.02 217.93C121.27 219.84 120.55 221.79 119.75 223.66C118.95 225.53 118.04 227.28 117.25 229.16C116.46 231.04 115.71 232.95 115 234.91C114.29 236.87 113.7 238.95 113 240.91C112.3 242.88 111.55 244.8 110.77 246.69C109.99 248.57 109.09 250.34 108.31 252.23C107.53 254.11 106.78 256.04 106.08 258C105.37 259.96 104.74 262 104.08 264C103.41 266 102.74 268 102.07 270C101.41 272 100.7 273.96 100.07 276C99.44 278.04 98.85 280.12 98.3 282.23C97.75 284.35 97.32 286.58 96.77 288.7C96.22 290.82 95.63 292.89 95 294.94C94.37 296.98 93.64 298.91 93.02 300.95C92.4 303 91.82 305.09 91.28 307.22C90.74 309.35 90.27 311.54 89.77 313.71C89.26 315.87 88.75 318.03 88.25 320.19C87.75 322.36 87.25 324.53 86.75 326.7C86.25 328.86 85.75 331.03 85.25 333.2C84.75 335.37 84.25 337.53 83.75 339.7C83.25 341.87 82.71 343.99 82.25 346.2C81.79 348.41 81.42 350.7 81 352.96C80.58 355.21 80.21 357.5 79.75 359.71C79.29 361.92 78.71 364 78.25 366.21C77.79 368.42 77.38 370.67 77 372.96C76.62 375.25 76.33 377.63 76 379.96C75.67 382.3 75.33 384.63 75 386.97C74.67 389.3 74.33 391.63 74 393.97C73.67 396.3 73.33 398.64 73 400.97C72.67 403.3 72.33 405.64 72 407.97C71.67 410.31 71.3 412.6 71.01 414.98C70.72 417.36 70.47 419.78 70.26 422.24C70.05 424.7 69.92 427.24 69.76 429.74C69.59 432.23 69.42 434.73 69.25 437.23C69.08 439.73 68.92 442.23 68.75 444.73C68.58 447.24 68.42 449.74 68.25 452.24C68.08 454.74 67.92 457.24 67.75 459.74C67.59 462.24 67.38 464.7 67.25 467.25C67.13 469.79 67.04 472.37 67 475C66.96 477.62 67 480.33 67 483C67 485.66 66.96 488.37 67 491C67.04 493.62 67.12 496.21 67.25 498.75C67.38 501.29 67.62 503.71 67.75 506.25C67.88 508.79 67.92 511.42 68 514C68.08 516.59 68.12 519.21 68.25 521.76C68.38 524.3 68.59 526.76 68.75 529.26C68.92 531.76 69.05 534.3 69.26 536.76C69.46 539.21 69.71 541.63 70 544.01C70.29 546.39 70.67 548.68 71 551.02C71.33 553.35 71.67 555.68 72 558.02C72.33 560.35 72.62 562.73 73 565.02C73.38 567.31 73.79 569.56 74.25 571.77C74.71 573.98 75.29 576.07 75.75 578.27C76.21 580.48 76.58 582.78 77 585.03C77.42 587.28 77.79 589.57 78.25 591.78C78.71 593.99 79.25 596.11 79.75 598.28C80.25 600.45 80.71 602.66 81.25 604.78C81.79 606.91 82.41 608.95 83 611.04C83.59 613.12 84.21 615.16 84.76 617.28C85.31 619.4 85.73 621.64 86.28 623.76C86.83 625.88 87.42 627.96 88.04 630C88.67 632.04 89.34 634.04 90.04 636C90.75 637.96 91.5 639.88 92.28 641.76C93.07 643.64 93.97 645.41 94.76 647.29C95.55 649.17 96.26 651.12 97.01 653.04C97.77 654.95 98.44 656.94 99.28 658.78C100.11 660.61 101.06 662.33 102.01 664.04C102.97 665.76 104 667.39 105 669.06C106 670.73 107 672.39 108 674.06C109 675.73 110 677.4 111 679.06C112 680.73 112.97 682.43 114.02 684.05C115.07 685.67 116.13 687.27 117.3 688.77C118.48 690.26 119.77 691.63 121.07 693C122.36 694.37 123.7 695.71 125.07 697C126.45 698.29 127.78 699.62 129.32 700.75C130.86 701.88 132.52 702.89 134.31 703.77C136.09 704.65 138.04 705.37 140.04 706.04C142.04 706.71 144.18 707.4 146.31 707.77C148.44 708.14 150.7 708.38 152.83 708.25C154.96 708.12 157.08 707.58 159.09 707C161.09 706.42 163.01 705.59 164.84 704.75C166.67 703.91 168.41 702.98 170.07 701.98C171.73 700.97 173.3 699.87 174.8 698.7C176.3 697.54 177.65 696.22 179.07 694.98C180.49 693.73 181.87 692.44 183.32 691.23C184.77 690.01 186.33 688.9 187.77 687.68C189.22 686.45 190.63 685.2 192 683.9C193.37 682.6 194.7 681.27 196 679.9C197.3 678.53 198.55 677.12 199.78 675.67C201 674.23 202.11 672.67 203.33 671.22C204.55 669.78 205.81 668.37 207.11 667C208.41 665.63 209.78 664.33 211.11 663C212.45 661.67 213.78 660.33 215.11 659C216.45 657.67 217.78 656.33 219.12 655C220.45 653.67 221.78 652.33 223.12 651C224.45 649.67 225.79 648.33 227.12 647C228.45 645.67 229.79 644.33 231.12 643C232.46 641.67 233.75 640.29 235.13 639C236.5 637.71 237.84 636.38 239.38 635.25C240.91 634.12 242.52 633.06 244.35 632.22C246.17 631.37 248.23 630.6 250.32 630.18C252.4 629.77 254.76 629.54 256.85 629.72C258.95 629.89 261.05 630.49 262.89 631.25C264.73 632.01 266.39 633.08 267.89 634.25C269.38 635.42 270.71 636.77 271.86 638.29C273 639.8 274.05 641.51 274.79 643.36C275.52 645.21 276.1 647.31 276.25 649.4C276.4 651.48 276.18 653.83 275.71 655.86C275.24 657.89 274.38 659.87 273.43 661.57C272.47 663.28 271.2 664.68 269.96 666.11C268.73 667.54 267.33 668.81 266 670.15C264.67 671.49 263.33 672.82 262 674.16C260.67 675.49 259.33 676.82 258 678.16C256.67 679.49 255.33 680.83 254 682.16C252.67 683.5 251.33 684.83 250 686.16C248.67 687.5 247.3 688.8 246 690.17C244.7 691.53 243.44 692.94 242.21 694.38C240.98 695.81 239.85 697.35 238.62 698.79C237.39 700.23 236.13 701.63 234.83 703C233.53 704.37 232.16 705.67 230.83 707C229.49 708.33 228.16 709.67 226.82 711C225.49 712.33 224.16 713.67 222.82 715C221.49 716.33 220.19 717.7 218.82 719C217.45 720.3 216.05 721.56 214.61 722.8C213.18 724.03 211.65 725.17 210.2 726.39C208.76 727.61 207.38 728.9 205.95 730.14C204.53 731.38 203.15 732.68 201.65 733.85C200.15 735.01 198.56 736.09 196.95 737.14C195.34 738.2 193.67 739.19 192 740.19C190.33 741.2 188.64 742.17 186.95 743.15C185.26 744.12 183.62 745.15 181.85 746.05C180.08 746.95 178.3 747.83 176.35 748.55C174.4 749.27 172.27 749.81 170.15 750.35C168.02 750.89 165.86 751.4 163.6 751.8C161.33 752.2 158.97 752.59 156.54 752.75C154.12 752.91 151.5 752.88 149.04 752.75C146.58 752.62 144.12 752.33 141.79 752C139.45 751.67 137.2 751.25 135.04 750.75C132.87 750.25 130.82 749.63 128.78 749C126.75 748.37 124.78 747.67 122.84 746.94C120.9 746.22 118.96 745.48 117.14 744.64C115.31 743.8 113.56 742.89 111.89 741.89C110.22 740.89 108.68 739.76 107.14 738.64C105.59 737.51 104.14 736.3 102.64 735.14C101.14 733.97 99.6 732.83 98.13 731.63C96.67 730.44 95.21 729.22 93.82 727.94C92.44 726.66 91.14 725.29 89.82 723.94C88.51 722.59 87.2 721.23 85.94 719.82C84.68 718.42 83.42 717.01 82.25 715.51C81.08 714.01 80.04 712.38 78.94 710.82C77.84 709.26 76.72 707.7 75.63 706.13C74.53 704.55 73.39 703.03 72.38 701.38C71.37 699.72 70.49 697.93 69.56 696.19C68.64 694.45 67.75 692.67 66.81 690.94C65.88 689.21 64.88 687.54 63.94 685.81C63 684.08 62.07 682.34 61.19 680.56C60.3 678.78 59.45 676.96 58.62 675.12C57.79 673.29 56.97 671.44 56.19 669.55C55.4 667.67 54.66 665.74 53.93 663.8C53.2 661.87 52.5 659.9 51.8 657.93C51.1 655.97 50.41 653.99 49.73 652C49.06 650.01 48.39 648.01 47.73 646C47.08 643.99 46.43 641.97 45.8 639.93C45.16 637.9 44.57 635.83 43.93 633.79C43.3 631.76 42.61 629.78 42 627.72C41.39 625.67 40.79 623.6 40.25 621.47C39.71 619.35 39.25 617.14 38.75 614.97C38.25 612.8 37.75 610.64 37.25 608.47C36.75 606.3 36.25 604.13 35.75 601.97C35.25 599.8 34.71 597.67 34.25 595.46C33.79 593.25 33.39 590.99 33 588.71C32.61 586.43 32.33 584.05 31.93 581.78C31.53 579.51 31.06 577.31 30.6 575.1C30.15 572.89 29.58 570.79 29.18 568.53C28.77 566.27 28.44 563.93 28.18 561.53C27.91 559.12 27.81 556.56 27.6 554.1C27.39 551.64 27.19 549.17 26.93 546.77C26.66 544.37 26.28 542.08 26 539.7C25.72 537.31 25.43 534.93 25.25 532.44C25.07 529.96 25.03 527.33 24.92 524.77C24.81 522.21 24.72 519.64 24.59 517.09C24.47 514.55 24.27 512.08 24.17 509.51C24.07 506.95 24.03 504.32 24 501.68C23.97 499.05 24 496.35 24 493.68C24 491.01 24 488.35 24 485.68C24 483.01 24 480.35 24 477.68C24 475.01 23.96 472.3 24 469.68C24.04 467.05 24.12 464.47 24.25 461.92C24.38 459.38 24.58 456.92 24.75 454.42C24.92 451.92 25.08 449.42 25.25 446.92C25.42 444.42 25.58 441.92 25.75 439.42C25.92 436.92 26.04 434.37 26.25 431.91C26.46 429.46 26.75 427.08 27 424.66C27.25 422.24 27.54 419.87 27.75 417.41C27.96 414.95 28.04 412.37 28.25 409.91C28.46 407.45 28.71 405.03 29 402.66C29.29 400.28 29.67 397.99 30 395.65C30.33 393.32 30.67 390.99 31 388.65C31.33 386.32 31.67 383.98 32 381.65C32.33 379.31 32.67 376.98 33 374.65C33.33 372.31 33.67 369.98 34 367.64C34.33 365.31 34.62 362.93 35 360.64C35.38 358.35 35.79 356.1 36.25 353.89C36.71 351.68 37.29 349.6 37.75 347.39C38.21 345.18 38.58 342.89 39 340.64C39.42 338.38 39.79 336.09 40.25 333.88C40.71 331.67 41.28 329.57 41.75 327.38C42.22 325.19 42.65 322.94 43.09 320.72C43.54 318.5 43.96 316.26 44.44 314.06C44.91 311.87 45.44 309.73 45.94 307.56C46.44 305.4 46.91 303.2 47.44 301.06C47.97 298.92 48.53 296.81 49.09 294.71C49.66 292.61 50.29 290.57 50.85 288.46C51.4 286.35 51.9 284.18 52.44 282.06C52.98 279.93 53.5 277.78 54.1 275.71C54.69 273.63 55.35 271.63 56 269.61C56.65 267.59 57.33 265.61 58 263.61C58.67 261.61 59.33 259.61 60 257.61C60.67 255.61 61.33 253.6 62 251.6C62.67 249.6 63.33 247.6 64 245.6C64.67 243.6 65.33 241.6 66 239.6C66.67 237.6 67.33 235.6 68 233.6C68.67 231.6 69.33 229.6 70 227.6C70.67 225.59 71.32 223.58 72 221.59C72.68 219.61 73.36 217.62 74.1 215.69C74.85 213.77 75.66 211.92 76.46 210.04C77.25 208.17 78.08 206.33 78.85 204.44C79.63 202.55 80.34 200.59 81.1 198.69C81.87 196.79 82.65 194.9 83.46 193.04C84.27 191.18 85.13 189.37 85.96 187.54C86.79 185.71 87.63 183.87 88.46 182.04C89.3 180.2 90.13 178.37 90.96 176.54C91.8 174.7 92.61 172.85 93.46 171.04C94.32 169.23 95.18 167.42 96.11 165.68C97.03 163.93 98.04 162.28 99 160.57C99.96 158.86 100.93 157.16 101.86 155.43C102.79 153.69 103.67 151.9 104.58 150.14C105.49 148.39 106.41 146.64 107.33 144.89C108.25 143.14 109.16 141.39 110.11 139.67C111.05 137.95 112.02 136.24 113 134.56C113.98 132.87 114.98 131.2 116 129.55C117.02 127.91 118.06 126.28 119.11 124.66C120.17 123.05 121.26 121.48 122.34 119.89C123.42 118.3 124.5 116.72 125.59 115.14C126.68 113.56 127.78 111.99 128.86 110.41C129.95 108.83 131.01 107.22 132.11 105.66C133.22 104.09 134.31 102.52 135.48 101.02C136.65 99.52 137.88 98.09 139.11 96.65C140.35 95.22 141.64 93.84 142.87 92.4C144.09 90.96 145.27 89.48 146.48 88.02C147.69 86.56 148.86 85.06 150.12 83.65C151.37 82.23 152.69 80.88 154 79.53C155.31 78.18 156.67 76.86 158 75.53C159.33 74.19 160.65 72.84 162 71.53C163.35 70.21 164.7 68.9 166.12 67.64C167.53 66.39 169.01 65.2 170.49 64.01C171.97 62.82 173.49 61.68 174.99 60.51C176.49 59.34 177.99 58.18 179.49 57.01C180.99 55.84 182.47 54.65 183.99 53.51C185.51 52.36 187.03 51.21 188.62 50.13C190.2 49.04 191.84 48.02 193.49 47C195.14 45.98 196.8 44.98 198.49 44C200.18 43.02 201.87 42.04 203.62 41.13C205.37 40.21 207.16 39.34 209 38.5C210.83 37.67 212.73 36.9 214.62 36.13C216.52 35.35 218.46 34.62 220.38 33.87C222.29 33.12 224.17 32.33 226.13 31.62C228.08 30.91 230.06 30.23 232.13 29.62C234.19 29.02 236.36 28.52 238.5 28C240.65 27.48 242.8 26.95 245.01 26.49C247.21 26.04 249.42 25.58 251.76 25.24C254.09 24.91 256.53 24.68 259.01 24.49C261.49 24.31 264.05 24.2 266.64 24.12C269.22 24.04 271.91 23.98 274.52 24C277.12 24.02 279.77 24.08 282.27 24.25C284.77 24.42 287.17 24.69 289.52 25C291.88 25.31 294.17 25.69 296.39 26.13C298.62 26.57 300.78 27.08 302.88 27.65C304.98 28.21 307 28.86 309 29.53C311 30.2 312.94 30.92 314.88 31.65C316.83 32.37 318.73 33.14 320.65 33.88C322.57 34.63 324.51 35.36 326.4 36.13C328.3 36.91 330.17 37.71 332.02 38.52C333.87 39.33 335.69 40.19 337.52 41.02C339.35 41.85 341.21 42.67 343.02 43.52C344.84 44.37 346.66 45.22 348.41 46.14C350.16 47.05 351.84 48.04 353.55 49C355.26 49.96 356.94 50.94 358.66 51.89C360.39 52.83 362.16 53.72 363.89 54.66C365.61 55.61 367.29 56.6 369 57.55C370.71 58.51 372.4 59.49 374.14 60.42C375.88 61.35 377.68 62.21 379.42 63.14C381.16 64.07 382.87 65.02 384.56 66C386.25 66.98 387.88 68.02 389.56 69C391.25 69.98 392.95 70.95 394.67 71.89C396.4 72.84 398.15 73.75 399.89 74.68C401.64 75.6 403.39 76.52 405.14 77.43C406.9 78.34 408.69 79.21 410.43 80.14C412.17 81.07 413.87 82.04 415.57 83C417.28 83.96 418.94 84.97 420.68 85.89C422.43 86.82 424.25 87.66 426.04 88.54C427.83 89.41 429.64 90.28 431.44 91.14C433.24 92.01 435.02 92.9 436.83 93.75C438.65 94.6 440.5 95.42 442.34 96.25C444.17 97.08 445.99 97.93 447.84 98.75C449.69 99.57 451.56 100.37 453.44 101.15C455.33 101.93 457.2 102.73 459.15 103.45C461.1 104.16 463.1 104.83 465.15 105.45C467.2 106.06 469.33 106.6 471.45 107.15C473.57 107.7 475.62 108.32 477.85 108.75C480.08 109.18 482.43 109.58 484.85 109.75C487.27 109.92 489.94 109.92 492.35 109.75C494.77 109.58 497.15 109.21 499.36 108.75C501.57 108.29 503.57 107.62 505.61 107C507.65 106.38 509.61 105.67 511.61 105C513.61 104.33 515.61 103.67 517.61 103C519.61 102.33 521.64 101.69 523.62 101C525.59 100.31 527.56 99.61 529.46 98.85C531.37 98.09 533.21 97.26 535.06 96.44C536.91 95.62 538.73 94.77 540.56 93.94C542.39 93.11 544.24 92.29 546.06 91.44C547.88 90.59 549.71 89.75 551.47 88.84C553.23 87.94 554.92 86.96 556.63 86C558.34 85.04 560.01 84.05 561.72 83.09C563.44 82.14 565.17 81.2 566.91 80.27C568.65 79.35 570.4 78.43 572.16 77.52C573.92 76.62 575.73 75.76 577.48 74.84C579.23 73.92 580.95 72.97 582.64 72C584.33 71.03 585.97 70 587.64 69C589.31 68 590.96 66.99 592.64 66C594.33 65.01 596.02 64.04 597.73 63.09C599.45 62.13 601.2 61.22 602.91 60.26C604.62 59.31 606.29 58.31 608 57.35C609.71 56.39 611.42 55.43 613.16 54.51C614.91 53.59 616.73 52.74 618.49 51.84C620.26 50.93 621.98 49.99 623.74 49.09C625.51 48.18 627.29 47.3 629.08 46.42C630.87 45.55 632.72 44.72 634.5 43.84C636.28 42.95 637.98 41.99 639.75 41.08C641.51 40.18 643.25 39.25 645.08 38.42C646.92 37.58 648.85 36.85 650.75 36.08C652.66 35.32 654.6 34.6 656.5 33.83C658.41 33.07 660.22 32.22 662.17 31.49C664.11 30.77 666.11 30.1 668.17 29.49C670.23 28.88 672.38 28.37 674.51 27.83C676.64 27.29 678.73 26.72 680.93 26.25C683.13 25.78 685.35 25.33 687.68 25C690.02 24.67 692.43 24.42 694.93 24.25C697.44 24.08 700.09 24.01 702.69 24C705.28 23.99 707.95 24.07 710.52 24.17C713.08 24.27 715.59 24.43 718.1 24.6C720.6 24.76 723.13 24.9 725.52 25.17C727.91 25.45 730.24 25.79 732.45 26.25C734.65 26.71 736.69 27.34 738.77 27.93C740.85 28.51 742.89 29.15 744.92 29.78C746.96 30.41 749 31.04 751 31.7C753 32.37 754.99 33.04 756.93 33.78C758.86 34.51 760.74 35.3 762.6 36.1C764.47 36.91 766.28 37.76 768.1 38.6C769.93 39.45 771.77 40.28 773.53 41.18C775.3 42.08 777.02 43.03 778.71 44C780.41 44.97 782.08 45.97 783.72 47C785.35 48.03 786.97 49.08 788.54 50.18C790.1 51.28 791.57 52.49 793.11 53.61C794.65 54.74 796.23 55.82 797.79 56.93C799.35 58.04 800.97 59.08 802.47 60.25C803.98 61.42 805.39 62.67 806.79 63.93C808.2 65.19 809.56 66.5 810.93 67.8C812.3 69.1 813.62 70.44 815 71.73C816.38 73.02 817.79 74.28 819.18 75.55C820.58 76.82 822.03 78.03 823.37 79.37C824.7 80.7 825.91 82.16 827.18 83.55C828.46 84.95 829.71 86.37 831 87.74C832.29 89.12 833.67 90.41 834.94 91.81C836.21 93.2 837.42 94.65 838.62 96.12C839.82 97.59 840.96 99.12 842.12 100.62C843.29 102.12 844.49 103.59 845.62 105.12C846.76 106.66 847.84 108.24 848.94 109.81C850.03 111.39 851.07 113.01 852.19 114.56C853.3 116.12 854.5 117.59 855.63 119.13C856.75 120.67 857.88 122.21 858.94 123.82C860 125.42 860.99 127.1 862 128.76C863.01 130.42 864 132.1 865 133.76C866 135.43 867 137.1 868 138.77C869 140.43 870 142.1 871 143.77C872 145.43 873.01 147.09 874 148.77C874.99 150.45 876 152.1 876.94 153.83C877.88 155.56 878.76 157.34 879.64 159.14C880.51 160.93 881.31 162.8 882.19 164.58C883.08 166.37 884.04 168.07 884.95 169.83C885.85 171.59 886.77 173.34 887.64 175.14C888.51 176.94 889.31 178.81 890.14 180.64C890.98 182.48 891.81 184.31 892.64 186.14C893.48 187.98 894.31 189.81 895.14 191.64C895.98 193.48 896.84 195.28 897.64 197.14C898.45 199.01 899.19 200.94 899.95 202.84C900.71 204.75 901.42 206.71 902.2 208.6C902.98 210.48 903.86 212.27 904.65 214.15C905.44 216.02 906.22 217.91 906.95 219.85C907.67 221.79 908.32 223.81 909 225.8C909.68 227.79 910.33 229.8 911 231.8C911.67 233.8 912.33 235.8 913 237.81C913.67 239.81 914.33 241.81 915 243.81C915.67 245.81 916.33 247.81 917 249.81C917.67 251.81 918.33 253.81 919 255.81C919.67 257.81 920.33 259.81 921 261.81C921.67 263.82 922.33 265.82 923 267.82C923.67 269.82 924.38 271.78 925 273.82C925.62 275.86 926.21 277.95 926.75 280.07C927.29 282.2 927.71 284.45 928.25 286.57C928.79 288.7 929.42 290.74 930 292.83C930.58 294.91 931.21 296.95 931.75 299.08C932.29 301.2 932.72 303.45 933.25 305.58C933.78 307.71 934.39 309.78 934.96 311.87C935.53 313.97 936.17 316 936.67 318.17C937.17 320.33 937.53 322.64 937.96 324.88C938.39 327.12 938.78 329.39 939.25 331.59C939.72 333.79 940.29 335.88 940.75 338.09C941.21 340.3 941.62 342.55 942 344.84C942.38 347.14 942.63 349.55 943 351.85C943.37 354.14 943.77 356.41 944.21 358.64C944.66 360.86 945.22 362.97 945.68 365.18C946.13 367.38 946.58 369.61 946.96 371.89C947.35 374.17 947.66 376.53 948 378.85C948.34 381.18 948.67 383.52 949 385.86C949.33 388.2 949.69 390.51 949.97 392.89C950.25 395.28 950.47 397.72 950.68 400.18C950.89 402.64 951 405.2 951.22 407.65C951.44 410.1 951.74 412.45 952 414.87C952.26 417.28 952.54 419.66 952.75 422.12C952.96 424.58 953.04 427.16 953.25 429.62C953.46 432.08 953.75 434.46 954 436.87C954.25 439.29 954.58 441.62 954.75 444.12C954.92 446.63 954.92 449.29 955 451.88C955.08 454.46 955.12 457.09 955.25 459.63C955.38 462.17 955.62 464.59 955.75 467.13C955.88 469.67 955.96 472.26 956 474.88C956.04 477.51 956 480.22 956 482.89C956 485.55 956 488.22 956 490.89C956 493.56 956 496.22 956 498.89C956 501.56 956.04 504.27 956 506.89C955.96 509.52 955.88 512.1 955.75 514.64C955.62 517.19 955.42 519.65 955.25 522.15C955.08 524.65 954.92 527.15 954.75 529.65C954.58 532.15 954.42 534.65 954.25 537.15C954.08 539.65 953.96 542.19 953.75 544.65C953.54 547.11 953.29 549.53 953 551.91C952.71 554.28 952.33 556.57 952 558.91C951.67 561.24 951.33 563.58 951 565.91C950.67 568.24 950.33 570.58 950 572.91C949.67 575.25 949.33 577.58 949 579.91C948.67 582.25 948.38 584.62 948 586.92C947.62 589.21 947.21 591.46 946.75 593.67C946.29 595.88 945.75 598 945.25 600.17C944.75 602.34 944.26 604.52 943.77 606.69C943.27 608.87 942.79 611.05 942.29 613.21C941.79 615.38 941.31 617.57 940.77 619.7C940.22 621.82 939.6 623.86 939.02 625.95C938.44 628.03 937.83 630.09 937.28 632.22C936.74 634.34 936.31 636.58 935.77 638.7C935.22 640.82 934.63 642.9 934 644.94C933.37 646.98 932.71 648.98 932 650.94C931.29 652.9 930.55 654.83 929.76 656.71C928.98 658.59 928.07 660.35 927.28 662.22C926.49 664.1 925.77 666.05 925.01 667.96C924.26 669.88 923.55 671.83 922.76 673.71C921.97 675.59 921.11 677.39 920.27 679.23C919.44 681.06 918.64 682.93 917.76 684.72C916.88 686.51 915.97 688.25 915.01 689.97C914.06 691.68 913.03 693.32 912.03 694.99C911.04 696.66 910.04 698.33 909.04 700C908.04 701.67 907.03 703.33 906.03 704.99C905.02 706.65 904.06 708.35 903.01 709.97C901.96 711.59 900.92 713.22 899.75 714.72C898.58 716.22 897.3 717.6 896.01 718.98C894.72 720.36 893.35 721.65 892.02 722.99C890.69 724.33 889.36 725.67 888.03 727C886.69 728.33 885.4 729.71 884.02 731C882.65 732.29 881.23 733.54 879.77 734.75C878.31 735.96 876.77 737.08 875.27 738.25C873.76 739.41 872.34 740.66 870.76 741.74C869.17 742.82 867.5 743.82 865.75 744.74C864 745.66 862.13 746.45 860.26 747.24C858.38 748.04 856.51 748.83 854.51 749.49C852.51 750.16 850.38 750.7 848.26 751.25C846.13 751.79 844.01 752.33 841.76 752.75C839.51 753.17 837.21 753.54 834.75 753.75C832.3 753.96 829.54 754.04 827 754C824.46 753.96 821.88 753.79 819.5 753.5Z" fill="url(#gavigoFrame)"/>
  <path d="M640.48 353C640.48 436.11 573.11 503.48 490 503.48C406.89 503.48 339.52 436.11 339.52 353C339.52 269.89 406.89 202.52 490 202.52C573.11 202.52 640.48 269.89 640.48 353ZM550 363.2C556.6 359.24 556.86 352.36 550.58 347.9C523.86 328.97 497.14 310.03 470.42 291.1C464.14 286.64 458.68 289.29 458.3 296.98C456.43 333.99 454.57 371.01 452.7 408.02C452.32 415.71 457.4 418.76 464 414.8C492.67 397.6 521.33 380.4 550 363.2Z" fill="#0866FF" fill-rule="evenodd"/>
</svg>
</svg>
