<svg width="497" height="361" viewBox="0 0 497 361" fill="none" xmlns="http://www.w3.org/2000/svg">
<g clip-path="url(#clip0_777_29188)">
<rect width="497" height="361" fill="white"/>
<path d="M343.131 179.46H350.801L351.771 179.15L352.211 178.21L360.831 108.17L361.341 105.8L362.251 104.13L363.011 103.37L363.931 102.74L366.781 101.51L421.391 82.35L421.431 82.34L424.961 81.41L426.281 81.37L427.231 81.61L429.041 82.72L430.151 84.03L430.641 85.18L430.861 86.66L430.511 90.81L430.381 91.76L420.281 169.93L408.691 264.19L408.151 266.32L407.101 268L405.601 269.19L404.631 269.59L403.491 269.79L400.691 269.6L376.351 264.87L346.981 258.74L344.621 257.88L343.701 257.25L342.961 256.48L342.321 255.39L341.931 254.11L341.791 252.64L341.891 250.98L345.321 222.73L345.691 221.3L346.431 220.29L347.521 219.68L348.961 219.48H351.081L352.511 219.69L353.481 220.31L353.981 221.35L354.011 222.8L350.741 249.13L350.851 249.76L351.371 250.11L353.091 250.66L356.091 251.54L394.661 259.29L396.551 259.51L398.381 259.4L399.481 259.16L399.871 258.92L400.041 258.52L421.071 92.9L421.061 92.34L420.881 92.01L420.511 91.9L419.961 92.01L370.971 109.3L370.141 109.9L369.741 110.84L361.291 178.75L361.361 179.1L361.691 179.26L371.371 180.14L381.171 180.48L383.361 180.74L385.281 181.49L386.361 182.22L387.321 183.14L387.671 183.71L387.801 184.36L387.691 185.02L387.361 185.6L386.041 187.04L384.841 187.88L383.541 188.33L380.061 188.95L377.191 189.21L374.391 189.17L371.151 188.83L368.551 188.59L366.001 188.58L363.511 188.79L361.071 189.24L360.271 189.44L359.261 189.86L358.771 190.46L358.811 191.23L359.361 192.17L360.951 193.84L362.981 196.07L363.601 197.12L363.951 198.12L364.031 198.47L364.141 200.15L363.781 201.63L363.101 202.77L362.071 203.76L360.701 204.6L358.971 205.3L358.481 205.54L358.221 205.88L358.241 206.49L358.851 206.96L359.231 207.25L359.491 207.66L360.051 209.7V210.68L359.841 211.58L359.441 212.42L358.861 213.16L357.101 214.43L354.801 215.23L352.141 215.51L335.211 215.44L333.241 215.64L331.851 216.19L330.661 217.3L329.281 219.43L328.621 220.54L323.801 228.19L316.921 238.41L315.861 239.51L313.871 241.06L310.421 243.24L305.221 245.92L301.711 247.69L300.711 248.39L299.451 249.58L296.811 252.77L284.031 271.17L267.151 295.37L260.261 304.61L253.291 313.32L246.241 321.47L239.111 329.09L234.391 333.74L230.081 337.59L225.961 340.83L222.001 343.47L218.271 345.45L214.731 346.77L211.461 347.43L208.481 347.42L207.131 347.09L205.481 346.39L201.291 343.85L198.491 341.77L195.441 339.23L188.631 332.79L166.561 310.53L163.111 306.37L162.181 305.15L162.051 305.01L161.631 304.77L161.141 304.73L160.681 304.89L160.341 305.24L155.561 312.38L150.501 319.27L145.151 325.9L139.531 332.27L134.781 337.24L129.851 342.03L126.411 344.97L123.351 347.57L121.261 349.67L121.141 350.15L121.471 350.52L121.661 350.55L143.951 350.3L145.031 350.29L147.741 350.32L149.701 350.6L151.251 351.22L152.321 352.14L152.611 352.58L153.141 353.82L153.371 355.08L153.191 356.76L152.461 358.48L152.151 358.85L151.731 359.09L147.981 360.12L143.971 360.46L7.47141 360.48L4.88141 360.17L3.86142 359.79L3.03141 359.24L1.53141 357.56L1.1214 356.69L0.941406 355.81L1.16141 354.24L2.07142 352.63L3.48142 351.31L4.47141 350.82L5.73142 350.49L9.10141 350.38L11.0414 350.39L11.9414 350.07L12.4714 349.27L15.1614 340.1L18.3514 330.57L27.9414 303.92L35.3514 284.79L43.5214 265.86L52.4515 247.14L62.1415 228.63L66.7914 220.43L71.4114 212.84L76.2514 205.38L81.3214 198.06L86.6115 190.87L91.6814 184.55L97.0114 178.67L102.591 173.2L108.431 168.17L110.901 166.36L113.781 164.59L117.051 162.86L120.721 161.17L123.871 160.02L127.191 159.2L130.681 158.72L134.351 158.58H136.941L144.641 158.81L147.451 159.21L150.071 159.85L152.971 160.94L157.701 163.35L162.091 166.21L165.621 169.06L168.901 172.25L171.921 175.79L174.691 179.67L175.341 180.09L176.071 179.88L176.151 179.81L181.401 174.46L190.321 166.12L202.821 155.33L204.191 153.75L205.431 151.45L205.531 150.97L205.421 150.52L204.101 148.05L203.041 146.07L202.191 144.07L201.561 142.03L201.141 139.95L200.911 136.48L201.261 132.92L201.731 132.01L202.641 131.53L203.961 131.4L205.171 131.49L207.071 132.1L209.191 133.39L213.271 136.15L217.371 138.64L221.501 140.86L225.661 142.81L229.481 144.31L233.051 145.4L236.391 146.07L239.491 146.33L241.031 146.22L242.641 145.86L244.321 145.25L246.071 144.38L247.101 143.64L248.061 142.63L249.951 139.71L251.781 135.55L253.401 130.43L257.481 116.25L258.201 115.09L259.591 114.08L261.591 113.26L264.491 112.47L265.481 112.22L266.141 111.89L266.621 111.31L266.811 110.6L266.691 109.87L266.611 109.68L258.851 94.28L258.091 92.28L257.801 90.4L257.861 89.06L258.131 87.69L259.381 84.55L260.041 83.23L262.081 78.92L263.151 75.69L263.581 73.49L263.801 71.22L264.011 64.36L263.881 57.33L263.491 56.63L262.701 56.54L262.461 56.67L262.311 56.79L255.911 61.69L251.091 64.88L249.831 65.62L242.961 69.38L235.851 72.97L228.501 76.37L220.911 79.6L216.501 81.24L211.591 82.78L206.191 84.2L200.291 85.52L199.461 85.56L198.661 85.34L197.961 84.89L197.431 84.25L195.141 81.05L192.551 78.62L191.221 77.76L189.831 77.11L188.471 76.7L187.051 76.52L185.501 76.59L183.901 76.94L182.341 77.57L180.751 78.49L178.831 80.04L177.501 81.7L176.791 83.16L176.311 84.77L175.811 89.32L175.861 92.66L176.351 95.6L177.301 98.28L178.661 100.57L180.141 102.27L181.891 103.71L183.971 104.95L186.271 105.94L188.961 106.74L191.851 107.28L194.991 107.6L198.471 107.7L199.021 107.81L199.491 108.12L199.811 108.58L199.921 109.14V134.6L199.811 135.38L199.491 136.09L195.101 142.59L193.961 143.94L192.501 145.34L188.971 147.94L185.571 149.62L184.041 150.08L182.611 150.26L169.341 150.53H160.241L157.771 150.48L138.481 150.2L125.011 150.41L122.161 150.53L116.431 150.69L112.561 150.43L112.401 150.4L111.201 149.91L110.101 148.9L108.201 146.36L106.611 143.78L105.351 141.14L104.401 138.46L103.251 133.83L102.521 129.38L102.191 124.93L102.281 120.72L102.781 116.72L103.711 112.82L105.021 109.2L106.781 105.71L108.151 103.58L109.711 101.52L113.291 97.79L121.621 90.42L126.231 86.18L127.921 84.24L129.201 82.42L130.711 79.74L131.971 77.1L133.321 73.54L134.411 69.74L135.311 65.42L136.111 60.16L137.011 55.25L138.431 49.79L140.111 44.73L141.921 40.46L145.461 33.94L149.481 27.96L153.971 22.51L158.941 17.59L163.121 14.14L167.581 11.01L172.331 8.19998L177.371 5.70999L182.181 3.75998L187.001 2.23L191.821 1.12999L196.651 0.439987L203.431 0L209.861 0.0699921L215.921 0.619995L221.621 1.67999L228.681 3.75998L235.461 6.57001L241.901 10.08L247.921 14.24L253.411 18.99L255.961 21.58L258.371 24.3L260.611 27.15L262.691 30.12L264.551 33.14L266.251 36.26L269.001 42.44L270.991 48.56L272.141 53.84L272.841 59.43L273.091 65.41L272.901 71.91L272.441 75.7L271.761 78.57L270.761 81.49L269.381 84.62L267.511 88.27L267.101 89.5L267.191 90.98L267.891 92.55L270.311 96.68L272.531 100.97L274.551 105.42L276.361 110.03L276.781 111.46L276.951 112.76L276.891 114.02L276.591 115.14L276.101 116.09L275.451 116.94L273.541 118.45L270.761 119.73L267.011 120.84L266.601 121.04L266.321 121.43L265.261 124.46L264.911 126.93L264.891 164.4L264.401 166.6L263.301 168.62L261.951 169.95L260.331 171L258.471 171.76L256.381 172.22L254.041 172.38H200.941L198.291 172.67L195.981 173.57L194.311 174.8L184.041 184.72L181.581 186.62L180.521 187.37L180.091 187.83L179.831 188.41L179.801 189.04L179.981 189.64L187.561 204.24L197.461 223.49L203.731 236.92L204.041 237.98L204.071 239.27L203.701 240.72L202.981 242.22L201.751 244.15L200.231 246.76L199.991 247.66L200.051 248.51L200.221 248.89L212.801 271.91L213.041 272.11L213.351 272.06L213.371 272.05L226.311 262.7L238.891 253.03L251.121 243.05L263.001 232.75L267.771 228.32L271.791 224.19L272.941 222.89L276.111 218.75L278.841 214.25L281.141 209.76L283.581 204.49L285.781 199.11L287.761 193.62L289.501 188.02L289.481 187.62L289.151 187.39L285.651 186.63L282.211 186.4L262.691 186.46L248.371 186.27L246.391 185.93L244.991 185.05L244.251 183.83L243.941 182.21L243.931 182.04L244.021 180.28L244.661 179L245.851 178.19L247.591 177.87L263.181 177.5L279.771 177.62L284.401 178.08L287.711 178.47L290.161 178.51L292.271 178.22L294.141 177.59L296.121 176.38L307.251 168.01L316.041 162.03L317.391 161.53L318.481 161.59L319.621 162.04L334.701 170.36L335.361 170.42L335.811 169.95L335.851 169.8L346.181 83.43L346.571 81.77L347.241 80.54L348.751 79.26L351.341 78.12L352.371 77.73L390.621 62.97L424.831 49.83L449.231 40.44L450.091 40.15L451.901 39.72L453.791 39.53L455.751 39.56L457.781 39.83L480.161 43.75L481.711 44.19L483.241 45L483.561 45.31L483.741 45.77L483.991 48.45L483.821 51.19L473.891 126.18L471.811 140.43L471.791 141.4L472.031 142.33L472.501 143.17L473.181 143.86L494.891 160.62L495.291 160.99L495.791 161.75L496.081 162.69L496.181 163.81L496.071 165.12L483.181 252.44L482.081 257.86L481.271 259.53L480.571 260.23L479.691 260.78L455.491 272.59L455.151 272.92L455.061 273.38L455.321 274.22L455.621 275.11L455.661 275.33L459.581 306.97L462.981 337.21L463.391 338.15L464.371 338.46H485.461L485.821 338.58L485.941 338.94V357.92L485.791 358.27L485.441 358.42L462.531 358.39L433.851 358.43L414.441 358.88L409.941 359.07L400.381 359.37L389.951 359.47L269.961 359.42L268.361 359.19L267.201 358.52L266.491 357.48L266.161 356.06L265.881 349.63L265.991 340.68L266.001 340.49L266.101 338.76L266.371 337.69L266.831 336.9L267.611 336.04L272.201 332.05L275.891 328.9L278.351 326.43L279.861 325.17L280.921 324.69L282.251 324.38L285.871 324.26H285.951L321.381 324.47L350.661 324.05L353.781 324.21L356.071 324.88L357.741 325.72L364.961 329.65L374.931 335.54L376.021 336.01L377.071 336.1L378.391 335.62L381.131 333.49L384.771 329.98L385.821 329.17L387.131 328.61L388.711 328.31L390.551 328.26L399.191 328.47L408.371 328.45L409.221 328.31L409.781 327.94L410.061 327.32L410.051 326.46L406.671 304.15L406.231 303.19L405.341 302.61L393.051 299.11L324.731 281.14L323.211 280.53L322.091 279.59L321.571 278.77L321.221 277.81L321.101 276.09L321.371 273.41L325.041 248.92L328.981 224.02L329.551 222.16L330.571 220.86L331.981 220.12L333.811 219.89H334.071L335.821 220.16L336.991 220.93L337.571 222.2V223.96L330.881 270.47V271.8L331.281 272.86L332.101 273.65L333.331 274.16L416.241 295.87L416.791 295.83L417.031 295.34L447.971 51.68V51.16L447.791 50.85L447.451 50.75L446.941 50.87L355.751 85.67L355.411 85.9L355.201 86.31L354.101 92.4L344.691 171.43L343.941 175.55L343.361 177.21L342.651 178.6L342.511 179.25L343.131 179.46ZM427.661 297.53H433.791L434.721 297.18L435.191 296.3L465.631 51.72L465.611 50.95L465.361 50.37L464.851 49.97L464.111 49.77L458.561 49.06L457.641 49.24L457.221 50.1L425.881 296.94L426.051 297.57L426.651 298L427.181 297.7L427.661 297.53ZM146.221 281.73L146.991 282.34L148.101 282.36L149.471 281.69L157.291 276.13L164.771 270.24L171.911 264.01L178.701 257.44L185.791 249.82L192.461 241.79L193.551 240.08L193.941 238.63L193.831 237.45L193.331 236.14L174.121 198.12L170.331 191.06L167.161 185.83L164.011 181.39L160.701 177.51L156.961 174.09L152.771 171.28L148.351 169.22L143.591 167.86L139.441 167.3H135.301L131.131 167.86L127.091 168.97L123.291 170.59L119.751 172.71L116.591 175.26L113.781 178.25L111.191 181.99L109.231 186.03L107.841 190.5L107.101 195.18L106.761 202.43L107.081 209.36L108.031 215.97L109.641 222.26L111.131 226.66L112.811 230.95L114.681 235.13L116.731 239.21L122.101 248.71L127.971 258.01L134.361 267.09L141.251 275.96L143.221 278.21L146.221 281.73ZM316.031 177.9L316.601 177.68L318.681 177.46L321.491 177.96L323.721 178.42L325.471 178.54L328.041 178.49L328.911 178.28L328.411 177.8L318.871 172.37L318.031 172.03H317.261L316.601 172.34L300.131 184.83L299.601 185.41L299.211 186.18L298.531 188.66L298.231 189.91L293.871 203.08L292.311 207.05L290.441 211.25L285.771 220.28L282.631 225.21L278.751 230.08L274.061 235.02L268.181 240.42L254.951 251.68L241.391 262.66L227.501 273.36L213.271 283.77L211.791 284.54L210.481 284.64L209.181 284.02L208.021 282.68L205.411 278.29L202.101 271.9L199.301 266.41L197.111 262.54L195.481 259.58L193.891 256.22L193.421 255.81L192.801 255.91L192.691 256.01L185.161 263.89L178.231 270.63L171.391 276.74L164.411 282.41L158.531 286.76L158.111 287.16L157.951 287.58L158.051 288.02L158.401 288.48L160.301 290.32L166.651 296.59L170.011 300.2L181.891 312.85L197.771 328.9L202.051 332.74L207.001 336.42L207.761 336.86L209.241 337.35L210.811 337.47L212.521 337.25L214.451 336.69L216.541 335.77L218.751 334.52L223.691 330.93L228.651 326.66L232.691 322.69L239.961 314.95L243.641 310.86L246.901 306.92L259.131 291L269.371 276.62L284.961 253.7L288.671 248.65L291.861 245.03L294.861 242.36L298.241 239.87L302.101 237.48L306.961 234.87L309.631 233.04L311.771 230.75L315.621 224.67L318.861 219.47L321.361 215.79L323.751 212.68L326.111 210.11L327.671 208.84L329.861 207.51L331.801 206.89L334.191 206.92L340.561 207.36L348.491 207.18L348.941 207.03L348.611 206.7L346.921 206L344.941 205.71L337.991 205.32L333.261 204.76L329.751 204.43L327.701 204.58L324.991 205.05L324.241 205.09L323.681 204.87L323.191 204.14L323.071 202.9L323.351 201.91L323.821 200.91L324.491 200.19L325.411 199.72L326.561 199.56L348.401 199.34L349.001 199.19L348.561 198.76L345.361 197.25L341.511 196.17L336.981 195.5L331.381 195.19L327.041 194.76L324.141 194.75L321.001 195.29L319.941 195.41L318.871 195.24L317.881 194.8L317.041 194.12L316.921 193.99L316.341 193.09L316.271 192.34L316.681 191.76L317.541 191.3L320.101 190.48L322.361 189.95L324.331 189.71L325.991 189.77L333.681 190.48L341.631 190.58H341.821L343.091 190.88L343.821 191.1L344.491 191.18L344.791 191.06L344.721 190.75L344.291 190.25L343.941 189.9L342.211 188.41L340.611 187.71L334.831 186.65L331.191 186.33L330.811 186.34L323.981 186.35L318.851 185.94L315.121 185.57L310.721 185.39L309.581 185.22L308.661 184.76L307.911 183.9L307.751 183.44L307.801 182.96L308.601 181.25L309.751 180.22L310.221 180.03L316.031 177.9ZM359.301 336.91L357.571 335.7L355.811 334.77L354.021 334.14L352.191 333.79L351.191 333.72L325.351 333.45L286.451 333.71L284.731 333.89L283.141 334.37L281.511 335.31L280.041 336.64L279.991 336.72L280.001 337L280.241 337.16L285.851 337.5L293.811 337.42L298.261 337.35L319.091 337.37L351.151 337.49L359.151 337.37L359.531 337.24L359.301 336.91Z" fill="black"/>
<path d="M240.888 88.5186L240.778 87.9386L240.518 87.5986L240.108 87.4986L239.538 87.6386L233.038 90.1886L231.738 90.5486L230.438 90.6086L229.308 90.3586L228.308 89.7986L227.538 88.9086L227.008 87.6686L226.988 87.1886L227.188 86.7586L229.268 84.3886L231.058 83.0286L236.558 80.3886L242.038 78.2186L247.508 76.5286L252.958 75.3186L254.328 75.3086L255.998 75.7186L256.388 75.9586L256.598 76.3886L256.858 78.0886L256.868 79.5586L256.628 80.8886L256.128 82.0086L255.188 83.1286L253.918 84.0186L252.228 84.7686L249.988 85.4286L249.298 85.7086L248.868 86.1386L248.678 86.7286L248.748 87.4786L249.008 88.4386L249.568 90.6786L249.758 92.4686L249.578 94.0686L249.038 95.3886L248.628 95.9586L248.218 96.2986L247.808 96.4486L246.068 96.5686L244.628 96.1986L243.188 95.1786L242.038 93.5086L241.238 91.1986L240.888 88.5186Z" fill="black"/>
<path d="M188.61 89.8601L187.33 89.5801L185.92 89.5602L184.39 89.7701L182.74 90.2401L181.79 90.4301L181.16 90.2301L180.83 89.6501L180.82 88.6801L180.91 87.9601L181.11 87.1101L181.5 86.4001L182.05 85.8301L182.78 85.4001L184.87 84.6701L186.84 84.4102L188.76 84.5901L190.48 85.1902L191.7 85.9402L192.75 86.9102L193.63 88.0801L194.3 89.4102L194.76 90.8802L195 92.4702L194.99 94.0401L194.76 95.6701L194.48 96.3802L193.97 96.9501L193.3 97.3202L192.55 97.4501H191.48L190.72 97.3401L190.21 97.0101L189.95 96.4601L189.94 95.6902V93.1602L189.26 90.4901L189.02 90.1101L188.61 89.8601Z" fill="black"/>
<path d="M403.711 186.98L403.581 187.58L403.231 188.08L402.721 188.41L402.111 188.52L396.881 188.42L395.461 188.13L394.261 187.36L393.471 186.22L393.211 184.89L393.521 183.57L394.351 182.46L395.581 181.74L397.021 181.5L402.251 181.6L402.841 181.73L403.351 182.08L403.681 182.6L403.791 183.2L403.711 186.98Z" fill="black"/>
</g>
<defs>
<clipPath id="clip0_777_29188">
<rect width="497" height="361" fill="white"/>
</clipPath>
</defs>
</svg>
