<svg width="569" height="524" viewBox="0 0 569 524" fill="none" xmlns="http://www.w3.org/2000/svg">
<g clip-path="url(#clip0_777_27751)">
<rect width="569" height="524" fill="white"/>
<path d="M97.7103 135.76L53.3003 233.89L52.0503 235.86L51.3003 236.51L50.4703 236.92L48.8903 237.11L47.0903 236.66L46.8803 236.57L44.8403 235.31L44.1803 234.55L43.7503 233.71L43.5703 232L44.1503 230.03L89.8903 129.43L90.0903 128.6L89.9703 127.77L89.5503 127.07L88.8903 126.62L88.8103 126.59L84.8803 125.03L81.1803 123.16L77.9203 121.1L75.0703 118.82L72.6803 116.37L70.7803 113.8L69.3303 111.01L68.4103 108.16L68.2503 107.36L67.8603 104.11L67.9203 101.07L68.4403 98.25L69.4003 95.64L70.5403 93.65L71.9803 91.79L73.7403 90.09L75.8003 88.53L77.9603 87.61L81.0003 87.15L83.0503 87.26L84.8503 87.85L86.3803 88.92L87.4603 90.37L87.9103 91.62L88.0503 93L87.8903 94.39L87.4003 95.85L86.2203 99.23L86.0903 100.64L86.2603 101.85L86.6903 102.91L87.4103 103.97L89.2203 105.79L91.2603 107.22L93.8703 108.37L96.7803 108.99L103.41 109.37L106.69 109.26L109.95 108.95L114.05 108.26L118.11 107.25L126.81 104.42L135.94 100.85L151.29 94.53L165.38 88.99L178.19 84.22L189.74 80.24L196.88 78.04L204.07 76.14L211.31 74.52L218.59 73.2L230.23 71.71L241.99 70.96L243.18 70.82L244.91 70.22L246.62 69.12L248.36 67.47L250.51 64.93L253.75 61.31L258.82 57.14L264.09 53.59L269.55 50.66L275.2 48.35L275.74 47.98L276.01 47.37L276.34 43.7L276.19 39.94L276.13 39.21L275.98 38.01L275.69 37.27L275.21 36.77L274.43 36.32L271.59 34.72L269.15 32.72L267.46 30.81L266.06 28.71L264.92 26.35L264.12 23.86L263.67 21.31L263.55 18.71L263.77 16.08L264.35 13.46L265.74 10.05L266.74 8.42L267.9 6.90001L270.68 4.23L273.94 2.14L277.54 0.710007L281.37 0L285.24 0.0800018L288.88 0.910004L291.54 2.07001L294.08 3.7L296.47 5.83L298.52 8.27L300.18 10.98L301.41 13.87L302.16 16.83L302.42 19.85L302.17 22.74L301.4 25.57L300.25 28L298.64 30.3L296.56 32.54L294.15 34.7L291.89 36.36L289.8 37.5L289.37 37.86L289.21 38.4V47.09L289.36 47.58L289.81 47.83L294.57 49.18L299.26 51.08L303.9 53.53L308.47 56.52L314.87 61.72L315.63 62.46L316.88 63.66L317.99 64.44L318.44 64.6H318.93L322.41 64.19L326.26 64.12L333.39 64.24L347.49 64.58L357.52 65.34L366.94 66.63L376.43 68.31L385.98 70.38L395.6 72.84L436.77 84.54L446.42 87.01L455.91 88.71L458.67 89L461.29 89.08L463.75 88.94L466.07 88.59L468.65 87.94L471.07 87.09L473.35 86.01L475.3 84.81L476.89 83.51L478.24 82.03L479.21 80.48L479.88 78.76L480.11 77.71L479.89 76.8L478.33 74.32L477.41 72.24L477.09 70.46L477.34 68.96L477.79 68.12L478.49 67.32L480.53 66.04L483.53 64.86L485.45 64.49L487.72 64.71L489.84 65.25L491.88 66.11L493.71 67.25L495.24 68.56L496.56 70.07L497.65 71.76L498.5 73.6L499.1 75.57L499.42 77.64L499.46 79.7L499.23 81.8L498.38 85.29L497.12 88.53L495.63 91.28L493.85 93.81L491.72 96.2L489.33 98.35L486.59 100.33L483.63 102.06L480.38 103.57L476.97 104.8L476.92 104.82L476.48 105.25L476.5 105.87L477.59 108.27L526.51 214.9L527.45 217.16L527.92 219.05L527.95 220.74L527.52 222.17L527.3 222.55L526.31 223.48L524.7 224.1L522.59 224.36L520.38 224.23L519.64 223.91L519.14 223.29L470.23 116.07L469.9 115.52L469.56 115.33L469.22 115.52L468.88 116.08L420.22 223.4L419.14 225.09L418.5 225.63L417.79 225.97L417.01 226.11L416.15 226.04L414.24 225.28L413.86 225.06L412.36 223.9L411.45 222.51L411.18 221.44L411.17 220.27L411.42 218.99L411.94 217.61L460.71 110.05L460.95 109.24L460.83 108.67L460.37 108.34L459.57 108.22L448.57 107.84L437.52 106.87L426.42 105.29L415.26 103.11L397.68 99.28L388.83 97.74L380.01 96.74L371.2 96.27L362.41 96.34L352.21 97.09L342.03 98.57L337.28 99.59L332.37 100.96L331.95 101.09L328.64 102.4L325.34 104.17L321.86 106.46L316.95 110.1L313.45 112.73L305.75 118.08L302.43 120.05L299.21 121.71L294.49 123.73L293.29 124.4L292.6 125.28L292.42 126.16L292.57 127.17L292.65 127.7L292.59 128.15L292.25 129.97L292.1 132.09L292.34 137.98L292.53 140.77L293.03 147.16L297.91 187.22L302.37 226.55L306.38 265.16L309.97 303.03L311.37 322.98L311.75 332.51L311.9 341.74L311.73 348.69L311.14 355.13L310.13 360.98L308.67 366.38L306.78 371.26L304.43 375.67L301.66 379.56L298.47 382.95L295.89 385.11L292.75 387.03L289.16 388.38L285.29 389.06L281.35 389.08L277.27 388.42L273.36 387.1L269.82 385.22L266.69 382.78L264.52 380.5L262.47 377.8L260.65 374.85L259 371.53L257.57 367.96L256.35 364.13L255.37 360.09L254.66 355.97L253.97 349.82L253.57 343.47L253.45 336.8L253.61 329.92L254.59 311.71L256.06 292.28L258.05 270.95L261.17 241.14L262.5 228.73L266.15 197.97L269.61 168.59L270.61 157.81L271.26 148.3L272.32 129.95V128L272.01 126.14L271.76 125.32L271.53 124.93L271.11 124.69L264.13 122.11L257.54 118.85L251.52 115.03L245.87 110.57L244.49 109.52L243.01 108.65L239.53 107.33L235.36 106.53L229.72 106.11L223.1 106L216.29 106.18L209.48 106.67L202.48 107.45L195.38 108.52L188.1 109.9L180.58 111.6L172.85 113.61L139.45 122.82L129.41 125.39L121.5 127.02L114.74 127.87L107.09 128.26L106.72 128.4L106.68 128.79L107.56 131.76L108.72 134.67L140.18 205.02L146.5 218.69L150.4 227.08L152.71 232.47L152.81 232.86L152.63 234L151.74 235.24L150.13 236.55L148.49 237.34L146.64 237.8L145.35 237.7L144.6 237.28L143.99 236.65L142.76 234.38L142.49 233.8L133.16 213.58L124.77 194.91L112.13 166.78L102.23 144.77L98.1003 135.79L97.8903 135.57L97.7103 135.76ZM303.01 86.92L302.63 83.07L301.51 79.36L299.68 75.95L297.23 72.95L294.23 70.5L290.82 68.67L287.11 67.55L283.26 67.17L279.41 67.55L275.7 68.67L272.29 70.5L269.29 72.95L266.84 75.95L265.01 79.36L263.89 83.07L263.51 86.92L263.89 90.77L265.01 94.48L266.84 97.89L269.29 100.89L272.29 103.34L275.7 105.17L279.41 106.29L283.26 106.67L287.11 106.29L290.82 105.17L294.23 103.34L297.23 100.89L299.68 97.89L301.51 94.48L302.63 90.77L303.01 86.92Z" fill="black"/>
<path d="M388.071 295.931L387.951 295.551L387.671 295.841L380.201 308.771L379.301 309.961L378.201 310.761L376.921 311.171L375.431 311.191L373.801 310.891L371.941 309.381L371.381 308.551L371.061 307.661L371.051 306.161L371.651 304.521L386.531 276.921L387.241 275.411L387.721 273.841L387.961 272.221L388.261 266.191L388.241 235.101L388.461 234.431L389.121 234.211H550.571L551.031 234.361L551.191 234.821L551.181 267.201L551.481 272.151L551.821 274.251L552.711 276.931L555.641 283.071L559.981 291.231L563.981 298.701L566.711 304.301L567.251 306.131L567.061 307.691L566.291 308.861L564.931 309.801L563.651 310.441L561.951 311.011L560.451 310.931L559.151 310.181L558.051 308.771L551.631 297.661L551.391 297.431L551.261 297.731L551.081 299.371L551.521 316.571L551.391 317.031L550.941 317.231L549.091 317.491L546.291 317.801L500.471 318.121L423.971 318.321L391.221 318.001L389.601 317.731L388.541 317.001L388.111 316.141L388.021 315.001L388.321 305.131L388.071 295.931ZM443.091 307.161L443.911 306.821L444.251 306.001V300.461L443.911 299.641L443.091 299.301H428.351L427.671 299.081L427.321 298.671L427.191 298.141V247.311L426.851 246.491L426.031 246.151H419.391L418.571 246.491L418.231 247.311V306.001L418.571 306.821L419.391 307.161H443.091ZM457.801 306.071L457.291 299.391L457.181 291.191V246.771L457.011 246.381L456.621 246.221H449.731L449.381 246.341L449.261 246.691V306.031L449.611 306.871L450.441 307.211H456.781L457.621 306.921L457.801 306.071ZM473.881 307.171L474.051 307.161L474.871 306.721L475.191 305.851L474.941 283.101L475.241 282.251L475.691 281.901L476.251 281.781H486.891L487.081 281.771L487.881 281.331L488.201 280.471V275.551L488.101 275.041L487.811 274.611L487.381 274.331L486.871 274.241L476.481 274.351L475.551 273.981L475.161 273.061L474.961 255.441L475.061 254.941L475.341 254.511L475.771 254.221L476.271 254.121H490.021L490.791 253.871L491.271 253.211L491.331 252.811V247.531L491.321 247.411L490.901 246.561L490.021 246.221H467.451L466.541 246.591L466.141 247.491V247.531V305.861L466.151 305.981L466.571 306.831L467.451 307.171H473.881ZM506.351 299.271L505.511 298.921L505.161 298.081V281.351L505.511 280.511L506.351 280.161H517.051L517.891 279.811L518.241 278.971V274.431L517.891 273.591L517.051 273.241H506.281L505.681 273.081L505.251 272.641L505.091 272.051V255.321L505.441 254.481L506.281 254.131H521.051L521.851 253.821L522.231 253.061L522.241 252.941V248.301L522.221 248.081L521.811 247.391L521.051 247.111H497.311L496.471 247.461L496.121 248.301V305.971L496.471 306.811L497.311 307.161H521.051L521.891 306.811L522.241 305.971V300.461L521.891 299.621L521.051 299.271H506.351Z" fill="black"/>
<path d="M16.019 314.571L15.909 314.421L15.759 314.551L9.15905 325.981L8.82905 326.381L8.39904 326.651L7.16905 327.001L5.13905 326.951L2.99905 326.191L1.37906 325.051L0.469056 323.651L0.289062 322.781L0.309051 321.831L1.00905 319.711L14.449 292.691L15.519 290.191L15.929 288.041L16.349 274.321L16.319 256.771L16.269 246.971L16.409 246.301L16.789 245.721L17.369 245.341L18.049 245.211H197.429L198.109 245.351L198.689 245.731L199.069 246.311L199.209 246.991V326.201V326.231L199.089 326.761L198.769 327.201L198.309 327.491L197.769 327.571L187.419 327.211L176.719 327.121L122.719 327.201L101.739 327.711L85.609 328.181L74.469 328.141L74.229 328.131L58.399 327.741L47.889 327.681L36.599 327.961L27.609 328.121L18.839 327.921L18.109 327.741L17.509 327.281L17.129 326.631L17.039 325.881L17.049 325.811L17.269 322.881L17.179 320.051L16.779 317.331L16.069 314.721L16.019 314.571ZM79.989 286.631L80.149 300.431L80.559 304.921L81.359 308.541L82.609 311.481L84.369 313.891L86.369 315.601L88.709 316.891L91.759 317.821L95.209 318.131L98.649 317.811L101.699 316.851L104.029 315.551L106.019 313.841L107.769 311.421L108.999 308.471L109.789 304.851L110.169 300.351L110.259 286.561L110.099 272.761L109.699 268.271L108.889 264.651L107.639 261.711L105.879 259.301L103.879 257.601L101.549 256.311L98.489 255.371L95.049 255.061L91.599 255.391L88.549 256.341L86.219 257.641L84.229 259.351L82.489 261.771L81.249 264.721L80.459 268.351L80.079 272.841L79.989 286.631ZM52.039 288.381L52.699 290.431L53.039 292.221L54.509 304.621L56.179 316.331L56.539 316.971L57.239 317.231H66.989L67.659 316.981L67.989 316.341L75.479 257.061L75.349 256.421L74.739 256.211H68.919L67.929 256.531L67.509 257.491L65.069 279.801L62.149 302.191L61.849 303.801L61.549 304.341L61.259 303.801L60.979 302.191L58.939 284.681L57.499 268.051L56.689 260.921L55.959 256.931L55.739 256.511L55.319 256.311L52.269 256.061L48.839 256.381L48.419 256.581L48.229 257.031L43.019 302.771L42.919 303.001L42.409 303.521L42.019 303.631L41.749 303.341L41.599 302.651L39.219 281.621L35.979 257.001L35.739 256.471L35.209 256.241L27.869 255.411L27.249 255.551L27.119 256.171L34.859 316.151L35.099 316.501L35.729 316.831L37.519 317.261L40.019 317.431L43.329 317.331L46.629 316.981L47.459 316.561L47.869 315.711L51.319 288.461L51.589 287.691L52.039 288.381ZM140.739 288.281L140.499 287.901L140.699 287.501L142.449 285.611L143.809 283.781L144.789 282.021L145.389 280.321L146.039 276.941L146.329 273.641L146.249 270.441L145.809 267.321L145.009 264.101L144.029 261.581L142.789 259.631L141.319 258.191L139.209 257.051L136.749 256.461L133.069 256.131L128.699 256.011L117.859 256.381L117.349 256.591L117.189 257.091V315.451L117.299 316.241L117.639 316.811L118.209 317.151L118.999 317.261H124.459L125.219 317.151L125.769 316.821L126.099 316.271L126.209 315.501V293.731L126.319 293.161L126.629 292.681L127.109 292.341L127.669 292.211L130.309 292.301L132.829 292.801L134.679 293.461L136.239 294.401L136.679 294.931L136.899 295.501L136.909 295.541L137.399 301.151L137.349 310.201L137.249 315.701L137.339 316.371L137.619 316.841L138.099 317.131L138.759 317.221H144.689L145.339 317.131L145.819 316.851L146.109 316.391L146.219 315.751L146.329 309.231L146.239 300.221L146.059 297.851L145.599 295.641L144.879 293.611L143.879 291.761L142.479 289.911L140.739 288.281ZM162.169 284.031V257.571L162.059 257.031L161.759 256.581L161.309 256.281L160.769 256.171H154.569L153.999 256.251L153.579 256.491L153.299 256.951L153.209 257.601V316.101L153.489 316.941L154.329 317.221H160.999L161.809 316.951L162.089 316.151V310.571L161.819 305.931L161.759 302.401L162.319 299.521L163.629 296.191L165.019 293.581L165.139 293.441L165.669 293.321L166.079 293.681L175.239 315.881L176.019 316.911L176.599 317.171L177.299 317.261H184.049L184.809 316.991L184.769 316.191L172.019 285.261L171.769 283.991L172.099 282.711L184.589 256.951L184.659 256.371L184.099 256.171H177.719L176.509 256.521L175.669 257.451L162.719 284.161L162.309 284.691L162.169 284.031Z" fill="black"/>
<path d="M95.4398 263.351L95.0998 263.35C91.8358 263.338 89.1806 265.975 89.1692 269.239L89.0469 304.279C89.0355 307.543 91.6722 310.198 94.9362 310.209L95.2762 310.211C98.5402 310.222 101.195 307.585 101.206 304.321L101.329 269.282C101.34 266.018 98.7038 263.362 95.4398 263.351Z" fill="black"/>
<path d="M126.239 265.492L126.359 264.892L126.689 264.392L127.199 264.052L127.799 263.932L131.329 263.942L132.529 264.072L133.679 264.442L134.739 265.042L135.669 265.842L136.439 266.822L136.999 267.942L137.349 269.162L137.469 270.422L137.449 277.862L137.329 279.122L136.979 280.332L136.409 281.452L135.639 282.432L134.709 283.232L133.649 283.832L132.489 284.202L131.289 284.322L127.759 284.312L127.169 284.192L126.659 283.852L126.319 283.352L126.199 282.752L126.239 265.492Z" fill="black"/>
<path d="M501.91 384.62L495.72 386.45L489.54 387.9L483.27 388.99L477.03 389.7L470.8 390.04L464.62 390.01L458.39 389.6L452.24 388.83L447.19 387.91L442.2 386.74L437.28 385.33L432.43 383.68L427.62 381.77L422.9 379.62L418.27 377.24L413.75 374.63L409.36 371.8L405.08 368.75L400.92 365.49L396.89 362.01L393.03 358.35L389.3 354.49L385.72 350.44L382.29 346.18L377.99 339.94L373.61 332.32L372.65 330.3L371.93 328.3L371.44 326.32L371.18 324.36V324.2L371.32 323.59L371.71 323.08L372.27 322.78L372.9 322.73L379.01 323.21L385.23 323.05L393.48 322.53L399.98 322.34L468.5 322.22L537.06 322.38L541.22 322.18L545.72 322L567.6 322.32L568.3 322.64L568.52 323.37L568.49 323.5L567.15 327.5L565.42 331.5L563.3 335.51L560.8 339.52L555.9 346.31L550.57 352.7L544.84 358.65L538.73 364.17L532.26 369.19L525.45 373.73L518.4 377.72L511.04 381.19L506.53 383L501.91 384.62Z" fill="black"/>
<path d="M133.791 395.931L128.141 397.841L122.401 399.421L116.471 400.681L110.481 401.601L104.401 402.181L98.3008 402.411L92.2008 402.301L86.1108 401.851L80.0808 401.061L74.1008 399.941L68.1908 398.491L62.3808 396.701L56.7308 394.601L51.2108 392.171L45.9308 389.481L40.8208 386.471L34.7208 382.321L28.8408 377.711L23.3008 372.731L18.0808 367.361L13.3308 361.761L8.97078 355.851L5.10078 349.721L1.79079 343.521L0.58078 340.381L0.0507812 337.371V337.341L0.360779 336.551L1.14078 336.221H194.781L195.271 336.331L195.661 336.631L195.891 337.071L195.911 337.571L195.851 337.771L193.381 343.751L190.951 348.381L190.561 349.011L187.671 353.481L184.641 357.761L181.471 361.861L178.151 365.771L174.691 369.491L171.081 373.031L167.331 376.391L163.441 379.561L156.621 384.421L149.411 388.781L141.801 392.611L133.791 395.931Z" fill="black"/>
<path d="M235.941 412.889L238.611 411.449L241.081 409.869L244.571 407.149L247.881 403.929L251.101 400.109L254.351 395.569L255.631 394.129L257.211 393.289L258.521 393.119L259.991 393.369L264.241 394.729L266.551 395.679L269.831 397.349L273.081 398.679L276.451 399.749L279.931 400.569L283.541 401.119L286.201 401.289L288.731 401.169L292.751 400.399L296.771 398.919L300.941 396.689L305.911 393.359L307.961 392.339L308.851 392.289L309.571 392.809L312.831 397.319L316.211 401.439L319.701 405.159L323.311 408.479L325.821 410.349L328.511 411.839L330.721 412.739L333.051 413.399L335.481 413.839L338.021 414.039L352.211 414.759L364.551 415.839L376.831 417.369L386.331 419.019L394.691 421.059L402.521 423.649L406.651 425.329L409.571 426.829L412.031 428.569L414.031 430.579L415.571 432.829L416.251 434.239L416.351 434.689L416.281 435.129L415.861 436.149L415.111 437.479L414.201 438.659L411.781 440.789L408.531 442.579L404.531 444.009L394.191 446.669L383.191 448.889L371.581 450.679L359.501 452.009L341.761 453.399L323.911 454.419L305.971 455.059L287.931 455.329L269.781 455.219L251.541 454.729L233.191 453.869L214.751 452.639L203.411 451.619L192.641 450.359L182.441 448.839L172.801 447.069L164.801 445.119L164.271 444.969L157.881 442.869L155.411 441.789L153.331 440.619L151.641 439.379L150.421 438.109L149.581 436.779L149.141 435.309L149.231 433.289L150.041 431.239L150.751 430.239L151.761 429.269L154.651 427.399L159.961 424.859L165.351 422.699L170.831 420.949L176.391 419.579L176.791 419.499L189.111 417.299L201.411 415.709L213.701 414.719L225.971 414.349L229.241 414.249L231.971 413.979L234.201 413.529L235.941 412.889Z" fill="black"/>
<path d="M142.8 443.559L143.41 444.479L144.7 446.089L146.13 447.529L147.73 448.819L149.63 450.069L153.97 452.209L159.91 454.329L167.56 456.309L178.01 458.249L191.17 460.179L204.51 461.709L218.05 462.849L231.77 463.589L271 464.959L280.63 465.129L290.98 465.039L327.18 464.069L340.44 463.499L350.47 462.869L368.67 461.119L386.48 458.709L397.63 456.679L402.02 455.629L405.62 454.549L406.21 454.349L411.87 452.269L413.78 451.379L415.11 450.549L418.54 447.509L421.33 444.039L421.35 444.019L421.71 443.729L422.15 443.759L441.61 450.859L447.98 453.489L453.6 456.059L458.47 458.559L462.59 460.999L466.21 463.589L468.62 465.969L469.43 467.109L470.03 468.299L470.36 469.439L470.43 470.609L469.97 472.489L468.84 474.259L467 475.979L464.57 477.459L461.5 478.739L456.99 480.149L450.07 482.009L443.01 483.629L435.8 485.009L428.45 486.149L410.18 488.499L397.56 489.749L372.94 491.429L357.09 492.269L295.51 494.139L284.72 494.319L272.79 494.279L241.65 493.529L224.1 493.039L203.67 492.249L178.51 490.689L166.93 489.749L155.02 488.499L142.8 486.969L130.25 485.129L129.5 485.009L121.85 483.719L115.27 482.339L109.62 480.849L104.81 479.219L100.95 477.479L98.0303 475.609L96.1203 473.649L95.5503 472.679L95.2003 471.659L95.0703 469.909L95.6303 467.799L96.9703 465.749L99.1703 463.669L102.41 461.369L107.8 458.259L114.74 454.989L142.06 443.329L142.48 443.289L142.8 443.559Z" fill="black"/>
<path d="M105.851 489.301L112.041 490.711L125.101 493.281L137.991 495.241L158.241 497.591L177.741 499.431L198.241 500.901L219.731 502.001L242.231 502.731L261.521 503.071L280.641 503.181L299.591 503.051L318.371 502.691L336.981 502.081L355.431 501.251L373.701 500.181L391.801 498.871L403.801 497.801L415.911 496.481L428.131 494.901L440.471 493.081L449.811 491.501L456.871 489.961L463.001 488.181L468.541 486.041L470.631 484.981L472.491 483.751L474.141 482.341L475.561 480.761L476.421 479.561L476.861 479.161L477.061 479.721L477.401 487.801L477.281 495.941L476.881 498.691L475.911 500.841L474.381 502.461L472.371 503.881L470.171 505.131L467.781 506.221L465.191 507.141L454.041 510.291L443.981 512.431L430.311 514.711L422.001 515.931L402.331 518.121L383.281 519.811L364.831 520.991L346.991 521.681L301.471 522.901L281.481 523.191L271.961 523.211L259.751 523.201L250.571 522.961L249.491 522.911L229.381 522.291L212.881 521.821L201.471 521.321L180.401 519.931L158.531 518.071L146.441 516.721L134.121 514.921L121.571 512.661L108.791 509.941L104.771 508.901L100.911 507.651L97.2311 506.181L93.7211 504.511L91.9811 503.471L90.4611 502.261L89.2711 500.951L88.3311 499.451L87.5811 497.431L87.2611 495.101L87.1211 486.831L87.3911 480.051L87.5311 479.281L87.8011 478.961L88.1911 479.101L88.7011 479.701L90.9711 482.371L93.4511 484.361L96.4111 486.011L99.9811 487.451L105.441 489.181L105.851 489.301Z" fill="black"/>
</g>
<defs>
<clipPath id="clip0_777_27751">
<rect width="569" height="524" fill="white"/>
</clipPath>
</defs>
</svg>
