<svg width="618" height="616" viewBox="0 0 618 616" fill="none" xmlns="http://www.w3.org/2000/svg">
<g clip-path="url(#clip0_777_32859)">
<rect width="618" height="616" fill="white"/>
<path d="M190.79 23.53L199.93 19.8L208.73 16.5L217.17 13.65L225.27 11.24L240.58 7.39999L255.91 4.33L271.24 2.03999L286.58 0.509995L295.51 0.0800018L306.1 0L325.61 0.110001L331.38 0.319992L338.16 0.899994L345.96 1.84L354.77 3.14999L367.8 5.50999L380.65 8.39999L393.32 11.8L405.82 15.73L414.17 18.69L422.44 21.88L429.34 24.78L435.13 27.48L443.61 31.46L451.94 35.71L464.29 42.68L475.89 49.82L486.74 57.14L496.84 64.62L506.22 72.21L515.25 80.11L523.96 88.33L532.33 96.87L539.68 104.94L546.75 113.29L553.55 121.89L560.06 130.76L566.29 139.9L572.25 149.3L577.92 158.96L583.31 168.89L590.93 184.92L594.54 193.17L597.62 201.23L603.97 219.87L606.2 227.06L607.79 232.82L611.12 247.39L613.75 261.95L615.67 276.5L616.9 291.03L617.23 301.77L617.12 316.03L616.75 327.15L616.14 336.01L614.97 346.61L613.45 357.07L611.61 367.41L609.42 377.62L606.9 387.7L604.05 397.65L600.85 407.47L597.32 417.16L591.96 430.18L585.97 442.97L579.4 455.35L571.37 469.05L565.83 477.76L560.31 485.71L554.68 493.23L548.87 500.54L542.89 507.65L536.73 514.55L530.4 521.25L523.89 527.75L517.2 534.04L510.34 540.13L502.49 546.67L494.42 552.96L486.14 558.99L477.64 564.77L468.92 570.3L459.98 575.58L450.82 580.6L441.45 585.37L436.23 587.83L431.85 589.68L422.12 593.73L413.73 597.08L405.19 600.16L396.5 602.95L387.66 605.48L378.66 607.72L369.5 609.69L360.2 611.38L350.74 612.79L339.06 614.17L327.64 615.15L316.49 615.72L305.61 615.89L294.42 615.47L278.1 614.23L268.67 613.21L258.88 611.77L248.75 609.89L238.26 607.59L226.46 604.32L220.44 602.6L210.76 599.75L203.66 597.31L196.41 594.57L189.01 591.54L181.46 588.22L172.53 583.86L158.56 576.63L150.89 572.35L142.69 567.29L133.97 561.47L124.72 554.88L115.11 547.42L105.1 538.85L94.69 529.18L83.87 518.4L74.07 507.77L64.71 496.47L55.79 484.52L47.3 471.9L40.21 460.26L33.67 448.4L27.67 436.31L22.22 423.99L18.55 414.77L15.18 405.42L12 395.52L9.18001 385.47L6.74001 375.27L4.67 364.93L2.96001 354.43L1.63 343.8L0.660004 333.01L0.0700073 322.08L0 310.64L0.360001 291.59L1.08 280.74L2.78 266.26L4.38 255.51L6.05 246.55L8.75 234.83L11.89 223.28L15.45 211.9L19.45 200.67L22.58 192.75L25.92 184.91L29.49 177.15L33.28 169.48L37.29 161.89L41.52 154.38L45.97 146.96L50.64 139.62L55.7 132.15L61 124.82L66.52 117.65L72.27 110.63L78.25 103.75L84.47 97.03L90.91 90.45L97.58 84.03L105.16 77.09L111.3 71.76L119.56 65.12L128.28 58.57L137.44 52.13L147.06 45.79L152.85 42.22L159.03 38.68L172.51 31.68L180.21 28.12L190.79 23.53ZM36.04 173.74L31.94 182.26L28.11 190.82L24.57 199.42L21.3 208.06L18.19 217.36L15.36 227.17L11.13 243.99L8.57001 256.5L7.00999 267.08L5.74001 278.4L4.75 290.47L4.06 303.28L4.08 313.51L4.74001 326.02L5.25999 334.1L6.17 344.42L7.63 355.41L9.5 366.29L11.77 377.06L14.43 387.73L16.59 395.32L18.96 402.85L21.54 410.32L24.32 417.74L27.8 425.96L32.55 436.07L38.15 447.33L42.39 455.32L45.95 461.46L49.98 467.94L59.4 481.9L68.6 494.23L78.39 506.03L84.58 512.9L90.99 519.57L97.61 526.06L104.45 532.36L113.42 540.13L122.39 547.41L131.35 554.19L140.32 560.49L147.09 564.9L154.03 569.08L161.14 573.05L168.41 576.79L181.96 583.45L189.06 586.77L195.69 589.52L205.64 593.18L215.57 596.51L225.5 599.5L235.42 602.16L245.32 604.47L255.22 606.45L265.1 608.09L274.98 609.4L282.64 610.17L290.45 610.72L298.4 611.06L306.51 611.19L314.77 611.11L323.18 610.81L331.73 610.3L340.44 609.58L348.15 608.65L357.68 607.14L374.83 604.02L381.27 602.56L388.11 600.77L403.01 596.21L424.12 588.08L433.9 584.01L442.35 579.94L461.64 569.48L468.73 565.29L474.13 561.8L490.33 550.4L500.49 542.69L513.42 531.7L518.86 526.72L523.63 522.08L532.47 512.79L541.08 502.97L549.47 492.62L557.64 481.74L562.74 474.27L568.57 465.01L575.53 453.4L579.26 446.72L586.18 432.16L592.29 417.66L597.59 403.2L602.07 388.79L604.16 380.85L606.14 372.23L607.99 362.94L609.73 352.97L610.77 345.47L611.6 337.06L611.66 336.31L612.56 324.46L613.01 315.94L613.14 308.25L612.95 300.91L612.05 286.07L610.92 274.1L608.83 259.4L606.03 244.85L602.48 230.31L598.22 215.92L593.23 201.7L587.52 187.63L583.37 178.57L578.84 169.65L574.22 161.21L569.64 153.29L565.09 145.9L560.59 139.04L554.09 129.85L547.07 120.66L539.53 111.48L531.48 102.29L524.51 94.89L517.47 88.04L506.36 78.16L494.9 68.84L483.07 60.09L470.89 51.9L458.46 44.35L445.68 37.35L437.61 33.54L431.1 30.52L426.27 28.33L419.97 25.82L402.86 19.72L385.99 14.4L377.94 12.41L372.47 11.14L362.28 8.94L352.72 7.36L342.72 6.06999L332.25 5.06999L321.34 4.36L310.51 4.03L301.34 4.2L282.49 5.47L274.24 6.27L266.76 7.2L255.93 8.89L245.43 10.9L235.25 13.22L225.4 15.87L217.83 18.18L210.31 20.69L202.83 23.4L195.4 26.33L188 29.45L180.66 32.78L173.36 36.31L166.1 40.05L154.96 46.27L144.15 52.92L133.68 60.01L123.55 67.53L116.77 72.95L110.15 78.58L103.4 84.64L96.96 90.69L90.83 96.73L85.02 102.77L79.53 108.79L74.35 114.82L69.48 120.83L64.93 126.84L58.52 135.91L52.35 145.15L47.49 152.73L43.71 159.17L36.04 173.74Z" fill="black"/>
<path d="M313.059 61.8704L313.139 58.2004L312.899 54.5704L312.799 53.7804L312.069 45.7704L310.839 28.5804L310.649 28.1304L310.189 27.9804H308.129L307.459 27.8904L306.949 27.6104L306.599 27.1504L306.419 26.5004L305.909 22.9204V22.1404L306.159 21.5704L306.669 21.2204L307.439 21.0704L323.589 20.4004L323.899 20.5204L324.039 20.8204V20.8304V26.2404L323.829 26.8804L323.189 27.0904H321.289L320.559 27.4004L320.279 28.1304V28.1704L323.619 79.4704L323.479 79.8704L323.099 80.0504H323.079H314.199L313.279 79.7904L312.619 79.0804L310.419 74.9004L300.089 57.0804L290.509 40.1304L289.629 39.1404L289.259 39.1204L289.029 39.4004L289.019 39.5104L290.399 72.4404L290.529 72.8004L290.849 73.0004L291.069 73.0504L292.399 73.1604L293.799 72.9204L294.479 73.0204L294.859 73.6004L294.869 73.6804L295.219 79.0504L295.019 79.6104L294.489 79.8604H294.469L286.929 80.2904L278.519 81.3404L275.789 82.0104L273.259 82.7104L271.059 83.0004L269.079 82.8604L267.389 82.2904L265.779 81.1704L264.429 79.5504L263.209 77.3504L262.079 74.4404L260.099 67.1304L259.279 64.5304L258.279 62.8904L257.469 62.1704L256.599 61.6704L255.619 61.3404L254.559 61.2204L251.949 61.5104L242.159 63.4204L241.629 63.7004L241.529 64.2904L242.889 71.9604L244.469 78.5804L245.209 80.2404L245.709 80.7904L246.299 81.1204L247.489 81.1804L248.939 80.5504L249.719 80.2004L250.349 80.2304L250.819 80.6404L251.139 81.4304L252.049 85.0404L252.149 86.0004L251.919 86.7604L251.349 87.3304L250.459 87.6904L234.519 91.6904L233.929 91.7504L233.459 91.6104L232.829 90.7704L231.359 86.4604L231.249 85.8704L231.369 85.4404L231.719 85.1804L232.299 85.0804L233.719 84.8204L235.199 84.1504L235.549 83.7904L235.589 83.2904L231.079 61.9104L226.259 41.7004L225.779 40.4804L225.129 39.9604H224.759L222.069 40.8304H222.059L221.669 40.6104L220.219 34.8204L220.239 34.6204L220.389 34.5204L233.509 31.1304L245.869 28.6104L250.919 28.0604L252.979 28.1104L254.749 28.3704L257.289 29.1804L259.529 30.3604L261.949 32.3404L264.019 34.9404L265.589 37.9604L266.709 41.5004L267.039 43.4504L267.099 45.2804L266.879 47.0104L266.379 48.6304L266.009 49.4404L264.939 51.2504L263.729 52.8204L262.369 54.1504L260.869 55.2504L260.629 55.3904L260.339 55.7204L260.689 55.9804L263.309 57.1804L265.519 58.8104L266.739 60.1004L267.789 61.5704L268.539 62.9904L269.189 64.6904L270.279 69.2504L271.269 73.4504L271.669 74.1904L272.329 74.7204L273.149 74.9604L273.979 74.8504L274.039 74.8304L276.559 74.2304L279.639 74.0804L280.569 73.7404L281.039 72.8704L281.209 70.4104L281.139 67.5604L280.369 51.7804L280.059 37.5304L280.049 37.0204L279.779 34.1804L279.049 30.4604L278.899 29.7704L278.699 29.3604L278.279 29.1004H276.639H276.619L275.689 28.8904L275.189 28.0704L274.559 23.6404V22.9304L274.789 22.4204L275.269 22.1004L275.989 22.0004H288.899L289.569 22.1804L290.049 22.6604L312.739 61.9504L312.959 62.1804L313.059 61.8704ZM235.589 40.1504L239.029 55.0204L239.269 55.5704L239.709 55.9904L240.279 56.2004L240.879 56.1804L250.379 53.9904L252.039 53.4404L253.579 52.6004L254.909 51.5004L255.999 50.1804L256.809 48.6904L257.289 47.1004L257.429 45.4504L257.229 43.8204L256.869 42.2404L256.329 40.6904L255.479 39.2704L254.349 38.0504L252.979 37.0704L251.419 36.3604L249.729 35.9504L247.989 35.8704L246.249 36.1004L236.749 38.3004L235.899 38.8304L235.549 39.7804L235.589 40.1504Z" fill="black"/>
<path d="M366.569 34.7713V34.0412L365.929 33.7012L349.329 31.0513L348.559 31.2313L348.149 31.9012L345.449 48.7713V48.7912L345.709 49.0713L347.049 49.0312L350.269 49.0612L352.449 49.6312L353.009 49.9212L353.189 49.9912L353.779 49.8612L354.029 49.3112L354.039 47.8413L354.239 46.7412L354.489 46.3413L354.929 46.1613L355.249 46.1213L357.029 46.0412L358.839 46.2012L360.669 46.6112L362.529 47.2612L362.979 47.6813L363.039 48.2912L361.559 55.2513L361.159 58.6012L360.969 61.8713L360.849 62.5713L360.539 63.0312L360.029 63.2513L359.329 63.2412L354.929 62.5412L354.179 62.3213L353.639 61.9113L353.279 61.3312L353.129 60.5612L352.959 58.0412L352.819 57.6012L352.419 57.2812L350.569 56.6112L348.739 56.1712L346.939 55.9512H345.169L344.219 56.3512L343.729 57.2612L341.209 73.0412L341.289 73.4612L341.619 73.7413L344.849 74.7313L359.929 77.1912L360.409 77.0913L360.699 76.6812L361.709 72.7713L362.099 71.8312L362.689 71.2112L363.499 70.9113L364.509 70.9312L368.319 71.5412L369.109 71.7812L369.619 72.2212L369.869 72.8513L369.829 73.6912L367.799 84.5012L367.549 85.1212L367.089 85.6013L366.479 85.8813L365.809 85.9012L327.139 79.7313L327.009 79.6713L326.969 79.5112L327.309 73.6613L327.509 73.1512L328.049 73.0112L330.569 73.1512L331.379 72.8912L331.809 72.1512L338.759 28.6712L338.719 28.3512L338.449 28.1213L337.569 27.9412L336.299 27.9513L335.699 27.9112L335.279 27.6812L335.039 27.2612L334.989 26.6612L335.269 21.8913L335.279 21.8212L335.759 20.9912L336.699 20.7812L375.619 28.1012L376.009 28.3512L376.099 28.8013V28.8113L373.129 42.8512L372.899 43.4813L372.529 43.8913L371.989 44.0812L371.309 44.0312L366.079 42.9313L365.509 42.7212L365.209 42.3913L365.159 41.9512L365.369 41.3812L366.059 39.2313L366.149 36.3812L366.289 35.5713L366.569 34.7713Z" fill="black"/>
<path d="M397.992 61.4605L413.712 47.0605L413.852 46.8806L413.842 46.2605L413.342 45.9205L412.192 45.6105L411.472 45.0005L411.272 44.5905L411.212 44.0905L411.382 43.6006L413.282 40.5806L413.952 40.0605L414.802 40.1105L429.702 46.5705L429.892 46.7505L429.882 46.9805L427.702 52.7906L427.422 53.0805L427.022 53.0706L426.982 53.0505L425.022 52.1105L422.802 51.4906L422.312 51.5105L421.912 51.7605L419.742 53.5505L417.792 55.1105L400.392 70.7805L398.712 72.5706L397.662 74.4905L395.302 81.3605L393.312 88.1505L393.332 88.6105L393.702 88.9106L395.252 89.2206L395.422 89.2306L396.092 89.4506L396.612 89.9206L396.892 90.5706V91.2705L396.012 95.4305L395.992 95.4905L395.542 96.0305L394.842 96.0706L379.572 90.3605L378.872 89.9806L378.472 89.4706L378.352 88.8206L378.522 88.0505L379.582 85.2006L380.002 84.4506L380.552 84.0106L381.252 83.9005L382.082 84.1105L383.412 84.5605L383.962 84.5305L383.972 84.5106L387.782 74.4806L388.482 72.3206L388.882 70.0305L388.982 67.6006L388.782 65.0406L385.532 40.6205L385.272 39.3205L384.862 38.2406L384.302 37.3705L383.592 36.7206L382.292 36.1705L381.662 35.9305L381.262 35.5405L381.112 35.0105L381.202 34.3405L382.362 30.2805L382.612 29.7305L382.972 29.4106L383.442 29.3105L384.032 29.4406L398.202 34.7406L399.022 35.4205L399.242 36.4505L398.712 41.0605L398.552 41.4706L398.232 41.7706L397.802 41.8806L397.372 41.7805L397.112 41.5806L395.922 40.2805L395.802 40.1906H395.392L395.162 40.5305L394.982 43.1906L395.032 45.8006L396.382 58.0605L396.772 59.8405L397.452 61.3806L397.692 61.5806L397.992 61.4605Z" fill="black"/>
<path d="M174.08 61.5099L171.88 62.5999L171.32 62.6799L170.89 62.3399L168.18 58.3499L168.02 57.7599L168.45 57.3199L183.11 50.0499L183.77 49.8299L184.3 49.8999L184.7 50.2499L184.97 50.8899L186 54.7699L186.06 55.4299L185.88 56.0799L185.49 56.6399L184.94 57.0399L184.47 57.4199L184.25 57.8999L184.22 58.5199L184.7 60.1699L198.16 91.2399L199.27 93.3099L200.85 94.8699L201.98 95.4999L203.21 95.8999L204.61 96.1099H206.07L209.47 95.4599L213.1 94.0299L214.93 92.8399L216.24 91.3299L216.76 90.3099L217.11 89.1899L217.28 86.6099L216.62 82.3499L215.37 78.6999L207.46 61.0299L204.56 54.6299L202.86 50.4399L202.46 49.7899L201.83 49.3499L201.07 49.2099L200.33 49.3899L200.16 49.4799L199.23 49.8599L198.09 49.9899L197.58 49.8599L197.25 49.4799L195.11 45.1499L195.04 44.6399L195.42 44.2899L210.51 37.7299L211.19 37.6699L211.65 38.1399L213.94 42.7599L213.97 43.3599L213.56 43.7999L213.53 43.8099L211.84 44.7099L211.39 45.1999L211.21 45.7099L211.23 46.0299L211.8 47.9199L212.88 50.4699L223.64 73.6599L225.79 78.5399L227.16 82.2199L227.79 84.8399L227.7 87.0199L227.51 87.6699L226.52 90.1499L225.33 92.4599L223.94 94.5899L222.36 96.5399L219.25 99.4099L215.59 101.78L213.56 102.73L211.31 103.55L206.09 104.75L203.95 104.97L201.91 104.93L199.97 104.64L198.13 104.08L195.42 102.67L192.96 100.61L191.98 99.3699L190.88 97.4999L188.26 91.8799L180.48 73.6699L175.09 61.8499L174.68 61.4299L174.08 61.5099Z" fill="black"/>
<path d="M482.07 83.4805L483.1 86.8604L483.7 90.2404L483.88 93.9405L483.59 97.5905L482.83 101.3L481.63 104.92L479.95 108.58L477.86 112.09L475.34 115.5L472.48 118.69L470.01 120.93L466.71 123.2L463.05 125.02L460.42 125.76L455.59 126.71L453.6 126.96L451.7 127L449.88 126.81L448.15 126.41L444.08 125.01L440.66 123.47L437.75 121.71L435.28 119.72L432.8 117.03L430.6 113.76L429.53 111.58L428.71 109.24L428.15 106.74L427.86 104.07L427.82 99.7805L428.23 95.7704L429.08 92.0504L430.39 88.6104L432.53 84.6305L435.15 80.8304L438.26 77.2205L441.85 73.8004L445.09 71.3105L448.4 69.4105L451.78 68.1005L455.23 67.3805L457.3 67.2305L459.4 67.2805L463.66 68.0105L468.03 69.5405L472.49 71.9005L475.89 74.4005L478.69 77.3705L480.6 80.2605L482.07 83.4805ZM441.41 88.4805L439.27 92.6905L437.76 97.1205L437.02 101.34L437.06 105.26L437.45 107.04L438.15 108.79L439.19 110.58L440.49 112.26L442.12 113.92L443.9 115.34L445.75 116.49L447.59 117.3L449.49 117.83L451.4 118.08L454.67 117.88L457.99 116.9L460.24 115.84L462.29 114.6L464.53 112.86L466.53 110.87L468.4 108.57L470.21 105.84L471.78 102.96L472.94 100.24L473.77 97.5305L474.26 94.7404L474.4 92.3505L474.29 89.8604L473.6 86.4705L472.25 83.4904L471.13 81.9205L469.78 80.4805L468.21 79.2404L466.33 78.1404L464.24 77.2305L462.01 76.5605L459.92 76.2005L457.85 76.1104L455.97 76.3004L454.21 76.8004L450.73 78.5905L447.35 81.2104L444.13 84.6205L441.41 88.4805Z" fill="black"/>
<path d="M178.269 86.7498L180.069 89.6699L181.539 92.5999L182.699 95.5498L183.539 98.5198L184.349 103.69L184.459 106.19L184.349 108.62L184.049 110.89L183.539 113.09L182.819 115.22L181.879 117.25L180.349 119.74L178.429 122.06L176.199 124.15L173.589 126.06L169.709 128.26L165.849 129.79L162.019 130.65L158.209 130.84L156.109 130.66L154.009 130.28L149.839 128.89L145.699 126.68L141.599 123.65L138.389 120.4L135.009 115.89L132.099 111.07L130.289 106.87L129.029 101.92L128.539 97.2599L128.819 92.8698L129.249 90.7899L129.869 88.7698L131.479 85.3098L133.719 82.0898L136.589 79.0898L140.079 76.3199L142.839 74.6198L145.609 73.3298L148.479 72.4298L151.359 71.9398L153.599 71.8398L155.839 71.9698L158.069 72.3199L160.299 72.8998L162.589 73.7198L164.859 74.7498L169.349 77.4499L171.779 79.3398L174.079 81.5198L176.239 83.9898L178.269 86.7498ZM143.839 112.17L146.029 114.67L148.199 116.82L150.339 118.61L152.459 120.04L155.179 121.32L157.979 122L159.989 122.11L162.039 121.93L164.129 121.45L166.259 120.67L168.769 119.39L170.849 117.89L172.509 116.18L173.749 114.25L174.439 112.54L174.829 111.09L175.269 108.11L175.279 105.03L174.859 101.85L173.989 98.5699L173.279 96.7899L172.259 94.8998L169.319 90.7998L167.129 88.2899L164.959 86.1398L162.809 84.3499L160.689 82.9199L157.969 81.6398L155.169 80.9598L153.159 80.8499L151.109 81.0298L149.029 81.5099L146.899 82.2899L144.389 83.5699L142.299 85.0699L140.639 86.7798L139.409 88.7098L138.719 90.4199L138.329 91.8698L137.879 94.8499L137.869 97.9298L138.299 101.11L139.169 104.39L139.879 106.17L140.899 108.06L143.839 112.17Z" fill="black"/>
<path d="M495.78 99.4306L494.31 98.6406L493.96 98.2506L494.15 97.7607L498.08 93.3206L498.84 92.8906L499.64 93.2506L507.31 100.541L514.55 107.821L521.38 115.101L527.79 122.381L528.08 123.101L527.68 123.771L518.99 131.271L518.21 131.771L517.44 131.941L516.66 131.771L515.88 131.251L513.92 129.511L513.29 128.771L513.09 128.031L513.31 127.301L513.96 126.581L516.45 124.141L516.95 123.261L516.96 122.621L516.82 122.431L509.84 115.111L504.49 108.761L504.41 108.671L504 108.381L503.51 108.291L503.02 108.401L502.61 108.701L492.21 120.461L491.9 120.991L491.8 121.591L491.93 122.191L492.28 122.701L496.23 126.661L497 126.991L497.79 126.711L499.42 125.311L500.19 125.041L500.93 125.391L505.22 129.951L505.67 130.391L505.6 130.911L505.1 131.561L496.45 140.171L495.68 140.751L494.89 140.961L494.1 140.821L493.28 140.321L490.96 138.411L490.38 137.761L490.18 137.111L490.38 136.461L490.96 135.811L491.68 134.851L491.81 134.121L491.72 133.351L490.87 131.541L489.14 129.461L486.73 127.301L486.26 127.051L485.73 127.001L485.21 127.151L484.79 127.471L473.23 140.551L473.04 140.951L473.09 141.391L473.44 141.991L474.29 142.711L475.49 143.141L475.61 143.181L475.85 143.521L475.72 143.921L470.9 148.731L470.58 148.871L470.26 148.731L458.57 137.041L458.25 136.391L458.61 135.781L462.2 132.681L462.95 132.381L463.58 132.891L464.16 133.581L464.8 133.871L465.44 133.771L466.12 133.311L474.3 125.511L481.48 117.671L487.98 110.691L494.61 103.831L495.61 102.191L496.14 100.141L496.09 99.7307L495.78 99.4306Z" fill="black"/>
<path d="M379.25 509.161L378.89 509.291L371.25 511.921L363.48 514.221L355.6 516.201L347.59 517.861L339.47 519.181L331.23 520.191L322.86 520.871L314.38 521.221L302.25 521.181L290.4 520.531L278.82 519.261L267.52 517.371L258.16 515.221L248.16 512.331L239.88 509.611L232.22 506.871L225.19 504.121L218.77 501.361L211.66 497.921L204.3 493.951L196.68 489.461L188.81 484.431L181.88 479.561L175.03 474.191L168.26 468.291L161.57 461.891L152.1 451.871L143.27 441.441L135.11 430.591L127.6 419.341L126.96 418.321L122.06 409.831L117.53 400.761L114.08 392.991L110.95 385.231L108.14 377.491L105.66 369.761L103.51 362.031L101.68 354.321L100.18 346.631L99 338.941L98.03 330.371L97.37 321.861L97.03 313.411L97 305.011L97.3 296.661L97.91 288.371L98.84 280.131L100.08 271.941L101.53 264.351L103.25 256.811L105.25 249.321L107.53 241.871L110.08 234.471L112.91 227.121L116.01 219.821L119.39 212.561L123.64 204.271L128.23 196.231L133.15 188.431L138.4 180.871L144.57 172.821L151.14 165.071L158.11 157.611L165.49 150.451L170.96 145.551L176.53 140.871L182.23 136.411L188.03 132.161L193.95 128.141L199.98 124.331L206.12 120.741L212.38 117.361L218.42 114.361L224.57 111.561L230.82 108.951L237.17 106.541L243.62 104.331L250.18 102.311L256.83 100.491L263.59 98.8713L274.78 96.6813L285.97 95.1113L297.16 94.1713L308.35 93.8613L317.54 94.0713L326.73 94.7013L335.92 95.7613L345.11 97.2413L354.36 99.1313L363.42 101.371L372.28 103.951L380.93 106.881L389.39 110.151L397.66 113.761L405.72 117.721L413.58 122.021L420.96 126.491L428.15 131.271L435.16 136.361L441.98 141.781L448.62 147.521L455.08 153.571L461.35 159.941L467.44 166.631L473.44 173.751L478.92 180.841L483.91 187.961L488.5 195.211L491.99 201.291L497.1 210.961L501.6 220.241L505.5 229.121L508.78 237.611L511.75 247.361L515.23 261.541L517.29 271.711L518.67 281.251L519.66 292.141L520.14 303.161L520.12 314.301L519.6 325.571L519 332.551L518.15 339.471L517.04 346.331L515.69 353.151L513.31 362.801L509.66 375.021L505.27 387.711L502.05 395.041L495.64 408.131L490.59 417.671L485.83 425.521L481.5 431.861L477.01 437.981L472.37 443.881L467.56 449.581L462.59 455.051L457.46 460.311L452.17 465.351L446.72 470.181L435.25 479.231L428.59 484.221L423.42 487.751L417.1 491.621L410.73 495.231L404.29 498.571L397.79 501.661L389.31 505.281L379.25 509.161ZM472.88 429.821L478.15 422.061L483.04 414.201L487.54 406.221L491.67 398.141L495.42 389.961L498.79 381.661L501.77 373.261L504.38 364.751L507.29 353.141L509.51 341.331L510.82 331.031L511.63 319.821L511.95 307.721L511.77 294.721L511.18 286.681L509.88 277.491L508.03 267.021L506.69 260.471L503.68 249.101L500.04 238.041L495.79 227.301L490.91 216.881L489.67 214.471L482 200.671L478.59 195.061L474.97 189.591L471.36 184.521L467.56 179.581L463.58 174.761L459.42 170.061L452.28 162.541L445.49 155.931L435.63 147.271L430.63 143.281L425.59 139.511L420.5 135.961L415.37 132.641L410.19 129.541L404.97 126.661L398.1 123.201L391.08 120.001L383.9 117.041L376.56 114.331L369.06 111.861L361.4 109.651L353.58 107.681L345.61 105.961L336.93 104.501L327.61 103.421L317.45 102.711L309.33 102.611L297.82 103.011L286.35 103.711L283.85 103.991L273.69 105.491L263.6 107.541L253.58 110.151L243.63 113.321L236.27 116.021L229.07 118.951L222.05 122.121L215.19 125.511L208.51 129.141L201.99 133.001L195.65 137.101L189.47 141.421L180.87 148.061L172.62 155.191L164.72 162.791L157.17 170.881L150.16 179.201L143.82 187.541L138.15 195.921L133.16 204.331L128.62 212.791L124.73 220.571L121.48 227.661L118.88 234.081L116.27 241.421L113.94 248.771L111.88 256.151L110.09 263.551L108.58 270.961L107.34 278.401L106.38 285.861L105.69 293.341L105.27 301.111L105.14 308.901L105.3 316.711L105.76 324.551L106.51 332.401L107.56 340.281L108.9 348.181L110.54 356.101L112.5 363.991L114.82 371.811L117.5 379.571L120.55 387.251L123.94 394.871L127.7 402.431L131.82 409.911L136.3 417.331L141.11 424.641L146.14 431.661L151.4 438.411L156.89 444.871L162.59 451.051L168.53 456.951L174.69 462.571L181.07 467.911L190.79 475.201L200.98 481.891L213.6 489.231L219.11 492.111L224.09 494.481L234.44 498.781L245.1 502.561L256.07 505.831L267.34 508.591L276.41 510.351L285.48 511.671L294.57 512.541L303.67 512.971L311.18 512.981L318.7 512.701L329.76 511.771L340.73 510.281L348.15 508.951L355.52 507.351L362.85 505.491L370.14 503.371L381.32 499.571L391.91 495.281L401.9 490.511L411.29 485.241L419.54 480.091L426.91 475.161L433.4 470.441L439.01 465.941L446.62 459.051L456.06 449.771L460.66 444.931L465 440.001L469.07 434.961L472.88 429.821Z" fill="black"/>
<path d="M116.229 104.68L116.159 105.25L116.429 105.75L136.229 125.92L140.189 130.31L143.289 133.81L144.999 135.98L146.229 138.24L146.989 140.56L147.259 142.91L147.039 145.32L146.319 147.7L145.089 150.05L143.359 152.32L140.399 155.07L138.799 156.17L137.099 157.09L135.099 157.89L132.989 158.46L130.769 158.79L128.439 158.9L126.869 158.6L124.639 157.72L123.649 157.08L122.299 155.89L118.469 151.87L118.199 151.41L118.139 150.89L118.279 150.38L118.599 149.97L118.629 149.95L123.899 145.73L124.349 145.46L124.719 145.45L125.009 145.67L125.219 146.15L125.569 146.89L126.189 147.64L128.239 149.13L130.309 149.99L132.259 150.06L134.029 149.39L136.169 147.71L137.569 145.7L138.029 144.35L138.079 143.05L137.579 141.45L136.419 139.92L124.789 127.75L116.879 119.41L110.649 113.17L109.449 112.3L108.299 112.07L107.189 112.48L106.129 113.54L106.119 113.56L105.789 113.73L105.449 113.61L101.209 109.86L100.969 109.35L101.169 108.82L101.199 108.79L113.719 97.3298L114.349 97.0898L114.969 97.3598L118.509 101.02L118.829 101.72L118.389 102.31L117.059 103.45L116.229 104.68Z" fill="black"/>
<path d="M237.631 492.501L230.581 489.611L223.711 486.501L217.031 483.181L210.531 479.651L204.211 475.901L198.081 471.931L192.131 467.751L186.361 463.361L179.021 457.161L171.431 450.021L166.091 444.571L161.051 439.081L156.301 433.521L151.841 427.921L144.031 416.551L139.631 409.741L136.611 404.651L131.101 394.011L126.331 383.341L122.321 372.631L119.051 361.901L117.151 354.311L115.541 346.741L114.211 339.171L113.181 331.611L112.421 324.061L111.961 316.531L111.781 309.001L111.891 301.481L112.301 293.751L113.021 286.021L114.041 278.311L115.361 270.611L116.991 262.921L118.921 255.241L121.161 247.571L123.701 239.911L125.831 234.441L129.371 226.151L132.761 218.741L135.841 212.741L141.091 203.701L146.581 195.231L152.311 187.321L158.291 179.981L165.621 171.471L169.481 167.181L173.371 163.371L180.961 156.731L188.611 150.551L196.321 144.821L204.101 139.541L211.691 134.931L219.781 130.571L228.381 126.481L237.491 122.641L243.461 120.381L249.441 118.331L255.441 116.491L261.441 114.861L267.451 113.441L273.471 112.221L279.501 111.221L285.541 110.431L299.761 109.371L307.161 109.131L313.971 109.231L321.101 109.641L328.101 110.241L334.961 111.041L341.691 112.041L348.291 113.231L354.751 114.621L361.071 116.211L367.261 117.991L375.891 120.951L384.941 124.641L394.411 129.071L404.301 134.231L410.601 137.841L416.761 141.731L422.801 145.881L428.711 150.301L434.491 154.991L440.141 159.941L445.671 165.171L451.061 170.661L455.801 175.871L460.411 181.351L464.871 187.091L469.191 193.091L473.371 199.351L477.421 205.881L481.321 212.671L485.081 219.721L489.221 228.531L492.931 238.021L495.231 244.801L497.301 251.551L499.131 258.261L500.741 264.941L502.101 271.581L503.241 278.181L504.141 284.751L504.811 291.291L505.211 298.011L505.351 305.561L505.221 313.941L504.841 323.151L504.251 330.491L503.241 338.371L501.801 346.791L499.941 355.761L498.781 360.411L497.651 363.991L496.071 369.031L494.251 374.831L490.031 385.571L485.331 395.851L480.161 405.661L474.521 415.001L470.221 421.381L465.671 427.611L460.841 433.691L455.761 439.611L450.411 445.371L444.811 450.981L438.931 456.441L432.801 461.741L424.081 468.601L415.071 474.881L405.781 480.581L396.191 485.691L385.991 490.361L375.481 494.401L364.851 497.781L353.611 500.681L341.761 503.101L329.311 505.041L323.861 505.571L317.211 505.851L305.081 506.221L297.921 505.951L286.331 504.831L277.481 503.411L262.851 500.501L257.501 499.211L251.521 497.451L244.891 495.211L237.631 492.501ZM239.341 188.671L237.731 187.031L235.811 184.461L208.501 144.161L208.001 143.651L207.341 143.371L206.621 143.351L205.951 143.601L197.051 149.041L196.491 149.511L196.221 150.041L196.241 150.631L196.551 151.281L204.441 162.881L213.711 175.981L216.141 179.891L218.251 183.371L218.141 183.801L218.111 183.811L217.721 183.951L217.291 183.971L216.941 183.731L192.431 153.111L192.101 152.931L191.751 153.041H191.741L180.701 162.571L180.321 163.371L180.641 164.201L180.691 164.251L184.651 167.941L188.411 171.871L191.961 176.041L195.311 180.451L195.971 181.621L196.181 182.651L196.061 182.991L195.701 182.941L193.481 181.791L178.651 167.091L178.061 166.691L177.351 166.531L176.641 166.651L176.031 167.031L166.481 175.781L166.121 176.291L165.991 176.891L166.111 177.501L166.471 178.011L166.571 178.091L167.951 179.161L172.321 182.801L176.161 186.391L180.161 189.691L181.931 191.351L183.941 193.721L184.111 194.561L183.561 195.201L183.311 195.271L182.591 195.261L181.391 194.661L172.501 187.241L164.351 180.851L163.461 180.551L162.681 181.041L153.591 192.051L153.581 192.071L153.451 192.571L153.721 193.021L178.921 211.101L179.191 211.621V212.331L179.161 212.541L178.691 213.061L178.001 212.991L151.251 196.241L150.871 196.181L150.551 196.401L144.411 206.201L144.141 206.901V207.651L144.411 208.351L144.911 208.911L148.141 210.991L169.961 223.631L191.441 236.921L195.261 239.721L195.971 240.411L196.111 240.871L195.701 241.121L194.741 241.161L193.631 240.731L185.731 237.321L177.701 233.591L156.421 223.261L140.701 215.391L140.021 215.201L139.321 215.291L138.711 215.641L138.291 216.211L138.271 216.261L134.151 225.771L134.141 225.791L134.001 226.491L134.141 227.201L134.541 227.791L135.141 228.191L164.451 240.441L171.191 243.521L177.861 246.951L179.261 247.931L177.581 247.661L169.351 245.071L152.461 239.061L134.771 232.341L133.311 231.951L132.161 232.091L131.291 232.741L130.551 233.931L128.491 239.061L126.601 245.281L126.641 245.931L127.191 246.311L140.021 250.171L152.091 254.271L153.671 254.961L154.151 255.461L153.531 255.801L151.811 255.951L149.791 255.771L146.761 255.161L125.891 249.941H125.881L125.351 249.911L124.841 250.091L124.441 250.451L124.211 250.941L121.091 263.101V263.121L121.051 263.851L121.301 264.531L121.801 265.061L122.461 265.361L145.931 270.781L147.171 271.181L148.031 271.771L148.161 271.961L148.141 272.601L147.611 272.951L145.431 273.081L143.721 272.941L131.261 270.771L121.061 269.181L120.491 269.211L119.971 269.451L119.581 269.881L119.381 270.421L117.261 283.681V283.701L117.441 284.371L118.051 284.711L135.091 286.861L150.661 289.371L151.621 289.841L151.931 290.281L151.971 290.661L151.631 290.831L148.571 291.071L145.581 291.031L120.581 289.131L118.071 289.281L117.201 289.541L116.581 290.021L116.211 290.701L116.091 291.591V301.941L116.311 302.511L116.841 302.781L124.341 303.551L130.391 303.921L131.891 303.971L152.071 304.811L171.081 306.281L173.611 306.631L176.021 307.181L176.911 307.491L177.201 307.751L176.881 307.971L175.951 308.151L174.631 308.371L172.031 308.721L171.811 308.731L125.441 311.151H116.821H116.811L116.321 311.351L116.121 311.841V323.241L116.261 324.191L116.671 324.841L117.351 325.191L118.311 325.241L146.081 323.031L156.831 322.091L160.201 321.971L165.621 322.301L165.991 322.471L166.001 322.881L165.901 323.091L165.081 323.511L142.631 326.521L119.401 329.311L118.401 329.571L117.731 330.101L117.411 330.871V331.891L119.121 343.791L119.131 343.851L119.361 344.411L119.791 344.841L120.351 345.071L120.961 345.051L131.161 342.951L142.071 341.211L145.011 341.011L148.311 341.171L149.021 341.431L148.461 341.941L145.951 342.861L120.631 349.141L120.271 349.371L120.241 349.801L123.321 362.121L123.711 363.071L124.301 363.661L125.111 363.911L126.121 363.801L146.551 358.491L148.781 358.081L151.461 358.001L151.931 358.261L151.981 358.781L151.871 358.961L151.311 359.451L150.081 360.041L138.641 363.731L125.821 368.361L125.491 368.631L125.501 369.061L130.401 382.381L130.691 382.791L131.151 383.011L131.661 382.961L162.401 371.661L163.291 371.531L164.391 371.731L164.761 372.081L164.841 372.531L164.671 373.061L164.231 373.401L134.091 386.501L133.631 386.811L133.311 387.271L133.171 387.811L133.241 388.361L134.681 392.171L136.601 395.861L138.981 399.351L139.711 399.831L140.571 399.751L144.061 397.781L146.891 396.121L152.261 393.451L176.741 382.001L189.531 375.831L194.831 373.551L199.671 371.111L199.941 371.061L200.721 371.231L200.851 371.281L201.041 371.601L200.891 371.941L197.361 374.471L191.331 378.241L169.521 391.241L147.591 404.051L145.431 405.461L143.541 407.041L143.201 407.731L143.381 408.481L149.551 417.861L149.991 418.351L150.481 418.591L151.021 418.561L151.611 418.281L182.751 397.791L182.981 397.711L183.271 397.791L183.851 398.151L183.911 398.201L184.071 398.571L183.891 398.931L154.281 421.751L153.741 422.301L153.511 422.891L153.591 423.511L153.981 424.171L161.691 433.791L162.311 434.381L162.961 434.611L163.641 434.481L164.341 433.991L168.511 430.291L172.691 426.901L176.861 423.801L181.041 421.011L181.451 420.921L181.831 421.121L182.121 421.751L181.971 422.331L181.451 422.931L179.971 424.101L177.241 426.381L166.761 436.861L166.411 437.371L166.281 437.981L166.391 438.581L166.721 439.101L176.221 449.031L176.261 449.071L176.821 449.431L177.481 449.531L178.131 449.371L178.671 448.971L180.691 446.151L180.841 445.921L182.701 443.951L185.171 442.411L185.491 442.311L186.011 442.351L186.461 442.631L186.731 443.071L186.781 443.591L186.601 444.251L186.201 444.911L180.621 452.071L180.421 452.741L180.791 453.331L191.881 462.481L192.131 462.581L192.371 462.451L201.461 453.091L201.881 452.901L202.471 452.951L203.001 453.181L203.271 453.501L203.241 454.041L202.801 454.731L200.541 457.841L196.461 463.941L196.281 464.801L196.751 465.531L208.491 473.951L209.071 474.211L209.711 474.231L210.311 473.991L210.761 473.541L210.791 473.501L214.891 466.951L215.421 466.371L216.161 466.061L216.841 465.921L217.141 465.911L217.551 466.061L217.841 466.381L217.961 466.801L217.871 467.231L213.551 476.311L213.491 476.761L213.811 477.061L227.371 483.521L227.941 483.551L228.381 483.191L235.301 470.291L235.641 469.821L235.991 469.661L236.341 469.801L236.711 470.251L237.041 470.781L237.301 471.591L237.151 472.431L232.181 483.891L232.161 483.941L232.011 484.731L232.181 485.531L232.651 486.191L233.341 486.621L246.701 491.621L247.091 491.641L247.371 491.321L251.231 481.471L251.831 480.361L252.931 478.951L253.301 478.741L253.661 478.981L253.931 479.551L254.061 480.341L253.851 482.561L253.081 486.031L251.441 491.401L251.271 492.201L251.411 492.841L251.861 493.321L252.621 493.641L265.841 497.031L266.571 496.921L267.001 496.341L270.891 481.311L271.281 480.421L271.641 480.071L272.131 479.951L272.611 480.081L272.961 480.441L273.091 480.911V481.311L272.971 484.621L272.621 487.921L272.021 491.231L271.191 494.531L270.971 496.131L271.341 497.371L272.291 498.241L273.821 498.741L280.681 499.781L285.891 500.191L286.621 499.921L286.981 499.221L287.941 491.681L289.421 483.601L289.691 482.841L290.131 482.281L290.981 481.871L291.751 482.021L292.141 482.701V482.841L291.111 500.201L291.201 500.511L291.471 500.681L291.531 500.691L294.781 501.371L298.081 501.821L301.441 502.051L304.851 502.061L305.611 501.751L305.991 501.021L306.901 491.801L307.251 483.621L307.361 482.531L307.671 482.001L309.371 481.311L309.811 481.341L310.011 481.721L311.041 489.031L311.281 500.321L311.621 501.181L312.411 501.661L314.291 501.971H315.681L321.291 501.331L327.151 500.911L327.501 500.771L327.571 500.451L326.051 487.121L326.121 486.611L326.411 486.191L326.861 485.961L327.361 485.971L327.721 486.141L328.381 486.791L328.911 487.621L329.551 489.851L331.131 498.951L331.351 499.511L331.761 499.951L332.311 500.201L332.911 500.231L346.171 498.331L346.821 497.941L346.991 497.201V497.191L344.231 482.211L344.321 481.521L344.881 481.111L345.581 480.871L345.611 480.861L346.401 480.941L346.891 481.571L349.611 492.231L351.211 496.361L351.581 496.741L352.121 496.791L364.651 493.651L365.321 493.331L365.811 492.781L366.051 492.071L366.001 491.331L365.991 491.291L363.971 483.611L362.861 476.751L362.881 476.521L363.271 476.131L363.821 476.231L365.051 477.441L365.841 478.751L366.061 479.341L369.871 490.851L370.361 491.461H371.141L385.241 486.651H385.251L385.791 486.161L385.821 485.431L382.201 475.651L382.091 474.801L382.281 473.691L382.491 473.311L383.011 473.091L383.801 473.151L384.361 473.591L389.161 483.261L389.751 483.851L390.591 483.741L402.801 477.681L403.521 477.121L403.971 476.341L404.091 475.441L403.851 474.561L400.431 467.671L400.441 467.091L400.921 466.771L401.131 466.781L402.831 467.491L404.421 468.821L405.961 470.841L407.581 473.731L407.601 473.771L408.181 474.191L408.881 474.071L420.991 466.101L421.531 465.621L421.771 465.091L421.721 464.511L421.371 463.871L418.891 460.231L417.061 456.691L416.961 455.711L417.491 455.051L418.251 454.811L418.931 455.231L424.481 461.651L424.961 462.021L425.541 462.181L426.141 462.111L426.661 461.811L436.321 453.471L436.691 453.001L436.871 452.421L436.811 451.821L436.541 451.281L431.281 444.591L430.881 443.931L430.871 443.451L431.231 443.161L431.941 443.041L432.261 443.031L433.591 443.271L434.671 444.091L438.901 448.991L439.391 449.411L439.891 449.591L440.431 449.511L440.991 449.181L445.261 445.361L449.001 441.211L450.091 439.721L450.791 438.431L450.991 437.071L450.811 436.451L450.461 435.951L441.421 426.871L441.011 426.321L440.921 425.831L441.111 425.451L441.551 425.101L442.341 425.011L443.231 425.161L444.021 425.641L454.221 434.661L454.381 434.721L454.521 434.641L463.211 424.111L463.511 423.611L463.591 423.131L463.421 422.681L463.031 422.251L443.391 406.031L442.981 405.431L443.071 404.711L443.221 404.361L443.261 404.281L443.821 403.861L444.511 404.001L465.351 418.951L466.311 419.171L467.131 418.631L467.151 418.601L473.881 407.841L474.031 406.961L473.501 406.241L473.471 406.221L460.111 398.511L446.891 390.611L433.811 382.521L420.881 374.241L419.831 373.481L419.491 372.661L419.541 372.211L419.991 372.121L420.841 372.401L432.471 377.511L443.941 382.941L473.211 397.651L476.491 399.741L477.301 399.961L478.041 399.541L479.971 396.841L481.581 394.071L482.871 391.221L483.841 388.301L483.791 387.571L483.291 387.041L476.981 384.021L470.621 381.291L464.501 378.651L457.861 375.471L440.161 366.551L440.011 366.421L439.961 366.321L439.811 365.911L439.921 365.411L440.421 365.301L459.861 372.731L478.501 380.371L486.101 382.851L486.501 382.841L486.751 382.531L491.131 370.841L491.251 370.111L491.081 369.391L490.651 368.791L490.021 368.401L466.251 359.501L465.901 359.131L466.011 358.631L466.141 358.511L466.581 358.281L467.871 357.971L469.381 358.131L481.921 361.631L492.441 364.631L493.391 364.561L493.871 363.741L496.821 349.761L496.791 349.461L496.531 349.301L468.461 342.111L467.891 341.601L467.961 340.851L468.141 340.651L468.341 340.481L469.291 339.951L470.171 339.881L497.441 345.641L497.671 345.611L497.771 345.421L500.001 331.461L499.981 330.891L499.741 330.381L499.331 329.991L498.801 329.791L482.381 327.281L473.921 325.771L464.121 323.611L463.951 323.541L463.701 323.101L463.911 322.641L464.121 322.481L465.061 322.001L466.131 321.921L499.441 325.791L500.011 325.741L500.511 325.471L500.861 325.031L501.011 324.481V324.401V312.341L500.641 311.441L499.751 311.051L492.981 310.671L489.551 310.301L486.201 310.191L473.761 309.861L457.831 308.701L439.411 306.971L438.971 306.811L439.281 306.451L440.781 305.641L442.101 305.321L471.001 303.801L499.911 302.951L500.621 302.701L500.911 302.001L501.071 295.551L500.871 292.741L500.481 290.221L500.291 289.791L499.921 289.501L498.251 289.011L496.081 288.991L472.931 290.831L448.871 292.301L448.801 292.281L448.761 292.231L448.691 291.991L448.751 291.781L448.921 291.641L451.821 290.591L455.161 289.901L476.171 287.181L498.661 284.851L498.721 284.841L499.231 284.661L499.641 284.291L499.861 283.791L499.871 283.241L497.571 270.731L497.311 270.081L496.821 269.571L496.181 269.291L495.471 269.281L470.031 273.961L469.231 273.831L469.051 273.041L469.111 272.571L469.541 271.611L470.451 271.081L494.321 265.631L495.391 265.221L496.021 264.571L496.221 263.841L496.101 262.931L493.281 252.841L493.041 251.911L492.701 250.411L492.371 250.091L491.901 250.051L467.461 256.171L466.591 256.201L465.791 255.861L465.361 255.541L464.881 254.961L464.801 254.501L465.451 254.021L489.331 246.711L490.201 246.301L490.711 245.721L490.871 244.951L490.671 244.011L486.721 233.261L486.321 232.601L485.711 232.151L484.961 231.961L484.201 232.061L455.011 242.011L454.451 242.091L452.771 241.991L452.211 241.621L452.261 240.951L452.531 240.721L467.641 234.181L482.821 228.421L482.911 228.391L483.441 228.021L483.771 227.481L483.871 226.851L483.711 226.231L478.221 215.171L477.571 214.521L476.671 214.671L464.951 220.531L453.081 226.031L440.011 232.011L427.381 237.291L425.061 238.111L424.191 238.191L424.751 237.511L426.751 236.081L437.351 229.231L448.651 222.321L460.651 215.341L473.341 208.301L473.371 208.281L473.771 207.741L473.651 207.081L466.641 196.431L466.331 196.181L465.951 196.271L432.591 216.691L432.181 216.781L432.041 216.381L432.211 215.561L432.721 214.891L438.751 210.221L446.401 204.621L456.341 197.671L457.791 196.741L461.461 194.211L462.371 193.221L462.771 192.221L462.621 190.951L461.731 189.391L458.121 184.771L454.481 180.461L453.831 180.091L453.141 180.381L444.911 187.351L436.361 193.801L434.811 194.781L433.611 195.111L433.001 194.961V194.331L433.601 193.231L434.931 191.581L436.731 189.931L443.561 183.981L450.351 177.221L450.711 176.451L450.301 175.711L445.321 170.691L441.511 165.851L440.761 165.381L439.911 165.631L439.821 165.721L436.141 169.541L432.171 173.331L427.931 177.101L423.411 180.841L422.361 181.501L421.311 181.791L421.161 181.781L420.881 181.511L420.941 181.121L427.161 173.581L433.181 167.311L435.251 164.711L436.551 162.951L436.771 162.301L436.461 161.691L436.451 161.681L426.891 153.781L426.351 153.491L425.731 153.421L425.141 153.581L424.651 153.961L402.411 179.101L402.381 179.131L402.301 179.151L402.111 179.121L401.971 178.471L402.061 178.221L404.181 174.741L407.901 168.911L408.451 168.161L418.401 154.611L421.761 150.681L421.731 150.261L421.721 150.251L411.171 142.681L410.491 142.381L409.761 142.371L409.071 142.661L408.561 143.191L408.511 143.281L404.471 150.191L400.001 157.191L389.001 173.351L378.811 187.511L376.171 191.491L375.881 191.751L375.491 191.771L375.471 191.761L375.131 191.601L374.991 191.091L376.871 186.491L379.001 182.281L383.441 174.201L388.581 164.261L393.221 156.051L397.841 147.511L400.171 143.141L402.601 139.071L402.731 138.311L402.261 137.691L402.231 137.671L391.001 131.641L390.131 131.501L389.521 132.131L374.501 163.671L374.161 163.981L373.701 163.971L373.051 163.691L372.851 163.501L372.861 163.241L385.461 129.561L385.471 129.251L385.231 129.041L375.051 124.771L373.161 124.121L372.341 124.101L371.601 124.281L370.431 125.181L369.561 126.801L364.011 141.941L362.921 144.431L361.351 147.431L361.041 147.751L360.581 147.831L360.171 147.731L359.691 147.381L359.451 146.941L359.481 146.421L366.791 122.961L366.801 122.941L366.711 122.211L366.121 121.761L352.141 118.181H352.121L351.551 118.281L351.231 118.761L348.511 130.441L346.911 136.001L345.151 141.371L344.711 141.931L344.031 142.111L343.611 142.091L343.161 141.871L343.011 141.391L343.021 141.351L347.021 120.811L347.131 119.621L347.021 118.241L346.571 117.281L345.631 116.841L333.301 114.871L332.471 115.071L332.021 115.791L326.031 150.601L325.831 151.151L325.451 151.591L324.861 152.061L324.681 152.151L324.201 152.061L324.001 151.601L327.111 115.461L326.841 114.621L326.051 114.221H326.041L313.231 113.461L312.831 113.581L312.601 113.921L312.581 114.031L309.001 174.561L309.071 175.081L309.341 175.521L309.761 175.831L310.271 175.951H310.301L316.391 176.141L322.411 176.631L328.371 177.421L334.271 178.501L339.661 179.761L344.991 181.271L350.281 183.041L355.511 185.051L363.451 188.651L370.971 192.761L378.081 197.371L384.771 202.481L387.021 204.401L393.791 210.771L399.951 217.481L405.501 224.551L410.441 231.961L413.181 236.701L415.661 241.541L417.871 246.471L419.821 251.501L422.131 258.751L423.911 266.191L425.171 273.811L425.901 281.631L426.121 289.181L425.861 296.641L425.141 304.011L423.951 311.281L422.391 318.071L420.411 324.771L418.021 331.391L415.201 337.921L415.071 338.931L415.531 339.831L418.241 342.871L419.151 344.251L419.791 345.591L420.611 347.971L421.211 350.361L421.581 352.751L421.731 355.151L421.641 357.781L421.281 360.421L420.041 364.581L417.661 369.921L413.051 379.041L411.981 380.501L410.691 381.671L409.331 382.481L407.801 383.051L407.761 383.061L407.461 383.351L407.471 383.761L411.521 391.891L414.161 396.001L418.781 401.921L422.581 406.781L424.781 410.031L426.981 413.721L428.221 416.381L428.861 418.491L429.251 420.621L429.401 422.881L429.301 425.151L428.941 427.541L428.351 429.911L427.501 432.341L426.441 434.701L425.351 436.551L423.951 438.301L422.261 439.971L420.261 441.551L415.991 444.471L411.761 447.081L407.571 449.381L403.431 451.361L392.791 455.821L384.181 458.871L373.831 461.821L363.161 464.381L352.161 466.561L340.841 468.361L329.701 469.511L317.591 469.991H317.241L303.711 470.081L294.281 469.901L285.911 469.421L277.991 468.571L263.321 466.251L249.091 463.261L238.711 460.441L228.321 456.911L217.891 452.661L207.451 447.701L203.281 445.401L199.381 442.891L195.761 440.181L192.411 437.251L190.821 435.581L189.511 433.831L188.451 431.991L187.671 430.061L187.161 428.111L186.911 426.081L186.981 423.551L187.521 420.851L188.511 417.971L189.961 414.911L193.181 409.641L196.901 404.851L205.081 395.271L206.831 392.891L208.501 390.181L210.111 387.151L211.641 383.801L211.691 383.421L211.521 383.111L207.581 378.591L204.321 374.021L201.741 369.401L199.841 364.731L198.961 361.481L198.501 358.311L198.451 355.221L198.811 352.211L199.551 349.381L200.681 346.621L202.201 343.941L204.101 341.331L204.711 340.481L204.961 339.851L204.911 339.051L204.571 338.071L202.001 332.021L199.821 325.901L198.031 319.701L196.631 313.431L195.361 304.811L194.811 296.051L194.801 290.071L195.051 284.221L195.561 278.501L196.321 272.921L197.331 267.471L198.591 262.151L200.111 256.971L201.891 251.921L205.351 243.721L209.301 235.901L213.771 228.471L218.741 221.421L222.801 216.371L225.991 212.821L229.461 209.331L233.201 205.901L237.221 202.531L241.261 199.421L245.401 196.501L249.651 193.771L254.001 191.221L262.551 186.911L271.471 183.281L280.771 180.331L290.451 178.051L294.471 177.391L298.771 176.921L307.121 175.931L307.661 175.651L307.651 175.031L307.091 172.591L306.641 161.711L306.251 155.811L305.991 147.841L305.611 137.531L305.171 126.011L305.101 114.451L304.741 113.641L303.921 113.331H303.891L291.071 114.171L290.451 114.451L290.181 115.081L290.261 117.401L290.661 120.611L291.191 126.001L292.161 145.841L292.131 145.501L292.121 145.481L292.061 145.501L291.641 146.811L291.261 147.331H290.531L290.301 146.881L285.821 115.681L285.471 114.961L284.661 114.811L271.451 116.711L270.681 116.941L270.181 117.351L269.951 117.961L269.981 118.751L273.961 140.381L273.931 141.471L273.461 142.451L273.171 142.821L272.721 143.281L272.341 143.381L272.041 143.141L271.811 142.541L265.851 118.741L265.591 118.351L265.131 118.311L252.081 121.581L251.581 121.841L251.281 122.331L251.041 123.341L250.981 124.771L251.221 126.241L256.401 145.031L256.841 147.261L256.681 149.181L256.391 149.501L255.961 149.441L255.841 149.321L254.341 146.651L253.151 143.711L247.731 127.561L246.701 125.201L246.171 124.571L245.461 124.181L244.651 124.061L243.851 124.251L233.171 128.891L232.521 129.341L232.091 130.001L231.941 130.771L232.091 131.541L236.951 143.941L242.411 158.491L243.521 161.901L244.071 164.551L244.141 165.731L243.991 166.181L243.621 165.891L243.021 164.871L238.661 155.961L234.531 146.931L230.551 138.021L227.851 132.531L227.231 131.971L226.401 131.981L220.891 134.591L215.791 137.841L215.271 138.601L215.361 139.521L218.281 145.521L220.871 150.321L226.261 159.971L231.251 169.501L235.841 178.881L240.031 188.141L240.221 189.111L239.341 188.671ZM393.171 238.171L396.521 244.891L399.351 251.861L407.691 273.961L409.921 280.441L411.591 286.951L412.711 293.481L413.261 300.031L413.181 307.851L412.321 315.691L410.911 322.331L409.221 327.751L407.071 333.041L404.981 337.351L402.751 341.421L400.381 345.241L397.871 348.831L394.691 352.681L390.301 357.291L382.301 365.241L382.181 365.451L382.251 365.721L382.431 366.011L382.451 366.021L387.501 362.101L393.701 356.871L395.051 355.531L396.221 353.981L398.691 351.001L402.031 346.781L402.271 346.431L405.141 342.041L407.751 337.621L410.091 333.191L412.161 328.741L413.961 324.281L415.491 319.791L416.761 315.291L417.761 310.771L418.901 304.231L419.691 298.311L420.141 292.991L420.251 288.281L420.021 282.281L419.501 276.421L418.711 270.681L417.621 265.081L416.261 259.621L414.621 254.281L412.691 249.081L410.481 244.011L408.251 239.581L405.801 235.261L403.121 231.041L400.221 226.931L397.081 222.921L393.721 219.021L390.141 215.231L386.321 211.551L379.891 206.021L373.201 201.061L366.231 196.671L358.991 192.841L351.761 189.691L344.271 187.071L336.541 184.971L328.551 183.401L323.271 182.661L318.201 182.191L313.321 181.971L308.651 182.021L301.501 182.481L294.691 183.281L288.241 184.431L282.131 185.931L277.071 187.501L272.051 189.331L267.071 191.441L262.131 193.811L257.241 196.451L252.391 199.361L247.581 202.541L242.821 205.991L239.221 208.841L235.771 211.831L232.481 214.951L229.331 218.221L226.021 222.011L222.891 225.971L219.951 230.101L217.191 234.411L213.861 240.181L210.931 245.861L208.401 251.451L206.261 256.941L204.621 262.091L203.271 267.521L202.211 273.211L201.441 279.181L200.861 286.121L200.561 292.461L200.711 298.621L201.431 305.771L202.151 310.491L203.071 315.121L204.171 319.631L205.471 324.051L206.951 328.361L208.631 332.561L210.491 336.671L212.551 340.671L215.971 346.451L218.271 349.791L220.761 352.921L223.431 355.831L226.291 358.541L229.661 361.281L233.261 363.761L237.081 365.991L241.131 367.961L250.281 371.631L259.521 374.591L268.851 376.841L278.271 378.381L278.801 378.441L286.631 379.071L293.421 378.941L300.611 378.191L307.981 377.091L309.521 376.761L310.031 376.451L309.501 376.181L307.951 375.941L300.741 374.911L293.431 373.411L290.381 372.531L286.221 371.051L279.031 368.601L278.881 368.521L278.711 368.141L278.931 367.771L279.461 367.441L280.481 367.261L283.531 367.781L286.551 368.051L289.551 368.081L292.521 367.871L296.631 367.171L300.691 365.991L303.241 364.861L305.801 363.241L308.511 361.081L311.381 358.331L325.921 343.771L340.621 330.201L348.961 322.461L357.041 314.651L364.851 306.781L372.401 298.861L377.341 293.161L381.751 287.241L385.631 281.101L388.991 274.731L390.871 270.131L392.311 265.181L393.281 259.891L393.811 254.241L393.751 250.831L393.301 246.351L392.181 238.491L392.061 237.251L392.181 236.791L392.551 237.101L393.171 238.171ZM403.286 287.11L403.153 285.391L402.371 283.853L401.061 282.732L399.421 282.198L398.11 282.042L396.391 282.175L394.853 282.957L393.732 284.267L393.198 285.907L392.935 288.112L393.069 289.831L393.85 291.368L395.161 292.489L396.801 293.024L398.111 293.18L399.831 293.046L401.368 292.265L402.489 290.954L403.024 289.315L403.286 287.11ZM380.961 338.431L382.401 338.491L383.711 338.191L385.341 337.171L388.061 334.141L390.441 330.351L392.611 325.821L394.091 321.611L395.101 316.961L395.961 312.331L395.971 310.021L395.831 309.401L395.611 309.151L395.301 309.281L394.911 309.791L391.241 316.431L390.181 318.101L388.741 319.831L386.931 321.611L384.761 323.451L378.741 328.191L377.151 329.841L376.211 331.701L375.951 333.711L376.111 334.681L376.471 335.591L377.181 336.601L378.211 337.451L379.441 338.051L380.961 338.431ZM349.481 362.641L351.671 363.571L353.601 363.861L356.051 363.701L358.581 363.271L360.981 362.611L363.321 361.701L365.301 360.641L367.111 359.371L368.601 357.981L369.831 356.391L371.281 353.941L372.261 351.791L372.841 349.721L373.001 347.821L372.881 346.431L372.541 344.991L371.271 342.141L370.991 341.791L370.581 341.531L369.341 341.151L367.921 340.961L364.441 341.071L360.071 341.891L356.051 343.201L353.601 344.431L351.531 345.881L349.851 347.541L348.551 349.411L347.691 351.391L347.171 353.561L346.991 355.921L347.171 358.481L347.431 359.781L347.841 360.871L348.401 361.751L349.111 362.411L349.481 362.641ZM216.421 358.041L214.171 355.581L211.951 352.781L207.241 345.711L206.691 345.321L206.031 345.481L205.971 345.531L205.111 346.611L204.601 347.941L204.691 349.701L205.551 351.941L207.271 354.751L209.391 357.371L209.891 357.891L213.121 361.031L216.531 363.991L220.131 366.761L223.921 369.351L229.231 372.351L236.781 376.001L245.161 379.731L250.201 381.681L261.811 385.251L268.761 387.091L281.381 389.381L294.061 390.911L301.351 391.451L308.661 391.731H314.271L321.001 391.501L333.321 390.691L340.071 389.881L346.941 388.751L353.941 387.291L361.061 385.511L367.851 383.481L374.461 381.101L380.881 378.381L387.131 375.311L392.741 372.171L398.391 368.411L403.551 364.131L406.781 360.921L409.791 357.481L412.581 353.801L415.151 349.871L415.911 348.081L415.991 347.281L415.871 346.541L415.121 345.331L413.671 344.341L413.231 344.311L412.881 344.591L411.701 346.881L410.351 349.451L409.181 351.291L405.001 356.561L400.591 361.201L395.961 365.191L391.101 368.541L382.761 373.291L379.181 375.051L375.991 376.401L365.311 380.091L354.461 383.011L346.691 384.611L338.851 385.831L330.911 386.661L322.881 387.111L311.101 387.281L298.891 387.041L289.751 386.471L280.531 385.391L271.221 383.821L261.831 381.741L255.371 379.941L248.701 377.671L241.991 375.011L236.031 372.291L234.701 371.621L229.821 368.821L225.141 365.631L220.681 362.031L216.421 358.041ZM322.501 365.331L321.751 366.301L319.541 369.301L318.231 371.701L318.191 372.311L318.541 372.801L319.951 373.571L321.421 373.981L322.301 374.041L324.531 373.901L326.551 373.491L328.381 372.801L330.001 371.831L331.751 370.241L333.191 368.221L333.601 367.281L333.781 366.321V365.901L333.291 364.101L332.181 362.521L330.651 361.371L328.921 360.871L327.431 361.081L325.841 361.911L324.211 363.321L322.501 365.331ZM388.781 395.751L377.101 399.001L365.351 402.001L351.591 404.551L337.591 406.361L323.331 407.451L308.831 407.801L295.911 407.481L283.121 406.521L270.471 404.921L257.941 402.691L245.841 399.901L233.871 396.511L224.681 393.001H224.611L224.561 393.031L224.291 393.271L224.161 393.511L224.351 393.721L234.431 398.791L238.811 400.681L242.751 402.131L253.391 405.361L264.091 408.021L274.851 410.121L285.681 411.661L295.141 412.541L304.661 413.001L314.221 413.031L323.831 412.641L334.261 411.741L344.351 410.351L354.091 408.481L363.491 406.131L370.091 404.101L376.861 401.651L383.791 398.801L390.891 395.541L391.641 394.951L391.711 394.521L391.201 394.651L388.781 395.751ZM196.081 433.481L196.691 434.701L197.261 435.801L197.591 435.971L197.741 435.671L197.821 431.311L197.921 429.521L198.261 427.341L199.691 421.801L200.661 419.231L202.031 416.591L205.021 411.671L212.861 400.321L213.931 398.581L214.151 397.831L214.051 397.411L213.631 397.331L212.891 397.571L212.121 397.971L210.901 398.841L207.171 402.281L203.731 405.981L200.101 410.601L196.861 415.561L195.761 417.751L194.851 420.271L194.241 422.921L193.971 425.451L194.021 427.831L194.391 429.921L195.061 431.801L196.081 433.481ZM395.311 406.471L397.601 413.281L399.361 420.321L400.001 424.051L400.341 427.541L400.391 430.801L400.131 433.831L398.481 443.751V443.901L398.721 444.181L399.081 444.141L399.421 443.921L402.851 441.561L405.111 439.611L406.711 437.651L407.711 435.561L408.151 433.411L408.101 431.161L407.131 426.591L405.201 421.341L404.091 418.891L402.371 415.601L400.461 412.411L398.341 409.311L396.021 406.311L395.671 406.081L395.621 406.071L395.301 406.141L395.311 406.471Z" fill="black"/>
<path d="M540.618 194.42L540.798 194.79L544.548 202.71L548.048 210.75L552.318 221.64L556.148 232.72L556.058 233.02L555.788 233.24L555.488 233.32L555.228 233.15L555.208 233.1L547.798 215.69L539.828 198.57L538.328 195.58L536.808 192.62L527.638 176.1L517.928 159.87L517.898 159.82L517.908 159.51L518.148 159.32L518.488 159.23L518.788 159.33L525.488 168.94L531.788 178.81L536.228 186.36L540.428 194.06L540.618 194.42Z" fill="black"/>
<path d="M79.1302 196.771L77.6802 199.721L69.9902 216.651L62.8402 233.861L62.8102 233.911L62.5602 234.081L62.2702 234.001L62.0002 233.791L61.9102 233.491L65.5802 222.551L69.7002 211.791L73.0702 203.851L76.6902 196.011L76.8702 195.641L77.0502 195.291L81.1302 187.671L85.4302 180.201L91.5402 170.431L98.0702 160.901L98.3602 160.801L98.6902 160.881L98.9302 161.071L98.9402 161.381L98.9202 161.421L89.4902 177.501L80.6102 193.841L79.1302 196.771Z" fill="black"/>
<path d="M279.069 228.77L262.599 244.36L248.009 257.7L244.809 260.76L241.299 264.51L233.309 274.02L230.679 277.55L228.319 281.2L226.219 284.96L224.379 288.83L222.979 292.34L221.779 295.93L218.879 306.69L216.669 317.4L216.479 318.02L216.209 318.27L216.149 318.28L215.449 317.99L215.159 317.28L215.089 309.93L214.759 303.34L214.179 298.82L213.109 294.05L211.549 289.01L209.489 283.72L208.719 281.08L208.059 276.97L207.809 273.62L207.869 270.13L208.599 263.68L209.999 257.26L212.039 250.86L214.749 244.49L217.129 239.8L219.719 235.27L222.509 230.89L225.519 226.66L229.369 221.83L233.519 217.21L237.959 212.81L242.699 208.64L244.989 206.81L248.249 204.42L251.649 202.2L255.159 200.14L258.809 198.25L271.039 193.3L277.369 191.19L283.709 189.72L292.329 188.25L298.319 187.5L303.989 187.14L309.139 187.07L313.779 187.27L317.899 187.75L322.619 188.72L327.199 190.08L332.589 192.28L333.879 193L334.239 193.5L333.689 193.79L332.219 193.87L326.599 193.98L321.529 194.45L318.979 194.92L316.559 195.61L314.259 196.51L312.089 197.63L309.819 199.13L307.709 200.9L289.029 219.73L283.449 224.84L279.069 228.77ZM303.829 190.62L298.529 191.56L294.399 192.88L292.709 193.68L291.159 194.63L289.889 195.66L288.809 196.86L288.789 196.88L288.239 197.91L287.959 199.16L287.969 200.62L288.269 202.3L288.569 202.81L289.109 203.07L291.399 203.14L293.479 202.67L294.879 201.98L296.469 200.56L298.619 197.94L301.839 193.89L304.599 190.92L304.809 190.58L304.409 190.54L303.829 190.62ZM268.209 211.43L268.129 210.82L267.879 210.38L267.449 210.12L266.839 210.03L264.959 210.13L263.139 210.46L261.159 211.1L256.769 213.34L253.329 215.85L252.149 217.08L251.389 218.2L250.979 219.29L250.939 220.39L251.239 221.3L251.879 222.19L252.169 222.48L253.769 223.52L255.809 224.09L256.499 224.06L257.319 223.79L259.309 222.51L259.999 221.97L263.829 218.84L266.259 216.28L267.699 213.85L268.069 212.66L268.209 211.43ZM227.769 250.66L230.729 246.2L234.249 241.56L236.529 239.15L239.769 236.4L242.699 233.92L245.509 231.15L245.879 230.29L245.659 228.83L245.199 227.98L244.499 227.21L243.629 226.92L241.239 227.36L239.549 228.26L239.099 228.65L236.379 231.41L234.009 234.54L231.959 238.06L230.259 241.95L227.029 250.26L227.019 250.37L227.049 250.47L227.199 250.67L227.489 250.89L227.769 250.66ZM217.318 276.721L218.169 277.02L219.085 277.111L220.029 276.992L220.966 276.665L222.676 275.451L223.954 273.654L224.605 271.547L224.531 269.451L224.221 268.509L223.743 267.686L223.114 267.014L222.36 266.519L221.509 266.221L220.594 266.129L219.649 266.249L218.712 266.575L217.002 267.789L215.724 269.587L215.073 271.694L215.147 273.789L215.457 274.732L215.935 275.555L216.564 276.227L217.318 276.721Z" fill="black"/>
<path d="M381.59 215.251L383.74 217.311L385.52 219.961L386.02 221.231L386.14 222.481L385.64 224.251L384.83 225.511L383.83 226.531L381.95 227.601L379.5 228.141L378.28 228.101L377.14 227.841L375.17 226.791L373.63 225.111L372.53 222.871L372.02 220.281L372.06 218.471L372.43 216.451L373.12 214.221L374.15 211.771L374.84 211.011L375.84 210.771L377.38 211.331L379.18 212.821L379.61 213.271L380.34 214.171L381.59 215.251Z" fill="black"/>
<path d="M246.942 266.001L247.332 265.531L253.482 259.001L261.382 251.591L267.112 246.321L274.102 239.971L288.032 228.211L288.302 228.051L288.562 227.991L288.902 227.971L289.012 227.991L289.182 228.191L289.112 228.441L271.222 246.561L260.932 256.631L250.782 265.611L240.252 274.001L239.602 274.301L239.762 273.601L240.122 272.921L241.552 270.991L243.462 269.351L245.052 267.991L246.572 266.491L246.622 266.451L246.942 266.001Z" fill="black"/>
<path d="M347.85 244.14L348.45 243.83L348.99 243.23L349.93 241.13L351.33 236.13L352.56 230.23L353.1 228.58L353.65 227.91L353.94 228.73L354.85 234.19L356.52 240.73L357.32 242.29L358.01 242.92L358.94 243.44L362.8 244.97L365.49 245.64L369 246.23L370.62 246.84L371.13 247.34L370.55 247.74L368.91 248.04L363.73 248.88L361.41 249.45L359.37 250.23L357.91 251.13L357.04 252.12L356.2 253.92L353.82 265.66L353.36 266.22L352.68 266.26L352.4 265.93L352.28 265.31L351.84 261.36L350.98 257.4L350.94 257.26L350.17 254.54L349.47 252.75L348.66 251.38L347.73 250.41L346.15 249.48L344.01 248.94L338.64 248.22L336.66 247.86L335.98 247.44L336.61 246.95L338.56 246.41L347.85 244.14Z" fill="black"/>
<path d="M306.529 274.181L306.579 273.631L306.419 273.241L306.069 273.011L305.519 272.951L299.569 273.051L293.639 272.941L287.729 272.611L281.849 272.071L274.609 271.101L267.399 269.801L267.109 269.661L267.369 269.481L270.849 268.571L277.829 267.531L284.529 266.761L290.939 266.251L297.079 266.001L301.579 266.141L305.299 266.721L305.719 266.651L305.969 266.301V266.281L310.439 238.321L310.599 237.881L310.829 238.291L311.779 241.831L314.339 265.371L314.499 265.981L314.809 266.431L315.259 266.721L315.869 266.861L341.709 269.081L342.059 269.271L342.159 269.651V269.671L341.959 270.131L341.109 270.581L334.329 271.611L327.659 272.391L321.079 272.931L314.609 273.211L314.239 273.471L314.219 273.601L313.829 280.771L313.209 287.941L312.359 295.091L311.289 302.241L311.019 304.211L310.419 308.051L309.599 310.791L309.399 311.061L309.279 310.751L307.379 294.391L306.199 280.571L306.159 277.051L306.529 274.181Z" fill="black"/>
<path d="M553.429 314.42L529.039 305.91L528.159 305.49L527.859 305.06L528.129 304.61L528.969 304.14L541.139 299.33L553.189 295.38L553.519 295.04L562.729 263.91L562.959 263.29L563.659 262.98L564.009 263.23L564.279 263.82L573.779 294.13L573.949 294.4L574.139 294.49L580.829 296.49L587.779 298.81L595.019 301.47L602.519 304.45L603.119 304.92L602.469 305.33L577.159 313.1L575.469 313.81L574.129 314.68L573.809 315.01L573.579 315.48L564.409 344.88L563.989 345.9L563.569 346.24L563.159 345.9L562.759 344.87L554.039 315.06L553.809 314.65L553.429 314.42ZM561.449 299.88L546.539 304.56L546.309 304.7L546.549 304.84L560.679 308.7L561.319 308.99L561.839 309.46L562.209 310.07L562.379 310.77L564.029 327.6L564.139 327.85L564.409 327.92L564.689 327.9L564.839 327.84L564.889 327.69L565.009 325.22L565.319 323.55L567.219 316.53L568.329 309.8L568.689 309.13L569.479 308.72L586.309 304.8L586.789 304.56L586.319 304.31L569.389 299.48L568.649 299.03L568.239 298.27L564.599 282.57L564.439 282.27L564.209 282.55L563.339 284.78L563.059 286.03L562.799 292.66L561.959 299.3L561.789 299.66L561.449 299.88Z" fill="black"/>
<path d="M63.6608 296.699L63.9009 296.949L90.5708 306.929L90.8109 307.299L90.7308 307.549L90.2608 307.819L89.5609 307.989L78.4309 312.189L66.0009 316.189L64.4209 316.839L63.8909 317.149L63.5509 317.469L63.3709 317.849L54.4209 349.249L54.1908 349.459H54.0209L53.7509 349.139L49.4409 336.509L45.3509 322.259L43.8209 317.779L43.6009 317.369L43.0309 316.869L42.1809 316.559L40.8309 316.259L29.7209 312.779L15.4808 307.919L15.2209 307.689L15.2109 307.339L15.5909 306.869L16.3109 306.479L28.9808 302.059L42.7009 298.049L43.6309 297.519L44.1609 296.589L48.0809 282.939L52.5809 269.039L53.8009 266.829L54.2209 266.619L54.6308 266.829L54.7009 266.969L63.6608 296.699ZM56.0408 311.349L71.1109 307.569L71.6308 307.299L71.1308 307.009L57.2709 302.689L56.5609 302.349L55.9808 301.829L55.5609 301.169L55.3508 300.419L53.8508 287.019L53.6709 286.299L53.5408 286.139L53.0708 286.049L52.7509 286.399L48.8609 301.569L48.6609 302.039L48.2009 302.549L47.5809 302.849L30.5709 307.109L30.2509 307.269L30.5709 307.429L48.1809 311.939L48.7009 312.229L48.9609 312.739L52.5309 328.219L52.9709 329.769L53.3508 330.269L53.6608 329.709L53.9009 328.079L55.4009 312.089L55.6008 311.619L56.0408 311.349Z" fill="black"/>
<path d="M321.591 338.291L322.401 337.061L324.331 334.361L334.801 322.821L345.451 311.921L356.301 301.671L367.341 292.051L370.581 289.601L374.391 287.191L374.681 287.141L374.881 287.331L374.911 287.431L374.751 287.721L372.121 290.371L368.451 294.581L364.631 298.911L346.951 316.641L342.721 320.601L336.821 325.741L329.751 331.941L321.991 338.661L321.141 339.181L321.591 338.291Z" fill="black"/>
<path d="M263.02 291.541L264.08 297.641L264.48 298.891L265.16 299.861L266.08 300.541L267.26 300.961L273.67 302.251L274.03 302.471L273.96 302.891L273.8 303.121L273.36 303.471L272.75 303.681L269.13 304.471L266.38 305.311L265.94 305.561L265.61 305.931L264.75 307.511L264.02 309.411L263.42 311.621L263.01 313.941L262.81 314.851L262.52 315.181L262.14 314.951L261.67 314.151L261.06 312.451L260.72 310.411L259.27 307.321L258.7 306.441L257.98 305.731L256.83 305.051L254.5 304.341L251.36 303.821L250.98 303.641L251.08 303.221L251.1 303.191L251.59 302.751L252.31 302.471L255.99 301.481L258.67 300.441L259.69 299.621L260.25 298.451L261.2 294.601L262.18 291.461L262.69 290.641L263.02 291.541Z" fill="black"/>
<path d="M223.549 334.489L220.719 338.039L220.309 338.279L219.839 338.219L219.059 337.459L217.929 335.709L216.199 332.239L215.249 329.069L215.109 327.769L215.179 326.529L215.449 325.459L215.939 324.479L216.899 323.449L218.329 322.529L219.839 322.019L221.849 321.949L223.979 322.519L224.869 323.329L225.639 324.969L226.129 327.479L226.019 329.209L225.559 330.959L224.729 332.719L223.549 334.489Z" fill="black"/>
<path d="M250.661 350.15L249.851 350.57L249.371 351.35L244.801 367.4L244.461 368.06L244.231 367.36L243.311 361.57L242.071 355.54L241.381 353.52L240.291 351.82L239.181 350.75L237.851 349.87L235.791 348.98L233.481 348.38L230.891 348.06L228.051 348.03L227.311 347.77L226.371 346.96L226.281 346.76L226.461 346.63L240.141 342.33L240.471 342.06L241.191 340.36L241.811 338.04L244.491 325.44L244.831 324.77L245.051 324.67L245.651 324.95L245.831 325.31L247.431 334.46L249.261 341.38L249.431 341.77L250.441 342.81L252.161 343.48L263.711 346.11L264.821 346.45L265.191 346.78L264.821 347.1L263.701 347.42L250.661 350.15Z" fill="black"/>
<path d="M62.2911 439.44L63.3211 441.48L64.8311 443.47L65.1511 444.05L65.2111 444.71L64.9911 445.34L64.5311 445.82L64.3511 445.92L58.7011 448.73L58.5411 448.75L58.4211 448.64L50.2211 433.46L50.1211 432.91L50.4811 432.49L55.9811 429.12L56.4511 429.02L56.7211 429.43L57.5411 430.75L57.9211 431L58.3711 431.01L60.0511 430.53L61.4411 429.91L79.8011 419.89L96.2011 411.4L96.8111 410.74L96.8511 409.84L96.2311 407.85L96.2411 407.4L96.5211 407.05L100.841 404.2L101.641 404.07L102.271 404.58L102.321 404.69L102.431 404.99L104.511 409.89L107.011 414.63L111.311 422.42L114.651 429.46L115.761 432.73L115.971 434.16V435.61L115.751 437.02L115.291 438.47L114.471 440.18L113.361 441.93L111.951 443.69L110.251 445.49L107.701 447.56L104.901 449.02L102.751 449.7L100.471 450.05L98.0711 450.09L95.5411 449.82L93.4911 449.24L91.0111 448.1L90.6411 448.04L90.5211 448.41L90.2911 451.01L89.5011 453.34L88.1411 455.39L86.2111 457.16L80.8311 461.22L77.3611 464.06L77.2111 464.22L77.0311 464.64L77.0411 465.1L77.2511 465.51L77.6211 465.79L79.1511 466.71L80.6011 467.99L80.9011 468.48L80.9811 469.05L80.8111 469.61L80.4311 470.04L80.2911 470.13L73.3011 474.17L72.8211 474.27L72.4311 473.98L69.8611 469.78L67.9611 465.35L67.4811 463.86L67.4411 463.36L67.6011 462.94L70.3811 458.76L72.6211 456.33L76.8611 452.71L81.4811 448.18L82.8911 446.41L83.7411 444.62L83.7811 444.2L83.6411 443.83L76.7211 432.52L76.2611 432.17L75.6811 432.22L62.5611 438.74L62.2911 439.04V439.44ZM84.5811 428.06L84.1211 428.7L84.0911 429.28L86.8511 433.81L90.0411 438.36L91.4411 439.96L92.6811 440.76L95.5311 441.39L98.2511 441.28L101.031 440.5L103.491 439.15L104.471 438.3L105.281 437.33L105.961 436.17L106.341 435.06L106.461 433.82L106.341 432.47L105.971 431L104.811 427.68L103.981 425.91L102.311 422.96L101.181 420.01L100.671 419.32L99.9711 419.44L85.1011 427.59L84.8111 427.8L84.5811 428.06Z" fill="black"/>
<path d="M547.762 436.99L548.712 437.04L549.072 436.91L548.852 436.6L548.042 436.1L518.652 420.34L517.772 420.26L517.102 420.83L517.092 420.85L516.582 421.92L516.142 422.51L515.502 422.89L514.772 422.99L514.052 422.79L514.012 422.77L510.172 420.71L509.622 420.3L509.352 419.82V419.28L509.622 418.66L517.352 406.32L518.032 405.83L518.862 405.97L523.392 408.8L523.782 409.27L523.702 409.87L522.572 412.24L522.522 412.61L522.782 412.87L532.212 417.63L553.922 429.56L556.532 431.01L558.282 432.08L559.722 432.58L561.112 432.68L562.782 432.45L563.352 432.43L563.922 432.66L566.392 434.2L567.032 435.05L566.952 436.11L562.952 444.51L562.092 445.45L560.852 445.75L514.452 443.01L513.822 443.1L514.312 443.52L524.192 449.49L535.172 456.42L542.362 460.7L543.132 460.91L543.932 460.65L544.722 459.9L545.232 459.44L545.872 459.17L546.562 459.13L547.232 459.32L551.232 461.22L551.752 461.57L552.012 461.99V462.48L551.742 463.05L542.512 476.92L542.192 477.18L541.782 477.11L539.792 475.9L538.022 474.45L536.432 472.74L536.202 472.26L536.282 471.73L536.442 471.39L537.512 470.12L537.812 469.52L537.552 468.91L537.452 468.83L509.882 450.85L506.762 448.6L503.012 445.6L502.972 445.57L502.462 445.32L501.902 445.28L501.362 445.48L500.952 445.86L498.482 449.32L498.062 449.61L497.592 449.43L493.702 446.22L493.352 445.8L493.172 445.27L493.212 444.72L493.442 444.22L500.852 433.89L501.172 433.61L501.592 433.54L522.622 435.17L543.132 436.27L545.772 436.65L547.762 436.99Z" fill="black"/>
<path d="M84.9709 477.49L84.9909 477.52L85.4509 477.74L85.9309 477.56L89.5509 474.5L92.2209 472.27L99.8609 465.3L111.281 455.21L113.871 452.79L116.511 449.99L116.991 449.27L117.071 448.62L116.831 448.13L116.311 447.7L115.671 447.17L115.421 446.6L115.591 446.02L116.151 445.4L119.551 442.6L120.221 442.19L120.871 442.08L121.501 442.28L122.101 442.77L146.801 469.73L147.111 470.45L146.711 471.12L136.651 479.81L136.041 480L135.501 479.67L135.461 479.61L133.711 477.2L131.421 475.05L131.251 474.69L131.431 474.35L131.531 474.29L133.051 473.46L134.221 472.41L134.981 471.17L135.191 469.97L135.081 469.25L134.381 467.98L132.931 466.38L128.531 461.91L125.241 458.02L124.511 457.31L123.751 457.03L122.941 457.17L122.101 457.75L111.591 467.37L111.201 467.9L111.041 468.54L111.141 469.19L111.481 469.75L115.851 474.52L116.271 474.79L116.781 474.73L118.651 473.75L120.421 472.36L121.101 472.06L121.691 472.54L124.841 477.67L125.001 478.52L124.561 479.28L114.401 487.66L114.191 487.81L113.431 488.02L112.661 487.84L111.241 486.77L109.611 484.96L109.231 484.24L109.121 483.43L109.311 482.63L109.761 481.95L110.271 481.26L110.501 480.53L110.311 479.28L109.411 477.94L105.211 473.53L104.821 473.36L104.431 473.5L92.7109 483.61L92.6608 483.66L92.3009 484.45L92.5909 485.27L103.961 498.44L104.391 498.77L104.921 498.92L105.451 498.85L105.921 498.57L105.941 498.56L109.171 495.6L109.761 495.19L110.351 495.08V495.07L110.911 495.24L111.471 495.7L115.751 500.37L115.781 500.41L115.931 500.97L115.621 501.47L103.261 509.88L103.051 509.94L102.841 509.82L78.1308 481.19L77.9609 480.7L78.1809 480.24L82.5108 476.27L82.9509 476.05L83.4408 476.14L84.2209 476.67L84.9709 477.49Z" fill="black"/>
<path d="M528.822 483.03L529.052 485L529.042 487.09L528.812 489.35L528.362 491.61L527.702 493.87L526.852 496.02L525.882 497.9L524.782 499.56L524.332 500.14L521.452 503.36L518.162 506.26L516.352 507.56L514.472 508.65L512.542 509.54L510.552 510.24L507.282 510.92L503.872 511.1L501.312 510.95L498.822 510.59L496.412 510.03L494.072 509.27L491.792 508.29L489.592 507.11L486.962 505.38L484.422 503.39L481.962 501.13L479.592 498.6L477.352 495.81L475.482 492.97L473.982 490.1L472.852 487.18L472.322 484.98L471.982 482.33L471.852 479.23L471.922 475.69L472.142 473.35L472.582 471.12L473.242 469L474.122 466.99L475.312 464.94L476.692 463.05L478.202 461.33L479.832 459.79L481.592 458.43L483.972 456.97L486.562 455.78L489.332 454.88L492.312 454.26L495.902 453.99L499.322 454.33L503.152 455.26L506.772 456.51L510.192 458.07L513.392 459.95L516.802 462.5L519.932 465.45L522.792 468.83L525.382 472.62L526.462 474.65L527.362 476.96L528.122 479.65L528.822 483.03ZM484.622 467.27L482.872 469.5L481.892 471.37L481.202 473.42L480.792 475.65L480.672 478.06L480.752 479.6L481.112 481.83L481.772 484.02L482.712 486.19L483.952 488.33L486.582 491.93L489.442 495.02L492.552 497.6L495.902 499.68L499.102 501.09L502.252 501.92L505.252 502.14L508.162 501.75L510.132 501.1L512.052 500.12L513.822 498.88L515.532 497.31L517.052 495.56L518.252 493.75L519.172 491.8L519.762 489.82L520.072 486.89L519.762 483.91L518.842 480.77L517.342 477.62L515.162 474.33L512.492 471.3L509.322 468.52L505.652 466L503.482 464.82L501.292 463.94L499.072 463.35L496.842 463.05L495.292 463.01L492.892 463.2L490.672 463.67L488.642 464.42L486.802 465.45L484.622 467.27Z" fill="black"/>
<path d="M163.57 504.541L145.38 535.26L145.21 535.742L145.25 536.25L145.48 536.701L145.88 537.021L145.93 537.052L147.41 537.76L147.43 537.771L147.69 538.102L147.62 538.531L145.35 542.482L145.01 542.862L144.55 543.07L144.05 543.091L143.57 542.911L143.52 542.871L130.1 533.25L129.96 533.061L130.03 532.841L133.36 528.211L133.52 528.102L133.67 528.19L135.18 529.591L135.8 529.871L136.34 529.862L136.91 529.422L142.92 520.701L148.58 511.781L154.52 502.121L160.68 492.651L160.76 492.201L160.49 491.852L160.46 491.831L158.82 490.891L157.35 489.771L156.09 488.5L155.68 488.19L155.18 488.061L154.67 488.141L154.24 488.411L154.21 488.44L134.9 507.741L131.95 510.811L129.78 513.331L127.03 516.57L124.54 518.982L124.5 519.021L124.27 519.591L124.53 520.161L126.71 522.081L127.06 522.811L126.8 523.581L123.17 527.69L123 527.781L122.75 527.711L110.56 516.19L110.08 515.591L109.93 514.992L110.11 514.411L110.61 513.831L113.18 511.621L113.72 511.32L114.34 511.25L114.93 511.421L115.41 511.82L115.44 511.861L116.16 512.591L116.94 512.932L117.01 512.94L117.67 512.811L118.44 512.242L120.13 510.461L122.31 507.801L124.04 505.701L134.76 493.991L145.76 482.861L146.18 482.221L146.29 481.471L146.07 480.741L145.56 480.181L145.29 480.021L144.14 479.471L143.67 478.911L143.79 478.201L143.86 478.102L147.4 474.102L148.12 473.491L148.85 473.271L149.59 473.44L150.35 473.991L155.84 479.13L161.47 483.891L167.24 488.291L173.15 492.311L173.47 492.602L173.68 492.991L174.06 495.031L173.96 496.461L173.56 498.831L171.89 517.061L169.2 540.19L169.26 541.021L169.79 540.422L187.89 509.961L187.97 509.781L187.94 509.38L187.69 508.921L187.58 508.781L186.92 508.291L185.99 508.021L185.35 507.611L185.24 506.871L185.29 506.75L187.37 502.38L187.38 502.361L187.73 502.081L188.17 502.13L202.1 510.171L202.61 510.57L202.87 511.041L202.88 511.591L202.64 512.201L200.17 516.482L200.06 516.641L199.67 516.94L199.19 517.052L198.71 516.951L198.32 516.651L197.64 515.871L197.16 515.51L196.57 515.38L195.98 515.51L195.5 515.88L195.37 516.061L182.82 536.792L176.15 547.422L168.44 559.01L168.21 559.172L167.92 559.13L159.87 554.482L159.62 554.221L159.55 553.871L163.39 515.242L163.91 511.341L164.13 508.021L163.9 504.621L163.78 504.341L163.57 504.541Z" fill="black"/>
<path d="M436.722 508.161L438.072 509.661L439.742 512.182L440.602 513.542L450.442 528L460.042 542.57L460.412 542.932L460.892 543.112L461.412 543.081L461.862 542.831L461.982 542.711L463.362 541.161L464.002 540.802L464.582 541.271L467.442 545.94L467.612 546.661L467.132 547.232L453.462 555.602L452.592 555.811L451.882 555.26L449.412 551.612L449.392 551.581L449.212 551.112L449.222 550.602L449.432 550.141L449.802 549.792L451.352 548.841L451.762 548.461L451.992 547.951L452.002 547.401L451.802 546.88L451.782 546.852L428.632 512.802L428.162 512.341L427.552 512.091H426.902L426.292 512.352L420.292 516.432L419.882 517.031L420.002 517.75L422.572 521.94L422.852 522.581L422.862 523.161L422.592 523.672L422.052 524.121L417.632 526.831L416.892 527.151H416.232L415.652 526.852L415.152 526.242L408.362 515.141L408.262 514.721L408.552 514.391L424.842 504.801L432.692 499.76L439.792 495.44L444.982 492.19L449.422 488.971L458.502 481.681L460.922 480.13L461.362 480.021L461.752 480.19L463.562 481.981L464.862 483.94L465.072 485.13L464.902 485.651L464.552 486.021L463.812 486.26L463.552 486.352L463.222 486.711L463.112 487.281L463.252 487.931L463.602 488.531L489.192 519.57L489.582 519.88L490.072 520.01L490.572 519.94L490.992 519.672L491.062 519.602L492.062 518.482L492.632 518.13L493.292 518.172L493.642 518.38L497.792 522.052L498.212 522.802L497.782 523.542L485.192 534.401L484.472 534.701L483.792 534.341L480.782 531.232L480.322 530.581L480.182 529.951L480.372 529.331L480.902 528.732L482.122 527.682L482.562 527.121L482.752 526.432L482.662 525.721L482.302 525.112V525.102L460.422 499.741L455.002 494.521L454.532 494.25L454.052 494.221L453.192 494.44L452.452 494.841L451.812 495.44L451.312 496.231L451.192 496.781L451.392 497.331L455.252 503L455.502 503.521L455.532 504L455.332 504.44L454.902 504.831L449.632 508.411L449.132 508.661L448.672 508.681L448.262 508.471L447.902 508.031L444.852 503.061L444.312 502.411L443.692 502.102L443.002 502.13L442.242 502.5L436.832 506.171L436.312 506.651L436.122 507.141L436.262 507.641L436.722 508.161Z" fill="black"/>
<path d="M232.98 527.559L233.19 526.619L233.63 525.899L234.48 525.339L234.9 525.259L235.39 525.339L240.46 527.229L240.68 527.439L240.69 527.749L235.05 542.829L234.68 543.509L234.18 543.939L233.55 544.109L232.78 544.019L227.4 542.639L226.74 542.369L226.35 541.949L226.22 541.399L226.35 540.699L226.88 538.729L227.1 536.869L227.01 535.119L226.61 533.479L225.88 531.919L224.83 530.479L223.46 529.149L221.76 527.929L220.04 527.029L218.24 526.429L216.21 526.109L214.1 526.149L211.9 526.549L209.62 527.289L206.43 528.849L203.66 530.879L202.21 532.289L200.91 533.859L199.74 535.579L198.72 537.469L196.97 541.659L195.75 545.969L195.22 549.009L194.94 552.109L194.95 554.219L195.19 556.219L195.68 558.099L196.4 559.869L197.46 561.679L198.7 563.289L200.05 564.699L201.51 565.909L203.08 566.919L204.68 567.699L207.94 568.669L209.55 568.859L211.14 568.839L213.6 568.419L216.02 567.499L218.41 566.079L220.76 564.179L221.61 563.799L222.4 564.269L227.59 570.289L227.75 570.819L227.46 571.289L227.39 571.329L224.59 572.979L221.7 574.669L219.21 575.759L219.06 575.809L215.64 576.719L212.27 577.139L208.39 577.029L204.57 576.329L200.76 575.049L196.85 573.139L194.65 571.749L192.7 570.189L191 568.459L189.54 566.569L188.17 564.179L187.13 561.579L186.42 558.759L186.03 555.719L185.93 549.919L186.5 544.429L187.72 539.249L189.6 534.379L192.28 529.609L195.68 525.189L197.67 523.199L199.81 521.539L202.16 520.129L204.73 518.969L207.52 518.049L209.9 517.539L212.29 517.279L216.42 517.449L220.6 518.379L223.05 519.309L225.33 520.509L227.37 521.919L229.25 523.579L230.98 525.499L232.56 527.669L232.84 527.919L232.98 527.559Z" fill="black"/>
<path d="M389.419 576.07L389.069 575.531L388.999 570.031L388.009 549.47L386.939 531.75L386.919 531.62L386.459 531L385.679 530.94L383.879 531.6L383.049 531.56L382.519 530.93L382.499 530.87L381.469 526.79L381.529 525.961L382.179 525.451L403.769 517.51L404.119 517.48L404.449 517.68L405.849 519.701L406.849 522.151L406.869 522.62L406.589 523.031L406.339 523.19L405.589 523.37L405.439 523.401L405.149 523.701L405.229 524.12L433.509 559.44L433.729 559.591L434.009 559.51L435.309 559.04L437.199 559.12L437.729 559.531L438.409 560.62L439.789 563.37L439.819 563.93L439.449 564.331L439.429 564.341L437.949 564.891L435.299 566.021L430.899 568.591L426.579 570.8L425.889 570.93L425.219 570.68L423.689 569.11L422.399 566.711L422.329 565.72L422.869 564.88L423.469 564.25L423.949 563.35L423.999 562.85L423.789 562.401L418.879 556.26L418.149 555.56L417.329 555.19L416.449 555.151L415.489 555.42L399.329 562.44L398.759 562.8L398.329 563.31L398.069 563.93L398.009 564.6L398.539 567.06L398.819 568.151L399.039 569.901L399.069 572.19L399.059 573.24L399.069 573.391L399.459 573.91L400.099 573.93L401.799 573.19L402.299 573.081L402.809 573.18L403.229 573.461L403.519 573.891L403.529 573.93L404.909 577.69L405.039 578.3L404.949 578.81L404.619 579.211L404.069 579.51L389.209 584.98L388.729 585L388.379 584.651L387.739 583.07L387.439 581.63L387.459 580.3L387.839 579.031L388.389 578.141L389.429 576.79L389.549 576.43L389.419 576.07ZM397.519 553.94L397.809 554.201H398.179L411.139 549.201L412.069 548.56L412.279 548.18L412.259 547.85L412.209 547.771L397.659 528.701L396.849 528.141L396.429 528.11L396.139 528.281L396.049 528.531L395.969 533.271L396.299 537.93L396.999 545.201L397.129 552.531L397.519 553.94Z" fill="black"/>
<path d="M369.59 571.71L369.84 571.96L369.82 571.59L362.76 539.53L362.26 538.63L361.33 538.17L358.36 537.7L357.86 537.49L357.53 537.03L357 534.83L357.19 532.82L357.45 532.1L357.75 531.71L358.19 531.5L372.55 528.5L372.97 528.54L373.24 528.87L373.44 529.41L373.85 531.22L374.02 533.61L374.05 534.4L373.96 535.28L373.61 535.87L373.28 536.08L372.68 536.47L372.25 537.05L372.04 537.76L372.08 538.51L381.89 585.43L381.94 586.27L381.72 586.93L381.2 587.4L380.41 587.69L373.96 589.04L373 588.97L372.24 588.41L343.58 551.22L342.84 550.36L342.45 550.16L342.4 550.6L342.69 551.69L343.38 554.26L344 557.57L348.62 584.31L349.2 585.39L350.3 585.94L352.79 586.34L353.27 586.54L353.56 586.97L354.13 589.07L354.16 591.05L353.98 591.48L353.6 591.76L350.7 592.66L337.87 594.51L337.19 594.38L336.87 593.75L336.12 588.51L336.28 587.57L337.11 587.1L338.51 586.81L338.88 586.6L339.01 586.21L338.99 584.02L338.75 582.06L336.49 569.62L334.14 555.21L331.98 542.63L331.78 542.23L331.33 542.12L330.41 542.29L329.73 542.67L329.22 542.94L328.64 542.97L328.12 542.73L327.75 542.29L327.64 541.98L326.66 537.32L326.77 536.74L327.25 536.4L333.32 535.31L339.08 534.89L341.14 535.16L341.92 535.59L342.71 536.42L359.45 557.98L364.59 564.73L369.59 571.71Z" fill="black"/>
<path d="M270.068 540.76L269.958 541.92L270.108 544.54L272.378 570.16L273.748 582.77L274.258 586.26L274.458 586.68L274.858 586.93L274.958 586.95L275.838 586.98H275.868L276.538 587.18L276.858 587.81L277.198 593L276.898 593.79L276.108 594.09L275.988 594.07L259.768 591.02L259.018 590.59L258.998 589.74L260.598 584.44L260.908 583.97L261.118 583.89H261.178L261.508 583.99L261.678 584.29L262.048 584.88L262.428 584.95L262.608 584.61L263.128 578.94L262.918 573.86L262.558 573.07L261.798 572.64L244.598 569L243.908 569.08L243.398 569.54L238.468 578.08L238.368 578.59L238.738 578.94L240.978 580.01L241.438 580.44V581.06L239.938 585.86L239.438 586.56L238.588 586.58L223.718 581.94L223.078 581.47L223.158 580.67L225.478 575.8L226.028 575.24L226.818 575.42L226.988 575.52L227.718 575.74L228.578 575.72L229.018 575.55L229.348 575.21L230.338 573.68L232.708 569.77L240.998 553.58L249.868 537.42L250.008 536.97L249.938 536.5L249.688 536.11L249.288 535.86L249.118 535.81L248.668 535.72L248.238 535.49L248.138 535L248.308 534.01L248.748 532.57L249.418 531.18L249.988 530.51L251.218 530L252.818 530.08L272.568 534.27L273.048 534.53L273.178 535.06L272.858 540.5L272.568 541.02L271.988 541.11L271.838 541.05L270.918 540.53L270.438 540.43L270.068 540.76ZM258.768 539.72L248.038 559.72L247.958 559.89L247.848 560.55L248.028 561.2L248.448 561.72L249.048 562.02L261.078 565.1L261.488 565.04L261.738 564.72L262.198 562.24L262.158 559.52L261.378 550.6L260.898 542.04L260.758 541.15L260.428 540.39L259.608 539.53L259.118 539.38L258.768 539.72Z" fill="black"/>
<path d="M286.699 587.89L286.749 587.91L287.039 587.67V544.17L286.869 543.6L286.429 543.2L283.689 541.9L283.299 541.56L283.159 541.06V536.58L283.529 535.76L284.389 535.49L284.519 535.51L286.329 535.72L305.939 536.17L309.699 536.41L313.429 536.92L316.159 537.66L318.569 538.69L320.639 540.02L322.389 541.64L323.679 543.36L324.709 545.31L325.459 547.51L325.949 549.95L326.009 551.41L325.829 553.13L324.749 557.36L323.809 559.36L322.329 561.35L320.239 563.4L317.699 565.35L317.609 565.42L317.449 565.9L317.709 566.34L320.539 568.52L321.499 569.58L322.269 570.76L322.799 571.97L323.159 573.34L323.979 579.48L324.149 585.88L324.189 586.35L324.579 587.23L325.309 587.85L326.239 588.1L327.189 587.92L329.289 587L329.739 587.01L330.019 587.36L330.029 587.45L330.439 593.8L330.269 594.46L329.649 594.75L323.769 595.44L321.289 595.51L320.329 595.3L319.559 594.93L317.939 593.59L316.919 592.37L316.089 591.03L315.399 589.46L314.899 587.79L314.269 583.84L314.059 578.08L314.029 575.81L313.899 574.5L313.589 573.33L313.079 572.33L312.389 571.49L310.959 570.56L309.079 570.11L300.109 569.93L298.749 569.85L297.629 569.56L297.139 569.49L296.659 569.63L296.289 569.96L296.099 570.41L296.079 570.62V587.11L296.309 587.68L296.869 587.94L300.879 588.18L301.799 588.55L302.109 589.49V593.61L302.029 594.2L301.779 594.62L301.359 594.89L300.789 594.99L296.069 595.11L293.329 595.01L283.829 593.98L283.189 593.64L282.969 592.96L283.279 587.6L283.629 586.94L284.349 586.79L284.499 586.84L286.699 587.89ZM296.819 559.13L296.319 561.25L296.389 561.66L296.739 561.89H296.779L302.789 562.14L308.339 561.69L310.219 561.28L311.829 560.66L313.179 559.82L314.269 558.76L315.149 557.37L315.719 555.73L315.979 553.82L315.929 551.67L315.649 549.91L315.169 548.38L314.459 547.08L313.549 546.01L312.369 545.13L310.959 544.49L309.309 544.1L307.439 543.96L298.159 544.09L297.369 544.44L297.039 545.24L296.819 559.13Z" fill="black"/>
</g>
<defs>
<clipPath id="clip0_777_32859">
<rect width="618" height="616" fill="white"/>
</clipPath>
</defs>
</svg>
