<svg width="474" height="440" viewBox="0 0 474 440" fill="none" xmlns="http://www.w3.org/2000/svg">
<path d="M342.309 28.51L341.879 28.06L340.299 26.02L336.979 21.39L333.319 17.2L329.319 13.44L324.999 10.13L320.219 7.2L315.129 4.75999L309.749 2.81L304.089 1.37999L300.979 0.909988L297.879 0.769989L295.819 0.75L291.529 0.799988L288.449 1.31L285.319 2.14L253.019 10.81L172.729 32.76L163.859 35.25L150.039 39.09L139.999 41.68L137.239 42.4L133.309 43.44L127.569 45.08L125.519 45.94L123.719 46.92L120.519 49.1L117.609 51.5L114.999 54.12L112.669 56.95L110.729 59.85L109.059 62.95L107.649 66.25L106.509 69.74L106.059 71.84L105.679 74.79L105.149 78.66L104.969 75.16L105.389 71.83L106.629 67.33L108.279 63.14L110.329 59.27L112.789 55.71L115.539 52.59L118.659 49.75L122.159 47.21L126.039 44.97L129.579 43.68L135.729 42.13L145.529 39.72L267.689 6.12999L285.959 1.23L291.779 0.189987L294.439 0L296.809 0.0299988L303.279 0.809998L309.549 2.29999L315.659 4.5L321.459 7.37L326.829 10.85L331.759 14.93L336.129 19.51L339.969 24.62L342.309 28.51Z" fill="#7D7B77" fill-opacity="0.996"/>
<path d="M342.31 28.51L345.88 35.7L348.63 43.76L348.77 44.16L348.95 46.04L349.35 47.86L349.78 49.15L350.53 54.2L350.16 65.03L350 75.86L350.04 86.67L350.3 97.48L350.24 97.45L350.27 98.2L355.74 98.27L360.81 98.99L365.49 100.37L369.78 102.4L372.12 103.86L374.31 105.47L376.35 107.22L378.23 109.11L381.13 112.72L383.56 116.77L385.53 121.23L387.03 126.13L387.15 127.46L387.05 128.35L387.28 128.99L387.76 129.35L388.49 129.52L391.5 129.87L394.3 130.45L396.89 131.23L399.26 132.24L404.51 134.67L404.55 134.74L405.21 135.18L405.6 135.59L406.71 136.08L408.74 137.78L411.88 141.49L413.52 143.55L415.42 146.38L417.26 149.14L419.44 154.61L419.23 155.56L419.42 156.4L419.95 157.22L420.18 160.71L420.31 161.44L421.14 161.87L422.72 161.8H423.49L430.63 164.5L435.37 166.41L439.88 168.63L444.14 171.17L448.17 174.02L451.5 176.77L454.65 179.77L457.61 183.01L460.39 186.49L462.82 190.15L464.42 192.42L465.43 193.69L467.55 198.24L469.44 203.94L471 209.71L472.08 214.75L472.92 219.85L473.32 225.16L472.97 230.64L472.5 232.75L471.53 237.63L470.72 241.48L469.87 244.53L467.34 251.17L464.29 257.23L460.73 262.72L456.67 267.64L452.76 271.67L448.81 275.41L444.82 278.86L440.8 282.02L431.96 288.85L424.49 295.11L423.74 295.98L422.75 296.71L421.12 297.59L420.65 298.1L420.42 298.66L420.41 299.27L419.88 306.31L419.94 335.22L419.56 355.95L419.65 366.14L419.43 369.57L419.23 372.03L418.96 374.1L418.3 376.24L416.03 381.4L413.98 385.36L411.61 388.24L409.07 390.85L406.36 393.19L403.46 395.27L400.54 396.99L397.47 398.47L394.23 399.7L390.83 400.69L387.75 400.81L258.36 400.95L256.38 401.16L254.96 401.34L239.74 411.9L234.18 415.61L232.82 416.74L231.36 417.69L230.27 418.23L228.67 418.93L227.27 419.82L225.99 420.92L225.1 421.19L224.35 421.65L224.12 421.85L211.51 429.21L206.79 431.63L201.86 433.67L191.82 437.23L180.86 438.2L174.05 438.36L167.49 437.85L161.19 436.66L155.14 434.79L149.8 432.48L144.67 429.6L139.75 426.14L135.05 422.12L132.56 419.38L128.57 414.41L125.27 408.9L123.15 404.79L119.78 395.5L119.62 395.22L119.71 393.65L119.24 392.61L118.52 392.18L111.56 384.74L106.79 375.52L106.64 375.13L106.58 374.21L106.29 373L105.78 371.83L105.53 370.91L105.62 369.76L105.45 368.7L105.11 367.86L105.1 350.6L79.7205 350.02L54.3805 350.15H54.2704L53.7704 350.01L53.3604 349.67L53.1205 349.21L53.0905 348.68L53.4305 343.99L53.0504 339.45L52.8705 327.76L52.7404 327.31L52.3705 327.03L51.4805 326.91L50.3905 327.21H41.1805L39.9405 327.28L38.8905 326.99L32.5005 325.44L26.6405 323.26L23.9005 321.94L21.2905 320.45L18.8205 318.81L16.4705 317.01L13.8604 314.66L11.4305 312.09L9.18045 309.3L7.12045 306.29L4.56046 301.62L2.68045 296.84L1.82047 293.65L1.23047 290.38L0.880463 286.9L0.800446 283.29L0.980469 248.83L0.820465 191.45L0.750458 173.68L0.820465 154.05L0.93045 134.96L0.95047 124.43L0.830444 121.63L0.480469 118.88L0.640472 118.23L1.22046 117.91H1.29047H26.3604H26.3705L27.0105 117.78L27.5605 117.41L27.9205 116.86L28.0405 116.21L27.7704 81.2L102.94 80.94L103.58 81.33L104.2 81.42L104.72 81.26L105.22 80.88L105.48 80.44L105.49 80.26L105.37 79.87L105.06 79.63L105.15 78.66L105.68 74.79L106.06 71.84L106.51 69.74L107.65 66.25L109.06 62.95L110.73 59.85L112.67 56.95L115 54.12L117.61 51.5L120.52 49.1L123.72 46.92L125.52 45.94L127.57 45.08L133.31 43.44L137.24 42.4L140 41.68L150.04 39.09L163.86 35.25L172.73 32.76L253.02 10.81L285.32 2.14L288.45 1.31L291.53 0.799988L295.82 0.75L297.88 0.769989L300.98 0.909988L304.09 1.37999L309.75 2.81L315.13 4.75999L320.22 7.2L325 10.13L329.32 13.44L333.32 17.2L336.98 21.39L340.3 26.02L341.88 28.06L342.31 28.51ZM320.52 45.47L318.14 43.17L315.48 41.19L312.59 39.56L309.52 38.31L306.47 37.52L303.33 37.14L300.26 37.2L297.18 37.7L296.47 37.89L248.85 50.94L192.26 66.52L168.77 72.96L144.41 79.34L141.7 80.22L139.34 81.38L137.34 82.82L135.7 84.54L134.67 86.08L133.85 87.79L133.26 89.67L132.88 91.72L132.92 92.93L133.32 94.02L134.03 94.99L135.1 95.91L136.41 96.69L138.15 97.44L140.16 98.03L142.22 98.42L144.11 98.57L339.23 98.54L339.56 98.4L339.7 98.06L339.73 79.94L339.5 74.59L338.8 70.65L338.57 69.9L337.56 67.11L336.28 64.32L332.22 57.29L330.63 54.69L330.48 54L330.79 53.36L338.24 45.91L338.38 45.32L336.4 40.2L333.97 35.34L331.08 30.77L327.77 26.55L324.17 22.82L320.19 19.49L315.96 16.67L311.39 14.3L307.76 12.85L304.83 11.95L301.91 11.31L298.98 10.94L296.06 10.83L291.72 11.14L287.38 12.04L137.96 53.08L135.89 53.6L131.76 54.7L129.04 55.76L126.73 57.13L124.58 58.81L122.55 60.83L120.74 63.09L119.2 65.55L117.95 68.16L117.06 70.77L116.51 73.43L116.42 76.56L117.03 79.39L117.97 81.42L119.28 83.26L121 84.96L123.04 86.44L123.41 86.52L123.64 86.23L124.99 82.87L126.64 79.84L128.6 77.14L130.86 74.78L133.22 72.89L135.3 71.71L138.27 70.49L142.12 69.21L146.87 67.88L193.51 55.22L293.38 27.79L294.72 27.45L298.28 26.88L301.95 26.75L305.72 27.07L309.59 27.83L311.77 28.52L313.9 29.46L315.98 30.65L318.02 32.11L320 33.81L321.94 35.78L325.66 40.47L325.84 41.05L325.56 41.58L321.64 45.5L321.08 45.78L320.52 45.47ZM61.8405 213.11L52.2905 212.76L51.6905 212.49L51.4505 211.89V92.38L51.3705 92.14L51.1205 92.06H38.3004L37.9505 92.18L37.8405 92.52V212.16L37.6605 212.58L37.2404 212.76H28.0005L27.5705 212.58L27.3905 212.16V145.56L27.1905 144.58L26.6005 143.8L11.4904 130.49L10.8705 130.22L10.6605 130.87L10.8604 282.44L11.1104 287.07L11.8604 291.42L13.1104 295.51L14.8604 299.32L17.0105 302.72L19.6305 305.88L22.7104 308.78L26.2505 311.43L28.4805 312.77L30.8105 313.89L33.3505 314.81L36.0105 315.47L38.7605 315.88L41.6305 316.04H53.8805L63.6005 315.77L63.3905 339.25L63.5504 339.65L63.9505 339.81H105.1L105.29 339.62V325.49L105.16 325.16L104.83 325.02H77.0705L76.5305 324.79L76.3004 324.25V314.68L76.4105 314.35L76.7505 314.24H104.47L104.95 314.04L105.15 313.55V300.88V300.87L104.97 300.47L104.56 300.32L93.0605 300.63L82.8505 300.47L77.6905 299.89L72.7704 298.59L68.5105 296.76L64.4505 294.34L64.0405 294.28L63.7505 294.58L63.7305 294.71L63.6905 305.57L55.9005 305.31L55.2005 305.19L54.6905 304.87L54.3905 304.36L54.2905 303.65V300.9L54.1205 300.34L53.6205 300.05L50.9805 299.27L48.4405 298.27L45.9205 297.03L43.5204 295.59L41.2305 293.94L39.0804 292.11L37.0804 290.12L35.2404 287.97L33.5605 285.67L32.0605 283.23L30.7605 280.69L29.6505 278.04L28.7605 275.36L28.0905 272.61L27.6405 269.81L27.4105 266.96V253.31L27.5405 253.01L27.8405 252.89H37.4205L37.8105 253.02L37.9305 253.41L37.9005 255.42V263.89L38.4005 269.6L38.9005 272.14L39.5504 274.39L40.3805 276.5L41.4505 278.53L43.4305 281.32L46.0905 283.99L49.0804 286.05L51.3004 287.09L53.6805 287.86L56.2205 288.35L58.9105 288.55L59.1605 288.43L59.2005 288.16L59.1505 288.07L57.3505 285.69L55.7805 283.23L54.4405 280.69L53.3304 278.05L51.9505 273.39L51.4904 270.61L51.2104 267.35L51.1005 258.1L51.1104 253.39L51.2305 253.01L51.6104 252.88L61.7605 252.84L61.5005 264.18L61.5504 266.92L61.8805 269.58L62.4805 272.22L63.3405 274.73L64.4705 277.13L65.8304 279.37L67.4205 281.43L69.2205 283.3L70.9604 284.78L72.8405 286.09L74.8604 287.22L77.0005 288.17L79.2404 288.91L81.5705 289.44L83.9005 289.75L86.3004 289.86L104.82 289.69L105.16 289.54L105.3 289.2V92.52L105.12 91.98L104.58 91.8H62.9405L62.3304 92.05L62.0804 92.65L61.8405 213.11ZM370.32 115.88L369.78 115.5L367.17 112.91L364.23 110.99L361.13 109.79L357.73 109.18L141.91 108.74L138.29 107.93L134.76 106.86L131.73 105.72L128.77 104.37L128.03 103.99L128.02 103.97L126.17 102.54L124 101.42L121.99 99.88L121.04 98.7L119.95 98.14L119.64 98.09L118.23 96.59L116.7 95.57L116.09 94.92L115.6 94.93L115.26 95.38V193.44L115.62 194.31L116.5 194.67H375.67L376.55 194.3L376.92 193.42L376.87 137.93V137.66L376.75 131.16L376.25 126.73L375.23 122.94L373.59 119.65L372.14 117.71L370.32 115.88ZM408.9 157.3L407.79 154.01L406.17 151L403.99 148.18L401.39 145.72L398.31 143.56L394.93 141.87L391.34 140.68L387.63 140.02H387.61L387.28 140.14L387.13 140.47L387 149.43L387.08 261.28L387.03 349.17L387.02 350.37L387.19 355.72L387.52 357.58L388.02 359.09L388.73 360.44L390.32 362.36L392.31 363.83L394.72 364.87L397.33 365.4H400.02L402.67 364.86L405.07 363.83L407.21 362.3L407.36 362.16L408.35 360.92L409.06 359.4L409.48 357.57L409.62 355.46L409.52 170.62L409.36 161.9L408.9 157.3ZM421.29 283.74L431.24 276.34L441.68 268.11L446.4 263.89L450.53 259.37L454.06 254.56L456.99 249.45L459.07 244.71L460.7 239.75L461.72 235.34L462.38 230.93L462.68 226.44L462.62 221.99L462.19 217.52L461.4 213.13L460.27 208.84L458.8 204.68L457 200.63L454.87 196.74L452.44 193.05L449.71 189.56L446.71 186.33L443.44 183.34L439.99 180.69L436.3 178.31L432.61 176.35L428.72 174.66L424.75 173.31L420.6 172.25L420.53 172.24L419.99 172.41L419.76 172.93L419.8 283.68L419.99 284.23L420.57 284.22L421.29 283.74ZM147.79 204.88L133.16 204.81L116.92 204.8L116.28 204.87L116.18 204.54L115.9 204.51L115.49 204.73L115.36 205.17V358.93L115.93 367.86L116.54 370.91L117.46 373.08L117.67 373.5L117.7 373.66L117.83 374.37L118.48 375.22L118.98 375.96L119.01 376.2L121.56 379.87L124.58 382.99L128.03 385.56L131.95 387.6L135.42 388.9L137.35 389.76L139.22 390.37L141.02 390.74L142.76 390.85L227.75 390.65H228.96L267 390.47L305.05 390.04L384 389.98L388.46 389.67L392.72 388.72L395.69 387.63L396.72 387.48L397.16 387.15L397.11 386.82L397.76 386.78L398.19 386.58L400.98 384.39L403.4 381.89L405.57 378.93L407.34 375.63L407.38 375.5L407.25 375.04L406.8 374.86L406.69 374.87L405.85 375.18L405.05 375.88L402.07 376.24L398.98 376.36L396.02 376.15L393.21 375.61L390.54 374.73L387.7 373.31L385.15 371.6L382.91 369.61L381 367.35L379.87 365.61L378.9 363.75L378.11 361.75L377.5 359.64L377.26 358.82L376.72 357.64L376.63 357.15L376.87 205.44L376.51 204.58L375.66 204.24H375.64L356.04 204.9L212.55 204.88L207.6 204.45L201.94 204.22L188.5 204.34L177.31 204.3L167.16 204.19L159.92 204.39L147.79 204.88ZM132.19 399.17L132.1 399.16L131.89 399.29L131.88 399.54L135.12 405.56L136.95 408.33L138.92 410.94L141 413.34L143.22 415.58L145.57 417.66L148.07 419.56L151.92 422L156.07 424.07L160.41 425.72L165.03 427L170.59 427.96L176.36 428.32L182.1 428.08L187.99 427.23L193.93 425.77L199.74 423.75L205.53 421.14L211.11 418.03L224.36 409.74L236.81 401.59L237.36 400.97L236.55 400.76L144.5 400.84L140.06 400.63L135.7 400L132.19 399.17Z" fill="black"/>
<path d="M320.522 45.4701L321.082 45.7801L321.642 45.5001L325.562 41.5801L325.842 41.0501L325.662 40.4701L321.942 35.7801L320.002 33.8101L318.022 32.1101L315.982 30.6501L313.902 29.4601L311.772 28.5201L309.592 27.8301L305.722 27.0701L301.952 26.7501L298.282 26.8801L294.722 27.4501L293.382 27.7901L193.512 55.2201L146.872 67.8801L142.122 69.2101L138.272 70.4901L135.302 71.7101L133.222 72.8901L130.862 74.7801L128.602 77.1401L126.642 79.8401L124.992 82.8701L123.642 86.2301L123.412 86.5201L123.042 86.4401L121.002 84.9601L119.282 83.2601L117.972 81.4201L117.032 79.3901L116.422 76.5601L116.512 73.4301L117.062 70.7701L117.952 68.1601L119.202 65.5501L120.742 63.0901L122.552 60.8301L124.582 58.8101L126.732 57.1301L129.042 55.7601L131.762 54.7001L135.892 53.6001L137.962 53.0801L287.382 12.0401L291.722 11.1401L296.062 10.8301L298.982 10.9401L301.912 11.3101L304.832 11.9501L307.762 12.8501L311.392 14.3001L315.962 16.6701L320.192 19.4901L324.172 22.8201L327.772 26.5501L331.082 30.7701L333.972 35.3401L336.402 40.2001L338.382 45.3201L338.242 45.9101L330.792 53.3601L330.482 54.0001L330.632 54.6901L332.222 57.2901L336.282 64.3201L337.562 67.1101L338.572 69.9001L338.802 70.6501L339.502 74.5901L339.732 79.9401L339.702 98.0601L339.562 98.4001L339.232 98.5401L144.112 98.5701L142.222 98.4201L140.162 98.0301L138.152 97.4401L136.412 96.6901L135.102 95.9101L134.032 94.9901L133.322 94.0201L132.922 92.9301L132.882 91.7201L133.262 89.6701L133.852 87.7901L134.672 86.0801L135.702 84.5401L137.342 82.8201L139.342 81.3801L141.702 80.2201L144.412 79.3401L168.772 72.9601L192.262 66.5201L248.852 50.9401L296.472 37.8901L297.182 37.7001L300.262 37.2001L303.332 37.1401L306.472 37.5201L309.522 38.3101L312.592 39.5601L315.482 41.1901L318.142 43.1701L320.522 45.4701Z" fill="#44ACF1"/>
<path d="M345.879 35.6992L347.009 37.8392L347.859 40.0592L348.629 43.7592L345.879 35.6992Z" fill="#7D7B77" fill-opacity="0.996"/>
<path d="M349.78 49.1501L349.349 47.8601L348.95 46.0401L348.77 44.1602L349.27 45.6701L349.62 47.3901L349.78 49.1501Z" fill="#7D7B77" fill-opacity="0.996"/>
<path d="M350.53 54.1992L350.94 70.9592L350.97 92.9292L350.79 95.6092L350.3 97.4792L350.04 86.6692L350 75.8592L350.16 65.0292L350.53 54.1992Z" fill="#7D7B77" fill-opacity="0.996"/>
<path d="M102.941 80.9389L104.461 80.8889L104.891 80.6889L105.061 80.2589V79.6289L105.371 79.8689L105.491 80.2589L105.481 80.4389L105.221 80.8789L104.721 81.2589L104.201 81.4189L103.581 81.3289L102.941 80.9389Z" fill="#408F50"/>
<path d="M27.77 81.1996L28.04 116.21L27.92 116.86L27.56 117.41L27.01 117.78L26.37 117.91H26.36H1.29001H1.22L0.640015 118.23L0.480011 118.88L0.829987 121.63L0.950012 124.43L0.929993 134.96L0.820007 154.05L0.75 173.68L0.820007 191.45L0.980011 248.83L0.799988 283.29L0.880005 286.9L1.23001 290.38L1.82001 293.65L2.67999 296.84L4.56 301.62L7.12 306.29L9.17999 309.3L11.43 312.09L13.86 314.66L16.47 317.01L18.82 318.81L21.29 320.45L23.9 321.94L26.64 323.26L32.5 325.44L38.89 326.99L34.41 326.25L30.16 325.13L26.11 323.62L22.29 321.72L18.51 319.32L14.97 316.49L11.67 313.23L8.60999 309.55L5.42001 304.71L2.94 299.58L1.42999 295.12L0.809998 292.24L0.369995 288.69L0.100006 284.47L0.019989 279.59L0 117.21L0.0799866 117.01L0.279999 116.93H26.45H26.46L26.88 116.74L27.05 116.31L26.83 98.7996L27.14 81.4296L27.27 81.0996L27.77 81.1996Z" fill="#7D7B77" fill-opacity="0.996"/>
<path d="M61.76 252.839L61.94 241.749L61.87 224.009L61.84 213.109L62.08 92.6488L62.33 92.0488L62.94 91.7988H104.58L105.12 91.9788L105.3 92.5188V289.199L105.16 289.539L104.82 289.689L86.3 289.859L83.9 289.749L81.57 289.439L79.24 288.909L77 288.169L74.86 287.219L72.84 286.089L70.96 284.779L69.22 283.299L67.42 281.429L65.83 279.369L64.47 277.129L63.34 274.729L62.48 272.219L61.88 269.579L61.55 266.919L61.5 264.179L61.76 252.839Z" fill="#44ACF1"/>
<path d="M61.8401 213.111L61.8701 224.011L51.9001 224.061L51.4802 224.201L51.3502 224.601V241.221L51.4901 241.631L51.9102 241.771L61.9402 241.751L61.7602 252.841L51.6101 252.881L51.2302 253.011L51.1101 253.391L51.1002 258.101L51.2101 267.351L51.4901 270.611L51.9502 273.391L53.3301 278.051L54.4402 280.691L55.7802 283.231L57.3502 285.691L59.1501 288.071L59.2002 288.161L59.1602 288.431L58.9102 288.551L56.2202 288.351L53.6801 287.861L51.3001 287.091L49.0801 286.051L46.0901 283.991L43.4301 281.321L41.4502 278.531L40.3802 276.501L39.5501 274.391L38.9001 272.141L38.4001 269.601L37.9001 263.891V255.421L37.9301 253.411L37.8102 253.021L37.4202 252.891H27.8401L27.5402 253.011L27.4102 253.311V266.961L27.6402 269.811L28.0901 272.611L28.7602 275.361L29.6501 278.041L30.7602 280.691L32.0602 283.231L33.5602 285.671L35.2401 287.971L37.0801 290.121L39.0801 292.111L41.2302 293.941L43.5201 295.591L45.9202 297.031L48.4402 298.271L50.9802 299.271L53.6201 300.051L54.1201 300.341L54.2902 300.901V303.651L54.3902 304.361L54.6902 304.871L55.2002 305.191L55.9001 305.311L63.6902 305.571L63.6002 315.771L53.8802 316.041H41.6302L38.7602 315.881L36.0102 315.471L33.3502 314.811L30.8102 313.891L28.4802 312.771L26.2502 311.431L22.7101 308.781L19.6302 305.881L17.0102 302.721L14.8601 299.321L13.1101 295.511L11.8601 291.421L11.1101 287.071L10.8601 282.441L10.6602 130.871L10.8701 130.221L11.4901 130.491L26.6002 143.801L27.1902 144.581L27.3902 145.561V212.161L27.5702 212.581L28.0002 212.761H37.2401L37.6602 212.581L37.8401 212.161V92.5205L37.9502 92.1805L38.3001 92.0605H51.1201L51.3701 92.1405L51.4502 92.3806V211.891L51.6902 212.491L52.2902 212.761L61.8401 213.111ZM38.0313 224.652L37.8748 224.278L37.4995 224.124L27.8596 224.157L27.4854 224.314L27.3315 224.689L27.3889 241.169L27.5454 241.543L27.9207 241.697L37.5608 241.664L37.935 241.507L38.0889 241.132L38.0313 224.652Z" fill="#FA8F3E"/>
<path d="M116.702 95.5699L116.182 96.2599L116.002 96.9299L115.952 193.45L116.102 193.81L116.462 193.96H375.692L376.002 193.65L375.992 129.96L375.722 125.92L375.262 124.18L374.452 122.31L371.502 117.61L370.322 115.88L372.142 117.71L373.592 119.65L375.232 122.94L376.252 126.73L376.752 131.16L376.872 137.66V137.93L376.922 193.42L376.552 194.3L375.672 194.67H116.502L115.622 194.31L115.262 193.44V95.3799L115.602 94.9299L116.092 94.9199L116.702 95.5699Z" fill="#7D7B77" fill-opacity="0.996"/>
<path d="M387.03 126.13L385.53 121.23L383.56 116.77L381.13 112.72L378.229 109.11L376.349 107.22L374.31 105.47L372.12 103.86L369.78 102.4L365.49 100.37L360.81 98.9899L355.74 98.2699L350.27 98.1999L353.979 97.9199L357.56 98.0299L361.02 98.5099L364.359 99.3899L367.89 100.8L371.28 102.67L374.51 105.02L377.59 107.83L379.909 110.4L381.909 113.09L383.609 115.91L385 118.86L386.219 122.41L387.03 126.13Z" fill="#7D7B77" fill-opacity="0.996"/>
<path d="M121.991 99.8799L119.641 98.0898L119.951 98.1398L121.041 98.6998L121.991 99.8799Z" fill="#7D7B77" fill-opacity="0.996"/>
<path d="M128.02 103.97L124 101.42L126.17 102.54L128.02 103.97Z" fill="#7D7B77" fill-opacity="0.996"/>
<path d="M141.91 108.739L138.11 108.239L134.49 107.229L131.56 105.979L128.77 104.369L131.73 105.719L134.76 106.859L138.29 107.929L141.91 108.739Z" fill="#7D7B77" fill-opacity="0.996"/>
<path d="M369.781 115.5L366.43 112.91L362.81 110.9L360.32 109.92L357.73 109.18L361.13 109.79L364.23 110.99L367.17 112.91L369.781 115.5Z" fill="#7D7B77" fill-opacity="0.996"/>
<path d="M387.151 127.459L387.851 128.349L388.641 128.739L388.751 128.759L392.671 129.359L396.441 130.429L400.581 132.239L404.511 134.669L399.261 132.239L396.891 131.229L394.301 130.449L391.501 129.869L388.491 129.519L387.761 129.349L387.281 128.989L387.051 128.349L387.151 127.459Z" fill="#7D7B77" fill-opacity="0.996"/>
<path d="M328.93 130.79L160.01 130.83L159.98 130.37L160.11 130.04L160.45 129.93H328.46L328.78 130.03L328.92 130.34L328.93 130.79Z" fill="#7D7B77" fill-opacity="0.996"/>
<path d="M328.932 130.789L328.902 173.339L328.812 173.599L328.552 173.679L328.282 173.639V173.509L327.762 173.319L318.752 173.119L263.252 173.109L170.752 173.139L164.402 173.239L160.012 173.549V130.829L328.932 130.789ZM318.612 141.159L318.482 140.829L318.152 140.699H170.852L170.522 140.829L170.392 141.159V162.739L170.522 163.069L170.852 163.199H318.152L318.482 163.069L318.612 162.739V141.159Z" fill="black"/>
<path d="M405.212 135.18L404.552 134.74L404.512 134.67L405.032 134.97L405.212 135.18Z" fill="#7D7B77" fill-opacity="0.996"/>
<path d="M406.711 136.08L405.601 135.59L405.211 135.18L406.711 136.08Z" fill="#408F50"/>
<path d="M417.258 149.139L415.418 146.379L413.518 143.549L411.878 141.489L408.738 137.779L411.398 140.199L413.708 142.889L415.668 145.879L417.258 149.139Z" fill="#7D7B77" fill-opacity="0.996"/>
<path d="M387.63 140.02L391.34 140.68L394.93 141.87L398.31 143.56L401.39 145.72L403.99 148.18L406.17 151L407.79 154.01L408.9 157.3L409.36 161.9L409.52 170.62L409.62 355.46L409.48 357.57L409.06 359.4L408.35 360.92L407.36 362.16L407.21 362.3L405.07 363.83L402.67 364.86L400.02 365.4H397.33L394.72 364.87L392.31 363.83L390.32 362.36L388.73 360.44L388.02 359.09L387.52 357.58L387.19 355.72L387.02 350.37L387.03 349.17L387.08 261.28L387 149.43L387.13 140.47L387.28 140.14L387.61 140.02H387.63Z" fill="#44ACF1"/>
<path d="M318.151 140.699H170.851C170.597 140.699 170.391 140.905 170.391 141.159V162.739C170.391 162.993 170.597 163.199 170.851 163.199H318.151C318.405 163.199 318.611 162.993 318.611 162.739V141.159C318.611 140.905 318.405 140.699 318.151 140.699Z" fill="#44ACF1"/>
<path d="M419.44 154.609L419.48 154.679L419.901 155.849L419.951 157.219L419.42 156.399L419.23 155.559L419.44 154.609Z" fill="#408F50"/>
<path d="M422.72 161.799L421.14 161.869L420.31 161.439L420.18 160.709L422.72 161.799Z" fill="#7D7B77" fill-opacity="0.996"/>
<path d="M465.428 193.689L464.418 192.419L462.818 190.149L460.388 186.489L457.608 183.009L454.648 179.769L451.498 176.769L448.168 174.019L444.138 171.169L439.878 168.629L435.368 166.409L430.628 164.499L423.488 161.799L429.978 163.519L436.188 165.949L442.188 169.119L447.788 172.929L452.998 177.359L457.708 182.329L461.868 187.789L465.428 193.689Z" fill="#7D7B77" fill-opacity="0.996"/>
<path d="M421.292 283.74L420.572 284.22L419.992 284.23L419.802 283.68L419.762 172.93L419.992 172.41L420.532 172.24L420.602 172.25L424.752 173.31L428.722 174.66L432.612 176.35L436.302 178.31L439.992 180.69L443.442 183.34L446.712 186.33L449.712 189.56L452.442 193.05L454.872 196.74L457.002 200.63L458.802 204.68L460.272 208.84L461.402 213.13L462.192 217.52L462.622 221.99L462.682 226.44L462.382 230.93L461.722 235.34L460.702 239.75L459.072 244.71L456.992 249.45L454.062 254.56L450.532 259.37L446.402 263.89L441.682 268.11L431.242 276.34L421.292 283.74Z" fill="#EA4841"/>
<path d="M328.282 173.639L328.152 173.659L325.502 173.879L169.752 173.919L164.032 173.829L160.012 173.549L164.402 173.239L170.752 173.139L263.252 173.109L318.752 173.119L327.762 173.319L328.282 173.509V173.639Z" fill="#7D7B77" fill-opacity="0.996"/>
<path d="M467.551 198.24L469.821 203.32L471.471 208.55L472.521 214.12L472.921 219.85L472.081 214.75L471.001 209.71L469.441 203.94L467.551 198.24Z" fill="#EA4841"/>
<path d="M212.549 204.879H147.789L159.919 204.389L167.159 204.189L177.309 204.299L188.499 204.339L201.939 204.219L207.599 204.449L212.549 204.879Z" fill="#408F50"/>
<path d="M376.629 357.15L376.159 356.07L376.009 355.15L376.039 205.33L375.909 205.01L375.589 204.88L356.039 204.9L375.639 204.24H375.659L376.509 204.58L376.869 205.44L376.629 357.15Z" fill="#44ACF1"/>
<path d="M116.279 204.87L116.129 205.07L116.019 205.4L115.949 364.93L116.319 368.42L117.459 373.08L116.539 370.91L115.929 367.86L115.359 358.93V205.17L115.489 204.73L115.899 204.51L116.179 204.54L116.279 204.87Z" fill="#7D7B77" fill-opacity="0.996"/>
<path d="M285.96 220.869L232.6 220.849H232.56L231.9 221.159L231.67 221.859L232.42 230.909L231.62 230.929L231.14 230.679L231 230.209L231.11 221.799L231.27 221.079L231.69 220.479L232.31 220.079L233.03 219.939H285.33L285.78 220.089L285.95 220.529L285.96 220.869Z" fill="#7D7B77" fill-opacity="0.996"/>
<path d="M358.16 230.809L358.45 221.719L358.24 221.059L357.57 220.829H301.55L301.23 220.929L301.12 221.229L300.59 231.249L299.91 226.299L299.99 221.799L300.21 221.069L300.68 220.469L301.32 220.079L302.07 219.939H358.49L358.84 220.059L358.96 220.419V230.439L358.84 230.749L358.54 230.899L358.27 230.859L358.16 230.809Z" fill="#7D7B77" fill-opacity="0.996"/>
<path d="M358.16 230.81L357.94 230.94L357.87 230.97L357.81 230.98L300.59 231.25L301.12 221.23L301.23 220.93L301.55 220.83H357.57L358.24 221.06L358.45 221.72L358.16 230.81Z" fill="black"/>
<path d="M285.962 220.87L285.982 230.59L285.932 230.77L285.662 230.91H232.422L231.672 221.86L231.902 221.16L232.562 220.85H232.602L285.962 220.87Z" fill="black"/>
<path d="M177.768 240.429L174.098 239.569L170.608 239.249L167.308 239.459L164.198 240.219L161.378 241.459L158.728 243.199L156.258 245.429L153.948 248.159L151.608 252.139L150.718 251.649L147.798 249.909L144.978 247.989L142.268 245.889L139.648 243.609L139.388 243.219L139.328 242.809L139.458 240.679L141.198 238.289L143.058 236.059L145.058 233.989L147.178 232.099L149.408 230.379L151.748 228.839L154.198 227.489L156.748 226.329L159.968 225.189L163.328 224.349L166.698 223.829L170.168 223.619L175.688 223.909L178.368 224.349L180.998 224.979L184.828 226.299L188.538 228.049L192.128 230.229L195.598 232.859L195.998 233.309L196.148 233.769L196.048 234.249L195.678 234.739L186.998 243.419L186.008 243.969L184.908 243.779L177.768 240.429Z" fill="#EA4841"/>
<path d="M61.8677 224.01L61.9377 241.75L51.9077 241.77L51.4877 241.63L51.3477 241.22V224.6L51.4777 224.2L51.8977 224.06L61.8677 224.01Z" fill="black"/>
<path d="M37.5 224.123L27.8601 224.156C27.5674 224.157 27.3309 224.395 27.332 224.688L27.3895 241.168C27.3905 241.461 27.6286 241.697 27.9213 241.696L37.5613 241.663C37.854 241.662 38.0904 241.423 38.0894 241.131L38.0319 224.651C38.0309 224.358 37.7927 224.122 37.5 224.123Z" fill="black"/>
<path d="M472.968 230.641L472.688 234.491L472.018 238.501L470.968 242.661L469.538 246.981L466.918 253.221L463.818 259.021L460.248 264.391L456.188 269.321L451.248 274.181L440.518 282.971L424.488 295.111L431.958 288.851L440.798 282.021L444.818 278.861L448.808 275.411L452.758 271.671L456.668 267.641L460.728 262.721L464.288 257.231L467.338 251.171L469.868 244.531L470.718 241.481L471.528 237.631L472.498 232.751L472.968 230.641Z" fill="#7D7B77" fill-opacity="0.996"/>
<path d="M177.769 240.43L174.329 239.89L171.029 239.78L167.859 240.09L164.829 240.82L161.899 242L159.109 243.62L156.459 245.67L153.949 248.16L156.259 245.43L158.729 243.2L161.379 241.46L164.199 240.22L167.309 239.46L170.609 239.25L174.099 239.57L177.769 240.43Z" fill="#FA8F3E"/>
<path d="M139.461 240.68L139.331 242.81L139.391 243.22L139.651 243.61L142.271 245.89L144.981 247.99L147.801 249.91L150.721 251.65L151.611 252.14L150.511 258.38L150.121 262.12L150.211 263.82L150.521 265.64L151.781 269.58L150.551 270.37L147.471 272.57L144.541 275L141.761 277.65L139.121 280.52L137.591 278.23L136.321 275.83L135.251 273.09L134.481 270.21L133.881 266.31L133.621 262.16L133.751 257.95L134.231 253.92L135.071 250.1L136.211 246.64L137.711 243.43L139.461 240.68Z" fill="#FA8F3E"/>
<path d="M232.478 244.13L232.468 244.4L232.208 244.73L232.008 245.08L231.948 245.46V253.56L232.208 254.18L232.828 254.41H232.868L238.228 254.04L294.708 254.12L357.068 254.23L357.628 254.15L358.018 253.92L358.258 253.52L358.338 252.97V245.76L357.968 244.85L357.058 244.46L338.938 244.02L358.518 243.98L358.888 244.1L359.008 244.46V254.42L358.888 254.8L358.508 254.92H231.488L231.108 254.79L230.988 254.43V244.49L231.098 244.12L231.458 243.93L232.248 244L232.478 244.13Z" fill="#7D7B77" fill-opacity="0.996"/>
<path d="M266.079 244.049L258.969 244.359L245.729 244.599L232.469 244.399L232.479 244.129L266.079 244.049Z" fill="#408F50"/>
<path d="M338.939 244.02L357.059 244.46L357.969 244.85L358.339 245.76V252.97L358.259 253.52L358.019 253.92L357.629 254.15L357.069 254.23L294.709 254.12L238.229 254.04L232.869 254.41H232.829L232.209 254.18L231.949 253.56V245.46L232.009 245.08L232.209 244.73L232.469 244.4L245.729 244.6L258.969 244.36L266.079 244.05L338.939 244.02Z" fill="black"/>
<path d="M194.422 289.059L191.582 286.149L188.662 283.509L185.672 281.119L182.592 278.989L184.412 277.749L186.262 276.109L187.912 274.209L189.352 272.039L190.592 269.609L190.632 269.189L190.342 268.899L188.402 268.169L186.512 267.929H171.292L170.382 267.549L170.012 266.639V254.459L170.162 254.109L170.512 253.959H204.202L204.892 254.089L205.482 254.479L205.892 255.059L206.052 255.749L206.122 264.669L205.922 267.889L205.432 270.989L204.672 273.959L203.622 276.819L201.952 280.149L199.862 283.299L197.352 286.269L194.422 289.059Z" fill="#44ACF1"/>
<path d="M232.32 267.92L231.76 272.4L231.9 277.09L232.26 277.79L232.99 278.07H357.14L358.05 277.69L358.43 276.78V269.2L358.1 268.38L357.29 268.04L349.54 267.95L358.52 268.01L358.87 268.13L358.99 268.48V278.44L358.87 278.81L358.5 278.93H231.5L231.12 278.8L231 278.44V268.61L231.13 268.18L231.55 267.96L232.32 267.92Z" fill="#7D7B77" fill-opacity="0.996"/>
<path d="M349.542 267.95L357.292 268.04L358.102 268.38L358.432 269.2V276.78L358.052 277.69L357.142 278.07H232.992L232.262 277.79L231.902 277.09L231.762 272.4L232.322 267.92L349.542 267.95Z" fill="black"/>
<path d="M151.781 269.58L153.211 271.88L154.821 273.94L156.591 275.78L158.541 277.39L160.391 278.61L162.371 279.66L164.491 280.52L166.741 281.21L170.371 281.84L173.931 281.82L176.131 281.49L178.311 280.91L180.461 280.07L182.591 278.99L185.671 281.12L188.661 283.51L191.581 286.15L194.421 289.06L192.301 290.78L189.721 292.21L183.191 294.89L179.531 296.05L171.281 297.41L169.011 297.37L167.941 297.54L165.721 297.42L163.651 296.9L163.571 296.87L156.231 294.46L154.271 293.75L153.061 292.9L143.211 285.41L139.121 280.52L141.761 277.65L144.541 275L147.471 272.57L150.551 270.37L151.781 269.58Z" fill="#408F50"/>
<path d="M153.061 292.9L150.331 291.45L147.801 289.74L145.401 287.71L143.211 285.41L153.061 292.9Z" fill="#7D7B77" fill-opacity="0.996"/>
<path d="M232.642 291.939L232.102 293.939L231.802 296.199L231.742 298.729L231.922 301.509L232.182 301.999L232.692 302.189L284.992 302.079L285.602 301.899L285.922 301.469L285.952 302.379L285.742 302.789L285.302 302.929H231.502L231.152 302.789L231.012 302.439V292.629L231.132 292.219L231.492 292.009L232.642 291.939Z" fill="#7D7B77" fill-opacity="0.996"/>
<path d="M285.918 301.469L285.598 301.899L284.988 302.079L232.688 302.189L232.178 301.999L231.918 301.509L231.738 298.729L231.798 296.199L232.098 293.939L232.638 291.939L285.258 291.879L285.758 292.049L285.928 292.549L285.918 301.469Z" fill="black"/>
<path d="M301.111 291.98L301.021 302.2L300.301 301.76L300.291 301.75L300.031 301.02V292.54L300.161 292.12L300.571 291.92H300.581L301.111 291.98Z" fill="#7D7B77" fill-opacity="0.996"/>
<path d="M301.972 292.259L316.372 292.579L330.742 292.329L336.132 292.089L358.282 291.959L358.652 300.999V301.019L358.352 301.769L357.612 302.079L305.252 302.129L303.592 302.279L301.502 302.889L301.012 302.299L301.022 302.199L301.112 291.979L301.992 292.109L301.972 292.259Z" fill="black"/>
<path d="M336.129 292.09L330.739 292.33L316.369 292.58L301.969 292.26L336.129 292.09Z" fill="#408F50"/>
<path d="M301.5 302.889L303.59 302.279L305.25 302.129L357.61 302.079L358.35 301.769L358.65 301.019V300.999L358.28 291.959L358.74 294.379L359.01 296.929L358.94 302.379L358.78 302.759L358.4 302.879L301.5 302.889Z" fill="#7D7B77" fill-opacity="0.996"/>
<path d="M189.721 292.209L187.031 293.769L184.231 295.069L181.471 296.059L178.631 296.809L175.681 297.329L172.641 297.609L171.281 297.409L179.531 296.049L183.191 294.889L189.721 292.209Z" fill="#7D7B77" fill-opacity="0.996"/>
<path d="M63.6006 315.769L63.6906 305.569L63.7306 294.709L63.7506 294.579L64.0406 294.279L64.4506 294.339L68.5106 296.759L72.7706 298.589L77.6906 299.889L82.8506 300.469L93.0606 300.629L104.561 300.319L104.971 300.469L105.151 300.869V300.879V313.549L104.951 314.039L104.471 314.239H76.7506L76.4106 314.349L76.3006 314.679V324.249L76.5306 324.789L77.0706 325.019H104.831L105.161 325.159L105.291 325.489V339.619L105.281 339.679L105.101 339.809H63.9506L63.5506 339.649L63.3906 339.249L63.6006 315.769Z" fill="#177F6F"/>
<path d="M163.57 296.869L161.39 296.559L158.76 295.749L156.23 294.459L163.57 296.869Z" fill="#44ACF1"/>
<path d="M422.75 296.709L420.41 299.269L420.42 298.659L420.65 298.099L421.12 297.589L422.75 296.709Z" fill="#7D7B77" fill-opacity="0.996"/>
<path d="M171.281 297.409L172.641 297.609L172.091 297.709L170.051 297.819L167.941 297.539L169.011 297.369L171.281 297.409Z" fill="#44ACF1"/>
<path d="M180.47 316.229L180.49 316.959L180.98 318.139L180.92 325.499L180.61 326.039L180.1 326.349L179.37 326.449L132.06 325.949L132.02 324.639L132.26 324.019L132.5 320.919L132.17 318.659L132.02 317.919L132.03 316.539L132.21 316.169L132.61 316.039L180.47 316.229Z" fill="black"/>
<path d="M285.421 315.93L285.531 324.86L285.231 325.79L284.311 326.1H195.641L194.981 325.82L194.711 325.16L194.791 316.21L285.421 315.93Z" fill="black"/>
<path d="M194.792 316.21L194.712 325.16L194.982 325.82L195.642 326.1H284.312L285.232 325.79L285.532 324.86L285.422 315.93L285.932 326.44L285.832 326.81L285.472 326.93H196.172L195.342 326.77L194.642 326.3L194.172 325.6L194.012 324.77V316.77L194.142 316.41L194.602 316.11L194.792 316.21Z" fill="#7D7B77" fill-opacity="0.996"/>
<path d="M301.278 315.93L300.918 324.87L301.228 325.72L302.048 326.09H302.068L356.738 326.3L357.768 326.15L358.458 325.7L358.748 325.17L358.848 324.47H358.948L358.918 326.46L358.788 326.81L358.458 326.92H300.488L300.118 326.8L299.988 326.42V316.62L300.118 316.18L300.548 315.95L301.278 315.93Z" fill="#7D7B77" fill-opacity="0.996"/>
<path d="M350.962 316.05L357.242 316.11L357.872 316.14L358.352 316.37L358.682 316.82L358.842 317.5L358.872 321.39L358.852 324.47L358.752 325.17L358.462 325.7L357.772 326.15L356.742 326.3L302.072 326.09H302.052L301.232 325.72L300.922 324.87L301.282 315.93L350.962 316.05Z" fill="black"/>
<path d="M358.841 317.499L358.681 316.819L358.351 316.369L357.871 316.139L357.241 316.109L350.961 316.049L358.371 315.959L358.811 316.099L359.001 316.499L358.841 317.499Z" fill="#408F50"/>
<path d="M180.979 318.141L180.489 316.961L180.469 316.23L180.869 316.31L181.129 316.93L180.979 318.141Z" fill="#7D7B77" fill-opacity="0.996"/>
<path d="M132.259 324.02L131.969 321.39L132.169 318.66L132.499 320.92L132.259 324.02Z" fill="#408F50"/>
<path d="M358.872 321.391L358.952 324.471H358.852L358.872 321.391Z" fill="#408F50"/>
<path d="M180.919 325.5L180.899 326.33L180.619 326.79L180.129 326.93H132.599L132.199 326.81L131.989 326.49L131.969 326.12L132.059 325.95L179.369 326.45L180.099 326.35L180.609 326.04L180.919 325.5Z" fill="#7D7B77" fill-opacity="0.996"/>
<path d="M50.3897 327.209L49.0497 327.629L47.1897 327.949L45.2597 327.989L43.2497 327.739L41.1797 327.209H50.3897Z" fill="#7D7B77" fill-opacity="0.996"/>
<path d="M419.94 335.219L420.1 368.689L419.961 371.369L419.3 374.959L418.081 378.489L416.3 381.949L413.98 385.359L416.031 381.399L418.3 376.239L418.961 374.099L419.23 372.029L419.43 369.569L419.651 366.139L419.56 355.949L419.94 335.219Z" fill="#408F50"/>
<path d="M156.26 339.479L148.41 339.899L141.62 339.839L134.82 339.389L140.81 338.939L146.8 338.859L151.53 339.059L156.26 339.479Z" fill="#7D7B77" fill-opacity="0.996"/>
<path d="M285.331 339.749L279.641 339.679L280.971 339.179L282.191 338.939H283.321L284.351 339.199L285.331 339.749Z" fill="#7D7B77" fill-opacity="0.996"/>
<path d="M340.222 339.529L322.762 339.51L327.082 339.149L331.402 339.02L335.812 339.149L340.222 339.529Z" fill="#7D7B77" fill-opacity="0.996"/>
<path d="M133.931 339.559L133.221 339.849L132.951 340.049L132.651 340.449L132.551 340.949V348.799L132.661 349.339L132.971 349.799L133.421 350.099L133.961 350.199L285.691 349.999L285.901 349.719L285.921 350.259L285.771 350.759L285.271 350.929H134.271L133.411 350.759L132.691 350.269L132.201 349.549L132.031 348.689V341.049L132.121 340.539L132.281 340.219L132.971 339.399L133.531 339.199L133.931 339.559Z" fill="#7D7B77" fill-opacity="0.996"/>
<path d="M301.381 339.71L300.541 349.93L299.811 345.05L299.801 343.08L300.041 341.43L300.541 339.84L301.011 339.32L301.381 339.71Z" fill="#7D7B77" fill-opacity="0.996"/>
<path d="M105.101 350.599L53.6608 350.939L53.2408 350.769L53.0708 350.349L53.0508 339.449L53.4308 343.989L53.0908 348.679L53.1208 349.209L53.3608 349.669L53.7708 350.009L54.2708 350.149H54.3808L79.7208 350.019L105.101 350.599Z" fill="#7D7B77" fill-opacity="0.996"/>
<path d="M170.801 339.601L180.441 339.551L279.641 339.681L285.331 339.751L285.631 340.241L285.961 341.681L285.951 348.711L285.691 350.001L133.961 350.201L133.421 350.101L132.971 349.801L132.661 349.341L132.551 348.801V340.951L132.651 340.451L132.951 340.051L133.221 339.851L133.931 339.561L134.741 339.681L134.821 339.391L141.621 339.841L148.411 339.901L156.261 339.481L170.801 339.601Z" fill="black"/>
<path d="M322.759 339.51L340.219 339.53L349.309 339.88L358.439 340.02L358.779 340.13L358.919 340.44L358.869 340.96L358.739 348.49L358.609 349.12L358.249 349.65L357.719 350L357.089 350.13L302.959 350.4L300.539 349.93L301.379 339.71L322.759 339.51Z" fill="black"/>
<path d="M358.871 340.959L358.921 348.879L358.771 349.649L358.341 350.299L357.691 350.739L356.921 350.899H304.771L302.961 350.399L357.091 350.129L357.721 349.999L358.251 349.649L358.611 349.119L358.741 348.489L358.871 340.959Z" fill="#7D7B77" fill-opacity="0.996"/>
<path d="M285.951 348.709L285.901 349.719L285.691 349.999L285.951 348.709Z" fill="#408F50"/>
<path d="M390.539 374.731L390.519 375.011L387.719 373.711L385.219 372.161L383.039 370.371L381.159 368.331L379.579 366.031L378.319 363.481L377.359 360.691L376.719 357.641L377.259 358.821L377.499 359.641L378.109 361.751L378.899 363.751L379.869 365.611L380.999 367.351L382.909 369.611L385.149 371.601L387.699 373.311L390.539 374.731Z" fill="#44ACF1"/>
<path d="M358.689 364.061L358.649 373.161L358.399 373.781L357.779 374.031H133.319L132.849 373.891L132.569 373.581L132.469 373.181V364.961L132.599 364.221L358.689 364.061Z" fill="black"/>
<path d="M132.102 364.391L132.472 364.961V373.181L132.712 373.771L133.292 374.031H133.322H357.782L358.402 373.781L358.652 373.161L358.692 364.061L358.802 374.401L358.672 374.801L358.282 374.931H134.472L133.462 374.791L132.742 374.351L132.302 373.631L132.152 372.621L132.102 364.391Z" fill="#7D7B77" fill-opacity="0.996"/>
<path d="M132.602 364.219L132.472 364.959L132.102 364.389L132.372 364.199L132.602 364.219Z" fill="#408F50"/>
<path d="M105.529 370.909L105.159 369.449L105.109 367.859L105.449 368.699L105.619 369.759L105.529 370.909Z" fill="#7D7B77" fill-opacity="0.996"/>
<path d="M106.641 375.13L106.151 374L105.781 371.83L106.291 373L106.581 374.21L106.641 375.13Z" fill="#7D7B77" fill-opacity="0.996"/>
<path d="M118.479 375.22L117.829 374.37L117.699 373.66L117.919 373.91L118.479 375.22Z" fill="#408F50"/>
<path d="M402.07 376.24L400.02 376.84L398.45 376.97L396.719 376.831L394.799 376.4L392.24 375.581L390.52 375.01L390.539 374.73L393.21 375.61L396.02 376.15L398.979 376.36L402.07 376.24Z" fill="#7D7B77" fill-opacity="0.996"/>
<path d="M397.109 386.819L399.929 384.589L402.329 382.259L404.309 379.839L405.879 377.309L406.009 376.449L405.679 376.099L405.049 375.879L405.849 375.179L406.689 374.869L406.799 374.859L407.249 375.039L407.379 375.499L407.339 375.629L405.569 378.929L403.399 381.889L400.979 384.389L398.189 386.579L397.759 386.779L397.109 386.819Z" fill="#7D7B77" fill-opacity="0.996"/>
<path d="M111.559 384.74L109.819 382.419L108.399 379.94L107.489 377.779L106.789 375.52L111.559 384.74Z" fill="#7D7B77" fill-opacity="0.996"/>
<path d="M131.952 387.599L128.032 385.559L124.582 382.989L121.562 379.869L119.012 376.199L121.712 379.329L124.652 382.199L128.162 385.059L131.952 387.599Z" fill="#7D7B77" fill-opacity="0.996"/>
<path d="M413.978 385.359L411.838 388.439L409.478 391.199L406.898 393.609L404.098 395.699L401.108 397.439L397.898 398.849L394.468 399.929L390.828 400.689L394.228 399.699L397.468 398.469L400.538 396.989L403.458 395.269L406.358 393.189L409.068 390.849L411.608 388.239L413.978 385.359Z" fill="#7D7B77" fill-opacity="0.996"/>
<path d="M397.111 386.82L397.161 387.15L396.721 387.48L395.691 387.63L397.111 386.82Z" fill="#408F50"/>
<path d="M305.052 390.04L267.002 390.47L228.962 390.65H227.752L142.762 390.85L141.022 390.74L139.222 390.37L137.352 389.76L135.422 388.9L139.342 389.67L142.502 389.92L305.052 390.04Z" fill="#7D7B77" fill-opacity="0.996"/>
<path d="M119.62 395.22L118.52 392.18L119.24 392.61L119.71 393.65L119.62 395.22Z" fill="#7D7B77" fill-opacity="0.996"/>
<path d="M128.571 414.41L125.741 410.71L123.421 406.75L122.201 404.09L121.191 401.33L120.381 398.47L119.781 395.5L123.151 404.79L125.271 408.9L128.571 414.41Z" fill="#7D7B77" fill-opacity="0.996"/>
<path d="M132.189 399.17L135.699 400L140.059 400.63L144.499 400.84L236.549 400.76L237.359 400.97L236.809 401.59L224.359 409.74L211.109 418.03L205.529 421.14L199.739 423.75L193.929 425.77L187.989 427.23L182.099 428.08L176.359 428.32L170.589 427.96L165.029 427L160.409 425.72L156.069 424.07L151.919 422L148.069 419.56L145.569 417.66L143.219 415.58L140.999 413.34L138.919 410.94L136.949 408.33L135.119 405.56L131.879 399.54L131.889 399.29L132.099 399.16L132.189 399.17Z" fill="#EA4841"/>
<path d="M191.82 437.23L187.64 438.11L183.26 438.73L178.84 439.06L174.37 439.11L170.09 438.87L165.9 438.34L161.99 437.55L158.27 436.47L154.65 435.13L151.14 433.6L147.83 431.93L144.64 430.07L141.66 428.08L138.81 425.91L136.17 423.61L133.66 421.13L131.24 418.4L128.97 415.46L128.57 414.41L132.56 419.38L135.05 422.12L139.75 426.14L144.67 429.6L149.8 432.48L155.14 434.79L161.19 436.66L167.49 437.85L174.05 438.36L180.86 438.2L191.82 437.23Z" fill="#7D7B77" fill-opacity="0.996"/>
<path d="M230.268 418.23L225.988 420.92L227.268 419.82L228.668 418.93L230.268 418.23Z" fill="#408F50"/>
<path d="M225.991 420.92L225.761 421.18L225.051 421.73L224.201 422.13L224.121 421.85L224.351 421.65L225.101 421.19L225.991 420.92Z" fill="#408F50"/>
<path d="M224.12 421.85L224.2 422.13L219.25 425.4L214.04 428.47L208.56 431.34L202.83 434.02L197.22 436.07L194.5 436.76L191.82 437.23L201.86 433.67L206.79 431.63L211.51 429.21L224.12 421.85Z" fill="#7D7B77" fill-opacity="0.996"/>
</svg>
