<svg width="200" height="200" viewBox="0 0 200 200" fill="none" xmlns="http://www.w3.org/2000/svg">
<rect width="200" height="200" fill="white"/>
<path d="M146.782 86.3079C146.782 94.5002 138.908 101.139 129.195 101.139C119.483 101.139 111.609 94.5002 111.609 86.3079C111.609 78.1167 119.483 71.4766 129.195 71.4766C138.908 71.4766 146.782 78.1169 146.782 86.3079Z" fill="#333333"/>
<path d="M28.1604 155.325C30.838 155.335 32.576 155.877 34.1243 156.682C35.2822 157.294 36.3392 158.1 37.4629 159.061C39.1487 160.486 40.9563 162.295 43.4838 163.817C44.7451 164.571 46.188 165.236 47.8293 165.696C49.4705 166.159 51.3009 166.412 53.3373 166.412C56.9551 166.424 59.9366 165.579 62.3226 164.305C64.1158 163.358 65.5654 162.215 66.839 161.128C68.7491 159.484 70.2888 158.005 71.9795 157.005C72.8267 156.5 73.7111 156.095 74.7548 155.801C75.7987 155.509 77.0107 155.325 78.515 155.325C81.1916 155.335 82.9299 155.877 84.478 156.682C85.6358 157.294 86.6929 158.1 87.8175 159.061C89.5026 160.486 91.31 162.295 93.8375 163.817C95.0998 164.571 96.5426 165.236 98.1829 165.696C99.8242 166.158 101.655 166.412 103.692 166.412C107.308 166.423 110.29 165.579 112.677 164.304C114.469 163.357 115.92 162.215 117.194 161.128C119.104 159.484 120.643 158.005 122.334 157.005C123.181 156.5 124.066 156.095 125.109 155.801C126.153 155.509 127.366 155.325 128.87 155.325C131.547 155.335 133.286 155.877 134.835 156.682C135.992 157.294 137.05 158.1 138.174 159.06C139.861 160.486 141.668 162.295 144.197 163.817C145.458 164.571 146.901 165.236 148.542 165.696C150.184 166.158 152.014 166.412 154.05 166.412C157.668 166.423 160.652 165.579 163.038 164.304C164.83 163.357 166.281 162.215 167.554 161.128C169.464 159.484 171.005 158.005 172.695 157.005C173.543 156.499 174.427 156.095 175.471 155.8C176.515 155.509 177.728 155.324 179.232 155.324C181.019 155.324 182.466 153.877 182.466 152.09C182.466 150.304 181.019 148.856 179.232 148.856C175.615 148.845 172.633 149.69 170.246 150.964C168.452 151.912 167.002 153.054 165.728 154.14C163.818 155.785 162.278 157.265 160.587 158.264C159.74 158.769 158.855 159.174 157.811 159.467C156.768 159.76 155.556 159.944 154.05 159.944C151.374 159.934 149.634 159.392 148.086 158.587C146.927 157.975 145.87 157.169 144.746 156.208C143.059 154.784 141.252 152.974 138.725 151.452C137.462 150.697 136.019 150.033 134.378 149.574C132.736 149.112 130.906 148.856 128.869 148.856C125.252 148.845 122.269 149.69 119.884 150.963C118.091 151.911 116.64 153.054 115.367 154.14C113.457 155.785 111.917 157.265 110.226 158.264C109.379 158.769 108.495 159.174 107.452 159.467C106.407 159.76 105.195 159.944 103.692 159.944C101.014 159.933 99.276 159.392 97.7278 158.587C96.571 157.975 95.5129 157.169 94.3883 156.208C92.7032 154.783 90.8959 152.974 88.3684 151.452C87.107 150.696 85.6642 150.032 84.0229 149.574C82.3816 149.111 80.5513 148.856 78.5148 148.856C74.8979 148.845 71.9155 149.69 69.5287 150.963C67.7364 151.911 66.2861 153.054 65.0122 154.139C63.1021 155.785 61.5623 157.264 59.8719 158.263C59.0247 158.769 58.1403 159.173 57.0974 159.467C56.0535 159.759 54.8415 159.944 53.3371 159.944C50.6605 159.933 48.9223 159.392 47.3742 158.586C46.2163 157.975 45.1591 157.168 44.0354 156.208C42.3486 154.783 40.5412 152.974 38.0135 151.451C36.7522 150.696 35.3095 150.032 33.6681 149.574C32.0276 149.111 30.1964 148.855 28.16 148.855C26.3734 148.855 24.9258 150.303 24.9258 152.09C24.9264 153.878 26.3738 155.325 28.1604 155.325Z" fill="#333333"/>
<path d="M28.1604 176.208C30.838 176.219 32.576 176.758 34.1243 177.565C35.2822 178.177 36.3392 178.982 37.4629 179.942C39.1487 181.369 40.9563 183.178 43.4838 184.7C44.7451 185.456 46.188 186.119 47.8293 186.577C49.4705 187.04 51.3009 187.296 53.3373 187.296C56.9551 187.307 59.9366 186.461 62.3226 185.188C64.1158 184.241 65.5654 183.096 66.839 182.01C68.7491 180.368 70.2888 178.887 71.9795 177.887C72.8267 177.381 73.7111 176.977 74.7548 176.683C75.7987 176.391 77.0107 176.208 78.515 176.208C81.1916 176.219 82.9299 176.758 84.478 177.566C85.6358 178.177 86.6929 178.982 87.8175 179.942C89.5026 181.37 91.31 183.178 93.8375 184.7C95.0998 185.456 96.5426 186.12 98.1829 186.578C99.8242 187.04 101.655 187.297 103.692 187.297C107.308 187.307 110.29 186.461 112.677 185.188C114.469 184.241 115.92 183.097 117.194 182.01C119.104 180.368 120.643 178.887 122.334 177.887C123.181 177.382 124.066 176.977 125.109 176.683C126.153 176.391 127.366 176.209 128.87 176.207C131.547 176.219 133.286 176.759 134.835 177.566C135.992 178.177 137.05 178.982 138.174 179.944C139.861 181.37 141.668 183.178 144.197 184.7C145.458 185.456 146.901 186.12 148.542 186.578C150.184 187.04 152.014 187.297 154.05 187.297C157.668 187.307 160.652 186.461 163.038 185.188C164.83 184.241 166.281 183.097 167.554 182.012C169.464 180.368 171.005 178.887 172.695 177.887C173.543 177.382 174.427 176.977 175.471 176.684C176.515 176.391 177.728 176.209 179.232 176.209C181.019 176.209 182.466 174.759 182.466 172.975C182.466 171.188 181.019 169.74 179.232 169.74C175.615 169.728 172.633 170.574 170.246 171.847C168.452 172.794 167.002 173.939 165.728 175.023C163.818 176.666 162.278 178.148 160.587 179.148C159.74 179.654 158.855 180.057 157.811 180.352C156.768 180.645 155.556 180.827 154.05 180.827C151.374 180.815 149.634 180.276 148.086 179.469C146.927 178.858 145.87 178.053 144.746 177.091C143.059 175.665 141.252 173.857 138.725 172.335C137.462 171.579 136.019 170.916 134.378 170.456C132.736 169.995 130.906 169.738 128.869 169.738C125.252 169.728 122.269 170.574 119.884 171.847C118.091 172.794 116.64 173.939 115.367 175.025C113.457 176.666 111.917 178.148 110.226 179.148C109.379 179.653 108.495 180.057 107.452 180.352C106.407 180.645 105.195 180.826 103.692 180.826C101.014 180.815 99.276 180.275 97.7278 179.469C96.571 178.857 95.5129 178.053 94.3883 177.093C92.7032 175.665 90.8959 173.857 88.3684 172.335C87.107 171.579 85.6642 170.916 84.0229 170.456C82.3816 169.995 80.5513 169.738 78.5148 169.738C74.8979 169.728 71.9155 170.574 69.5287 171.847C67.7364 172.794 66.2861 173.939 65.0122 175.025C63.1021 176.666 61.5623 178.148 59.8719 179.148C59.0247 179.653 58.1403 180.057 57.0974 180.352C56.0535 180.645 54.8415 180.826 53.3371 180.826C50.6605 180.815 48.9223 180.275 47.3742 179.469C46.2163 178.857 45.1591 178.053 44.0354 177.093C42.3486 175.665 40.5412 173.857 38.0135 172.335C36.7522 171.579 35.3095 170.916 33.6681 170.456C32.0276 169.995 30.1964 169.738 28.16 169.738C26.3734 169.738 24.9258 171.188 24.9258 172.974C24.9264 174.759 26.3738 176.208 28.1604 176.208Z" fill="#333333"/>
<path d="M175.662 36.759C175.217 36.3259 174.624 35.7979 173.735 35.379C172.869 34.9527 171.557 34.7484 170.287 35.2319C167.73 36.176 165.913 38.7501 163.362 40.6848C162.093 41.6459 160.605 42.3243 159.013 42.062C157.419 41.8294 155.742 40.7531 154.207 39.3647C152.602 37.8831 150.893 36.2322 149.032 34.5633C147.157 32.901 145.119 31.1468 142.585 29.6916C141.32 28.9715 139.916 28.3437 138.393 27.9364C136.87 27.5233 135.243 27.3436 133.617 27.4026C130.35 27.5223 127.183 28.512 124.161 29.8055C121.131 31.1145 118.193 32.7538 115.265 34.5613C113.802 35.4665 112.341 36.4173 110.878 37.405C109.373 38.4337 108.083 39.3465 106.608 40.0768C105.161 40.8101 103.643 41.3485 102.12 41.5508C100.598 41.756 99.0799 41.6097 97.5925 41.0921C94.5967 40.0654 91.7976 37.6205 89.1126 34.8773C86.4123 32.1144 83.7557 28.9941 80.7731 25.9396C77.7973 22.8868 74.4729 19.8541 70.5094 17.3988C66.5705 14.9358 61.9468 13.154 57.0779 12.5281C54.6474 12.2023 52.1721 12.1453 49.7149 12.3182C47.254 12.4939 44.8204 12.8662 42.3709 13.4722C37.4954 14.6842 32.6427 16.9401 28.5889 20.4259C24.5218 23.8824 21.3759 28.5174 19.4924 33.616C17.5937 38.7221 16.8918 44.2484 17.173 49.721C17.4522 55.2033 18.7088 60.6536 20.752 65.8367C24.8496 76.2193 32.1223 85.4932 41.5711 92.33C46.3268 95.6657 51.2441 98.3956 56.2629 101.107C58.7742 102.451 61.3111 103.761 63.8775 105.046L65.8104 106.004L66.7888 106.482C66.9161 106.538 66.6804 106.439 67.1107 106.627L67.2343 106.678L67.4831 106.777L67.9798 106.976L71.9625 108.576L75.1491 109.853C75.4255 112.538 76.3401 118.714 79.3037 126.539C85.1583 142.001 95.1247 144.078 95.1247 144.078C95.1247 144.078 98.5516 144.971 102.862 139.267C107.171 133.564 107.171 133.564 107.171 133.564C107.171 133.564 106.112 142.323 105.31 153.316C105.441 153.29 105.583 153.274 105.705 153.24C106.122 153.122 106.486 152.962 106.91 152.71C107.749 152.213 108.766 151.32 109.945 150.285C110.332 149.946 110.73 149.595 111.145 149.238C112.55 148.039 114.449 146.519 116.859 145.246C120.401 143.354 124.427 142.389 128.798 142.389C131.423 142.389 133.867 142.712 136.127 143.348C138.173 143.921 140.166 144.78 142.04 145.899C144.505 147.386 146.346 149.011 147.826 150.317C148.201 150.647 148.562 150.967 148.918 151.268C149.883 152.092 150.529 152.564 151.103 152.867C151.605 153.128 152.233 153.397 153.523 153.461L153.154 145.852L153.263 145.921C157.005 147.817 162.446 148.035 165.738 146.095C170.581 142.882 170.858 138.577 170.268 135.582C169.856 133.496 168.241 131.068 167.072 129.518C164.453 126.049 159.9 119.718 157.857 115.083C154.901 108.376 147.39 105.467 138.11 105.616C133.951 105.472 124.482 105.417 120.98 105.548C115.364 105.387 110.533 106.332 106.863 108.409L136.36 120.067C137.255 119.889 138.224 119.789 139.288 119.821C146.083 120.027 148.245 123.218 151.333 125.175C144.127 122.086 138.192 120.921 135.587 126.967C132.53 125.751 89.1824 108.484 89.1824 108.484C88.867 106.211 87.5791 101.232 82.3114 101.138C79.6245 101.092 77.9356 102.208 76.8613 103.576L74.3566 102.579L70.3673 100.996L69.5781 100.681L68.6319 100.224L66.738 99.2964C64.2171 98.0483 61.721 96.7727 59.2629 95.4714C54.3666 92.8622 49.5063 90.1752 45.2094 87.1936C36.7445 81.1471 30.0958 72.7934 26.3925 63.584C24.5356 58.9832 23.3912 54.1666 23.1052 49.3919C22.8146 44.6229 23.3912 39.8899 24.9345 35.612C26.4685 31.3359 28.9922 27.5499 32.2786 24.689C35.5515 21.8072 39.5408 19.8667 43.7278 18.7668C47.9383 17.687 52.3198 17.2746 56.4136 17.7677C60.53 18.2444 64.3968 19.6568 67.8636 21.7426C71.3409 23.8208 74.424 26.5126 77.3076 29.3734C80.2017 32.2363 82.8906 35.285 85.8125 38.1707C87.2761 39.6079 88.8034 41.0088 90.5017 42.2635C92.1941 43.5125 94.0853 44.6211 96.2006 45.3C98.3044 45.9916 100.616 46.1645 102.742 45.8197C104.877 45.4845 106.814 44.7188 108.542 43.7985C110.269 42.8961 111.849 41.7173 113.197 40.7513C114.598 39.755 115.992 38.7976 117.382 37.8897C120.157 36.0783 122.913 34.4484 125.661 33.1729C128.404 31.9019 131.157 30.9891 133.783 30.8153C136.41 30.6244 138.863 31.2694 141.077 32.448C143.295 33.6162 145.289 35.1835 147.166 36.7279C149.048 38.2866 150.788 39.8347 152.521 41.3004C153.444 42.0592 154.39 42.727 155.426 43.2674C156.456 43.8031 157.581 44.2 158.75 44.3131C159.917 44.4328 161.094 44.222 162.077 43.8049C163.068 43.3869 163.883 42.8085 164.585 42.2177C165.981 41.0237 166.999 39.7862 167.977 38.7613C168.943 37.7346 169.859 36.8901 170.783 36.4626C171.698 36.0237 172.6 36.0599 173.366 36.3115C174.132 36.5614 174.748 36.9527 175.23 37.2765C176.188 37.949 176.664 38.3621 176.755 38.2756C176.829 38.2075 176.532 37.649 175.662 36.759ZM98.5286 119.217C97.2397 121.394 95.7333 123.646 94.3201 125.646C93.2448 122.98 92.0964 119.383 91.1694 116.268L98.5286 119.217Z" fill="#333333"/>
</svg>
