<svg width="457" height="430" viewBox="0 0 457 430" fill="none" xmlns="http://www.w3.org/2000/svg">
<path d="M66.5202 1.64001L59.5602 0.619995L57.3302 0.550018L56.5302 0.800018L55.9502 1.25L55.5902 1.83002L55.4502 1.04001L56.0102 0.51001H56.0202L57.9802 0L60.2502 0.170013L66.5202 1.64001Z" fill="#3290A7"/>
<path d="M66.5208 1.64078L67.8808 1.73077L68.6408 2.14078L85.3308 6.48077L99.3908 10.6108L105.601 12.7108L111.841 15.1108L118.121 17.7908L124.431 20.7708L131.991 24.8508L142.441 31.1708L146.991 33.9708L160.171 43.2608L160.571 43.4208L161.021 44.0208L162.151 45.0708L175.081 54.8208L180.011 58.8608L184.411 62.7508L187.551 65.5308L190.051 67.4908L208.511 80.6308L225.201 92.8008L227.021 94.1308L241.381 104.011L248.331 108.681L251.341 110.581L254.251 112.151L257.041 113.391L259.721 114.291L260.431 114.491L280.691 120.511L283.551 121.621L287.251 123.431L297.211 129.171L300.571 131.581L303.741 134.201L308.201 138.591L315.731 149.171L317.911 153.211L318.011 155.041L318.571 156.191L319.101 156.611L319.491 156.671L319.831 156.051L320.241 155.291L320.311 153.841L320.591 153.531L321.071 152.421L321.111 150.971L321.201 150.721L321.301 150.571L322.561 147.541L323.031 146.621L323.671 146.081L324.551 145.931L325.621 146.211L327.351 146.751L329.071 146.931L330.801 146.751H337.021L339.031 146.631L340.841 146.281L342.631 145.711L344.381 144.921L346.111 143.911L351.411 139.961L351.461 139.911L352.151 139.531L353.661 138.871L354.501 137.951L359.271 135.781L364.001 134.311L368.681 133.531L373.331 133.451L377.691 134.011L382.011 135.201L386.291 137.011L390.541 139.441L394.781 142.051L401.801 148.951L404.261 153.111L406.071 155.711L406.651 156.551L408.291 159.801L409.271 161.921L409.381 162.361L409.211 162.811L405.151 169.341L401.591 176.561L400.731 178.001L399.721 178.811L398.861 179.081L397.901 179.121L395.181 178.541L394.461 177.931L394.211 177.151L393.811 177.031L393.231 177.161L392.321 177.821L392.041 178.581L392.111 179.581L391.231 180.691L390.171 181.471L388.471 181.981L386.451 181.891L385.811 180.961L385.051 180.511L384.481 180.481L383.671 180.781L383.031 181.721L381.791 182.711L380.451 183.321L377.171 184.211L373.951 184.351L371.081 183.851L368.251 182.731L367.881 182.421L367.781 182.291L367.161 181.391L366.391 180.711L366.001 180.481L364.911 179.171L364.141 177.721L363.981 177.311L362.581 172.061L362.501 171.931L362.241 172.011L361.951 171.111L362.151 171.391L362.331 170.971L362.341 170.731L362.211 170.301L361.911 169.981L361.501 169.811L361.051 169.851L356.941 171.301L353.571 172.861L350.741 174.611L348.331 176.611L346.151 179.061L344.331 181.831L343.291 183.981L342.611 186.081L342.291 188.141L342.341 190.161L342.421 190.731L342.361 192.231L342.241 192.151L342.171 191.651V191.641L342.151 191.631H342.141V191.641L342.151 191.651V191.671L341.721 194.781L341.621 198.171L341.901 201.591L342.051 201.891L342.321 201.711L342.851 200.891L343.041 200.071L342.941 199.391L342.631 198.711L342.771 198.761L342.991 198.531L343.161 197.901L346.281 189.841L346.941 189.121L347.911 189.031L350.801 190.231L358.331 194.391L365.711 198.911L366.361 199.271L366.931 199.941L367.971 201.111L369.161 202.061L370.211 202.671L376.151 208.771L380.541 214.151L382.491 216.071L384.281 217.481L389.211 220.391L395.861 223.571L407.781 228.961L417.261 233.911L426.521 239.201L435.821 245.021L444.901 251.211L446.181 252.221L447.311 253.511L449.611 257.421L451.221 261.011L451.351 261.791L451.101 262.651L450.441 263.491L448.311 261.901L448.141 261.631L447.151 260.741L445.731 260.161L444.991 259.741L441.871 258.401L438.481 257.571L435.871 257.151L426.231 255.501L419.271 253.971L413.311 252.201L408.141 250.101L359.061 226.161L353.021 223.441L346.161 220.311L345.541 220.271L345.091 220.671L345.081 220.711V220.721L345.531 220.971L345.121 222.761L343.831 226.321L342.371 229.251L340.701 231.661L338.771 233.621L337.081 234.871L335.141 235.941L328.501 238.851L326.871 239.211L326.761 239.201L323.991 238.601L321.281 237.461L306.271 229.251L294.221 222.251L282.311 214.991L270.561 207.461L258.961 199.661L258.511 199.231L258.231 198.671L258.131 198.061L258.241 197.441L260.431 190.471L262.241 183.241L263.681 175.751L264.731 168.011L265.101 162.681L264.971 158.501L264.361 155.691L263.891 154.791L263.271 154.201L237.571 138.931L236.531 138.021L235.371 137.361L234.481 137.041L225.181 130.301L213.721 121.931L198.401 109.891L190.071 103.271L180.881 96.2408L171.291 88.9308L164.541 83.5308L163.621 82.8708L162.461 81.5208L146.251 61.3608L140.461 54.4908L136.221 49.7708L132.161 45.6408L127.961 41.6608L120.941 35.5708L118.951 34.1608L116.971 33.1908L114.881 32.5508L112.511 32.2108L109.731 32.1508L105.921 32.3508L101.951 32.3208L97.7708 31.7108L93.2108 30.5108L88.2508 28.6908L86.6808 28.4108L84.1508 28.4608L83.2408 28.3708L82.4408 28.0808L75.4808 25.8008L74.4208 24.2208L74.0508 22.6308L74.2008 21.5008L74.6808 20.3608L79.5008 19.6308L80.9208 19.7208L82.1508 20.0708L84.8908 21.0308L87.6708 21.6108L90.5508 21.8108L90.6608 21.8008L90.9608 21.5508L90.9508 21.1508L90.5708 20.7708L90.3308 20.7608L89.8208 20.0808L88.7908 19.0008L87.5908 18.0608L85.4008 16.2308L83.0508 14.6908L79.6908 13.0908L76.0508 12.0008L75.5408 11.6108L75.0108 11.4508L74.5008 11.5208L73.6908 11.4208L73.0708 11.1208L63.5108 7.55078L62.0008 6.93079L60.2508 5.97076L58.6008 4.80078L57.0408 3.42078L55.5908 1.83078L55.9508 1.25076L56.5308 0.800781L57.3308 0.550781L59.5608 0.620758L66.5208 1.64078Z" fill="black"/>
<path d="M146.991 33.9706L142.441 31.1706L131.991 24.8506L124.431 20.7706L118.121 17.7906L111.841 15.1106L105.601 12.7106L99.3906 10.6106L85.3306 6.48062L68.6406 2.14062L72.7906 2.76062L77.2306 3.74063L95.1106 8.66061L101.751 10.8006L107.761 13.0006L118.931 17.6006L127.431 21.5706L132.021 24.0606L136.821 26.9606L141.801 30.2606L146.991 33.9706Z" fill="#3290A7"/>
<path d="M73.0707 11.1208L69.9407 10.3008L66.9308 9.20078L63.5107 7.55078L73.0707 11.1208Z" fill="#3290A7"/>
<path d="M237.571 138.929L263.27 154.199L263.89 154.789L264.361 155.689L264.97 158.499L265.1 162.679L264.73 168.009L263.681 175.749L262.241 183.239L260.431 190.469L258.241 197.439L258.131 198.059L258.23 198.669L258.511 199.229L258.96 199.659L270.561 207.459L282.311 214.989L294.22 222.249L306.27 229.249L321.28 237.459L323.991 238.599L326.761 239.199L326.871 239.209L334.34 242.899L341.95 246.069L350.881 249.329L359.881 252.379L369.361 255.339L378.91 258.069L386.58 259.929L396.79 262.019L409.53 264.329L424.811 266.879L433.7 267.849L442.691 268.749L446.72 269.049L450.89 269.009L451.251 269.139L451.41 269.489V269.499V269.769L451.381 269.879L451.29 269.929L450.21 270.209L447.561 270.769L425.39 272.559L413.04 273.129L400.921 273.259L388.83 272.949L376.98 272.219L365.23 271.039L353.73 269.429L342.28 267.369L331.1 264.899L318.45 261.489L306.28 257.529L294.59 253.009L283.381 247.919L276.431 244.089L267.78 238.549L263.41 235.469L259.03 232.109L254.77 228.549L250.501 224.699L246.28 220.599L242.04 216.209L233.381 206.359L227.19 198.769L219.121 188.939L212.831 181.759L206.81 175.519L201.01 170.199L192.13 162.839L183.331 156.079L174.611 149.909L165.97 144.329L146.651 132.839L139.51 128.909L134.04 126.189L127.63 123.189L116 117.789L108.1 114.389L91.3905 107.799L87.4805 106.429L82.0505 104.809L80.4805 104.359L79.5105 104.179L79.0305 104.339L79.0505 104.839L79.5605 105.679L80.6705 107.229L82.7505 109.929L90.3205 117.799L98.0405 124.989L105.921 131.519L113.951 137.379L123.13 143.399L132.671 149.189L171.451 171.649L176.51 174.619L183.82 179.129L194.22 185.829L196.581 187.369L202.671 191.589L210.28 197.429L210.421 197.679L210.32 197.949L210.301 197.969L210.03 198.209L209.871 198.289L209.681 198.249L203.831 195.449L197.711 193.129L189.361 190.499L181.741 188.399L174.871 186.849L168.741 185.829L159.621 185.159L145.26 184.819L139.44 184.229L130.391 182.539L126.951 181.639L122.85 180.269L112.651 176.059L106.72 173.279L100.801 170.249L94.9005 166.989L89.0105 163.479L79.2205 157.139L70.0305 150.539L61.4205 143.709L53.4005 136.619L48.9405 132.079L42.2005 124.659L35.6505 117.069L31.1905 111.409L27.2405 105.709L23.4805 99.8191L19.9305 93.7291L16.5805 87.4291L13.9505 81.619L11.0405 73.9791L10.7505 73.1491L8.5405 65.9391L6.90051 58.6291L5.81049 51.1391L5.27051 43.5991L5.2905 35.9191L5.87051 28.2391L7.0105 20.4791L8.7005 12.7691L9.30051 10.9491L10.1005 9.30905L10.5005 9.03906L10.9605 9.17908L11.0305 9.25906L11.8505 10.3991L14.2805 14.5291L18.3405 21.6291L22.6505 27.9091L27.2005 33.3591L32.0005 37.9891L39.5605 44.0691L47.6905 49.8491L56.7905 55.5991L67.6205 61.8091L96.8505 77.4891L117.82 88.8191L134.681 98.4391L145.801 105.309L156.581 112.539L166.991 120.119L177.06 128.059L180.871 131.339L186.09 136.189L192.461 142.049L198.22 147.459L213.41 161.859L222.82 170.429L232.23 178.209L248.011 190.709L250.171 192.329L253.79 195.099L256.301 197.519L256.441 197.639L257.09 197.739L257.58 197.279L259.52 191.579L262.381 179.439L263.321 174.289L263.941 169.759L264.301 163.909L264.191 157.139L263.931 155.739L263.29 154.689L262.551 154.119L251.78 148.049L239.121 140.369L238.16 139.649L237.571 138.929Z" fill="#3290A7"/>
<path d="M76.05 11.9992H75.97L75.23 11.8692L74.5 11.5192L75.01 11.4492L75.54 11.6092L76.05 11.9992Z" fill="#3290A7"/>
<path d="M87.5908 18.06L76.0508 12L79.6908 13.09L83.0508 14.69L85.4008 16.23L87.5908 18.06Z" fill="#3290A7"/>
<path d="M79.5006 19.6302L74.6807 20.3602L75.9406 19.5202L77.2506 19.1602L78.3607 19.2302L79.5006 19.6302Z" fill="#3290A7"/>
<path d="M90.3304 20.7603L90.5704 20.7703L90.9504 21.1503L90.9604 21.5503L90.6604 21.8003L90.5504 21.8103L87.6704 21.6103L84.8904 21.0303L82.1504 20.0703L83.5504 20.1503L85.3304 20.5303L87.3804 20.9503L89.0604 20.9903L90.3304 20.7603Z" fill="#3290A7"/>
<path d="M82.4405 28.0808L80.4705 28.0408L78.6205 27.6308L76.9905 26.8808L75.4805 25.8008L82.4405 28.0808Z" fill="#3290A7"/>
<path d="M162.46 81.5202L160.1 79.1602L156.93 75.5502L151.34 68.5802L142.52 57.6802L136.22 50.4102L130.36 44.3602L124.66 39.2802L124.31 38.9902L119.44 35.2902L117.57 34.2502L115.79 33.5602L113.66 33.0901L111.23 32.9402H102.28L98.9804 32.5102L94.4004 31.2602L89.3204 29.7602L84.1504 28.4602L86.6804 28.4102L88.2504 28.6902L93.2104 30.5102L97.7704 31.7102L101.95 32.3202L105.92 32.3502L109.73 32.1502L112.51 32.2102L114.88 32.5502L116.97 33.1902L118.95 34.1602L120.94 35.5702L127.96 41.6602L132.16 45.6402L136.22 49.7702L140.46 54.4902L146.25 61.3602L162.46 81.5202Z" fill="#3290A7"/>
<path d="M297.21 129.17L287.25 123.43L283.55 121.62L280.69 120.51L260.43 114.49L259.72 114.29L257.04 113.39L254.25 112.15L251.34 110.58L248.33 108.68L241.38 104.01L227.02 94.1299L225.2 92.7999L208.51 80.6299L190.05 67.4899L187.55 65.5299L184.41 62.7499L180.01 58.8599L175.08 54.8199L162.15 45.0699L161.02 44.0199L160.57 43.4199L168.19 48.9399L175.64 54.6799L183.44 61.0799L190.75 67.0699L196.52 71.3799L210.13 80.9899L224.42 91.4499L233.74 97.9099L243.38 104.66L248.84 108.42L254.61 111.51L259.26 113.44L264.1 114.98L274.75 117.91L281.48 120.4L286.97 122.84L291.89 125.53L296.41 128.57L297.21 129.17Z" fill="#3290A7"/>
<path d="M290.91 53.0605L289.28 56.6805L287.99 60.1605L287.05 63.5005L286.44 66.7005L285.92 71.7905L285.77 77.1105L285.96 82.6705L286.52 88.4605L287.26 92.8705L288.37 97.3905L289.8 101.84L291.58 106.25L293.6 110.42L295.9 114.44L298.39 118.11L301.13 121.52L301.71 122.21L303.22 124.31L300.14 121.25L297.75 118.24L293.94 112.11L290.81 105.83L288.36 99.4005L286.59 92.8305L285.92 89.2205L285.44 85.5605L285.08 78.1305L285.52 70.5305L286.74 62.7605L287.46 59.8305L288.4 56.9805L290.55 52.2105L290.78 51.9805L290.99 52.2405L291 52.2505L290.91 53.0605Z" fill="#3290A7"/>
<path d="M290.911 53.0586L291.401 60.7886L291.321 63.6786L291.951 67.5686L292.231 69.0186L293.011 72.2586L294.311 75.6786L296.041 79.0886L298.231 82.5586L300.841 85.9786L303.801 89.2686L306.951 92.2486L310.121 94.7486L313.841 97.2286L317.671 99.4286L321.601 101.339L325.631 102.979L329.551 104.269L333.561 105.309L337.661 106.099L341.851 106.639L346.141 106.919L350.521 106.959L354.991 106.739L359.551 106.269L380.581 103.209L382.931 102.979L386.141 102.959L390.271 102.889H391.051L391.061 103.049L396.711 104.329L399.751 105.199L403.671 106.979L407.231 109.129L410.401 111.649L413.201 114.519L415.331 117.359L417.151 120.449L418.641 123.799L419.791 127.409L421.461 133.169L421.291 138.449L420.261 142.729L418.871 146.779L417.121 150.589L415.011 154.159L413.521 156.249L413.111 155.599L413.071 155.089L413.111 154.999L409.841 149.519L406.041 144.479L403.111 141.259L399.931 138.239L396.501 135.449L392.811 132.859L391.761 132.319L390.801 132.109L389.761 131.209L385.741 129.369L381.691 127.929L377.591 126.899L373.451 126.269L369.371 126.049L365.251 126.219L361.091 126.769L356.891 127.709L356.151 128.169L356.111 128.239L355.481 128.369L350.671 129.429L348.031 130.299L343.441 132.339L338.731 133.959L334.951 134.939L331.091 135.669L328.981 135.789L326.401 135.589L321.651 135.309L318.721 134.269L312.051 131.089L309.491 129.489L307.061 127.719L303.221 124.309L301.711 122.209L301.131 121.519L298.391 118.109L295.901 114.439L293.601 110.419L291.581 106.249L289.801 101.839L288.371 97.3886L287.261 92.8686L286.521 88.4586L285.961 82.6686L285.771 77.1086L285.921 71.7886L286.441 66.6986L287.051 63.4986L287.991 60.1586L289.281 56.6786L290.911 53.0586Z" fill="black"/>
<path d="M291.4 60.7891L291.87 63.1091L292.17 65.1091L293.02 69.5491L294.21 73.5091L295.67 77.0991L297.4 80.3091L299.39 83.1491L303.61 87.9391L308.13 92.1691L312.95 95.8391L318.07 98.9491L321.07 100.439L324.17 101.759L330.65 103.869L337.5 105.269L344.74 105.959L349.74 106.049L355.04 105.859L360.46 105.409L366.01 104.699L376.02 103.339L386.23 102.259L387.86 102.359L390.27 102.889L386.14 102.959L382.93 102.979L380.58 103.209L359.55 106.269L354.99 106.739L350.52 106.959L346.14 106.919L341.85 106.639L337.66 106.099L333.56 105.309L329.55 104.269L325.63 102.979L321.6 101.339L317.67 99.4291L313.84 97.2291L310.12 94.7491L306.95 92.2491L303.8 89.2691L300.84 85.9791L298.23 82.5591L296.04 79.0891L294.31 75.6791L293.01 72.2591L292.23 69.0191L291.95 67.5691L291.32 63.6791L291.4 60.7891Z" fill="#3290A7"/>
<path d="M234.48 137.039L223.33 129.729L214.95 123.539L197.8 109.909L168.55 87.4493L166.81 85.9193L164.54 83.5293L171.29 88.9293L180.88 96.2393L190.07 103.269L198.4 109.889L213.72 121.929L225.18 130.299L234.48 137.039Z" fill="#3290A7"/>
<path d="M421.461 133.169L419.791 127.409L418.641 123.799L417.151 120.449L415.331 117.359L413.201 114.519L410.401 111.649L407.231 109.129L403.671 106.979L399.751 105.199L396.711 104.329L391.061 103.049L392.621 102.969L394.141 103.129L394.591 103.219L400.211 104.859L402.771 105.889L405.181 107.079L407.421 108.409L409.501 109.889L411.421 111.509L413.181 113.289L414.801 115.239L416.251 117.349L417.541 119.599L418.661 122.009L419.611 124.569L420.391 127.289L421.461 133.169Z" fill="#3290A7"/>
<path d="M390.801 132.111L386.641 130.171L382.441 128.641L378.191 127.531L373.891 126.831L369.511 126.551L365.091 126.691L360.631 127.261L356.111 128.241L356.151 128.171L356.891 127.711L361.091 126.771L365.251 126.221L369.371 126.051L373.451 126.271L377.591 126.901L381.691 127.931L385.741 129.371L389.761 131.211L390.801 132.111Z" fill="#3290A7"/>
<path d="M355.48 128.371L338.3 134.831L334.6 135.851L330.59 136.271L326.27 136.091L321.65 135.311L326.4 135.591L328.98 135.791L331.09 135.671L334.95 134.941L338.73 133.961L343.44 132.341L348.03 130.301L350.67 129.431L355.48 128.371Z" fill="#3290A7"/>
<path d="M318.721 134.27L315.641 133.28L312.931 131.76L312.051 131.09L318.721 134.27Z" fill="#3290A7"/>
<path d="M413.111 154.999L410.171 150.619L406.991 146.509L403.561 142.669L399.891 139.109L395.501 135.439L390.801 132.109L391.761 132.319L392.811 132.859L396.501 135.449L399.931 138.239L403.111 141.259L406.041 144.479L409.841 149.519L413.111 154.999Z" fill="#3290A7"/>
<path d="M394.78 142.05L390.54 139.44L386.29 137.01L382.01 135.2L377.69 134.01L373.33 133.45L368.68 133.53L364 134.31L359.27 135.78L354.5 137.95L358.93 135.55L361.3 134.62L363.71 133.89L367.68 133.14L371.69 132.92L375.78 133.21L379.83 134.02L383.81 135.33L387.66 137.12L391.33 139.36L394.78 142.05Z" fill="#3290A7"/>
<path d="M237.57 138.929L236.35 138.509L235.36 137.889L234.48 137.039L235.37 137.359L236.53 138.019L237.57 138.929Z" fill="#3290A7"/>
<path d="M354.5 137.949L353.66 138.869L352.15 139.529L352.43 139.239L353.37 138.499L354.5 137.949Z" fill="#3290A7"/>
<path d="M315.731 149.17L308.201 138.59L310.521 140.96L312.561 143.54L314.281 146.26L315.731 149.17Z" fill="#3290A7"/>
<path d="M421.29 138.449L420.66 143.039L419.41 147.409L418.41 149.849L417.2 152.219L415.79 154.509L414.17 156.719L413.91 156.859L413.64 156.739L413.6 156.689L413.59 156.679L413.52 156.249L415.01 154.159L417.12 150.589L418.87 146.779L420.26 142.729L421.29 138.449Z" fill="#3290A7"/>
<path d="M351.41 139.961L346.11 143.911L344.38 144.921L342.63 145.711L340.84 146.281L339.03 146.631L337.02 146.751L340.72 145.481L344.35 143.921L347.91 142.081L351.41 139.961Z" fill="#3290A7"/>
<path d="M330.801 146.75L329.071 146.93L327.351 146.75L325.621 146.21L324.551 145.93L323.671 146.08L323.031 146.62L322.561 147.54L321.301 150.57L321.411 149.15L321.761 147.82L322.941 145.7L323.491 145.31L324.171 145.27L330.801 146.75Z" fill="#3290A7"/>
<path d="M395.18 178.539L397.9 179.119L398.86 179.079L399.72 178.809L400.73 177.999L401.59 176.559L405.15 169.339L409.21 162.809L409.38 162.359L409.27 161.919L408.29 159.799L406.65 156.549L406.07 155.709L404.26 153.109L401.8 148.949L404.1 151.789L406.12 154.809L407.79 157.839L409.2 161.039L409.4 162.609L409.04 164.039L402.66 176.189L401.34 178.329L400.05 179.559L399.15 179.969L398.25 180.109L396.72 179.719L395.18 178.539Z" fill="#3290A7"/>
<path d="M320.311 153.839L320.321 153.569L320.561 152.259L321.111 150.969L321.071 152.419L320.591 153.529L320.311 153.839Z" fill="#3290A7"/>
<path d="M317.91 153.211L318.48 154.411L319.23 155.441V155.451L319.83 156.051L319.49 156.671L319.1 156.611L318.57 156.191L318.01 155.041L317.91 153.211Z" fill="#3290A7"/>
<path d="M21.08 171.38L19.85 169.85L18.91 168.02L18.5 166.35L18.67 165.04L19.74 163.06L21.1 161.52L22.31 160.61L23.64 159.93L25.19 159.41L26.83 159.09L30.78 158.99L35.43 159.63L46.31 162.14L56.86 165.35L67.17 169.28L77.03 173.86L95.03 183.03L95.3 183.36L95.25 183.78L95.24 183.8L95.09 183.97L94.22 184.13L82.92 182.48L71.06 181.01L58.65 179.71L45.69 178.59L38.97 177.86L32.04 176.71L28.95 175.93L26.15 174.83L23.64 173.42L21.41 171.69L21.08 171.38Z" fill="#3290A7"/>
<path d="M361.951 171.109L359.931 171.129L358.011 171.469L356.111 172.139L353.261 173.579L350.741 175.269L348.541 177.199L346.671 179.379L345.101 181.839L343.871 184.549L342.971 187.509L342.421 190.729L342.341 190.159L342.291 188.139L342.611 186.079L343.291 183.979L344.331 181.829L346.151 179.059L348.331 176.609L350.741 174.609L353.571 172.859L356.941 171.299L361.051 169.849L361.501 169.809L361.911 169.979L362.211 170.299L362.341 170.729L362.331 170.969L362.151 171.389L361.951 171.109Z" fill="#3290A7"/>
<path d="M363.981 177.31L362.681 175.02L362.341 173.87L362.211 172.72L362.241 172.01L362.501 171.93L362.581 172.06L363.981 177.31Z" fill="#3290A7"/>
<path d="M394.461 177.929L393.321 178.569L392.111 179.579L392.041 178.579L392.321 177.819L393.231 177.159L393.811 177.029L394.211 177.149L394.461 177.929Z" fill="#3290A7"/>
<path d="M367.78 182.29L367.08 181.98L366.54 181.52L366 180.48L366.39 180.71L367.16 181.39L367.78 182.29Z" fill="#3290A7"/>
<path d="M386.451 181.89L385.211 181.58L383.831 181.35L383.031 181.72L383.671 180.78L384.481 180.48L385.051 180.51L385.811 180.96L386.451 181.89Z" fill="#3290A7"/>
<path d="M380.45 183.32L378.63 184.25L376.85 184.85L375.11 185.12L373.42 185.07L372.08 184.8L370.78 184.32L368.25 182.73L371.08 183.85L373.95 184.35L377.17 184.21L380.45 183.32Z" fill="#3290A7"/>
<path d="M365.71 198.909L358.33 194.389L350.8 190.229L347.91 189.029L346.94 189.119L346.28 189.839L343.16 197.899L343.63 195.029L344.54 192.359L345.55 190.439L346.82 188.639L347.33 188.309L347.93 188.359L350.37 189.469L354.69 191.679L358.86 194.129L362.34 196.429L365.71 198.909Z" fill="#3290A7"/>
<path d="M342.361 192.229L342.631 198.709L342.941 199.389L343.041 200.069L342.851 200.889L342.321 201.709L342.051 201.889L341.901 201.589L341.621 198.169L341.721 194.779L342.151 191.669V191.649L342.141 191.639V191.629H342.151L342.171 191.639V191.649L342.241 192.149L342.361 192.229Z" fill="#3290A7"/>
<path d="M181.94 203.029L175.61 204.319L169.4 205.999L163.66 207.939L158.02 210.239L152.49 212.879L147.06 215.879L145.6 216.629L144.37 217.049L143.56 217.329L143.26 217.669L143.46 218.079L144.18 218.549L157.22 225.339L197.35 246.049L212.28 253.479L226.46 260.299L233.49 263.589L245.84 268.899L258.65 273.569L271.75 277.559L285.25 280.889L299.05 283.549L313.17 285.529L327.4 286.799L341.87 287.379L341.98 287.339L342.02 287.219V286.809L341.97 286.659L341.83 286.589L317.86 283.089L306.71 280.879L295.15 277.989L283.17 274.429L270.78 270.189L263.61 267.299L257.99 264.419L273.99 270.689L281.29 273.309L287.72 275.259L296.99 277.869L303.22 279.459L312.05 281.239L317.45 282.289L323.44 283.299L332.61 284.479L341.08 285.569L346.03 286.179L350.56 286.489L365.05 286.949L378.15 287.139L389.88 287.049L400.23 286.689L413.78 285.829L427.58 284.599L441.65 283.029L455.97 281.089L456.11 281.109L456.18 281.259L456.14 281.529L455.95 281.759L446.28 285.289L431.63 288.959L416.86 291.929L406.72 293.549L396.52 294.849L386.26 295.819L375.94 296.469L365.57 296.789L355.14 296.779L344.65 296.449L334.1 295.789L319.25 294.459L305.69 292.859L293.42 290.999L282.44 288.879L262.91 284.459L249.09 280.879L235.33 276.649L221.62 271.759L207.97 266.219L195.19 260.469L173.99 250.599L166.32 246.989L144.46 236.759L128.52 229.489L114.29 223.259L101.56 217.999L91.04 214.299L74.76 209.299L65.21 206.749L55.28 204.629L44.95 202.939L34.23 201.669L27.08 201.149L19.68 200.929L12.04 201.019L4.15002 201.419L2.88 201.589L1.58002 201.759L0.570007 201.689L0.540009 201.679L0 201.399L0.440002 200.959L3.47 199.619L7.70001 198.209L17.23 195.669L26.68 193.789L36.04 192.579L45.31 192.039H51.6L57.97 192.309L64.5 192.859L71.06 193.679L77.64 194.759L84.21 196.099L90.72 197.689L97.16 199.519L108.38 203.179L119.57 207.269L130.73 211.809L141.87 216.789L142.85 216.989L143.82 216.739L159.37 208.909L162.83 207.379L166.34 206.079L169.9 204.999L173.5 204.139L177.69 203.439L181.94 203.029Z" fill="#3290A7"/>
<path d="M370.21 202.669L369.16 202.059L367.97 201.109L366.93 199.939L367.79 200.479L369.06 201.489L370.21 202.669Z" fill="#3290A7"/>
<path d="M189.441 202.819L187.641 202.909L186.931 202.759L187.831 202.379H188.631L189.441 202.819Z" fill="#3290A7"/>
<path d="M186.931 202.76L187.641 202.91L189.441 202.82L193.271 202.81L196.931 203.2L200.401 203.96L203.701 205.12L213.371 209.23L220.451 213.93L227.741 220.95L232.601 226.8L237.791 232.15L243.331 237L249.211 241.34L252.951 243.72L256.811 245.92L260.791 247.94L264.901 249.77L265.681 249.72L265.981 249.99L266.121 250.41L265.931 250.85L265.331 251.39L264.521 251.72L263.841 251.89L262.871 252.39L251.521 260.45L251.201 261.07L251.501 261.69L251.691 261.8L254.681 262.97L255.421 263.57L256.141 263.75L256.551 263.66L257.991 264.42L263.611 267.3L270.781 270.19L283.171 274.43L295.151 277.99L306.711 280.88L317.861 283.09L341.831 286.59L341.971 286.66L342.021 286.81V287.22L341.981 287.34L341.871 287.38L327.401 286.8L313.171 285.53L299.051 283.55L285.251 280.89L271.751 277.56L258.651 273.57L245.841 268.9L233.491 263.59L226.461 260.3L212.281 253.48L197.351 246.05L157.221 225.34L144.181 218.55L143.461 218.08L143.261 217.67L143.561 217.33L144.371 217.05L145.601 216.63L147.061 215.88L152.491 212.88L158.021 210.24L163.661 207.94L169.401 206L175.611 204.32L181.941 203.03L186.931 202.76Z" fill="black"/>
<path d="M213.37 209.231L203.7 205.121L206.36 205.841L208.86 206.761L211.2 207.891L213.37 209.231Z" fill="#3290A7"/>
<path d="M376.15 208.77L378.8 211.8L381.62 214.46L384.61 216.77L387.76 218.72L393.51 221.65L401.92 225.56L410.56 229.609L417.41 233.21L424.13 237.02L433.01 242.479L441.67 248.33L443.56 249.859L444.9 251.21L435.82 245.02L426.52 239.2L417.26 233.91L407.78 228.96L395.86 223.57L389.21 220.39L384.28 217.479L382.49 216.07L380.54 214.15L376.15 208.77Z" fill="#3290A7"/>
<path d="M220.45 213.93L213.37 209.23L215.29 210.14L217.98 211.84L220.45 213.93Z" fill="#3290A7"/>
<path d="M445.73 260.16L440.33 258.41L436.37 257.58L428.41 256.52L421.7 255.24L415.73 253.65L410.38 251.7L403.05 248.45L377.45 235.68L351.47 223.1L346.77 221.37L345.53 220.97L345.08 220.72V220.71L345.09 220.669L345.54 220.27L346.16 220.31L353.02 223.44L359.06 226.16L408.14 250.1L413.31 252.2L419.27 253.97L426.23 255.5L435.87 257.15L438.48 257.57L441.87 258.4L444.99 259.74L445.73 260.16Z" fill="#3290A7"/>
<path d="M264.9 249.769L260.79 247.939L256.81 245.919L252.95 243.719L249.21 241.339L243.33 236.999L237.79 232.149L232.6 226.799L227.74 220.949L237.46 230.789L243.83 236.669L248.02 239.869L252.93 243.129L258.56 246.419L264.9 249.769Z" fill="#3290A7"/>
<path d="M345.12 222.76L345.23 224.05L345.06 225.07L344.09 227.43L342.92 229.58L341.54 231.52L339.96 233.25L337.61 235.18L334.91 236.76L331.88 237.98L328.5 238.85L335.14 235.94L337.08 234.87L338.77 233.62L340.7 231.66L342.37 229.25L343.83 226.32L345.12 222.76Z" fill="#3290A7"/>
<path d="M95.8303 224.91L88.5303 229.14L91.8603 226.78L95.8303 224.91Z" fill="#3290A7"/>
<path d="M103.23 227.54L115.43 233.19L115.68 233.17L116.25 233.51L144.91 246.96L149.45 249L158.49 253.29L160.17 253.85L161.77 254.77L173.44 260.24L173.66 260.25L174.19 260.56L191.49 268.28L192.11 268.38L192.57 268.65L192.74 268.85L210.71 275.9L212.67 276.45L212.27 277.12L211.58 277.36L204.61 277.64L197.31 277.41L189.7 276.67L181.76 275.42L180.44 275.33L178.51 275.1L174.48 274.01L168.7 272.86L164.62 272.07L152.85 269.22L145.68 267.52L138.47 266.09L131.24 264.94L123.99 264.07L117.41 263.52L110.82 263.2L97.7705 263.33L93.4505 263.36L89.1405 263.58L83.0005 264.26L76.8905 265.34L65.9605 267.87L57.1305 270.39L46.9505 273.97L31.9305 279.69L30.2605 280.1L28.7905 279.96L27.8505 279.52L27.2505 278.89L26.9805 278.05L27.0405 277.01L27.8705 274.35L29.3105 271.57L38.6105 257.03L38.8405 256.43L39.7005 255.78L46.5605 248.83L48.2705 247.19L50.1005 245.76L52.1005 244.45L54.3805 243.22L59.4905 241.12L66.8605 238.86L70.6905 237.74L74.6005 236.36L78.8805 234.47L83.5205 232.06L88.5305 229.14L95.8305 224.91L97.6205 225.13L99.4505 225.65L101.32 226.45L103.23 227.54Z" fill="black"/>
<path d="M88.5302 229.14L83.5202 232.06L78.8802 234.47L74.6002 236.36L70.6902 237.74L66.8602 238.86L59.4902 241.12L54.3802 243.22L52.1002 244.45L50.1002 245.76L48.2702 247.19L46.5602 248.83L39.7002 255.78L43.1502 251.34L47.0702 247.45L51.3902 244.21L55.9702 241.7L58.7202 240.57L61.6002 239.66L66.4202 238.25L71.1302 236.65L79.5002 233.26L87.6902 229.22L88.4302 229.1L88.5302 229.14Z" fill="#3290A7"/>
<path d="M264.52 251.719L252.46 260.409L252.15 260.999L252.44 261.609L252.62 261.709L253.05 261.899L254.68 262.969L251.69 261.799L251.5 261.689L251.2 261.069L251.52 260.449L262.87 252.389L263.84 251.889L264.52 251.719Z" fill="#3290A7"/>
<path d="M450.441 263.49L451.101 262.65L451.351 261.79L451.221 261.01L449.611 257.42L447.311 253.51L448.491 254.81L449.781 256.67L450.801 258.75L451.551 261.05L452.041 263.56L451.891 263.97L451.471 264.09L451.321 264.03L450.441 263.49Z" fill="#3290A7"/>
<path d="M38.6109 257.029L29.3109 271.569L27.8709 274.349L27.0409 277.009L26.9809 278.049L27.2509 278.889L27.8509 279.519L28.7909 279.959L30.2609 280.099L31.9309 279.689L46.9509 273.969L57.1309 270.389L65.9609 267.869L76.8909 265.339L83.0009 264.259L89.1409 263.579L93.4509 263.359L97.7709 263.329L88.8309 264.319L80.3909 265.559L72.4609 267.059L65.0409 268.819L58.4909 270.699L51.4109 273.049L43.8209 275.859L35.7109 279.139L33.0009 280.069L32.3109 280.269L29.9209 280.799L29.0809 280.789L28.2909 280.569L27.4409 279.979L26.6609 278.949L26.3809 277.629L26.6909 275.699L27.6409 273.089L29.1109 270.139L31.9609 265.509L35.1109 261.149L38.6109 257.029Z" fill="#3290A7"/>
<path d="M448.31 261.9L447.6 261.6L446.61 260.98L445.73 260.16L447.15 260.74L448.14 261.63L448.31 261.9Z" fill="#3290A7"/>
<path d="M212.67 276.449L213.16 276.579L213.51 276.969L213.55 277.079L213.47 277.549L213.06 277.779L206.51 278.089L200.04 278.029L193.64 277.609L187.3 276.819L170.4 273.839L153.7 270.119L143.23 267.729L134.13 266.029L129.86 265.379L120.36 264.139L110.82 263.199L117.41 263.519L123.99 264.069L131.24 264.939L138.47 266.089L145.68 267.519L152.85 269.219L164.62 272.069L168.7 272.859L174.48 274.009L178.51 275.099L180.44 275.329L181.76 275.419L189.7 276.669L197.31 277.409L204.61 277.639L211.58 277.359L212.27 277.119L212.67 276.449Z" fill="#3290A7"/>
<path d="M256.551 263.659L256.141 263.749L255.421 263.569L254.681 262.969L256.551 263.659Z" fill="#3290A7"/>
<path d="M107.181 322.24L106.371 321.859L104.741 321.6L74.1507 321.93L46.4107 321.96L42.4607 322.09L38.7807 322.53L35.6107 323.24L32.9707 324.21L25.9707 327.5L29.3607 325.359L32.9107 323.68L36.6307 322.45L40.6507 321.63L45.2207 321.169L50.7507 321.02L106.691 321.15L107.111 321.27L107.351 321.66L107.371 321.84L107.181 322.24Z" fill="#3290A7"/>
<path d="M195.92 339.68L207.69 324.07L208.32 322.99V322.22L207.7 321.77L206.46 321.64L182.85 321.9L159.4 321.92L154.31 321.99L149.91 322.25L146.19 322.69L143.17 323.32L139.51 324.48L136.22 325.85L133.04 327.49L129.97 329.41L126.99 331.61L127.96 330.62L131.51 327.73L135.63 325.38L140.46 323.49L146.11 322.01L151.06 321.3L157.19 321.04L188.11 321.01L206.03 321.22L208.08 321.44L208.71 321.74L209.02 322.14L209 322.64L208.65 323.24L195.92 339.68Z" fill="#3290A7"/>
<path d="M274.7 383.18L272.81 380.38L271.13 377.47L270.81 376.859L267.44 370.299L253.28 344.41L242.09 323.82L241.51 323.04L240.75 322.45L239.87 322.07L238.91 321.93L217.29 321.66L226.47 321.03L237.49 321.02L239.47 321.33L241.06 322.15L242.3 323.549L249.82 336.66L262.7 360.53L267.09 368.72L269 372.19L272.46 378.57L274.7 383.18Z" fill="#3290A7"/>
<path d="M315.01 428.19L334.77 428.13L335.47 427.99L336.07 427.58L336.47 426.99L336.61 426.28V323.5V323.49L336.48 322.85L336.11 322.31L335.56 321.95L334.91 321.83L316.71 321.97L315.62 322.08L314.65 322.41L313.47 323.25L312.51 324.53L300.66 345.78L300.09 346.4L299.94 346.47L312.81 322.92L313.39 322.12L314.17 321.51L315.07 321.12L316.05 320.99H335.15L335.94 321.15L336.61 321.59L337.05 322.26L337.21 323.05V426.95L337.05 427.73L336.61 428.4L335.95 428.84L335.17 429L315.98 428.99L315.75 428.96L315.34 428.7L315.01 428.19Z" fill="#3290A7"/>
<path d="M446.351 321.401L416.791 321.951L387.301 321.981L382.221 322.071L378.551 322.401L377.791 322.531L375.021 323.241L372.251 324.301L369.321 325.771L365.551 327.981L363.391 329.271L366.221 326.931L368.681 325.361L371.341 324.061L374.181 323.021L377.211 322.241L383.841 321.171L389.981 320.801L418.131 320.921L446.351 321.401Z" fill="#3290A7"/>
<path d="M107.18 322.24L106.49 324.11L105.63 325.25L92.2703 342.5L91.7503 342.95L89.9903 343.94L88.4803 344.26L61.8003 344.13L46.5603 344.17L42.2903 344.41L39.5303 345.05L37.8603 345.98L36.5003 347.18L35.4903 348.55L34.7803 350.1L34.3603 351.81L34.2303 353.64L34.3903 356.46L34.7203 358.21L35.3903 359.75L36.7903 361.49L37.4103 361.93L40.1203 363.37L43.2003 364.28L56.2303 364.57L74.2303 364.48L77.8303 364.64L81.3203 365.24L83.9503 365.99L86.5103 366.99L89.0103 368.25L91.4503 369.76L91.7303 369.95L93.8703 371.62L95.8403 373.51L97.6603 375.64L99.3103 378L100.97 380.84L102.29 383.55L103.27 386.15L103.9 388.63L104.47 393.21L104.43 397.74L103.75 402.31L102.43 406.83L100.47 411.3L97.8603 415.72L92.4803 421.22L89.8903 422.64L89.2903 423.03L87.1703 424.25L84.8103 425.34L79.5403 427.08L75.8603 427.72L71.3303 427.93L35.1603 428.23L29.0303 428.25L19.2703 428.31L10.9503 428.22L9.7103 427.9L9.03027 427.34L9.04028 426.46L9.14029 426.29L20.0203 411.8L20.1803 411.71L20.4803 411.23L21.7303 409.71L24.2603 406.84L25.3303 406.13L26.2303 405.92H73.7203L75.2603 405.78L76.6903 405.35L77.9303 404.69L81.4403 401.06L82.3403 399.3L82.9103 397.61L83.1403 395.97L83.0403 394.39L82.6203 392.91L81.8803 391.48L80.8203 390.11L79.4503 388.8L77.2703 387.21L75.4803 386.46L72.6303 386.2L68.3103 386.35L65.1503 386.47L40.3503 386.38L36.6903 386.06L32.7103 384.98L28.8703 383.12L24.4903 380.6L19.3703 375.54L17.0503 371.85L15.2003 368.08L13.8303 364.22L12.9203 360.29L12.4803 356V353.06L12.7203 350.18L13.1903 347.38L13.9003 344.66L15.0903 341.41L16.6403 338.26L18.5503 335.23L20.8203 332.31L20.9703 332.02L20.9203 331.73L20.8903 331.69L21.9603 331.04L23.7203 329.66L25.2903 328L25.5503 327.73L25.9703 327.5L32.9703 324.21L35.6103 323.24L38.7803 322.53L42.4603 322.09L46.4103 321.96L74.1503 321.93L104.74 321.6L106.37 321.86L107.18 322.24Z" fill="black"/>
<path d="M195.92 339.681L195.2 340.901L194.16 342.001L193.35 342.761L192.36 343.391L191.22 343.831L189.93 344.081L188.49 344.151L153.38 344.421L148.34 344.831L146.4 345.281L144.84 345.901L141.74 347.901L140.51 349.031L139.48 350.271L138.19 352.451L137.3 354.931L136.72 357.841L136.44 361.341L136.26 372.591L136.32 389.921L136.52 393.081L137.04 395.251L137.98 397.211L139.14 399.051L140.51 400.731L142.06 402.221L143.73 403.461L145.56 404.471L147.42 405.191L149.39 405.651L151.54 405.821L188.73 405.871L193.49 405.581L205.96 405.831L206.87 405.971L207.32 405.761L208.86 405.971L209.18 406.261L209.16 406.691L208.37 408.291L207.32 409.641L206.4 410.471L192.65 427.931L189.87 428.391L172.48 427.951L163.8 428.031L155.14 428.311L148.43 428.041L143.42 426.821L138.99 425.581L134.82 423.771L130.82 421.361L127.16 418.471L123.78 415.021L120.86 411.171L118.44 407.011L116.55 402.591L115.85 400.291L115.32 397.861L114.77 392.551L114.64 386.421L114.8 382.391L115.01 377.651L114.77 371.831L114.48 363.731L114.82 356.301L115.26 352.961L115.97 349.741L116.94 346.651L118.18 343.681L119.78 340.651L121.69 337.761L123.89 335.021L126.4 332.411L126.68 331.731L127 331.471L126.99 331.611L129.97 329.411L133.04 327.491L136.22 325.851L139.51 324.481L143.17 323.321L146.19 322.691L149.91 322.251L154.31 321.991L159.4 321.921L182.85 321.901L206.46 321.641L207.7 321.771L208.32 322.221V322.991L207.69 324.071L195.92 339.681Z" fill="black"/>
<path d="M315.01 428.19L314.54 427.88L314.3 427.5L314.26 427.23L314.34 383.39L314.17 374.71L313.97 374.11L313.93 374.06L313.67 373.76L313.54 373.43L313.61 373.3L314.17 372.5L314.27 371.77L314.07 371.31L313.65 370.89L313.39 370.72L312.86 370.71L312.45 371.06L293.57 405.04L292.32 407.26L288.85 412.63L287.92 413.65L286.99 414.05L282.35 414.44L277.39 414.54L272.1 414.35L266.48 413.88L265.03 412.34L245.58 378.12L243.89 375.4L242.41 373.41L241.83 372.17L240.94 371.03L240.81 370.48L240.53 370.11L240.22 369.95L239.82 369.97L239.69 370.34V426.48L239.57 427.08L239.23 427.59L238.72 427.92L238.12 428.04L217.28 427.79L217.29 321.66L238.91 321.93L239.87 322.07L240.75 322.45L241.51 323.04L242.09 323.82L253.28 344.41L267.44 370.3L270.81 376.86L271.13 377.47L272.81 380.38L274.7 383.18L276.06 385.48L276.11 386.47L276.48 387.08L276.92 387.28L277.52 387.3L278.04 387.11L278.41 386.7L299.94 346.47L300.09 346.4L300.66 345.78L312.51 324.53L313.47 323.25L314.65 322.41L315.62 322.08L316.71 321.97L334.91 321.83L335.56 321.95L336.11 322.31L336.48 322.85L336.61 323.49V323.5V426.28L336.47 426.99L336.07 427.58L335.47 427.99L334.77 428.13L315.01 428.19Z" fill="black"/>
<path d="M446.35 321.398L445.93 323.948L440.11 331.238L434.61 338.728L432.88 340.848L432.24 341.588L430.36 343.508L429.53 343.978L428.62 344.188L428.43 344.198L387.23 344.328L383.07 344.568L379.76 345.248L377.21 346.398L375.31 348.038L374.07 350.118L373.42 352.598L373.3 354.528L373.49 356.338L374 358.108L374.8 359.708L376.54 361.778L378.82 363.328L381.44 364.278L384.41 364.608L406.19 364.598L411.41 364.618L415.82 364.828L419.4 365.228L422.17 365.808L424.58 366.598L426.86 367.578L429.01 368.738L431.03 370.078L433.32 371.968L435.41 374.128L437.31 376.568L439 379.278L441.19 383.878L442.65 388.558L443.38 393.258V397.958L442.75 402.208L441.5 406.388L439.69 410.388L437.29 414.258L435.04 417.878L432.48 420.208L430.27 421.838L427.98 423.278L425.62 424.528L423.18 425.578L419.88 426.668L416.46 427.438L412.91 427.868L409.23 427.978L386.22 427.938L348.91 428.298L348.41 426.908L348.49 425.718L349.09 424.798L358.68 412.238L358.72 412.138L358.67 412.058L358.58 411.978L358.74 411.758L358.83 411.848L363.68 406.438L364.99 405.888L366.68 405.538L389.12 406.018L411.49 405.978L413.44 405.828L415.2 405.438L416.77 404.798L418.15 403.918L419.53 402.578L420.64 400.908L421.52 398.808L421.92 396.668L421.82 394.258L421.14 391.798L420.7 391.078L420.18 390.668L420.09 390.478L419.44 389.458L418.63 388.628L417.51 387.928L416.18 387.478L415.23 387.368L414.37 387.068L413.93 386.808L382.97 386.588L379.85 386.448L376.85 386.018L373.88 385.278L371.06 384.258L368.76 383.178L366.59 381.918L364.46 380.438L362.48 378.778L360.63 376.948L358.94 374.978L357.41 372.878L356.05 370.648L354.87 368.308L353.87 365.858L353.07 363.338L352.46 360.748L352.07 358.158L351.89 355.528L351.92 352.868L352.16 350.198L352.89 346.438L354.07 342.708L356.18 338.468L358.31 334.238L361.18 331.248L361.22 331.238L361.9 330.818L362.46 330.058L363.05 329.838L363.24 329.598L363.19 329.468L363.39 329.268L365.55 327.978L369.32 325.768L372.25 324.298L375.02 323.238L377.79 322.528L378.55 322.398L382.22 322.068L387.3 321.978L416.79 321.948L446.35 321.398Z" fill="black"/>
<path d="M445.931 323.949L431.671 343.259L430.961 344.009L430.101 344.569L429.131 344.919L428.111 345.039L385.231 344.959L382.611 345.129L380.341 345.649L378.431 346.519L376.861 347.739L375.671 349.279L374.661 351.449L374.201 353.659L374.301 355.969L374.991 358.329L376.101 360.369L377.581 361.959L378.971 362.889L380.591 363.539L382.421 363.939L384.481 364.059L413.241 364.049L417.241 364.279L420.981 364.939L424.481 366.059L427.721 367.609L428.751 368.229L432.201 370.669L435.231 373.369L437.791 376.259L439.941 379.419L441.241 381.889L442.311 384.529L443.171 387.319L443.791 390.289L444.161 393.349L444.261 396.339L444.061 399.269L443.591 402.149L442.381 406.279L440.551 410.279L438.101 414.149L435.041 417.879L437.291 414.259L439.691 410.389L441.501 406.389L442.751 402.209L443.381 397.959V393.259L442.651 388.559L441.191 383.879L439.001 379.279L437.311 376.569L435.411 374.129L433.321 371.969L431.031 370.079L429.011 368.739L426.861 367.579L424.581 366.599L422.171 365.809L419.401 365.229L415.821 364.829L411.411 364.619L406.191 364.599L384.411 364.609L381.441 364.279L378.821 363.329L376.541 361.779L374.801 359.709L374.001 358.109L373.491 356.339L373.301 354.529L373.421 352.599L374.071 350.119L375.311 348.039L377.211 346.399L379.761 345.249L383.071 344.569L387.231 344.329L428.431 344.199L428.621 344.189L429.531 343.979L430.361 343.509L432.241 341.589L432.881 340.849L434.611 338.729L440.111 331.239L445.931 323.949Z" fill="#3290A7"/>
<path d="M25.2906 328L23.7206 329.66L21.9606 331.04L20.8906 331.69L25.2906 328Z" fill="#3290A7"/>
<path d="M363.191 329.469L363.241 329.599L363.051 329.839L362.461 330.059L362.831 329.619L363.191 329.469Z" fill="#3290A7"/>
<path d="M362.46 330.059L361.9 330.819L361.22 331.239L361.18 331.249L361.75 330.349L362.46 330.059Z" fill="#3290A7"/>
<path d="M20.8903 331.689L20.9203 331.729L20.9703 332.019L20.8203 332.309L18.5503 335.229L16.6403 338.259L15.0903 341.409L13.9003 344.659L13.1903 347.379L12.7203 350.179L12.4803 353.059V355.999L12.9203 360.289L13.8303 364.219L15.2003 368.079L17.0503 371.849L19.3703 375.539L17.0203 372.409L15.1203 369.059L13.7703 365.769L12.8103 362.289L12.2503 358.619L12.0703 354.759L12.3103 350.479L12.9903 346.429L14.1203 342.609L15.6903 339.009L18.0003 335.199L20.8903 331.689Z" fill="#3290A7"/>
<path d="M126.68 331.73L126.4 332.411L123.89 335.021L121.69 337.76L119.78 340.651L118.18 343.68L116.94 346.651L115.97 349.74L115.26 352.961L114.82 356.3L114.48 363.73L114.77 371.831L115.01 377.651L114.8 382.391L114.64 386.42L114.77 392.55L115.32 397.86L115.85 400.291L116.55 402.591L118.44 407.01L120.86 411.17L123.78 415.021L127.16 418.471L130.82 421.36L134.82 423.771L138.99 425.581L143.42 426.82L148.43 428.041L144.33 427.55L140.45 426.67L136.78 425.401L133.32 423.75L131.02 422.351L128.82 420.75L126.73 418.971L124.74 416.99L121.54 413.031L118.05 407.701L116.75 404.82L115.26 400.141L114.66 396.711L114.5 392.211L114.26 378.01L114.03 363.531L114.36 354.5L116.42 346.771L117.85 342.88L119.75 339.57L122.69 335.67L125.48 332.5L125.66 332.331L126.68 331.73Z" fill="#3290A7"/>
<path d="M358.311 334.24L356.181 338.47L354.071 342.71L352.891 346.44L352.161 350.2L351.921 352.87L351.891 355.53L352.071 358.16L352.461 360.75L353.071 363.34L353.871 365.86L354.871 368.31L356.051 370.65L357.411 372.88L358.941 374.98L360.631 376.95L362.481 378.78L364.461 380.44L366.591 381.92L368.761 383.18L371.061 384.26L373.881 385.28L376.851 386.02L379.851 386.45L382.971 386.59L413.931 386.81L388.541 387.04L379.451 386.77L376.111 386.4L373.561 385.86L369.991 384.57L366.261 382.58L362.901 380.1L359.831 377.07L357.201 373.65L354.931 369.72L353.171 365.5L351.931 361.07L351.241 356.51L351.131 352.69L351.511 348.94L352.421 345.13L353.861 341.41L355.821 337.78L358.311 334.24Z" fill="#3290A7"/>
<path d="M194.161 342L193.591 343.12L192.801 343.99L191.251 344.79L189.231 345.03L153.481 345.05L148.501 345.28L146.921 345.59L145.461 346.12L143.761 347.12L142.061 348.62L139.431 351.55L138.031 353.94L137.431 356.09L137.231 358.78L137.241 394.03L137.701 395.89L138.981 398.03L141.081 400.48L143.701 402.88L144.841 403.6L146.271 404.2L147.911 404.67L149.421 404.9L156.301 405.01L189.231 405.34L193.491 405.58L188.731 405.87L151.541 405.82L149.391 405.65L147.421 405.19L145.561 404.47L143.731 403.46L142.061 402.22L140.511 400.73L139.141 399.05L137.981 397.21L137.041 395.25L136.521 393.08L136.321 389.92L136.261 372.59L136.441 361.34L136.721 357.84L137.301 354.93L138.191 352.45L139.481 350.27L140.511 349.03L141.741 347.9L144.841 345.9L146.401 345.28L148.341 344.83L153.381 344.42L188.491 344.15L189.931 344.08L191.221 343.83L192.361 343.39L193.351 342.76L194.161 342Z" fill="#3290A7"/>
<path d="M91.7505 342.949L90.5705 344.229L89.2205 344.919L88.2305 345.049L45.7405 345.029L42.3505 345.289L39.5805 345.979L37.4205 347.099L35.8805 348.649L35.2705 349.749L34.8605 350.989L34.6605 352.379L34.6705 353.909L35.3205 357.409L36.7905 361.489L35.3905 359.749L34.7205 358.209L34.3905 356.459L34.2305 353.639L34.3605 351.809L34.7805 350.099L35.4905 348.549L36.5005 347.179L37.8605 345.979L39.5305 345.049L42.2905 344.409L46.5605 344.169L61.8005 344.129L88.4805 344.259L89.9905 343.939L91.7505 342.949Z" fill="#3290A7"/>
<path d="M299.941 346.469L278.411 386.699L278.041 387.109L277.521 387.299L276.921 387.279L276.481 387.079L276.111 386.469L276.061 385.479L276.981 385.969L277.751 385.989L278.231 385.689L278.621 385.129L284.021 374.909L284.091 374.789L299.111 347.629L299.661 346.789L299.941 346.469Z" fill="#3290A7"/>
<path d="M97.8602 415.72L100.47 411.3L102.43 406.83L103.75 402.31L104.43 397.74L104.47 393.21L103.9 388.63L103.27 386.15L102.29 383.55L100.97 380.84L99.3102 378L97.6602 375.64L95.8402 373.51L93.8702 371.62L91.7302 369.95L91.4502 369.76L89.0102 368.25L86.5102 366.99L83.9502 365.99L81.3202 365.24L77.8302 364.64L74.2302 364.48L56.2302 364.57L43.2002 364.28L62.5702 363.92L77.5502 364.12L80.8902 364.48L84.1102 365.31L87.3202 366.6L90.3502 368.31L93.3302 370.49L96.0502 373.01L98.5402 375.9L100.7 379.04L102.03 381.49L103.14 384.12L104.02 386.93L104.68 389.92L105.12 393.32L105.22 396.64L104.98 399.88L104.39 403.03L103.36 406.35L101.93 409.57L100.1 412.7L97.8602 415.72Z" fill="#3290A7"/>
<path d="M240.94 371.029L240.72 370.959L240.28 371.419L240.15 372.109L240.23 426.799L240.06 427.649L239.57 428.369L238.85 428.849L238 429.019L219.74 428.989L218.86 428.879L218.11 428.559L217.28 427.789L238.12 428.039L238.72 427.919L239.23 427.589L239.57 427.079L239.69 426.479V370.339L239.82 369.969L240.22 369.949L240.53 370.109L240.81 370.479L240.94 371.029Z" fill="#3290A7"/>
<path d="M313.65 370.891L310.61 375.831L291.02 410.361L290.58 411.131L289.6 412.781L288.74 413.891L287.77 414.681L286.83 415.041L286.23 415.101L269.01 414.981L267.62 414.681L266.48 413.881L272.1 414.351L277.39 414.541L282.35 414.441L286.99 414.051L287.92 413.651L288.85 412.631L292.32 407.261L293.57 405.041L312.45 371.061L312.86 370.711L313.39 370.721L313.65 370.891Z" fill="#3290A7"/>
<path d="M265.03 412.34L253.42 393.08L242.41 373.41L243.89 375.4L245.58 378.12L265.03 412.34Z" fill="#3290A7"/>
<path d="M81.4402 401.06L82.2102 397.77L82.2002 394.69L81.9102 393.27L81.4202 391.95L80.7502 390.74L79.8902 389.68L78.4602 388.49L76.7002 387.62L74.7302 387.1L72.4702 386.93L41.2302 386.96L38.7402 386.85L36.3402 386.51L34.0302 385.96L31.8102 385.2L28.0102 383.25L24.4902 380.6L28.8702 383.12L32.7102 384.98L36.6902 386.06L40.3502 386.38L65.1502 386.47L68.3102 386.35L72.6302 386.2L75.4802 386.46L77.2702 387.21L79.4502 388.8L80.8202 390.11L81.8802 391.48L82.6202 392.91L83.0402 394.39L83.1402 395.97L82.9102 397.61L82.3402 399.3L81.4402 401.06Z" fill="#3290A7"/>
<path d="M420.09 390.48L416.18 387.48L417.51 387.93L418.63 388.63L419.44 389.461L420.09 390.48Z" fill="#3290A7"/>
<path d="M366.68 405.54L389.73 404.94L412.73 404.91L414.34 404.79L415.85 404.4L416.84 403.96L418.02 403.21L419.01 402.32L419.86 401.22L420.51 400L420.98 398.59L421.23 397.1L421.28 395.49L421.11 393.86L420.18 390.67L420.7 391.08L421.14 391.8L421.82 394.26L421.92 396.67L421.52 398.81L420.64 400.91L419.53 402.58L418.15 403.92L416.77 404.8L415.2 405.44L413.44 405.83L411.49 405.98L389.12 406.02L366.68 405.54Z" fill="#3290A7"/>
<path d="M77.9305 404.689L76.6905 405.349L75.2605 405.779L73.7205 405.919H26.2305L25.3305 406.129L24.2605 406.839L21.7305 409.709L20.4805 411.229L22.2205 408.539L24.1905 406.439L26.1005 405.219L27.0205 404.919L27.9805 404.829L53.0105 405.019L77.9305 404.689Z" fill="#3290A7"/>
<path d="M207.321 405.76L206.871 405.97L205.961 405.83L206.531 405.57L207.021 405.58L207.321 405.76Z" fill="#3290A7"/>
<path d="M363.68 406.439L358.83 411.849L359.88 410.179L361.03 408.729L362.3 407.479L363.68 406.439Z" fill="#3290A7"/>
<path d="M206.4 410.469L203.27 415.139L199.93 419.599L196.39 423.869L192.65 427.929L206.4 410.469Z" fill="#3290A7"/>
<path d="M20.4805 411.23L20.1805 411.711L20.0205 411.8L20.1505 411.42L20.4805 411.23Z" fill="#3290A7"/>
<path d="M20.0209 411.801L9.14093 426.291L9.04092 426.461L9.03091 427.341L9.71094 427.901L10.9509 428.221H9.77094L8.48093 427.731L8.21094 427.431L8.29092 427.041L10.4909 423.511L18.1409 413.661L19.1909 412.481L20.0209 411.801Z" fill="#3290A7"/>
<path d="M349.09 424.8L358.58 411.98L358.67 412.06L358.72 412.141L358.68 412.24L349.09 424.8Z" fill="#3290A7"/>
<path d="M432.48 420.211L430.23 422.221L427.8 423.941L425.59 425.181L423.26 426.221L420.8 427.061L418.21 427.691L411.71 428.641L405.54 428.991L382.76 429.021L359.98 428.991L353.88 428.811L348.91 428.301L386.22 427.941L409.23 427.981L412.91 427.871L416.46 427.441L419.88 426.671L423.18 425.581L425.62 424.531L427.98 423.281L430.27 421.841L432.48 420.211Z" fill="#3290A7"/>
<path d="M92.4802 421.219L88.9602 423.939L85.1502 425.989L81.5602 427.259L77.7402 428.009L72.3702 428.519L65.4702 428.859L55.6102 428.979L39.7302 428.839L37.2502 428.669L35.1602 428.229L71.3302 427.929L75.8602 427.719L79.5402 427.079L84.8102 425.339L87.1702 424.249L89.2902 423.029L89.8902 422.639L92.4802 421.219Z" fill="#3290A7"/>
<path d="M29.0305 428.25L26.9505 428.67L24.8705 428.87L22.0805 428.79L19.2705 428.31L29.0305 428.25Z" fill="#3290A7"/>
<path d="M189.871 428.389L179.491 429.069L169.121 429.149L162.131 428.859L155.141 428.309L163.801 428.029L172.481 427.949L189.871 428.389Z" fill="#3290A7"/>
</svg>
