<svg width="457" height="430" viewBox="0 0 457 430" fill="none" xmlns="http://www.w3.org/2000/svg">
<g clip-path="url(#clip0_777_28592)">
<rect width="457" height="430" fill="white"/>
<path d="M66.5192 1.64001L59.5592 0.619995L57.3292 0.550018L56.5292 0.800018L55.9492 1.25L55.5892 1.83002L55.4492 1.04001L56.0092 0.51001H56.0192L57.9792 0L60.2492 0.170013L66.5192 1.64001Z" fill="#3290A7"/>
<path d="M66.5198 1.64078L67.8798 1.73077L68.6398 2.14078L85.3298 6.48077L99.3898 10.6108L105.6 12.7108L111.84 15.1108L118.12 17.7908L124.43 20.7708L131.99 24.8508L142.44 31.1708L146.99 33.9708L160.17 43.2608L160.57 43.4208L161.02 44.0208L162.15 45.0708L175.08 54.8208L180.01 58.8608L184.41 62.7508L187.55 65.5308L190.05 67.4908L208.51 80.6308L225.2 92.8008L227.02 94.1308L241.38 104.011L248.33 108.681L251.34 110.581L254.25 112.151L257.04 113.391L259.72 114.291L260.43 114.491L280.69 120.511L283.55 121.621L287.25 123.431L297.21 129.171L300.57 131.581L303.74 134.201L308.2 138.591L315.73 149.171L317.91 153.211L318.01 155.041L318.57 156.191L319.1 156.611L319.49 156.671L319.83 156.051L320.24 155.291L320.31 153.841L320.59 153.531L321.07 152.421L321.11 150.971L321.2 150.721L321.3 150.571L322.56 147.541L323.03 146.621L323.67 146.081L324.55 145.931L325.62 146.211L327.35 146.751L329.07 146.931L330.8 146.751H337.02L339.03 146.631L340.84 146.281L342.63 145.711L344.38 144.921L346.11 143.911L351.41 139.961L351.46 139.911L352.15 139.531L353.66 138.871L354.5 137.951L359.27 135.781L364 134.311L368.68 133.531L373.33 133.451L377.69 134.011L382.01 135.201L386.29 137.011L390.54 139.441L394.78 142.051L401.8 148.951L404.26 153.111L406.07 155.711L406.65 156.551L408.29 159.801L409.27 161.921L409.38 162.361L409.21 162.811L405.15 169.341L401.59 176.561L400.73 178.001L399.72 178.811L398.86 179.081L397.9 179.121L395.18 178.541L394.46 177.931L394.21 177.151L393.81 177.031L393.23 177.161L392.32 177.821L392.04 178.581L392.11 179.581L391.23 180.691L390.17 181.471L388.47 181.981L386.45 181.891L385.81 180.961L385.05 180.511L384.48 180.481L383.67 180.781L383.03 181.721L381.79 182.711L380.45 183.321L377.17 184.211L373.95 184.351L371.08 183.851L368.25 182.731L367.88 182.421L367.78 182.291L367.16 181.391L366.39 180.711L366 180.481L364.91 179.171L364.14 177.721L363.98 177.311L362.58 172.061L362.5 171.931L362.24 172.011L361.95 171.111L362.15 171.391L362.33 170.971L362.34 170.731L362.21 170.301L361.91 169.981L361.5 169.811L361.05 169.851L356.94 171.301L353.57 172.861L350.74 174.611L348.33 176.611L346.15 179.061L344.33 181.831L343.29 183.981L342.61 186.081L342.29 188.141L342.34 190.161L342.42 190.731L342.36 192.231L342.24 192.151L342.17 191.651V191.641L342.15 191.631H342.14V191.641L342.15 191.651V191.671L341.72 194.781L341.62 198.171L341.9 201.591L342.05 201.891L342.32 201.711L342.85 200.891L343.04 200.071L342.94 199.391L342.63 198.711L342.77 198.761L342.99 198.531L343.16 197.901L346.28 189.841L346.94 189.121L347.91 189.031L350.8 190.231L358.33 194.391L365.71 198.911L366.36 199.271L366.93 199.941L367.97 201.111L369.16 202.061L370.21 202.671L376.15 208.771L380.54 214.151L382.49 216.071L384.28 217.481L389.21 220.391L395.86 223.571L407.78 228.961L417.26 233.911L426.52 239.201L435.82 245.021L444.9 251.211L446.18 252.221L447.31 253.511L449.61 257.421L451.22 261.011L451.35 261.791L451.1 262.651L450.44 263.491L448.31 261.901L448.14 261.631L447.15 260.741L445.73 260.161L444.99 259.741L441.87 258.401L438.48 257.571L435.87 257.151L426.23 255.501L419.27 253.971L413.31 252.201L408.14 250.101L359.06 226.161L353.02 223.441L346.16 220.311L345.54 220.271L345.09 220.671L345.08 220.711V220.721L345.53 220.971L345.12 222.761L343.83 226.321L342.37 229.251L340.7 231.661L338.77 233.621L337.08 234.871L335.14 235.941L328.5 238.851L326.87 239.211L326.76 239.201L323.99 238.601L321.28 237.461L306.27 229.251L294.22 222.251L282.31 214.991L270.56 207.461L258.96 199.661L258.51 199.231L258.23 198.671L258.13 198.061L258.24 197.441L260.43 190.471L262.24 183.241L263.68 175.751L264.73 168.011L265.1 162.681L264.97 158.501L264.36 155.691L263.89 154.791L263.27 154.201L237.57 138.931L236.53 138.021L235.37 137.361L234.48 137.041L225.18 130.301L213.72 121.931L198.4 109.891L190.07 103.271L180.88 96.2408L171.29 88.9308L164.54 83.5308L163.62 82.8708L162.46 81.5208L146.25 61.3608L140.46 54.4908L136.22 49.7708L132.16 45.6408L127.96 41.6608L120.94 35.5708L118.95 34.1608L116.97 33.1908L114.88 32.5508L112.51 32.2108L109.73 32.1508L105.92 32.3508L101.95 32.3208L97.7698 31.7108L93.2098 30.5108L88.2498 28.6908L86.6798 28.4108L84.1498 28.4608L83.2398 28.3708L82.4398 28.0808L75.4798 25.8008L74.4198 24.2208L74.0498 22.6308L74.1998 21.5008L74.6798 20.3608L79.4998 19.6308L80.9198 19.7208L82.1498 20.0708L84.8898 21.0308L87.6698 21.6108L90.5498 21.8108L90.6598 21.8008L90.9598 21.5508L90.9498 21.1508L90.5698 20.7708L90.3298 20.7608L89.8198 20.0808L88.7898 19.0008L87.5898 18.0608L85.3998 16.2308L83.0498 14.6908L79.6898 13.0908L76.0498 12.0008L75.5398 11.6108L75.0098 11.4508L74.4998 11.5208L73.6898 11.4208L73.0698 11.1208L63.5098 7.55078L61.9998 6.93079L60.2498 5.97076L58.5998 4.80078L57.0398 3.42078L55.5898 1.83078L55.9498 1.25076L56.5298 0.800781L57.3298 0.550781L59.5598 0.620758L66.5198 1.64078Z" fill="black"/>
<path d="M146.991 33.9706L142.441 31.1706L131.991 24.8506L124.431 20.7706L118.121 17.7906L111.841 15.1106L105.601 12.7106L99.3906 10.6106L85.3306 6.48063L68.6406 2.14062L72.7906 2.76063L77.2306 3.74063L95.1106 8.66061L101.751 10.8006L107.761 13.0006L118.931 17.6006L127.431 21.5706L132.021 24.0606L136.821 26.9606L141.801 30.2606L146.991 33.9706Z" fill="#3290A7"/>
<path d="M73.0717 11.1208L69.9417 10.3008L66.9318 9.20078L63.5117 7.55078L73.0717 11.1208Z" fill="#3290A7"/>
<path d="M237.57 138.929L263.269 154.199L263.889 154.789L264.36 155.689L264.969 158.499L265.099 162.679L264.729 168.009L263.68 175.749L262.24 183.239L260.43 190.469L258.24 197.439L258.13 198.059L258.229 198.669L258.51 199.229L258.959 199.659L270.56 207.459L282.31 214.989L294.219 222.249L306.269 229.249L321.279 237.459L323.99 238.599L326.76 239.199L326.87 239.209L334.339 242.899L341.949 246.069L350.88 249.329L359.88 252.379L369.36 255.339L378.909 258.069L386.579 259.929L396.789 262.019L409.529 264.329L424.81 266.879L433.699 267.849L442.69 268.749L446.719 269.049L450.889 269.009L451.25 269.139L451.409 269.489V269.499V269.769L451.38 269.879L451.289 269.929L450.209 270.209L447.56 270.769L425.389 272.559L413.039 273.129L400.92 273.259L388.829 272.949L376.979 272.219L365.229 271.039L353.729 269.429L342.279 267.369L331.099 264.899L318.449 261.489L306.279 257.529L294.589 253.009L283.38 247.919L276.43 244.089L267.779 238.549L263.409 235.469L259.029 232.109L254.769 228.549L250.5 224.699L246.279 220.599L242.039 216.209L233.38 206.359L227.189 198.769L219.12 188.939L212.83 181.759L206.809 175.519L201.009 170.199L192.129 162.839L183.33 156.079L174.61 149.909L165.969 144.329L146.65 132.839L139.509 128.909L134.039 126.189L127.629 123.189L115.999 117.789L108.099 114.389L91.3895 107.799L87.4795 106.429L82.0495 104.809L80.4795 104.359L79.5095 104.179L79.0295 104.339L79.0495 104.839L79.5595 105.679L80.6695 107.229L82.7495 109.929L90.3195 117.799L98.0395 124.989L105.92 131.519L113.95 137.379L123.129 143.399L132.67 149.189L171.45 171.649L176.509 174.619L183.819 179.129L194.219 185.829L196.58 187.369L202.67 191.589L210.279 197.429L210.42 197.679L210.319 197.949L210.3 197.969L210.029 198.209L209.87 198.289L209.68 198.249L203.83 195.449L197.71 193.129L189.36 190.499L181.74 188.399L174.87 186.849L168.74 185.829L159.62 185.159L145.259 184.819L139.439 184.229L130.39 182.539L126.95 181.639L122.849 180.269L112.65 176.059L106.719 173.279L100.8 170.249L94.8995 166.989L89.0095 163.479L79.2195 157.139L70.0295 150.539L61.4195 143.709L53.3995 136.619L48.9395 132.079L42.1995 124.659L35.6495 117.069L31.1895 111.409L27.2395 105.709L23.4795 99.8191L19.9295 93.7291L16.5795 87.4291L13.9495 81.619L11.0395 73.9791L10.7495 73.1491L8.53952 65.9391L6.89953 58.6291L5.80951 51.1391L5.26953 43.5991L5.28952 35.9191L5.86953 28.2391L7.00952 20.4791L8.69952 12.7691L9.29953 10.9491L10.0995 9.30905L10.4995 9.03906L10.9595 9.17908L11.0295 9.25906L11.8495 10.3991L14.2795 14.5291L18.3395 21.6291L22.6495 27.9091L27.1995 33.3591L31.9995 37.9891L39.5595 44.0691L47.6895 49.8491L56.7895 55.5991L67.6195 61.8091L96.8495 77.4891L117.819 88.8191L134.68 98.4391L145.8 105.309L156.58 112.539L166.99 120.119L177.059 128.059L180.87 131.339L186.089 136.189L192.46 142.049L198.219 147.459L213.409 161.859L222.819 170.429L232.229 178.209L248.01 190.709L250.17 192.329L253.789 195.099L256.3 197.519L256.44 197.639L257.089 197.739L257.579 197.279L259.519 191.579L262.38 179.439L263.32 174.289L263.94 169.759L264.3 163.909L264.19 157.139L263.93 155.739L263.289 154.689L262.55 154.119L251.779 148.049L239.12 140.369L238.159 139.649L237.57 138.929Z" fill="#3290A7"/>
<path d="M76.05 11.9992H75.97L75.23 11.8692L74.5 11.5192L75.01 11.4492L75.54 11.6092L76.05 11.9992Z" fill="#3290A7"/>
<path d="M87.5908 18.06L76.0508 12L79.6908 13.09L83.0508 14.69L85.4008 16.23L87.5908 18.06Z" fill="#3290A7"/>
<path d="M79.4996 19.6302L74.6797 20.3602L75.9396 19.5202L77.2496 19.1602L78.3597 19.2302L79.4996 19.6302Z" fill="#3290A7"/>
<path d="M90.3323 20.7603L90.5723 20.7703L90.9523 21.1503L90.9623 21.5503L90.6623 21.8003L90.5523 21.8103L87.6723 21.6103L84.8923 21.0303L82.1523 20.0703L83.5523 20.1503L85.3323 20.5303L87.3823 20.9503L89.0623 20.9903L90.3323 20.7603Z" fill="#3290A7"/>
<path d="M82.4405 28.0808L80.4705 28.0408L78.6205 27.6308L76.9905 26.8808L75.4805 25.8008L82.4405 28.0808Z" fill="#3290A7"/>
<path d="M162.462 81.5202L160.102 79.1602L156.932 75.5502L151.342 68.5802L142.522 57.6802L136.222 50.4102L130.362 44.3602L124.662 39.2802L124.312 38.9902L119.442 35.2902L117.572 34.2502L115.792 33.5602L113.662 33.0901L111.232 32.9402H102.282L98.9823 32.5102L94.4023 31.2602L89.3223 29.7602L84.1523 28.4602L86.6823 28.4102L88.2523 28.6902L93.2123 30.5102L97.7723 31.7102L101.952 32.3202L105.922 32.3502L109.732 32.1502L112.512 32.2102L114.882 32.5502L116.972 33.1902L118.952 34.1602L120.942 35.5702L127.962 41.6602L132.162 45.6402L136.222 49.7702L140.462 54.4902L146.252 61.3602L162.462 81.5202Z" fill="#3290A7"/>
<path d="M297.21 129.17L287.25 123.43L283.55 121.62L280.69 120.51L260.43 114.49L259.72 114.29L257.04 113.39L254.25 112.15L251.34 110.58L248.33 108.68L241.38 104.01L227.02 94.1299L225.2 92.7999L208.51 80.6299L190.05 67.4899L187.55 65.5299L184.41 62.7499L180.01 58.8599L175.08 54.8199L162.15 45.0699L161.02 44.0199L160.57 43.4199L168.19 48.9399L175.64 54.6799L183.44 61.0799L190.75 67.0699L196.52 71.3799L210.13 80.9899L224.42 91.4499L233.74 97.9099L243.38 104.66L248.84 108.42L254.61 111.51L259.26 113.44L264.1 114.98L274.75 117.91L281.48 120.4L286.97 122.84L291.89 125.53L296.41 128.57L297.21 129.17Z" fill="#3290A7"/>
<path d="M290.908 53.0605L289.278 56.6805L287.988 60.1605L287.048 63.5005L286.438 66.7005L285.918 71.7905L285.768 77.1105L285.958 82.6705L286.518 88.4605L287.258 92.8705L288.368 97.3905L289.798 101.84L291.578 106.25L293.598 110.42L295.898 114.44L298.388 118.11L301.128 121.52L301.708 122.21L303.218 124.31L300.138 121.25L297.748 118.24L293.938 112.11L290.808 105.83L288.358 99.4005L286.588 92.8305L285.918 89.2205L285.438 85.5605L285.078 78.1305L285.518 70.5305L286.738 62.7605L287.458 59.8305L288.398 56.9805L290.548 52.2105L290.778 51.9805L290.988 52.2405L290.998 52.2505L290.908 53.0605Z" fill="#3290A7"/>
<path d="M290.91 53.0586L291.4 60.7886L291.32 63.6786L291.95 67.5686L292.23 69.0186L293.01 72.2586L294.31 75.6786L296.04 79.0886L298.23 82.5586L300.84 85.9786L303.8 89.2686L306.95 92.2486L310.12 94.7486L313.84 97.2286L317.67 99.4286L321.6 101.339L325.63 102.979L329.55 104.269L333.56 105.309L337.66 106.099L341.85 106.639L346.14 106.919L350.52 106.959L354.99 106.739L359.55 106.269L380.58 103.209L382.93 102.979L386.14 102.959L390.27 102.889H391.05L391.06 103.049L396.71 104.329L399.75 105.199L403.67 106.979L407.23 109.129L410.4 111.649L413.2 114.519L415.33 117.359L417.15 120.449L418.64 123.799L419.79 127.409L421.46 133.169L421.29 138.449L420.26 142.729L418.87 146.779L417.12 150.589L415.01 154.159L413.52 156.249L413.11 155.599L413.07 155.089L413.11 154.999L409.84 149.519L406.04 144.479L403.11 141.259L399.93 138.239L396.5 135.449L392.81 132.859L391.76 132.319L390.8 132.109L389.76 131.209L385.74 129.369L381.69 127.929L377.59 126.899L373.45 126.269L369.37 126.049L365.25 126.219L361.09 126.769L356.89 127.709L356.15 128.169L356.11 128.239L355.48 128.369L350.67 129.429L348.03 130.299L343.44 132.339L338.73 133.959L334.95 134.939L331.09 135.669L328.98 135.789L326.4 135.589L321.65 135.309L318.72 134.269L312.05 131.089L309.49 129.489L307.06 127.719L303.22 124.309L301.71 122.209L301.13 121.519L298.39 118.109L295.9 114.439L293.6 110.419L291.58 106.249L289.8 101.839L288.37 97.3886L287.26 92.8686L286.52 88.4586L285.96 82.6686L285.77 77.1086L285.92 71.7886L286.44 66.6986L287.05 63.4986L287.99 60.1586L289.28 56.6786L290.91 53.0586Z" fill="black"/>
<path d="M291.4 60.7891L291.87 63.1091L292.17 65.1091L293.02 69.5491L294.21 73.5091L295.67 77.0991L297.4 80.3091L299.39 83.1491L303.61 87.9391L308.13 92.1691L312.95 95.8391L318.07 98.9491L321.07 100.439L324.17 101.759L330.65 103.869L337.5 105.269L344.74 105.959L349.74 106.049L355.04 105.859L360.46 105.409L366.01 104.699L376.02 103.339L386.23 102.259L387.86 102.359L390.27 102.889L386.14 102.959L382.93 102.979L380.58 103.209L359.55 106.269L354.99 106.739L350.52 106.959L346.14 106.919L341.85 106.639L337.66 106.099L333.56 105.309L329.55 104.269L325.63 102.979L321.6 101.339L317.67 99.4291L313.84 97.2291L310.12 94.7491L306.95 92.2491L303.8 89.2691L300.84 85.9791L298.23 82.5591L296.04 79.0891L294.31 75.6791L293.01 72.2591L292.23 69.0191L291.95 67.5691L291.32 63.6791L291.4 60.7891Z" fill="#3290A7"/>
<path d="M234.479 137.039L223.329 129.729L214.949 123.539L197.799 109.909L168.549 87.4493L166.809 85.9193L164.539 83.5293L171.289 88.9293L180.879 96.2393L190.069 103.269L198.399 109.889L213.719 121.929L225.179 130.299L234.479 137.039Z" fill="#3290A7"/>
<path d="M421.462 133.169L419.792 127.409L418.642 123.799L417.152 120.449L415.332 117.359L413.202 114.519L410.402 111.649L407.232 109.129L403.672 106.979L399.753 105.199L396.712 104.329L391.062 103.049L392.622 102.969L394.142 103.129L394.592 103.219L400.212 104.859L402.772 105.889L405.182 107.079L407.422 108.409L409.503 109.889L411.422 111.509L413.182 113.289L414.802 115.239L416.253 117.349L417.542 119.599L418.663 122.009L419.612 124.569L420.392 127.289L421.462 133.169Z" fill="#3290A7"/>
<path d="M390.799 132.111L386.639 130.171L382.439 128.641L378.189 127.531L373.889 126.831L369.509 126.551L365.089 126.691L360.629 127.261L356.109 128.241L356.149 128.171L356.889 127.711L361.089 126.771L365.249 126.221L369.369 126.051L373.449 126.271L377.589 126.901L381.689 127.931L385.739 129.371L389.759 131.211L390.799 132.111Z" fill="#3290A7"/>
<path d="M355.478 128.371L338.298 134.831L334.598 135.851L330.588 136.271L326.268 136.091L321.648 135.311L326.398 135.591L328.978 135.791L331.088 135.671L334.948 134.941L338.728 133.961L343.438 132.341L348.028 130.301L350.668 129.431L355.478 128.371Z" fill="#3290A7"/>
<path d="M318.721 134.27L315.641 133.28L312.931 131.76L312.051 131.09L318.721 134.27Z" fill="#3290A7"/>
<path d="M413.111 154.999L410.171 150.619L406.991 146.509L403.561 142.669L399.891 139.109L395.501 135.439L390.801 132.109L391.761 132.319L392.811 132.859L396.501 135.449L399.931 138.239L403.111 141.259L406.041 144.479L409.841 149.519L413.111 154.999Z" fill="#3290A7"/>
<path d="M394.78 142.05L390.54 139.44L386.29 137.01L382.01 135.2L377.69 134.01L373.33 133.45L368.68 133.53L364 134.31L359.27 135.78L354.5 137.95L358.93 135.55L361.3 134.62L363.71 133.89L367.68 133.14L371.69 132.92L375.78 133.21L379.83 134.02L383.81 135.33L387.66 137.12L391.33 139.36L394.78 142.05Z" fill="#3290A7"/>
<path d="M237.57 138.929L236.35 138.509L235.36 137.889L234.48 137.039L235.37 137.359L236.53 138.019L237.57 138.929Z" fill="#3290A7"/>
<path d="M354.498 137.949L353.658 138.869L352.148 139.529L352.428 139.239L353.368 138.499L354.498 137.949Z" fill="#3290A7"/>
<path d="M315.729 149.17L308.199 138.59L310.519 140.96L312.559 143.54L314.279 146.26L315.729 149.17Z" fill="#3290A7"/>
<path d="M421.29 138.449L420.66 143.039L419.41 147.409L418.41 149.849L417.2 152.219L415.79 154.509L414.17 156.719L413.91 156.859L413.64 156.739L413.6 156.689L413.59 156.679L413.52 156.249L415.01 154.159L417.12 150.589L418.87 146.779L420.26 142.729L421.29 138.449Z" fill="#3290A7"/>
<path d="M351.41 139.961L346.11 143.911L344.38 144.921L342.63 145.711L340.84 146.281L339.03 146.631L337.02 146.751L340.72 145.481L344.35 143.921L347.91 142.081L351.41 139.961Z" fill="#3290A7"/>
<path d="M330.801 146.75L329.071 146.93L327.351 146.75L325.621 146.21L324.551 145.93L323.671 146.08L323.031 146.62L322.561 147.54L321.301 150.57L321.411 149.15L321.761 147.82L322.941 145.7L323.491 145.31L324.171 145.27L330.801 146.75Z" fill="#3290A7"/>
<path d="M395.18 178.539L397.9 179.119L398.86 179.079L399.72 178.809L400.73 177.999L401.59 176.559L405.15 169.339L409.21 162.809L409.38 162.359L409.27 161.919L408.29 159.799L406.65 156.549L406.07 155.709L404.26 153.109L401.8 148.949L404.1 151.789L406.12 154.809L407.79 157.839L409.2 161.039L409.4 162.609L409.04 164.039L402.66 176.189L401.34 178.329L400.05 179.559L399.15 179.969L398.25 180.109L396.72 179.719L395.18 178.539Z" fill="#3290A7"/>
<path d="M320.312 153.839L320.323 153.569L320.562 152.259L321.112 150.969L321.073 152.419L320.592 153.529L320.312 153.839Z" fill="#3290A7"/>
<path d="M317.91 153.211L318.48 154.411L319.23 155.441V155.451L319.83 156.051L319.49 156.671L319.1 156.611L318.57 156.191L318.01 155.041L317.91 153.211Z" fill="#3290A7"/>
<path d="M21.08 171.38L19.85 169.85L18.91 168.02L18.5 166.35L18.67 165.04L19.74 163.06L21.1 161.52L22.31 160.61L23.64 159.93L25.19 159.41L26.83 159.09L30.78 158.99L35.43 159.63L46.31 162.14L56.86 165.35L67.17 169.28L77.03 173.86L95.03 183.03L95.3 183.36L95.25 183.78L95.24 183.8L95.09 183.97L94.22 184.13L82.92 182.48L71.06 181.01L58.65 179.71L45.69 178.59L38.97 177.86L32.04 176.71L28.95 175.93L26.15 174.83L23.64 173.42L21.41 171.69L21.08 171.38Z" fill="#3290A7"/>
<path d="M361.949 171.109L359.929 171.129L358.009 171.469L356.109 172.139L353.259 173.579L350.739 175.269L348.539 177.199L346.669 179.379L345.099 181.839L343.869 184.549L342.969 187.509L342.419 190.729L342.339 190.159L342.289 188.139L342.609 186.079L343.289 183.979L344.329 181.829L346.149 179.059L348.329 176.609L350.739 174.609L353.569 172.859L356.939 171.299L361.049 169.849L361.499 169.809L361.909 169.979L362.209 170.299L362.339 170.729L362.329 170.969L362.149 171.389L361.949 171.109Z" fill="#3290A7"/>
<path d="M363.981 177.31L362.681 175.02L362.341 173.87L362.211 172.72L362.241 172.01L362.501 171.93L362.581 172.06L363.981 177.31Z" fill="#3290A7"/>
<path d="M394.459 177.929L393.319 178.569L392.109 179.579L392.039 178.579L392.319 177.819L393.229 177.159L393.809 177.029L394.209 177.149L394.459 177.929Z" fill="#3290A7"/>
<path d="M367.78 182.29L367.08 181.98L366.54 181.52L366 180.48L366.39 180.71L367.16 181.39L367.78 182.29Z" fill="#3290A7"/>
<path d="M386.451 181.89L385.211 181.58L383.831 181.35L383.031 181.72L383.671 180.78L384.481 180.48L385.051 180.51L385.811 180.96L386.451 181.89Z" fill="#3290A7"/>
<path d="M380.45 183.32L378.63 184.25L376.85 184.85L375.11 185.12L373.42 185.07L372.08 184.8L370.78 184.32L368.25 182.73L371.08 183.85L373.95 184.35L377.17 184.21L380.45 183.32Z" fill="#3290A7"/>
<path d="M365.71 198.909L358.33 194.389L350.8 190.229L347.91 189.029L346.94 189.119L346.28 189.839L343.16 197.899L343.63 195.029L344.54 192.359L345.55 190.439L346.82 188.639L347.33 188.309L347.93 188.359L350.37 189.469L354.69 191.679L358.86 194.129L362.34 196.429L365.71 198.909Z" fill="#3290A7"/>
<path d="M342.361 192.229L342.631 198.709L342.941 199.389L343.041 200.069L342.851 200.889L342.321 201.709L342.051 201.889L341.901 201.589L341.621 198.169L341.721 194.779L342.151 191.669V191.649L342.141 191.639V191.629H342.151L342.171 191.639V191.649L342.241 192.149L342.361 192.229Z" fill="#3290A7"/>
<path d="M181.94 203.029L175.61 204.319L169.4 205.999L163.66 207.939L158.02 210.239L152.49 212.879L147.06 215.879L145.6 216.629L144.37 217.049L143.56 217.329L143.26 217.669L143.46 218.079L144.18 218.549L157.22 225.339L197.35 246.049L212.28 253.479L226.46 260.299L233.49 263.589L245.84 268.899L258.65 273.569L271.75 277.559L285.25 280.889L299.05 283.549L313.17 285.529L327.4 286.799L341.87 287.379L341.98 287.339L342.02 287.219V286.809L341.97 286.659L341.83 286.589L317.86 283.089L306.71 280.879L295.15 277.989L283.17 274.429L270.78 270.189L263.61 267.299L257.99 264.419L273.99 270.689L281.29 273.309L287.72 275.259L296.99 277.869L303.22 279.459L312.05 281.239L317.45 282.289L323.44 283.299L332.61 284.479L341.08 285.569L346.03 286.179L350.56 286.489L365.05 286.949L378.15 287.139L389.88 287.049L400.23 286.689L413.78 285.829L427.58 284.599L441.65 283.029L455.97 281.089L456.11 281.109L456.18 281.259L456.14 281.529L455.95 281.759L446.28 285.289L431.63 288.959L416.86 291.929L406.72 293.549L396.52 294.849L386.26 295.819L375.94 296.469L365.57 296.789L355.14 296.779L344.65 296.449L334.1 295.789L319.25 294.459L305.69 292.859L293.42 290.999L282.44 288.879L262.91 284.459L249.09 280.879L235.33 276.649L221.62 271.759L207.97 266.219L195.19 260.469L173.99 250.599L166.32 246.989L144.46 236.759L128.52 229.489L114.29 223.259L101.56 217.999L91.04 214.299L74.76 209.299L65.21 206.749L55.28 204.629L44.95 202.939L34.23 201.669L27.08 201.149L19.68 200.929L12.04 201.019L4.15002 201.419L2.88 201.589L1.58002 201.759L0.570007 201.689L0.540009 201.679L0 201.399L0.440002 200.959L3.47 199.619L7.70001 198.209L17.23 195.669L26.68 193.789L36.04 192.579L45.31 192.039H51.6L57.97 192.309L64.5 192.859L71.06 193.679L77.64 194.759L84.21 196.099L90.72 197.689L97.16 199.519L108.38 203.179L119.57 207.269L130.73 211.809L141.87 216.789L142.85 216.989L143.82 216.739L159.37 208.909L162.83 207.379L166.34 206.079L169.9 204.999L173.5 204.139L177.69 203.439L181.94 203.029Z" fill="#3290A7"/>
<path d="M370.21 202.669L369.16 202.059L367.97 201.109L366.93 199.939L367.79 200.479L369.06 201.489L370.21 202.669Z" fill="#3290A7"/>
<path d="M189.44 202.819L187.64 202.909L186.93 202.759L187.83 202.379H188.63L189.44 202.819Z" fill="#3290A7"/>
<path d="M186.932 202.76L187.642 202.91L189.442 202.82L193.272 202.81L196.932 203.2L200.402 203.96L203.702 205.12L213.372 209.23L220.452 213.93L227.742 220.95L232.602 226.8L237.792 232.15L243.332 237L249.212 241.34L252.952 243.72L256.812 245.92L260.792 247.94L264.902 249.77L265.682 249.72L265.982 249.99L266.122 250.41L265.932 250.85L265.332 251.39L264.522 251.72L263.842 251.89L262.872 252.39L251.522 260.45L251.202 261.07L251.502 261.69L251.692 261.8L254.682 262.97L255.422 263.57L256.142 263.75L256.552 263.66L257.992 264.42L263.612 267.3L270.782 270.19L283.172 274.43L295.152 277.99L306.712 280.88L317.862 283.09L341.832 286.59L341.972 286.66L342.022 286.81V287.22L341.982 287.34L341.872 287.38L327.402 286.8L313.172 285.53L299.052 283.55L285.252 280.89L271.752 277.56L258.652 273.57L245.842 268.9L233.492 263.59L226.462 260.3L212.282 253.48L197.352 246.05L157.222 225.34L144.182 218.55L143.462 218.08L143.262 217.67L143.562 217.33L144.372 217.05L145.602 216.63L147.062 215.88L152.492 212.88L158.022 210.24L163.662 207.94L169.402 206L175.612 204.32L181.942 203.03L186.932 202.76Z" fill="black"/>
<path d="M213.369 209.231L203.699 205.121L206.359 205.841L208.859 206.761L211.199 207.891L213.369 209.231Z" fill="#3290A7"/>
<path d="M376.148 208.77L378.798 211.8L381.618 214.46L384.608 216.77L387.758 218.72L393.508 221.65L401.918 225.56L410.558 229.609L417.408 233.21L424.128 237.02L433.008 242.479L441.668 248.33L443.558 249.859L444.898 251.21L435.818 245.02L426.518 239.2L417.258 233.91L407.778 228.96L395.858 223.57L389.208 220.39L384.278 217.479L382.488 216.07L380.538 214.15L376.148 208.77Z" fill="#3290A7"/>
<path d="M220.451 213.93L213.371 209.23L215.291 210.14L217.981 211.84L220.451 213.93Z" fill="#3290A7"/>
<path d="M445.728 260.16L440.328 258.41L436.368 257.58L428.408 256.52L421.698 255.24L415.728 253.65L410.378 251.7L403.048 248.45L377.448 235.68L351.468 223.1L346.768 221.37L345.528 220.97L345.078 220.72V220.71L345.088 220.669L345.538 220.27L346.158 220.31L353.018 223.44L359.058 226.16L408.138 250.1L413.308 252.2L419.268 253.97L426.228 255.5L435.868 257.15L438.478 257.57L441.868 258.4L444.988 259.74L445.728 260.16Z" fill="#3290A7"/>
<path d="M264.898 249.769L260.788 247.939L256.808 245.919L252.948 243.719L249.208 241.339L243.328 236.999L237.788 232.149L232.598 226.799L227.738 220.949L237.458 230.789L243.828 236.669L248.018 239.869L252.928 243.129L258.558 246.419L264.898 249.769Z" fill="#3290A7"/>
<path d="M345.12 222.76L345.23 224.05L345.06 225.07L344.09 227.43L342.92 229.58L341.54 231.52L339.96 233.25L337.61 235.18L334.91 236.76L331.88 237.98L328.5 238.85L335.14 235.94L337.08 234.87L338.77 233.62L340.7 231.66L342.37 229.25L343.83 226.32L345.12 222.76Z" fill="#3290A7"/>
<path d="M95.8313 224.91L88.5312 229.14L91.8613 226.78L95.8313 224.91Z" fill="#3290A7"/>
<path d="M103.23 227.54L115.43 233.19L115.68 233.17L116.25 233.51L144.91 246.96L149.45 249L158.49 253.29L160.17 253.85L161.77 254.77L173.44 260.24L173.66 260.25L174.19 260.56L191.49 268.28L192.11 268.38L192.57 268.65L192.74 268.85L210.71 275.9L212.67 276.45L212.27 277.12L211.58 277.36L204.61 277.64L197.31 277.41L189.7 276.67L181.76 275.42L180.44 275.33L178.51 275.1L174.48 274.01L168.7 272.86L164.62 272.07L152.85 269.22L145.68 267.52L138.47 266.09L131.24 264.94L123.99 264.07L117.41 263.52L110.82 263.2L97.7705 263.33L93.4505 263.36L89.1405 263.58L83.0005 264.26L76.8905 265.34L65.9605 267.87L57.1305 270.39L46.9505 273.97L31.9305 279.69L30.2605 280.1L28.7905 279.96L27.8505 279.52L27.2505 278.89L26.9805 278.05L27.0405 277.01L27.8705 274.35L29.3105 271.57L38.6105 257.03L38.8405 256.43L39.7005 255.78L46.5605 248.83L48.2705 247.19L50.1005 245.76L52.1005 244.45L54.3805 243.22L59.4905 241.12L66.8605 238.86L70.6905 237.74L74.6005 236.36L78.8805 234.47L83.5205 232.06L88.5305 229.14L95.8305 224.91L97.6205 225.13L99.4505 225.65L101.32 226.45L103.23 227.54Z" fill="black"/>
<path d="M88.5292 229.14L83.5192 232.06L78.8792 234.47L74.5992 236.36L70.6892 237.74L66.8592 238.86L59.4892 241.12L54.3792 243.22L52.0992 244.45L50.0992 245.76L48.2692 247.19L46.5592 248.83L39.6992 255.78L43.1492 251.34L47.0692 247.45L51.3892 244.21L55.9692 241.7L58.7192 240.57L61.5992 239.66L66.4192 238.25L71.1292 236.65L79.4992 233.26L87.6892 229.22L88.4292 229.1L88.5292 229.14Z" fill="#3290A7"/>
<path d="M264.519 251.719L252.459 260.409L252.149 260.999L252.439 261.609L252.619 261.709L253.049 261.899L254.679 262.969L251.689 261.799L251.499 261.689L251.199 261.069L251.519 260.449L262.869 252.389L263.839 251.889L264.519 251.719Z" fill="#3290A7"/>
<path d="M450.443 263.49L451.103 262.65L451.353 261.79L451.223 261.01L449.612 257.42L447.312 253.51L448.492 254.81L449.783 256.67L450.802 258.75L451.552 261.05L452.042 263.56L451.892 263.97L451.473 264.09L451.323 264.03L450.443 263.49Z" fill="#3290A7"/>
<path d="M38.6128 257.029L29.3128 271.569L27.8728 274.349L27.0428 277.009L26.9828 278.049L27.2528 278.889L27.8528 279.519L28.7928 279.959L30.2628 280.099L31.9328 279.689L46.9528 273.969L57.1328 270.389L65.9628 267.869L76.8928 265.339L83.0028 264.259L89.1428 263.579L93.4528 263.359L97.7728 263.329L88.8328 264.319L80.3928 265.559L72.4628 267.059L65.0428 268.819L58.4928 270.699L51.4128 273.049L43.8228 275.859L35.7128 279.139L33.0028 280.069L32.3128 280.269L29.9228 280.799L29.0828 280.789L28.2928 280.569L27.4428 279.979L26.6628 278.949L26.3828 277.629L26.6928 275.699L27.6428 273.089L29.1128 270.139L31.9628 265.509L35.1128 261.149L38.6128 257.029Z" fill="#3290A7"/>
<path d="M448.31 261.9L447.6 261.6L446.61 260.98L445.73 260.16L447.15 260.74L448.14 261.63L448.31 261.9Z" fill="#3290A7"/>
<path d="M212.67 276.449L213.16 276.579L213.51 276.969L213.55 277.079L213.47 277.549L213.06 277.779L206.51 278.089L200.04 278.029L193.64 277.609L187.3 276.819L170.4 273.839L153.7 270.119L143.23 267.729L134.13 266.029L129.86 265.379L120.36 264.139L110.82 263.199L117.41 263.519L123.99 264.069L131.24 264.939L138.47 266.089L145.68 267.519L152.85 269.219L164.62 272.069L168.7 272.859L174.48 274.009L178.51 275.099L180.44 275.329L181.76 275.419L189.7 276.669L197.31 277.409L204.61 277.639L211.58 277.359L212.27 277.119L212.67 276.449Z" fill="#3290A7"/>
<path d="M256.55 263.659L256.14 263.749L255.42 263.569L254.68 262.969L256.55 263.659Z" fill="#3290A7"/>
<path d="M107.179 322.24L106.369 321.859L104.739 321.6L74.1488 321.93L46.4088 321.96L42.4588 322.09L38.7788 322.53L35.6087 323.24L32.9688 324.21L25.9688 327.5L29.3588 325.359L32.9088 323.68L36.6287 322.45L40.6488 321.63L45.2188 321.169L50.7488 321.02L106.689 321.15L107.109 321.27L107.349 321.66L107.369 321.84L107.179 322.24Z" fill="#3290A7"/>
<path d="M195.918 339.68L207.688 324.07L208.318 322.99V322.22L207.698 321.77L206.458 321.64L182.848 321.9L159.398 321.92L154.308 321.99L149.908 322.25L146.188 322.69L143.168 323.32L139.508 324.48L136.218 325.85L133.038 327.49L129.968 329.41L126.988 331.61L127.958 330.62L131.508 327.73L135.628 325.38L140.458 323.49L146.108 322.01L151.058 321.3L157.188 321.04L188.108 321.01L206.028 321.22L208.078 321.44L208.708 321.74L209.018 322.14L208.998 322.64L208.648 323.24L195.918 339.68Z" fill="#3290A7"/>
<path d="M274.699 383.18L272.809 380.38L271.129 377.47L270.809 376.859L267.439 370.299L253.279 344.41L242.089 323.82L241.509 323.04L240.749 322.45L239.869 322.07L238.909 321.93L217.289 321.66L226.469 321.03L237.489 321.02L239.469 321.33L241.059 322.15L242.299 323.549L249.819 336.66L262.699 360.53L267.089 368.72L268.999 372.19L272.459 378.57L274.699 383.18Z" fill="#3290A7"/>
<path d="M315.011 428.19L334.771 428.13L335.471 427.99L336.071 427.58L336.471 426.99L336.611 426.28V323.5V323.49L336.481 322.85L336.111 322.31L335.561 321.95L334.911 321.83L316.711 321.97L315.621 322.08L314.651 322.41L313.471 323.25L312.511 324.53L300.661 345.78L300.091 346.4L299.941 346.47L312.811 322.92L313.391 322.12L314.171 321.51L315.071 321.12L316.051 320.99H335.151L335.941 321.15L336.611 321.59L337.051 322.26L337.211 323.05V426.95L337.051 427.73L336.611 428.4L335.951 428.84L335.171 429L315.981 428.99L315.751 428.96L315.341 428.7L315.011 428.19Z" fill="#3290A7"/>
<path d="M446.351 321.401L416.791 321.951L387.301 321.981L382.221 322.071L378.551 322.401L377.791 322.531L375.021 323.241L372.251 324.301L369.321 325.771L365.551 327.981L363.391 329.271L366.221 326.931L368.681 325.361L371.341 324.061L374.181 323.021L377.211 322.241L383.841 321.171L389.981 320.801L418.131 320.921L446.351 321.401Z" fill="#3290A7"/>
<path d="M107.181 322.24L106.491 324.11L105.631 325.25L92.2713 342.5L91.7513 342.95L89.9913 343.94L88.4813 344.26L61.8013 344.13L46.5613 344.17L42.2913 344.41L39.5313 345.05L37.8613 345.98L36.5013 347.18L35.4913 348.55L34.7813 350.1L34.3613 351.81L34.2313 353.64L34.3913 356.46L34.7213 358.21L35.3913 359.75L36.7913 361.49L37.4113 361.93L40.1213 363.37L43.2013 364.28L56.2313 364.57L74.2313 364.48L77.8313 364.64L81.3213 365.24L83.9513 365.99L86.5113 366.99L89.0113 368.25L91.4513 369.76L91.7313 369.95L93.8713 371.62L95.8413 373.51L97.6613 375.64L99.3113 378L100.971 380.84L102.291 383.55L103.271 386.15L103.901 388.63L104.471 393.21L104.431 397.74L103.751 402.31L102.431 406.83L100.471 411.3L97.8613 415.72L92.4813 421.22L89.8913 422.64L89.2913 423.03L87.1713 424.25L84.8113 425.34L79.5413 427.08L75.8613 427.72L71.3313 427.93L35.1613 428.23L29.0313 428.25L19.2713 428.31L10.9513 428.22L9.71128 427.9L9.03125 427.34L9.04126 426.46L9.14127 426.29L20.0213 411.8L20.1813 411.71L20.4813 411.23L21.7313 409.71L24.2613 406.84L25.3313 406.13L26.2313 405.92H73.7213L75.2613 405.78L76.6913 405.35L77.9313 404.69L81.4413 401.06L82.3413 399.3L82.9113 397.61L83.1413 395.97L83.0413 394.39L82.6213 392.91L81.8813 391.48L80.8213 390.11L79.4513 388.8L77.2713 387.21L75.4813 386.46L72.6313 386.2L68.3113 386.35L65.1513 386.47L40.3513 386.38L36.6913 386.06L32.7113 384.98L28.8713 383.12L24.4913 380.6L19.3713 375.54L17.0513 371.85L15.2013 368.08L13.8313 364.22L12.9213 360.29L12.4813 356V353.06L12.7213 350.18L13.1913 347.38L13.9013 344.66L15.0913 341.41L16.6413 338.26L18.5513 335.23L20.8213 332.31L20.9713 332.02L20.9213 331.73L20.8913 331.69L21.9613 331.04L23.7213 329.66L25.2913 328L25.5513 327.73L25.9713 327.5L32.9713 324.21L35.6113 323.24L38.7813 322.53L42.4613 322.09L46.4113 321.96L74.1513 321.93L104.741 321.6L106.371 321.86L107.181 322.24Z" fill="black"/>
<path d="M195.92 339.681L195.2 340.901L194.16 342.001L193.35 342.761L192.36 343.391L191.22 343.831L189.93 344.081L188.49 344.151L153.38 344.421L148.34 344.831L146.4 345.281L144.84 345.901L141.74 347.901L140.51 349.031L139.48 350.271L138.19 352.451L137.3 354.931L136.72 357.841L136.44 361.341L136.26 372.591L136.32 389.921L136.52 393.081L137.04 395.251L137.98 397.211L139.14 399.051L140.51 400.731L142.06 402.221L143.73 403.461L145.56 404.471L147.42 405.191L149.39 405.651L151.54 405.821L188.73 405.871L193.49 405.581L205.96 405.831L206.87 405.971L207.32 405.761L208.86 405.971L209.18 406.261L209.16 406.691L208.37 408.291L207.32 409.641L206.4 410.471L192.65 427.931L189.87 428.391L172.48 427.951L163.8 428.031L155.14 428.311L148.43 428.041L143.42 426.821L138.99 425.581L134.82 423.771L130.82 421.361L127.16 418.471L123.78 415.021L120.86 411.171L118.44 407.011L116.55 402.591L115.85 400.291L115.32 397.861L114.77 392.551L114.64 386.421L114.8 382.391L115.01 377.651L114.77 371.831L114.48 363.731L114.82 356.301L115.26 352.961L115.97 349.741L116.94 346.651L118.18 343.681L119.78 340.651L121.69 337.761L123.89 335.021L126.4 332.411L126.68 331.731L127 331.471L126.99 331.611L129.97 329.411L133.04 327.491L136.22 325.851L139.51 324.481L143.17 323.321L146.19 322.691L149.91 322.251L154.31 321.991L159.4 321.921L182.85 321.901L206.46 321.641L207.7 321.771L208.32 322.221V322.991L207.69 324.071L195.92 339.681Z" fill="black"/>
<path d="M315.011 428.19L314.541 427.88L314.301 427.5L314.261 427.23L314.341 383.39L314.171 374.71L313.971 374.11L313.931 374.06L313.671 373.76L313.541 373.43L313.611 373.3L314.171 372.5L314.271 371.77L314.071 371.31L313.651 370.89L313.391 370.72L312.861 370.71L312.451 371.06L293.571 405.04L292.321 407.26L288.851 412.63L287.921 413.65L286.991 414.05L282.351 414.44L277.391 414.54L272.101 414.35L266.481 413.88L265.031 412.34L245.581 378.12L243.891 375.4L242.411 373.41L241.831 372.17L240.941 371.03L240.811 370.48L240.531 370.11L240.221 369.95L239.821 369.97L239.691 370.34V426.48L239.571 427.08L239.231 427.59L238.721 427.92L238.121 428.04L217.281 427.79L217.291 321.66L238.911 321.93L239.871 322.07L240.751 322.45L241.511 323.04L242.091 323.82L253.281 344.41L267.441 370.3L270.811 376.86L271.131 377.47L272.811 380.38L274.701 383.18L276.061 385.48L276.111 386.47L276.481 387.08L276.921 387.28L277.521 387.3L278.041 387.11L278.411 386.7L299.941 346.47L300.091 346.4L300.661 345.78L312.511 324.53L313.471 323.25L314.651 322.41L315.621 322.08L316.711 321.97L334.911 321.83L335.561 321.95L336.111 322.31L336.481 322.85L336.611 323.49V323.5V426.28L336.471 426.99L336.071 427.58L335.471 427.99L334.771 428.13L315.011 428.19Z" fill="black"/>
<path d="M446.35 321.398L445.93 323.948L440.11 331.238L434.61 338.728L432.88 340.848L432.24 341.588L430.36 343.508L429.53 343.978L428.62 344.188L428.43 344.198L387.23 344.328L383.07 344.568L379.76 345.248L377.21 346.398L375.31 348.038L374.07 350.118L373.42 352.598L373.3 354.528L373.49 356.338L374 358.108L374.8 359.708L376.54 361.778L378.82 363.328L381.44 364.278L384.41 364.608L406.19 364.598L411.41 364.618L415.82 364.828L419.4 365.228L422.17 365.808L424.58 366.598L426.86 367.578L429.01 368.738L431.03 370.078L433.32 371.968L435.41 374.128L437.31 376.568L439 379.278L441.19 383.878L442.65 388.558L443.38 393.258V397.958L442.75 402.208L441.5 406.388L439.69 410.388L437.29 414.258L435.04 417.878L432.48 420.208L430.27 421.838L427.98 423.278L425.62 424.528L423.18 425.578L419.88 426.668L416.46 427.438L412.91 427.868L409.23 427.978L386.22 427.938L348.91 428.298L348.41 426.908L348.49 425.718L349.09 424.798L358.68 412.238L358.72 412.138L358.67 412.058L358.58 411.978L358.74 411.758L358.83 411.848L363.68 406.438L364.99 405.888L366.68 405.538L389.12 406.018L411.49 405.978L413.44 405.828L415.2 405.438L416.77 404.798L418.15 403.918L419.53 402.578L420.64 400.908L421.52 398.808L421.92 396.668L421.82 394.258L421.14 391.798L420.7 391.078L420.18 390.668L420.09 390.478L419.44 389.458L418.63 388.628L417.51 387.928L416.18 387.478L415.23 387.368L414.37 387.068L413.93 386.808L382.97 386.588L379.85 386.448L376.85 386.018L373.88 385.278L371.06 384.258L368.76 383.178L366.59 381.918L364.46 380.438L362.48 378.778L360.63 376.948L358.94 374.978L357.41 372.878L356.05 370.648L354.87 368.308L353.87 365.858L353.07 363.338L352.46 360.748L352.07 358.158L351.89 355.528L351.92 352.868L352.16 350.198L352.89 346.438L354.07 342.708L356.18 338.468L358.31 334.238L361.18 331.248L361.22 331.238L361.9 330.818L362.46 330.058L363.05 329.838L363.24 329.598L363.19 329.468L363.39 329.268L365.55 327.978L369.32 325.768L372.25 324.298L375.02 323.238L377.79 322.528L378.55 322.398L382.22 322.068L387.3 321.978L416.79 321.948L446.35 321.398Z" fill="black"/>
<path d="M445.931 323.949L431.671 343.259L430.961 344.009L430.101 344.569L429.131 344.919L428.111 345.039L385.231 344.959L382.611 345.129L380.341 345.649L378.431 346.519L376.861 347.739L375.671 349.279L374.661 351.449L374.201 353.659L374.301 355.969L374.991 358.329L376.101 360.369L377.581 361.959L378.971 362.889L380.591 363.539L382.421 363.939L384.481 364.059L413.241 364.049L417.241 364.279L420.981 364.939L424.481 366.059L427.721 367.609L428.751 368.229L432.201 370.669L435.231 373.369L437.791 376.259L439.941 379.419L441.241 381.889L442.311 384.529L443.171 387.319L443.791 390.289L444.161 393.349L444.261 396.339L444.061 399.269L443.591 402.149L442.381 406.279L440.551 410.279L438.101 414.149L435.041 417.879L437.291 414.259L439.691 410.389L441.501 406.389L442.751 402.209L443.381 397.959V393.259L442.651 388.559L441.191 383.879L439.001 379.279L437.311 376.569L435.411 374.129L433.321 371.969L431.031 370.079L429.011 368.739L426.861 367.579L424.581 366.599L422.171 365.809L419.401 365.229L415.821 364.829L411.411 364.619L406.191 364.599L384.411 364.609L381.441 364.279L378.821 363.329L376.541 361.779L374.801 359.709L374.001 358.109L373.491 356.339L373.301 354.529L373.421 352.599L374.071 350.119L375.311 348.039L377.211 346.399L379.761 345.249L383.071 344.569L387.231 344.329L428.431 344.199L428.621 344.189L429.531 343.979L430.361 343.509L432.241 341.589L432.881 340.849L434.611 338.729L440.111 331.239L445.931 323.949Z" fill="#3290A7"/>
<path d="M25.2906 328L23.7206 329.66L21.9606 331.04L20.8906 331.69L25.2906 328Z" fill="#3290A7"/>
<path d="M363.191 329.469L363.241 329.599L363.051 329.839L362.461 330.059L362.831 329.619L363.191 329.469Z" fill="#3290A7"/>
<path d="M362.46 330.059L361.9 330.819L361.22 331.239L361.18 331.249L361.75 330.349L362.46 330.059Z" fill="#3290A7"/>
<path d="M20.8903 331.689L20.9203 331.729L20.9703 332.019L20.8203 332.309L18.5503 335.229L16.6403 338.259L15.0903 341.409L13.9003 344.659L13.1903 347.379L12.7203 350.179L12.4803 353.059V355.999L12.9203 360.289L13.8303 364.219L15.2003 368.079L17.0503 371.849L19.3703 375.539L17.0203 372.409L15.1203 369.059L13.7703 365.769L12.8103 362.289L12.2503 358.619L12.0703 354.759L12.3103 350.479L12.9903 346.429L14.1203 342.609L15.6903 339.009L18.0003 335.199L20.8903 331.689Z" fill="#3290A7"/>
<path d="M126.681 331.73L126.401 332.411L123.891 335.021L121.691 337.76L119.781 340.651L118.181 343.68L116.941 346.651L115.971 349.74L115.261 352.961L114.821 356.3L114.481 363.73L114.771 371.831L115.011 377.651L114.801 382.391L114.641 386.42L114.771 392.55L115.321 397.86L115.851 400.291L116.551 402.591L118.441 407.01L120.861 411.17L123.781 415.021L127.161 418.471L130.821 421.36L134.821 423.771L138.991 425.581L143.421 426.82L148.431 428.041L144.331 427.55L140.451 426.67L136.781 425.401L133.321 423.75L131.021 422.351L128.821 420.75L126.731 418.971L124.741 416.99L121.541 413.031L118.051 407.701L116.751 404.82L115.261 400.141L114.661 396.711L114.501 392.211L114.261 378.01L114.031 363.531L114.361 354.5L116.421 346.771L117.851 342.88L119.751 339.57L122.691 335.67L125.481 332.5L125.661 332.331L126.681 331.73Z" fill="#3290A7"/>
<path d="M358.313 334.24L356.183 338.47L354.073 342.71L352.893 346.44L352.163 350.2L351.923 352.87L351.893 355.53L352.073 358.16L352.463 360.75L353.073 363.34L353.873 365.86L354.873 368.31L356.053 370.65L357.413 372.88L358.943 374.98L360.633 376.95L362.483 378.78L364.463 380.44L366.593 381.92L368.763 383.18L371.063 384.26L373.883 385.28L376.853 386.02L379.853 386.45L382.973 386.59L413.933 386.81L388.543 387.04L379.453 386.77L376.113 386.4L373.563 385.86L369.993 384.57L366.263 382.58L362.903 380.1L359.833 377.07L357.203 373.65L354.933 369.72L353.173 365.5L351.933 361.07L351.243 356.51L351.133 352.69L351.513 348.94L352.423 345.13L353.863 341.41L355.823 337.78L358.313 334.24Z" fill="#3290A7"/>
<path d="M194.162 342L193.592 343.12L192.802 343.99L191.252 344.79L189.232 345.03L153.482 345.05L148.502 345.28L146.922 345.59L145.462 346.12L143.762 347.12L142.062 348.62L139.432 351.55L138.032 353.94L137.432 356.09L137.232 358.78L137.242 394.03L137.702 395.89L138.982 398.03L141.082 400.48L143.702 402.88L144.842 403.6L146.272 404.2L147.912 404.67L149.422 404.9L156.302 405.01L189.232 405.34L193.492 405.58L188.732 405.87L151.542 405.82L149.392 405.65L147.422 405.19L145.562 404.47L143.732 403.46L142.062 402.22L140.512 400.73L139.142 399.05L137.982 397.21L137.042 395.25L136.522 393.08L136.322 389.92L136.262 372.59L136.442 361.34L136.722 357.84L137.302 354.93L138.192 352.45L139.482 350.27L140.512 349.03L141.742 347.9L144.842 345.9L146.402 345.28L148.342 344.83L153.382 344.42L188.492 344.15L189.932 344.08L191.222 343.83L192.362 343.39L193.352 342.76L194.162 342Z" fill="#3290A7"/>
<path d="M91.7505 342.949L90.5705 344.229L89.2205 344.919L88.2305 345.049L45.7405 345.029L42.3505 345.289L39.5805 345.979L37.4205 347.099L35.8805 348.649L35.2705 349.749L34.8605 350.989L34.6605 352.379L34.6705 353.909L35.3205 357.409L36.7905 361.489L35.3905 359.749L34.7205 358.209L34.3905 356.459L34.2305 353.639L34.3605 351.809L34.7805 350.099L35.4905 348.549L36.5005 347.179L37.8605 345.979L39.5305 345.049L42.2905 344.409L46.5605 344.169L61.8005 344.129L88.4805 344.259L89.9905 343.939L91.7505 342.949Z" fill="#3290A7"/>
<path d="M299.943 346.469L278.413 386.699L278.042 387.109L277.522 387.299L276.922 387.279L276.482 387.079L276.112 386.469L276.062 385.479L276.982 385.969L277.753 385.989L278.232 385.689L278.622 385.129L284.022 374.909L284.092 374.789L299.112 347.629L299.663 346.789L299.943 346.469Z" fill="#3290A7"/>
<path d="M97.8592 415.72L100.469 411.3L102.429 406.83L103.749 402.31L104.429 397.74L104.469 393.21L103.899 388.63L103.269 386.15L102.289 383.55L100.969 380.84L99.3092 378L97.6592 375.64L95.8392 373.51L93.8692 371.62L91.7292 369.95L91.4492 369.76L89.0092 368.25L86.5092 366.99L83.9492 365.99L81.3192 365.24L77.8292 364.64L74.2292 364.48L56.2292 364.57L43.1992 364.28L62.5692 363.92L77.5492 364.12L80.8892 364.48L84.1092 365.31L87.3192 366.6L90.3492 368.31L93.3292 370.49L96.0492 373.01L98.5392 375.9L100.699 379.04L102.029 381.49L103.139 384.12L104.019 386.93L104.679 389.92L105.119 393.32L105.219 396.64L104.979 399.88L104.389 403.03L103.359 406.35L101.929 409.57L100.099 412.7L97.8592 415.72Z" fill="#3290A7"/>
<path d="M240.941 371.029L240.721 370.959L240.281 371.419L240.151 372.109L240.231 426.799L240.061 427.649L239.571 428.369L238.851 428.849L238.001 429.019L219.741 428.989L218.861 428.879L218.111 428.559L217.281 427.789L238.121 428.039L238.721 427.919L239.231 427.589L239.571 427.079L239.691 426.479V370.339L239.821 369.969L240.221 369.949L240.531 370.109L240.811 370.479L240.941 371.029Z" fill="#3290A7"/>
<path d="M313.65 370.891L310.61 375.831L291.02 410.361L290.58 411.131L289.6 412.781L288.74 413.891L287.77 414.681L286.83 415.041L286.23 415.101L269.01 414.981L267.62 414.681L266.48 413.881L272.1 414.351L277.39 414.541L282.35 414.441L286.99 414.051L287.92 413.651L288.85 412.631L292.32 407.261L293.57 405.041L312.45 371.061L312.86 370.711L313.39 370.721L313.65 370.891Z" fill="#3290A7"/>
<path d="M265.03 412.34L253.42 393.08L242.41 373.41L243.89 375.4L245.58 378.12L265.03 412.34Z" fill="#3290A7"/>
<path d="M81.4383 401.06L82.2083 397.77L82.1983 394.69L81.9083 393.27L81.4183 391.95L80.7483 390.74L79.8883 389.68L78.4583 388.49L76.6983 387.62L74.7283 387.1L72.4683 386.93L41.2283 386.96L38.7383 386.85L36.3383 386.51L34.0283 385.96L31.8083 385.2L28.0083 383.25L24.4883 380.6L28.8683 383.12L32.7083 384.98L36.6883 386.06L40.3483 386.38L65.1483 386.47L68.3083 386.35L72.6283 386.2L75.4783 386.46L77.2683 387.21L79.4483 388.8L80.8183 390.11L81.8783 391.48L82.6183 392.91L83.0383 394.39L83.1383 395.97L82.9083 397.61L82.3383 399.3L81.4383 401.06Z" fill="#3290A7"/>
<path d="M420.09 390.48L416.18 387.48L417.51 387.93L418.63 388.63L419.44 389.461L420.09 390.48Z" fill="#3290A7"/>
<path d="M366.68 405.54L389.73 404.94L412.73 404.91L414.34 404.79L415.85 404.4L416.84 403.96L418.02 403.21L419.01 402.32L419.86 401.22L420.51 400L420.98 398.59L421.23 397.1L421.28 395.49L421.11 393.86L420.18 390.67L420.7 391.08L421.14 391.8L421.82 394.26L421.92 396.67L421.52 398.81L420.64 400.91L419.53 402.58L418.15 403.92L416.77 404.8L415.2 405.44L413.44 405.83L411.49 405.98L389.12 406.02L366.68 405.54Z" fill="#3290A7"/>
<path d="M77.9305 404.689L76.6905 405.349L75.2605 405.779L73.7205 405.919H26.2305L25.3305 406.129L24.2605 406.839L21.7305 409.709L20.4805 411.229L22.2205 408.539L24.1905 406.439L26.1005 405.219L27.0205 404.919L27.9805 404.829L53.0105 405.019L77.9305 404.689Z" fill="#3290A7"/>
<path d="M207.321 405.76L206.871 405.97L205.961 405.83L206.531 405.57L207.021 405.58L207.321 405.76Z" fill="#3290A7"/>
<path d="M363.678 406.439L358.828 411.849L359.878 410.179L361.028 408.729L362.298 407.479L363.678 406.439Z" fill="#3290A7"/>
<path d="M206.398 410.469L203.268 415.139L199.928 419.599L196.388 423.869L192.648 427.929L206.398 410.469Z" fill="#3290A7"/>
<path d="M20.4795 411.23L20.1795 411.711L20.0195 411.8L20.1495 411.42L20.4795 411.23Z" fill="#3290A7"/>
<path d="M20.0209 411.801L9.14093 426.291L9.04092 426.461L9.03091 427.341L9.71094 427.901L10.9509 428.221H9.77094L8.48093 427.731L8.21094 427.431L8.29092 427.041L10.4909 423.511L18.1409 413.661L19.1909 412.481L20.0209 411.801Z" fill="#3290A7"/>
<path d="M349.09 424.8L358.58 411.98L358.67 412.06L358.72 412.141L358.68 412.24L349.09 424.8Z" fill="#3290A7"/>
<path d="M432.48 420.211L430.23 422.221L427.8 423.941L425.59 425.181L423.26 426.221L420.8 427.061L418.21 427.691L411.71 428.641L405.54 428.991L382.76 429.021L359.98 428.991L353.88 428.811L348.91 428.301L386.22 427.941L409.23 427.981L412.91 427.871L416.46 427.441L419.88 426.671L423.18 425.581L425.62 424.531L427.98 423.281L430.27 421.841L432.48 420.211Z" fill="#3290A7"/>
<path d="M92.4802 421.219L88.9602 423.939L85.1502 425.989L81.5602 427.259L77.7402 428.009L72.3702 428.519L65.4702 428.859L55.6102 428.979L39.7302 428.839L37.2502 428.669L35.1602 428.229L71.3302 427.929L75.8602 427.719L79.5402 427.079L84.8102 425.339L87.1702 424.249L89.2902 423.029L89.8902 422.639L92.4802 421.219Z" fill="#3290A7"/>
<path d="M29.0295 428.25L26.9495 428.67L24.8695 428.87L22.0795 428.79L19.2695 428.31L29.0295 428.25Z" fill="#3290A7"/>
<path d="M189.871 428.389L179.491 429.069L169.121 429.149L162.131 428.859L155.141 428.309L163.801 428.029L172.481 427.949L189.871 428.389Z" fill="#3290A7"/>
</g>
<defs>
<clipPath id="clip0_777_28592">
<rect width="457" height="430" fill="white"/>
</clipPath>
</defs>
</svg>
