<svg xmlns="http://www.w3.org/2000/svg" viewBox="0 0 100 100" width="100" height="100">
<rect x="1" y="1" width="98" height="98" rx="20" fill="#ffffff" stroke="#e6e4df" stroke-width="1.5"/>
<svg x="17" y="17" width="66" height="66" preserveAspectRatio="xMidYMid meet" viewBox="0 0 314 311" fill="none" xmlns="http://www.w3.org/2000/svg">
<path d="M167.53 0L171.92 0.609985L175.86 0.509979L177.21 0.459991L177.97 0.699982L204.36 6.5L213.76 9.59L214.79 10.22L216.37 10.9L218.09 11.33L218.46 11.39L218.73 11.55L220.54 12.64L222.45 13.45L224.32 13.96L236.04 19.96L237 20.82L237.84 20.97L250.26 29.04L250.64 29.53L251.94 30.7L253.57 31.58L253.74 31.78L255.27 33.21L256.57 33.84L258.27 35.05L259.13 36.12L260.11 36.54L262.08 38.01L263.74 39.73L263.77 39.76L264.95 41.15L266.27 42.37L268.56 43.88L275.78 51.25L275.99 51.78L276.73 52.85L277.85 53.73L283.86 61.32L283.92 61.47L283.79 61.73L283.5 61.74L281.12 60.01L277.59 57.01L273.89 54.25L272.11 53.04L263 47.51L253.58 42.7L249.46 40.82L245.28 39.17L241.05 37.76L236.76 36.58L232.3 35.61L227.78 34.88L223.2 34.4L218.56 34.16L202.61 34.13L195.55 34.56L188.61 35.6L181.82 37.23L175.15 39.46L174.41 39.95L173.62 40.21L172.81 40.23L167.18 42.4L161.76 44.87L156.53 47.65L151.5 50.73L144.81 55.56L138.5 60.98L132.51 67.11L127.24 72.64L122.59 78.61L118.95 84.32L115.81 90.38L115.05 92.36L113.97 93.88L111.76 98.64L109.81 103.47L108.12 108.36L106.68 113.32L105.22 119.81L104.18 126.4L103.57 133.1L103.38 139.92L103.87 147.25L104.79 154.56L105.59 159.57L106.63 164.5L107.92 169.35L109.44 174.11L111.72 180.02L114.39 185.8L117.3 191.29L120.28 196.73L123.71 201.82L126.6 205.42L129.74 208.83L139.82 218.76L142.56 221.52L145.54 223.88L148.84 225.89L149.84 226.49L151.41 228.02L153.15 229.3L154.89 230.26L156.78 231L168.82 237.09L176.68 240.39L180.32 241.6L183.75 242.52L188.93 243.61L194.09 244.46L199.2 245.08L204.29 245.46L209.35 245.61L214.37 245.52L219.36 245.2L224.32 244.64L229.05 243.88L233.74 242.91L238.41 241.72L243.05 240.32L247.65 238.69L252.23 236.86L256.78 234.8L261.3 232.53L264.31 230.81L267.44 228.78L274.06 223.78L274.78 223.23L275.09 223.22L276.08 222.8L282.06 217.89L287.59 212.66L292.68 207.11L297.33 201.23L300.91 195.99L304.18 190.52L307.13 184.82L309.76 178.89L312.35 171.05L312.63 170.81L312.97 170.95L313.04 171.15L313.08 175.57L312.07 181.84L310.81 188.03L309.29 194.14L307.52 200.17L304.64 208.45L301.26 216.57L298.52 222.36L295.59 228.05L292.1 234.26L288.36 240.33L284.38 246.28L280.15 252.09L279.93 252.56L278.81 253.81L277.23 255.15L275.84 256.64L274.05 259.28L264.3 269.05L251.27 279.52L236.62 289.15L236.07 289.13L235.65 289.29L235.32 289.83L234.21 290.12L233.65 290.65L233.59 290.92L223.37 296.14L221.22 296.83L216.32 298.74L209.39 301.56L202.19 303.82L194.93 305.81L187.2 307.6L179.4 309.09L172.04 309.87L167.29 310.42L164.69 310.88L146.65 310.63L144.56 310.13L142.61 310.01L140.61 310.21L139.17 310.22L137.87 310.01L135.38 309.36L130.76 308.52L126.03 308.13L126.07 308.19L125.74 308.12L125.01 307.74L124.49 307.53L105.14 302.06L104.39 301.93L103.59 301.87L103.53 301.76L102.87 301.24L93.3202 297.29L84.0602 292.79L75.1101 287.74L66.4601 282.14L65.7802 282.06L65.4402 281.9L65.4201 281.87L57.7802 276L57.5901 275.99L57.3601 275.65L55.8802 274.04L54.2002 272.71L52.7602 271.88L47.0602 266.7L45.2701 264.46L43.2602 262.82L38.1602 257.4L38.1201 257.09L37.5501 256L36.3401 255.05L35.7401 254.04L35.0402 253.6L32.5901 250.65L32.1602 249.59L31.4901 248.84L31.0201 248.57L29.7602 247.23L29.3502 246.37L29.0702 245.5L28.5901 244.89L28.0302 244.58L27.6902 244.15L27.7502 244.1L23.0702 236.78L22.8102 236.37L17.7002 226.99L14.7202 221.03L11.0702 212.24L10.6002 211.35L10.4201 209.7L7.20016 199.6L5.16016 191.8L3.47015 183.91L2.13016 175.92L1.14014 167.82L0.660156 161.19L0.82016 149.89L0.710144 148.59L0.780151 146.82L1.10016 145.04L1.78015 141.99L1.87015 140.11L1.74014 138.2L1.60016 136.81L1.98016 135.9L2.03015 135.85L3.61014 127.3L5.57016 118.88L7.90015 110.59L10.6101 102.44L13.4901 94.89L16.7101 87.46L16.9502 86.39L16.9001 85.99H17.0602L17.5501 85.53L23.3202 75.06L25.9502 70.76L29.2802 65.93L35.4402 56.93L35.7002 56.33L36.6101 55.56L37.9301 54.57L38.9802 53.39L39.9102 51.57L53.5302 37.97L54.5402 37.53L56.0801 36.4L57.3701 34.8V34.77L57.5302 34.56L61.7401 31.88L65.4901 28.65L65.9901 27.98L66.4502 27.78L66.5501 27.8L76.9201 21.3L76.9402 21.26L76.9001 20.99L77.3401 20.75L77.6101 20.7L89.4402 14.6L89.2902 14.51L89.5201 14.59L96.3102 11.67L96.5702 11.41L96.7701 11.44L98.3701 11.21L106.44 8.28L114.12 5.89999L121.92 3.85999L129.84 2.17999L137.88 0.849976L139.3 0.459991L140.98 0.47998L143.44 0.689972L145.83 0.5L147.72 0.0599976L167.53 0ZM128.59 11.72L124.92 12.15L121.55 12.37L119.55 12.88L117.6 13.68L114.6 14.35L108.53 15.94L102.8 18.25L99.4201 20.03L96.1701 22.09L92.2101 24.38L88.4201 26.86L84.8001 29.53L81.3301 32.39L77.5901 35.87L74.0702 39.6L73.2302 40.18L72.6002 40.91L72.1201 42L69.9001 44.92L67.3502 48.15L64.6801 52.26L62.4001 56.66L60.5201 61.34L59.0302 66.31L58.1701 70.35L57.6401 74.37L57.4402 78.37L57.5602 82.34L57.8301 85.01L58.2802 88.84V90.81L58.5201 92.92L59.8502 98.32L60.5801 100.96L62.4301 107.11L66.2101 116.6L66.2502 116.56L66.4702 116.85L66.1501 117.48L65.7101 117.83L65.2101 117.9L64.6101 117.73L62.1201 116.78L59.1602 115.99L58.9702 116.01L58.7701 116.22V116.25L58.1002 115.97L57.0201 115.36L55.6501 115.04L54.4502 114.46L53.1302 113.31L51.9601 111.02L47.4901 104.25L43.3001 97.35L39.4001 90.31L35.7902 83.14L35.3901 82.73L35.0602 82.55L34.8701 82.33L34.9201 81.51L34.6701 81.09L34.2002 80.73L34.1501 80.7H33.6401L33.2802 81.07L30.5702 88.42L30.3601 89.33L29.4502 94.5L29.1302 96.7L29.0702 98.76L29.2101 100.83L29.5801 102.93L30.1602 105.04L34.0602 113.5L34.4001 114.8L35.2902 115.58L35.9102 116.48L36.0002 117.26L35.6401 117.84L33.5901 118.41L31.7401 119.32L29.6902 120.96L22.8601 125.56L21.4402 126.16L20.2902 127.03L19.6701 127.75L19.6401 127.8L18.8802 128.79L17.7202 129.58L16.2701 130.86L14.9901 132.38L13.9102 134.1L13.0402 136.02L12.3701 138.14L10.0602 147.62L9.31015 150.62L9.21014 152.72L9.45016 154.86L9.49014 155.04L9.46014 155.83L9.20016 157.93V160.09L9.46014 162.31L9.98016 164.59L10.1302 164.49L10.2202 165.75L10.6801 170.26L11.5102 173.85L12.7602 177.38L17.0201 189.1L17.9402 191.73L19.1002 194.24L21.5201 198.06L29.0801 208.54L29.9201 209.91L30.9502 211.06L33.0302 212.46L40.6801 218.66L48.8502 224.32L50.2502 225.45L52.2602 226.64L54.5002 227.52L59.2401 230.03L62.6002 232.27L65.3401 233.6L68.2502 234.62L71.7302 236.18L72.0302 236.48L72.0501 236.9L71.6201 237.88L71.0402 238.66L70.2302 239.37L69.6002 240.19L69.1101 241.26L68.8502 242.47L67.9702 243.97L66.6801 245.41L66.2701 245.65L65.8001 245.68L64.5901 245.38L63.5302 244.86L63.1101 244.57L61.2401 243.37L59.5002 242.59L57.6401 242.05L55.7502 241.31L54.0102 240.33L53.3601 239.88L52.6201 239.24L51.0801 238.27L49.3102 237.6L48.5402 237.27L48.1401 236.82L47.3202 235.96L46.3802 235.31L44.6602 234.72L38.6002 230.48L38.4001 230.19L37.9301 229.82L37.2902 229.6L36.0402 228.78L35.2302 227.78L33.9102 227.03L33.7002 227.06L33.6101 227.25L33.6401 227.35L36.3802 231.86L39.2502 237.02L42.2002 241.78L45.2101 246.13L48.2902 250.09L51.6501 253.73L56.6401 258.52L58.2902 260.52L59.5801 261.53L61.0501 262.34L64.2202 265.02L65.6501 266.29L67.2101 267.36L68.9502 268.25L70.8202 268.93L73.8401 269.91L74.2902 270.42L74.7401 270.63L75.2502 270.64L75.7502 270.29L75.9901 269.67L75.8102 269.3L75.3701 268.96L74.8502 267.36L74.6302 265.82L74.6002 260.32L74.7902 256.18L75.7401 251.86L77.4301 247.38L79.8802 242.72L81.3301 240.88L82.9502 239.23L84.6801 237.8L86.5702 236.54L88.6201 235.45L90.8202 234.54L99.9802 231.9L100.64 231.67L101.41 231.63L103.28 232.13L105.15 233.01L108.73 235.21L113.28 238.79L113.95 239.34L117.82 242.94L121.23 247L123.94 251.24L125.95 255.61L128.01 262.68L128.17 263.82L128.05 264.89L127.82 265.55L127.79 265.6L127.51 265.78L127.19 265.68L126.46 264.76L126.29 264.39L125.69 262.79L124.84 261.37L123.03 259.53L120.64 256.65L119.63 255.1L118.52 253.78L117.33 252.69L116.05 251.82L114.76 251.29L113.52 251.2L112.12 251.65L109.42 252.14L106.99 252.93L104.84 254.02L102.95 255.42L101.77 256.6L100.73 257.92L99.0602 261.03L98.3001 262.71L98.2902 264.2L98.3301 264.35L98.2602 268.81L98.4001 271.17L98.8401 273.46L99.4402 275.36L100.25 277.22L101.28 279.02L102.52 280.76L104.33 283.22L106.37 285.51L108.64 287.7L111.24 289.84L114.04 291.84L117.13 293.74L120.33 295.45L123.74 297.02L124.98 297.9L126.29 298.3L126.81 298.33L127.87 298.94L128.78 299L128.86 298.98L130.27 299.32L131.49 299.85L133.17 300.57L134.97 301.04L136.87 301.22L141.26 301.96L142.43 302.33L144.24 302.6L146.15 302.51L147.13 302.61L152 302.91L156.91 302.84L161.86 302.42L166.84 301.64L171.06 301.25L174.95 300.4L178.77 299.07L187.58 295.73L190.5 294.76L193.26 293.48L196.93 291.1L200.62 288.76L203.36 287.15L206.49 284.78L208.72 282.58L210.17 280.32L211.89 277.99L214.85 276.93L217.99 276.18L221.31 275.72L224.81 275.57L228.39 275.09L233.18 273.63L233.76 273.43L234.22 273.55L235.01 273.41L235.83 272.85L236.38 272.51L236.73 272.49L236.78 272.53L241.33 270.96L245.56 268.85L249.61 266.12L253.33 262.81L254.05 261.93L254.91 261.34L255.11 261.25L257.9 259.23L260.35 256.9L262.8 253.76L271.29 242.56L272.82 240.96L274.08 239.2L275.1 237.17L275.11 237.08L274.81 236.92L273.85 237.8L267.97 242.01L262.04 245.92L256.08 249.53L250.07 252.84L243.87 255.78L237.05 258.42L231.73 259.7L228.96 260.68L226.25 261.87L224.9 262.17L224.31 262.15L217.81 263.04L216.95 263.21L214.85 263.99L212.97 264.23L209.51 264.11L204.71 264.21L200.24 264.13L195.21 263.56L190.87 262.65L185.99 261.21L175.4 257.47L164.36 251.85L162.71 250.6L161.06 249.75L159.23 249.17L155.1 246.82L154.77 246.19L154.25 245.92L153.5 245.88L153.33 245.84L153.11 245.88L152.11 244.74L150.95 243.95L150.17 243.65L150.08 243.64L149.95 243.95L151.48 245.58L152.76 246.32L158.09 252.42L158.29 253.07L158.95 254.04L160.02 254.83L163.03 258.5L163.76 259.91L164.76 261.02L165.92 261.78L169.8 266.04L174.11 269.71L176.98 271.66L180.01 273.4L180.93 273.91L183.28 274.93L185.8 275.63L190.86 276.42L196.56 276.75L189.66 281.61L181.42 285.85L178.88 286.83L163.09 290.7L162.74 290.81L160.72 291.17L158.58 291.1L149.14 291.27L146.82 291.22L144.62 290.77L142.95 290.08L141.76 289.99L140.5 290.21L134.56 288.61L127.98 286.16L124.98 284.78L121.35 282.6L117.95 279.95L117.84 279.61L118.09 279.36L118.3 279.37L121.11 280.3L123.96 280.89L126.82 281.14L129.64 281.04L132.3 280.58L134.85 279.77L137.15 278.64L139.28 277.16L140.72 275.82L142.03 274.29L143.14 272.64L144.1 270.8L144.31 270.56L144.45 270.1L144.38 269.51L144.99 266.99L145.16 264.49L145.02 262.69L144.64 260.9V259.81L144.41 257.8L143.9 255.79L143.09 253.8L141.99 251.82L141.97 251.77L139.12 246.48L135.63 241.49L132.65 237.55L131.34 235.78L130.17 234.67L128.81 233.74L124.33 229.91L123.73 229.05L122.99 228.43L122.06 228.04L121.71 227.52L121.03 227.37L119.29 226.32L117.9 225.07L109.79 220.05L105.84 217.96L102.96 215.95L100.29 213.6L99.7502 213.27L99.1002 213.29L98.7602 213.07L98.3901 213.13L98.0801 213.38L97.9402 213.89L94.9201 215.79L89.9802 218.34L84.7502 220.4L77.1701 223.51L75.9402 223.81L74.8001 223.74L74.6501 223.7L74.3202 223.44L74.2302 223.03L74.3001 222.67L74.6902 221.37L75.3001 220.11L75.6801 219.63L75.7401 218.79L75.9301 218.3L76.1902 218.18L76.3601 217.95L89.4402 184.51L91.3001 179L92.6501 173.53L93.4702 168.12L93.7701 162.76L93.6801 155.89V155.88L93.3401 152.38L92.6302 148.9L91.5402 145.43L90.0702 141.98L90.0501 141.87L89.8202 140.47L89.2002 139.63L89.1101 139.57L88.6201 137.79L87.8701 136.15L87.1101 134.97L81.5501 123.93L78.3301 117.05L78.1401 116.84L78.0702 116.6L77.6501 114.87L76.9502 113.3L76.0702 112.02L75.5702 111.26L75.4502 110.77L75.5302 110.33L75.8502 110.01L81.2101 107.22L82.4001 106.93L83.4702 106.43L84.3601 105.77L85.1401 104.93L90.9802 100.75L95.2401 96.89L98.9301 92.6L101.29 89.13L103.33 85.43L105.05 81.49L106.46 77.31L106.55 76.72L106.42 76.39L106.26 76.31L106.97 74.4L107.86 70.97L108.45 67.56L108.73 64.17L108.71 60.79L108.09 55.68L106.75 50.6L108.03 50.04L110.78 49.48L111.91 49.72L112.86 49.47L113.8 48.81L118.07 47.73L118.41 47.72L119.77 47.57L121.11 47.21L123.78 45.89L148.79 33.57L170.37 25.87L170.52 25.77L171.74 25.43L172.23 25.67L172.86 25.55L173.55 25L179.84 23.45L181.29 23.64L182.67 23.5L183.3 23.32L183.6 22.94L183.39 22.51L182.67 22.19L182.13 22.23L181.99 22.33L181.42 21.9L174.13 18.13L173.61 18L172.17 17.49L170.79 16.77L164.36 14.36L157.79 12.61L154.07 11.93L150.3 11.46L146.48 11.19L142.62 11.13L136.12 11.16L133.28 10.91L130.54 11.18L128.59 11.72Z" fill="black"/>
<path d="M175.857 0.509979L171.917 0.609985L167.527 0L175.857 0.509979Z" fill="#6A645A" fill-opacity="0.996"/>
<path d="M147.72 0.0605469L145.83 0.500549L143.44 0.690521L140.98 0.48053L147.72 0.0605469Z" fill="#6A645A" fill-opacity="0.996"/>
<path d="M137.88 0.849609L129.84 2.17963L121.92 3.85962L114.12 5.89963L106.44 8.27963L98.3703 11.2096L96.7703 11.4396L96.5703 11.4096L102.91 8.86963L109.32 6.65961L115.8 4.76962L122.35 3.20963L130.07 1.80963L137.88 0.849609Z" fill="#6A645A" fill-opacity="0.996"/>
<path d="M204.359 6.50021L177.969 0.700195L184.949 1.56021L191.829 2.87021L198.139 4.4902L204.359 6.50021Z" fill="#6A645A" fill-opacity="0.996"/>
<path d="M218.088 11.3298L216.368 10.8998L214.788 10.2198L213.758 9.58984L216.598 10.5198L218.088 11.3298Z" fill="#6A645A" fill-opacity="0.996"/>
<path d="M136.12 11.1602L128.59 11.7202L130.54 11.1802L133.28 10.9102L136.12 11.1602Z" fill="#6A645A" fill-opacity="0.996"/>
<path d="M170.787 16.7699L163.207 14.6299L155.537 12.9499L149.107 11.8799L142.617 11.1299L146.477 11.1899L150.297 11.4599L154.067 11.9299L157.787 12.6099L164.357 14.3599L170.787 16.7699Z" fill="#6A645A" fill-opacity="0.996"/>
<path d="M224.32 13.9598L222.451 13.4498L220.54 12.6398L218.73 11.5498L224.32 13.9598Z" fill="#6A645A" fill-opacity="0.996"/>
<path d="M124.918 12.1504L117.598 13.6804L119.548 12.8804L121.548 12.3704L124.918 12.1504Z" fill="#6A645A" fill-opacity="0.996"/>
<path d="M114.598 14.3496L106.588 17.2096L98.878 20.6896L96.168 22.0896L99.418 20.0296L102.798 18.2496L108.528 15.9396L114.598 14.3496Z" fill="#6A645A" fill-opacity="0.996"/>
<path d="M89.4394 14.5996L77.6094 20.6996L81.4194 18.2096L85.4294 16.1496L89.4394 14.5996Z" fill="#6A645A" fill-opacity="0.996"/>
<path d="M237.839 20.97L236.999 20.8199L236.039 19.96L237.839 20.97Z" fill="#6A645A" fill-opacity="0.996"/>
<path d="M76.8969 20.9902L76.9369 21.2602L76.9169 21.3002L66.5469 27.8002L76.8969 20.9902Z" fill="#6A645A" fill-opacity="0.996"/>
<path d="M142.609 23.6097L142.469 22.9097L142.259 22.5597L141.879 22.4297L127.789 22.5597L133.489 21.7497L138.789 21.6797L144.139 22.2497L144.249 22.2897L144.469 22.5697L144.369 22.9197L143.649 23.3997L142.609 23.6097Z" fill="#6A645A" fill-opacity="0.996"/>
<path d="M179.84 23.4504L181.99 22.3304L182.13 22.2304L182.67 22.1904L183.39 22.5104L183.6 22.8304L183.54 23.1304L183.3 23.3204L182.67 23.5005L181.29 23.6404L179.84 23.4504Z" fill="#6A645A" fill-opacity="0.996"/>
<path d="M127.787 22.5597L141.877 22.4297L142.257 22.5597L142.467 22.9097L142.607 23.6097L130.787 29.1097L125.647 31.8097L122.237 34.1297L119.017 36.7797L116.337 38.8697L115.237 39.2597L114.537 39.8997L114.257 40.5797L105.027 49.5797L104.387 50.0497L104.087 51.1397L100.847 55.7797L98.1472 60.2097L96.2472 63.9297L94.6072 67.7897L90.0772 76.6697L86.1572 83.5397L85.2472 85.1797L84.1072 86.5297L83.1472 87.2297L82.4472 88.0797L81.9372 89.3197L78.5372 92.7097L73.1972 95.9797L72.3772 96.0897L71.7272 95.5697L71.6972 95.4997L71.4072 94.7297L71.0472 93.3697L70.0972 86.7397L69.8672 79.6097L70.0672 76.3797L70.5772 73.0797L71.3672 69.6897L72.4672 66.2197L74.2172 61.7797L76.2872 57.4497L78.6872 53.2197L81.3972 49.0997L81.9572 48.0097L83.0572 46.9897L91.2172 38.8697L92.4072 37.5597L93.6372 36.7597L96.0372 35.4497L97.6772 34.2497L99.1972 32.8697L99.2072 32.7997L99.5372 32.5497L106.347 28.7397L106.357 28.7197L106.497 28.7297L107.907 28.3597L109.217 27.8097L110.797 26.8197L117.817 24.4997L123.557 23.6397L125.397 23.0097L126.037 22.5997L127.007 22.4597L127.787 22.5597Z" fill="black"/>
<path d="M126.04 22.5996L125.4 23.0096L123.56 23.6396L117.82 24.4996L126.04 22.5996Z" fill="#6A645A" fill-opacity="0.996"/>
<path d="M173.548 25L172.858 25.55L172.228 25.67L171.738 25.43L173.548 25Z" fill="#6A645A" fill-opacity="0.996"/>
<path d="M170.369 25.8701L148.789 33.5701L155.189 30.7301L161.729 28.3201L170.369 25.8701Z" fill="#6A645A" fill-opacity="0.996"/>
<path d="M110.8 26.8203L109.22 27.8103L107.91 28.3603L106.5 28.7303L109.05 27.3203L110.8 26.8203Z" fill="#6A645A" fill-opacity="0.996"/>
<path d="M65.4873 28.6504L61.7373 31.8804L57.5273 34.5604L61.5173 31.1604L65.4873 28.6504Z" fill="#6A645A" fill-opacity="0.996"/>
<path d="M130.79 29.1104L119.02 36.7804L122.24 34.1303L125.65 31.8104L130.79 29.1104Z" fill="#6A645A" fill-opacity="0.996"/>
<path d="M253.568 31.58L251.938 30.7L250.638 29.5301L250.258 29.04L251.768 29.9701L253.088 31.08L253.568 31.58Z" fill="#6A645A" fill-opacity="0.996"/>
<path d="M256.568 33.8403L255.268 33.2103L253.738 31.7803L255.118 32.5403L256.568 33.8403Z" fill="#6A645A" fill-opacity="0.996"/>
<path d="M99.1967 32.8701L97.6767 34.2501L96.0367 35.4501L93.6367 36.7601L99.1967 32.8701Z" fill="#6A645A" fill-opacity="0.996"/>
<path d="M202.608 34.1299L193.348 35.4599L184.208 37.2399L175.148 39.4599L181.818 37.2299L188.608 35.5999L195.548 34.5599L202.608 34.1299Z" fill="#6A645A" fill-opacity="0.996"/>
<path d="M253.579 42.7002L244.649 39.5002L235.559 36.9902L227.129 35.2902L218.559 34.1602L223.199 34.4002L227.779 34.8802L232.299 35.6102L236.759 36.5802L241.049 37.7602L245.279 39.1702L249.459 40.8202L253.579 42.7002Z" fill="#6A645A" fill-opacity="0.996"/>
<path d="M57.3673 34.7998L56.0773 36.3998L54.5374 37.5298L53.5273 37.9698L54.9073 36.5298L56.4474 35.3398L57.3673 34.7998Z" fill="#6A645A" fill-opacity="0.996"/>
<path d="M260.109 36.5398L259.13 36.1198L258.27 35.0498L258.59 35.2398L260.109 36.5398Z" fill="#6A645A" fill-opacity="0.996"/>
<path d="M91.2186 38.8701L83.0586 46.9901L84.9186 44.4701L87.0286 42.2001L89.0286 40.4401L91.2186 38.8701Z" fill="#6A645A" fill-opacity="0.996"/>
<path d="M116.338 38.8701L114.258 40.5801L114.538 39.9001L115.238 39.2601L116.338 38.8701Z" fill="#6A645A" fill-opacity="0.996"/>
<path d="M74.0672 39.5996L73.4672 40.6396L72.7072 41.5096L72.1172 41.9996L72.5972 40.9096L73.2272 40.1796L74.0672 39.5996Z" fill="#6A645A" fill-opacity="0.996"/>
<path d="M268.56 43.8798L266.27 42.3698L264.95 41.1498L263.77 39.7598L268.56 43.8798Z" fill="#6A645A" fill-opacity="0.996"/>
<path d="M172.81 40.2305L164.63 44.0905L160.17 46.2705L156.59 48.2305L151.9 51.1305L147.33 54.2205L142.86 57.5105L138.5 60.9805L144.81 55.5605L151.5 50.7305L156.53 47.6505L161.76 44.8705L167.18 42.4005L172.81 40.2305Z" fill="#6A645A" fill-opacity="0.996"/>
<path d="M69.8975 44.9199L67.1075 49.0499L64.6775 53.2999L62.6175 57.6699L60.9275 62.1599L59.3875 67.6199L58.3575 73.2499L57.8375 79.0399L57.8275 85.0099L57.5575 82.3399L57.4375 78.3699L57.6375 74.3699L58.1675 70.3499L59.0275 66.3099L60.5175 61.3399L62.3975 56.6599L64.6775 52.2599L67.3475 48.1499L69.8975 44.9199Z" fill="#6A645A" fill-opacity="0.996"/>
<path d="M123.78 45.8896L121.11 47.2097L119.77 47.5696L118.41 47.7197L118.07 47.7296L123.78 45.8896Z" fill="#6A645A" fill-opacity="0.996"/>
<path d="M113.797 48.8105L112.857 49.4706L111.907 49.7206L110.777 49.4805L111.567 49.1805L113.797 48.8105Z" fill="#6A645A" fill-opacity="0.996"/>
<path d="M78.5402 92.7096L77.1602 93.9796L75.7002 95.0496L74.1801 95.8996L72.5901 96.5396L72.2202 96.6596L72.2002 96.6696L71.5102 96.5796L71.0801 96.0196L69.7902 89.9996L69.1602 84.2696L69.1701 78.6096L69.8301 73.2096L71.1401 67.8696L73.1501 62.5396L74.7101 59.2996L77.7802 54.0596L81.4001 49.0996L78.6902 53.2196L76.2902 57.4496L74.2202 61.7796L72.4702 66.2196L71.3701 69.6896L70.5801 73.0796L70.0702 76.3796L69.8701 79.6096L70.1002 86.7396L71.0501 93.3696L71.4102 94.7296L71.7002 95.4996L71.7302 95.5696L72.3802 96.0896L73.2002 95.9796L78.5402 92.7096Z" fill="#6A645A" fill-opacity="0.996"/>
<path d="M105.03 49.5801L104.42 50.8501L104.09 51.1401L104.39 50.0501L105.03 49.5801Z" fill="#6A645A" fill-opacity="0.996"/>
<path d="M106.749 50.5996L108.089 55.6796L108.709 60.7896L108.729 64.1696L108.449 67.5596L107.859 70.9696L106.969 74.3996L107.689 70.2396L108.139 66.3796L108.319 62.8296L108.229 59.5796L107.649 56.0096L106.359 51.2896V50.9296L106.389 50.8796L106.479 50.7796L106.749 50.5996Z" fill="#6A645A" fill-opacity="0.996"/>
<path d="M277.847 53.73L276.727 52.85L275.987 51.78L275.777 51.25L276.737 52.12L277.497 53.12L277.847 53.73Z" fill="#6A645A" fill-opacity="0.996"/>
<path d="M39.9094 51.5703L38.9794 53.3903L37.9294 54.5703L36.6094 55.5603L39.9094 51.5703Z" fill="#6A645A" fill-opacity="0.996"/>
<path d="M100.849 55.7803L94.6094 67.7903L96.2494 63.9303L98.1494 60.2103L100.849 55.7803Z" fill="#6A645A" fill-opacity="0.996"/>
<path d="M35.4384 56.9297L29.2784 65.9297L25.9485 70.7597L23.3185 75.0597L17.5484 85.5297L17.0584 85.9897H16.8984L20.4785 78.8997L24.4584 72.0597L29.6684 64.3197L35.4384 56.9297Z" fill="#6A645A" fill-opacity="0.996"/>
<path d="M132.509 67.1104L127.269 73.4203L122.409 79.9904L118.999 85.1104L115.809 90.3803L118.949 84.3203L122.589 78.6104L127.239 72.6404L132.509 67.1104Z" fill="#6A645A" fill-opacity="0.996"/>
<path d="M90.9805 100.751L96.7704 94.5605L100.42 89.9005L101.99 87.2405L103.49 84.0905L104.91 80.4405L106.26 76.3105L106.42 76.3905L106.55 76.7206L106.46 77.3105L105.05 81.4905L103.33 85.4305L101.29 89.1305L98.9305 92.6005L95.2404 96.8905L90.9805 100.751Z" fill="#6A645A" fill-opacity="0.996"/>
<path d="M34.8703 82.3302L34.4003 81.8602L33.9603 81.7102L33.8103 81.7402L33.3203 82.4202L32.0303 86.6202L30.5603 90.6202L30.2903 92.0302L30.1603 105.04L29.5803 102.93L29.2103 100.83L29.0703 98.7602L29.1303 96.7002L29.4503 94.5002L30.3603 89.3302L30.5703 88.4202L33.2803 81.0702L33.6403 80.7002H34.1503L34.2003 80.7302L34.6703 81.0902L34.9203 81.5102L34.8703 82.3302Z" fill="#6A645A" fill-opacity="0.996"/>
<path d="M51.9586 111.02L48.5286 106.47L45.3086 101.77L42.4486 97.1598L39.7886 92.4198L37.3186 87.5498L35.0586 82.5498L35.3886 82.7298L35.7886 83.1398L39.3986 90.3098L43.2986 97.3498L47.4886 104.25L51.9586 111.02Z" fill="#6A645A" fill-opacity="0.996"/>
<path d="M16.8973 85.9902L16.9474 86.3902L16.7073 87.4602L13.4873 94.8902L10.6073 102.44L7.89734 110.59L5.56735 118.88L3.60733 127.3L2.02734 135.85L2.80734 130.14L3.79733 124.48L5.00735 118.88L6.41733 113.34L8.52734 106.36L10.9774 99.4802L13.7673 92.6902L16.8973 85.9902Z" fill="#6A645A" fill-opacity="0.996"/>
<path d="M84.1075 86.5303L83.8475 87.0603L83.0175 88.2603L81.9375 89.3203L82.4475 88.0803L83.1475 87.2303L84.1075 86.5303Z" fill="#6A645A" fill-opacity="0.996"/>
<path d="M58.2773 88.8398L59.3673 94.1398L60.3573 98.9698L61.2574 102.07L63.9774 109.98L64.6673 111.79L65.6873 114.51L66.2073 116.6L62.4273 107.11L60.5773 100.96L59.8474 98.3198L58.5173 92.9198L58.2773 90.8098V88.8398Z" fill="#6A645A" fill-opacity="0.996"/>
<path d="M113.969 93.8799L111.699 99.3599L109.719 104.85L108.039 110.34L106.659 115.83L105.559 121.33L104.769 126.83L104.259 132.33L104.049 137.84L104.109 142.64L104.399 147.45L104.899 152.26L105.629 157.07L106.579 161.89L107.759 166.71L109.159 171.53L110.789 176.35L112.799 180.99L113.719 183.38L114.389 185.8L111.719 180.02L109.439 174.11L107.919 169.35L106.629 164.5L105.589 159.57L104.789 154.56L103.869 147.25L103.379 139.92L103.569 133.1L104.179 126.4L105.219 119.81L106.679 113.32L108.119 108.36L109.809 103.47L111.759 98.6399L113.969 93.8799Z" fill="#6A645A" fill-opacity="0.996"/>
<path d="M85.137 104.93L84.357 105.77L83.467 106.43L82.397 106.93L81.207 107.22L82.737 106.08L84.397 105.21L85.137 104.93Z" fill="#6A645A" fill-opacity="0.996"/>
<path d="M78.0703 116.6L76.9603 114.891L76.4003 113.51L76.0703 112.021L76.9503 113.301L77.6503 114.871L78.0703 116.6Z" fill="#6A645A" fill-opacity="0.996"/>
<path d="M58.0989 115.971L56.2689 115.731L54.8589 115.311L53.8589 114.721L53.2889 113.941L53.1289 113.311L54.4489 114.461L55.6489 115.041L57.0189 115.361L58.0989 115.971Z" fill="#6A645A" fill-opacity="0.996"/>
<path d="M35.2886 115.58L34.3986 114.8L34.0586 113.5L35.0786 115.01L35.2886 115.58Z" fill="#6A645A" fill-opacity="0.996"/>
<path d="M66.4695 116.85L66.9395 118.13V118.26L66.6795 118.68L66.1895 118.74L58.7695 116.25V116.22L58.9695 116.01L59.1595 115.99L62.1195 116.78L64.6095 117.73L65.2095 117.9L65.7095 117.83L66.1495 117.48L66.4695 116.85Z" fill="#6A645A" fill-opacity="0.996"/>
<path d="M35.6375 117.84L29.6875 120.96L31.7375 119.32L33.5875 118.41L35.6375 117.84Z" fill="#6A645A" fill-opacity="0.996"/>
<path d="M22.858 125.561L21.318 126.941L19.668 127.751L20.288 127.031L21.438 126.161L22.858 125.561Z" fill="#6A645A" fill-opacity="0.996"/>
<path d="M55.1997 127.08L60.3197 128.61L61.1597 128.87L62.6797 129.57L64.0997 130.52L65.7397 131.95L67.0697 132.54L70.1397 135.22L72.7597 138.23L73.8397 139.76L77.1197 146.63L78.3797 150.31L79.5297 155.59L79.9597 157.74L80.2597 159.86L80.0397 161.84L76.2997 177.26L76.3397 177.3L76.3597 177.72L76.0297 178.39L74.5097 181.33L68.8497 195.14L63.4997 209.09L60.3297 214.81L59.9697 215.05L59.6797 215.03L59.0497 214.6L51.3297 209.78H51.2897L51.1197 209.64L50.2897 208.67L49.3197 208.14L49.0397 208.07L47.7497 207.31L46.7697 206.32L46.4497 205.85L37.9997 196.83L37.6497 196.16L37.7097 195.92L37.9797 193.82L37.8997 191.64L37.7897 190.73L37.9997 190.01L38.1197 189.84L39.0897 186.49L40.2397 183.51L41.5697 180.87L43.0797 178.6L46.3097 174.87L50.0697 171.5L54.3497 168.49L59.1497 165.85L59.6697 165.54L60.5797 165.45L61.5897 165.61L62.3297 165.38L62.6697 165L63.3197 164.76L64.4897 164.56L65.6697 164.76L66.6897 164.56L67.2497 164.23L67.5197 163.86L67.5497 163.4L67.2197 162.23L66.2397 160.15L65.0897 156.41L64.4497 154.73L63.6497 153.24L62.6797 151.95L61.5497 150.85L60.2597 149.95L58.8097 149.25L58.7797 149.24L57.6497 148.61L55.9997 147.83L54.2997 147.38L52.3497 147.29L50.3297 147.61L46.7597 148.35L45.1797 148.75L43.7597 149.43L42.2597 150.6L41.2097 151.56L40.0397 152.31L38.1797 153.65L36.6297 155.24L35.4697 156.93L34.5697 158.84L31.1597 166.74L30.3797 168.22L30.1397 169.51L30.2297 170.9L30.2097 171.69L29.7697 173.51L29.2397 175L29.3797 176.16L29.5597 176.44L28.8697 181.78L28.8197 181.91L28.5497 182.04L28.2997 181.88L26.7997 179.09L23.1697 167.03L22.6797 165.78L22.7397 164.72L22.9097 148.97L22.9997 148.43L25.7697 140.58L27.5397 138.8L29.4897 137.28L32.5797 135.56L36.4697 133.95L39.9297 131.99L43.1697 129.6L44.3497 129.06L45.5597 128.73L48.9897 128.04L51.6597 126.98L52.8897 126.69L54.0697 126.73L55.1997 127.08Z" fill="black"/>
<path d="M51.6586 126.98L48.9886 128.04L45.5586 128.73L46.9586 127.98L48.4086 127.43L49.9986 127.09L51.6586 126.98Z" fill="#6A645A" fill-opacity="0.996"/>
<path d="M60.3192 128.61L55.1992 127.08L56.9592 127.23L58.5992 127.69L60.3192 128.61Z" fill="#6A645A" fill-opacity="0.996"/>
<path d="M17.7172 129.58L12.3672 138.14L13.0372 136.02L13.9072 134.1L14.9872 132.38L16.2672 130.86L17.7172 129.58Z" fill="#6A645A" fill-opacity="0.996"/>
<path d="M43.1681 129.6L39.9281 131.99L36.4681 133.95L32.5781 135.56L43.1681 129.6Z" fill="#6A645A" fill-opacity="0.996"/>
<path d="M67.0677 132.54L65.7376 131.951L64.0977 130.521L65.1376 131.031L67.0677 132.54Z" fill="#6A645A" fill-opacity="0.996"/>
<path d="M89.1094 139.57L89.0394 139.47L87.8794 137.35L87.1094 134.97L87.8694 136.15L88.6194 137.79L89.1094 139.57Z" fill="#6A645A" fill-opacity="0.996"/>
<path d="M1.09781 145.04L1.00781 143.06L1.13779 141.1L1.73779 138.2L1.8678 140.11L1.7778 141.99L1.09781 145.04Z" fill="#6A645A" fill-opacity="0.996"/>
<path d="M90.0494 141.87L89.4094 140.72L89.1094 139.57L89.1994 139.63L89.8194 140.47L90.0494 141.87Z" fill="#6A645A" fill-opacity="0.996"/>
<path d="M79.9598 157.74L79.5298 155.59L78.3799 150.31L77.1198 146.63L73.8398 139.76L75.0498 141.21L76.0298 142.79L76.8598 144.73L77.8499 147.48L79.0298 150.82L79.6999 153.36L80.0099 155.63L79.9598 157.74Z" fill="#6A645A" fill-opacity="0.996"/>
<path d="M25.7695 140.58L22.9995 148.43L22.9095 148.97L22.7395 164.72L21.9395 159.73L21.7695 154.95L22.2395 150.38L23.3395 146.02L24.4195 143.25L25.7695 140.58Z" fill="#6A645A" fill-opacity="0.996"/>
<path d="M93.6803 155.89L90.0703 141.98L91.5403 145.43L92.6303 148.9L93.3403 152.38L93.6803 155.88V155.89Z" fill="#6A645A" fill-opacity="0.996"/>
<path d="M57.6481 148.61L50.3281 147.61L52.3481 147.29L54.2981 147.38L55.9981 147.83L57.6481 148.61Z" fill="#6A645A" fill-opacity="0.996"/>
<path d="M10.057 147.62L9.44705 154.86L9.20703 152.72L9.30704 150.62L10.057 147.62Z" fill="#6A645A" fill-opacity="0.996"/>
<path d="M46.7578 148.35L42.2578 150.6L43.7578 149.43L45.1778 148.75L46.7578 148.35Z" fill="#6A645A" fill-opacity="0.996"/>
<path d="M65.0886 156.41L63.7886 154.46L62.3086 152.61L60.6486 150.88L58.8086 149.25L60.2586 149.95L61.5486 150.85L62.6786 151.95L63.6486 153.24L64.4486 154.73L65.0886 156.41Z" fill="#6A645A" fill-opacity="0.996"/>
<path d="M0.658142 161.19L0.188141 158.25L0.078125 155.32L0.298126 152.6L0.818146 149.89L0.658142 161.19Z" fill="#6A645A" fill-opacity="0.996"/>
<path d="M40.0403 152.311L34.5703 158.841L35.4703 156.931L36.6303 155.241L38.1803 153.651L40.0403 152.311Z" fill="#6A645A" fill-opacity="0.996"/>
<path d="M9.4592 155.83L9.97922 164.59L9.4592 162.31L9.19922 160.09V157.93L9.4592 155.83Z" fill="#6A645A" fill-opacity="0.996"/>
<path d="M64.4883 164.56L65.6783 164.06L66.6183 163.44L66.8483 163.08L66.8083 162.65L66.2883 160.75L66.2383 160.15L67.2183 162.23L67.5483 163.4L67.5183 163.86L67.2483 164.23L66.6883 164.56L65.6683 164.76L64.4883 164.56Z" fill="#6A645A" fill-opacity="0.996"/>
<path d="M80.0369 161.84L79.8669 164.64L79.5069 167.38L78.9469 170.05L78.1869 172.65L76.2969 177.26L80.0369 161.84Z" fill="#6A645A" fill-opacity="0.996"/>
<path d="M75.9297 218.3L88.4397 185.96L90.2997 180.61L91.7997 174.96L92.9597 169.01L93.7697 162.76L93.4697 168.12L92.6497 173.53L91.2997 179L89.4397 184.51L76.3597 217.95L76.1897 218.18L75.9297 218.3Z" fill="#6A645A" fill-opacity="0.996"/>
<path d="M62.6681 165L62.3281 165.38L61.5881 165.61L60.5781 165.45L62.6681 165Z" fill="#6A645A" fill-opacity="0.996"/>
<path d="M10.2188 165.75L12.7588 177.38L11.5088 173.85L10.6787 170.26L10.2188 165.75Z" fill="#6A645A" fill-opacity="0.996"/>
<path d="M59.1472 165.85L54.3472 168.49L50.0672 171.5L46.3072 174.87L43.0772 178.6L41.5672 180.87L40.2372 183.51L39.0872 186.49L38.1172 189.84L38.4372 187.5L39.0972 185.14L40.0772 182.77L41.3872 180.38L43.0372 177.91L44.8772 175.59L46.9572 173.35L49.2372 171.28L51.6972 169.37L54.3572 167.63L56.7572 166.46L59.1472 165.85Z" fill="#6A645A" fill-opacity="0.996"/>
<path d="M31.1567 166.74L30.2267 170.9L30.1367 169.51L30.3767 168.22L31.1567 166.74Z" fill="#6A645A" fill-opacity="0.996"/>
<path d="M26.798 179.09L25.228 175.82L24.088 172.44L23.498 169.77L23.168 167.03L26.798 179.09Z" fill="#6A645A" fill-opacity="0.996"/>
<path d="M10.5967 211.35L8.36673 205.37L6.42673 199.33L4.78674 193.23L3.43674 187.08L1.93674 177.52L1.13672 167.82L2.12674 175.92L3.46674 183.91L5.15674 191.8L7.19675 199.6L10.4167 209.7L10.5967 211.35Z" fill="#6A645A" fill-opacity="0.996"/>
<path d="M29.7683 173.51L29.5583 176.44L29.3783 176.16L29.2383 175L29.7683 173.51Z" fill="#6A645A" fill-opacity="0.996"/>
<path d="M313.078 175.57L311.488 185.97L309.218 196.09L306.258 205.92L302.628 215.46L300.468 220.31L298.118 225.08L292.868 234.4L286.878 243.4L280.148 252.09L284.378 246.28L288.358 240.33L292.098 234.26L295.588 228.05L298.518 222.36L301.258 216.57L304.638 208.45L307.518 200.17L309.288 194.14L310.808 188.03L312.068 181.84L313.078 175.57Z" fill="#6A645A" fill-opacity="0.996"/>
<path d="M76.03 178.39L63.5 209.09L68.85 195.14L74.51 181.33L76.03 178.39Z" fill="#6A645A" fill-opacity="0.996"/>
<path d="M274.777 223.23L280.387 218.64L285.417 214.12L289.857 209.65L293.707 205.24L297.957 199.59L302.047 193.32L305.977 186.42L309.757 178.89L307.127 184.82L304.177 190.52L300.907 195.99L297.327 201.23L292.677 207.11L287.587 212.66L282.057 217.89L276.077 222.8L275.087 223.22L274.777 223.23Z" fill="#6A645A" fill-opacity="0.996"/>
<path d="M17.0195 189.1L21.5195 198.06L19.0995 194.24L17.9395 191.73L17.0195 189.1Z" fill="#6A645A" fill-opacity="0.996"/>
<path d="M129.737 208.83L126.597 205.42L123.707 201.82L120.277 196.73L117.297 191.29L129.737 208.83Z" fill="#6A645A" fill-opacity="0.996"/>
<path d="M37.6475 196.16L37.3675 195.52L37.1875 194.65L37.2175 193.72L37.8975 191.64L37.9775 193.82L37.7075 195.92L37.6475 196.16Z" fill="#6A645A" fill-opacity="0.996"/>
<path d="M46.45 205.85L44.02 204.19L41.86 202.25L39.75 199.72L38 196.83L46.45 205.85Z" fill="#6A645A" fill-opacity="0.996"/>
<path d="M51.119 209.64L50.6291 209.42L49.7791 208.85L49.0391 208.07L49.3191 208.14L50.2891 208.67L51.119 209.64Z" fill="#6A645A" fill-opacity="0.996"/>
<path d="M29.0781 208.54L33.0281 212.46L30.9482 211.06L29.9181 209.91L29.0781 208.54Z" fill="#6A645A" fill-opacity="0.996"/>
<path d="M59.0481 214.6L56.9681 213.71L54.9981 212.62L53.0981 211.3L51.3281 209.78L59.0481 214.6Z" fill="#6A645A" fill-opacity="0.996"/>
<path d="M99.0975 213.29L97.9375 213.89L98.0775 213.38L98.3875 213.13L98.7575 213.07L99.0975 213.29Z" fill="#6A645A" fill-opacity="0.996"/>
<path d="M75.7369 218.79L75.6769 219.63L75.2969 220.11L75.5969 219L75.7369 218.79Z" fill="#6A645A" fill-opacity="0.996"/>
<path d="M148.84 225.89L145.54 223.88L142.56 221.52L139.82 218.76L148.84 225.89Z" fill="#6A645A" fill-opacity="0.996"/>
<path d="M84.748 220.4L81.698 222.03L79.478 222.88L77.168 223.51L84.748 220.4Z" fill="#6A645A" fill-opacity="0.996"/>
<path d="M274.06 223.78L267.44 228.78L264.31 230.81L261.3 232.53L256.78 234.8L252.23 236.86L247.65 238.69L243.05 240.32L238.41 241.72L233.74 242.91L229.05 243.88L224.32 244.64L219.36 245.2L214.37 245.52L209.35 245.61L204.29 245.46L199.2 245.08L194.09 244.46L188.93 243.61L183.75 242.52L180.32 241.6L176.68 240.39L168.82 237.09L175.97 239.7L183.17 241.79L190.43 243.36L197.74 244.42L204.87 244.95L212.05 245L220.06 244.51L227.9 243.47L235.56 241.89L243.04 239.76L251.12 236.77L258.98 233.11L266.63 228.78L274.06 223.78Z" fill="#6A645A" fill-opacity="0.996"/>
<path d="M54.4977 227.52L52.2577 226.64L50.2477 225.45L48.8477 224.32L54.4977 227.52Z" fill="#6A645A" fill-opacity="0.996"/>
<path d="M156.78 231L154.89 230.26L153.15 229.3L151.41 228.02L149.84 226.49L156.78 231Z" fill="#6A645A" fill-opacity="0.996"/>
<path d="M36.0394 228.78L35.6494 228.86L35.4994 229.21L35.5694 229.83L36.3794 231.86L33.6394 227.35L33.6094 227.25L33.6994 227.06L33.9094 227.03L35.2294 227.78L36.0394 228.78Z" fill="#6A645A" fill-opacity="0.996"/>
<path d="M122.057 228.04L121.577 227.91L121.027 227.37L121.707 227.52L122.057 228.04Z" fill="#6A645A" fill-opacity="0.996"/>
<path d="M124.329 229.91L123.289 229.28L122.059 228.04L122.989 228.43L123.729 229.05L124.329 229.91Z" fill="#6A645A" fill-opacity="0.996"/>
<path d="M38.5991 230.48L37.8791 230.1L37.2891 229.6L37.929 229.82L38.399 230.19L38.5991 230.48Z" fill="#6A645A" fill-opacity="0.996"/>
<path d="M68.2483 234.62L65.3383 233.6L62.5983 232.27L59.2383 230.03L68.2483 234.62Z" fill="#6A645A" fill-opacity="0.996"/>
<path d="M99.9803 231.9L90.8203 234.54L93.6303 233.32L96.5203 232.45L99.9803 231.9Z" fill="#6A645A" fill-opacity="0.996"/>
<path d="M132.649 237.55L128.809 233.74L130.169 234.67L131.339 235.78L132.649 237.55Z" fill="#6A645A" fill-opacity="0.996"/>
<path d="M48.1401 236.82L47.8301 236.72L46.1801 235.9L44.6602 234.72L46.3802 235.31L47.3202 235.96L48.1401 236.82Z" fill="#6A645A" fill-opacity="0.996"/>
<path d="M271.289 242.56L273.849 237.8L274.809 236.92L275.109 237.08L275.099 237.17L274.079 239.2L272.819 240.96L271.289 242.56Z" fill="#6A645A" fill-opacity="0.996"/>
<path d="M53.3586 239.88L50.8586 238.71L49.3086 237.6L51.0786 238.27L52.6186 239.24L53.3586 239.88Z" fill="#6A645A" fill-opacity="0.996"/>
<path d="M71.0377 238.66L70.4576 240.11L69.6776 241.43L68.8477 242.47L69.1076 241.26L69.5977 240.19L70.2277 239.37L71.0377 238.66Z" fill="#6A645A" fill-opacity="0.996"/>
<path d="M63.1067 244.57L61.2667 243.99L59.5367 243.21L57.6367 242.05L59.4967 242.59L61.2367 243.37L63.1067 244.57Z" fill="#6A645A" fill-opacity="0.996"/>
<path d="M74.6275 265.82L74.1775 264.11L73.9375 262.34L73.9975 258.37L74.7775 253.85L76.3775 248.36L77.0375 246.69L77.8375 245.19L78.7875 243.87L79.8775 242.72L77.4275 247.38L75.7375 251.86L74.7875 256.18L74.5975 260.32L74.6275 265.82Z" fill="#6A645A" fill-opacity="0.996"/>
<path d="M153.109 245.88L152.759 246.32L151.479 245.58L149.949 243.95L150.079 243.64L150.169 243.65L150.949 243.95L152.109 244.74L153.109 245.88Z" fill="#6A645A" fill-opacity="0.996"/>
<path d="M29.3474 246.37L28.5374 245.51L28.0273 244.58L28.5873 244.89L29.0674 245.5L29.3474 246.37Z" fill="#6A645A" fill-opacity="0.996"/>
<path d="M155.1 246.82L154.29 246.49L153.63 246.01L153.5 245.88L154.25 245.92L154.77 246.19L155.1 246.82Z" fill="#6A645A" fill-opacity="0.996"/>
<path d="M32.5895 250.65L31.4496 249.41L31.0195 248.57L31.4895 248.84L32.1595 249.59L32.5895 250.65Z" fill="#6A645A" fill-opacity="0.996"/>
<path d="M164.36 251.85L159.23 249.17L161.06 249.75L162.711 250.6L164.36 251.85Z" fill="#6A645A" fill-opacity="0.996"/>
<path d="M120.637 256.65L118.897 255.02L116.637 252.99L114.627 251.95L113.457 251.7L112.117 251.65L113.517 251.2L114.757 251.29L116.047 251.82L117.327 252.69L118.517 253.78L119.627 255.1L120.637 256.65Z" fill="#6A645A" fill-opacity="0.996"/>
<path d="M144.638 260.9L141.988 251.82L143.088 253.8L143.898 255.79L144.408 257.8L144.638 259.81V260.9Z" fill="#6A645A" fill-opacity="0.996"/>
<path d="M160.02 254.83L158.95 254.04L158.29 253.07L158.09 252.42L160.02 254.83Z" fill="#6A645A" fill-opacity="0.996"/>
<path d="M36.3391 255.05L35.989 254.86L35.4491 254.34L35.0391 253.6L35.739 254.04L36.3391 255.05Z" fill="#6A645A" fill-opacity="0.996"/>
<path d="M262.799 253.76L260.349 256.9L257.899 259.23L255.109 261.25L262.799 253.76Z" fill="#6A645A" fill-opacity="0.996"/>
<path d="M278.807 253.811L274.047 259.281L275.837 256.641L277.227 255.151L278.807 253.811Z" fill="#6A645A" fill-opacity="0.996"/>
<path d="M38.1599 257.4L37.0598 256.29L36.3398 255.05L37.5498 256L38.1198 257.09L38.1599 257.4Z" fill="#6A645A" fill-opacity="0.996"/>
<path d="M125.949 255.61L127.369 259L127.999 262.43L128.009 262.68L125.949 255.61Z" fill="#6A645A" fill-opacity="0.996"/>
<path d="M212.968 264.23L207.778 264.65L202.678 264.68L197.648 264.31L192.688 263.55L188.278 262.52L183.918 261.16L179.628 259.48L175.398 257.47L185.988 261.21L190.868 262.65L195.208 263.56L200.238 264.13L204.708 264.21L209.508 264.11L212.968 264.23Z" fill="#6A645A" fill-opacity="0.996"/>
<path d="M237.05 258.42L232.2 260.35L229.26 261.21L226.25 261.87L228.96 260.68L231.73 259.7L237.05 258.42Z" fill="#6A645A" fill-opacity="0.996"/>
<path d="M61.0467 262.341L59.5767 261.531L58.2867 260.521L56.6367 258.521L61.0467 262.341Z" fill="#6A645A" fill-opacity="0.996"/>
<path d="M165.917 261.78L164.757 261.02L163.757 259.91L163.027 258.5L165.917 261.78Z" fill="#6A645A" fill-opacity="0.996"/>
<path d="M126.287 264.39L123.027 259.53L124.837 261.37L125.687 262.79L126.287 264.39Z" fill="#6A645A" fill-opacity="0.996"/>
<path d="M99.0591 261.03L98.829 262.86L98.329 264.35L98.2891 264.2L98.299 262.71L99.0591 261.03Z" fill="#6A645A" fill-opacity="0.996"/>
<path d="M224.308 262.15L214.848 263.99L216.948 263.21L217.808 263.04L224.308 262.15Z" fill="#6A645A" fill-opacity="0.996"/>
<path d="M47.0578 266.7L45.0978 265.04L43.2578 262.82L45.2678 264.46L47.0578 266.7Z" fill="#6A645A" fill-opacity="0.996"/>
<path d="M253.327 262.811L249.607 266.121L245.557 268.851L241.327 270.961L236.777 272.531L240.957 270.561L245.007 268.361L249.247 265.721L253.327 262.811Z" fill="#6A645A" fill-opacity="0.996"/>
<path d="M70.8188 268.93L68.9488 268.25L67.2087 267.361L65.6487 266.291L64.2188 265.021L70.8188 268.93Z" fill="#6A645A" fill-opacity="0.996"/>
<path d="M98.2578 268.811L99.0278 272.001L99.9978 275.051L101.158 277.971L102.518 280.761L101.278 279.021L100.248 277.221L99.4378 275.361L98.8378 273.461L98.3978 271.171L98.2578 268.811Z" fill="#6A645A" fill-opacity="0.996"/>
<path d="M264.299 269.05L260.65 272.48L256.789 275.65L251.27 279.52L264.299 269.05Z" fill="#6A645A" fill-opacity="0.996"/>
<path d="M75.3698 268.96L75.8098 269.3L75.9898 269.67L75.7498 270.29L75.2498 270.64L74.7398 270.63L74.2899 270.42L73.8398 269.91L74.6398 269.56L75.3698 268.96Z" fill="#6A645A" fill-opacity="0.996"/>
<path d="M144.098 270.8L144.378 269.55V269.51L144.448 270.1L144.308 270.56L144.098 270.8Z" fill="#6A645A" fill-opacity="0.996"/>
<path d="M57.3578 275.65L52.7578 271.88L54.1978 272.71L55.8778 274.04L57.3578 275.65Z" fill="#6A645A" fill-opacity="0.996"/>
<path d="M235.828 272.85L235.008 273.41L234.218 273.55L233.758 273.43L235.828 272.85Z" fill="#6A645A" fill-opacity="0.996"/>
<path d="M196.558 276.75L190.858 276.42L185.798 275.63L183.278 274.93L180.928 273.91L180.008 273.4L187.958 275.37L196.558 276.75Z" fill="#6A645A" fill-opacity="0.996"/>
<path d="M233.177 273.63L228.387 275.09L224.807 275.57L221.307 275.72L217.987 276.18L214.847 276.93L211.887 277.99L212.517 277.09L213.297 276.48L214.557 276.11L223.847 275.07L233.177 273.63Z" fill="#6A645A" fill-opacity="0.996"/>
<path d="M210.167 280.32L208.717 282.58L206.487 284.78L203.357 287.15L200.617 288.76L210.167 280.32Z" fill="#6A645A" fill-opacity="0.996"/>
<path d="M103.587 301.871L102.507 301.581L98.3073 300.091L90.4673 296.531L82.8073 292.631L75.0374 288.211L67.4673 283.411L65.7773 282.061L66.4573 282.141L75.1073 287.741L84.0573 292.791L93.3174 297.291L102.867 301.241L103.527 301.761L103.587 301.871Z" fill="#6A645A" fill-opacity="0.996"/>
<path d="M134.56 288.61L131.53 287.87L129.72 287.12L127.98 286.16L134.56 288.61Z" fill="#6A645A" fill-opacity="0.996"/>
<path d="M178.88 286.83L175.48 288.14L172.02 289.2L167.61 290.15L163.09 290.7L178.88 286.83Z" fill="#6A645A" fill-opacity="0.996"/>
<path d="M236.62 289.15L235.32 289.83L235.65 289.29L236.07 289.13L236.62 289.15Z" fill="#6A645A" fill-opacity="0.996"/>
<path d="M235.32 289.83L234.56 290.43L233.59 290.92L233.65 290.65L234.21 290.12L235.32 289.83Z" fill="#6A645A" fill-opacity="0.996"/>
<path d="M144.62 290.77L140.5 290.21L141.76 289.99L142.95 290.08L144.62 290.77Z" fill="#6A645A" fill-opacity="0.996"/>
<path d="M158.577 291.1L156.127 291.58L153.677 291.76L151.407 291.65L149.137 291.27L158.577 291.1Z" fill="#6A645A" fill-opacity="0.996"/>
<path d="M196.928 291.1L193.258 293.48L190.498 294.76L187.578 295.73L196.928 291.1Z" fill="#6A645A" fill-opacity="0.996"/>
<path d="M223.367 296.14L216.448 299.27L209.438 302.03L202.328 304.42L195.138 306.44L187.667 308.13L180.107 309.43L172.448 310.35L164.688 310.88L167.287 310.42L172.037 309.87L179.398 309.09L187.198 307.6L194.927 305.81L202.188 303.82L209.388 301.56L216.318 298.74L221.217 296.83L223.367 296.14Z" fill="#6A645A" fill-opacity="0.996"/>
<path d="M126.808 298.331L126.288 298.3L124.978 297.901L123.738 297.021L125.388 297.521L126.808 298.331Z" fill="#6A645A" fill-opacity="0.996"/>
<path d="M128.859 298.98L128.779 299L127.869 298.94L126.809 298.33L127.819 298.53L128.859 298.98Z" fill="#6A645A" fill-opacity="0.996"/>
<path d="M178.77 299.07L174.95 300.4L171.06 301.25L166.84 301.64L178.77 299.07Z" fill="#6A645A" fill-opacity="0.996"/>
<path d="M136.868 301.22L134.968 301.04L133.168 300.57L131.488 299.85L136.868 301.22Z" fill="#6A645A" fill-opacity="0.996"/>
<path d="M125.74 308.12L119.37 306.9L113.11 305.27L108.31 303.7L103.59 301.87L104.39 301.93L105.14 302.06L124.49 307.53L125.01 307.74L125.74 308.12Z" fill="#6A645A" fill-opacity="0.996"/>
<path d="M146.148 302.51L144.238 302.6L142.428 302.33L141.258 301.96L142.958 301.95L146.148 302.51Z" fill="#6A645A" fill-opacity="0.996"/>
<path d="M137.867 310.01L126.027 308.13L130.757 308.52L135.377 309.36L137.867 310.01Z" fill="#6A645A" fill-opacity="0.996"/>
<path d="M146.649 310.63L140.609 310.21L142.609 310.01L144.559 310.13L146.649 310.63Z" fill="#6A645A" fill-opacity="0.996"/>
</svg>

</svg>
