<svg width="367" height="435" viewBox="0 0 367 435" fill="none" xmlns="http://www.w3.org/2000/svg">
<rect width="366.05" height="434.84" fill="white"/>
<path d="M193.53 0L197.92 0.609985L201.86 0.509979L203.21 0.459991L203.97 0.699982L230.36 6.5L239.76 9.59L240.79 10.22L242.37 10.9L244.09 11.33L244.46 11.39L244.73 11.55L246.54 12.64L248.45 13.45L250.32 13.96L262.04 19.96L263 20.82L263.84 20.97L276.26 29.04L276.64 29.53L277.94 30.7L279.57 31.58L279.74 31.78L281.27 33.21L282.57 33.84L284.27 35.05L285.13 36.12L286.11 36.54L288.08 38.01L289.74 39.73L289.77 39.76L290.95 41.15L292.27 42.37L294.56 43.88L301.78 51.25L301.99 51.78L302.73 52.85L303.85 53.73L309.86 61.32L309.92 61.47L309.79 61.73L309.5 61.74L307.12 60.01L303.59 57.01L299.89 54.25L298.11 53.04L289 47.51L279.58 42.7L275.46 40.82L271.28 39.17L267.05 37.76L262.76 36.58L258.3 35.61L253.78 34.88L249.2 34.4L244.56 34.16L228.61 34.13L221.55 34.56L214.61 35.6L207.82 37.23L201.15 39.46L200.41 39.95L199.62 40.21L198.81 40.23L193.18 42.4L187.76 44.87L182.53 47.65L177.5 50.73L170.81 55.56L164.5 60.98L158.51 67.11L153.24 72.64L148.59 78.61L144.95 84.32L141.81 90.38L141.05 92.36L139.97 93.88L137.76 98.64L135.81 103.47L134.12 108.36L132.68 113.32L131.22 119.81L130.18 126.4L129.57 133.1L129.38 139.92L129.87 147.25L130.79 154.56L131.59 159.57L132.63 164.5L133.92 169.35L135.44 174.11L137.72 180.02L140.39 185.8L143.3 191.29L146.28 196.73L149.71 201.82L152.6 205.42L155.74 208.83L165.82 218.76L168.56 221.52L171.54 223.88L174.84 225.89L175.84 226.49L177.41 228.02L179.15 229.3L180.89 230.26L182.78 231L194.82 237.09L202.68 240.39L206.32 241.6L209.75 242.52L214.93 243.61L220.09 244.46L225.2 245.08L230.29 245.46L235.35 245.61L240.37 245.52L245.36 245.2L250.32 244.64L255.05 243.88L259.74 242.91L264.41 241.72L269.05 240.32L273.65 238.69L278.23 236.86L282.78 234.8L287.3 232.53L290.31 230.81L293.44 228.78L300.06 223.78L300.78 223.23L301.09 223.22L302.08 222.8L308.06 217.89L313.59 212.66L318.68 207.11L323.33 201.23L326.91 195.99L330.18 190.52L333.13 184.82L335.76 178.89L338.35 171.05L338.63 170.81L338.97 170.95L339.04 171.15L339.08 175.57L338.07 181.84L336.81 188.03L335.29 194.14L333.52 200.17L330.64 208.45L327.26 216.57L324.52 222.36L321.59 228.05L318.1 234.26L314.36 240.33L310.38 246.28L306.15 252.09L305.93 252.56L304.81 253.81L303.23 255.15L301.84 256.64L300.05 259.28L290.3 269.05L277.27 279.52L262.62 289.15L262.07 289.13L261.65 289.29L261.32 289.83L260.21 290.12L259.65 290.65L259.59 290.92L249.37 296.14L247.22 296.83L242.32 298.74L235.39 301.56L228.19 303.82L220.93 305.81L213.2 307.6L205.4 309.09L198.04 309.87L193.29 310.42L190.69 310.88L172.65 310.63L170.56 310.13L168.61 310.01L166.61 310.21L165.17 310.22L163.87 310.01L161.38 309.36L156.76 308.52L152.03 308.13L152.07 308.19L151.74 308.12L151.01 307.74L150.49 307.53L131.14 302.06L130.39 301.93L129.59 301.87L129.53 301.76L128.87 301.24L119.32 297.29L110.06 292.79L101.11 287.74L92.4601 282.14L91.7802 282.06L91.4402 281.9L91.4201 281.87L83.7802 276L83.5901 275.99L83.3601 275.65L81.8802 274.04L80.2002 272.71L78.7602 271.88L73.0602 266.7L71.2701 264.46L69.2602 262.82L64.1602 257.4L64.1201 257.09L63.5501 256L62.3401 255.05L61.7401 254.04L61.0402 253.6L58.5901 250.65L58.1602 249.59L57.4901 248.84L57.0201 248.57L55.7602 247.23L55.3502 246.37L55.0702 245.5L54.5901 244.89L54.0302 244.58L53.6902 244.15L53.7502 244.1L49.0702 236.78L48.8102 236.37L43.7002 226.99L40.7202 221.03L37.0702 212.24L36.6002 211.35L36.4201 209.7L33.2002 199.6L31.1602 191.8L29.4702 183.91L28.1302 175.92L27.1401 167.82L26.6602 161.19L26.8202 149.89L26.7101 148.59L26.7802 146.82L27.1002 145.04L27.7802 141.99L27.8701 140.11L27.7401 138.2L27.6002 136.81L27.9802 135.9L28.0302 135.85L29.6101 127.3L31.5702 118.88L33.9001 110.59L36.6101 102.44L39.4901 94.89L42.7101 87.46L42.9502 86.39L42.9001 85.99H43.0602L43.5501 85.53L49.3202 75.06L51.9502 70.76L55.2802 65.93L61.4402 56.93L61.7002 56.33L62.6101 55.56L63.9301 54.57L64.9802 53.39L65.9102 51.57L79.5302 37.97L80.5402 37.53L82.0801 36.4L83.3701 34.8V34.77L83.5302 34.56L87.7401 31.88L91.4901 28.65L91.9901 27.98L92.4502 27.78L92.5501 27.8L102.92 21.3L102.94 21.26L102.9 20.99L103.34 20.75L103.61 20.7L115.44 14.6L115.29 14.51L115.52 14.59L122.31 11.67L122.57 11.41L122.77 11.44L124.37 11.21L132.44 8.28L140.12 5.89999L147.92 3.85999L155.84 2.17999L163.88 0.849976L165.3 0.459991L166.98 0.47998L169.44 0.689972L171.83 0.5L173.72 0.0599976L193.53 0ZM154.59 11.72L150.92 12.15L147.55 12.37L145.55 12.88L143.6 13.68L140.6 14.35L134.53 15.94L128.8 18.25L125.42 20.03L122.17 22.09L118.21 24.38L114.42 26.86L110.8 29.53L107.33 32.39L103.59 35.87L100.07 39.6L99.2302 40.18L98.6002 40.91L98.1201 42L95.9001 44.92L93.3502 48.15L90.6801 52.26L88.4001 56.66L86.5201 61.34L85.0302 66.31L84.1701 70.35L83.6401 74.37L83.4402 78.37L83.5602 82.34L83.8301 85.01L84.2802 88.84V90.81L84.5201 92.92L85.8502 98.32L86.5801 100.96L88.4301 107.11L92.2101 116.6L92.2502 116.56L92.4702 116.85L92.1501 117.48L91.7101 117.83L91.2101 117.9L90.6101 117.73L88.1201 116.78L85.1602 115.99L84.9702 116.01L84.7701 116.22V116.25L84.1002 115.97L83.0201 115.36L81.6501 115.04L80.4502 114.46L79.1302 113.31L77.9601 111.02L73.4901 104.25L69.3001 97.35L65.4001 90.31L61.7902 83.14L61.3901 82.73L61.0602 82.55L60.8701 82.33L60.9201 81.51L60.6701 81.09L60.2002 80.73L60.1501 80.7H59.6401L59.2802 81.07L56.5702 88.42L56.3601 89.33L55.4502 94.5L55.1302 96.7L55.0702 98.76L55.2101 100.83L55.5801 102.93L56.1602 105.04L60.0602 113.5L60.4001 114.8L61.2902 115.58L61.9102 116.48L62.0002 117.26L61.6401 117.84L59.5901 118.41L57.7401 119.32L55.6902 120.96L48.8601 125.56L47.4402 126.16L46.2902 127.03L45.6701 127.75L45.6401 127.8L44.8802 128.79L43.7202 129.58L42.2701 130.86L40.9901 132.38L39.9102 134.1L39.0402 136.02L38.3701 138.14L36.0602 147.62L35.3102 150.62L35.2101 152.72L35.4502 154.86L35.4901 155.04L35.4601 155.83L35.2002 157.93V160.09L35.4601 162.31L35.9802 164.59L36.1302 164.49L36.2202 165.75L36.6801 170.26L37.5102 173.85L38.7602 177.38L43.0201 189.1L43.9402 191.73L45.1002 194.24L47.5201 198.06L55.0801 208.54L55.9201 209.91L56.9502 211.06L59.0302 212.46L66.6801 218.66L74.8502 224.32L76.2502 225.45L78.2602 226.64L80.5002 227.52L85.2401 230.03L88.6002 232.27L91.3401 233.6L94.2502 234.62L97.7302 236.18L98.0302 236.48L98.0501 236.9L97.6201 237.88L97.0402 238.66L96.2302 239.37L95.6002 240.19L95.1101 241.26L94.8502 242.47L93.9702 243.97L92.6801 245.41L92.2701 245.65L91.8001 245.68L90.5901 245.38L89.5302 244.86L89.1101 244.57L87.2401 243.37L85.5002 242.59L83.6401 242.05L81.7502 241.31L80.0102 240.33L79.3601 239.88L78.6201 239.24L77.0801 238.27L75.3102 237.6L74.5402 237.27L74.1401 236.82L73.3202 235.96L72.3802 235.31L70.6602 234.72L64.6002 230.48L64.4001 230.19L63.9301 229.82L63.2902 229.6L62.0402 228.78L61.2302 227.78L59.9102 227.03L59.7002 227.06L59.6101 227.25L59.6401 227.35L62.3802 231.86L65.2502 237.02L68.2002 241.78L71.2101 246.13L74.2902 250.09L77.6501 253.73L82.6401 258.52L84.2902 260.52L85.5801 261.53L87.0501 262.34L90.2202 265.02L91.6501 266.29L93.2101 267.36L94.9502 268.25L96.8202 268.93L99.8401 269.91L100.29 270.42L100.74 270.63L101.25 270.64L101.75 270.29L101.99 269.67L101.81 269.3L101.37 268.96L100.85 267.36L100.63 265.82L100.6 260.32L100.79 256.18L101.74 251.86L103.43 247.38L105.88 242.72L107.33 240.88L108.95 239.23L110.68 237.8L112.57 236.54L114.62 235.45L116.82 234.54L125.98 231.9L126.64 231.67L127.41 231.63L129.28 232.13L131.15 233.01L134.73 235.21L139.28 238.79L139.95 239.34L143.82 242.94L147.23 247L149.94 251.24L151.95 255.61L154.01 262.68L154.17 263.82L154.05 264.89L153.82 265.55L153.79 265.6L153.51 265.78L153.19 265.68L152.46 264.76L152.29 264.39L151.69 262.79L150.84 261.37L149.03 259.53L146.64 256.65L145.63 255.1L144.52 253.78L143.33 252.69L142.05 251.82L140.76 251.29L139.52 251.2L138.12 251.65L135.42 252.14L132.99 252.93L130.84 254.02L128.95 255.42L127.77 256.6L126.73 257.92L125.06 261.03L124.3 262.71L124.29 264.2L124.33 264.35L124.26 268.81L124.4 271.17L124.84 273.46L125.44 275.36L126.25 277.22L127.28 279.02L128.52 280.76L130.33 283.22L132.37 285.51L134.64 287.7L137.24 289.84L140.04 291.84L143.13 293.74L146.33 295.45L149.74 297.02L150.98 297.9L152.29 298.3L152.81 298.33L153.87 298.94L154.78 299L154.86 298.98L156.27 299.32L157.49 299.85L159.17 300.57L160.97 301.04L162.87 301.22L167.26 301.96L168.43 302.33L170.24 302.6L172.15 302.51L173.13 302.61L178 302.91L182.91 302.84L187.86 302.42L192.84 301.64L197.06 301.25L200.95 300.4L204.77 299.07L213.58 295.73L216.5 294.76L219.26 293.48L222.93 291.1L226.62 288.76L229.36 287.15L232.49 284.78L234.72 282.58L236.17 280.32L237.89 277.99L240.85 276.93L243.99 276.18L247.31 275.72L250.81 275.57L254.39 275.09L259.18 273.63L259.76 273.43L260.22 273.55L261.01 273.41L261.83 272.85L262.38 272.51L262.73 272.49L262.78 272.53L267.33 270.96L271.56 268.85L275.61 266.12L279.33 262.81L280.05 261.93L280.91 261.34L281.11 261.25L283.9 259.23L286.35 256.9L288.8 253.76L297.29 242.56L298.82 240.96L300.08 239.2L301.1 237.17L301.11 237.08L300.81 236.92L299.85 237.8L293.97 242.01L288.04 245.92L282.08 249.53L276.07 252.84L269.87 255.78L263.05 258.42L257.73 259.7L254.96 260.68L252.25 261.87L250.9 262.17L250.31 262.15L243.81 263.04L242.95 263.21L240.85 263.99L238.97 264.23L235.51 264.11L230.71 264.21L226.24 264.13L221.21 263.56L216.87 262.65L211.99 261.21L201.4 257.47L190.36 251.85L188.71 250.6L187.06 249.75L185.23 249.17L181.1 246.82L180.77 246.19L180.25 245.92L179.5 245.88L179.33 245.84L179.11 245.88L178.11 244.74L176.95 243.95L176.17 243.65L176.08 243.64L175.95 243.95L177.48 245.58L178.76 246.32L184.09 252.42L184.29 253.07L184.95 254.04L186.02 254.83L189.03 258.5L189.76 259.91L190.76 261.02L191.92 261.78L195.8 266.04L200.11 269.71L202.98 271.66L206.01 273.4L206.93 273.91L209.28 274.93L211.8 275.63L216.86 276.42L222.56 276.75L215.66 281.61L207.42 285.85L204.88 286.83L189.09 290.7L188.74 290.81L186.72 291.17L184.58 291.1L175.14 291.27L172.82 291.22L170.62 290.77L168.95 290.08L167.76 289.99L166.5 290.21L160.56 288.61L153.98 286.16L150.98 284.78L147.35 282.6L143.95 279.95L143.84 279.61L144.09 279.36L144.3 279.37L147.11 280.3L149.96 280.89L152.82 281.14L155.64 281.04L158.3 280.58L160.85 279.77L163.15 278.64L165.28 277.16L166.72 275.82L168.03 274.29L169.14 272.64L170.1 270.8L170.31 270.56L170.45 270.1L170.38 269.51L170.99 266.99L171.16 264.49L171.02 262.69L170.64 260.9V259.81L170.41 257.8L169.9 255.79L169.09 253.8L167.99 251.82L167.97 251.77L165.12 246.48L161.63 241.49L158.65 237.55L157.34 235.78L156.17 234.67L154.81 233.74L150.33 229.91L149.73 229.05L148.99 228.43L148.06 228.04L147.71 227.52L147.03 227.37L145.29 226.32L143.9 225.07L135.79 220.05L131.84 217.96L128.96 215.95L126.29 213.6L125.75 213.27L125.1 213.29L124.76 213.07L124.39 213.13L124.08 213.38L123.94 213.89L120.92 215.79L115.98 218.34L110.75 220.4L103.17 223.51L101.94 223.81L100.8 223.74L100.65 223.7L100.32 223.44L100.23 223.03L100.3 222.67L100.69 221.37L101.3 220.11L101.68 219.63L101.74 218.79L101.93 218.3L102.19 218.18L102.36 217.95L115.44 184.51L117.3 179L118.65 173.53L119.47 168.12L119.77 162.76L119.68 155.89V155.88L119.34 152.38L118.63 148.9L117.54 145.43L116.07 141.98L116.05 141.87L115.82 140.47L115.2 139.63L115.11 139.57L114.62 137.79L113.87 136.15L113.11 134.97L107.55 123.93L104.33 117.05L104.14 116.84L104.07 116.6L103.65 114.87L102.95 113.3L102.07 112.02L101.57 111.26L101.45 110.77L101.53 110.33L101.85 110.01L107.21 107.22L108.4 106.93L109.47 106.43L110.36 105.77L111.14 104.93L116.98 100.75L121.24 96.89L124.93 92.6L127.29 89.13L129.33 85.43L131.05 81.49L132.46 77.31L132.55 76.72L132.42 76.39L132.26 76.31L132.97 74.4L133.86 70.97L134.45 67.56L134.73 64.17L134.71 60.79L134.09 55.68L132.75 50.6L134.03 50.04L136.78 49.48L137.91 49.72L138.86 49.47L139.8 48.81L144.07 47.73L144.41 47.72L145.77 47.57L147.11 47.21L149.78 45.89L174.79 33.57L196.37 25.87L196.52 25.77L197.74 25.43L198.23 25.67L198.86 25.55L199.55 25L205.84 23.45L207.29 23.64L208.67 23.5L209.3 23.32L209.6 22.94L209.39 22.51L208.67 22.19L208.13 22.23L207.99 22.33L207.42 21.9L200.13 18.13L199.61 18L198.17 17.49L196.79 16.77L190.36 14.36L183.79 12.61L180.07 11.93L176.3 11.46L172.48 11.19L168.62 11.13L162.12 11.16L159.28 10.91L156.54 11.18L154.59 11.72Z" fill="black"/>
<path d="M201.857 0.509979L197.917 0.609985L193.527 0L201.857 0.509979Z" fill="#6A645A" fill-opacity="0.996"/>
<path d="M173.72 0.0605469L171.83 0.500549L169.44 0.690521L166.98 0.48053L173.72 0.0605469Z" fill="#6A645A" fill-opacity="0.996"/>
<path d="M163.88 0.849609L155.84 2.17963L147.92 3.85962L140.12 5.89963L132.44 8.27963L124.37 11.2096L122.77 11.4396L122.57 11.4096L128.91 8.86963L135.32 6.65961L141.8 4.76962L148.35 3.20963L156.07 1.80963L163.88 0.849609Z" fill="#6A645A" fill-opacity="0.996"/>
<path d="M230.359 6.50021L203.969 0.700195L210.949 1.56021L217.829 2.87021L224.139 4.4902L230.359 6.50021Z" fill="#6A645A" fill-opacity="0.996"/>
<path d="M244.088 11.3298L242.368 10.8998L240.788 10.2198L239.758 9.58984L242.598 10.5198L244.088 11.3298Z" fill="#6A645A" fill-opacity="0.996"/>
<path d="M162.12 11.1602L154.59 11.7202L156.54 11.1802L159.28 10.9102L162.12 11.1602Z" fill="#6A645A" fill-opacity="0.996"/>
<path d="M196.787 16.7699L189.207 14.6299L181.537 12.9499L175.107 11.8799L168.617 11.1299L172.477 11.1899L176.297 11.4599L180.067 11.9299L183.787 12.6099L190.357 14.3599L196.787 16.7699Z" fill="#6A645A" fill-opacity="0.996"/>
<path d="M250.32 13.9598L248.451 13.4498L246.54 12.6398L244.73 11.5498L250.32 13.9598Z" fill="#6A645A" fill-opacity="0.996"/>
<path d="M150.918 12.1504L143.598 13.6804L145.548 12.8804L147.548 12.3704L150.918 12.1504Z" fill="#6A645A" fill-opacity="0.996"/>
<path d="M140.598 14.3496L132.588 17.2096L124.878 20.6896L122.168 22.0896L125.418 20.0296L128.798 18.2496L134.528 15.9396L140.598 14.3496Z" fill="#6A645A" fill-opacity="0.996"/>
<path d="M115.439 14.5996L103.609 20.6996L107.419 18.2096L111.429 16.1496L115.439 14.5996Z" fill="#6A645A" fill-opacity="0.996"/>
<path d="M263.839 20.97L262.999 20.8199L262.039 19.96L263.839 20.97Z" fill="#6A645A" fill-opacity="0.996"/>
<path d="M102.897 20.9902L102.937 21.2602L102.917 21.3002L92.5469 27.8002L102.897 20.9902Z" fill="#6A645A" fill-opacity="0.996"/>
<path d="M168.609 23.6097L168.469 22.9097L168.259 22.5597L167.879 22.4297L153.789 22.5597L159.489 21.7497L164.789 21.6797L170.139 22.2497L170.249 22.2897L170.469 22.5697L170.369 22.9197L169.649 23.3997L168.609 23.6097Z" fill="#6A645A" fill-opacity="0.996"/>
<path d="M205.84 23.4504L207.99 22.3304L208.13 22.2304L208.67 22.1904L209.39 22.5104L209.6 22.8304L209.54 23.1304L209.3 23.3204L208.67 23.5005L207.29 23.6404L205.84 23.4504Z" fill="#6A645A" fill-opacity="0.996"/>
<path d="M153.787 22.5597L167.877 22.4297L168.257 22.5597L168.467 22.9097L168.607 23.6097L156.787 29.1097L151.647 31.8097L148.237 34.1297L145.017 36.7797L142.337 38.8697L141.237 39.2597L140.537 39.8997L140.257 40.5797L131.027 49.5797L130.387 50.0497L130.087 51.1397L126.847 55.7797L124.147 60.2097L122.247 63.9297L120.607 67.7897L116.077 76.6697L112.157 83.5397L111.247 85.1797L110.107 86.5297L109.147 87.2297L108.447 88.0797L107.937 89.3197L104.537 92.7097L99.1972 95.9797L98.3772 96.0897L97.7272 95.5697L97.6972 95.4997L97.4072 94.7297L97.0472 93.3697L96.0972 86.7397L95.8672 79.6097L96.0672 76.3797L96.5772 73.0797L97.3672 69.6897L98.4672 66.2197L100.217 61.7797L102.287 57.4497L104.687 53.2197L107.397 49.0997L107.957 48.0097L109.057 46.9897L117.217 38.8697L118.407 37.5597L119.637 36.7597L122.037 35.4497L123.677 34.2497L125.197 32.8697L125.207 32.7997L125.537 32.5497L132.347 28.7397L132.357 28.7197L132.497 28.7297L133.907 28.3597L135.217 27.8097L136.797 26.8197L143.817 24.4997L149.557 23.6397L151.397 23.0097L152.037 22.5997L153.007 22.4597L153.787 22.5597Z" fill="black"/>
<path d="M152.04 22.5996L151.4 23.0096L149.56 23.6396L143.82 24.4996L152.04 22.5996Z" fill="#6A645A" fill-opacity="0.996"/>
<path d="M199.548 25L198.858 25.55L198.228 25.67L197.738 25.43L199.548 25Z" fill="#6A645A" fill-opacity="0.996"/>
<path d="M196.369 25.8701L174.789 33.5701L181.189 30.7301L187.729 28.3201L196.369 25.8701Z" fill="#6A645A" fill-opacity="0.996"/>
<path d="M136.8 26.8203L135.22 27.8103L133.91 28.3603L132.5 28.7303L135.05 27.3203L136.8 26.8203Z" fill="#6A645A" fill-opacity="0.996"/>
<path d="M91.4873 28.6504L87.7373 31.8804L83.5273 34.5604L87.5173 31.1604L91.4873 28.6504Z" fill="#6A645A" fill-opacity="0.996"/>
<path d="M156.79 29.1104L145.02 36.7804L148.24 34.1303L151.65 31.8104L156.79 29.1104Z" fill="#6A645A" fill-opacity="0.996"/>
<path d="M279.568 31.58L277.938 30.7L276.638 29.5301L276.258 29.04L277.768 29.9701L279.088 31.08L279.568 31.58Z" fill="#6A645A" fill-opacity="0.996"/>
<path d="M282.568 33.8403L281.268 33.2103L279.738 31.7803L281.118 32.5403L282.568 33.8403Z" fill="#6A645A" fill-opacity="0.996"/>
<path d="M125.197 32.8701L123.677 34.2501L122.037 35.4501L119.637 36.7601L125.197 32.8701Z" fill="#6A645A" fill-opacity="0.996"/>
<path d="M228.608 34.1299L219.348 35.4599L210.208 37.2399L201.148 39.4599L207.818 37.2299L214.608 35.5999L221.548 34.5599L228.608 34.1299Z" fill="#6A645A" fill-opacity="0.996"/>
<path d="M279.579 42.7002L270.649 39.5002L261.559 36.9902L253.129 35.2902L244.559 34.1602L249.199 34.4002L253.779 34.8802L258.299 35.6102L262.759 36.5802L267.049 37.7602L271.279 39.1702L275.459 40.8202L279.579 42.7002Z" fill="#6A645A" fill-opacity="0.996"/>
<path d="M83.3673 34.7998L82.0773 36.3998L80.5374 37.5298L79.5273 37.9698L80.9073 36.5298L82.4474 35.3398L83.3673 34.7998Z" fill="#6A645A" fill-opacity="0.996"/>
<path d="M286.109 36.5398L285.13 36.1198L284.27 35.0498L284.59 35.2398L286.109 36.5398Z" fill="#6A645A" fill-opacity="0.996"/>
<path d="M117.219 38.8701L109.059 46.9901L110.919 44.4701L113.029 42.2001L115.029 40.4401L117.219 38.8701Z" fill="#6A645A" fill-opacity="0.996"/>
<path d="M142.338 38.8701L140.258 40.5801L140.538 39.9001L141.238 39.2601L142.338 38.8701Z" fill="#6A645A" fill-opacity="0.996"/>
<path d="M100.067 39.5996L99.4672 40.6396L98.7072 41.5096L98.1172 41.9996L98.5972 40.9096L99.2272 40.1796L100.067 39.5996Z" fill="#6A645A" fill-opacity="0.996"/>
<path d="M294.56 43.8798L292.27 42.3698L290.95 41.1498L289.77 39.7598L294.56 43.8798Z" fill="#6A645A" fill-opacity="0.996"/>
<path d="M198.81 40.2305L190.63 44.0905L186.17 46.2705L182.59 48.2305L177.9 51.1305L173.33 54.2205L168.86 57.5105L164.5 60.9805L170.81 55.5605L177.5 50.7305L182.53 47.6505L187.76 44.8705L193.18 42.4005L198.81 40.2305Z" fill="#6A645A" fill-opacity="0.996"/>
<path d="M95.8975 44.9199L93.1075 49.0499L90.6775 53.2999L88.6175 57.6699L86.9275 62.1599L85.3875 67.6199L84.3575 73.2499L83.8375 79.0399L83.8275 85.0099L83.5575 82.3399L83.4375 78.3699L83.6375 74.3699L84.1675 70.3499L85.0275 66.3099L86.5175 61.3399L88.3975 56.6599L90.6775 52.2599L93.3475 48.1499L95.8975 44.9199Z" fill="#6A645A" fill-opacity="0.996"/>
<path d="M149.78 45.8896L147.11 47.2097L145.77 47.5696L144.41 47.7197L144.07 47.7296L149.78 45.8896Z" fill="#6A645A" fill-opacity="0.996"/>
<path d="M139.797 48.8105L138.857 49.4706L137.907 49.7206L136.777 49.4805L137.567 49.1805L139.797 48.8105Z" fill="#6A645A" fill-opacity="0.996"/>
<path d="M104.54 92.7096L103.16 93.9796L101.7 95.0496L100.18 95.8996L98.5901 96.5396L98.2202 96.6596L98.2002 96.6696L97.5102 96.5796L97.0801 96.0196L95.7902 89.9996L95.1602 84.2696L95.1701 78.6096L95.8301 73.2096L97.1401 67.8696L99.1501 62.5396L100.71 59.2996L103.78 54.0596L107.4 49.0996L104.69 53.2196L102.29 57.4496L100.22 61.7796L98.4702 66.2196L97.3701 69.6896L96.5801 73.0796L96.0702 76.3796L95.8701 79.6096L96.1002 86.7396L97.0501 93.3696L97.4102 94.7296L97.7002 95.4996L97.7302 95.5696L98.3802 96.0896L99.2002 95.9796L104.54 92.7096Z" fill="#6A645A" fill-opacity="0.996"/>
<path d="M131.03 49.5801L130.42 50.8501L130.09 51.1401L130.39 50.0501L131.03 49.5801Z" fill="#6A645A" fill-opacity="0.996"/>
<path d="M132.749 50.5996L134.089 55.6796L134.709 60.7896L134.729 64.1696L134.449 67.5596L133.859 70.9696L132.969 74.3996L133.689 70.2396L134.139 66.3796L134.319 62.8296L134.229 59.5796L133.649 56.0096L132.359 51.2896V50.9296L132.389 50.8796L132.479 50.7796L132.749 50.5996Z" fill="#6A645A" fill-opacity="0.996"/>
<path d="M303.847 53.73L302.727 52.85L301.987 51.78L301.777 51.25L302.737 52.12L303.497 53.12L303.847 53.73Z" fill="#6A645A" fill-opacity="0.996"/>
<path d="M65.9094 51.5703L64.9794 53.3903L63.9294 54.5703L62.6094 55.5603L65.9094 51.5703Z" fill="#6A645A" fill-opacity="0.996"/>
<path d="M126.849 55.7803L120.609 67.7903L122.249 63.9303L124.149 60.2103L126.849 55.7803Z" fill="#6A645A" fill-opacity="0.996"/>
<path d="M61.4384 56.9297L55.2784 65.9297L51.9485 70.7597L49.3185 75.0597L43.5484 85.5297L43.0584 85.9897H42.8984L46.4785 78.8997L50.4584 72.0597L55.6684 64.3197L61.4384 56.9297Z" fill="#6A645A" fill-opacity="0.996"/>
<path d="M158.509 67.1104L153.269 73.4203L148.409 79.9904L144.999 85.1104L141.809 90.3803L144.949 84.3203L148.589 78.6104L153.239 72.6404L158.509 67.1104Z" fill="#6A645A" fill-opacity="0.996"/>
<path d="M116.98 100.751L122.77 94.5605L126.42 89.9005L127.99 87.2405L129.49 84.0905L130.91 80.4405L132.26 76.3105L132.42 76.3905L132.55 76.7206L132.46 77.3105L131.05 81.4905L129.33 85.4305L127.29 89.1305L124.93 92.6005L121.24 96.8905L116.98 100.751Z" fill="#6A645A" fill-opacity="0.996"/>
<path d="M60.8703 82.3302L60.4003 81.8602L59.9603 81.7102L59.8103 81.7402L59.3203 82.4202L58.0303 86.6202L56.5603 90.6202L56.2903 92.0302L56.1603 105.04L55.5803 102.93L55.2103 100.83L55.0703 98.7602L55.1303 96.7002L55.4503 94.5002L56.3603 89.3302L56.5703 88.4202L59.2803 81.0702L59.6403 80.7002H60.1503L60.2003 80.7302L60.6703 81.0902L60.9203 81.5102L60.8703 82.3302Z" fill="#6A645A" fill-opacity="0.996"/>
<path d="M77.9586 111.02L74.5286 106.47L71.3086 101.77L68.4486 97.1598L65.7886 92.4198L63.3186 87.5498L61.0586 82.5498L61.3886 82.7298L61.7886 83.1398L65.3986 90.3098L69.2986 97.3498L73.4886 104.25L77.9586 111.02Z" fill="#6A645A" fill-opacity="0.996"/>
<path d="M42.8973 85.9902L42.9474 86.3902L42.7073 87.4602L39.4873 94.8902L36.6073 102.44L33.8973 110.59L31.5674 118.88L29.6073 127.3L28.0273 135.85L28.8073 130.14L29.7973 124.48L31.0074 118.88L32.4173 113.34L34.5273 106.36L36.9774 99.4802L39.7673 92.6902L42.8973 85.9902Z" fill="#6A645A" fill-opacity="0.996"/>
<path d="M110.107 86.5303L109.848 87.0603L109.017 88.2603L107.938 89.3203L108.448 88.0803L109.147 87.2303L110.107 86.5303Z" fill="#6A645A" fill-opacity="0.996"/>
<path d="M84.2773 88.8398L85.3673 94.1398L86.3573 98.9698L87.2574 102.07L89.9774 109.98L90.6673 111.79L91.6873 114.51L92.2073 116.6L88.4273 107.11L86.5773 100.96L85.8474 98.3198L84.5173 92.9198L84.2773 90.8098V88.8398Z" fill="#6A645A" fill-opacity="0.996"/>
<path d="M139.969 93.8799L137.699 99.3599L135.719 104.85L134.039 110.34L132.659 115.83L131.559 121.33L130.769 126.83L130.259 132.33L130.049 137.84L130.109 142.64L130.399 147.45L130.899 152.26L131.629 157.07L132.579 161.89L133.759 166.71L135.159 171.53L136.789 176.35L138.799 180.99L139.719 183.38L140.389 185.8L137.719 180.02L135.439 174.11L133.919 169.35L132.629 164.5L131.589 159.57L130.789 154.56L129.869 147.25L129.379 139.92L129.569 133.1L130.179 126.4L131.219 119.81L132.679 113.32L134.119 108.36L135.809 103.47L137.759 98.6399L139.969 93.8799Z" fill="#6A645A" fill-opacity="0.996"/>
<path d="M111.137 104.93L110.357 105.77L109.467 106.43L108.397 106.93L107.207 107.22L108.737 106.08L110.397 105.21L111.137 104.93Z" fill="#6A645A" fill-opacity="0.996"/>
<path d="M104.07 116.6L102.96 114.891L102.4 113.51L102.07 112.021L102.95 113.301L103.65 114.871L104.07 116.6Z" fill="#6A645A" fill-opacity="0.996"/>
<path d="M84.0989 115.971L82.2689 115.731L80.8589 115.311L79.8589 114.721L79.2889 113.941L79.1289 113.311L80.4489 114.461L81.6489 115.041L83.0189 115.361L84.0989 115.971Z" fill="#6A645A" fill-opacity="0.996"/>
<path d="M61.2886 115.58L60.3986 114.8L60.0586 113.5L61.0786 115.01L61.2886 115.58Z" fill="#6A645A" fill-opacity="0.996"/>
<path d="M92.4695 116.85L92.9395 118.13V118.26L92.6795 118.68L92.1895 118.74L84.7695 116.25V116.22L84.9695 116.01L85.1595 115.99L88.1195 116.78L90.6095 117.73L91.2095 117.9L91.7095 117.83L92.1495 117.48L92.4695 116.85Z" fill="#6A645A" fill-opacity="0.996"/>
<path d="M61.6375 117.84L55.6875 120.96L57.7375 119.32L59.5875 118.41L61.6375 117.84Z" fill="#6A645A" fill-opacity="0.996"/>
<path d="M48.858 125.561L47.318 126.941L45.668 127.751L46.288 127.031L47.438 126.161L48.858 125.561Z" fill="#6A645A" fill-opacity="0.996"/>
<path d="M81.1997 127.08L86.3197 128.61L87.1597 128.87L88.6797 129.57L90.0997 130.52L91.7397 131.95L93.0697 132.54L96.1397 135.22L98.7597 138.23L99.8397 139.76L103.12 146.63L104.38 150.31L105.53 155.59L105.96 157.74L106.26 159.86L106.04 161.84L102.3 177.26L102.34 177.3L102.36 177.72L102.03 178.39L100.51 181.33L94.8497 195.14L89.4997 209.09L86.3297 214.81L85.9697 215.05L85.6797 215.03L85.0497 214.6L77.3297 209.78H77.2897L77.1197 209.64L76.2897 208.67L75.3197 208.14L75.0397 208.07L73.7497 207.31L72.7697 206.32L72.4497 205.85L63.9997 196.83L63.6497 196.16L63.7097 195.92L63.9797 193.82L63.8997 191.64L63.7897 190.73L63.9997 190.01L64.1197 189.84L65.0897 186.49L66.2397 183.51L67.5697 180.87L69.0797 178.6L72.3097 174.87L76.0697 171.5L80.3497 168.49L85.1497 165.85L85.6697 165.54L86.5797 165.45L87.5897 165.61L88.3297 165.38L88.6697 165L89.3197 164.76L90.4897 164.56L91.6697 164.76L92.6897 164.56L93.2497 164.23L93.5197 163.86L93.5497 163.4L93.2197 162.23L92.2397 160.15L91.0897 156.41L90.4497 154.73L89.6497 153.24L88.6797 151.95L87.5497 150.85L86.2597 149.95L84.8097 149.25L84.7797 149.24L83.6497 148.61L81.9997 147.83L80.2997 147.38L78.3497 147.29L76.3297 147.61L72.7597 148.35L71.1797 148.75L69.7597 149.43L68.2597 150.6L67.2097 151.56L66.0397 152.31L64.1797 153.65L62.6297 155.24L61.4697 156.93L60.5697 158.84L57.1597 166.74L56.3797 168.22L56.1397 169.51L56.2297 170.9L56.2097 171.69L55.7697 173.51L55.2397 175L55.3797 176.16L55.5597 176.44L54.8697 181.78L54.8197 181.91L54.5497 182.04L54.2997 181.88L52.7997 179.09L49.1697 167.03L48.6797 165.78L48.7397 164.72L48.9097 148.97L48.9997 148.43L51.7697 140.58L53.5397 138.8L55.4897 137.28L58.5797 135.56L62.4697 133.95L65.9297 131.99L69.1697 129.6L70.3497 129.06L71.5597 128.73L74.9897 128.04L77.6597 126.98L78.8897 126.69L80.0697 126.73L81.1997 127.08Z" fill="black"/>
<path d="M77.6586 126.98L74.9886 128.04L71.5586 128.73L72.9586 127.98L74.4086 127.43L75.9986 127.09L77.6586 126.98Z" fill="#6A645A" fill-opacity="0.996"/>
<path d="M86.3192 128.61L81.1992 127.08L82.9592 127.23L84.5992 127.69L86.3192 128.61Z" fill="#6A645A" fill-opacity="0.996"/>
<path d="M43.7172 129.58L38.3672 138.14L39.0372 136.02L39.9072 134.1L40.9872 132.38L42.2672 130.86L43.7172 129.58Z" fill="#6A645A" fill-opacity="0.996"/>
<path d="M69.1681 129.6L65.9281 131.99L62.4681 133.95L58.5781 135.56L69.1681 129.6Z" fill="#6A645A" fill-opacity="0.996"/>
<path d="M93.0677 132.54L91.7376 131.951L90.0977 130.521L91.1376 131.031L93.0677 132.54Z" fill="#6A645A" fill-opacity="0.996"/>
<path d="M115.109 139.57L115.039 139.47L113.879 137.35L113.109 134.97L113.869 136.15L114.619 137.79L115.109 139.57Z" fill="#6A645A" fill-opacity="0.996"/>
<path d="M27.0978 145.04L27.0078 143.06L27.1378 141.1L27.7378 138.2L27.8678 140.11L27.7778 141.99L27.0978 145.04Z" fill="#6A645A" fill-opacity="0.996"/>
<path d="M116.049 141.87L115.409 140.72L115.109 139.57L115.199 139.63L115.819 140.47L116.049 141.87Z" fill="#6A645A" fill-opacity="0.996"/>
<path d="M105.96 157.74L105.53 155.59L104.38 150.31L103.12 146.63L99.8398 139.76L101.05 141.21L102.03 142.79L102.86 144.73L103.85 147.48L105.03 150.82L105.7 153.36L106.01 155.63L105.96 157.74Z" fill="#6A645A" fill-opacity="0.996"/>
<path d="M51.7695 140.58L48.9995 148.43L48.9095 148.97L48.7395 164.72L47.9395 159.73L47.7695 154.95L48.2395 150.38L49.3395 146.02L50.4195 143.25L51.7695 140.58Z" fill="#6A645A" fill-opacity="0.996"/>
<path d="M119.68 155.89L116.07 141.98L117.54 145.43L118.63 148.9L119.34 152.38L119.68 155.88V155.89Z" fill="#6A645A" fill-opacity="0.996"/>
<path d="M83.6481 148.61L76.3281 147.61L78.3481 147.29L80.2981 147.38L81.9981 147.83L83.6481 148.61Z" fill="#6A645A" fill-opacity="0.996"/>
<path d="M36.057 147.62L35.4471 154.86L35.207 152.72L35.307 150.62L36.057 147.62Z" fill="#6A645A" fill-opacity="0.996"/>
<path d="M72.7578 148.35L68.2578 150.6L69.7578 149.43L71.1778 148.75L72.7578 148.35Z" fill="#6A645A" fill-opacity="0.996"/>
<path d="M91.0886 156.41L89.7886 154.46L88.3086 152.61L86.6486 150.88L84.8086 149.25L86.2586 149.95L87.5486 150.85L88.6786 151.95L89.6486 153.24L90.4486 154.73L91.0886 156.41Z" fill="#6A645A" fill-opacity="0.996"/>
<path d="M26.6581 161.19L26.1881 158.25L26.0781 155.32L26.2981 152.6L26.8181 149.89L26.6581 161.19Z" fill="#6A645A" fill-opacity="0.996"/>
<path d="M66.0403 152.311L60.5703 158.841L61.4703 156.931L62.6303 155.241L64.1803 153.651L66.0403 152.311Z" fill="#6A645A" fill-opacity="0.996"/>
<path d="M35.4592 155.83L35.9792 164.59L35.4592 162.31L35.1992 160.09V157.93L35.4592 155.83Z" fill="#6A645A" fill-opacity="0.996"/>
<path d="M90.4883 164.56L91.6783 164.06L92.6183 163.44L92.8483 163.08L92.8083 162.65L92.2883 160.75L92.2383 160.15L93.2183 162.23L93.5483 163.4L93.5183 163.86L93.2483 164.23L92.6883 164.56L91.6683 164.76L90.4883 164.56Z" fill="#6A645A" fill-opacity="0.996"/>
<path d="M106.037 161.84L105.867 164.64L105.507 167.38L104.947 170.05L104.187 172.65L102.297 177.26L106.037 161.84Z" fill="#6A645A" fill-opacity="0.996"/>
<path d="M101.93 218.3L114.44 185.96L116.3 180.61L117.8 174.96L118.96 169.01L119.77 162.76L119.47 168.12L118.65 173.53L117.3 179L115.44 184.51L102.36 217.95L102.19 218.18L101.93 218.3Z" fill="#6A645A" fill-opacity="0.996"/>
<path d="M88.6681 165L88.3281 165.38L87.5881 165.61L86.5781 165.45L88.6681 165Z" fill="#6A645A" fill-opacity="0.996"/>
<path d="M36.2188 165.75L38.7588 177.38L37.5088 173.85L36.6787 170.26L36.2188 165.75Z" fill="#6A645A" fill-opacity="0.996"/>
<path d="M85.1472 165.85L80.3472 168.49L76.0672 171.5L72.3072 174.87L69.0772 178.6L67.5672 180.87L66.2372 183.51L65.0872 186.49L64.1172 189.84L64.4372 187.5L65.0972 185.14L66.0772 182.77L67.3872 180.38L69.0372 177.91L70.8772 175.59L72.9572 173.35L75.2372 171.28L77.6972 169.37L80.3572 167.63L82.7572 166.46L85.1472 165.85Z" fill="#6A645A" fill-opacity="0.996"/>
<path d="M57.1567 166.74L56.2267 170.9L56.1367 169.51L56.3767 168.22L57.1567 166.74Z" fill="#6A645A" fill-opacity="0.996"/>
<path d="M52.798 179.09L51.228 175.82L50.088 172.44L49.498 169.77L49.168 167.03L52.798 179.09Z" fill="#6A645A" fill-opacity="0.996"/>
<path d="M36.5967 211.35L34.3667 205.37L32.4267 199.33L30.7867 193.23L29.4367 187.08L27.9367 177.52L27.1367 167.82L28.1267 175.92L29.4667 183.91L31.1567 191.8L33.1967 199.6L36.4167 209.7L36.5967 211.35Z" fill="#6A645A" fill-opacity="0.996"/>
<path d="M55.7683 173.51L55.5583 176.44L55.3783 176.16L55.2383 175L55.7683 173.51Z" fill="#6A645A" fill-opacity="0.996"/>
<path d="M339.078 175.57L337.488 185.97L335.218 196.09L332.258 205.92L328.628 215.46L326.468 220.31L324.118 225.08L318.868 234.4L312.878 243.4L306.148 252.09L310.378 246.28L314.358 240.33L318.098 234.26L321.588 228.05L324.518 222.36L327.258 216.57L330.638 208.45L333.518 200.17L335.288 194.14L336.808 188.03L338.068 181.84L339.078 175.57Z" fill="#6A645A" fill-opacity="0.996"/>
<path d="M102.03 178.39L89.5 209.09L94.85 195.14L100.51 181.33L102.03 178.39Z" fill="#6A645A" fill-opacity="0.996"/>
<path d="M300.777 223.23L306.387 218.64L311.417 214.12L315.857 209.65L319.707 205.24L323.957 199.59L328.047 193.32L331.977 186.42L335.757 178.89L333.127 184.82L330.177 190.52L326.907 195.99L323.327 201.23L318.677 207.11L313.587 212.66L308.057 217.89L302.077 222.8L301.087 223.22L300.777 223.23Z" fill="#6A645A" fill-opacity="0.996"/>
<path d="M43.0195 189.1L47.5195 198.06L45.0995 194.24L43.9395 191.73L43.0195 189.1Z" fill="#6A645A" fill-opacity="0.996"/>
<path d="M155.737 208.83L152.597 205.42L149.707 201.82L146.277 196.73L143.297 191.29L155.737 208.83Z" fill="#6A645A" fill-opacity="0.996"/>
<path d="M63.6475 196.16L63.3675 195.52L63.1875 194.65L63.2175 193.72L63.8975 191.64L63.9775 193.82L63.7075 195.92L63.6475 196.16Z" fill="#6A645A" fill-opacity="0.996"/>
<path d="M72.45 205.85L70.02 204.19L67.86 202.25L65.75 199.72L64 196.83L72.45 205.85Z" fill="#6A645A" fill-opacity="0.996"/>
<path d="M77.119 209.64L76.6291 209.42L75.7791 208.85L75.0391 208.07L75.3191 208.14L76.2891 208.67L77.119 209.64Z" fill="#6A645A" fill-opacity="0.996"/>
<path d="M55.0781 208.54L59.0281 212.46L56.9482 211.06L55.9181 209.91L55.0781 208.54Z" fill="#6A645A" fill-opacity="0.996"/>
<path d="M85.0481 214.6L82.9681 213.71L80.9981 212.62L79.0981 211.3L77.3281 209.78L85.0481 214.6Z" fill="#6A645A" fill-opacity="0.996"/>
<path d="M125.098 213.29L123.938 213.89L124.077 213.38L124.387 213.13L124.758 213.07L125.098 213.29Z" fill="#6A645A" fill-opacity="0.996"/>
<path d="M101.737 218.79L101.677 219.63L101.297 220.11L101.597 219L101.737 218.79Z" fill="#6A645A" fill-opacity="0.996"/>
<path d="M174.84 225.89L171.54 223.88L168.56 221.52L165.82 218.76L174.84 225.89Z" fill="#6A645A" fill-opacity="0.996"/>
<path d="M110.748 220.4L107.698 222.03L105.478 222.88L103.168 223.51L110.748 220.4Z" fill="#6A645A" fill-opacity="0.996"/>
<path d="M300.06 223.78L293.44 228.78L290.31 230.81L287.3 232.53L282.78 234.8L278.23 236.86L273.65 238.69L269.05 240.32L264.41 241.72L259.74 242.91L255.05 243.88L250.32 244.64L245.36 245.2L240.37 245.52L235.35 245.61L230.29 245.46L225.2 245.08L220.09 244.46L214.93 243.61L209.75 242.52L206.32 241.6L202.68 240.39L194.82 237.09L201.97 239.7L209.17 241.79L216.43 243.36L223.74 244.42L230.87 244.95L238.05 245L246.06 244.51L253.9 243.47L261.56 241.89L269.04 239.76L277.12 236.77L284.98 233.11L292.63 228.78L300.06 223.78Z" fill="#6A645A" fill-opacity="0.996"/>
<path d="M80.4977 227.52L78.2577 226.64L76.2477 225.45L74.8477 224.32L80.4977 227.52Z" fill="#6A645A" fill-opacity="0.996"/>
<path d="M182.78 231L180.89 230.26L179.15 229.3L177.41 228.02L175.84 226.49L182.78 231Z" fill="#6A645A" fill-opacity="0.996"/>
<path d="M62.0394 228.78L61.6494 228.86L61.4994 229.21L61.5694 229.83L62.3794 231.86L59.6394 227.35L59.6094 227.25L59.6994 227.06L59.9094 227.03L61.2294 227.78L62.0394 228.78Z" fill="#6A645A" fill-opacity="0.996"/>
<path d="M148.057 228.04L147.577 227.91L147.027 227.37L147.707 227.52L148.057 228.04Z" fill="#6A645A" fill-opacity="0.996"/>
<path d="M150.329 229.91L149.289 229.28L148.059 228.04L148.989 228.43L149.729 229.05L150.329 229.91Z" fill="#6A645A" fill-opacity="0.996"/>
<path d="M64.5991 230.48L63.8791 230.1L63.2891 229.6L63.929 229.82L64.399 230.19L64.5991 230.48Z" fill="#6A645A" fill-opacity="0.996"/>
<path d="M94.2483 234.62L91.3383 233.6L88.5983 232.27L85.2383 230.03L94.2483 234.62Z" fill="#6A645A" fill-opacity="0.996"/>
<path d="M125.98 231.9L116.82 234.54L119.63 233.32L122.52 232.45L125.98 231.9Z" fill="#6A645A" fill-opacity="0.996"/>
<path d="M158.649 237.55L154.809 233.74L156.169 234.67L157.339 235.78L158.649 237.55Z" fill="#6A645A" fill-opacity="0.996"/>
<path d="M74.1401 236.82L73.8301 236.72L72.1801 235.9L70.6602 234.72L72.3802 235.31L73.3202 235.96L74.1401 236.82Z" fill="#6A645A" fill-opacity="0.996"/>
<path d="M297.289 242.56L299.849 237.8L300.809 236.92L301.109 237.08L301.099 237.17L300.079 239.2L298.819 240.96L297.289 242.56Z" fill="#6A645A" fill-opacity="0.996"/>
<path d="M79.3586 239.88L76.8586 238.71L75.3086 237.6L77.0786 238.27L78.6186 239.24L79.3586 239.88Z" fill="#6A645A" fill-opacity="0.996"/>
<path d="M97.0377 238.66L96.4576 240.11L95.6776 241.43L94.8477 242.47L95.1076 241.26L95.5977 240.19L96.2277 239.37L97.0377 238.66Z" fill="#6A645A" fill-opacity="0.996"/>
<path d="M89.1067 244.57L87.2667 243.99L85.5367 243.21L83.6367 242.05L85.4967 242.59L87.2367 243.37L89.1067 244.57Z" fill="#6A645A" fill-opacity="0.996"/>
<path d="M100.628 265.82L100.177 264.11L99.9375 262.34L99.9975 258.37L100.777 253.85L102.378 248.36L103.038 246.69L103.837 245.19L104.788 243.87L105.878 242.72L103.427 247.38L101.737 251.86L100.788 256.18L100.598 260.32L100.628 265.82Z" fill="#6A645A" fill-opacity="0.996"/>
<path d="M179.109 245.88L178.759 246.32L177.479 245.58L175.949 243.95L176.079 243.64L176.169 243.65L176.949 243.95L178.109 244.74L179.109 245.88Z" fill="#6A645A" fill-opacity="0.996"/>
<path d="M55.3474 246.37L54.5374 245.51L54.0273 244.58L54.5873 244.89L55.0674 245.5L55.3474 246.37Z" fill="#6A645A" fill-opacity="0.996"/>
<path d="M181.1 246.82L180.29 246.49L179.63 246.01L179.5 245.88L180.25 245.92L180.77 246.19L181.1 246.82Z" fill="#6A645A" fill-opacity="0.996"/>
<path d="M58.5895 250.65L57.4496 249.41L57.0195 248.57L57.4895 248.84L58.1595 249.59L58.5895 250.65Z" fill="#6A645A" fill-opacity="0.996"/>
<path d="M190.36 251.85L185.23 249.17L187.06 249.75L188.711 250.6L190.36 251.85Z" fill="#6A645A" fill-opacity="0.996"/>
<path d="M146.637 256.65L144.897 255.02L142.637 252.99L140.627 251.95L139.457 251.7L138.117 251.65L139.517 251.2L140.757 251.29L142.047 251.82L143.327 252.69L144.517 253.78L145.627 255.1L146.637 256.65Z" fill="#6A645A" fill-opacity="0.996"/>
<path d="M170.638 260.9L167.988 251.82L169.088 253.8L169.898 255.79L170.408 257.8L170.638 259.81V260.9Z" fill="#6A645A" fill-opacity="0.996"/>
<path d="M186.02 254.83L184.95 254.04L184.29 253.07L184.09 252.42L186.02 254.83Z" fill="#6A645A" fill-opacity="0.996"/>
<path d="M62.3391 255.05L61.989 254.86L61.4491 254.34L61.0391 253.6L61.739 254.04L62.3391 255.05Z" fill="#6A645A" fill-opacity="0.996"/>
<path d="M288.799 253.76L286.349 256.9L283.899 259.23L281.109 261.25L288.799 253.76Z" fill="#6A645A" fill-opacity="0.996"/>
<path d="M304.807 253.811L300.047 259.281L301.837 256.641L303.227 255.151L304.807 253.811Z" fill="#6A645A" fill-opacity="0.996"/>
<path d="M64.1599 257.4L63.0598 256.29L62.3398 255.05L63.5498 256L64.1198 257.09L64.1599 257.4Z" fill="#6A645A" fill-opacity="0.996"/>
<path d="M151.949 255.61L153.369 259L153.999 262.43L154.009 262.68L151.949 255.61Z" fill="#6A645A" fill-opacity="0.996"/>
<path d="M238.968 264.23L233.778 264.65L228.678 264.68L223.648 264.31L218.688 263.55L214.278 262.52L209.918 261.16L205.628 259.48L201.398 257.47L211.988 261.21L216.868 262.65L221.208 263.56L226.238 264.13L230.708 264.21L235.508 264.11L238.968 264.23Z" fill="#6A645A" fill-opacity="0.996"/>
<path d="M263.05 258.42L258.2 260.35L255.26 261.21L252.25 261.87L254.96 260.68L257.73 259.7L263.05 258.42Z" fill="#6A645A" fill-opacity="0.996"/>
<path d="M87.0467 262.341L85.5767 261.531L84.2867 260.521L82.6367 258.521L87.0467 262.341Z" fill="#6A645A" fill-opacity="0.996"/>
<path d="M191.917 261.78L190.757 261.02L189.757 259.91L189.027 258.5L191.917 261.78Z" fill="#6A645A" fill-opacity="0.996"/>
<path d="M152.287 264.39L149.027 259.53L150.837 261.37L151.687 262.79L152.287 264.39Z" fill="#6A645A" fill-opacity="0.996"/>
<path d="M125.059 261.03L124.829 262.86L124.329 264.35L124.289 264.2L124.299 262.71L125.059 261.03Z" fill="#6A645A" fill-opacity="0.996"/>
<path d="M250.308 262.15L240.848 263.99L242.948 263.21L243.808 263.04L250.308 262.15Z" fill="#6A645A" fill-opacity="0.996"/>
<path d="M73.0578 266.7L71.0978 265.04L69.2578 262.82L71.2678 264.46L73.0578 266.7Z" fill="#6A645A" fill-opacity="0.996"/>
<path d="M279.327 262.811L275.607 266.121L271.557 268.851L267.327 270.961L262.777 272.531L266.957 270.561L271.007 268.361L275.247 265.721L279.327 262.811Z" fill="#6A645A" fill-opacity="0.996"/>
<path d="M96.8188 268.93L94.9488 268.25L93.2087 267.361L91.6487 266.291L90.2188 265.021L96.8188 268.93Z" fill="#6A645A" fill-opacity="0.996"/>
<path d="M124.258 268.811L125.028 272.001L125.998 275.051L127.158 277.971L128.518 280.761L127.278 279.021L126.248 277.221L125.438 275.361L124.838 273.461L124.398 271.171L124.258 268.811Z" fill="#6A645A" fill-opacity="0.996"/>
<path d="M290.299 269.05L286.65 272.48L282.789 275.65L277.27 279.52L290.299 269.05Z" fill="#6A645A" fill-opacity="0.996"/>
<path d="M101.37 268.96L101.81 269.3L101.99 269.67L101.75 270.29L101.25 270.64L100.74 270.63L100.29 270.42L99.8398 269.91L100.64 269.56L101.37 268.96Z" fill="#6A645A" fill-opacity="0.996"/>
<path d="M170.098 270.8L170.378 269.55V269.51L170.448 270.1L170.308 270.56L170.098 270.8Z" fill="#6A645A" fill-opacity="0.996"/>
<path d="M83.3578 275.65L78.7578 271.88L80.1978 272.71L81.8778 274.04L83.3578 275.65Z" fill="#6A645A" fill-opacity="0.996"/>
<path d="M261.828 272.85L261.008 273.41L260.218 273.55L259.758 273.43L261.828 272.85Z" fill="#6A645A" fill-opacity="0.996"/>
<path d="M222.558 276.75L216.858 276.42L211.798 275.63L209.278 274.93L206.928 273.91L206.008 273.4L213.958 275.37L222.558 276.75Z" fill="#6A645A" fill-opacity="0.996"/>
<path d="M259.177 273.63L254.387 275.09L250.807 275.57L247.307 275.72L243.987 276.18L240.847 276.93L237.887 277.99L238.517 277.09L239.297 276.48L240.557 276.11L249.847 275.07L259.177 273.63Z" fill="#6A645A" fill-opacity="0.996"/>
<path d="M236.167 280.32L234.717 282.58L232.487 284.78L229.357 287.15L226.617 288.76L236.167 280.32Z" fill="#6A645A" fill-opacity="0.996"/>
<path d="M129.587 301.871L128.507 301.581L124.307 300.091L116.467 296.531L108.807 292.631L101.037 288.211L93.4673 283.411L91.7773 282.061L92.4573 282.141L101.107 287.741L110.057 292.791L119.317 297.291L128.867 301.241L129.527 301.761L129.587 301.871Z" fill="#6A645A" fill-opacity="0.996"/>
<path d="M160.56 288.61L157.53 287.87L155.72 287.12L153.98 286.16L160.56 288.61Z" fill="#6A645A" fill-opacity="0.996"/>
<path d="M204.88 286.83L201.48 288.14L198.02 289.2L193.61 290.15L189.09 290.7L204.88 286.83Z" fill="#6A645A" fill-opacity="0.996"/>
<path d="M262.62 289.15L261.32 289.83L261.65 289.29L262.07 289.13L262.62 289.15Z" fill="#6A645A" fill-opacity="0.996"/>
<path d="M261.32 289.83L260.56 290.43L259.59 290.92L259.65 290.65L260.21 290.12L261.32 289.83Z" fill="#6A645A" fill-opacity="0.996"/>
<path d="M170.62 290.77L166.5 290.21L167.76 289.99L168.95 290.08L170.62 290.77Z" fill="#6A645A" fill-opacity="0.996"/>
<path d="M184.577 291.1L182.127 291.58L179.677 291.76L177.407 291.65L175.137 291.27L184.577 291.1Z" fill="#6A645A" fill-opacity="0.996"/>
<path d="M222.928 291.1L219.258 293.48L216.498 294.76L213.578 295.73L222.928 291.1Z" fill="#6A645A" fill-opacity="0.996"/>
<path d="M249.367 296.14L242.448 299.27L235.438 302.03L228.328 304.42L221.138 306.44L213.667 308.13L206.107 309.43L198.448 310.35L190.688 310.88L193.287 310.42L198.037 309.87L205.398 309.09L213.198 307.6L220.927 305.81L228.188 303.82L235.388 301.56L242.318 298.74L247.217 296.83L249.367 296.14Z" fill="#6A645A" fill-opacity="0.996"/>
<path d="M152.808 298.331L152.288 298.3L150.978 297.901L149.738 297.021L151.388 297.521L152.808 298.331Z" fill="#6A645A" fill-opacity="0.996"/>
<path d="M154.859 298.98L154.779 299L153.869 298.94L152.809 298.33L153.819 298.53L154.859 298.98Z" fill="#6A645A" fill-opacity="0.996"/>
<path d="M204.77 299.07L200.95 300.4L197.06 301.25L192.84 301.64L204.77 299.07Z" fill="#6A645A" fill-opacity="0.996"/>
<path d="M162.868 301.22L160.968 301.04L159.168 300.57L157.488 299.85L162.868 301.22Z" fill="#6A645A" fill-opacity="0.996"/>
<path d="M151.74 308.12L145.37 306.9L139.11 305.27L134.31 303.7L129.59 301.87L130.39 301.93L131.14 302.06L150.49 307.53L151.01 307.74L151.74 308.12Z" fill="#6A645A" fill-opacity="0.996"/>
<path d="M172.148 302.51L170.238 302.6L168.428 302.33L167.258 301.96L168.958 301.95L172.148 302.51Z" fill="#6A645A" fill-opacity="0.996"/>
<path d="M163.867 310.01L152.027 308.13L156.757 308.52L161.377 309.36L163.867 310.01Z" fill="#6A645A" fill-opacity="0.996"/>
<path d="M172.649 310.63L166.609 310.21L168.609 310.01L170.559 310.13L172.649 310.63Z" fill="#6A645A" fill-opacity="0.996"/>
<path d="M217.327 360.89L217.057 361.44L216.087 362.97L214.867 364.37L215.347 362.98L215.897 361.94L216.527 361.25L217.237 360.91L217.327 360.89Z" fill="#6A645A" fill-opacity="0.996"/>
<path d="M219.469 361.02L221.309 361.3L223.719 360.97L224.799 360.95L225.689 361.25L226.019 361.49L226.439 362.76L227.069 363.88L228.059 364.98L230.999 369.84L214.309 370.13L213.619 370.24L213.159 370.55L212.999 370.8L212.449 370.61L212.199 370.33L212.209 370.08L213.309 367.26L214.869 364.37L216.089 362.97L217.059 361.44L217.329 360.89L219.469 361.02Z" fill="black"/>
<path d="M223.719 360.97L221.309 361.3L219.469 361.02L221.819 360.76L223.719 360.97Z" fill="#6A645A" fill-opacity="0.996"/>
<path d="M228.06 364.98L227.07 363.88L226.44 362.76L226.02 361.49L226.77 362.32L227.529 363.56L228.06 364.98Z" fill="#6A645A" fill-opacity="0.996"/>
<path d="M231 369.84L230.69 370.28L229.66 370.85L228.15 370.95L223.55 370.75L217.15 370.77L213 370.8L213.16 370.55L213.62 370.24L214.31 370.13L231 369.84Z" fill="#6A645A" fill-opacity="0.996"/>
<path d="M28.68 433.74L28.42 387.13L28.64 386.59L29.18 386.37H43.68L44.4 386.09L44.74 385.41L44.75 385.3V377.71V377.69L44.38 376.85L43.52 376.52L21.88 376.83L0 376.34L44.41 375.84L44.82 376L45 376.42V386.12L44.8 386.61L44.32 386.81H29.43L29.14 386.93L29.01 387.23L28.68 433.74Z" fill="#6A645A" fill-opacity="0.996"/>
<path d="M87.5197 414.61L85.2397 408.81L83.1697 402.94L81.2197 396.71L75.5197 377.66L74.8697 376.78L73.7997 376.51L66.3397 376.81L58.6797 376.4L66.0497 375.78L74.0497 375.85L75.0597 376.23L75.6797 377.11L87.5197 414.61Z" fill="#6A645A" fill-opacity="0.996"/>
<path d="M117.568 376.31L109.348 376.86L101.467 376.65H101.438L100.967 376.83L100.767 377.3L100.777 433.18L100.267 431.99L100.047 430.79L100.038 430.58L99.9375 403.47L100.158 376.4L100.318 376.02L100.698 375.87H100.707L117.568 376.31Z" fill="#6A645A" fill-opacity="0.996"/>
<path d="M161.288 433.77L161.338 377.45L161.128 376.95L160.638 376.75H145.198L144.428 377L143.938 377.64L139.758 389.54L143.968 376.68L144.418 376.06L145.138 375.83H161.538L161.908 375.98L162.058 376.35V433.32L161.758 433.79L161.418 433.84L161.288 433.77Z" fill="#6A645A" fill-opacity="0.996"/>
<path d="M229.848 377.34L212.898 376.51L219.288 375.76L225.648 375.71L226.798 375.78L228.868 376.17L229.468 376.52L229.788 376.97L229.848 377.34Z" fill="#6A645A" fill-opacity="0.996"/>
<path d="M267.399 398.331L267.259 377.671L266.989 377.021L266.339 376.74L254.059 376.421L256.969 375.981L260.049 375.771L263.299 375.8L266.709 376.07L267.249 376.231L267.689 376.57L267.979 377.05L268.079 377.601L267.979 394.76L267.399 398.331Z" fill="#6A645A" fill-opacity="0.996"/>
<path d="M344.417 386.49L344.237 377.55L343.997 376.99L343.427 376.76H300.568L299.967 377.01L299.717 377.6L299.727 386.91L299.297 384.89L298.938 381.47L299.008 377.98L299.237 377.15L299.747 376.46L300.477 376L301.328 375.84L341.557 375.83L343.198 376.02L344.557 376.59L344.888 376.92L345.037 377.37L345.097 381.96L344.438 386.39L344.417 386.49Z" fill="#6A645A" fill-opacity="0.996"/>
<path d="M365.109 376.36L352.539 376.64L353.639 375.98L353.939 375.92L356.579 375.7H359.329L362.169 375.92L365.109 376.36Z" fill="#6A645A" fill-opacity="0.996"/>
<path d="M28.68 433.74L16.43 433.71L16.17 433.6L16.06 433.35V387.46L15.88 387L15.45 386.78L15.07 386.74L15.04 386.49L14.55 386.28L7.92999 386.15L2.26001 386.54L1.29999 386.89L0.600006 386.8L0.23999 386.54L0.100006 386.12L0 376.34L21.88 376.83L43.52 376.52L44.38 376.85L44.75 377.69V377.71V385.3L44.61 385.83L44.22 386.23L43.68 386.37H29.18L28.64 386.59L28.42 387.13L28.68 433.74Z" fill="black"/>
<path d="M212.899 376.51L229.849 377.34L232.619 387.29L234.239 393.86L235.639 398.04L237.319 402.14L239.439 408.76L240.749 414.1L241.789 417.17L243.039 420.18L244.389 424.57L244.889 427.57L246.019 430.48L246.449 431.4L246.799 433.35L246.659 433.71L246.299 433.86L235.069 433.69L234.219 433.48L233.599 433.03L233.739 432.08L233.519 430.83L232.859 429.58L232.729 429.33L232.769 429.28L232.559 427.52L232.059 425.74L231.289 424.02L231.099 423.39L230.759 422.99L230.059 422.79L211.059 422.74H210.989L210.619 422.93L210.279 423.37L209.989 423.41L209.459 424.01L208.659 426.12L207.869 429.09L207.399 432.16L206.719 433.4L206.099 433.9L205.319 434.24L204.669 433.92L204.019 434.11L203.299 434.19L202.539 433.92L201.669 433.93L200.749 434.26L200.349 434.29L199.669 433.92L198.769 434.24L198.309 434.21L197.969 433.99L197.009 433.79L195.839 434.03L195.089 433.97L194.559 433.68L194.289 433.23L194.199 432.6L206.609 394.23L207.939 389.58L209.309 386.31L210.439 382.97L211.689 378.01L211.839 377.2L212.209 376.7L212.899 376.51ZM214.309 409.07L214.269 409.83L214.059 410.26L213.329 411.53L213.129 412.77L213.149 413.02L213.409 413.52L213.939 413.72H227.279L227.389 413.71L227.919 413.36L227.999 412.73L221.789 392.77L221.389 392.14L221.049 391.99L220.809 392.09L220.939 391.71L220.649 390.79L220.429 390.25L219.769 390.55L219.439 391.1L214.309 409.07Z" fill="black"/>
<path d="M58.6781 376.4L66.3381 376.81L73.7981 376.51L74.8681 376.78L75.5181 377.66L81.2181 396.71L83.1681 402.94L85.2381 408.81L87.5181 414.61L93.5381 433.23L93.4981 433.55L93.2381 433.73H93.1781L80.4781 433.69L79.7481 429.71L78.4781 425.96L77.1881 423.33L76.3181 422.87L66.9381 422.74L57.3581 422.91L56.9981 422.81L56.5881 423.06L56.2181 423.71L54.5181 428.74L53.4281 433.82L46.2781 434.11L45.4081 433.85L44.6181 433.88L44.0581 434.1L43.0381 434.25L40.5781 433.22L40.5881 433.17L41.0581 431.8L48.5181 408.35L50.0181 403.41L53.6982 391.79L54.4081 389.53L57.6881 379L58.0481 377.74L58.6781 376.4ZM64.2381 398.14L63.9881 398.26L62.0881 405.02L61.7581 405.72L60.7881 408.43L60.2581 411.34L60.1081 411.45L59.9482 411.87L60.0381 412.54L59.8081 412.58L59.9281 413.2L60.3081 413.59L60.8281 413.74H73.0081L73.7881 413.37L73.9981 412.54L73.9482 412.35L72.8481 409.62L72.6781 409.25L72.7881 409.24L72.5881 407.52L72.2081 406.1L70.6881 401.41L68.8081 396.81L66.9681 391.72L67.1081 390.8L66.8481 390.47L66.4381 390.51L66.3081 390.65L65.7581 391.7L64.6881 394.77L64.2381 398.14Z" fill="black"/>
<path d="M117.567 376.311L124.227 396.171L126.487 404.051L129.197 411.751L129.387 412.241L129.697 412.811L130.037 413.021H130.087L130.867 414.031L130.987 414.331L131.627 414.001L132.067 413.311L139.757 389.541L143.937 377.641L144.427 377.001L145.197 376.751H160.637L161.127 376.961L161.337 377.451L161.287 433.771H149.857L149.257 433.521L149.017 432.921L149.257 405.891L149.117 402.331L148.647 398.531L148.927 398.001L148.917 397.571L148.757 397.341L148.527 397.271L148.327 397.411L148.307 397.461L139.257 425.371L136.917 433.191L136.667 433.551L136.247 433.691L125.637 433.711L123.117 424.981L120.307 416.051L117.217 406.931L113.837 397.621L113.487 397.331L113.057 397.491L112.957 397.701L112.887 398.801L113.117 399.301H113.467L112.787 433.051L112.607 433.471L112.197 433.671L106.407 434.151L100.837 433.691L100.707 433.101L100.777 433.181L100.767 377.301L100.967 376.831L101.437 376.651H101.467L109.347 376.861L117.567 376.311Z" fill="black"/>
<path d="M267.399 398.33L266.969 433.84L265.799 433.97L264.909 434.39L264.869 434.25L264.419 434.3L263.889 434.03L262.559 433.83L254.449 433.85L254.259 406.96L254.639 395.92L254.249 385.22L254.059 376.42L266.339 376.74L266.989 377.02L267.259 377.67L267.399 398.33Z" fill="black"/>
<path d="M344.419 386.49L341.549 386.71L328.799 386.28L328.299 386.47L328.089 386.95V386.97L328.519 409.44L328.129 420.66L328.169 431.97L328.399 432.85L328.669 433.14L328.589 433.6L328.229 433.83H315.709L315.269 433.65L315.079 433.21L315.069 432.58L315.409 432.6L315.739 432.44L315.879 432.1V386.85L315.699 386.56L315.429 386.52L315.169 386.87L299.729 386.91L299.719 377.6L299.969 377.01L300.569 376.76H343.429L343.999 376.99L344.239 377.55L344.419 386.49Z" fill="black"/>
<path d="M365.107 376.36L365.427 383.83L365.497 401.37L365.648 407.97L365.068 417.66L365.088 425.82L365.068 430.39L364.557 434.02L352.847 433.8L352.277 433.56L352.037 432.99L351.938 405.32L352.357 377.85L352.537 376.64L365.107 376.36Z" fill="black"/>
<path d="M211.688 378.01L210.438 382.97L209.307 386.31L207.938 389.58L211.688 378.01Z" fill="#6A645A" fill-opacity="0.996"/>
<path d="M365.43 383.83L365.9 388.35L366.05 392.86L365.91 397.12L365.5 401.37L365.43 383.83Z" fill="#6A645A" fill-opacity="0.996"/>
<path d="M254.26 406.96L254.25 385.22L254.64 395.92L254.26 406.96Z" fill="#6A645A" fill-opacity="0.996"/>
<path d="M15.0678 386.74L2.25781 386.54L7.9278 386.15L14.5478 386.28L15.0378 386.49L15.0678 386.74Z" fill="#6A645A" fill-opacity="0.996"/>
<path d="M341.55 386.71L329.4 386.76L329.13 386.87L329.02 387.14L328.52 409.44L328.09 386.97V386.95L328.3 386.47L328.8 386.28L341.55 386.71Z" fill="#6A645A" fill-opacity="0.996"/>
<path d="M315.07 432.581L315.17 386.87L315.43 386.521L315.7 386.56L315.88 386.851V432.101L315.74 432.44L315.41 432.601L315.07 432.581Z" fill="#6A645A" fill-opacity="0.996"/>
<path d="M232.617 387.29L237.317 402.14L235.637 398.04L234.237 393.86L232.617 387.29Z" fill="#6A645A" fill-opacity="0.996"/>
<path d="M139.757 389.54L132.067 413.31L131.627 414L130.987 414.33L130.867 414.03L139.757 389.54Z" fill="#6A645A" fill-opacity="0.996"/>
<path d="M66.9683 391.72L65.2983 394.66L64.2383 398.14L64.6883 394.77L65.7583 391.7L66.3083 390.65L66.4383 390.51L66.8483 390.47L67.1083 390.8L66.9683 391.72Z" fill="#6A645A" fill-opacity="0.996"/>
<path d="M220.649 390.79L214.309 409.07L219.439 391.1L219.519 390.9L219.769 390.55L220.429 390.25L220.649 390.79Z" fill="#6A645A" fill-opacity="0.996"/>
<path d="M214.059 410.26L213.939 411.19L214.049 411.95L214.249 412.3L214.699 412.61L215.369 412.75L220.889 412.89L226.329 412.68L226.969 412.33L227.139 411.62L227.109 411.52L220.809 392.09L221.049 391.99L221.389 392.14L221.789 392.77L227.999 412.73L227.919 413.36L227.389 413.71L227.279 413.72H213.939L213.409 413.52L213.149 413.02L213.129 412.77L213.329 411.53L214.059 410.26Z" fill="#6A645A" fill-opacity="0.996"/>
<path d="M124.23 396.17L127.21 403.78L129.86 411.46L130.08 412.56L130.09 413.02H130.04L129.7 412.81L129.39 412.24L129.2 411.75L126.49 404.05L124.23 396.17Z" fill="#6A645A" fill-opacity="0.996"/>
<path d="M72.7886 409.241L68.8086 396.811L70.6886 401.411L72.2086 406.101L72.5886 407.521L72.7886 409.241Z" fill="#6A645A" fill-opacity="0.996"/>
<path d="M125.637 433.71L113.467 399.3H113.117L112.887 398.8L112.957 397.7L113.057 397.49L113.487 397.33L113.837 397.62L117.217 406.93L120.307 416.05L123.117 424.98L125.637 433.71Z" fill="#6A645A" fill-opacity="0.996"/>
<path d="M148.648 398.531L139.258 425.37L148.308 397.461L148.328 397.411L148.528 397.271L148.758 397.341L148.918 397.57L148.928 398L148.648 398.531Z" fill="#6A645A" fill-opacity="0.996"/>
<path d="M189.87 405.14L174.53 405.24L174.13 405.4L173.95 405.79L173.48 414.87L173.18 405.52L173.32 405.14L173.7 404.98H173.71L189.87 405.14Z" fill="#6A645A" fill-opacity="0.996"/>
<path d="M282.469 405.02L295.059 405.34L295.419 405.47L295.629 405.8L295.939 406.29L295.989 406.3L295.969 414.38L295.859 414.67L295.579 414.82L295.099 414.76L294.879 414.61L286.499 414.67L280.669 414.75L280.239 414.58L280.059 414.15V405.74L280.209 405.28L280.609 405.01L281.849 404.89L282.469 405.02Z" fill="black"/>
<path d="M295.989 406.3L295.939 406.29L295.629 405.8L295.419 405.47L295.059 405.34L282.469 405.02L295.359 404.93H295.369L295.819 405.12L295.999 405.58L295.989 406.3Z" fill="#6A645A" fill-opacity="0.996"/>
<path d="M62.0878 405.021L61.8078 406.901L61.3378 408.731L60.2578 411.341L60.7878 408.43L61.7578 405.721L62.0878 405.021Z" fill="#6A645A" fill-opacity="0.996"/>
<path d="M173.48 414.87L173.95 405.79L174.13 405.4L174.53 405.24L189.87 405.14L190 414.02L189.78 414.56L189.24 414.79L173.48 414.87Z" fill="black"/>
<path d="M364.558 434.02L365.068 430.39L365.088 425.82L365.068 417.66L365.648 407.97L365.928 433.15L365.828 433.61L365.548 433.98L364.838 434.5L364.488 434.57L364.558 434.02Z" fill="#6A645A" fill-opacity="0.996"/>
<path d="M239.438 408.76L243.037 420.18L241.787 417.17L240.747 414.1L239.438 408.76Z" fill="#6A645A" fill-opacity="0.996"/>
<path d="M60.0386 412.54L72.1686 412.69L72.8286 412.41L73.0786 411.74V411.68L72.8486 409.62L73.9486 412.35L73.9986 412.54L73.7886 413.37L73.0086 413.74H60.8286L60.3086 413.59L59.9286 413.2L59.8086 412.58L60.0386 412.54Z" fill="#6A645A" fill-opacity="0.996"/>
<path d="M57.3597 422.911L53.4297 433.821L54.5197 428.741L56.2197 423.711L56.5897 423.061L56.9997 422.811L57.3597 422.911Z" fill="#6A645A" fill-opacity="0.996"/>
<path d="M80.4775 433.69L77.1875 423.33L78.4775 425.96L79.7475 429.71L80.4775 433.69Z" fill="#6A645A" fill-opacity="0.996"/>
<path d="M210.278 423.37L207.398 432.16L207.868 429.09L208.658 426.12L209.458 424.01L209.988 423.41L210.278 423.37Z" fill="#6A645A" fill-opacity="0.996"/>
<path d="M232.769 429.281L232.059 427.661L231.579 425.981L231.289 424.021L232.059 425.74L232.559 427.521L232.769 429.281Z" fill="#6A645A" fill-opacity="0.996"/>
<path d="M244.387 424.57L245.537 427.67L246.017 430.48L244.887 427.57L244.387 424.57Z" fill="#6A645A" fill-opacity="0.996"/>
<path d="M233.599 433.03L233.579 432.99L233.009 431.39L232.859 429.58L233.519 430.83L233.739 432.08L233.599 433.03Z" fill="#6A645A" fill-opacity="0.996"/>
<path d="M43.0381 434.25L42.4482 434.56L41.8081 434.63L41.2081 434.45L40.7581 434.03L40.5781 433.22L43.0381 434.25Z" fill="#6A645A" fill-opacity="0.996"/>
<path d="M106.41 434.15L104.64 434.6L102.87 434.76L102.08 434.74L101.39 434.6L100.98 434.27L100.84 433.69L106.41 434.15Z" fill="#6A645A" fill-opacity="0.996"/>
<path d="M46.2786 434.11L45.3286 434.46L44.5386 434.4L44.0586 434.1L44.6186 433.88L45.4086 433.85L46.2786 434.11Z" fill="#6A645A" fill-opacity="0.996"/>
<path d="M198.31 434.21L198.07 434.32L197.04 434.42L195.84 434.03L197.01 433.79L197.97 433.99L198.31 434.21Z" fill="#6A645A" fill-opacity="0.996"/>
<path d="M200.349 434.29L199.82 434.62L199.33 434.57L198.77 434.24L199.669 433.92L200.349 434.29Z" fill="#6A645A" fill-opacity="0.996"/>
<path d="M203.3 434.19L202.61 434.51L201.92 434.6L200.75 434.26L201.67 433.93L202.54 433.92L203.3 434.19Z" fill="#6A645A" fill-opacity="0.996"/>
<path d="M205.32 434.24L204.62 434.43L204.02 434.11L204.669 433.92L205.32 434.24Z" fill="#6A645A" fill-opacity="0.996"/>
<path d="M264.419 434.3L264.299 434.52L264.059 434.62L260.249 434.84L255.989 434.69L255.299 434.55L254.769 434.23L254.449 433.85L262.559 433.83L263.889 434.03L264.419 434.3Z" fill="#6A645A" fill-opacity="0.996"/>
<path d="M266.97 433.84L266.8 434.38L266.51 434.7L265.85 434.78L264.91 434.39L265.8 433.97L266.97 433.84Z" fill="#6A645A" fill-opacity="0.996"/>
</svg>
