<svg xmlns="http://www.w3.org/2000/svg" viewBox="0 0 64 64" fill="none">
  <rect width="64" height="64" rx="14" fill="#f89820"/>
  <path d="M 24 12 Q 22 19 26 23 Q 30 27 28 32" stroke="#ffffff" stroke-width="2.4" stroke-linecap="round" fill="none" opacity="0.85"/>
  <path d="M 33 10 Q 31 17 35 21 Q 39 25 37 30" stroke="#ffffff" stroke-width="2.4" stroke-linecap="round" fill="none" opacity="0.85"/>
  <path d="M 18 32 H 46 Q 48 32 48 34 V 36 Q 48 38 46 38 H 18 Q 16 38 16 36 V 34 Q 16 32 18 32 Z" fill="#ffffff"/>
  <path d="M 20 38 H 44 V 50 Q 44 53 41 53 H 23 Q 20 53 20 50 Z" fill="#ffffff"/>
  <text x="32" y="49.5" text-anchor="middle" font-family="Georgia, 'Times New Roman', serif" font-weight="700" font-size="13" fill="#f89820">J</text>
</svg>
