<svg width="719" height="576" viewBox="0 0 719 576" fill="none" xmlns="http://www.w3.org/2000/svg">
<path d="M563.939 1L566.079 3.59L567.849 5.14L569.849 6.47L570.039 6.81999L569.909 7.67999L569.079 8.73999L567.759 9.81999L566.599 11.04L564.989 13.45L564.299 14.47L562.309 16.44L557.089 22.39L554.029 25.87L551.769 27.9L550.119 30.18L545.009 35.93L543.669 36.93L542.499 38.09L540.879 40.5L537.559 44.23L535.969 45.54L534.529 46.98L533.219 48.63L532.069 50.42L530.989 51.82L530.499 52.23L524.939 58.45L522.299 61.35L521.319 62L520.359 62.36L519.869 62.34L519.439 62.09L513.199 55.85L512.919 55.42L512.829 54.92L512.939 54.42L513.239 54.01L513.289 53.97L515.699 51.62L517.759 48.79L520.989 45.29L534.179 30.52L538.219 26L539.509 24.96L540.569 23.75L541.479 22.18L546.089 17.05L547.889 15.51L549.499 13.81L551.499 11.02L552.389 9.70999L553.769 8.44L555.789 6.75L557.649 4.90999L560.819 0.929993L561.189 0.470001L561.819 0.0899963L562.289 0L562.759 0.119995L563.939 1Z" fill="black"/>
<path d="M560.82 0.929688L557.65 4.90968L555.789 6.74969L553.77 8.4397L555.58 6.0497L558.049 3.36969L560.82 0.929688Z" fill="#837F7C"/>
<path d="M569.849 6.47L567.849 5.14L566.079 3.59L563.939 1L566.519 2.81L568.289 4.50999L569.849 6.47Z" fill="#837F7C"/>
<path d="M569.079 8.74023L568.099 10.2602L566.679 11.9502L564.989 13.4502L566.599 11.0402L567.759 9.82024L569.079 8.74023Z" fill="#837F7C"/>
<path d="M546.09 17.0495L551.5 11.0195L549.5 13.8095L547.89 15.5095L546.09 17.0495Z" fill="#837F7C"/>
<path d="M541.48 22.1797L540.57 23.7497L539.51 24.9597L538.22 25.9997L538.69 25.2097L539.94 23.5997L541.48 22.1797Z" fill="#837F7C"/>
<path d="M554.029 25.8711L550.119 30.1811L551.769 27.9011L554.029 25.8711Z" fill="#837F7C"/>
<path d="M247.609 37.1614L243.749 34.7014L239.809 32.7714L235.789 31.3714L231.699 30.5114L228.559 30.2114L225.029 30.2514L221.569 30.6814L218.499 31.4114L215.479 32.4814L212.529 33.8614L209.639 35.5814L207.599 37.2514L205.799 38.7314L205.289 38.9014L204.749 38.8114L203.419 37.6414L202.179 36.4914L198.559 34.4214L195.419 32.8614L192.769 31.7914L190.609 31.2214L185.309 30.6414L180.279 30.7314L175.509 31.4714L170.999 32.8814L167.109 34.7414L163.449 37.1414L161.139 39.0314L159.059 41.0614L157.199 43.2414L155.559 45.5514L153.309 49.7614L151.689 54.3714L150.799 58.8314L150.559 62.8514L150.809 66.9314L151.579 71.0714L152.839 75.2814L151.429 71.6914L150.459 68.1314L149.939 64.5814L149.859 61.0414L150.069 58.6114L150.479 56.1914L151.109 53.7814L151.949 51.3714L153.039 48.9114L154.309 46.5614L155.809 44.2514L157.489 42.0714L159.339 40.0414L161.339 38.1614L163.469 36.4514L165.729 34.9114L168.089 33.5714L170.539 32.4114L173.069 31.4514L175.679 30.7014L178.329 30.1614L181.019 29.8514L183.639 29.7614L186.289 29.8914L187.929 30.0914L192.109 31.0114L196.189 32.5414L200.179 34.6814L204.089 37.4214L205.059 37.7514L206.019 37.4014L208.759 35.3414L211.589 33.6014L214.529 32.1714L217.559 31.0714L221.049 30.2114L224.669 29.7514L228.399 29.6914L232.259 30.0214L236.079 30.7914L239.689 32.0614L243.799 34.2514L247.609 37.1614Z" fill="#837F7C"/>
<path d="M247.61 37.1609L252.89 42.2209L253.21 42.9409L253.65 43.2209L254.69 45.1009L256.43 48.0509L257.82 51.151L258.86 54.3609L259.53 57.6609L259.84 61.0609L259.76 64.491L259.31 67.8009L258.48 71.0609L257.22 74.371L255.75 77.3009L254.12 79.9709L252.31 82.371L250.33 84.5009L229.68 104.751L211.1 123.521L209.75 124.741L208.37 125.651L206.96 126.251L205.52 126.541L203.47 126.421L201.38 125.701L199.23 124.371L197.02 122.451L161.21 86.5809L157.05 81.991L153.85 77.621L153.93 76.9509L153.79 76.401L153.02 75.7009L152.84 75.2809L151.58 71.0709L150.81 66.931L150.56 62.8509L150.8 58.8309L151.69 54.371L153.31 49.7609L155.56 45.5509L157.2 43.241L159.06 41.0609L161.14 39.0309L163.45 37.1409L167.11 34.741L171 32.8809L175.51 31.4709L180.28 30.7309L185.31 30.6409L190.61 31.2209L192.77 31.7909L195.42 32.8609L198.56 34.4209L202.18 36.491L203.42 37.6409L204.75 38.8109L205.29 38.901L205.8 38.7309L207.6 37.2509L209.64 35.5809L212.53 33.8609L215.48 32.4809L218.5 31.4109L221.57 30.6809L225.03 30.2509L228.56 30.2109L231.7 30.5109L235.79 31.3709L239.81 32.771L243.75 34.7009L247.61 37.1609ZM205.68 112.161L240.57 77.741L243.97 74.0309L246.27 70.6909L247.08 68.9509L247.67 67.0509L248.06 64.9509L248.22 62.771L248.13 60.5809L247.8 58.4209L247.26 56.4509L246.5 54.6009L244.86 51.7009L242.97 49.1709L240.85 47.0309L238.48 45.2609L235.69 43.7909L232.61 42.741L229.26 42.1409L225.64 41.961L221.87 42.371L218.58 43.4809L216.22 44.871L214.1 46.6609L212.15 48.901L210.27 51.7009L209.34 53.0509L208.38 54.0709L207.38 54.7609L206.33 55.1109L204.45 55.211L202.91 54.8609L201.88 54.3009L200.84 53.3809L198.66 50.3809L198.41 49.991L196.5 47.521L194.25 45.461L191.69 43.8509L188.89 42.7309L186.77 42.2509L184.56 42.0509L181.66 42.1409L178.87 42.5509L176.21 43.2609L173.71 44.2609L171.38 45.5409L169.26 47.0909L167.37 48.8909L165.73 50.9409L164.36 53.2309L163.29 55.7509L162.57 58.371L162.18 61.1709L162.21 65.271L162.51 67.1909L162.99 68.9709L164.31 71.9209L166.3 74.8409L169.03 77.931L173.6 82.3909L175.38 84.0909L188.55 96.961L203.67 112.151L204.13 112.461L204.67 112.571L205.22 112.471L205.68 112.161Z" fill="black"/>
<path d="M370.14 32L370.77 36.46L370.98 43L370.91 252.11L370.63 262.85L370.09 269.07L369.29 273.49L367.86 278.1L366.05 282.42L363.86 286.45L361.29 290.18L357.87 294.09L353.96 297.61L349.54 300.75L344.63 303.5L341.42 304.95L338.26 306.09L335.15 306.91L332.09 307.42L337.77 305.79L343.15 303.61L348.2 300.9L352.86 297.68L357.01 294.03L360.67 289.94L363.74 285.52L366.25 280.72L368.21 275.34L369.44 269.8L370.01 264.1L370.2 256.98L370.14 32Z" fill="#837F7C"/>
<path d="M428.989 46.51L428.389 46.64L385.329 46.83L385.009 47.15L385.019 260.5L384.819 267.57L384.169 274.13L383.059 280.18L381.489 285.71L379.719 290.29L377.619 294.59L375.199 298.59L372.469 302.27L369.459 305.62L366.159 308.62L362.589 311.25L358.769 313.49L355.919 314.84L352.959 315.98L349.879 316.9L346.699 317.6L343.439 318.08L340.079 318.33L336.739 318.35L333.309 318.14L329.959 317.71L326.709 317.05L323.549 316.17L320.479 315.06L316.809 313.37L313.279 311.34L309.899 308.96L306.649 306.23L306.999 305.62L314.629 307.23L321.359 307.93L326.529 307.92L332.089 307.42L335.149 306.91L338.259 306.09L341.419 304.95L344.629 303.5L349.539 300.75L353.959 297.61L357.869 294.09L361.289 290.18L363.859 286.45L366.049 282.42L367.859 278.1L369.289 273.49L370.089 269.07L370.629 262.85L370.909 252.11L370.979 43L370.769 36.46L370.139 32L428.449 32.09L428.809 32.24L428.959 32.61L428.989 46.51Z" fill="#07AE9D"/>
<path d="M592.8 36.0712L592 35.5512L590.86 35.6712L538.49 57.1512L537.97 57.4512L537.66 57.8512L537.57 58.4112L537.76 59.1012L537.29 58.4912L537.14 57.9312L537.15 57.8512L537.4 57.4212L538.02 57.0512L558.29 48.4312L578.65 40.0312L587.54 36.4912L591.59 35.0312L592.33 34.9512L592.76 35.1312L592.89 35.5012L592.8 36.0712Z" fill="#837F7C"/>
<path d="M592.799 36.0708L593.049 36.1108L595.859 43.6408L595.959 44.2008L595.829 44.7608L595.509 45.2308L595.029 45.5508L542.619 67.1008L542.069 67.2108L541.509 67.1008L541.039 66.7808L540.739 66.3008L540.729 66.2908L539.139 62.1308L537.759 59.1008L537.569 58.4108L537.659 57.8508L537.969 57.4508L538.489 57.1508L590.859 35.6708L591.999 35.5508L592.799 36.0708Z" fill="black"/>
<path d="M545.01 35.9297L540.88 40.4997L542.5 38.0897L543.67 36.9297L545.01 35.9297Z" fill="#837F7C"/>
<path d="M539.14 62.1313L540.73 66.2913L540.74 66.3013L541.04 66.7813L541.51 67.1013L542.07 67.2113L542.62 67.1013L595.03 45.5513L595.51 45.2313L595.83 44.7613L595.96 44.2013L595.86 43.6413L593.05 36.1113L596.56 44.0613L596.68 44.5713L596.58 45.0913L596.3 45.5313L595.87 45.8313L595.85 45.8413L542.48 67.7913L541.91 67.9013L541.34 67.7713L540.86 67.4313L540.56 66.9313L540.54 66.8613L539.14 62.1313Z" fill="#837F7C"/>
<path d="M205.68 112.161L205.22 112.471L204.67 112.571L204.13 112.461L203.67 112.151L188.55 96.9609L175.38 84.0909L173.6 82.3909L169.03 77.9309L166.3 74.8409L164.31 71.9209L162.99 68.9709L162.51 67.1909L162.21 65.2709L162.18 61.1709L162.57 58.3709L163.29 55.7509L164.36 53.2309L165.73 50.9409L167.37 48.8909L169.26 47.0909L171.38 45.5409L173.71 44.2609L176.21 43.2609L178.87 42.5509L181.66 42.1409L184.56 42.0509L186.77 42.2509L188.89 42.7309L191.69 43.8509L194.25 45.4609L196.5 47.5209L198.41 49.9909L198.66 50.3809L200.84 53.3809L201.88 54.3009L202.91 54.8609L204.45 55.2109L206.33 55.1109L207.38 54.7609L208.38 54.0709L209.34 53.0509L210.27 51.7009L212.15 48.9009L214.1 46.6609L216.22 44.8709L218.58 43.4809L221.87 42.3709L225.64 41.9609L229.26 42.1409L232.61 42.7409L235.69 43.7909L238.48 45.2609L240.85 47.0309L242.97 49.1709L244.86 51.7009L246.5 54.6009L247.26 56.4509L247.8 58.4209L248.13 60.5809L248.22 62.7709L248.06 64.9509L247.67 67.0509L247.08 68.9509L246.27 70.6909L243.97 74.0309L240.57 77.7409L205.68 112.161Z" fill="#FA517A"/>
<path d="M253.65 43.2207L253.21 42.9407L252.89 42.2207L253.65 43.2207Z" fill="#837F7C"/>
<path d="M197.02 122.451L199.23 124.371L201.38 125.701L203.47 126.421L205.52 126.541L206.96 126.251L208.37 125.651L209.75 124.741L211.1 123.521L229.68 104.751L250.33 84.5007L252.31 82.3707L254.12 79.9707L255.75 77.3007L257.22 74.3707L258.48 71.0607L259.31 67.8007L259.76 64.4907L259.84 61.0607L259.53 57.6607L258.86 54.3607L257.82 51.1507L256.43 48.0507L254.69 45.1007L253.65 43.2207L256.21 46.6407L258.22 50.5907L259.58 54.8907L260.26 59.3807V64.1307L259.58 68.8407L258.22 73.3907L256.23 77.6707L253.51 81.5707L249.24 86.4207L234.15 101.281L226.33 109.111L222.43 113.211L216.27 119.471L210.42 124.761L209.28 125.591L207.56 126.441L205.64 126.971L204.86 127.061L203 126.851L201.09 126.031L199.09 124.561L197.02 122.451Z" fill="#837F7C"/>
<path d="M537.559 44.2305L532.069 50.4205L533.219 48.6305L534.529 46.9805L535.969 45.5405L537.559 44.2305Z" fill="#837F7C"/>
<path d="M463.41 93.4805L463.26 93.8605L463.12 94.0505L455.14 88.3905L449.64 84.2505L446.23 81.1805L443.02 77.8805L440.01 74.3405L437.2 70.5605L433.95 65.2305L431.42 59.6305L430.35 56.5005L429.49 53.2905L428.84 50.0005L428.39 46.6405L428.99 46.5105L428.96 46.8105L429.22 47.0105L429.6 46.9305L430.18 46.3405L431.05 45.9805H441.15L441.73 46.0905L442.24 46.4005L442.61 46.8705L442.78 47.4405L442.92 48.7305L443.84 56.3505L444.82 61.4405L446.11 65.7905L447.82 70.3105L449.87 74.7905L452.24 79.2205L454.84 83.3805L457.57 87.1305L460.48 90.5705L463.41 93.4805Z" fill="#FA517A"/>
<path d="M428.39 46.6406L428.84 50.0006L429.49 53.2906L430.35 56.5006L431.42 59.6306L433.95 65.2306L437.2 70.5606L440.01 74.3406L443.02 77.8806L446.23 81.1806L449.64 84.2506L455.14 88.3906L463.12 94.0506L465.2 95.8406L469.04 99.4906L473.05 102.821L477.25 105.841L481.62 108.561L486.88 111.301L492.36 113.631L498.09 115.541L504.05 117.051L504.24 116.981L504.15 159.721L503.95 160.231L503.46 160.471L498.14 160.791L492.81 160.851L487.48 160.631L482.18 160.131L476.97 159.361L471.81 158.311L466.83 157.011L461.94 155.451L457.23 153.641L452.64 151.561L448.27 149.261L444.05 146.711L440.08 143.961L436.29 140.971L432.74 137.791L429.38 134.371L429.28 134.301L429.01 134.331L428.88 134.571L429.13 253.271L429.17 263.201L428.95 271.571L428.49 278.361L427.77 283.591L426.11 290.811L423.94 297.781L421.34 304.341L418.29 310.641L414.76 316.751L410.81 322.581L406.39 328.181L401.59 333.451L396.36 338.441L390.78 343.051L384.88 347.281L378.68 351.111L372.22 354.521L365.51 357.491L358.62 360.001L351.54 362.051L344.4 363.601L337.12 364.671L330.09 365.231L323.14 365.341L316.26 364.981L309.45 364.161L304.51 363.271L299.61 362.131L294.74 360.751L289.92 359.121L285.13 357.241L280.38 355.121L275.67 352.751L271 350.131L267.93 348.091L263.72 344.791L260.99 342.611L256.14 336.921L250.46 329.351L247.67 325.291L245.09 321.171L242.72 316.991L240.56 312.761L238.6 308.471L236.86 304.121L235.32 299.721L233.99 295.251L232.58 289.451L231.52 283.561L230.81 277.571L230.43 271.491L230.48 263.251L231.18 255.151L232.06 249.511L233.23 243.951L234.74 238.401L236.54 232.951L238.65 227.581L241.05 222.331L243.73 217.221L246.67 212.251L249.93 207.371L253.45 202.671L257.22 198.141L261.23 193.791L265.48 189.641L269.95 185.701L274.64 181.971L279.54 178.461L283.87 175.681L288.31 173.131L292.84 170.821L297.47 168.761L301.75 167.091L306.12 165.621L310.56 164.351L315.09 163.271L319.7 162.391L324.39 161.701L329.16 161.211L334.01 160.921L334.15 207.951V207.961L334.01 208.261L333.7 208.381L327.21 208.451L320.85 209.191L314.66 210.571L308.71 212.591L303.1 215.221L297.83 218.451L293.04 222.201L288.67 226.521L285.43 230.521L282.54 234.891L280.33 239.001L278.51 243.161L277.06 247.451L276.02 251.751L275.38 256.101L275.14 260.431L275.31 264.721L275.88 268.951L276.89 273.291L278.34 277.521L280.2 281.631L282.48 285.601L285.15 289.371L288.21 292.951L291.6 296.261L295.36 299.361L298.13 301.241L302.45 303.781L306.65 306.231L309.9 308.961L313.28 311.341L316.81 313.371L320.48 315.061L323.55 316.171L326.71 317.051L329.96 317.711L333.31 318.141L336.74 318.351L340.08 318.331L343.44 318.081L346.7 317.601L349.88 316.901L352.96 315.981L355.92 314.841L358.77 313.491L362.59 311.251L366.16 308.621L369.46 305.621L372.47 302.271L375.2 298.591L377.62 294.591L379.72 290.291L381.49 285.711L383.06 280.181L384.17 274.131L384.82 267.571L385.02 260.501L385.01 47.1506L385.1 46.9206L385.33 46.8306L428.39 46.6406Z" fill="black"/>
<path d="M517.76 48.791L515.7 51.621L513.289 53.971L513.24 54.011L512.94 54.421L512.83 54.921L512.919 55.421L513.2 55.851L519.44 62.091L519.87 62.341L520.359 62.361L521.32 62.001L522.299 61.351L521.77 62.481L521.02 63.031L520.07 62.971L518.979 62.271L515.479 58.971L512.21 55.551L511.979 54.931L512.24 54.311L517.76 48.791Z" fill="#837F7C"/>
<path d="M153.85 77.6212L153.02 75.7012L153.79 76.4012L153.93 76.9512L153.85 77.6212Z" fill="#837F7C"/>
<path d="M472.229 97.5905L472.719 98.1605L473.479 98.6905L475.819 99.6405L488.369 103.29L497.339 105.4L504.149 106.32L504.049 117.05L498.089 115.54L492.359 113.63L486.879 111.3L481.619 108.56L477.249 105.84L473.049 102.82L469.039 99.4905L465.199 95.8405L463.119 94.0505L463.259 93.8605L463.409 93.4805L472.229 97.5905Z" fill="#07AE9D"/>
<path d="M504.15 106.32L497.34 105.4L488.37 103.29L475.82 99.6399L473.479 98.6898L472.719 98.1599L472.229 97.5898L479.49 100.07L486.77 102.28L495.49 104.1L499.94 105.07L504.15 106.32Z" fill="#837F7C"/>
<path d="M116.549 139.95L118.209 137.37L119.409 134.78L120.159 132.18L120.459 129.56L120.409 127.72L120.129 125.87L119.619 124.01L118.899 122.15L117.919 120.26L116.789 118.59L115.499 117.13L114.049 115.88L113.709 115.64L111.169 114.02L108.739 112.78L106.289 111.84L103.729 111.18L101.119 110.84L98.3693 110.8H92.7093L85.8493 110.88L83.3593 111.19L81.1593 111.7L76.8793 113.39L72.7793 115.86L75.6393 113.6L78.5493 111.9L81.5093 110.76L84.5293 110.18L85.2493 110.13L94.9393 109.84L101.479 110.17L103.949 110.6L106.309 111.23L108.559 112.06L110.669 113.1L112.599 114.3L114.369 115.68L115.979 117.25L117.399 118.99L118.719 121.06L119.789 123.33L120.569 125.7L121.099 128.24L120.959 130.64L120.049 134.55L119.389 136.32L118.469 137.91L116.549 139.95Z" fill="#837F7C"/>
<path d="M116.55 139.951L99.3796 157.021L98.5996 157.391L97.9296 158.041L96.3396 158.951L94.7396 159.271L94.3696 159.261L91.6196 159.321L89.9996 158.721L87.6196 156.961L85.1196 154.801L78.3996 148.111L74.8096 144.421L72.1996 141.651L70.1496 139.161L68.6296 136.951L67.6696 135.031L66.9896 132.861L66.6196 130.661L66.5996 127.751L67.1196 124.791L68.1596 121.791L69.7296 118.731L72.7796 115.861L76.8796 113.391L81.1596 111.701L83.3596 111.191L85.8496 110.881L92.7096 110.801H98.3696L101.12 110.841L103.73 111.181L106.29 111.841L108.74 112.781L111.17 114.021L113.71 115.641L114.05 115.881L115.5 117.131L116.79 118.591L117.92 120.261L118.9 122.151L119.62 124.011L120.13 125.871L120.41 127.721L120.46 129.561L120.16 132.181L119.41 134.781L118.21 137.371L116.55 139.951ZM93.3296 145.761L93.7296 145.671L107.38 132.001L108.58 130.361L108.87 129.551L108.95 128.751L108.52 127.231L107.33 125.731L105.68 124.391L104.03 123.471L102.5 122.931L100.72 122.581L95.7096 122.421L93.4596 122.431L91.2096 122.401L86.1896 122.501L84.4096 122.831L82.8696 123.361L81.2096 124.261L79.5496 125.581L78.3396 127.061L77.8896 128.581L77.9696 129.391L78.2496 130.201L79.4296 131.851L92.9396 145.671L93.3296 145.761Z" fill="black"/>
<path d="M646.679 140.341L645.249 136.971L644.049 135.041L637.439 128.261L624.739 115.881L623.929 115.291L622.189 114.451L620.449 113.851L618.699 113.501L616.959 113.381L614.889 113.551L612.819 114.071L611.619 114.681L610.069 115.851L605.939 119.821L599.509 126.301L592.779 132.571L597.179 127.401L603.859 120.531L606.879 117.651L609.239 115.731L611.449 114.361L613.669 113.461L615.919 112.981L618.739 112.871L621.129 113.311L622.859 114.041L624.659 115.191L626.589 116.841L629.279 119.491L630.139 120.351L644.729 135.061L645.839 136.591L646.479 138.341L646.679 140.341Z" fill="#837F7C"/>
<path d="M646.68 140.341L647.16 141.591L647.34 142.841L647.26 143.921L646.95 145.011L644.08 151.491L643.9 151.631L642.33 153.071L640.99 154.801V154.671L640.76 154.851L640.07 155.361L639.72 155.921L628.24 167.521L626.31 169.511L624.3 171.061L622.19 172.181L620 172.861L617.81 173.101L615.54 172.951L613.19 172.391L610.76 171.441L593.08 154.351L591.49 153.001L590.35 151.611L589.41 150.011L588.88 148.731L588.17 147.611L587.71 146.321L587.89 141.011L588.04 139.931L588.41 138.911L590.07 135.451L592.78 132.571L599.51 126.301L605.94 119.821L610.07 115.851L611.62 114.681L612.82 114.071L614.89 113.551L616.96 113.381L618.7 113.501L620.45 113.851L622.19 114.451L623.93 115.291L624.74 115.881L637.44 128.261L644.05 135.041L645.25 136.971L646.68 140.341ZM599.22 142.481L598.98 143.061L599.22 143.641L616.85 161.271L616.93 161.341L617.48 161.511L618.01 161.271L635.66 143.621L635.88 142.881L635.66 142.461L618.04 124.831L617.92 124.731L617.38 124.591L616.88 124.831L599.22 142.481Z" fill="black"/>
<path d="M260.05 342.981L260.23 342.781L260.99 342.611L263.72 344.791L267.93 348.091L271 350.131L275.67 352.751L280.38 355.121L285.13 357.241L289.92 359.121L294.74 360.751L299.61 362.131L304.51 363.271L309.45 364.161L316.26 364.981L323.14 365.341L330.09 365.231L337.12 364.671L344.4 363.601L351.54 362.051L358.62 360.001L365.51 357.491L372.22 354.521L378.68 351.111L384.88 347.281L390.78 343.051L396.36 338.441L401.59 333.451L406.39 328.181L410.81 322.581L414.76 316.751L418.29 310.641L421.34 304.341L423.94 297.781L426.11 290.811L427.77 283.591L428.49 278.361L428.95 271.571L429.17 263.201L429.13 253.271L428.88 134.571L429.01 134.331L429.28 134.301L429.38 134.371L432.74 137.791L436.29 140.971L440.08 143.961L444.05 146.711L448.27 149.261L452.64 151.561L457.23 153.641L461.94 155.451L466.83 157.011L471.81 158.311L476.97 159.361L482.18 160.131L487.48 160.631L492.81 160.851L498.14 160.791L503.46 160.471L503.95 160.231L504.15 159.721L504.24 116.981L505.15 116.941L507.04 117.161L508.93 117.771L509.59 117.911L518.43 118.001L518.88 118.191L519.06 118.631V172.461L518.9 172.841L518.52 173.001L510.72 173.061L500.02 173.071L492.48 172.641L485.82 171.621L479.62 169.931L473.69 167.701L467.86 165.061L462.1 162.021L456.44 158.571L450.82 154.771L444.42 150.181L444.08 150.291L444.07 150.361L444.1 269.961L444.02 276.491L443.76 282.321L443.3 287.461L442.66 291.911L441.24 298.511L439.39 304.951L437.08 311.311L434.35 317.481L431.17 323.531L427.6 329.361L423.6 335.011L419.24 340.391L414.52 345.491L409.47 350.281L404.12 354.741L398.48 358.861L392.58 362.611L386.43 365.981L380.16 368.911L373.68 371.441L368.22 373.231L362.78 374.721L357.37 375.911L351.99 376.811L346.63 377.411L341.29 377.711L335.98 377.721L330.69 377.441L322.98 376.481L315.32 374.891L307.72 372.661L300.17 369.791L295.6 367.731L291.08 365.441L286.63 362.941L282.25 360.211L277.92 357.261L273.66 354.091L269.46 350.691L265.32 347.071L262.28 344.681L260.05 342.981Z" fill="#FA517A"/>
<path d="M69.73 118.73L68.16 121.79L67.12 124.79L66.6 127.75L66.62 130.66L66.99 132.86L67.67 135.03L68.6301 136.95L70.15 139.16L72.2 141.65L74.81 144.42L78.4 148.11L85.12 154.8L87.62 156.96L90 158.72L87.97 157.92L86.3 156.73L75.78 146.42L72.42 142.83L69.8 139.72L67.93 137.07L66.8 134.89L66.09 132.55L65.79 130.18L65.93 127.36L66.64 124.51L67.91 121.63L69.73 118.73Z" fill="#837F7C"/>
<path d="M93.4596 122.43L95.7096 122.42L100.72 122.58L102.5 122.93L104.03 123.47L105.68 124.39L107.33 125.73L108.52 127.23L108.95 128.75L108.87 129.55L108.58 130.36L107.38 132L93.7296 145.67L93.3297 145.76L92.9397 145.67L79.4296 131.85L78.2496 130.2L77.9697 129.39L77.8896 128.58L78.3396 127.06L79.5497 125.58L81.2096 124.26L82.8696 123.36L84.4097 122.83L86.1897 122.5L91.2096 122.4L93.4596 122.43Z" fill="#FA517A"/>
<path d="M599.219 142.48L616.88 124.83L617.46 124.59L618.039 124.83L635.659 142.46L635.9 143.04L635.659 143.62L618.01 161.27L617.43 161.51L616.849 161.27L599.219 143.64L598.979 143.06L599.219 142.48Z" fill="#07AE9D"/>
<path d="M590.07 135.451L588.41 138.911L588.04 139.931L587.89 141.011L587.71 146.321L587.04 143.671L587.08 141.131L587.44 139.651L588.06 138.211L588.94 136.811L590.07 135.451Z" fill="#837F7C"/>
<path d="M646.949 145.01L646.549 147.42L645.649 149.54L644.079 151.49L646.949 145.01Z" fill="#837F7C"/>
<path d="M589.41 150.011L588.69 149.301L588.32 148.531L588.17 147.611L588.88 148.731L589.41 150.011Z" fill="#837F7C"/>
<path d="M317.21 149.111L315.1 149.711L312.73 149.901L312.12 149.951L298.5 152.631L292.05 154.581L285.66 156.951L279.34 159.761L273.08 163.001L269.02 165.371L261.45 170.701L254.53 176.401L248.23 182.491L242.58 188.951L236.92 196.501L231.98 204.091L227.78 211.711L224.31 219.371L221.43 227.341L219.23 235.361L217.72 243.411L216.88 251.511L216.7 257.611L216.9 263.741L217.71 271.821L219.07 279.681L221.01 287.331L223.51 294.771L225.65 299.991L228.09 305.091L230.82 310.091L233.84 314.971L237.15 319.741L240.76 324.411L244.65 328.961L248.84 333.401L245.14 329.981L241.51 326.041L237.94 321.581L234.42 316.611L229.8 309.191L225.93 301.891L222.8 294.701L220.42 287.641L218.83 281.511L217.58 275.341L216.69 269.281L216.16 263.191L216 257.271L216.19 251.341L216.74 245.541L217.67 239.731L219.1 233.331L220.9 227.041L223.54 219.661L226.71 212.451L230.41 205.411L234.64 198.541L237.94 193.881L242.31 188.231L246.55 183.291L251.18 178.571L256.21 174.071L261.64 169.791L267.87 165.481L274.29 161.641L280.89 158.291L287.67 155.401L292.21 153.781L296.83 152.351L301.52 151.141L306.29 150.121L311.68 149.371L317.21 149.111Z" fill="#837F7C"/>
<path d="M334.009 160.921L329.159 161.211L324.389 161.701L319.699 162.391L315.089 163.271L310.559 164.351L306.119 165.621L301.749 167.091L297.469 168.761L292.839 170.821L288.309 173.131L283.869 175.681L279.539 178.461L274.639 181.971L269.949 185.701L265.479 189.641L261.229 193.791L257.219 198.141L253.449 202.671L249.929 207.371L246.669 212.251L243.729 217.221L241.049 222.331L238.649 227.581L236.539 232.951L234.739 238.401L233.229 243.951L232.059 249.511L231.179 255.151L230.479 263.251L230.429 271.491L230.809 277.571L231.519 283.561L232.579 289.451L233.989 295.251L235.319 299.721L236.859 304.121L238.599 308.471L240.559 312.761L242.719 316.991L245.089 321.171L247.669 325.291L250.459 329.351L256.139 336.921L260.989 342.611L260.229 342.781L260.049 342.981L256.919 340.741L253.999 338.391L251.309 335.951L248.839 333.401L244.649 328.961L240.759 324.411L237.149 319.741L233.839 314.971L230.819 310.091L228.089 305.091L225.649 299.991L223.509 294.771L221.009 287.331L219.069 279.681L217.709 271.821L216.899 263.741L216.699 257.611L216.879 251.511L217.719 243.411L219.229 235.361L221.429 227.341L224.309 219.371L227.779 211.711L231.979 204.091L236.919 196.501L242.579 188.951L248.229 182.491L254.529 176.401L261.449 170.701L269.019 165.371L273.079 163.001L279.339 159.761L285.659 156.951L292.049 154.581L298.499 152.631L312.119 149.951L312.729 149.901L315.099 149.711L317.209 149.111L333.389 149.161L333.759 149.321L333.909 149.681L334.009 160.921Z" fill="#07AE9D"/>
<path d="M644.079 151.49L643.389 152.59L642.319 153.79L640.989 154.8L642.329 153.07L643.899 151.63L644.079 151.49Z" fill="#837F7C"/>
<path d="M610.759 171.44L609.729 170.91L608.709 170.1L600.719 162.43L593.079 154.35L610.759 171.44Z" fill="#837F7C"/>
<path d="M640.76 154.85L640.49 155.62L639.72 155.92L640.07 155.36L640.76 154.85Z" fill="#837F7C"/>
<path d="M99.3797 157.02L97.9297 158.04L98.5997 157.39L99.3797 157.02Z" fill="#837F7C"/>
<path d="M94.3691 159.26L93.2891 159.68L92.4691 159.64L91.6191 159.32L94.3691 159.26Z" fill="#837F7C"/>
<path d="M132.739 160.91L204.469 192.26L204.569 192.31L204.979 192.66L205.209 193.14L205.229 193.67L205.029 194.17L203.829 196.4L203.149 198.7L202.319 200.47L201.569 201.61L200.669 202.37L199.979 202.41L161.429 185.62L159.729 184.97L158.039 184.55L157.069 184.23L156.659 183.85L155.549 183.13L154.369 182.63L152.999 182.35L151.689 181.93L150.489 181.33L149.909 180.95L127.649 171.23L127.089 170.84L126.709 170.27L126.569 169.59L126.699 168.92L129.979 160.57L130.739 160.27L131.459 160.24L132.119 160.45L132.739 160.91Z" fill="black"/>
<path d="M307 305.621L306.65 306.231L302.45 303.781L298.13 301.241L295.36 299.361L291.6 296.261L288.21 292.951L285.15 289.371L282.48 285.601L280.2 281.631L278.34 277.521L276.89 273.291L275.88 268.951L275.31 264.721L275.14 260.431L275.38 256.101L276.02 251.751L277.06 247.451L278.51 243.161L280.33 239.001L282.54 234.891L285.43 230.521L288.67 226.521L293.04 222.201L297.83 218.451L303.1 215.221L308.71 212.591L314.66 210.571L320.85 209.191L327.21 208.451L333.7 208.381L334.01 208.261L334.15 207.961V207.951L334.01 160.921L347.57 160.361H347.58L347.93 160.501L348.08 160.851L348.18 219.481L348.56 221.401L348.59 221.581L348.32 222.321L347.57 222.581L342.6 222.221H337.76L332.91 222.581L328.31 223.291L323.88 224.371L319.77 225.761L315.82 227.521L312.25 229.571L308.98 231.851L305.85 234.391L303.01 237.091L300.39 240.001L298.14 242.951L296.16 246.061L294.54 249.211L293.24 252.491L291.62 258.121L290.63 263.631L290.31 268.871L290.64 273.941L291.38 278.311L292.43 282.531L293.78 286.601L295.44 290.541L297.1 293.781L298.98 296.911L301.08 299.941L303.41 302.871L304.1 303.611L305.45 304.721L307 305.621Z" fill="#FA517A"/>
<path d="M129.98 160.57L126.7 168.92L126.57 169.59L126.71 170.27L127.09 170.84L127.65 171.23L149.91 180.95L126.98 171.3L126.51 170.98L126.2 170.51L126.09 169.95L126.21 169.4L129.98 160.57Z" fill="#837F7C"/>
<path d="M203.149 198.7L203.829 196.4L205.029 194.17L205.229 193.67L205.209 193.14L204.979 192.66L204.569 192.31L204.469 192.26L132.739 160.91L137.709 162.64L142.599 164.67L159.639 172.23L183.129 182.4L205.699 192.16L206.059 192.54L206.039 193.07L206.029 193.09L203.149 198.7Z" fill="#837F7C"/>
<path d="M628.24 167.52L626.68 169.78L625.46 170.99L624.11 171.99L622.63 172.79L621.08 173.38L619.46 173.74L617.8 173.87L616.13 173.75L614.48 173.39L612.57 172.61L610.76 171.44L613.19 172.39L615.54 172.95L617.81 173.1L620 172.86L622.19 172.18L624.3 171.06L626.31 169.51L628.24 167.52Z" fill="#837F7C"/>
<path d="M579.659 175.161L581.689 181.551L581.779 182.241L581.609 182.911L581.209 183.481L580.629 183.871L573.479 186.921L573.169 187.161L572.079 187.431L553.349 194.831L552.189 195.601L550.769 196.101L538.529 201.031L538.039 201.121L537.289 201.031L536.699 200.741L536.179 200.111L535.879 199.181L535.529 197.811L534.909 196.441L534.019 195.151L532.449 191.731L575.339 173.781L577.559 172.991L578.019 172.961L578.429 173.161L579.219 174.091L579.659 175.161Z" fill="black"/>
<path d="M575.339 173.781L532.449 191.731V191.551L532.619 191.051L533.039 190.581L534.589 189.721L557.629 180.581L575.339 173.781Z" fill="#837F7C"/>
<path d="M579.659 175.16L582.74 182.4L582.75 182.95L582.37 183.34H582.359L573.479 186.92L580.63 183.87L581.21 183.48L581.609 182.91L581.779 182.24L581.69 181.55L579.659 175.16Z" fill="#837F7C"/>
<path d="M156.66 183.85L154.74 183.26L153 182.35L154.37 182.63L155.55 183.13L156.66 183.85Z" fill="#837F7C"/>
<path d="M202.32 200.471L201.92 202.071L201.68 202.571L201.25 202.941L200.72 203.101L200.16 203.031L200.06 202.991L158.04 184.551L159.73 184.971L161.43 185.621L199.98 202.411L200.67 202.371L201.57 201.611L202.32 200.471Z" fill="#837F7C"/>
<path d="M111.619 195.65L110.459 195.92L109.319 195.96L107.779 195.62L108.829 195.34L109.879 195.27L111.619 195.65Z" fill="#837F7C"/>
<path d="M550.77 196.1L537.94 202.01L537.049 202.04L536.409 201.42L536.39 201.38L534.02 195.15L534.909 196.44L535.529 197.81L535.88 199.18L536.18 200.11L536.7 200.74L537.289 201.03L538.039 201.12L538.529 201.03L550.77 196.1Z" fill="#837F7C"/>
<path d="M107.78 195.621L109.32 195.961L110.46 195.921L111.62 195.651L113.37 195.641L114.71 196.031L118.22 196.681L121.58 197.511L124.79 198.511L127.85 199.701L130.77 201.061L133.53 202.611L136.15 204.331L138.63 206.221L138.86 206.421L145.51 212.621L148.1 215.951L150.33 219.491L152.28 223.441L153.12 226.601L153.94 228.601L154.97 230.521L155.11 231.681L155.52 232.851L156.08 233.331L156.87 233.081L161.01 233.051L162.23 233.311L163.06 233.071L163.13 233.011L184.07 233.061L186.15 233.481L188.03 234.131L189.7 235.011L191.16 236.111L193.09 238.381L194.48 241.241L194.59 242.201L192.46 264.021L192.47 264.811L192.22 265.261L191.47 268.641L191.33 270.681L191.4 272.751L191.48 274.031L191.14 274.901L189.31 288.811L189.42 289.121L189.49 289.891L189.3 290.721L188.55 294.181L187.66 299.391L187.04 304.651L186.26 311.241L185.17 320.111L184.34 327.641L182.03 346.881L181.4 349.701L180.17 352.091L178.75 353.711L176.94 355.061L174.74 356.141L172.15 356.951H87.0298L86.2298 356.381L85.3698 356.091L85.0598 356.061L83.3298 352.951L82.9298 351.721L82.8398 350.711L83.2498 348.631L84.2098 347.041L85.3398 346.171L86.9298 345.591L88.8698 345.321L91.5598 345.261L169.57 345.341L170.43 345.011L170.86 344.201L177.98 285.841L177.85 285.381L177.42 285.161H177.38L140.87 285.071L104.81 284.641L102.31 284.331L101.4 283.971L100.7 283.481L99.8698 281.761L99.3698 280.261L99.1798 279.001L99.3098 277.961L100.22 275.951L101.4 274.661L102.51 274.051L103.8 273.711L107.85 273.531H109.37L178.78 273.541L179.19 273.381L179.4 272.991L182.76 245.521L182.62 245.061L182.2 244.841H182.16H157.14L156.7 245.021L156.52 245.461L156.48 253.931L156.25 257.351L155.97 258.551L155.59 259.411L154.33 260.901L152.85 261.821L151.06 262.161L149.6 262.091L148.33 261.811L147.25 261.351L146.36 260.681L145.62 259.761L145.09 258.621L144.77 257.261L144.66 255.681L144.7 245.531L144.52 245.071L144.06 244.881H75.3398L74.9198 245.061L74.7398 245.491V257.801L74.6299 258.701L74.2898 259.541L73.7498 260.281L73.0499 260.861L71.8298 261.481L70.5298 261.861L69.1798 262.001L67.8398 261.911L66.5598 261.581L65.3998 261.031L64.4698 260.311L63.7198 259.391L63.1498 258.131L62.9198 256.621L62.8898 251.471L63.0898 245.721V245.701L62.8598 245.101L62.2598 244.851H39.3598L38.9498 245.021L38.7999 245.441V245.471L41.9198 273.011L42.0798 273.311L42.3998 273.431L76.8098 273.461L78.3498 273.571L79.6498 273.891L80.7798 274.471L81.6498 275.241L82.1998 276.051L82.5698 276.971L82.7699 278.081L82.7798 279.271L82.2098 281.801L80.9698 284.331L71.8298 284.781L62.5499 284.991L53.1299 284.981L43.5698 284.731L43.1098 284.911L42.9298 285.361V285.411L49.6299 344.451L49.9198 345.011L50.4998 345.241L62.1898 345.251L64.6299 345.291L66.5499 345.621L68.0398 346.241L69.1698 347.201L69.7198 348.121L70.0499 349.251L70.1498 350.511L70.0398 351.981L69.3398 353.871L67.7198 356.121L66.8298 356.421L66.2598 356.951L48.2798 356.921L42.0598 354.511L39.8799 352.271L37.8498 343.231L37.8098 342.271L37.9598 340.411L37.8498 338.751L36.5499 329.271L35.3198 317.731L33.6898 301.701L32.5199 292.641L32.0598 289.171L31.8598 285.781L31.5798 282.241L30.8998 279.041L30.8398 278.021L30.9798 276.151L30.7398 274.381L29.7898 272.131L29.5898 271.371L29.6498 270.481L29.9598 268.251L29.9198 266.051L29.5598 263.981L28.8799 261.941L28.7798 260.991L29.0199 258.491L28.8298 256.061L28.4498 254.441L27.8598 252.851L27.6599 252.301L27.7098 251.851L27.7898 251.711L27.5898 242.771L27.6098 242.491L28.5199 238.071L30.0499 236.231L31.4998 235.111L35.0098 233.971L37.6898 233.591H60.5898L61.5499 233.651L62.7598 233.701L63.6198 233.471L64.1398 233.111L64.6198 232.311L65.9598 227.801L67.2898 224.061L68.6299 221.091L69.9698 218.891L72.3098 215.521L74.4498 211.981L75.8398 210.461L76.5098 210.231L76.8598 209.831L77.0499 209.221L78.6898 207.501L80.3998 206.261L83.3799 204.231L86.4298 202.391L89.5698 200.751L92.7898 199.311L98.3098 197.371L104.04 195.971L107.78 195.621ZM83.0098 220.271L80.0298 224.801L77.9298 228.231L76.4998 231.851L76.3298 232.441L76.3198 232.891L76.4998 233.311L76.8498 233.611L77.2898 233.721L88.9498 233.891L101.35 233.691L115.2 233.511L137.75 233.531L140.36 233.701L142.1 233.601L143.14 233.011L142.94 232.241L142.69 230.821L142.11 229.941L136.08 220.181L133.54 217.341L130.82 214.851L127.93 212.701L124.86 210.901L121.53 209.421L118.02 208.311L113.04 207.391L108.09 207.231L103.39 207.781L98.7098 209.021L95.5398 210.281L92.5398 211.851L89.9298 213.571L87.4698 215.541L85.1599 217.781L83.0098 220.271Z" fill="black"/>
<path d="M145.51 212.621L138.86 206.421L138.63 206.221L136.15 204.331L133.53 202.611L130.77 201.061L127.85 199.701L124.79 198.511L121.58 197.511L118.22 196.681L114.71 196.031L117.15 196.171L119.71 196.581L122.38 197.261L125.16 198.211L128.46 199.591L131.7 201.171L134.73 202.891L137.5 204.711L140.01 206.631L142.15 208.561L144.04 210.611L145.51 212.621Z" fill="#837F7C"/>
<path d="M104.039 195.971L98.3094 197.371L92.7894 199.311L89.5694 200.751L86.4294 202.391L83.3794 204.231L80.3994 206.261L82.9594 204.121L85.6294 202.221L88.4094 200.571L91.2894 199.171L94.3094 197.991L97.4494 197.071L100.689 196.391L104.039 195.971Z" fill="#837F7C"/>
<path d="M600.8 204.62L596.34 204.22L592.01 204.28L587.83 204.8L583.79 205.78L579.59 207.35L575.55 209.46L571.68 212.09L567.97 215.26L569.76 213.34L571.74 211.57L573.91 209.95L576.27 208.47L579.33 206.89L582.44 205.64L585.59 204.71L588.78 204.1L591.73 203.83L594.72 203.82L597.74 204.09L600.8 204.62Z" fill="#837F7C"/>
<path d="M600.799 204.621L602.399 204.891L602.479 205.051L603.239 205.571L604.609 205.701L604.879 205.861L609.589 208.091L613.939 210.821L617.349 213.501L620.499 216.531L621.299 217.901L622.809 220.381L624.039 222.811L625.009 225.221L625.739 227.631L626.319 230.591L626.579 233.621L626.559 236.851L626.249 240.461L625.789 244.451L624.579 257.111L623.989 263.701L623.599 265.381L622.829 266.751L622.059 267.571L621.159 268.201L620.059 268.681L618.889 268.941L617.699 268.961L616.519 268.751L615.489 268.341L614.549 267.731L613.469 266.551L613.039 265.591L612.809 264.221L612.909 260.271L615.339 237.551L615.479 234.261L615.059 231.141L614.219 228.471L612.999 225.981L611.349 223.641L609.359 221.551L607.069 219.731L604.519 218.231L601.759 217.071L598.819 216.281L595.789 215.961L592.479 215.801L589.289 216.181L586.959 216.811L586.049 217.201L583.959 217.891L581.959 218.931L579.999 220.291L578.029 222.041L576.179 224.071L574.419 226.411L572.909 228.901L571.719 231.371L571.029 233.401L570.509 235.811L570.159 238.601L569.989 241.781L569.539 259.861L569.209 262.961L568.849 264.061L568.379 264.861L567.169 265.991L565.809 266.701L564.269 267.011L562.719 266.891L561.249 266.371L559.949 265.471L558.829 264.071L558.539 263.261L558.359 262.011L558.329 258.211L558.949 236.471L559.409 232.231L560.559 227.931L562.409 223.581L564.949 219.191L565.439 218.611L565.569 218.071V218.041L567.969 215.261L571.679 212.091L575.549 209.461L579.589 207.351L583.789 205.781L587.829 204.801L592.009 204.281L596.339 204.221L600.799 204.621Z" fill="black"/>
<path d="M602.399 204.891L604.609 205.701L603.239 205.571L602.479 205.051L602.399 204.891Z" fill="#837F7C"/>
<path d="M620.5 216.531L617.35 213.501L613.94 210.821L609.59 208.091L604.88 205.861L607.34 206.711L609.69 207.741L611.91 208.931L614.01 210.291L617.45 213.141L620.5 216.531Z" fill="#837F7C"/>
<path d="M136.08 220.18L131.43 215.99L128.83 213.89L126.41 212.31L122.86 210.53L119.28 209.18L115.67 208.26L112.03 207.77H107.48L102.89 208.42L98.2398 209.73L93.5498 211.7L91.3398 213L88.8398 214.86L86.0698 217.28L83.0098 220.27L85.1598 217.78L87.4698 215.54L89.9298 213.57L92.5398 211.85L95.5398 210.28L98.7098 209.02L103.39 207.78L108.09 207.23L113.04 207.39L118.02 208.31L121.53 209.42L124.86 210.9L127.93 212.7L130.82 214.85L133.54 217.34L136.08 220.18Z" fill="#837F7C"/>
<path d="M77.0499 209.221L76.8598 209.831L76.5098 210.231L75.8398 210.461L76.2798 209.731L76.8498 209.291L77.0499 209.221Z" fill="#837F7C"/>
<path d="M74.45 211.98L72.31 215.52L69.97 218.89L68.63 221.09L67.29 224.06L65.96 227.8L64.62 232.31L64.14 233.11L63.62 233.47L62.76 233.7L61.55 233.65L60.59 233.59H37.69L35.01 233.97L31.5 235.11L33.55 233.52L34.37 233.12L35.05 232.99L63.3 232.98L63.69 232.85L63.92 232.5L65.47 227.31L67.56 222.39L70.65 217.01L74.45 211.98Z" fill="#837F7C"/>
<path d="M509.86 215.59L509.85 215.66L509.89 215.92L509.93 215.98L528.52 234.26L528.68 234.02L528.98 234.22L529.76 234.91L530.98 236.47L531.48 238.08L531.29 239.69L530.45 241.35L528.78 243.18L526.41 244.84L524.8 245.44L523.46 245.19L522.19 245.16L520.79 243.25L505.14 227.9L501.09 223.22L503.7 220.83L504.74 220.48L505.31 219.91L505.41 219.09L508.87 215.5L509.33 215.24H509.38L509.46 215.26L509.86 215.59Z" fill="black"/>
<path d="M528.52 234.26L509.93 215.98L509.89 215.92L509.85 215.66L509.86 215.59H510.11L510.13 215.6L528.52 234.26Z" fill="#837F7C"/>
<path d="M595.79 215.961L590.93 216.151L590.41 216.321L589.25 216.861L588.15 216.991L586.96 216.811L589.29 216.181L592.48 215.801L595.79 215.961Z" fill="#837F7C"/>
<path d="M698.639 216.08L696.789 217.82L695.439 219.75L696.149 217.56L696.689 216.83L697.349 216.34L698.639 216.08Z" fill="#837F7C"/>
<path d="M714.73 215.99L716.1 217.15L717.13 218.36L717.82 219.61L718.17 220.91L718.07 222.87L717.26 224.93L716.65 225.79L715.91 226.42L714.84 226.9L713.57 227.06L699.41 227.1L698.53 226.98L697.7 226.66L696.98 226.13L696.41 225.45L695.6 223.79L695.01 221.68L695.44 219.75L696.79 217.82L698.64 216.08L714.73 215.99Z" fill="black"/>
<path d="M621.3 217.901L644.06 217.981L648.16 218.071L652.2 218.391L656.19 218.971L660.11 219.781L666.71 221.741L665.63 223.411L664.91 225.031L664.57 226.591L664.6 228.101L664.96 229.441L665.63 230.741L666.62 231.991L667.93 233.201L668.21 233.591L668.26 234.071L665.84 246.591L663.88 256.541L656.06 300.801L648.49 345.411L648.16 345.681L635.85 345.671L633.8 346.031L632.09 347.051L631.35 347.881L630.82 348.861L630.49 349.931L630.36 351.061L630.43 352.221L630.71 353.381L631.19 354.501L631.88 355.541L632.02 355.711L630.99 356.531L630.61 356.861L630.12 356.981H617.66L617.28 356.871L617.03 356.561L616.93 356.311L616.66 356.161L616.37 356.261L616.35 356.291L616.06 356.561L614.91 357.021L613.33 356.941L615.65 355.801L616.5 355.041L617.14 354.171L617.78 352.251L617.71 349.921L617.07 347.891L615.94 346.491L614.55 345.781L612.8 345.551L512.53 345.661H512.47L512.01 345.401L511.88 344.891L526.19 265.061L526.51 262.741L526.5 260.871L526.13 259.311L525.42 258.141L524.9 257.401L524.85 256.841L524.98 256.701L525.53 255.911L525.92 254.991L526.24 252.731L526.34 251.091L526.64 249.501L526.68 249.341L527.03 247.751L527.12 246.521L526.93 245.531L526.51 244.921L526.41 244.841L528.78 243.181L530.45 241.351L531.29 239.691L531.48 238.081L530.98 236.471L529.76 234.911L529.97 232.611L530.42 230.451L531.13 228.441L532.07 226.581L533.97 224.051L536.42 221.861L538.76 220.491L541.06 219.841L546.56 219.311L552.38 219.031L558.51 218.991L564.95 219.191L562.41 223.581L560.56 227.931L559.41 232.231L558.95 236.471L558.33 258.211L558.36 262.011L558.54 263.261L558.83 264.071L559.95 265.471L561.25 266.371L562.72 266.891L564.27 267.011L565.81 266.701L567.17 265.991L568.38 264.861L568.85 264.061L569.21 262.961L569.54 259.861L569.99 241.781L570.16 238.601L570.51 235.811L571.03 233.401L571.72 231.371L572.91 228.901L574.42 226.411L576.18 224.071L578.03 222.041L580 220.291L581.96 218.931L583.96 217.891L586.05 217.201L586.1 217.391L586.33 217.761L586.78 217.951L600.87 217.821L600.92 217.771V217.521L600.67 217.261L599.95 217.141L599.36 216.851L598.82 216.281L601.76 217.071L604.52 218.231L607.07 219.731L609.36 221.551L611.35 223.641L613 225.981L614.22 228.471L615.06 231.141L615.48 234.261L615.34 237.551L612.91 260.271L612.81 264.221L613.04 265.591L613.47 266.551L614.55 267.731L615.49 268.341L616.52 268.751L617.7 268.961L618.89 268.941L620.06 268.681L621.16 268.201L622.06 267.571L622.83 266.751L623.6 265.381L623.99 263.701L624.58 257.111L625.79 244.451L626.25 240.461L626.56 236.851L626.58 233.621L626.32 230.591L625.74 227.631L625.01 225.221L624.04 222.811L622.81 220.381L621.3 217.901Z" fill="#FCB105"/>
<path d="M695.01 221.68L695.6 223.79L696.41 225.45L696.98 226.13L697.7 226.66L698.53 226.98L699.41 227.1L713.57 227.06L714.84 226.9L715.91 226.42L716.65 225.79L717.26 224.93L718.07 222.87L718.17 220.91L717.82 219.61L717.13 218.36L716.1 217.15L714.73 215.99L716.16 216.79L717.3 217.69L718.15 218.69L718.71 219.8L718.97 220.91L718.99 222.11L718.76 223.4L718.29 224.77L717.72 225.59L716.58 226.55L715.45 227.26L714.33 227.71L713.22 227.9L706.7 228.09L699.67 227.91L698.66 227.68L696.99 226.71L695.83 225.42L695.14 223.72L695.01 221.68Z" fill="#837F7C"/>
<path d="M565.57 218.041V218.071L565.44 218.611L564.95 219.191L558.51 218.991L552.38 219.031L546.56 219.311L541.06 219.841L538.76 220.491L536.42 221.861L533.97 224.051L532.07 226.581L531.13 228.441L530.42 230.451L529.97 232.611L529.76 234.911L528.98 234.221L528.8 233.461L529.59 229.641L530.24 227.881L531.08 226.221L532.22 224.491L533.57 222.881L535.15 221.401L536.94 220.051L538.27 219.411L540.24 218.891L546.06 218.161L553.53 217.951L565.57 218.041Z" fill="#FA517A"/>
<path d="M505.409 219.09L505.309 219.91L504.739 220.48L503.699 220.83L505.409 219.09Z" fill="#837F7C"/>
<path d="M676.52 221.58L669.54 221.61L671.03 221.2L672.53 221.01L674.52 221.1L676.52 221.58Z" fill="#FA517A"/>
<path d="M669.539 221.61L676.519 221.58L677.759 221.95L678.969 222.55L680.139 223.39L681.289 224.48L681.509 226.69L681.229 228.75L680.169 231.1L678.349 233.24L678.169 233.5L678.159 233.89L678.369 234.37L678.489 234.25L678.519 234.66L678.259 235.13L678.229 235.65L693.809 334.64L695.439 347.01L695.469 348.17L695.029 350.33L693.939 352.45L692.209 354.54L689.819 356.6L634.499 356.85L632.899 355.9L632.619 355.95L632.019 355.71L631.879 355.54L631.189 354.5L630.709 353.38L630.429 352.22L630.359 351.06L630.489 349.93L630.819 348.86L631.349 347.88L632.089 347.05L633.799 346.03L635.849 345.67L648.159 345.68L648.489 345.41L656.059 300.8L663.879 256.54L665.839 246.59L668.259 234.07L668.209 233.59L667.929 233.2L666.619 231.99L665.629 230.74L664.959 229.44L664.599 228.1L664.569 226.59L664.909 225.03L665.629 223.41L666.709 221.74L669.539 221.61ZM671.819 345.68L683.469 345.8L683.829 345.65L683.949 345.29V345.25L672.769 273.2L672.619 272.88H672.599H672.589L672.439 273.2L659.709 344.99L659.699 345.03L659.819 345.4L660.179 345.55L671.819 345.68Z" fill="black"/>
<path d="M501.09 223.221L505.14 227.901L503.46 226.841L502.22 225.731L501.44 224.581L501.1 223.401L501.09 223.221Z" fill="#837F7C"/>
<path d="M152.279 223.441L154.019 227.161L154.969 230.521L153.939 228.601L153.119 226.601L152.279 223.441Z" fill="#837F7C"/>
<path d="M678.369 234.37L678.159 233.89L678.169 233.5L678.349 233.24L680.169 231.1L681.229 228.75L681.509 226.69L681.289 224.48L681.859 225.9L682.089 227.34L681.899 229.07L681.219 230.82L680.039 232.58L678.369 234.37Z" fill="#837F7C"/>
<path d="M80.0293 224.801L77.0893 231.971L77.0493 232.111L77.1993 232.731L77.7793 233.001L143.139 233.011L142.099 233.601L140.359 233.701L137.749 233.531L115.199 233.511L101.349 233.691L88.9493 233.891L77.2893 233.721L76.8493 233.611L76.4993 233.311L76.3193 232.891L76.3293 232.441L76.4993 231.851L77.9293 228.231L80.0293 224.801Z" fill="#837F7C"/>
<path d="M142.94 232.241L142.38 231.841L142.05 231.051L142.11 229.941L142.69 230.821L142.94 232.241Z" fill="#837F7C"/>
<path d="M156.869 233.08L156.079 233.33L155.519 232.85L155.109 231.68L156.869 233.08Z" fill="#837F7C"/>
<path d="M163.13 233.01L163.06 233.07L162.23 233.31L161.01 233.05L163.13 233.01Z" fill="#837F7C"/>
<path d="M192.459 264.021L194.589 242.201L194.479 241.241L193.089 238.381L191.159 236.111L189.699 235.011L188.029 234.131L186.149 233.481L184.069 233.061H185.279L186.999 233.361L188.689 234.011L190.349 235.001L191.989 236.341L193.779 238.361L194.769 240.381L195.039 242.461L194.759 245.371L194.429 248.191L194.239 250.471L193.499 257.261L192.459 264.021Z" fill="#837F7C"/>
<path d="M528.8 233.461L528.98 234.221L528.68 234.021L528.89 233.491L528.8 233.461Z" fill="#837F7C"/>
<path d="M678.52 234.66L678.75 234.89L679 235.42L679.64 241.11L695.159 340.58L695.95 346.73L696.039 348.65L695.919 349.82L695.14 351.68L693.859 353.43L692.09 355.07L689.82 356.6L692.21 354.54L693.94 352.45L695.029 350.33L695.469 348.17L695.44 347.01L693.81 334.64L678.229 235.65L678.26 235.13L678.52 234.66Z" fill="#837F7C"/>
<path d="M28.5195 238.07L27.6095 242.49L27.5894 242.77L27.7894 251.71L27.0594 247.84L26.9395 244.28L27.4294 241.02L28.5195 238.07Z" fill="#837F7C"/>
<path d="M100.7 283.48L96.4698 282.82L92.3298 282.59L88.2898 282.79L84.3398 283.43L80.9698 284.33L82.2098 281.8L82.7798 279.27L82.7698 278.08L82.5698 276.97L82.1998 276.05L81.6498 275.24L80.7798 274.47L79.6498 273.89L78.3498 273.57L76.8098 273.46L42.3998 273.43L42.0798 273.31L41.9198 273.01L38.7998 245.47V245.44L38.9498 245.02L39.3598 244.85H62.2598L62.8598 245.1L63.0898 245.7V245.72L62.8898 251.47L62.9198 256.62L63.1498 258.13L63.7198 259.39L64.4698 260.31L65.3998 261.03L66.5598 261.58L67.8398 261.91L69.1798 262L70.5298 261.86L71.8298 261.48L73.0498 260.86L73.7498 260.28L74.2898 259.54L74.6298 258.7L74.7398 257.8V245.49L74.9198 245.06L75.3398 244.88H144.06L144.52 245.07L144.7 245.53L144.66 255.68L144.77 257.26L145.09 258.62L145.62 259.76L146.36 260.68L147.25 261.35L148.33 261.81L149.6 262.09L151.06 262.16L152.85 261.82L154.33 260.9L155.59 259.41L155.97 258.55L156.25 257.35L156.48 253.93L156.52 245.46L156.7 245.02L157.14 244.84H182.16H182.2L182.62 245.06L182.76 245.52L179.4 272.99L179.19 273.38L178.78 273.54L109.37 273.53H107.85L103.8 273.71L102.51 274.05L101.4 274.66L100.22 275.95L99.3098 277.96L99.1798 279L99.3698 280.26L99.8698 281.76L100.7 283.48Z" fill="#FCB105"/>
<path d="M524.799 245.44L523.969 245.91L523.219 245.96L522.679 245.7L522.189 245.16L523.459 245.19L524.799 245.44Z" fill="#FA517A"/>
<path d="M29.6494 270.48L27.8594 252.85L28.4494 254.44L28.8294 256.06L29.0194 258.49L28.7794 260.99L28.8794 261.94L29.5594 263.98L29.9194 266.05L29.9594 268.25L29.6494 270.48Z" fill="#837F7C"/>
<path d="M524.249 256.461L521.309 256.491L519.499 256.571L518.129 257.121L517.219 257.951L516.539 259.061L515.989 260.561L515.529 262.551L507.559 305.451L499.949 348.101L500.039 349.241L501.089 352.261L499.959 350.881L499.409 349.401L499.369 348.221L501.429 336.541L503.489 324.871L507.079 304.481L515.219 260.921L515.579 259.511L516.099 258.321L516.769 257.361L517.599 256.631L518.889 256.031L520.419 255.801L522.209 255.951L524.249 256.461Z" fill="#837F7C"/>
<path d="M524.249 256.461L524.189 256.521L524.849 256.841L524.899 257.401L525.419 258.141L526.129 259.311L526.499 260.871L526.509 262.741L526.189 265.061L511.879 344.891L512.009 345.401L512.469 345.661H512.529L612.799 345.551L614.549 345.781L615.939 346.491L617.069 347.891L617.709 349.921L617.779 352.251L617.139 354.171L616.499 355.041L615.649 355.801L613.329 356.941H509.369L506.849 356.651L504.649 355.801L502.699 354.331L501.089 352.261L500.039 349.241L499.949 348.101L507.559 305.451L515.529 262.551L515.989 260.561L516.539 259.061L517.219 257.951L518.129 257.121L519.499 256.571L521.309 256.491L524.249 256.461Z" fill="black"/>
<path d="M192.219 265.26L191.399 272.75L191.329 270.68L191.469 268.64L192.219 265.26Z" fill="#837F7C"/>
<path d="M39.8801 352.271L39.11 350.311L38.44 347.921L37.42 341.861L33.48 307.071L29.79 272.131L30.74 274.381L30.98 276.151L30.84 278.021L30.9 279.041L31.58 282.241L31.86 285.781L32.06 289.171L32.5201 292.641L33.69 301.701L35.32 317.731L36.55 329.271L37.85 338.751L37.96 340.411L37.81 342.271L37.85 343.231L39.8801 352.271Z" fill="#837F7C"/>
<path d="M672.599 272.881H672.619L672.769 273.201L683.949 345.251V345.291L683.829 345.651L683.469 345.801L671.819 345.681L660.179 345.551L659.819 345.401L659.699 345.031L659.709 344.991L672.439 273.201L672.589 272.881H672.599Z" fill="#FCB105"/>
<path d="M100.7 283.48L101.4 283.97L102.31 284.33L104.81 284.64L140.87 285.07L177.38 285.16H177.42L177.85 285.38L177.98 285.84L170.86 344.2L170.43 345.01L169.57 345.34L91.5597 345.26L88.8697 345.32L86.9297 345.59L85.3397 346.17L84.2097 347.04L83.2497 348.63L82.8397 350.71L82.9297 351.72L83.3297 352.95L85.0597 356.06L67.7197 356.12L69.3397 353.87L70.0397 351.98L70.1497 350.51L70.0497 349.25L69.7197 348.12L69.1697 347.2L68.0397 346.24L66.5497 345.62L64.6297 345.29L62.1897 345.25L50.4997 345.24L49.9197 345.01L49.6297 344.45L42.9297 285.41V285.36L43.1097 284.91L43.5697 284.73L53.1297 284.98L62.5497 284.99L71.8297 284.78L80.9697 284.33L84.3397 283.43L88.2897 282.79L92.3297 282.59L96.4697 282.82L100.7 283.48Z" fill="#07AE9D"/>
<path d="M189.299 290.721L182.739 347.181L182.519 348.081L181.459 350.471L180.179 352.481L178.679 354.131L176.959 355.411L174.699 356.431L172.149 356.951L174.739 356.141L176.939 355.061L178.749 353.711L180.169 352.091L181.399 349.701L182.029 346.881L184.339 327.641L185.169 320.111L186.259 311.241L187.039 304.651L187.659 299.391L188.549 294.181L189.299 290.721Z" fill="#837F7C"/>
<path d="M18.0492 337L6.65918 336.71L9.40918 336.11L12.1592 335.93L15.1092 336.22L18.0492 337Z" fill="#837F7C"/>
<path d="M6.66 336.711L18.05 337.001L18.6 337.411L19.87 338.641L20.75 339.991L21.27 341.491L21.38 343.011L20.96 344.831L19.95 346.491L18.48 347.811L16.54 348.771L3.50999 348.831L3.11 348.451L2.14999 347.731L1.05 347.161L0.330002 345.201L0 343.211L0.0200043 341.671L0.259995 340.121L3.23 337.221L5.12 336.701L6.66 336.711Z" fill="black"/>
<path d="M3.22977 337.221L0.259766 340.121L0.599762 338.921L1.23976 338.031L2.10977 337.491L3.22977 337.221Z" fill="#837F7C"/>
<path d="M16.54 348.77L18.48 347.81L19.95 346.49L20.96 344.83L21.3801 343.01L21.2701 341.49L20.75 339.99L19.87 338.64L18.6 337.41L20.48 338.7L21.21 339.57L21.74 340.53L22.1301 341.91L22.16 343.33L21.85 344.72L21.21 346.01L20.35 347.04L19.24 347.88L17.99 348.45L16.54 348.77Z" fill="#837F7C"/>
<path d="M3.5098 348.83L2.4798 348.73L1.67979 348.17L1.0498 347.16L2.1498 347.73L3.1098 348.45L3.5098 348.83Z" fill="#837F7C"/>
<path d="M48.2796 356.92L46.3596 356.84L44.6296 356.34L43.2796 355.58L42.0596 354.51L48.2796 356.92Z" fill="#837F7C"/>
<path d="M634.499 356.85L633.779 356.97L633.269 356.8L633.009 356.45L632.899 355.9L634.499 356.85Z" fill="#837F7C"/>
<path d="M67.7198 356.121L85.0598 356.061L85.3698 356.091L86.2298 356.381L87.0298 356.951H66.2598L66.8298 356.421L67.7198 356.121Z" fill="#837F7C"/>
<path d="M222.24 392.131L228.33 394.811L230.74 396.821L232.74 399.231L234.03 402.341L234.81 405.371L235.09 408.311L234.87 411.171L234.22 413.721L232.74 416.981L230.73 419.761L229.36 421.101L227.82 422.291L226.1 423.331L224.22 424.211L220.87 425.181L217.95 425.411L214.94 425.111L211.84 424.291L208.64 422.931L205.93 420.741L203.72 418.071L202.4 414.991L201.59 412.001L201.3 409.101L201.52 406.291L201.67 405.511L202.33 403.181L203.22 401.061L204.33 399.141L205.68 397.421L207.72 395.521L210.13 393.951L212.91 392.721L216.06 391.821L219.16 391.701L222.24 392.131Z" fill="black"/>
<path d="M216.059 391.82L212.909 392.72L210.129 393.95L207.719 395.52L205.679 397.42L204.329 399.14L203.219 401.06L202.329 403.18L201.669 405.51L201.519 406.29L201.299 409.1L201.589 412L202.399 414.99L203.719 418.07L202.389 415.68L201.459 413.12L200.959 410.44L200.899 407.73L201.419 404.47L202.569 401.38L203.619 399.52L204.909 397.81L206.389 396.27L208.069 394.92L209.899 393.78L211.869 392.88L213.929 392.22L216.059 391.82Z" fill="#837F7C"/>
<path d="M228.329 394.811L222.239 392.131L225.419 393.181L228.329 394.811Z" fill="#837F7C"/>
<path d="M232.74 399.23L234 401.37L234.93 403.67L235.5 406.08L235.72 408.54L235.69 409.88L235.35 412.28L234.67 414.62L233.66 416.83L232.34 418.88L230.73 420.73L228.87 422.33L226.8 423.66L224.55 424.69L222.57 425.3L220.53 425.68L218.46 425.81L216.38 425.71L214.33 425.36L212.34 424.77L210.43 423.96L208.64 422.93L211.84 424.29L214.94 425.11L217.95 425.41L220.87 425.18L224.22 424.21L226.1 423.33L227.82 422.29L229.36 421.1L230.73 419.76L232.74 416.98L234.22 413.72L234.87 411.17L235.09 408.31L234.81 405.37L234.03 402.34L232.74 399.23Z" fill="#837F7C"/>
<path d="M180.6 428.87L185.77 428.86L188.55 428.61L189.86 428.12L190.78 427.32L191.29 426.29L191.45 424.98V404.73L191.3 402.66L190.69 401.44L189.67 400.88L188.06 400.72L153.33 401.02L108 400.7L109.05 400.17L110.08 400L188.73 400.04L189.56 400.15L190.33 400.49L190.98 401.02L191.46 401.7L191.85 403.06L191.99 405.23L191.98 425.2L191.79 426.6L191.25 427.59L190.65 428.1L189.9 428.45L187.72 428.8L180.6 428.87Z" fill="#837F7C"/>
<path d="M273.649 400.5L260.569 400.66L263.569 400.22L266.579 400.01L270.109 400.09L273.649 400.5Z" fill="#837F7C"/>
<path d="M428.449 428.78L429.639 427.44L430.379 425.95L430.669 423.98L430.379 403.75L430.169 402.34L429.549 401.35L428.609 400.81L427.309 400.64L388.959 400.87L350.569 400.35L387.449 399.92L424.309 400.04L427.039 400.27L429.529 400.89L430.529 401.62L430.929 402.8L431.059 413.89L430.909 424.66L430.559 426.73L430.159 427.51L429.619 428.13L428.449 428.78Z" fill="#837F7C"/>
<path d="M588.69 428.301L583.52 434.071L580.29 437.971L566.07 456.861L565.89 457.011L565.39 456.991L565.15 456.551V403.181L565 402.401L564.57 401.741L563.93 401.291L563.16 401.111L551.54 400.681L555.58 400.101L559.59 400.051L564.25 400.681L564.66 400.881L564.94 401.251L565.25 402.071L565.86 404.451L566.06 406.981L566.09 454.171L566.17 454.491L566.74 454.851L567.34 454.551L575.6 442.961L584.19 432.111L586.19 430.111L588.69 428.301Z" fill="#837F7C"/>
<path d="M108 400.701L153.33 401.021L188.06 400.721L189.67 400.881L190.69 401.441L191.3 402.661L191.45 404.731V424.981L191.29 426.291L190.78 427.321L189.86 428.121L188.55 428.611L185.77 428.861L180.6 428.871L166.14 428.911L165.6 429.031L165.23 429.211L165.47 428.991L165.27 428.681L165.15 428.611L164.66 428.641L164.39 429.041L164.24 431.561L164.45 434.221L164.34 449.971L164.13 511.601L135.25 511.961L134.42 511.811L133.72 511.351L133.24 510.651L133.07 509.821V509.811L133.04 430.071L133.08 429.211L132.82 428.701L132.68 428.611L131.93 428.381L131.03 428.471L130.09 428.921L106.06 428.931L105.92 428.481L105.52 427.911L104.86 427.451L104.5 427.361L104.9 416.391L104.66 404.231L104.72 403.351L105.19 402.111L106.12 400.961L107.14 400.721L108 400.701Z" fill="black"/>
<path d="M260.569 400.66L273.649 400.5L273.559 400.58L274.009 400.75L274.739 400.78L275.279 400.64L277.519 401.13L278.339 403.39L278.379 403.64L278.259 456.89L278.269 456.97L278.469 457.24L278.809 457.25L279.089 457.08L279.459 456.64L279.699 456.01L279.929 455.62L281.809 453.66L282.919 451.51L283.109 451.09L283.639 450.8L286.019 448.25L288.159 445.53L290.309 442.18L291.059 441.51L292.559 439.78L293.769 437.77L294.079 437.12L294.459 436.84L294.609 436.83L302.379 427.93L311.749 427.6L319.939 427.93L325.379 427.84L330.819 427.52H331.009L331.169 427.69L331.619 427.79L332.269 427.6L333.009 427.64L333.539 427.75L334.039 427.68L334.949 427.78L335.699 428.1L335.739 428.13L336.009 428.49L335.999 428.93L334.959 430.82L333.929 431.89L329.569 437.17L318.579 449.91L318.019 450.81L316.309 452.52L311.039 458.65L310.969 458.88L310.569 459.25L305.679 464.61L305.329 465.17L305.199 465.81L305.299 466.47L305.619 467.04L339.079 507.66L339.739 508.06L340.339 508.75L341.339 510.94L336.979 511.84L308.059 511.93L306.279 511.72L304.739 511.11L303.339 510.01L302.209 508.45L300.209 505.17L297.889 502.49L297.109 501.03L296.189 499.8L295.089 498.68L294.589 498.35L293.859 497.32L285.779 486.47L284.979 485.61L284.349 484.53L284.039 483.66L283.589 483.25L283.279 483.22L281.609 480.8L281.139 479.57L280.569 479.11L280.169 479.19L279.919 478.35L279.549 478.13L279.169 478.34L279.109 478.55L279.079 508.98L278.869 510.49L278.229 511.45L277.589 511.79L276.769 511.91L258.619 511.97L248.939 511.83L248.319 511.69L247.779 511.35L247.379 510.85L247.179 510.25L246.909 506.93L246.869 441.98L247.269 402.4L247.589 401.63L248.349 401.29L260.569 400.66Z" fill="black"/>
<path d="M275.28 400.641L274.74 400.781L274.01 400.751L274.23 400.441L274.66 400.391L275.28 400.641Z" fill="#FA517A"/>
<path d="M346.059 400.6L346.209 400.81L346.539 400.84L347.039 400.62L348.969 400.75L350.569 400.35L388.959 400.87L427.309 400.64L428.609 400.81L429.549 401.35L430.169 402.34L430.379 403.75L430.669 423.98L430.379 425.95L429.639 427.44L428.449 428.78L403.559 428.96L403.159 429.13L402.999 429.52L403.089 508.75L402.879 510.3L402.209 511.35L401.309 511.84L400.099 511.99L380.569 511.95L376.259 511.85L372.749 511.47L372.279 511.29L371.929 510.93L371.529 509.63L371.859 509.17L371.959 508.78V429.27L371.799 428.94L371.449 428.85L371.359 428.88L371.089 429.01L345.089 428.92L343.059 426.66L343.119 420.35L343.169 413.41L342.879 408.5L342.779 406.33L343.109 403.07L343.729 401.7L344.649 401.01L346.059 400.6Z" fill="black"/>
<path d="M347.04 400.621L346.54 400.841L346.21 400.811L346.06 400.601L346.57 400.471L347.04 400.621Z" fill="#837F7C"/>
<path d="M551.539 400.68L563.159 401.11L563.929 401.29L564.569 401.74L564.999 402.4L565.149 403.18V456.55L565.389 456.99L565.889 457.01L566.069 456.86L580.289 437.97L583.519 434.07L588.689 428.3L598.769 427.6L619.579 427.65L619.889 427.53L621.359 427.89L622.439 428.63L622.899 429.24L619.289 433.51L617.259 435.38L615.939 436.96L614.779 438.7L612.469 441.45L610.869 442.86L609.469 444.43L607.659 447.26L607.549 447.28L606.539 447.96L592.449 464.39L592.049 465.07L591.909 465.84L592.049 466.62L592.439 467.3L603.409 480.65L615.269 495.51L619.279 500.34L623.509 504.94L627.349 509.58L627.769 510.18L627.699 510.27L627.519 511.29L625.939 511.73L624.179 511.88L594.309 511.8L591.569 511.81L581.879 499.42L568.359 481.23L567.539 479.83L566.579 478.9L566.469 478.14L566.169 477.54L565.799 477.19L565.659 477.12L565.229 477.19L565.029 477.59L565.169 505.72L565.189 506.96L565.139 509.18L564.689 510.74L563.849 511.93L536.189 511.91L535.389 511.75L534.699 511.29L534.249 510.61L534.089 509.81L534.069 401.97L534.589 401.72L534.849 401.38L534.859 401.01L551.539 400.68Z" fill="black"/>
<path d="M106.119 400.961L105.189 402.111L104.719 403.351L104.66 404.231L104.899 416.391L104.499 427.361L103.979 414.581L104.089 403.281L104.29 402.201L104.79 401.461L105.369 401.111L106.119 400.961Z" fill="#837F7C"/>
<path d="M279.7 456.011L279.46 456.641L279.09 457.081L278.81 457.251L278.47 457.241L278.27 456.971L278.26 456.891L278.38 403.641L278.34 403.391L277.52 401.131L278.08 401.311L278.52 401.711L278.83 402.331L279.08 404.231V455.421L279.21 455.841L279.7 456.011Z" fill="#837F7C"/>
<path d="M534.859 401.01L534.849 401.38L534.589 401.72L534.069 401.97L534.179 401.35L534.329 401.14L534.449 401.07L534.859 401.01Z" fill="#837F7C"/>
<path d="M515.39 497.14L519.03 491.3L521.84 485.41L522.92 482.44L523.79 479.46L524.46 476.47L524.91 473.46L525.16 470.34L525.06 464.61L524.23 458.84L522.67 453.03L520.39 447.2L518.22 443.03L515.61 439.19L512.49 435.6L508.92 432.37L504.74 429.26L500.6 426.67L496.5 424.63L492.44 423.11L488.14 421.97L483.85 421.2L479.57 420.82L475.32 420.8L469.2 421.45L463.12 422.87L457.08 425.08L451.06 428.07L455.06 425.68L459.28 423.68L463.67 422.1L468.19 420.96L472.73 420.26L477.32 420L480.54 420.08L483.74 420.37L486.92 420.88L490.05 421.6L493.13 422.53L496.14 423.66L499.07 424.99L501.9 426.51L504.62 428.22L507.22 430.1L509.68 432.16L512.01 434.37L514.18 436.74L516.18 439.25L518.01 441.88L519.66 444.63L521.1 447.44L522.34 450.33L523.77 454.54L524.8 458.87L525.42 463.28L525.62 467.72L525.41 472.1L524.8 476.44L524.01 479.95L522.52 484.55L520.58 488.98L518.19 493.19L515.39 497.14Z" fill="#837F7C"/>
<path d="M515.39 497.141L512.23 500.761L508.72 504.051L501.94 508.051L497.5 510.421L492.88 512.271L487.7 513.671L482.31 514.461L478.32 514.661L474.4 514.561L470.55 514.151L466.77 513.441L463.36 512.521L460 511.341L456.7 509.901L453.46 508.201L446.77 504.181L443.82 501.471L441.1 498.541L440.63 497.581L439.42 495.821L437.86 494.251L437.93 494.031L437.78 493.741L437.34 493.461L435.02 489.021L433.17 484.511L431.79 479.931L430.89 475.291L430.43 470.021L430.57 464.671L431.29 459.241L432.6 453.721L433.93 449.791L435.6 446.041L437.61 442.481L439.96 439.091L443.28 435.091L446.9 431.411L449.13 429.431L451.06 428.071L457.08 425.081L463.12 422.871L469.2 421.451L475.32 420.801L479.57 420.821L483.85 421.201L488.14 421.971L492.44 423.111L496.5 424.631L500.6 426.671L504.74 429.261L508.92 432.371L512.49 435.601L515.61 439.191L518.22 443.031L520.39 447.201L522.67 453.031L524.23 458.841L525.06 464.611L525.16 470.341L524.91 473.461L524.46 476.471L523.79 479.461L522.92 482.441L521.84 485.411L519.03 491.301L515.39 497.141ZM473.85 487.081L476.57 487.421H478.56L480.54 487.231L482.5 486.831L484.4 486.241L486.23 485.451L487.97 484.491L489.61 483.351L491.12 482.051L493.38 479.491L495.16 476.571L496.41 473.391L497.08 470.041L497.17 466.611L496.7 463.421L495.72 460.361L494.24 457.491L492.32 454.911L490 452.681L487.35 450.851L484.43 449.491L481.33 448.621L477.52 448.271L473.71 448.661L470.04 449.781L466.67 451.601L463.68 454.081L461.24 457.101L459.44 460.531L458.35 464.261L458.02 468.061L458.43 471.861L459.58 475.511L461.4 478.861L463.85 481.791L466.81 484.201L470.19 485.981L473.85 487.081Z" fill="black"/>
<path d="M345.09 428.92L344.32 428.68L343.73 428.26L343.28 427.57L343.06 426.66L345.09 428.92Z" fill="#837F7C"/>
<path d="M330.82 427.52L325.38 427.84L319.94 427.93L311.75 427.6L316.82 427.09L321.88 426.93L326.35 427.09L330.82 427.52Z" fill="#837F7C"/>
<path d="M619.58 427.651L598.77 427.601L604.9 427.091L611.029 426.941L618.539 427.251L619 427.341L619.58 427.651Z" fill="#837F7C"/>
<path d="M332.27 427.6L331.62 427.79L331.17 427.69L331.01 427.52L331.44 427.25L331.84 427.31L332.27 427.6Z" fill="#837F7C"/>
<path d="M622.9 429.241L622.44 428.631L621.36 427.891L619.89 427.531L621.56 427.301L622.15 427.421L622.58 427.701L622.89 428.321L622.9 429.241Z" fill="#837F7C"/>
<path d="M106.059 428.931L105.409 428.861L105.019 428.361L104.859 427.451L105.519 427.911L105.919 428.481L106.059 428.931Z" fill="#837F7C"/>
<path d="M334.04 427.681L333.54 427.751L333.01 427.641L333.76 427.531L334.04 427.681Z" fill="#837F7C"/>
<path d="M302.379 427.93L294.609 436.83L296.389 434.07L298.279 431.67L300.279 429.62L302.379 427.93Z" fill="#837F7C"/>
<path d="M133.04 430.071L131.42 429.041L130.72 428.861L130.09 428.921L131.03 428.471L131.93 428.381L132.68 428.611L132.82 428.701L133.08 429.211L133.04 430.071Z" fill="#837F7C"/>
<path d="M165.229 429.211L164.449 434.221L164.239 431.561L164.389 429.041L164.659 428.641L165.149 428.611L165.269 428.681L165.469 428.991L165.229 429.211Z" fill="#837F7C"/>
<path d="M371.529 509.63L371.24 509.43L371.169 509.18L370.979 469.25L371.09 429.01L371.359 428.88L371.45 428.85L371.799 428.94L371.96 429.27V508.78L371.859 509.17L371.529 509.63Z" fill="#837F7C"/>
<path d="M449.13 429.43L446.9 431.41L443.28 435.09L439.96 439.09L437.61 442.48L435.6 446.04L433.93 449.79L432.6 453.72L431.29 459.24L430.57 464.67L430.43 470.02L430.89 475.29L431.79 479.93L433.17 484.51L435.02 489.02L437.34 493.46L435.69 490.69L434.23 487.82L432.56 483.76L431.27 479.56L430.38 475.26L429.89 470.9L429.79 467.15L429.98 463.4L430.47 459.69L431.25 456.02L433.12 450.24L435.72 444.74L439 439.62L442.9 434.95L445.89 432.06L449.13 429.43Z" fill="#837F7C"/>
<path d="M333.929 431.891L332.009 434.671L329.569 437.171L333.929 431.891Z" fill="#837F7C"/>
<path d="M619.289 433.51L614.779 438.7L615.939 436.96L617.259 435.38L619.289 433.51Z" fill="#837F7C"/>
<path d="M204.119 511.97L203.259 510.78L202.079 509.73L202.139 436.25L202.239 435.61L202.539 435L203.019 434.52L203.619 434.21L204.289 434.1H231.529L232.159 434.24L232.789 434.79L233.019 435.59V509.89L232.859 510.67L232.419 511.33L231.759 511.77L230.979 511.92L204.119 511.97Z" fill="black"/>
<path d="M293.77 437.77L292.56 439.78L291.06 441.51L290.31 442.18L291.15 440.74L292.35 439.18L293.77 437.77Z" fill="#837F7C"/>
<path d="M612.469 441.451L607.659 447.261L609.469 444.431L610.869 442.861L612.469 441.451Z" fill="#837F7C"/>
<path d="M290.31 442.18L288.16 445.53L286.02 448.25L283.64 450.8L290.31 442.18Z" fill="#837F7C"/>
<path d="M607.659 447.26L592.439 465.44L592.429 465.88L623.509 504.94L619.279 500.34L615.269 495.51L603.409 480.65L592.439 467.3L592.049 466.62L591.909 465.84L592.049 465.07L592.449 464.39L606.539 447.96L607.549 447.28L607.659 447.26Z" fill="#837F7C"/>
<path d="M497.169 466.61L496.349 463.37L495.19 460.43L493.71 457.79L491.9 455.44L490.359 453.9L488.109 452.14L485.76 450.78L483.24 449.76L480.69 449.14L477.26 448.89L473.9 449.27L470.59 450.27L467.52 451.84L464.77 453.92L462.44 456.46L460.64 459.31L459.38 462.49L458.83 465.16L458.69 467.98L458.96 470.78L459.669 473.69L460.729 476.36L462.15 478.79L464.31 481.39L466.979 483.63L470.159 485.53L473.849 487.08L470.19 485.98L466.81 484.2L463.849 481.79L461.4 478.86L459.58 475.51L458.43 471.86L458.02 468.06L458.349 464.26L459.44 460.53L461.24 457.1L463.68 454.08L466.669 451.6L470.039 449.78L473.71 448.66L477.52 448.27L481.33 448.62L484.43 449.49L487.349 450.85L490 452.68L492.32 454.91L494.24 457.49L495.719 460.36L496.7 463.42L497.169 466.61Z" fill="#837F7C"/>
<path d="M164.34 449.971L164.83 453.431L165.01 457.731L165 508.001L164.94 508.521L164.13 511.601L164.34 449.971Z" fill="#837F7C"/>
<path d="M282.92 451.51L281.81 453.66L279.93 455.62L281.1 453.46L282.92 451.51Z" fill="#837F7C"/>
<path d="M310.569 459.25L306.489 464.24L306.059 465.33L306.349 466.46L307.989 468.81L332.009 498.56L335.249 502.26L337.329 504.88L339.079 507.66L305.619 467.04L305.299 466.47L305.199 465.81L305.329 465.17L305.679 464.61L310.569 459.25Z" fill="#837F7C"/>
<path d="M476.569 487.421L480.579 486.841L484.169 485.791L487.359 484.261L490.149 482.271L492.459 479.881L494.379 477.041L495.919 473.761L497.079 470.041L496.409 473.391L495.159 476.571L493.379 479.491L491.119 482.051L489.609 483.351L487.969 484.491L486.229 485.451L484.399 486.241L482.499 486.831L480.539 487.231L478.559 487.421H476.569Z" fill="#837F7C"/>
<path d="M566.58 478.901L566.27 479.841L566.14 480.981L566.07 509.731L565.93 510.621L565.55 511.281L564.85 511.741L563.85 511.931L564.69 510.741L565.14 509.181L565.19 506.961L565.17 505.721L565.03 477.591L565.23 477.191L565.66 477.121L565.8 477.191L566.17 477.541L566.47 478.141L566.58 478.901Z" fill="#837F7C"/>
<path d="M281.61 480.801L281.38 480.641L280.71 480.001L280.17 479.191L280.57 479.111L281.14 479.571L281.61 480.801Z" fill="#837F7C"/>
<path d="M581.879 499.42L580.819 498.49L579.579 496.97L568.359 481.23L581.879 499.42Z" fill="#837F7C"/>
<path d="M284.349 484.531L283.879 484.191L283.279 483.221L283.589 483.251L284.039 483.661L284.349 484.531Z" fill="#837F7C"/>
<path d="M437.86 494.251L437.34 493.461L437.78 493.741L437.93 494.031L437.86 494.251Z" fill="#837F7C"/>
<path d="M441.099 498.54L437.859 494.25L439.419 495.82L440.629 497.58L441.099 498.54Z" fill="#837F7C"/>
<path d="M297.89 502.49L297.47 502.11L296.14 500.54L295.09 498.68L296.19 499.8L297.11 501.03L297.89 502.49Z" fill="#837F7C"/>
<path d="M591.57 511.81L591.2 511.47L588.54 508.81L586.11 505.92L583.88 502.79L581.88 499.42L591.57 511.81Z" fill="#837F7C"/>
<path d="M302.21 508.45L300.16 506.18L298.94 504.41L297.89 502.49L300.21 505.17L302.21 508.45Z" fill="#837F7C"/>
<path d="M508.719 504.051L505.169 506.791L501.37 509.181L495.979 511.801L490.31 513.741L484.43 514.951L478.46 515.421L472.469 515.151L466.56 514.131L460.83 512.381L455.359 509.941L450.909 507.291L446.77 504.181L453.46 508.201L456.7 509.901L460 511.341L463.359 512.521L466.77 513.441L470.549 514.151L474.4 514.561L478.32 514.661L482.31 514.461L487.7 513.671L492.88 512.271L497.5 510.421L501.94 508.051L508.719 504.051Z" fill="#837F7C"/>
<path d="M627.35 509.581L623.51 504.941L623.78 505.181L625.71 507.211L627.35 509.581Z" fill="#837F7C"/>
<path d="M204.119 511.97L203.099 511.53L202.429 510.87L202.079 509.73L203.259 510.78L204.119 511.97Z" fill="#837F7C"/>
<path d="M627.77 510.18L627.94 510.41V510.95L627.52 511.29L627.7 510.27L627.77 510.18Z" fill="#837F7C"/>
<path d="M341.339 510.941L341.269 511.061L340.689 511.581L339.779 511.881L338.539 511.971L336.979 511.841L341.339 510.941Z" fill="#837F7C"/>
<path d="M406.329 535.071L400.799 533.901L395.509 533.431L390.469 533.651L385.679 534.581L383.809 535.201L382.099 536.001L380.579 536.981L379.219 538.131L378.029 539.471L377.019 540.991L376.179 542.681L375.519 544.561L374.119 548.711L374.309 546.221L374.789 543.961L375.589 541.861L376.659 540.001L378.789 537.571L381.589 535.581L384.899 534.131L388.739 533.191L393.059 532.801L397.629 533.001L402.169 533.781L406.329 535.071Z" fill="#837F7C"/>
<path d="M475.82 536.311L473.24 535.221L470.72 534.471L468.24 534.031L465.81 533.931L455.1 533.991L445.21 533.581L451.74 532.991L457.34 532.701L462.01 532.721L465.75 533.051L467.1 533.241L470.26 533.731L472.49 534.331L474.29 535.151L475.73 536.221L475.82 536.311Z" fill="#837F7C"/>
<path d="M406.329 535.07L407.569 535.82L408.419 536.13L410.899 538.2L412.839 540.61L414.279 543.49L416.129 550.1L416.119 557.92L414.809 563.22L414.319 564.8L413.479 566.49L412.279 568.29L410.729 570.21L410.009 570.71L409.509 571.24L407.369 572.29L405.139 573.12L402.719 573.77L400.249 574.22L397.609 574.49L394.749 574.56L388.799 574.15L386.119 573.64L383.709 572.84L381.559 571.74L379.659 570.34L377.749 568.29L376.199 565.82L375.029 562.92L374.219 559.61L373.649 555.36L373.679 552.05L374.119 548.71L375.519 544.56L376.179 542.68L377.019 540.99L378.029 539.47L379.219 538.13L380.579 536.98L382.099 536L383.809 535.2L385.679 534.58L390.469 533.65L395.509 533.43L400.799 533.9L406.329 535.07ZM388.529 561.64L389.769 563.13L390.919 563.96L393.229 564.86L395.699 565.02L398.329 564.46L399.659 563.8L400.629 562.88L401.199 561.79L401.459 560.47L401.989 557.93L402.279 555.37L402.269 552.07L401.859 548.75L401.939 548.49L401.909 547.29L401.299 545.96L399.979 544.41L398.439 543.56L397.059 543.37L395.039 543.05L392.829 543.28L391.069 543.5L389.639 544.18L388.909 544.85L388.309 545.7L387.499 547.95L387.229 549.56L387.009 552.5L387.149 555.5L387.659 558.55L388.529 561.64Z" fill="black"/>
<path d="M445.209 533.58L455.099 533.99L465.809 533.93L468.239 534.03L470.719 534.47L473.239 535.22L475.819 536.31L475.759 536.15L476.129 536.45L477.499 537.83L478.579 539.38L479.219 540.69L479.669 542.11L480.119 544.38L480.359 546.85L480.349 549.31L480.099 551.55L479.639 553.52L478.949 555.36L478.069 556.88L476.949 558.19L474.699 559.85L472.419 560.77L469.329 561.39L466.409 561.94L458.829 562L458.279 562.23L458.049 562.79V573.18L457.819 573.74L457.259 573.97H445.749L445.279 573.77L445.079 573.29L445.209 533.58ZM458.039 543.68L458.189 550.94L458.469 551.66L459.159 552.02L461.929 552.11L464.869 551.67L465.539 551.98L466.149 552L466.699 551.71L467.189 551.11L467.419 550.68L467.809 549.42L467.879 548.01L467.619 546.44L467.039 544.73L466.569 543.91L465.899 543.39L464.779 543.08L462.739 542.87L460.939 542.9L459.369 543.17L458.039 543.68Z" fill="black"/>
<path d="M259.56 534.02L253.29 536L255.49 534.68L257.43 534.13L259.56 534.02Z" fill="#837F7C"/>
<path d="M280.349 539.68L280.079 540.71L280.109 541.69L280.439 542.6L280.209 543.19L279.819 543.58L279.249 543.84L277.559 544.01L270.319 543.93L263.119 544.26L262.399 544.2L261.899 544.4L261.579 544.96L260.889 545.93L260.999 547.12L261.909 548.54L262.699 549.19L263.779 549.67L265.159 549.99L266.839 550.14L270.349 550.7L276.269 552.18L276.919 552.45L280.719 556.6L280.869 556.88L281.289 558.09L281.429 559.43L281.099 560.79L281.039 562.13L281.389 564.04L281.399 564.11L281.319 565.37L280.759 566.7L279.599 568.77L279.189 570.24L279.049 570.46L278.269 571.38L277.259 572.15L273.119 573.63L271.409 573.99L269.939 574.1L250.759 574.15L250.189 574.34L249.689 574.31L249.069 573.88L248.579 572.99L249.269 565.48L249.479 565.35L265.689 565.13L267.259 564.62L268.289 564.06L268.749 563.24L268.799 562.52L268.339 561.82L267.619 561.17L267.569 560.73L266.939 560.31L264.099 559.74L259.799 559.13L258.839 558.89L257.219 558.31L253.709 556.91L252.459 556.15L251.489 555.33L250.239 553.72L249.299 551.72L248.849 549.25L248.739 545.22L248.869 543.45L249.199 541.81L249.729 540.3L250.469 538.92L251.719 537.35L253.289 536L259.559 534.02L279.459 534.21L279.849 534.37L280.029 534.75L280.349 539.68Z" fill="black"/>
<path d="M308.5 533.98L308.73 539.34L308.96 556.56L308.46 573.81L308.11 564.98L307.97 556.15L308.08 545.07L308.5 533.98Z" fill="#837F7C"/>
<path d="M321.11 549.01L321.03 549.33L321.28 549.68L321.79 549.84L331.26 549.95H331.27L331.79 549.73L331.99 549.2L331.63 534.4L344.43 534.1H344.44L344.86 534.27L345.04 534.7V573.14L344.8 573.73L344.21 573.98H332.94L332.28 573.71L332.02 573.05L332.11 559.51L321.53 559.05L321.34 559.14L321.21 559.4L321.34 559.81L321.3 569.25L321.19 573.54L314.27 574.38L312.41 574.02L310.35 574.23H309.12L308.49 573.87L308.46 573.81L308.96 556.56L308.73 539.34L308.5 533.98L320.35 534.05L320.8 534.23L320.99 534.68L321.11 549.01Z" fill="black"/>
<path d="M321.109 549.01L330.329 548.98H330.369L330.929 548.7L331.119 548.1L330.919 544.79L330.939 541.41L331.169 537.94L331.629 534.4L331.989 549.2L331.789 549.73L331.269 549.95H331.259L321.789 549.84L321.279 549.68L321.029 549.33L321.109 549.01Z" fill="#837F7C"/>
<path d="M253.289 536L251.719 537.35L250.469 538.92L249.729 540.3L249.199 541.81L248.869 543.45L248.739 545.22L248.849 549.25L249.299 551.72L250.239 553.72L251.489 555.33L252.459 556.15L253.709 556.91L257.219 558.31L258.839 558.89L259.799 559.13L264.099 559.74L266.939 560.31L267.569 560.73L267.619 561.17L258.679 559.15L255.299 558.11L252.519 556.69L250.449 554.95L249.049 552.87L248.359 550.69L247.939 546.38L248.019 544.35L248.279 542.58L248.699 541.02L249.329 539.58L250.119 538.37L251.109 537.32L252.119 536.59L253.289 536Z" fill="#837F7C"/>
<path d="M416.13 550.101L414.28 543.491L412.84 540.611L410.9 538.201L408.42 536.131L410.52 537.491L412.29 539.151L413.87 541.341L415.03 543.901L415.79 546.821L416.13 550.101Z" fill="#837F7C"/>
<path d="M466.409 561.941L469.329 561.391L472.419 560.771L474.699 559.851L476.949 558.191L478.069 556.881L478.949 555.361L479.639 553.521L480.099 551.551L480.349 549.311L480.359 546.851L480.119 544.381L479.669 542.111L479.219 540.691L478.579 539.381L477.499 537.831L476.129 536.451L477.659 537.481L478.839 538.751L479.459 539.831L480.049 541.301L480.629 543.411L480.939 545.611L480.969 547.911L480.729 550.311L480.069 553.291L479.059 555.841L477.709 557.941L476.029 559.611L474.089 560.791L471.839 561.581L469.279 561.961L466.409 561.941Z" fill="#837F7C"/>
<path d="M280.349 539.68L280.689 540.5L280.739 541.51L280.439 542.6L280.109 541.69L280.079 540.71L280.349 539.68Z" fill="#837F7C"/>
<path d="M392.83 543.281L390.94 544.111L389.55 545.341L388.64 546.971L388.23 549.011L388.07 555.411L388.53 561.641L387.66 558.551L387.15 555.501L387.01 552.501L387.23 549.561L387.5 547.951L388.31 545.701L388.91 544.851L389.64 544.181L391.07 543.501L392.83 543.281Z" fill="#837F7C"/>
<path d="M466.57 543.911L458.04 543.681L459.37 543.171L460.94 542.901L462.74 542.871L464.78 543.081L465.9 543.391L466.57 543.911Z" fill="#837F7C"/>
<path d="M401.86 548.751L401.3 547.331L400.53 546.081L399.02 544.551L397.06 543.371L398.44 543.561L399.98 544.411L401.3 545.961L401.91 547.291L401.94 548.491L401.86 548.751Z" fill="#837F7C"/>
<path d="M263.119 544.261L262.439 544.681L261.579 544.961L261.899 544.401L262.399 544.201L263.119 544.261Z" fill="#837F7C"/>
<path d="M464.869 551.67L465.769 551.35L466.579 550.49L467.059 549.09L467.209 547.17L467.039 544.73L467.619 546.44L467.879 548.01L467.809 549.42L467.419 550.68L467.189 551.11L466.699 551.71L466.149 552L465.539 551.98L464.869 551.67Z" fill="#837F7C"/>
<path d="M261.909 548.541L265.679 549.501L269.789 550.021L270.879 550.151L273.619 550.871L276.269 552.181L270.349 550.701L266.839 550.141L265.159 549.991L263.779 549.671L262.699 549.191L261.909 548.541Z" fill="#837F7C"/>
<path d="M280.72 556.601L276.92 552.451L278.29 553.021L279.37 553.861L280.21 555.071L280.72 556.601Z" fill="#837F7C"/>
<path d="M416.12 557.92L415.919 560.34L415.45 562.6L414.71 564.7L413.719 566.63L412.37 568.51L410.729 570.21L412.279 568.29L413.479 566.49L414.32 564.8L414.81 563.22L416.12 557.92Z" fill="#837F7C"/>
<path d="M332.11 559.511L326.86 560.061L324.1 560.041L321.34 559.811L321.21 559.401L321.34 559.141L321.53 559.051L332.11 559.511Z" fill="#837F7C"/>
<path d="M281.43 559.43L281.82 561.11L281.77 562.56L281.39 564.04L281.04 562.13L281.1 560.79L281.43 559.43Z" fill="#837F7C"/>
<path d="M409.51 571.241L407.72 572.511L405.51 573.581L403.07 574.371L400.28 574.911L397.22 575.191L393.98 575.201L390.59 574.941L387.36 574.411L384.08 573.491L381.26 572.221L378.92 570.591L377.05 568.601L375.87 566.711L375 564.581L374.45 562.221L374.22 559.611L375.03 562.921L376.2 565.821L377.75 568.291L379.66 570.341L381.56 571.741L383.71 572.841L386.12 573.641L388.8 574.151L394.75 574.561L397.61 574.491L400.25 574.221L402.72 573.771L405.14 573.121L407.37 572.291L409.51 571.241Z" fill="#837F7C"/>
<path d="M390.92 563.961L393.11 564.281L395.15 564.301L397.03 564.011L398.76 563.431L399.04 563.291L400.41 562.181L401.46 560.471L401.2 561.791L400.63 562.881L399.66 563.801L398.33 564.461L395.7 565.021L393.23 564.861L390.92 563.961Z" fill="#837F7C"/>
<path d="M268.289 564.06L268.199 562.85L268.339 561.82L268.799 562.52L268.749 563.24L268.289 564.06Z" fill="#837F7C"/>
<path d="M249.27 565.48L248.58 572.99L248.1 570.48L248.09 567.48L248.33 566.36L248.86 565.67L249.27 565.48Z" fill="#837F7C"/>
<path d="M280.759 566.701L280.469 568.171L279.959 569.251L279.189 570.241L279.599 568.771L280.759 566.701Z" fill="#837F7C"/>
<path d="M321.299 569.25L321.969 571.41L321.949 572.27L321.679 572.99L321.189 573.54L321.299 569.25Z" fill="#837F7C"/>
<path d="M277.26 572.15L275.61 573.19L273.87 573.99L271.07 574.78L268.06 575.05L253.08 574.95L252.76 574.93L251.75 574.68L250.76 574.15L269.94 574.1L271.41 573.99L273.12 573.63L277.26 572.15Z" fill="#837F7C"/>
<path d="M314.27 574.38L313.18 574.65L312.1 574.69L310.35 574.23L312.41 574.02L314.27 574.38Z" fill="#837F7C"/>
</svg>
