<svg width="719" height="576" viewBox="0 0 719 576" fill="none" xmlns="http://www.w3.org/2000/svg">
<g clip-path="url(#clip0_777_28749)">
<rect width="719" height="576" fill="white"/>
<path d="M563.938 1L566.078 3.59L567.848 5.14L569.848 6.47L570.038 6.81999L569.908 7.67999L569.078 8.73999L567.758 9.81999L566.598 11.04L564.988 13.45L564.298 14.47L562.308 16.44L557.088 22.39L554.028 25.87L551.768 27.9L550.118 30.18L545.008 35.93L543.668 36.93L542.498 38.09L540.878 40.5L537.558 44.23L535.968 45.54L534.528 46.98L533.218 48.63L532.068 50.42L530.988 51.82L530.498 52.23L524.938 58.45L522.298 61.35L521.318 62L520.358 62.36L519.868 62.34L519.438 62.09L513.198 55.85L512.918 55.42L512.828 54.92L512.938 54.42L513.238 54.01L513.288 53.97L515.698 51.62L517.758 48.79L520.988 45.29L534.178 30.52L538.218 26L539.508 24.96L540.568 23.75L541.478 22.18L546.088 17.05L547.888 15.51L549.498 13.81L551.498 11.02L552.388 9.70999L553.768 8.44L555.788 6.75L557.648 4.90999L560.818 0.929993L561.188 0.470001L561.818 0.0899963L562.288 0L562.758 0.119995L563.938 1Z" fill="black"/>
<path d="M560.82 0.929688L557.65 4.90968L555.789 6.74969L553.77 8.4397L555.58 6.0497L558.049 3.36969L560.82 0.929688Z" fill="#837F7C"/>
<path d="M569.847 6.47L567.847 5.14L566.077 3.59L563.938 1L566.517 2.81L568.287 4.50999L569.847 6.47Z" fill="#837F7C"/>
<path d="M569.078 8.74023L568.098 10.2602L566.678 11.9502L564.988 13.4502L566.598 11.0402L567.758 9.82024L569.078 8.74023Z" fill="#837F7C"/>
<path d="M546.09 17.0495L551.5 11.0195L549.5 13.8095L547.89 15.5095L546.09 17.0495Z" fill="#837F7C"/>
<path d="M541.479 22.1797L540.569 23.7497L539.509 24.9597L538.219 25.9997L538.689 25.2097L539.939 23.5997L541.479 22.1797Z" fill="#837F7C"/>
<path d="M554.027 25.8711L550.117 30.1811L551.767 27.9011L554.027 25.8711Z" fill="#837F7C"/>
<path d="M247.609 37.1614L243.749 34.7014L239.809 32.7714L235.789 31.3714L231.699 30.5114L228.559 30.2114L225.029 30.2514L221.569 30.6814L218.499 31.4114L215.479 32.4814L212.529 33.8614L209.639 35.5814L207.599 37.2514L205.799 38.7314L205.289 38.9014L204.749 38.8114L203.419 37.6414L202.179 36.4914L198.559 34.4214L195.419 32.8614L192.769 31.7914L190.609 31.2214L185.309 30.6414L180.279 30.7314L175.509 31.4714L170.999 32.8814L167.109 34.7414L163.449 37.1414L161.139 39.0314L159.059 41.0614L157.199 43.2414L155.559 45.5514L153.309 49.7614L151.689 54.3714L150.799 58.8314L150.559 62.8514L150.809 66.9314L151.579 71.0714L152.839 75.2814L151.429 71.6914L150.459 68.1314L149.939 64.5814L149.859 61.0414L150.069 58.6114L150.479 56.1914L151.109 53.7814L151.949 51.3714L153.039 48.9114L154.309 46.5614L155.809 44.2514L157.489 42.0714L159.339 40.0414L161.339 38.1614L163.469 36.4514L165.729 34.9114L168.089 33.5714L170.539 32.4114L173.069 31.4514L175.679 30.7014L178.329 30.1614L181.019 29.8514L183.639 29.7614L186.289 29.8914L187.929 30.0914L192.109 31.0114L196.189 32.5414L200.179 34.6814L204.089 37.4214L205.059 37.7514L206.019 37.4014L208.759 35.3414L211.589 33.6014L214.529 32.1714L217.559 31.0714L221.049 30.2114L224.669 29.7514L228.399 29.6914L232.259 30.0214L236.079 30.7914L239.689 32.0614L243.799 34.2514L247.609 37.1614Z" fill="#837F7C"/>
<path d="M247.609 37.1609L252.889 42.2209L253.209 42.9409L253.649 43.2209L254.689 45.1009L256.429 48.0509L257.819 51.151L258.859 54.3609L259.529 57.6609L259.839 61.0609L259.759 64.491L259.309 67.8009L258.479 71.0609L257.219 74.371L255.749 77.3009L254.119 79.9709L252.309 82.371L250.329 84.5009L229.679 104.751L211.099 123.521L209.749 124.741L208.369 125.651L206.959 126.251L205.519 126.541L203.469 126.421L201.379 125.701L199.229 124.371L197.019 122.451L161.209 86.5809L157.049 81.991L153.849 77.621L153.929 76.9509L153.789 76.401L153.019 75.7009L152.839 75.2809L151.579 71.0709L150.809 66.931L150.559 62.8509L150.799 58.8309L151.689 54.371L153.309 49.7609L155.559 45.5509L157.199 43.241L159.059 41.0609L161.139 39.0309L163.449 37.1409L167.109 34.741L170.999 32.8809L175.509 31.4709L180.279 30.7309L185.309 30.6409L190.609 31.2209L192.769 31.7909L195.419 32.8609L198.559 34.4209L202.179 36.491L203.419 37.6409L204.749 38.8109L205.289 38.901L205.799 38.7309L207.599 37.2509L209.639 35.5809L212.529 33.8609L215.479 32.4809L218.499 31.4109L221.569 30.6809L225.029 30.2509L228.559 30.2109L231.699 30.5109L235.789 31.3709L239.809 32.771L243.749 34.7009L247.609 37.1609ZM205.679 112.161L240.569 77.741L243.969 74.0309L246.269 70.6909L247.079 68.9509L247.669 67.0509L248.059 64.9509L248.219 62.771L248.129 60.5809L247.799 58.4209L247.259 56.4509L246.499 54.6009L244.859 51.7009L242.969 49.1709L240.849 47.0309L238.479 45.2609L235.689 43.7909L232.609 42.741L229.259 42.1409L225.639 41.961L221.869 42.371L218.579 43.4809L216.219 44.871L214.099 46.6609L212.149 48.901L210.269 51.7009L209.339 53.0509L208.379 54.0709L207.379 54.7609L206.329 55.1109L204.449 55.211L202.909 54.8609L201.879 54.3009L200.839 53.3809L198.659 50.3809L198.409 49.991L196.499 47.521L194.249 45.461L191.689 43.8509L188.889 42.7309L186.769 42.2509L184.559 42.0509L181.659 42.1409L178.869 42.5509L176.209 43.2609L173.709 44.2609L171.379 45.5409L169.259 47.0909L167.369 48.8909L165.729 50.9409L164.359 53.2309L163.289 55.7509L162.569 58.371L162.179 61.1709L162.209 65.271L162.509 67.1909L162.989 68.9709L164.309 71.9209L166.299 74.8409L169.029 77.931L173.599 82.3909L175.379 84.0909L188.549 96.961L203.669 112.151L204.129 112.461L204.669 112.571L205.219 112.471L205.679 112.161Z" fill="black"/>
<path d="M370.14 32L370.77 36.46L370.98 43L370.91 252.11L370.63 262.85L370.09 269.07L369.29 273.49L367.86 278.1L366.05 282.42L363.86 286.45L361.29 290.18L357.87 294.09L353.96 297.61L349.54 300.75L344.63 303.5L341.42 304.95L338.26 306.09L335.15 306.91L332.09 307.42L337.77 305.79L343.15 303.61L348.2 300.9L352.86 297.68L357.01 294.03L360.67 289.94L363.74 285.52L366.25 280.72L368.21 275.34L369.44 269.8L370.01 264.1L370.2 256.98L370.14 32Z" fill="#837F7C"/>
<path d="M428.988 46.51L428.388 46.64L385.328 46.83L385.008 47.15L385.018 260.5L384.818 267.57L384.168 274.13L383.058 280.18L381.488 285.71L379.718 290.29L377.618 294.59L375.198 298.59L372.468 302.27L369.458 305.62L366.158 308.62L362.588 311.25L358.768 313.49L355.918 314.84L352.958 315.98L349.878 316.9L346.698 317.6L343.438 318.08L340.078 318.33L336.738 318.35L333.308 318.14L329.958 317.71L326.708 317.05L323.548 316.17L320.478 315.06L316.808 313.37L313.278 311.34L309.898 308.96L306.648 306.23L306.998 305.62L314.628 307.23L321.358 307.93L326.528 307.92L332.088 307.42L335.148 306.91L338.258 306.09L341.418 304.95L344.628 303.5L349.538 300.75L353.958 297.61L357.868 294.09L361.288 290.18L363.858 286.45L366.048 282.42L367.858 278.1L369.288 273.49L370.088 269.07L370.628 262.85L370.908 252.11L370.978 43L370.768 36.46L370.138 32L428.448 32.09L428.808 32.24L428.958 32.61L428.988 46.51Z" fill="#07AE9D"/>
<path d="M592.801 36.0712L592.001 35.5512L590.861 35.6712L538.491 57.1512L537.971 57.4512L537.661 57.8512L537.571 58.4112L537.761 59.1012L537.291 58.4912L537.141 57.9312L537.151 57.8512L537.401 57.4212L538.021 57.0512L558.291 48.4312L578.651 40.0312L587.541 36.4912L591.591 35.0312L592.331 34.9512L592.761 35.1312L592.891 35.5012L592.801 36.0712Z" fill="#837F7C"/>
<path d="M592.8 36.0708L593.05 36.1108L595.86 43.6408L595.96 44.2008L595.83 44.7608L595.51 45.2308L595.03 45.5508L542.62 67.1008L542.07 67.2108L541.51 67.1008L541.04 66.7808L540.74 66.3008L540.73 66.2908L539.14 62.1308L537.76 59.1008L537.57 58.4108L537.66 57.8508L537.97 57.4508L538.49 57.1508L590.86 35.6708L592 35.5508L592.8 36.0708Z" fill="black"/>
<path d="M545.009 35.9297L540.879 40.4997L542.499 38.0897L543.669 36.9297L545.009 35.9297Z" fill="#837F7C"/>
<path d="M539.141 62.1313L540.731 66.2913L540.741 66.3013L541.041 66.7813L541.511 67.1013L542.071 67.2113L542.621 67.1013L595.031 45.5513L595.511 45.2313L595.831 44.7613L595.961 44.2013L595.861 43.6413L593.051 36.1113L596.561 44.0613L596.681 44.5713L596.581 45.0913L596.301 45.5313L595.871 45.8313L595.851 45.8413L542.481 67.7913L541.911 67.9013L541.341 67.7713L540.861 67.4313L540.561 66.9313L540.541 66.8613L539.141 62.1313Z" fill="#837F7C"/>
<path d="M205.68 112.161L205.22 112.471L204.67 112.571L204.13 112.461L203.67 112.151L188.55 96.9609L175.38 84.0909L173.6 82.3909L169.03 77.9309L166.3 74.8409L164.31 71.9209L162.99 68.9709L162.51 67.1909L162.21 65.2709L162.18 61.1709L162.57 58.3709L163.29 55.7509L164.36 53.2309L165.73 50.9409L167.37 48.8909L169.26 47.0909L171.38 45.5409L173.71 44.2609L176.21 43.2609L178.87 42.5509L181.66 42.1409L184.56 42.0509L186.77 42.2509L188.89 42.7309L191.69 43.8509L194.25 45.4609L196.5 47.5209L198.41 49.9909L198.66 50.3809L200.84 53.3809L201.88 54.3009L202.91 54.8609L204.45 55.2109L206.33 55.1109L207.38 54.7609L208.38 54.0709L209.34 53.0509L210.27 51.7009L212.15 48.9009L214.1 46.6609L216.22 44.8709L218.58 43.4809L221.87 42.3709L225.64 41.9609L229.26 42.1409L232.61 42.7409L235.69 43.7909L238.48 45.2609L240.85 47.0309L242.97 49.1709L244.86 51.7009L246.5 54.6009L247.26 56.4509L247.8 58.4209L248.13 60.5809L248.22 62.7709L248.06 64.9509L247.67 67.0509L247.08 68.9509L246.27 70.6909L243.97 74.0309L240.57 77.7409L205.68 112.161Z" fill="#FA517A"/>
<path d="M253.651 43.2207L253.211 42.9407L252.891 42.2207L253.651 43.2207Z" fill="#837F7C"/>
<path d="M197.02 122.451L199.23 124.371L201.38 125.701L203.47 126.421L205.52 126.541L206.96 126.251L208.37 125.651L209.75 124.741L211.1 123.521L229.68 104.751L250.33 84.5007L252.31 82.3707L254.12 79.9707L255.75 77.3007L257.22 74.3707L258.48 71.0607L259.31 67.8007L259.76 64.4907L259.84 61.0607L259.53 57.6607L258.86 54.3607L257.82 51.1507L256.43 48.0507L254.69 45.1007L253.65 43.2207L256.21 46.6407L258.22 50.5907L259.58 54.8907L260.26 59.3807V64.1307L259.58 68.8407L258.22 73.3907L256.23 77.6707L253.51 81.5707L249.24 86.4207L234.15 101.281L226.33 109.111L222.43 113.211L216.27 119.471L210.42 124.761L209.28 125.591L207.56 126.441L205.64 126.971L204.86 127.061L203 126.851L201.09 126.031L199.09 124.561L197.02 122.451Z" fill="#837F7C"/>
<path d="M537.56 44.2305L532.07 50.4205L533.22 48.6305L534.53 46.9805L535.97 45.5405L537.56 44.2305Z" fill="#837F7C"/>
<path d="M463.411 93.4805L463.261 93.8605L463.121 94.0505L455.141 88.3905L449.641 84.2505L446.231 81.1805L443.021 77.8805L440.011 74.3405L437.201 70.5605L433.951 65.2305L431.421 59.6305L430.351 56.5005L429.491 53.2905L428.841 50.0005L428.391 46.6405L428.991 46.5105L428.961 46.8105L429.221 47.0105L429.601 46.9305L430.181 46.3405L431.051 45.9805H441.151L441.731 46.0905L442.241 46.4005L442.611 46.8705L442.781 47.4405L442.921 48.7305L443.841 56.3505L444.821 61.4405L446.111 65.7905L447.821 70.3105L449.871 74.7905L452.241 79.2205L454.841 83.3805L457.571 87.1305L460.481 90.5705L463.411 93.4805Z" fill="#FA517A"/>
<path d="M428.39 46.6406L428.84 50.0006L429.49 53.2906L430.35 56.5006L431.42 59.6306L433.95 65.2306L437.2 70.5606L440.01 74.3406L443.02 77.8806L446.23 81.1806L449.64 84.2506L455.14 88.3906L463.12 94.0506L465.2 95.8406L469.04 99.4906L473.05 102.821L477.25 105.841L481.62 108.561L486.88 111.301L492.36 113.631L498.09 115.541L504.05 117.051L504.24 116.981L504.15 159.721L503.95 160.231L503.46 160.471L498.14 160.791L492.81 160.851L487.48 160.631L482.18 160.131L476.97 159.361L471.81 158.311L466.83 157.011L461.94 155.451L457.23 153.641L452.64 151.561L448.27 149.261L444.05 146.711L440.08 143.961L436.29 140.971L432.74 137.791L429.38 134.371L429.28 134.301L429.01 134.331L428.88 134.571L429.13 253.271L429.17 263.201L428.95 271.571L428.49 278.361L427.77 283.591L426.11 290.811L423.94 297.781L421.34 304.341L418.29 310.641L414.76 316.751L410.81 322.581L406.39 328.181L401.59 333.451L396.36 338.441L390.78 343.051L384.88 347.281L378.68 351.111L372.22 354.521L365.51 357.491L358.62 360.001L351.54 362.051L344.4 363.601L337.12 364.671L330.09 365.231L323.14 365.341L316.26 364.981L309.45 364.161L304.51 363.271L299.61 362.131L294.74 360.751L289.92 359.121L285.13 357.241L280.38 355.121L275.67 352.751L271 350.131L267.93 348.091L263.72 344.791L260.99 342.611L256.14 336.921L250.46 329.351L247.67 325.291L245.09 321.171L242.72 316.991L240.56 312.761L238.6 308.471L236.86 304.121L235.32 299.721L233.99 295.251L232.58 289.451L231.52 283.561L230.81 277.571L230.43 271.491L230.48 263.251L231.18 255.151L232.06 249.511L233.23 243.951L234.74 238.401L236.54 232.951L238.65 227.581L241.05 222.331L243.73 217.221L246.67 212.251L249.93 207.371L253.45 202.671L257.22 198.141L261.23 193.791L265.48 189.641L269.95 185.701L274.64 181.971L279.54 178.461L283.87 175.681L288.31 173.131L292.84 170.821L297.47 168.761L301.75 167.091L306.12 165.621L310.56 164.351L315.09 163.271L319.7 162.391L324.39 161.701L329.16 161.211L334.01 160.921L334.15 207.951V207.961L334.01 208.261L333.7 208.381L327.21 208.451L320.85 209.191L314.66 210.571L308.71 212.591L303.1 215.221L297.83 218.451L293.04 222.201L288.67 226.521L285.43 230.521L282.54 234.891L280.33 239.001L278.51 243.161L277.06 247.451L276.02 251.751L275.38 256.101L275.14 260.431L275.31 264.721L275.88 268.951L276.89 273.291L278.34 277.521L280.2 281.631L282.48 285.601L285.15 289.371L288.21 292.951L291.6 296.261L295.36 299.361L298.13 301.241L302.45 303.781L306.65 306.231L309.9 308.961L313.28 311.341L316.81 313.371L320.48 315.061L323.55 316.171L326.71 317.051L329.96 317.711L333.31 318.141L336.74 318.351L340.08 318.331L343.44 318.081L346.7 317.601L349.88 316.901L352.96 315.981L355.92 314.841L358.77 313.491L362.59 311.251L366.16 308.621L369.46 305.621L372.47 302.271L375.2 298.591L377.62 294.591L379.72 290.291L381.49 285.711L383.06 280.181L384.17 274.131L384.82 267.571L385.02 260.501L385.01 47.1506L385.1 46.9206L385.33 46.8306L428.39 46.6406Z" fill="black"/>
<path d="M517.761 48.791L515.701 51.621L513.29 53.971L513.241 54.011L512.941 54.421L512.831 54.921L512.92 55.421L513.201 55.851L519.441 62.091L519.871 62.341L520.36 62.361L521.321 62.001L522.3 61.351L521.771 62.481L521.021 63.031L520.071 62.971L518.98 62.271L515.48 58.971L512.211 55.551L511.98 54.931L512.241 54.311L517.761 48.791Z" fill="#837F7C"/>
<path d="M153.85 77.6212L153.02 75.7012L153.79 76.4012L153.93 76.9512L153.85 77.6212Z" fill="#837F7C"/>
<path d="M472.227 97.5905L472.717 98.1605L473.477 98.6905L475.817 99.6405L488.367 103.29L497.337 105.4L504.147 106.32L504.047 117.05L498.087 115.54L492.357 113.63L486.877 111.3L481.617 108.56L477.247 105.84L473.047 102.82L469.037 99.4905L465.197 95.8405L463.117 94.0505L463.257 93.8605L463.407 93.4805L472.227 97.5905Z" fill="#07AE9D"/>
<path d="M504.151 106.32L497.341 105.4L488.371 103.29L475.821 99.6399L473.48 98.6898L472.72 98.1599L472.23 97.5898L479.491 100.07L486.771 102.28L495.491 104.1L499.941 105.07L504.151 106.32Z" fill="#837F7C"/>
<path d="M116.551 139.95L118.211 137.37L119.411 134.78L120.161 132.18L120.461 129.56L120.411 127.72L120.131 125.87L119.621 124.01L118.901 122.15L117.921 120.26L116.791 118.59L115.501 117.13L114.051 115.88L113.711 115.64L111.171 114.02L108.741 112.78L106.291 111.84L103.731 111.18L101.121 110.84L98.3713 110.8H92.7113L85.8512 110.88L83.3613 111.19L81.1613 111.7L76.8813 113.39L72.7812 115.86L75.6413 113.6L78.5513 111.9L81.5113 110.76L84.5312 110.18L85.2513 110.13L94.9413 109.84L101.481 110.17L103.951 110.6L106.311 111.23L108.561 112.06L110.671 113.1L112.601 114.3L114.371 115.68L115.981 117.25L117.401 118.99L118.721 121.06L119.791 123.33L120.571 125.7L121.101 128.24L120.961 130.64L120.051 134.55L119.391 136.32L118.471 137.91L116.551 139.95Z" fill="#837F7C"/>
<path d="M116.548 139.951L99.3777 157.021L98.5977 157.391L97.9277 158.041L96.3377 158.951L94.7377 159.271L94.3677 159.261L91.6177 159.321L89.9977 158.721L87.6177 156.961L85.1177 154.801L78.3977 148.111L74.8077 144.421L72.1977 141.651L70.1477 139.161L68.6277 136.951L67.6677 135.031L66.9877 132.861L66.6177 130.661L66.5977 127.751L67.1177 124.791L68.1577 121.791L69.7277 118.731L72.7777 115.861L76.8777 113.391L81.1577 111.701L83.3577 111.191L85.8477 110.881L92.7077 110.801H98.3677L101.118 110.841L103.728 111.181L106.288 111.841L108.738 112.781L111.168 114.021L113.708 115.641L114.048 115.881L115.498 117.131L116.788 118.591L117.918 120.261L118.898 122.151L119.618 124.011L120.128 125.871L120.408 127.721L120.458 129.561L120.158 132.181L119.408 134.781L118.208 137.371L116.548 139.951ZM93.3277 145.761L93.7277 145.671L107.378 132.001L108.578 130.361L108.868 129.551L108.948 128.751L108.518 127.231L107.328 125.731L105.678 124.391L104.028 123.471L102.498 122.931L100.718 122.581L95.7077 122.421L93.4577 122.431L91.2077 122.401L86.1877 122.501L84.4077 122.831L82.8677 123.361L81.2077 124.261L79.5477 125.581L78.3377 127.061L77.8877 128.581L77.9677 129.391L78.2477 130.201L79.4277 131.851L92.9377 145.671L93.3277 145.761Z" fill="black"/>
<path d="M646.677 140.341L645.247 136.971L644.047 135.041L637.437 128.261L624.737 115.881L623.927 115.291L622.187 114.451L620.447 113.851L618.697 113.501L616.957 113.381L614.887 113.551L612.817 114.071L611.617 114.681L610.067 115.851L605.937 119.821L599.507 126.301L592.777 132.571L597.177 127.401L603.857 120.531L606.877 117.651L609.237 115.731L611.447 114.361L613.667 113.461L615.917 112.981L618.737 112.871L621.127 113.311L622.857 114.041L624.657 115.191L626.587 116.841L629.277 119.491L630.137 120.351L644.727 135.061L645.837 136.591L646.477 138.341L646.677 140.341Z" fill="#837F7C"/>
<path d="M646.681 140.341L647.161 141.591L647.341 142.841L647.261 143.921L646.951 145.011L644.081 151.491L643.901 151.631L642.331 153.071L640.991 154.801V154.671L640.761 154.851L640.071 155.361L639.721 155.921L628.241 167.521L626.311 169.511L624.301 171.061L622.191 172.181L620.001 172.861L617.811 173.101L615.541 172.951L613.191 172.391L610.761 171.441L593.081 154.351L591.491 153.001L590.351 151.611L589.411 150.011L588.881 148.731L588.171 147.611L587.711 146.321L587.891 141.011L588.041 139.931L588.411 138.911L590.071 135.451L592.781 132.571L599.511 126.301L605.941 119.821L610.071 115.851L611.621 114.681L612.821 114.071L614.891 113.551L616.961 113.381L618.701 113.501L620.451 113.851L622.191 114.451L623.931 115.291L624.741 115.881L637.441 128.261L644.051 135.041L645.251 136.971L646.681 140.341ZM599.221 142.481L598.981 143.061L599.221 143.641L616.851 161.271L616.931 161.341L617.481 161.511L618.011 161.271L635.661 143.621L635.881 142.881L635.661 142.461L618.041 124.831L617.921 124.731L617.381 124.591L616.881 124.831L599.221 142.481Z" fill="black"/>
<path d="M260.051 342.981L260.231 342.781L260.991 342.611L263.721 344.791L267.931 348.091L271.001 350.131L275.671 352.751L280.381 355.121L285.131 357.241L289.921 359.121L294.741 360.751L299.611 362.131L304.511 363.271L309.451 364.161L316.261 364.981L323.141 365.341L330.091 365.231L337.121 364.671L344.401 363.601L351.541 362.051L358.621 360.001L365.511 357.491L372.221 354.521L378.681 351.111L384.881 347.281L390.781 343.051L396.361 338.441L401.591 333.451L406.391 328.181L410.811 322.581L414.761 316.751L418.291 310.641L421.341 304.341L423.941 297.781L426.111 290.811L427.771 283.591L428.491 278.361L428.951 271.571L429.171 263.201L429.131 253.271L428.881 134.571L429.011 134.331L429.281 134.301L429.381 134.371L432.741 137.791L436.291 140.971L440.081 143.961L444.051 146.711L448.271 149.261L452.641 151.561L457.231 153.641L461.941 155.451L466.831 157.011L471.811 158.311L476.971 159.361L482.181 160.131L487.481 160.631L492.811 160.851L498.141 160.791L503.461 160.471L503.951 160.231L504.151 159.721L504.241 116.981L505.151 116.941L507.041 117.161L508.931 117.771L509.591 117.911L518.431 118.001L518.881 118.191L519.061 118.631V172.461L518.901 172.841L518.521 173.001L510.721 173.061L500.021 173.071L492.481 172.641L485.821 171.621L479.621 169.931L473.691 167.701L467.861 165.061L462.101 162.021L456.441 158.571L450.821 154.771L444.421 150.181L444.081 150.291L444.071 150.361L444.101 269.961L444.021 276.491L443.761 282.321L443.301 287.461L442.661 291.911L441.241 298.511L439.391 304.951L437.081 311.311L434.351 317.481L431.171 323.531L427.601 329.361L423.601 335.011L419.241 340.391L414.521 345.491L409.471 350.281L404.121 354.741L398.481 358.861L392.581 362.611L386.431 365.981L380.161 368.911L373.681 371.441L368.221 373.231L362.781 374.721L357.371 375.911L351.991 376.811L346.631 377.411L341.291 377.711L335.981 377.721L330.691 377.441L322.981 376.481L315.321 374.891L307.721 372.661L300.171 369.791L295.601 367.731L291.081 365.441L286.631 362.941L282.251 360.211L277.921 357.261L273.661 354.091L269.461 350.691L265.321 347.071L262.281 344.681L260.051 342.981Z" fill="#FA517A"/>
<path d="M69.7291 118.73L68.1591 121.79L67.1191 124.79L66.5991 127.75L66.6191 130.66L66.9891 132.86L67.6691 135.03L68.6292 136.95L70.1491 139.16L72.1991 141.65L74.8091 144.42L78.3991 148.11L85.1191 154.8L87.6191 156.96L89.9991 158.72L87.9691 157.92L86.2991 156.73L75.7791 146.42L72.4191 142.83L69.7991 139.72L67.9291 137.07L66.7991 134.89L66.0891 132.55L65.7891 130.18L65.9291 127.36L66.6391 124.51L67.9091 121.63L69.7291 118.73Z" fill="#837F7C"/>
<path d="M93.4606 122.43L95.7106 122.42L100.721 122.58L102.501 122.93L104.031 123.47L105.681 124.39L107.331 125.73L108.521 127.23L108.951 128.75L108.871 129.55L108.581 130.36L107.381 132L93.7306 145.67L93.3307 145.76L92.9407 145.67L79.4306 131.85L78.2506 130.2L77.9707 129.39L77.8906 128.58L78.3406 127.06L79.5507 125.58L81.2106 124.26L82.8706 123.36L84.4107 122.83L86.1907 122.5L91.2106 122.4L93.4606 122.43Z" fill="#FA517A"/>
<path d="M599.22 142.48L616.881 124.83L617.461 124.59L618.04 124.83L635.66 142.46L635.901 143.04L635.66 143.62L618.011 161.27L617.431 161.51L616.85 161.27L599.22 143.64L598.98 143.06L599.22 142.48Z" fill="#07AE9D"/>
<path d="M590.069 135.451L588.409 138.911L588.039 139.931L587.889 141.011L587.709 146.321L587.039 143.671L587.079 141.131L587.439 139.651L588.059 138.211L588.939 136.811L590.069 135.451Z" fill="#837F7C"/>
<path d="M646.948 145.01L646.548 147.42L645.648 149.54L644.078 151.49L646.948 145.01Z" fill="#837F7C"/>
<path d="M589.412 150.011L588.692 149.301L588.322 148.531L588.172 147.611L588.882 148.731L589.412 150.011Z" fill="#837F7C"/>
<path d="M317.21 149.111L315.1 149.711L312.73 149.901L312.12 149.951L298.5 152.631L292.05 154.581L285.66 156.951L279.34 159.761L273.08 163.001L269.02 165.371L261.45 170.701L254.53 176.401L248.23 182.491L242.58 188.951L236.92 196.501L231.98 204.091L227.78 211.711L224.31 219.371L221.43 227.341L219.23 235.361L217.72 243.411L216.88 251.511L216.7 257.611L216.9 263.741L217.71 271.821L219.07 279.681L221.01 287.331L223.51 294.771L225.65 299.991L228.09 305.091L230.82 310.091L233.84 314.971L237.15 319.741L240.76 324.411L244.65 328.961L248.84 333.401L245.14 329.981L241.51 326.041L237.94 321.581L234.42 316.611L229.8 309.191L225.93 301.891L222.8 294.701L220.42 287.641L218.83 281.511L217.58 275.341L216.69 269.281L216.16 263.191L216 257.271L216.19 251.341L216.74 245.541L217.67 239.731L219.1 233.331L220.9 227.041L223.54 219.661L226.71 212.451L230.41 205.411L234.64 198.541L237.94 193.881L242.31 188.231L246.55 183.291L251.18 178.571L256.21 174.071L261.64 169.791L267.87 165.481L274.29 161.641L280.89 158.291L287.67 155.401L292.21 153.781L296.83 152.351L301.52 151.141L306.29 150.121L311.68 149.371L317.21 149.111Z" fill="#837F7C"/>
<path d="M334.009 160.921L329.159 161.211L324.389 161.701L319.699 162.391L315.089 163.271L310.559 164.351L306.119 165.621L301.749 167.091L297.469 168.761L292.839 170.821L288.309 173.131L283.869 175.681L279.539 178.461L274.639 181.971L269.949 185.701L265.479 189.641L261.229 193.791L257.219 198.141L253.449 202.671L249.929 207.371L246.669 212.251L243.729 217.221L241.049 222.331L238.649 227.581L236.539 232.951L234.739 238.401L233.229 243.951L232.059 249.511L231.179 255.151L230.479 263.251L230.429 271.491L230.809 277.571L231.519 283.561L232.579 289.451L233.989 295.251L235.319 299.721L236.859 304.121L238.599 308.471L240.559 312.761L242.719 316.991L245.089 321.171L247.669 325.291L250.459 329.351L256.139 336.921L260.989 342.611L260.229 342.781L260.049 342.981L256.919 340.741L253.999 338.391L251.309 335.951L248.839 333.401L244.649 328.961L240.759 324.411L237.149 319.741L233.839 314.971L230.819 310.091L228.089 305.091L225.649 299.991L223.509 294.771L221.009 287.331L219.069 279.681L217.709 271.821L216.899 263.741L216.699 257.611L216.879 251.511L217.719 243.411L219.229 235.361L221.429 227.341L224.309 219.371L227.779 211.711L231.979 204.091L236.919 196.501L242.579 188.951L248.229 182.491L254.529 176.401L261.449 170.701L269.019 165.371L273.079 163.001L279.339 159.761L285.659 156.951L292.049 154.581L298.499 152.631L312.119 149.951L312.729 149.901L315.099 149.711L317.209 149.111L333.389 149.161L333.759 149.321L333.909 149.681L334.009 160.921Z" fill="#07AE9D"/>
<path d="M644.078 151.49L643.388 152.59L642.318 153.79L640.988 154.8L642.328 153.07L643.898 151.63L644.078 151.49Z" fill="#837F7C"/>
<path d="M610.758 171.44L609.728 170.91L608.708 170.1L600.718 162.43L593.078 154.35L610.758 171.44Z" fill="#837F7C"/>
<path d="M640.759 154.85L640.489 155.62L639.719 155.92L640.069 155.36L640.759 154.85Z" fill="#837F7C"/>
<path d="M99.3797 157.02L97.9297 158.04L98.5997 157.39L99.3797 157.02Z" fill="#837F7C"/>
<path d="M94.3672 159.26L93.2872 159.68L92.4672 159.64L91.6172 159.32L94.3672 159.26Z" fill="#837F7C"/>
<path d="M132.74 160.91L204.47 192.26L204.57 192.31L204.98 192.66L205.21 193.14L205.23 193.67L205.03 194.17L203.83 196.4L203.15 198.7L202.32 200.47L201.57 201.61L200.67 202.37L199.98 202.41L161.43 185.62L159.73 184.97L158.04 184.55L157.07 184.23L156.66 183.85L155.55 183.13L154.37 182.63L153 182.35L151.69 181.93L150.49 181.33L149.91 180.95L127.65 171.23L127.09 170.84L126.71 170.27L126.57 169.59L126.7 168.92L129.98 160.57L130.74 160.27L131.46 160.24L132.12 160.45L132.74 160.91Z" fill="black"/>
<path d="M307.001 305.621L306.651 306.231L302.451 303.781L298.131 301.241L295.361 299.361L291.601 296.261L288.211 292.951L285.151 289.371L282.481 285.601L280.201 281.631L278.341 277.521L276.891 273.291L275.881 268.951L275.311 264.721L275.141 260.431L275.381 256.101L276.021 251.751L277.061 247.451L278.511 243.161L280.331 239.001L282.541 234.891L285.431 230.521L288.671 226.521L293.041 222.201L297.831 218.451L303.101 215.221L308.711 212.591L314.661 210.571L320.851 209.191L327.211 208.451L333.701 208.381L334.011 208.261L334.151 207.961V207.951L334.011 160.921L347.571 160.361H347.581L347.931 160.501L348.081 160.851L348.181 219.481L348.561 221.401L348.591 221.581L348.321 222.321L347.571 222.581L342.601 222.221H337.761L332.911 222.581L328.311 223.291L323.881 224.371L319.771 225.761L315.821 227.521L312.251 229.571L308.981 231.851L305.851 234.391L303.011 237.091L300.391 240.001L298.141 242.951L296.161 246.061L294.541 249.211L293.241 252.491L291.621 258.121L290.631 263.631L290.311 268.871L290.641 273.941L291.381 278.311L292.431 282.531L293.781 286.601L295.441 290.541L297.101 293.781L298.981 296.911L301.081 299.941L303.411 302.871L304.101 303.611L305.451 304.721L307.001 305.621Z" fill="#FA517A"/>
<path d="M129.98 160.57L126.7 168.92L126.57 169.59L126.71 170.27L127.09 170.84L127.65 171.23L149.91 180.95L126.98 171.3L126.51 170.98L126.2 170.51L126.09 169.95L126.21 169.4L129.98 160.57Z" fill="#837F7C"/>
<path d="M203.148 198.7L203.828 196.4L205.028 194.17L205.228 193.67L205.208 193.14L204.978 192.66L204.568 192.31L204.468 192.26L132.738 160.91L137.708 162.64L142.598 164.67L159.638 172.23L183.128 182.4L205.698 192.16L206.058 192.54L206.038 193.07L206.028 193.09L203.148 198.7Z" fill="#837F7C"/>
<path d="M628.242 167.52L626.682 169.78L625.462 170.99L624.112 171.99L622.632 172.79L621.082 173.38L619.462 173.74L617.802 173.87L616.132 173.75L614.482 173.39L612.572 172.61L610.762 171.44L613.192 172.39L615.542 172.95L617.812 173.1L620.002 172.86L622.192 172.18L624.302 171.06L626.312 169.51L628.242 167.52Z" fill="#837F7C"/>
<path d="M579.659 175.161L581.689 181.551L581.779 182.241L581.609 182.911L581.209 183.481L580.629 183.871L573.479 186.921L573.169 187.161L572.079 187.431L553.349 194.831L552.189 195.601L550.769 196.101L538.529 201.031L538.039 201.121L537.289 201.031L536.699 200.741L536.179 200.111L535.879 199.181L535.529 197.811L534.909 196.441L534.019 195.151L532.449 191.731L575.339 173.781L577.559 172.991L578.019 172.961L578.429 173.161L579.219 174.091L579.659 175.161Z" fill="black"/>
<path d="M575.339 173.781L532.449 191.731V191.551L532.619 191.051L533.039 190.581L534.589 189.721L557.629 180.581L575.339 173.781Z" fill="#837F7C"/>
<path d="M579.66 175.16L582.741 182.4L582.751 182.95L582.371 183.34H582.36L573.48 186.92L580.631 183.87L581.211 183.48L581.61 182.91L581.78 182.24L581.691 181.55L579.66 175.16Z" fill="#837F7C"/>
<path d="M156.66 183.85L154.74 183.26L153 182.35L154.37 182.63L155.55 183.13L156.66 183.85Z" fill="#837F7C"/>
<path d="M202.319 200.471L201.919 202.071L201.679 202.571L201.249 202.941L200.719 203.101L200.159 203.031L200.059 202.991L158.039 184.551L159.729 184.971L161.429 185.621L199.979 202.411L200.669 202.371L201.569 201.611L202.319 200.471Z" fill="#837F7C"/>
<path d="M111.617 195.65L110.457 195.92L109.317 195.96L107.777 195.62L108.827 195.34L109.877 195.27L111.617 195.65Z" fill="#837F7C"/>
<path d="M550.77 196.1L537.94 202.01L537.049 202.04L536.409 201.42L536.39 201.38L534.02 195.15L534.909 196.44L535.529 197.81L535.88 199.18L536.18 200.11L536.7 200.74L537.289 201.03L538.039 201.12L538.529 201.03L550.77 196.1Z" fill="#837F7C"/>
<path d="M107.78 195.621L109.32 195.961L110.46 195.921L111.62 195.651L113.37 195.641L114.71 196.031L118.22 196.681L121.58 197.511L124.79 198.511L127.85 199.701L130.77 201.061L133.53 202.611L136.15 204.331L138.63 206.221L138.86 206.421L145.51 212.621L148.1 215.951L150.33 219.491L152.28 223.441L153.12 226.601L153.94 228.601L154.97 230.521L155.11 231.681L155.52 232.851L156.08 233.331L156.87 233.081L161.01 233.051L162.23 233.311L163.06 233.071L163.13 233.011L184.07 233.061L186.15 233.481L188.03 234.131L189.7 235.011L191.16 236.111L193.09 238.381L194.48 241.241L194.59 242.201L192.46 264.021L192.47 264.811L192.22 265.261L191.47 268.641L191.33 270.681L191.4 272.751L191.48 274.031L191.14 274.901L189.31 288.811L189.42 289.121L189.49 289.891L189.3 290.721L188.55 294.181L187.66 299.391L187.04 304.651L186.26 311.241L185.17 320.111L184.34 327.641L182.03 346.881L181.4 349.701L180.17 352.091L178.75 353.711L176.94 355.061L174.74 356.141L172.15 356.951H87.0298L86.2298 356.381L85.3698 356.091L85.0598 356.061L83.3298 352.951L82.9298 351.721L82.8398 350.711L83.2498 348.631L84.2098 347.041L85.3398 346.171L86.9298 345.591L88.8698 345.321L91.5598 345.261L169.57 345.341L170.43 345.011L170.86 344.201L177.98 285.841L177.85 285.381L177.42 285.161H177.38L140.87 285.071L104.81 284.641L102.31 284.331L101.4 283.971L100.7 283.481L99.8698 281.761L99.3698 280.261L99.1798 279.001L99.3098 277.961L100.22 275.951L101.4 274.661L102.51 274.051L103.8 273.711L107.85 273.531H109.37L178.78 273.541L179.19 273.381L179.4 272.991L182.76 245.521L182.62 245.061L182.2 244.841H182.16H157.14L156.7 245.021L156.52 245.461L156.48 253.931L156.25 257.351L155.97 258.551L155.59 259.411L154.33 260.901L152.85 261.821L151.06 262.161L149.6 262.091L148.33 261.811L147.25 261.351L146.36 260.681L145.62 259.761L145.09 258.621L144.77 257.261L144.66 255.681L144.7 245.531L144.52 245.071L144.06 244.881H75.3398L74.9198 245.061L74.7398 245.491V257.801L74.6299 258.701L74.2898 259.541L73.7498 260.281L73.0499 260.861L71.8298 261.481L70.5298 261.861L69.1798 262.001L67.8398 261.911L66.5598 261.581L65.3998 261.031L64.4698 260.311L63.7198 259.391L63.1498 258.131L62.9198 256.621L62.8898 251.471L63.0898 245.721V245.701L62.8598 245.101L62.2598 244.851H39.3598L38.9498 245.021L38.7999 245.441V245.471L41.9198 273.011L42.0798 273.311L42.3998 273.431L76.8098 273.461L78.3498 273.571L79.6498 273.891L80.7798 274.471L81.6498 275.241L82.1998 276.051L82.5698 276.971L82.7699 278.081L82.7798 279.271L82.2098 281.801L80.9698 284.331L71.8298 284.781L62.5499 284.991L53.1299 284.981L43.5698 284.731L43.1098 284.911L42.9298 285.361V285.411L49.6299 344.451L49.9198 345.011L50.4998 345.241L62.1898 345.251L64.6299 345.291L66.5499 345.621L68.0398 346.241L69.1698 347.201L69.7198 348.121L70.0499 349.251L70.1498 350.511L70.0398 351.981L69.3398 353.871L67.7198 356.121L66.8298 356.421L66.2598 356.951L48.2798 356.921L42.0598 354.511L39.8799 352.271L37.8498 343.231L37.8098 342.271L37.9598 340.411L37.8498 338.751L36.5499 329.271L35.3198 317.731L33.6898 301.701L32.5199 292.641L32.0598 289.171L31.8598 285.781L31.5798 282.241L30.8998 279.041L30.8398 278.021L30.9798 276.151L30.7398 274.381L29.7898 272.131L29.5898 271.371L29.6498 270.481L29.9598 268.251L29.9198 266.051L29.5598 263.981L28.8799 261.941L28.7798 260.991L29.0199 258.491L28.8298 256.061L28.4498 254.441L27.8598 252.851L27.6599 252.301L27.7098 251.851L27.7898 251.711L27.5898 242.771L27.6098 242.491L28.5199 238.071L30.0499 236.231L31.4998 235.111L35.0098 233.971L37.6898 233.591H60.5898L61.5499 233.651L62.7598 233.701L63.6198 233.471L64.1398 233.111L64.6198 232.311L65.9598 227.801L67.2898 224.061L68.6299 221.091L69.9698 218.891L72.3098 215.521L74.4498 211.981L75.8398 210.461L76.5098 210.231L76.8598 209.831L77.0499 209.221L78.6898 207.501L80.3998 206.261L83.3799 204.231L86.4298 202.391L89.5698 200.751L92.7898 199.311L98.3098 197.371L104.04 195.971L107.78 195.621ZM83.0098 220.271L80.0298 224.801L77.9298 228.231L76.4998 231.851L76.3298 232.441L76.3198 232.891L76.4998 233.311L76.8498 233.611L77.2898 233.721L88.9498 233.891L101.35 233.691L115.2 233.511L137.75 233.531L140.36 233.701L142.1 233.601L143.14 233.011L142.94 232.241L142.69 230.821L142.11 229.941L136.08 220.181L133.54 217.341L130.82 214.851L127.93 212.701L124.86 210.901L121.53 209.421L118.02 208.311L113.04 207.391L108.09 207.231L103.39 207.781L98.7098 209.021L95.5398 210.281L92.5398 211.851L89.9298 213.571L87.4698 215.541L85.1599 217.781L83.0098 220.271Z" fill="black"/>
<path d="M145.511 212.621L138.861 206.421L138.631 206.221L136.151 204.331L133.531 202.611L130.771 201.061L127.851 199.701L124.791 198.511L121.581 197.511L118.221 196.681L114.711 196.031L117.151 196.171L119.711 196.581L122.381 197.261L125.161 198.211L128.461 199.591L131.701 201.171L134.731 202.891L137.501 204.711L140.011 206.631L142.151 208.561L144.041 210.611L145.511 212.621Z" fill="#837F7C"/>
<path d="M104.038 195.971L98.3084 197.371L92.7884 199.311L89.5684 200.751L86.4284 202.391L83.3784 204.231L80.3984 206.261L82.9584 204.121L85.6284 202.221L88.4084 200.571L91.2884 199.171L94.3084 197.991L97.4484 197.071L100.688 196.391L104.038 195.971Z" fill="#837F7C"/>
<path d="M600.799 204.62L596.339 204.22L592.009 204.28L587.829 204.8L583.789 205.78L579.589 207.35L575.549 209.46L571.679 212.09L567.969 215.26L569.759 213.34L571.739 211.57L573.909 209.95L576.269 208.47L579.329 206.89L582.439 205.64L585.589 204.71L588.779 204.1L591.729 203.83L594.719 203.82L597.739 204.09L600.799 204.62Z" fill="#837F7C"/>
<path d="M600.798 204.621L602.398 204.891L602.478 205.051L603.238 205.571L604.608 205.701L604.878 205.861L609.588 208.091L613.938 210.821L617.348 213.501L620.498 216.531L621.298 217.901L622.808 220.381L624.038 222.811L625.008 225.221L625.738 227.631L626.318 230.591L626.578 233.621L626.558 236.851L626.248 240.461L625.788 244.451L624.578 257.111L623.988 263.701L623.598 265.381L622.828 266.751L622.058 267.571L621.158 268.201L620.058 268.681L618.888 268.941L617.698 268.961L616.518 268.751L615.488 268.341L614.548 267.731L613.468 266.551L613.038 265.591L612.808 264.221L612.908 260.271L615.338 237.551L615.478 234.261L615.058 231.141L614.218 228.471L612.998 225.981L611.348 223.641L609.358 221.551L607.068 219.731L604.518 218.231L601.758 217.071L598.818 216.281L595.788 215.961L592.478 215.801L589.288 216.181L586.958 216.811L586.048 217.201L583.958 217.891L581.958 218.931L579.998 220.291L578.028 222.041L576.178 224.071L574.418 226.411L572.908 228.901L571.718 231.371L571.028 233.401L570.508 235.811L570.158 238.601L569.988 241.781L569.538 259.861L569.208 262.961L568.848 264.061L568.378 264.861L567.168 265.991L565.808 266.701L564.268 267.011L562.718 266.891L561.248 266.371L559.948 265.471L558.828 264.071L558.538 263.261L558.358 262.011L558.328 258.211L558.948 236.471L559.408 232.231L560.558 227.931L562.408 223.581L564.948 219.191L565.438 218.611L565.568 218.071V218.041L567.968 215.261L571.678 212.091L575.548 209.461L579.588 207.351L583.788 205.781L587.828 204.801L592.008 204.281L596.338 204.221L600.798 204.621Z" fill="black"/>
<path d="M602.398 204.891L604.608 205.701L603.238 205.571L602.478 205.051L602.398 204.891Z" fill="#837F7C"/>
<path d="M620.499 216.531L617.349 213.501L613.939 210.821L609.589 208.091L604.879 205.861L607.339 206.711L609.689 207.741L611.909 208.931L614.009 210.291L617.449 213.141L620.499 216.531Z" fill="#837F7C"/>
<path d="M136.082 220.18L131.432 215.99L128.832 213.89L126.412 212.31L122.862 210.53L119.282 209.18L115.672 208.26L112.032 207.77H107.482L102.892 208.42L98.2417 209.73L93.5517 211.7L91.3417 213L88.8417 214.86L86.0717 217.28L83.0117 220.27L85.1617 217.78L87.4717 215.54L89.9317 213.57L92.5417 211.85L95.5417 210.28L98.7117 209.02L103.392 207.78L108.092 207.23L113.042 207.39L118.022 208.31L121.532 209.42L124.862 210.9L127.932 212.7L130.822 214.85L133.542 217.34L136.082 220.18Z" fill="#837F7C"/>
<path d="M77.0499 209.221L76.8598 209.831L76.5098 210.231L75.8398 210.461L76.2798 209.731L76.8498 209.291L77.0499 209.221Z" fill="#837F7C"/>
<path d="M74.45 211.98L72.31 215.52L69.97 218.89L68.63 221.09L67.29 224.06L65.96 227.8L64.62 232.31L64.14 233.11L63.62 233.47L62.76 233.7L61.55 233.65L60.59 233.59H37.69L35.01 233.97L31.5 235.11L33.55 233.52L34.37 233.12L35.05 232.99L63.3 232.98L63.69 232.85L63.92 232.5L65.47 227.31L67.56 222.39L70.65 217.01L74.45 211.98Z" fill="#837F7C"/>
<path d="M509.86 215.59L509.85 215.66L509.89 215.92L509.93 215.98L528.52 234.26L528.68 234.02L528.98 234.22L529.76 234.91L530.98 236.47L531.48 238.08L531.29 239.69L530.45 241.35L528.78 243.18L526.41 244.84L524.8 245.44L523.46 245.19L522.19 245.16L520.79 243.25L505.14 227.9L501.09 223.22L503.7 220.83L504.74 220.48L505.31 219.91L505.41 219.09L508.87 215.5L509.33 215.24H509.38L509.46 215.26L509.86 215.59Z" fill="black"/>
<path d="M528.522 234.26L509.932 215.98L509.892 215.92L509.852 215.66L509.862 215.59H510.112L510.132 215.6L528.522 234.26Z" fill="#837F7C"/>
<path d="M595.791 215.961L590.931 216.151L590.411 216.321L589.251 216.861L588.151 216.991L586.961 216.811L589.291 216.181L592.481 215.801L595.791 215.961Z" fill="#837F7C"/>
<path d="M698.637 216.08L696.787 217.82L695.438 219.75L696.147 217.56L696.688 216.83L697.347 216.34L698.637 216.08Z" fill="#837F7C"/>
<path d="M714.732 215.99L716.102 217.15L717.132 218.36L717.822 219.61L718.172 220.91L718.072 222.87L717.262 224.93L716.652 225.79L715.912 226.42L714.842 226.9L713.572 227.06L699.412 227.1L698.532 226.98L697.702 226.66L696.982 226.13L696.412 225.45L695.602 223.79L695.012 221.68L695.442 219.75L696.792 217.82L698.642 216.08L714.732 215.99Z" fill="black"/>
<path d="M621.299 217.901L644.059 217.981L648.159 218.071L652.199 218.391L656.189 218.971L660.109 219.781L666.709 221.741L665.629 223.411L664.909 225.031L664.569 226.591L664.599 228.101L664.959 229.441L665.629 230.741L666.619 231.991L667.929 233.201L668.209 233.591L668.259 234.071L665.839 246.591L663.879 256.541L656.059 300.801L648.489 345.411L648.159 345.681L635.849 345.671L633.799 346.031L632.089 347.051L631.349 347.881L630.819 348.861L630.489 349.931L630.359 351.061L630.429 352.221L630.709 353.381L631.189 354.501L631.879 355.541L632.019 355.711L630.989 356.531L630.609 356.861L630.119 356.981H617.659L617.279 356.871L617.029 356.561L616.929 356.311L616.659 356.161L616.369 356.261L616.349 356.291L616.059 356.561L614.909 357.021L613.329 356.941L615.649 355.801L616.499 355.041L617.139 354.171L617.779 352.251L617.709 349.921L617.069 347.891L615.939 346.491L614.549 345.781L612.799 345.551L512.529 345.661H512.469L512.009 345.401L511.879 344.891L526.189 265.061L526.509 262.741L526.499 260.871L526.129 259.311L525.419 258.141L524.899 257.401L524.849 256.841L524.979 256.701L525.529 255.911L525.919 254.991L526.239 252.731L526.339 251.091L526.639 249.501L526.679 249.341L527.029 247.751L527.119 246.521L526.929 245.531L526.509 244.921L526.409 244.841L528.779 243.181L530.449 241.351L531.289 239.691L531.479 238.081L530.979 236.471L529.759 234.911L529.969 232.611L530.419 230.451L531.129 228.441L532.069 226.581L533.969 224.051L536.419 221.861L538.759 220.491L541.059 219.841L546.559 219.311L552.379 219.031L558.509 218.991L564.949 219.191L562.409 223.581L560.559 227.931L559.409 232.231L558.949 236.471L558.329 258.211L558.359 262.011L558.539 263.261L558.829 264.071L559.949 265.471L561.249 266.371L562.719 266.891L564.269 267.011L565.809 266.701L567.169 265.991L568.379 264.861L568.849 264.061L569.209 262.961L569.539 259.861L569.989 241.781L570.159 238.601L570.509 235.811L571.029 233.401L571.719 231.371L572.909 228.901L574.419 226.411L576.179 224.071L578.029 222.041L579.999 220.291L581.959 218.931L583.959 217.891L586.049 217.201L586.099 217.391L586.329 217.761L586.779 217.951L600.869 217.821L600.919 217.771V217.521L600.669 217.261L599.949 217.141L599.359 216.851L598.819 216.281L601.759 217.071L604.519 218.231L607.069 219.731L609.359 221.551L611.349 223.641L612.999 225.981L614.219 228.471L615.059 231.141L615.479 234.261L615.339 237.551L612.909 260.271L612.809 264.221L613.039 265.591L613.469 266.551L614.549 267.731L615.489 268.341L616.519 268.751L617.699 268.961L618.889 268.941L620.059 268.681L621.159 268.201L622.059 267.571L622.829 266.751L623.599 265.381L623.989 263.701L624.579 257.111L625.789 244.451L626.249 240.461L626.559 236.851L626.579 233.621L626.319 230.591L625.739 227.631L625.009 225.221L624.039 222.811L622.809 220.381L621.299 217.901Z" fill="#FCB105"/>
<path d="M695.012 221.68L695.602 223.79L696.412 225.45L696.982 226.13L697.702 226.66L698.532 226.98L699.412 227.1L713.572 227.06L714.842 226.9L715.912 226.42L716.652 225.79L717.262 224.93L718.072 222.87L718.172 220.91L717.822 219.61L717.132 218.36L716.102 217.15L714.732 215.99L716.162 216.79L717.302 217.69L718.152 218.69L718.712 219.8L718.972 220.91L718.992 222.11L718.762 223.4L718.292 224.77L717.722 225.59L716.582 226.55L715.452 227.26L714.332 227.71L713.222 227.9L706.702 228.09L699.672 227.91L698.662 227.68L696.992 226.71L695.832 225.42L695.142 223.72L695.012 221.68Z" fill="#837F7C"/>
<path d="M565.571 218.041V218.071L565.441 218.611L564.951 219.191L558.511 218.991L552.381 219.031L546.561 219.311L541.061 219.841L538.761 220.491L536.421 221.861L533.971 224.051L532.071 226.581L531.131 228.441L530.421 230.451L529.971 232.611L529.761 234.911L528.981 234.221L528.801 233.461L529.591 229.641L530.241 227.881L531.081 226.221L532.221 224.491L533.571 222.881L535.151 221.401L536.941 220.051L538.271 219.411L540.241 218.891L546.061 218.161L553.531 217.951L565.571 218.041Z" fill="#FA517A"/>
<path d="M505.409 219.09L505.309 219.91L504.739 220.48L503.699 220.83L505.409 219.09Z" fill="#837F7C"/>
<path d="M676.519 221.58L669.539 221.61L671.029 221.2L672.529 221.01L674.519 221.1L676.519 221.58Z" fill="#FA517A"/>
<path d="M669.539 221.61L676.519 221.58L677.759 221.95L678.969 222.55L680.139 223.39L681.289 224.48L681.509 226.69L681.229 228.75L680.169 231.1L678.349 233.24L678.169 233.5L678.159 233.89L678.369 234.37L678.489 234.25L678.519 234.66L678.259 235.13L678.229 235.65L693.809 334.64L695.439 347.01L695.469 348.17L695.029 350.33L693.939 352.45L692.209 354.54L689.819 356.6L634.499 356.85L632.899 355.9L632.619 355.95L632.019 355.71L631.879 355.54L631.189 354.5L630.709 353.38L630.429 352.22L630.359 351.06L630.489 349.93L630.819 348.86L631.349 347.88L632.089 347.05L633.799 346.03L635.849 345.67L648.159 345.68L648.489 345.41L656.059 300.8L663.879 256.54L665.839 246.59L668.259 234.07L668.209 233.59L667.929 233.2L666.619 231.99L665.629 230.74L664.959 229.44L664.599 228.1L664.569 226.59L664.909 225.03L665.629 223.41L666.709 221.74L669.539 221.61ZM671.819 345.68L683.469 345.8L683.829 345.65L683.949 345.29V345.25L672.769 273.2L672.619 272.88H672.599H672.589L672.439 273.2L659.709 344.99L659.699 345.03L659.819 345.4L660.179 345.55L671.819 345.68Z" fill="black"/>
<path d="M501.09 223.221L505.14 227.901L503.46 226.841L502.22 225.731L501.44 224.581L501.1 223.401L501.09 223.221Z" fill="#837F7C"/>
<path d="M152.277 223.441L154.017 227.161L154.967 230.521L153.937 228.601L153.117 226.601L152.277 223.441Z" fill="#837F7C"/>
<path d="M678.37 234.37L678.16 233.89L678.17 233.5L678.35 233.24L680.17 231.1L681.23 228.75L681.51 226.69L681.29 224.48L681.86 225.9L682.09 227.34L681.9 229.07L681.22 230.82L680.04 232.58L678.37 234.37Z" fill="#837F7C"/>
<path d="M80.0303 224.801L77.0903 231.971L77.0503 232.111L77.2003 232.731L77.7803 233.001L143.14 233.011L142.1 233.601L140.36 233.701L137.75 233.531L115.2 233.511L101.35 233.691L88.9503 233.891L77.2903 233.721L76.8503 233.611L76.5003 233.311L76.3203 232.891L76.3303 232.441L76.5003 231.851L77.9303 228.231L80.0303 224.801Z" fill="#837F7C"/>
<path d="M142.941 232.241L142.381 231.841L142.051 231.051L142.111 229.941L142.691 230.821L142.941 232.241Z" fill="#837F7C"/>
<path d="M156.869 233.08L156.079 233.33L155.519 232.85L155.109 231.68L156.869 233.08Z" fill="#837F7C"/>
<path d="M163.132 233.01L163.062 233.07L162.232 233.31L161.012 233.05L163.132 233.01Z" fill="#837F7C"/>
<path d="M192.46 264.021L194.59 242.201L194.48 241.241L193.09 238.381L191.16 236.111L189.7 235.011L188.03 234.131L186.15 233.481L184.07 233.061H185.28L187 233.361L188.69 234.011L190.35 235.001L191.99 236.341L193.78 238.361L194.77 240.381L195.04 242.461L194.76 245.371L194.43 248.191L194.24 250.471L193.5 257.261L192.46 264.021Z" fill="#837F7C"/>
<path d="M528.8 233.461L528.98 234.221L528.68 234.021L528.89 233.491L528.8 233.461Z" fill="#837F7C"/>
<path d="M678.521 234.66L678.751 234.89L679.001 235.42L679.641 241.11L695.16 340.58L695.951 346.73L696.04 348.65L695.92 349.82L695.141 351.68L693.86 353.43L692.091 355.07L689.821 356.6L692.211 354.54L693.941 352.45L695.03 350.33L695.47 348.17L695.441 347.01L693.811 334.64L678.23 235.65L678.261 235.13L678.521 234.66Z" fill="#837F7C"/>
<path d="M28.5214 238.07L27.6114 242.49L27.5913 242.77L27.7913 251.71L27.0613 247.84L26.9414 244.28L27.4313 241.02L28.5214 238.07Z" fill="#837F7C"/>
<path d="M100.701 283.48L96.4708 282.82L92.3308 282.59L88.2908 282.79L84.3408 283.43L80.9708 284.33L82.2108 281.8L82.7808 279.27L82.7708 278.08L82.5708 276.97L82.2008 276.05L81.6508 275.24L80.7808 274.47L79.6508 273.89L78.3508 273.57L76.8108 273.46L42.4008 273.43L42.0808 273.31L41.9208 273.01L38.8008 245.47V245.44L38.9508 245.02L39.3608 244.85H62.2608L62.8608 245.1L63.0908 245.7V245.72L62.8908 251.47L62.9208 256.62L63.1508 258.13L63.7208 259.39L64.4708 260.31L65.4008 261.03L66.5608 261.58L67.8408 261.91L69.1808 262L70.5308 261.86L71.8308 261.48L73.0508 260.86L73.7508 260.28L74.2908 259.54L74.6308 258.7L74.7408 257.8V245.49L74.9208 245.06L75.3408 244.88H144.061L144.521 245.07L144.701 245.53L144.661 255.68L144.771 257.26L145.091 258.62L145.621 259.76L146.361 260.68L147.251 261.35L148.331 261.81L149.601 262.09L151.061 262.16L152.851 261.82L154.331 260.9L155.591 259.41L155.971 258.55L156.251 257.35L156.481 253.93L156.521 245.46L156.701 245.02L157.141 244.84H182.161H182.201L182.621 245.06L182.761 245.52L179.401 272.99L179.191 273.38L178.781 273.54L109.371 273.53H107.851L103.801 273.71L102.511 274.05L101.401 274.66L100.221 275.95L99.3108 277.96L99.1808 279L99.3708 280.26L99.8708 281.76L100.701 283.48Z" fill="#FCB105"/>
<path d="M524.797 245.44L523.967 245.91L523.217 245.96L522.677 245.7L522.188 245.16L523.457 245.19L524.797 245.44Z" fill="#FA517A"/>
<path d="M29.6494 270.48L27.8594 252.85L28.4494 254.44L28.8294 256.06L29.0194 258.49L28.7794 260.99L28.8794 261.94L29.5594 263.98L29.9194 266.05L29.9594 268.25L29.6494 270.48Z" fill="#837F7C"/>
<path d="M524.247 256.461L521.307 256.491L519.497 256.571L518.127 257.121L517.217 257.951L516.537 259.061L515.987 260.561L515.527 262.551L507.557 305.451L499.947 348.101L500.037 349.241L501.087 352.261L499.957 350.881L499.407 349.401L499.367 348.221L501.427 336.541L503.487 324.871L507.077 304.481L515.217 260.921L515.577 259.511L516.097 258.321L516.767 257.361L517.597 256.631L518.887 256.031L520.417 255.801L522.207 255.951L524.247 256.461Z" fill="#837F7C"/>
<path d="M524.249 256.461L524.189 256.521L524.849 256.841L524.899 257.401L525.419 258.141L526.129 259.311L526.499 260.871L526.509 262.741L526.189 265.061L511.879 344.891L512.009 345.401L512.469 345.661H512.529L612.799 345.551L614.549 345.781L615.939 346.491L617.069 347.891L617.709 349.921L617.779 352.251L617.139 354.171L616.499 355.041L615.649 355.801L613.329 356.941H509.369L506.849 356.651L504.649 355.801L502.699 354.331L501.089 352.261L500.039 349.241L499.949 348.101L507.559 305.451L515.529 262.551L515.989 260.561L516.539 259.061L517.219 257.951L518.129 257.121L519.499 256.571L521.309 256.491L524.249 256.461Z" fill="black"/>
<path d="M192.218 265.26L191.398 272.75L191.328 270.68L191.468 268.64L192.218 265.26Z" fill="#837F7C"/>
<path d="M39.8792 352.271L39.1091 350.311L38.4391 347.921L37.4191 341.861L33.4791 307.071L29.7891 272.131L30.7391 274.381L30.9791 276.151L30.8391 278.021L30.8991 279.041L31.5791 282.241L31.8591 285.781L32.0591 289.171L32.5192 292.641L33.6891 301.701L35.3191 317.731L36.5491 329.271L37.8491 338.751L37.9591 340.411L37.8091 342.271L37.8491 343.231L39.8792 352.271Z" fill="#837F7C"/>
<path d="M672.599 272.881H672.619L672.769 273.201L683.949 345.251V345.291L683.829 345.651L683.469 345.801L671.819 345.681L660.179 345.551L659.819 345.401L659.699 345.031L659.709 344.991L672.439 273.201L672.589 272.881H672.599Z" fill="#FCB105"/>
<path d="M100.7 283.48L101.4 283.97L102.31 284.33L104.81 284.64L140.87 285.07L177.38 285.16H177.42L177.85 285.38L177.98 285.84L170.86 344.2L170.43 345.01L169.57 345.34L91.5597 345.26L88.8697 345.32L86.9297 345.59L85.3397 346.17L84.2097 347.04L83.2497 348.63L82.8397 350.71L82.9297 351.72L83.3297 352.95L85.0597 356.06L67.7197 356.12L69.3397 353.87L70.0397 351.98L70.1497 350.51L70.0497 349.25L69.7197 348.12L69.1697 347.2L68.0397 346.24L66.5497 345.62L64.6297 345.29L62.1897 345.25L50.4997 345.24L49.9197 345.01L49.6297 344.45L42.9297 285.41V285.36L43.1097 284.91L43.5697 284.73L53.1297 284.98L62.5497 284.99L71.8297 284.78L80.9697 284.33L84.3397 283.43L88.2897 282.79L92.3297 282.59L96.4697 282.82L100.7 283.48Z" fill="#07AE9D"/>
<path d="M189.298 290.721L182.738 347.181L182.518 348.081L181.458 350.471L180.178 352.481L178.678 354.131L176.958 355.411L174.698 356.431L172.148 356.951L174.738 356.141L176.938 355.061L178.748 353.711L180.168 352.091L181.398 349.701L182.028 346.881L184.338 327.641L185.168 320.111L186.258 311.241L187.038 304.651L187.658 299.391L188.548 294.181L189.298 290.721Z" fill="#837F7C"/>
<path d="M18.0502 337L6.66016 336.71L9.41016 336.11L12.1602 335.93L15.1102 336.22L18.0502 337Z" fill="#837F7C"/>
<path d="M6.66 336.711L18.05 337.001L18.6 337.411L19.87 338.641L20.75 339.991L21.27 341.491L21.38 343.011L20.96 344.831L19.95 346.491L18.48 347.811L16.54 348.771L3.50999 348.831L3.11 348.451L2.14999 347.731L1.05 347.161L0.330002 345.201L0 343.211L0.0200043 341.671L0.259995 340.121L3.23 337.221L5.12 336.701L6.66 336.711Z" fill="black"/>
<path d="M3.23172 337.221L0.261719 340.121L0.601715 338.921L1.24171 338.031L2.11172 337.491L3.23172 337.221Z" fill="#837F7C"/>
<path d="M16.5391 348.77L18.4791 347.81L19.9491 346.49L20.9591 344.83L21.3792 343.01L21.2692 341.49L20.7491 339.99L19.8691 338.64L18.5991 337.41L20.4791 338.7L21.2091 339.57L21.7391 340.53L22.1292 341.91L22.1591 343.33L21.8491 344.72L21.2091 346.01L20.3491 347.04L19.2391 347.88L17.9891 348.45L16.5391 348.77Z" fill="#837F7C"/>
<path d="M3.51078 348.83L2.48078 348.73L1.68077 348.17L1.05078 347.16L2.15078 347.73L3.11078 348.45L3.51078 348.83Z" fill="#837F7C"/>
<path d="M48.2786 356.92L46.3586 356.84L44.6286 356.34L43.2786 355.58L42.0586 354.51L48.2786 356.92Z" fill="#837F7C"/>
<path d="M634.498 356.85L633.778 356.97L633.268 356.8L633.008 356.45L632.898 355.9L634.498 356.85Z" fill="#837F7C"/>
<path d="M67.7217 356.121L85.0617 356.061L85.3717 356.091L86.2317 356.381L87.0317 356.951H66.2617L66.8317 356.421L67.7217 356.121Z" fill="#837F7C"/>
<path d="M222.241 392.131L228.331 394.811L230.741 396.821L232.741 399.231L234.031 402.341L234.811 405.371L235.091 408.311L234.871 411.171L234.221 413.721L232.741 416.981L230.731 419.761L229.361 421.101L227.821 422.291L226.101 423.331L224.221 424.211L220.871 425.181L217.951 425.411L214.941 425.111L211.841 424.291L208.641 422.931L205.931 420.741L203.721 418.071L202.401 414.991L201.591 412.001L201.301 409.101L201.521 406.291L201.671 405.511L202.331 403.181L203.221 401.061L204.331 399.141L205.681 397.421L207.721 395.521L210.131 393.951L212.911 392.721L216.061 391.821L219.161 391.701L222.241 392.131Z" fill="black"/>
<path d="M216.058 391.82L212.908 392.72L210.128 393.95L207.718 395.52L205.678 397.42L204.328 399.14L203.218 401.06L202.328 403.18L201.668 405.51L201.518 406.29L201.298 409.1L201.588 412L202.398 414.99L203.718 418.07L202.388 415.68L201.458 413.12L200.958 410.44L200.898 407.73L201.418 404.47L202.568 401.38L203.618 399.52L204.908 397.81L206.388 396.27L208.068 394.92L209.898 393.78L211.868 392.88L213.928 392.22L216.058 391.82Z" fill="#837F7C"/>
<path d="M228.328 394.811L222.238 392.131L225.418 393.181L228.328 394.811Z" fill="#837F7C"/>
<path d="M232.741 399.23L234.001 401.37L234.931 403.67L235.501 406.08L235.721 408.54L235.691 409.88L235.351 412.28L234.671 414.62L233.661 416.83L232.341 418.88L230.731 420.73L228.871 422.33L226.801 423.66L224.551 424.69L222.571 425.3L220.531 425.68L218.461 425.81L216.381 425.71L214.331 425.36L212.341 424.77L210.431 423.96L208.641 422.93L211.841 424.29L214.941 425.11L217.951 425.41L220.871 425.18L224.221 424.21L226.101 423.33L227.821 422.29L229.361 421.1L230.731 419.76L232.741 416.98L234.221 413.72L234.871 411.17L235.091 408.31L234.811 405.37L234.031 402.34L232.741 399.23Z" fill="#837F7C"/>
<path d="M180.6 428.87L185.77 428.86L188.55 428.61L189.86 428.12L190.78 427.32L191.29 426.29L191.45 424.98V404.73L191.3 402.66L190.69 401.44L189.67 400.88L188.06 400.72L153.33 401.02L108 400.7L109.05 400.17L110.08 400L188.73 400.04L189.56 400.15L190.33 400.49L190.98 401.02L191.46 401.7L191.85 403.06L191.99 405.23L191.98 425.2L191.79 426.6L191.25 427.59L190.65 428.1L189.9 428.45L187.72 428.8L180.6 428.87Z" fill="#837F7C"/>
<path d="M273.65 400.5L260.57 400.66L263.57 400.22L266.58 400.01L270.11 400.09L273.65 400.5Z" fill="#837F7C"/>
<path d="M428.45 428.78L429.64 427.44L430.38 425.95L430.67 423.98L430.38 403.75L430.17 402.34L429.55 401.35L428.61 400.81L427.31 400.64L388.96 400.87L350.57 400.35L387.45 399.92L424.31 400.04L427.04 400.27L429.53 400.89L430.53 401.62L430.93 402.8L431.06 413.89L430.91 424.66L430.56 426.73L430.16 427.51L429.62 428.13L428.45 428.78Z" fill="#837F7C"/>
<path d="M588.689 428.301L583.519 434.071L580.289 437.971L566.069 456.861L565.889 457.011L565.389 456.991L565.149 456.551V403.181L564.999 402.401L564.569 401.741L563.929 401.291L563.159 401.111L551.539 400.681L555.579 400.101L559.589 400.051L564.249 400.681L564.659 400.881L564.939 401.251L565.249 402.071L565.859 404.451L566.059 406.981L566.089 454.171L566.169 454.491L566.739 454.851L567.339 454.551L575.599 442.961L584.189 432.111L586.189 430.111L588.689 428.301Z" fill="#837F7C"/>
<path d="M108 400.701L153.33 401.021L188.06 400.721L189.67 400.881L190.69 401.441L191.3 402.661L191.45 404.731V424.981L191.29 426.291L190.78 427.321L189.86 428.121L188.55 428.611L185.77 428.861L180.6 428.871L166.14 428.911L165.6 429.031L165.23 429.211L165.47 428.991L165.27 428.681L165.15 428.611L164.66 428.641L164.39 429.041L164.24 431.561L164.45 434.221L164.34 449.971L164.13 511.601L135.25 511.961L134.42 511.811L133.72 511.351L133.24 510.651L133.07 509.821V509.811L133.04 430.071L133.08 429.211L132.82 428.701L132.68 428.611L131.93 428.381L131.03 428.471L130.09 428.921L106.06 428.931L105.92 428.481L105.52 427.911L104.86 427.451L104.5 427.361L104.9 416.391L104.66 404.231L104.72 403.351L105.19 402.111L106.12 400.961L107.14 400.721L108 400.701Z" fill="black"/>
<path d="M260.567 400.66L273.647 400.5L273.557 400.58L274.007 400.75L274.737 400.78L275.277 400.64L277.517 401.13L278.337 403.39L278.377 403.64L278.257 456.89L278.267 456.97L278.467 457.24L278.807 457.25L279.087 457.08L279.457 456.64L279.697 456.01L279.927 455.62L281.807 453.66L282.917 451.51L283.107 451.09L283.637 450.8L286.017 448.25L288.157 445.53L290.307 442.18L291.057 441.51L292.557 439.78L293.767 437.77L294.077 437.12L294.457 436.84L294.607 436.83L302.377 427.93L311.747 427.6L319.937 427.93L325.377 427.84L330.817 427.52H331.007L331.167 427.69L331.617 427.79L332.267 427.6L333.007 427.64L333.537 427.75L334.037 427.68L334.947 427.78L335.697 428.1L335.737 428.13L336.007 428.49L335.997 428.93L334.957 430.82L333.927 431.89L329.567 437.17L318.577 449.91L318.017 450.81L316.307 452.52L311.037 458.65L310.967 458.88L310.567 459.25L305.677 464.61L305.327 465.17L305.197 465.81L305.297 466.47L305.617 467.04L339.077 507.66L339.737 508.06L340.337 508.75L341.337 510.94L336.977 511.84L308.057 511.93L306.277 511.72L304.737 511.11L303.337 510.01L302.207 508.45L300.207 505.17L297.887 502.49L297.107 501.03L296.187 499.8L295.087 498.68L294.587 498.35L293.857 497.32L285.777 486.47L284.977 485.61L284.347 484.53L284.037 483.66L283.587 483.25L283.277 483.22L281.607 480.8L281.137 479.57L280.567 479.11L280.167 479.19L279.917 478.35L279.547 478.13L279.167 478.34L279.107 478.55L279.077 508.98L278.867 510.49L278.227 511.45L277.587 511.79L276.767 511.91L258.617 511.97L248.937 511.83L248.317 511.69L247.777 511.35L247.377 510.85L247.177 510.25L246.907 506.93L246.867 441.98L247.267 402.4L247.587 401.63L248.347 401.29L260.567 400.66Z" fill="black"/>
<path d="M275.282 400.641L274.742 400.781L274.012 400.751L274.232 400.441L274.662 400.391L275.282 400.641Z" fill="#FA517A"/>
<path d="M346.057 400.6L346.207 400.81L346.537 400.84L347.037 400.62L348.967 400.75L350.567 400.35L388.957 400.87L427.307 400.64L428.607 400.81L429.547 401.35L430.167 402.34L430.377 403.75L430.667 423.98L430.377 425.95L429.637 427.44L428.447 428.78L403.557 428.96L403.157 429.13L402.997 429.52L403.087 508.75L402.877 510.3L402.207 511.35L401.307 511.84L400.097 511.99L380.567 511.95L376.257 511.85L372.747 511.47L372.277 511.29L371.927 510.93L371.527 509.63L371.857 509.17L371.957 508.78V429.27L371.797 428.94L371.447 428.85L371.357 428.88L371.087 429.01L345.087 428.92L343.057 426.66L343.117 420.35L343.167 413.41L342.877 408.5L342.777 406.33L343.107 403.07L343.727 401.7L344.647 401.01L346.057 400.6Z" fill="black"/>
<path d="M347.039 400.621L346.539 400.841L346.209 400.811L346.059 400.601L346.569 400.471L347.039 400.621Z" fill="#837F7C"/>
<path d="M551.54 400.68L563.16 401.11L563.93 401.29L564.57 401.74L565 402.4L565.15 403.18V456.55L565.39 456.99L565.89 457.01L566.07 456.86L580.29 437.97L583.52 434.07L588.69 428.3L598.77 427.6L619.58 427.65L619.89 427.53L621.36 427.89L622.44 428.63L622.9 429.24L619.29 433.51L617.26 435.38L615.94 436.96L614.78 438.7L612.47 441.45L610.87 442.86L609.47 444.43L607.66 447.26L607.55 447.28L606.54 447.96L592.45 464.39L592.05 465.07L591.91 465.84L592.05 466.62L592.44 467.3L603.41 480.65L615.27 495.51L619.28 500.34L623.51 504.94L627.35 509.58L627.77 510.18L627.7 510.27L627.52 511.29L625.94 511.73L624.18 511.88L594.31 511.8L591.57 511.81L581.88 499.42L568.36 481.23L567.54 479.83L566.58 478.9L566.47 478.14L566.17 477.54L565.8 477.19L565.66 477.12L565.23 477.19L565.03 477.59L565.17 505.72L565.19 506.96L565.14 509.18L564.69 510.74L563.85 511.93L536.19 511.91L535.39 511.75L534.7 511.29L534.25 510.61L534.09 509.81L534.07 401.97L534.59 401.72L534.85 401.38L534.86 401.01L551.54 400.68Z" fill="black"/>
<path d="M106.12 400.961L105.19 402.111L104.72 403.351L104.661 404.231L104.9 416.391L104.5 427.361L103.98 414.581L104.09 403.281L104.291 402.201L104.791 401.461L105.37 401.111L106.12 400.961Z" fill="#837F7C"/>
<path d="M279.7 456.011L279.46 456.641L279.09 457.081L278.81 457.251L278.47 457.241L278.27 456.971L278.26 456.891L278.38 403.641L278.34 403.391L277.52 401.131L278.08 401.311L278.52 401.711L278.83 402.331L279.08 404.231V455.421L279.21 455.841L279.7 456.011Z" fill="#837F7C"/>
<path d="M534.86 401.01L534.85 401.38L534.59 401.72L534.07 401.97L534.18 401.35L534.33 401.14L534.45 401.07L534.86 401.01Z" fill="#837F7C"/>
<path d="M515.389 497.14L519.029 491.3L521.839 485.41L522.919 482.44L523.789 479.46L524.459 476.47L524.909 473.46L525.159 470.34L525.059 464.61L524.229 458.84L522.669 453.03L520.389 447.2L518.219 443.03L515.609 439.19L512.489 435.6L508.919 432.37L504.739 429.26L500.599 426.67L496.499 424.63L492.439 423.11L488.139 421.97L483.849 421.2L479.569 420.82L475.319 420.8L469.199 421.45L463.119 422.87L457.079 425.08L451.059 428.07L455.059 425.68L459.279 423.68L463.669 422.1L468.189 420.96L472.729 420.26L477.319 420L480.539 420.08L483.739 420.37L486.919 420.88L490.049 421.6L493.129 422.53L496.139 423.66L499.069 424.99L501.899 426.51L504.619 428.22L507.219 430.1L509.679 432.16L512.009 434.37L514.179 436.74L516.179 439.25L518.009 441.88L519.659 444.63L521.099 447.44L522.339 450.33L523.769 454.54L524.799 458.87L525.419 463.28L525.619 467.72L525.409 472.1L524.799 476.44L524.009 479.95L522.519 484.55L520.579 488.98L518.189 493.19L515.389 497.14Z" fill="#837F7C"/>
<path d="M515.39 497.141L512.23 500.761L508.72 504.051L501.94 508.051L497.5 510.421L492.88 512.271L487.7 513.671L482.31 514.461L478.32 514.661L474.4 514.561L470.55 514.151L466.77 513.441L463.36 512.521L460 511.341L456.7 509.901L453.46 508.201L446.77 504.181L443.82 501.471L441.1 498.541L440.63 497.581L439.42 495.821L437.86 494.251L437.93 494.031L437.78 493.741L437.34 493.461L435.02 489.021L433.17 484.511L431.79 479.931L430.89 475.291L430.43 470.021L430.57 464.671L431.29 459.241L432.6 453.721L433.93 449.791L435.6 446.041L437.61 442.481L439.96 439.091L443.28 435.091L446.9 431.411L449.13 429.431L451.06 428.071L457.08 425.081L463.12 422.871L469.2 421.451L475.32 420.801L479.57 420.821L483.85 421.201L488.14 421.971L492.44 423.111L496.5 424.631L500.6 426.671L504.74 429.261L508.92 432.371L512.49 435.601L515.61 439.191L518.22 443.031L520.39 447.201L522.67 453.031L524.23 458.841L525.06 464.611L525.16 470.341L524.91 473.461L524.46 476.471L523.79 479.461L522.92 482.441L521.84 485.411L519.03 491.301L515.39 497.141ZM473.85 487.081L476.57 487.421H478.56L480.54 487.231L482.5 486.831L484.4 486.241L486.23 485.451L487.97 484.491L489.61 483.351L491.12 482.051L493.38 479.491L495.16 476.571L496.41 473.391L497.08 470.041L497.17 466.611L496.7 463.421L495.72 460.361L494.24 457.491L492.32 454.911L490 452.681L487.35 450.851L484.43 449.491L481.33 448.621L477.52 448.271L473.71 448.661L470.04 449.781L466.67 451.601L463.68 454.081L461.24 457.101L459.44 460.531L458.35 464.261L458.02 468.061L458.43 471.861L459.58 475.511L461.4 478.861L463.85 481.791L466.81 484.201L470.19 485.981L473.85 487.081Z" fill="black"/>
<path d="M345.089 428.92L344.319 428.68L343.729 428.26L343.279 427.57L343.059 426.66L345.089 428.92Z" fill="#837F7C"/>
<path d="M330.82 427.52L325.38 427.84L319.94 427.93L311.75 427.6L316.82 427.09L321.88 426.93L326.35 427.09L330.82 427.52Z" fill="#837F7C"/>
<path d="M619.58 427.651L598.77 427.601L604.9 427.091L611.029 426.941L618.539 427.251L619 427.341L619.58 427.651Z" fill="#837F7C"/>
<path d="M332.272 427.6L331.622 427.79L331.172 427.69L331.012 427.52L331.442 427.25L331.842 427.31L332.272 427.6Z" fill="#837F7C"/>
<path d="M622.901 429.241L622.441 428.631L621.361 427.891L619.891 427.531L621.561 427.301L622.151 427.421L622.581 427.701L622.891 428.321L622.901 429.241Z" fill="#837F7C"/>
<path d="M106.059 428.931L105.409 428.861L105.019 428.361L104.859 427.451L105.519 427.911L105.919 428.481L106.059 428.931Z" fill="#837F7C"/>
<path d="M334.042 427.681L333.542 427.751L333.012 427.641L333.762 427.531L334.042 427.681Z" fill="#837F7C"/>
<path d="M302.379 427.93L294.609 436.83L296.389 434.07L298.279 431.67L300.279 429.62L302.379 427.93Z" fill="#837F7C"/>
<path d="M133.04 430.071L131.42 429.041L130.72 428.861L130.09 428.921L131.03 428.471L131.93 428.381L132.68 428.611L132.82 428.701L133.08 429.211L133.04 430.071Z" fill="#837F7C"/>
<path d="M165.228 429.211L164.448 434.221L164.238 431.561L164.388 429.041L164.658 428.641L165.148 428.611L165.268 428.681L165.468 428.991L165.228 429.211Z" fill="#837F7C"/>
<path d="M371.53 509.63L371.241 509.43L371.17 509.18L370.98 469.25L371.091 429.01L371.36 428.88L371.451 428.85L371.8 428.94L371.961 429.27V508.78L371.86 509.17L371.53 509.63Z" fill="#837F7C"/>
<path d="M449.129 429.43L446.899 431.41L443.279 435.09L439.959 439.09L437.609 442.48L435.599 446.04L433.929 449.79L432.599 453.72L431.289 459.24L430.569 464.67L430.429 470.02L430.889 475.29L431.789 479.93L433.169 484.51L435.019 489.02L437.339 493.46L435.689 490.69L434.229 487.82L432.559 483.76L431.269 479.56L430.379 475.26L429.889 470.9L429.789 467.15L429.979 463.4L430.469 459.69L431.249 456.02L433.119 450.24L435.719 444.74L438.999 439.62L442.899 434.95L445.889 432.06L449.129 429.43Z" fill="#837F7C"/>
<path d="M333.93 431.891L332.01 434.671L329.57 437.171L333.93 431.891Z" fill="#837F7C"/>
<path d="M619.287 433.51L614.777 438.7L615.937 436.96L617.257 435.38L619.287 433.51Z" fill="#837F7C"/>
<path d="M204.118 511.97L203.258 510.78L202.078 509.73L202.138 436.25L202.238 435.61L202.538 435L203.018 434.52L203.618 434.21L204.288 434.1H231.528L232.158 434.24L232.788 434.79L233.018 435.59V509.89L232.858 510.67L232.418 511.33L231.758 511.77L230.978 511.92L204.118 511.97Z" fill="black"/>
<path d="M293.769 437.77L292.559 439.78L291.059 441.51L290.309 442.18L291.149 440.74L292.349 439.18L293.769 437.77Z" fill="#837F7C"/>
<path d="M612.47 441.451L607.66 447.261L609.47 444.431L610.87 442.861L612.47 441.451Z" fill="#837F7C"/>
<path d="M290.311 442.18L288.161 445.53L286.021 448.25L283.641 450.8L290.311 442.18Z" fill="#837F7C"/>
<path d="M607.66 447.26L592.44 465.44L592.43 465.88L623.51 504.94L619.28 500.34L615.27 495.51L603.41 480.65L592.44 467.3L592.05 466.62L591.91 465.84L592.05 465.07L592.45 464.39L606.54 447.96L607.55 447.28L607.66 447.26Z" fill="#837F7C"/>
<path d="M497.169 466.61L496.349 463.37L495.19 460.43L493.71 457.79L491.9 455.44L490.359 453.9L488.109 452.14L485.76 450.78L483.24 449.76L480.69 449.14L477.26 448.89L473.9 449.27L470.59 450.27L467.52 451.84L464.77 453.92L462.44 456.46L460.64 459.31L459.38 462.49L458.83 465.16L458.69 467.98L458.96 470.78L459.669 473.69L460.729 476.36L462.15 478.79L464.31 481.39L466.979 483.63L470.159 485.53L473.849 487.08L470.19 485.98L466.81 484.2L463.849 481.79L461.4 478.86L459.58 475.51L458.43 471.86L458.02 468.06L458.349 464.26L459.44 460.53L461.24 457.1L463.68 454.08L466.669 451.6L470.039 449.78L473.71 448.66L477.52 448.27L481.33 448.62L484.43 449.49L487.349 450.85L490 452.68L492.32 454.91L494.24 457.49L495.719 460.36L496.7 463.42L497.169 466.61Z" fill="#837F7C"/>
<path d="M164.339 449.971L164.829 453.431L165.009 457.731L164.999 508.001L164.939 508.521L164.129 511.601L164.339 449.971Z" fill="#837F7C"/>
<path d="M282.92 451.51L281.81 453.66L279.93 455.62L281.1 453.46L282.92 451.51Z" fill="#837F7C"/>
<path d="M310.569 459.25L306.489 464.24L306.059 465.33L306.349 466.46L307.989 468.81L332.009 498.56L335.249 502.26L337.329 504.88L339.079 507.66L305.619 467.04L305.299 466.47L305.199 465.81L305.329 465.17L305.679 464.61L310.569 459.25Z" fill="#837F7C"/>
<path d="M476.57 487.421L480.58 486.841L484.17 485.791L487.36 484.261L490.15 482.271L492.46 479.881L494.38 477.041L495.92 473.761L497.08 470.041L496.41 473.391L495.16 476.571L493.38 479.491L491.12 482.051L489.61 483.351L487.97 484.491L486.23 485.451L484.4 486.241L482.5 486.831L480.54 487.231L478.56 487.421H476.57Z" fill="#837F7C"/>
<path d="M566.582 478.901L566.272 479.841L566.142 480.981L566.072 509.731L565.932 510.621L565.552 511.281L564.852 511.741L563.852 511.931L564.692 510.741L565.142 509.181L565.192 506.961L565.172 505.721L565.032 477.591L565.232 477.191L565.662 477.121L565.802 477.191L566.172 477.541L566.472 478.141L566.582 478.901Z" fill="#837F7C"/>
<path d="M281.612 480.801L281.382 480.641L280.712 480.001L280.172 479.191L280.572 479.111L281.142 479.571L281.612 480.801Z" fill="#837F7C"/>
<path d="M581.879 499.42L580.819 498.49L579.579 496.97L568.359 481.23L581.879 499.42Z" fill="#837F7C"/>
<path d="M284.347 484.531L283.877 484.191L283.277 483.221L283.587 483.251L284.037 483.661L284.347 484.531Z" fill="#837F7C"/>
<path d="M437.86 494.251L437.34 493.461L437.78 493.741L437.93 494.031L437.86 494.251Z" fill="#837F7C"/>
<path d="M441.099 498.54L437.859 494.25L439.419 495.82L440.629 497.58L441.099 498.54Z" fill="#837F7C"/>
<path d="M297.89 502.49L297.47 502.11L296.14 500.54L295.09 498.68L296.19 499.8L297.11 501.03L297.89 502.49Z" fill="#837F7C"/>
<path d="M591.569 511.81L591.199 511.47L588.539 508.81L586.109 505.92L583.879 502.79L581.879 499.42L591.569 511.81Z" fill="#837F7C"/>
<path d="M302.211 508.45L300.161 506.18L298.941 504.41L297.891 502.49L300.211 505.17L302.211 508.45Z" fill="#837F7C"/>
<path d="M508.719 504.051L505.169 506.791L501.37 509.181L495.979 511.801L490.31 513.741L484.43 514.951L478.46 515.421L472.469 515.151L466.56 514.131L460.83 512.381L455.359 509.941L450.909 507.291L446.77 504.181L453.46 508.201L456.7 509.901L460 511.341L463.359 512.521L466.77 513.441L470.549 514.151L474.4 514.561L478.32 514.661L482.31 514.461L487.7 513.671L492.88 512.271L497.5 510.421L501.94 508.051L508.719 504.051Z" fill="#837F7C"/>
<path d="M627.352 509.581L623.512 504.941L623.782 505.181L625.712 507.211L627.352 509.581Z" fill="#837F7C"/>
<path d="M204.118 511.97L203.098 511.53L202.428 510.87L202.078 509.73L203.258 510.78L204.118 511.97Z" fill="#837F7C"/>
<path d="M627.77 510.18L627.94 510.41V510.95L627.52 511.29L627.7 510.27L627.77 510.18Z" fill="#837F7C"/>
<path d="M341.34 510.941L341.27 511.061L340.69 511.581L339.78 511.881L338.54 511.971L336.98 511.841L341.34 510.941Z" fill="#837F7C"/>
<path d="M406.327 535.071L400.797 533.901L395.507 533.431L390.467 533.651L385.677 534.581L383.807 535.201L382.097 536.001L380.577 536.981L379.217 538.131L378.027 539.471L377.017 540.991L376.177 542.681L375.517 544.561L374.117 548.711L374.307 546.221L374.787 543.961L375.587 541.861L376.657 540.001L378.787 537.571L381.587 535.581L384.897 534.131L388.737 533.191L393.057 532.801L397.627 533.001L402.167 533.781L406.327 535.071Z" fill="#837F7C"/>
<path d="M475.821 536.311L473.241 535.221L470.721 534.471L468.241 534.031L465.811 533.931L455.101 533.991L445.211 533.581L451.741 532.991L457.341 532.701L462.011 532.721L465.751 533.051L467.101 533.241L470.261 533.731L472.491 534.331L474.291 535.151L475.731 536.221L475.821 536.311Z" fill="#837F7C"/>
<path d="M406.328 535.07L407.568 535.82L408.418 536.13L410.898 538.2L412.838 540.61L414.278 543.49L416.128 550.1L416.118 557.92L414.808 563.22L414.318 564.8L413.478 566.49L412.278 568.29L410.728 570.21L410.008 570.71L409.508 571.24L407.368 572.29L405.138 573.12L402.718 573.77L400.248 574.22L397.608 574.49L394.748 574.56L388.798 574.15L386.118 573.64L383.708 572.84L381.558 571.74L379.658 570.34L377.748 568.29L376.198 565.82L375.028 562.92L374.218 559.61L373.648 555.36L373.678 552.05L374.118 548.71L375.518 544.56L376.178 542.68L377.018 540.99L378.028 539.47L379.218 538.13L380.578 536.98L382.098 536L383.808 535.2L385.678 534.58L390.468 533.65L395.508 533.43L400.798 533.9L406.328 535.07ZM388.528 561.64L389.768 563.13L390.918 563.96L393.228 564.86L395.698 565.02L398.328 564.46L399.658 563.8L400.628 562.88L401.198 561.79L401.458 560.47L401.988 557.93L402.278 555.37L402.268 552.07L401.858 548.75L401.938 548.49L401.908 547.29L401.298 545.96L399.978 544.41L398.438 543.56L397.058 543.37L395.038 543.05L392.828 543.28L391.068 543.5L389.638 544.18L388.908 544.85L388.308 545.7L387.498 547.95L387.228 549.56L387.008 552.5L387.148 555.5L387.658 558.55L388.528 561.64Z" fill="black"/>
<path d="M445.208 533.58L455.098 533.99L465.808 533.93L468.238 534.03L470.718 534.47L473.238 535.22L475.818 536.31L475.758 536.15L476.128 536.45L477.498 537.83L478.578 539.38L479.218 540.69L479.668 542.11L480.118 544.38L480.358 546.85L480.348 549.31L480.098 551.55L479.638 553.52L478.948 555.36L478.068 556.88L476.948 558.19L474.698 559.85L472.418 560.77L469.328 561.39L466.408 561.94L458.828 562L458.278 562.23L458.048 562.79V573.18L457.818 573.74L457.258 573.97H445.748L445.278 573.77L445.078 573.29L445.208 533.58ZM458.038 543.68L458.188 550.94L458.468 551.66L459.158 552.02L461.928 552.11L464.868 551.67L465.538 551.98L466.148 552L466.698 551.71L467.188 551.11L467.418 550.68L467.808 549.42L467.878 548.01L467.618 546.44L467.038 544.73L466.568 543.91L465.898 543.39L464.778 543.08L462.738 542.87L460.938 542.9L459.368 543.17L458.038 543.68Z" fill="black"/>
<path d="M259.559 534.02L253.289 536L255.489 534.68L257.429 534.13L259.559 534.02Z" fill="#837F7C"/>
<path d="M280.348 539.68L280.078 540.71L280.108 541.69L280.438 542.599L280.208 543.19L279.818 543.58L279.248 543.84L277.558 544.01L270.318 543.93L263.118 544.26L262.398 544.2L261.898 544.4L261.578 544.96L260.888 545.93L260.998 547.12L261.908 548.539L262.698 549.19L263.778 549.669L265.158 549.99L266.838 550.14L270.348 550.7L276.268 552.18L276.918 552.45L280.718 556.599L280.868 556.88L281.288 558.09L281.428 559.43L281.098 560.789L281.038 562.13L281.388 564.039L281.398 564.109L281.318 565.37L280.758 566.7L279.598 568.77L279.188 570.24L279.048 570.46L278.268 571.38L277.258 572.15L273.118 573.63L271.408 573.99L269.938 574.099L250.758 574.15L250.188 574.34L249.688 574.31L249.068 573.88L248.578 572.99L249.268 565.479L249.478 565.349L265.688 565.13L267.258 564.62L268.288 564.06L268.748 563.24L268.798 562.52L268.338 561.82L267.618 561.169L267.568 560.729L266.938 560.31L264.098 559.74L259.798 559.13L258.838 558.89L257.218 558.31L253.708 556.909L252.458 556.15L251.488 555.33L250.238 553.719L249.298 551.719L248.848 549.25L248.738 545.219L248.868 543.45L249.198 541.81L249.728 540.299L250.468 538.919L251.718 537.349L253.288 536L259.558 534.02L279.458 534.21L279.848 534.37L280.028 534.75L280.348 539.68Z" fill="black"/>
<path d="M308.499 533.98L308.729 539.341L308.959 556.56L308.459 573.81L308.109 564.98L307.969 556.151L308.079 545.07L308.499 533.98Z" fill="#837F7C"/>
<path d="M321.111 549.01L321.031 549.331L321.281 549.68L321.791 549.841L331.261 549.951H331.271L331.791 549.73L331.991 549.201L331.631 534.401L344.431 534.1H344.441L344.861 534.271L345.041 534.701V573.141L344.801 573.73L344.211 573.98H332.941L332.281 573.711L332.021 573.05L332.111 559.51L321.531 559.05L321.341 559.141L321.211 559.401L321.341 559.81L321.301 569.25L321.191 573.54L314.271 574.38L312.411 574.021L310.351 574.23H309.121L308.491 573.87L308.461 573.81L308.961 556.56L308.731 539.341L308.501 533.98L320.351 534.05L320.801 534.23L320.991 534.68L321.111 549.01Z" fill="black"/>
<path d="M321.107 549.01L330.327 548.98H330.367L330.927 548.7L331.117 548.1L330.917 544.79L330.937 541.41L331.167 537.94L331.627 534.4L331.987 549.2L331.787 549.73L331.267 549.95H331.257L321.787 549.84L321.277 549.68L321.027 549.33L321.107 549.01Z" fill="#837F7C"/>
<path d="M253.288 536L251.717 537.35L250.467 538.92L249.728 540.3L249.198 541.81L248.868 543.45L248.738 545.22L248.848 549.25L249.298 551.72L250.238 553.72L251.488 555.33L252.458 556.15L253.708 556.91L257.217 558.31L258.837 558.89L259.798 559.13L264.098 559.74L266.938 560.31L267.568 560.73L267.617 561.17L258.677 559.15L255.298 558.11L252.518 556.69L250.448 554.95L249.048 552.87L248.357 550.69L247.938 546.38L248.018 544.35L248.278 542.58L248.698 541.02L249.327 539.58L250.118 538.37L251.107 537.32L252.118 536.59L253.288 536Z" fill="#837F7C"/>
<path d="M416.132 550.101L414.282 543.491L412.842 540.611L410.902 538.201L408.422 536.131L410.522 537.491L412.292 539.151L413.872 541.341L415.032 543.901L415.792 546.821L416.132 550.101Z" fill="#837F7C"/>
<path d="M466.41 561.941L469.33 561.391L472.42 560.771L474.7 559.851L476.95 558.191L478.07 556.881L478.95 555.361L479.64 553.521L480.1 551.551L480.35 549.311L480.36 546.851L480.12 544.381L479.67 542.111L479.22 540.691L478.58 539.381L477.5 537.831L476.13 536.451L477.66 537.481L478.84 538.751L479.46 539.831L480.05 541.301L480.63 543.411L480.94 545.611L480.97 547.911L480.73 550.311L480.07 553.291L479.06 555.841L477.71 557.941L476.03 559.611L474.09 560.791L471.84 561.581L469.28 561.961L466.41 561.941Z" fill="#837F7C"/>
<path d="M280.348 539.68L280.688 540.5L280.738 541.51L280.438 542.6L280.108 541.69L280.078 540.71L280.348 539.68Z" fill="#837F7C"/>
<path d="M392.832 543.281L390.942 544.111L389.552 545.341L388.642 546.971L388.232 549.011L388.072 555.411L388.532 561.641L387.662 558.551L387.152 555.501L387.012 552.501L387.232 549.561L387.502 547.951L388.312 545.701L388.912 544.851L389.642 544.181L391.072 543.501L392.832 543.281Z" fill="#837F7C"/>
<path d="M466.569 543.911L458.039 543.681L459.369 543.171L460.939 542.901L462.739 542.871L464.779 543.081L465.899 543.391L466.569 543.911Z" fill="#837F7C"/>
<path d="M401.859 548.751L401.299 547.331L400.529 546.081L399.019 544.551L397.059 543.371L398.439 543.561L399.979 544.411L401.299 545.961L401.909 547.291L401.939 548.491L401.859 548.751Z" fill="#837F7C"/>
<path d="M263.118 544.261L262.438 544.681L261.578 544.961L261.898 544.401L262.398 544.201L263.118 544.261Z" fill="#837F7C"/>
<path d="M464.867 551.67L465.767 551.35L466.577 550.49L467.057 549.091L467.207 547.17L467.037 544.73L467.617 546.44L467.877 548.01L467.807 549.42L467.417 550.68L467.187 551.11L466.697 551.711L466.147 552L465.537 551.98L464.867 551.67Z" fill="#837F7C"/>
<path d="M261.91 548.541L265.68 549.501L269.79 550.021L270.88 550.151L273.62 550.871L276.27 552.181L270.35 550.701L266.84 550.141L265.16 549.991L263.78 549.671L262.7 549.191L261.91 548.541Z" fill="#837F7C"/>
<path d="M280.722 556.601L276.922 552.451L278.292 553.021L279.372 553.861L280.212 555.071L280.722 556.601Z" fill="#837F7C"/>
<path d="M416.121 557.92L415.92 560.34L415.451 562.6L414.711 564.7L413.72 566.63L412.371 568.51L410.73 570.21L412.28 568.29L413.48 566.49L414.321 564.8L414.811 563.22L416.121 557.92Z" fill="#837F7C"/>
<path d="M332.111 559.511L326.861 560.061L324.101 560.041L321.341 559.811L321.211 559.401L321.341 559.141L321.531 559.051L332.111 559.511Z" fill="#837F7C"/>
<path d="M281.429 559.43L281.819 561.11L281.769 562.56L281.389 564.04L281.039 562.13L281.099 560.79L281.429 559.43Z" fill="#837F7C"/>
<path d="M409.509 571.241L407.719 572.511L405.509 573.581L403.069 574.371L400.279 574.911L397.219 575.191L393.979 575.201L390.589 574.941L387.359 574.411L384.079 573.491L381.259 572.221L378.919 570.591L377.049 568.601L375.869 566.711L374.999 564.581L374.449 562.221L374.219 559.611L375.029 562.921L376.199 565.821L377.749 568.291L379.659 570.341L381.559 571.741L383.709 572.841L386.119 573.641L388.799 574.151L394.749 574.561L397.609 574.491L400.249 574.221L402.719 573.771L405.139 573.121L407.369 572.291L409.509 571.241Z" fill="#837F7C"/>
<path d="M390.922 563.961L393.112 564.281L395.152 564.301L397.032 564.011L398.762 563.431L399.042 563.291L400.412 562.181L401.462 560.471L401.202 561.791L400.632 562.881L399.662 563.801L398.332 564.461L395.702 565.021L393.232 564.861L390.922 563.961Z" fill="#837F7C"/>
<path d="M268.289 564.06L268.199 562.85L268.339 561.82L268.799 562.52L268.749 563.24L268.289 564.06Z" fill="#837F7C"/>
<path d="M249.27 565.48L248.58 572.99L248.1 570.48L248.09 567.48L248.33 566.36L248.86 565.67L249.27 565.48Z" fill="#837F7C"/>
<path d="M280.758 566.701L280.467 568.171L279.958 569.251L279.188 570.241L279.598 568.771L280.758 566.701Z" fill="#837F7C"/>
<path d="M321.298 569.25L321.967 571.41L321.948 572.27L321.677 572.99L321.188 573.54L321.298 569.25Z" fill="#837F7C"/>
<path d="M277.262 572.15L275.612 573.19L273.872 573.99L271.072 574.78L268.062 575.05L253.082 574.95L252.762 574.93L251.752 574.68L250.762 574.15L269.942 574.1L271.412 573.99L273.122 573.63L277.262 572.15Z" fill="#837F7C"/>
<path d="M314.272 574.38L313.182 574.65L312.102 574.69L310.352 574.229L312.412 574.02L314.272 574.38Z" fill="#837F7C"/>
</g>
<defs>
<clipPath id="clip0_777_28749">
<rect width="719" height="576" fill="white"/>
</clipPath>
</defs>
</svg>
