<svg width="543" height="357" viewBox="0 0 543 357" fill="none" xmlns="http://www.w3.org/2000/svg">
<g clip-path="url(#clip0_777_28689)">
<rect width="543" height="357" fill="white"/>
<path d="M511.839 154.01L511.329 153.49L511.039 153.44L475.899 153.28L475.219 153.2L474.899 152.95L474.929 152.55L475.329 151.99L476.359 150.38L477.639 147.55L477.659 147.08L477.279 146.83L476.529 146.88L475.399 147.31L473.979 147.87L472.749 148.15L471.599 148.16L470.619 147.9L469.529 147.15L468.649 146.02L467.859 144.38L467.089 142.09L466.449 138.74L464.829 122.48L464.939 120.35L465.639 117.38L465.689 116.74L465.609 116.45L463.509 111.31L461.299 105.8L460.219 101.63L459.619 97.41L459.259 93.43L459.149 89.67L459.279 86.15L459.439 85.23L459.739 84.85L460.189 85.02L460.789 85.75L462.469 88.78L461.209 87.58L460.139 85.87L459.999 85.72L459.759 85.77L459.679 86.31L459.719 86.45L459.829 94.29V94.3L459.959 96.49L460.389 99.14L460.819 101.84L461.599 105.23L463.479 109.7L465.469 114.49L465.979 116.4L466.239 118.2L466.169 118.69L465.929 119.04L465.369 119.75L465.159 120.47L465.169 120.73L466.249 130.3L467.129 140.17L467.399 141.17L468.039 142.21L468.699 142.62L469.479 142.5L473.319 140.04L476.979 137.1L481.129 133.07L484.819 128.8L488.049 124.29L490.799 119.53L493.039 114.68L494.829 109.6L496.189 104.29L497.099 98.76L497.679 92.34L497.869 85.85L497.669 79.26L497.069 72.6L496.279 67.82L495.039 63.05L493.179 57.7L491.059 52.91L488.629 48.54L485.799 44.45L483.549 41.74L481.049 39.15L478.309 36.66L475.289 34.28L472.059 32.11L468.789 30.38L465.479 29.09L462.129 28.23L458.769 27.73L455.369 27.51L452.049 27.56L448.739 27.88L445.559 28.46L442.449 29.32L439.509 30.41L436.669 31.78L431.269 35.04L429.109 36.64L427.289 38.23L424.769 40.81L422.429 43.51L420.289 46.33L418.349 49.26L415.839 53.77L413.749 58.52L412.069 63.53L410.789 68.79L410.059 73L409.519 77.29L409.199 81.54L409.089 85.82L409.179 90L409.479 94.18L409.979 98.23L410.699 102.25L411.599 106.11L412.709 109.9L413.999 113.51L415.509 117.03L417.169 120.33L419.029 123.51L421.039 126.49L423.259 129.34L424.149 130.13L425.089 130.46L426.249 130.29L427.439 129.53L427.649 129.34L432.199 124.95L436.399 120.18L436.389 120.83L436.129 121.33L431.249 126.9L426.809 131.16L422.299 134.59L417.579 137.27L417.119 137.53L416.279 138.25L415.539 139.32L414.429 142.45L414.259 143.05L414.289 143.64L414.889 143.65L416.439 143.14L416.759 143.07L417.559 143.14L418.259 143.54L418.709 144.2L418.849 144.99L418.919 146.95L419.329 148.81L420.429 151.17L422.149 153.33L422.379 153.77L421.909 153.93L408.409 154.06L395.529 153.76L395.289 153.81L395.069 154.3L393.229 152.76L391.099 150.66L386.809 145.89L382.809 140.86L379.179 135.65L376.009 130.39L373.239 124.98L370.939 119.59L369.049 114.04L367.649 108.57L366.379 101.29L365.649 93.78L365.449 86.06L365.799 78.11L366.339 73.42L367.259 68.62L368.559 63.7L370.229 58.67L373.039 51.72L376.199 45.31L379.729 39.4L383.639 33.95L386.189 30.86L388.939 27.85L393.589 23.33L398.459 19.2L403.559 15.46L408.879 12.11L413.909 9.41L419.119 7.03L424.519 4.97L430.099 3.23001L435.749 1.86002L441.469 0.870026L447.329 0.240021L453.209 0L459.099 0.150024L464.959 0.680023L470.769 1.58002L476.499 2.86002L482.119 4.5L487.609 6.5L492.869 8.83002L497.979 11.49L502.869 14.48L507.549 17.81L511.949 21.4L516.099 25.31L521.159 30.82L525.699 36.59L529.689 42.63L533.159 48.93L535.019 52.93L536.679 57.02L538.139 61.21L539.399 65.51L540.459 69.9L541.309 74.39L541.969 78.98L542.429 83.67L542.499 88.53L541.989 95.17L541.909 95.95L541.379 100.4L540.649 104.76L539.739 109.01L538.639 113.16L537.339 117.22L535.859 121.17L534.179 125.01L532.309 128.76L528.229 135.62L523.459 142.12L517.999 148.25L511.839 154.01Z" fill="#7EAFAC"/>
<path d="M43.5992 1.74118L45.4092 2.18118L46.8892 3.04117L47.3292 3.43118L48.2092 4.81116L48.8392 6.92117L62.6492 76.7212L65.2092 90.8512L66.7792 98.7712L68.8392 106.751L69.3092 108.851L69.1092 110.611L69.2692 112.031L69.5692 112.601L69.8492 112.011L92.9092 5.02118L93.3692 3.53116L94.1992 2.52118L95.0992 2.06116L96.2092 1.89117L113.499 1.70117L130.719 1.76117L131.979 2.41116L132.929 3.11118L133.569 3.85117L133.899 4.65118L142.539 44.3712L151.439 84.0412L152.839 91.0712L153.779 95.1112L154.979 99.0912L156.209 104.421L156.199 105.971L156.809 107.551V107.961L157.069 108.771L156.869 110.391L157.109 111.681L157.419 112.081L157.639 111.641L165.589 73.8012L179.699 4.86118L179.709 4.81116L180.069 3.97116L180.749 3.20117L181.759 2.50116L183.089 1.87119L203.509 1.72116L224.039 1.89117L227.239 2.73117L226.279 9.05118L224.609 15.4412L221.739 24.5612L200.949 99.7612L190.679 137.761L184.959 158.551L183.639 164.121L182.779 167.621L181.969 169.621L181.109 170.691L180.089 171.461L178.899 171.921L177.549 172.081L154.009 172.201L139.589 172.091L138.479 171.941L137.559 171.571L136.439 170.661L135.539 169.221L134.879 167.351L134.319 164.671L133.949 162.861L128.189 138.481L122.589 112.201L117.569 89.4012L117.209 88.3412L113.839 71.2212L113.779 71.2512L113.559 70.7712L113.739 69.6312L113.589 68.7312L113.249 68.2612L112.999 68.7812L102.639 118.191L91.8792 168.091L91.2992 169.741L90.4192 170.911L89.4792 171.571L88.3692 172.001L87.0092 172.241L85.2692 172.331L69.3292 172.681L55.9992 172.691L51.3092 172.341L49.7892 172.331L47.3792 172.021L46.4592 171.611L45.7392 171.031L45.1192 170.201L44.5392 169.031L43.5892 165.721L43.2892 164.481L11.8692 46.1512L0.599213 6.01117L0.449219 5.39117L0.519211 4.60117L1.27922 2.47116L4.35922 1.93118L8.53922 1.74118H43.5992Z" fill="#14342F"/>
<path d="M68.8377 106.75L66.7777 98.7702L65.2077 90.8502L62.6477 76.7202L48.8377 6.92023L48.2077 4.81021L47.3277 3.43024L46.8877 3.04022L45.4077 2.18024L43.5977 1.74023L45.4677 1.77023L46.9877 2.35022L47.7677 3.01022L48.4177 3.88022L48.9177 4.98022L49.2777 6.30023L59.6577 58.7502L61.5077 68.3402L68.8377 106.75Z" fill="#7EAFAC"/>
<path d="M154.979 99.0898L153.779 95.1098L152.839 91.0698L151.439 84.0398L142.539 44.3698L133.899 4.64978L133.569 3.84976L132.929 3.10977L131.979 2.40976L130.719 1.75977L132.539 1.94977L133.749 2.68976L134.359 3.91977L137.369 18.2698L141.969 39.5398L142.539 41.9298L147.879 65.3898L151.409 81.1898L153.299 90.0998L154.979 99.0898Z" fill="#7EAFAC"/>
<path d="M323.808 67.7013L324.078 68.1513L323.588 68.4313L322.278 68.5312L273.248 68.5713L272.568 68.2913L272.278 67.6013L272.088 34.1413L272.338 5.50125L272.188 4.48126L271.658 3.51126L270.818 2.77127L269.668 2.23126L268.378 2.02127L255.318 1.82126L243.698 2.23126L243.028 2.38126L242.428 2.72125L241.968 3.23126L241.678 3.85126L236.238 22.4113L229.898 43.1413L228.948 45.3613L228.158 47.0912L227.748 48.5612L227.628 50.0213L227.768 168.451L227.728 168.261L227.008 164.801L226.788 162.131L226.818 118.941L226.768 61.3513L226.738 57.9713L226.758 52.9013L227.148 49.6113L228.208 45.9813L230.328 40.1313L233.598 28.7913L236.428 19.8713L239.308 9.73126L240.448 6.00125L241.748 2.63126L242.258 2.01126L243.028 1.78125H268.548L270.388 2.04126L271.708 2.83127L272.498 4.15128L272.758 5.99127V67.4313L273.018 67.6913L323.808 67.7013Z" fill="#7EAFAC"/>
<path d="M367.019 1.75977L367.269 2.28976L367.609 2.53976L367.689 2.54977L368.579 2.82977L369.289 3.41977L369.709 4.24976L369.779 5.16977L369.769 5.22977L369.609 7.77975L369.909 10.2198L370.019 23.2198L369.389 35.5798L365.739 41.2798L362.579 47.1198L359.909 53.1198L357.739 59.2798L356.179 65.0198L355.039 70.8898L354.309 76.8798L353.989 82.9998L354.059 91.2998L354.299 96.6298L354.849 101.87L355.709 107.04L356.879 112.12L358.259 116.81L359.909 121.44L361.839 125.99L364.039 130.47L364.219 130.63L364.699 131.44L365.839 134.18L367.259 136.73L368.289 138.23L369.069 139.52L369.619 140.99L369.939 142.65L370.029 144.48L369.909 168.4L369.609 169.9L368.759 171.18L367.489 172.03L365.989 172.33L329.599 172.29L327.969 172.18L326.689 171.87L325.649 171.36L324.839 170.59L324.329 169.56L324.149 168.23L324.049 163.24L323.799 160.25L323.669 104.35L323.549 103.99L323.169 103.86L272.349 103.74L271.999 119.42L271.859 135.13L271.929 150.86L272.199 166.62L272.119 168.39L271.789 169.87L271.229 171L270.369 171.84L269.489 172.22L268.399 172.35L231.429 172.1L230.499 171.96L229.639 171.55L228.939 170.9L228.469 170.05L228.409 169.86L228.019 169.26L227.839 169.19L227.729 168.47L227.769 168.45L227.629 50.0198L227.749 48.5598L228.159 47.0898L228.949 45.3598L229.899 43.1398L236.239 22.4098L241.679 3.84976L241.969 3.22977L242.429 2.71976L243.029 2.37976L243.699 2.22977L255.319 1.81976L268.379 2.01978L269.669 2.22977L270.819 2.76978L271.659 3.50977L272.189 4.47977L272.339 5.49976L272.089 34.1398L272.279 67.5998L272.569 68.2898L273.249 68.5698L322.279 68.5298L323.589 68.4298L324.079 68.1498L323.809 67.6998L323.839 5.30975L324.099 3.97977L324.859 2.84976L325.989 2.08975L327.319 1.82977L367.019 1.75977Z" fill="#14342F"/>
<path d="M369.91 10.2198L369.61 7.77975L369.77 5.22977L369.78 5.16977L369.71 4.24976L369.29 3.41977L368.58 2.82977L367.69 2.54977L367.61 2.53976L367.27 2.28976L367.02 1.75977L367.86 1.84976L368.59 2.13977L369.71 3.21976L370.44 4.99976L370.48 6.99976L369.91 10.2198Z" fill="#7EAFAC"/>
<path d="M183.087 1.87109L181.757 2.50107L180.747 3.20108L180.067 3.97107L179.707 4.81107L179.697 4.86108L165.587 73.8011L157.637 111.641L157.417 112.081L157.107 111.681L156.867 110.391L157.067 108.771L157.957 107.041L158.707 104.201L167.917 59.2811L172.107 39.5511L179.097 5.04108L179.767 3.51108L181.107 2.44107L183.087 1.87109Z" fill="#7EAFAC"/>
<path d="M117.566 89.4009L122.586 112.201L128.186 138.481L133.946 162.861L134.316 164.671L134.876 167.351L135.536 169.221L136.436 170.661L137.556 171.571L138.476 171.941L139.586 172.091L154.006 172.201L177.546 172.081L178.896 171.921L180.086 171.461L181.106 170.691L181.966 169.621L182.776 167.621L183.636 164.121L184.956 158.551L190.676 137.761L200.946 99.7609L221.736 24.5609L224.606 15.4409L226.276 9.05093L227.236 2.73093L227.366 2.71094L227.576 3.06091L227.646 3.98093L227.526 5.85092L226.976 8.48093L221.986 25.4609L217.206 42.6309L211.956 61.9209L195.636 121.401L183.006 168.441L182.096 170.041L180.176 171.831L178.526 172.571L176.186 172.751L143.786 172.761L138.326 172.471H138.316L137.626 172.281L136.956 171.821L135.686 170.091L134.406 167.341L133.126 163.001L129.696 146.451L124.996 126.001L122.706 115.331L120.646 105.641L118.956 97.5609L117.566 89.4009Z" fill="#7EAFAC"/>
<path d="M1.28 2.4707L0.519989 4.60071L0.449997 5.39072L0.599991 6.01071L0.159988 5.3407L0 4.66071L0.299988 3.57071L1.28 2.4707Z" fill="#7EAFAC"/>
<path d="M69.3094 108.85L70.1494 107.95L70.5294 107.18L76.9594 76.1195L81.0994 57.3595L85.1294 38.5595L90.4094 13.9095L91.3694 9.99951L92.9094 5.01953L69.8494 112.01L69.5694 112.6L69.2694 112.03L69.1094 110.61L69.3094 108.85Z" fill="#7EAFAC"/>
<path d="M55.9976 172.69L48.2076 172.63L47.4676 172.5L46.0176 171.72L44.7476 170.26L43.6576 168.06L42.7976 165.23L39.0376 149.62L19.4176 76.0898L0.617661 7.41977L0.597656 6.00977L11.8676 46.1498L43.2876 164.48L43.5876 165.72L44.5376 169.03L45.1176 170.2L45.7376 171.03L46.4576 171.61L47.3776 172.02L49.7876 172.33L51.3076 172.34L55.9976 172.69Z" fill="#7EAFAC"/>
<path d="M369.388 35.5801L366.298 41.1501L364.838 43.6601L361.778 50.0201L359.228 56.5601L357.228 63.1601L355.758 69.9101L355.118 74.1801L354.678 78.5001L354.568 79.6401L353.988 83.0001L354.308 76.8801L355.038 70.8901L356.178 65.0201L357.738 59.2801L359.908 53.1201L362.578 47.1201L365.738 41.2801L369.388 35.5801Z" fill="#7EAFAC"/>
<path d="M457.966 36.9109L461.266 38.6509L462.856 40.0609L463.316 40.8209L463.546 41.6109L463.496 42.7509L462.866 43.2309L462.526 43.7409L462.406 44.4909L462.586 45.5509L462.776 47.0109L462.436 48.3709L462.386 48.4909L461.746 50.4709L461.166 52.2809L460.356 53.3009L459.406 53.7309L458.026 53.8009L457.406 53.8909L456.886 54.2409L456.566 54.7809L456.516 55.4009L456.586 55.6909L458.356 59.5209L460.146 63.5009L461.116 67.1009L461.816 71.0209L462.396 74.5609L462.946 76.7209L464.466 80.1309L466.566 83.5809L469.246 87.0809L472.336 90.3809L473.176 91.1209L475.096 92.3609L477.906 93.6309L479.386 94.5609L480.196 95.5209L480.326 95.9609L480.146 96.3909L476.896 100.301L475.256 99.8709L472.966 97.0909L471.716 95.6609L470.406 94.6109L467.716 93.0109L464.836 91.5609L462.466 88.7809L460.786 85.7509L460.186 85.0209L459.736 84.8509L459.436 85.2309L459.276 86.1509L459.146 89.6709L459.256 93.4309L459.616 97.4109L460.216 101.631L461.296 105.801L463.506 111.311L465.606 116.451L465.696 116.841L465.636 117.381L464.936 120.351L464.826 122.481L466.446 138.741L467.086 142.091L467.856 144.381L468.646 146.021L469.526 147.151L470.616 147.901L471.596 148.161L472.746 148.151L473.976 147.871L475.396 147.311L476.526 146.881L477.276 146.831L477.656 147.081L477.636 147.551L476.356 150.381L475.326 151.991L474.926 152.551L474.896 152.951L475.216 153.201L475.896 153.281L511.036 153.441L511.326 153.491L511.836 154.011L510.896 154.301L509.836 155.021L505.906 158.091L501.566 161.021L497.026 163.671L492.126 166.141L487.006 168.361L481.586 170.351L476.096 172.041L470.396 173.471L463.746 174.661L457.066 175.291L450.546 175.371L443.936 174.941L437.476 174.061L431.166 172.731L425.006 170.941L417.466 168.041L410.166 164.431L403.106 160.091L396.286 155.041L396.016 154.741L395.856 154.641L395.526 154.781L395.096 154.351L395.066 154.301L395.286 153.811L395.526 153.761L408.406 154.061L421.906 153.931L422.376 153.771L422.146 153.331L420.426 151.171L419.326 148.811L418.916 146.951L418.846 144.991L418.706 144.201L418.256 143.541L417.556 143.141L416.756 143.071L416.436 143.141L414.886 143.651L414.286 143.641L414.256 143.051L414.426 142.451L415.536 139.321L416.276 138.251L417.116 137.531L417.576 137.271L422.296 134.591L426.806 131.161L431.246 126.901L436.126 121.331L436.386 120.831L436.396 120.181L436.596 119.421L436.626 118.451L436.876 116.381L436.886 116.361L438.686 110.781L439.336 107.241L439.596 102.141L440.096 98.3709L440.936 95.1109L442.156 92.2709L442.266 91.5809L441.606 91.3209L441.176 91.3009L437.906 91.1109L435.666 90.7009L433.986 89.9909L432.816 88.9809L432.246 88.0409L431.876 86.8709L431.746 85.5409L431.826 83.9709L434.156 71.4209L434.536 70.2609L435.116 69.4809L436.456 68.8009L438.616 68.5809L441.016 68.3009L441.396 68.0909L441.676 67.6809L442.926 65.3209L443.226 65.1009L443.676 65.2509L444.236 65.8909L443.766 66.4009L442.946 66.8209L442.566 67.3609L442.656 68.0609L442.956 68.4709L443.476 68.7209L444.046 68.6909L444.536 68.3909L444.816 67.8909L446.276 62.5609L446.246 62.1109L445.806 62.0509L445.246 62.0709L444.846 61.9009L444.576 61.3909L447.526 58.2209L447.776 58.1809L448.336 57.6609L448.686 56.5509L448.566 55.7509L447.776 55.5309H446.886L445.086 55.1709L443.316 54.3109L442.746 53.6309L442.696 52.7409L443.996 48.7109L445.786 44.7309L447.626 41.7309L449.846 39.1109L452.476 36.8809L455.666 36.4609L456.926 36.5709L457.966 36.9109ZM443.826 124.251L435.176 131.741L434.006 132.751L430.086 135.841L428.446 137.521L427.126 139.181L426.096 140.841L425.286 142.601L424.766 144.331L424.506 146.151L424.646 148.791L424.876 149.501L425.306 150.121L425.886 150.581L426.586 150.851L427.886 151.291L429.446 152.101L431.186 152.981L432.676 153.381L433.296 153.431L446.436 153.521L459.756 153.291L460.406 153.171L460.996 152.871L461.456 152.401L461.766 151.811L462.286 149.791L462.446 147.781L462.216 145.611L461.566 143.441L457.536 133.221L456.276 128.961L455.736 124.671L455.746 122.221L455.616 121.861L455.966 121.641L453.106 121.091L450.226 121.201L448.586 121.221L446.876 121.331L446.226 121.671L445.546 122.291L443.826 124.251Z" fill="#14342F"/>
<path d="M452.478 36.8809L449.848 39.1109L447.628 41.7309L445.788 44.7309L443.998 48.7109L442.698 52.7409L442.748 53.6309L443.318 54.3109L445.088 55.1709L446.888 55.5309H447.778L448.568 55.7509L448.688 56.5509L448.338 57.6609L447.778 58.1809L447.528 58.2209L447.848 57.1709L447.718 56.3309L447.688 56.2609L447.368 55.9109L446.908 55.7709L444.168 55.4109L442.708 54.8109L441.968 53.9409L441.918 53.7809L441.898 52.8009L442.218 51.3909L443.828 47.1009L445.868 43.3909L448.328 40.2709L451.208 37.7309L452.478 36.8809Z" fill="#7EAFAC"/>
<path d="M461.269 38.6502L457.969 36.9102L459.519 37.2902L460.719 38.0402L461.269 38.6502Z" fill="#7EAFAC"/>
<path d="M463.5 42.75L463.23 47.09L462.65 49.98L461.75 52.83L461.35 53.62L460.88 54.14L460.1 54.53L458.83 54.79L458.5 54.84L458.11 54.99L457.82 55.39L457.69 56.02L457.61 56.74L457.98 57.78L458.74 59L459.64 60.64L460.63 63.3L461.84 66.88L461.96 67.5L462.8 73.23L463.3 76.4L464.22 78.8L467.29 83.82L470.31 87.75L473.3 90.59L474.75 91.58L476.24 92.32L476.74 92.51L479.45 93.81L480.19 94.47L480.66 95.29L480.73 96.63L480.54 97.11L480.23 97.43L478.84 98.75L477.95 100.1L477.37 100.46L476.91 100.31L476.9 100.3L480.15 96.39L480.33 95.96L480.2 95.52L479.39 94.56L477.91 93.63L475.1 92.36L473.18 91.12L472.34 90.38L469.25 87.08L466.57 83.58L464.47 80.13L462.95 76.72L462.4 74.56L461.82 71.02L461.12 67.1L460.15 63.5L458.36 59.52L456.59 55.69L456.52 55.4L456.57 54.78L456.89 54.24L457.41 53.89L458.03 53.8L459.41 53.73L460.36 53.3L461.17 52.28L461.75 50.47L462.39 48.49L462.44 48.37L462.78 47.01L462.59 45.55L462.41 44.49L462.53 43.74L462.87 43.23L463.5 42.75Z" fill="#7EAFAC"/>
<path d="M444.581 61.3906L444.851 61.9006L445.251 62.0706L445.811 62.0506L446.251 62.1106L446.281 62.5606L444.821 67.8906L444.541 68.3906L444.051 68.6906L443.481 68.7206L442.961 68.4706L442.661 68.0606L442.571 67.3606L442.951 66.8206L443.771 66.4006L444.451 66.4406L444.581 66.3006L444.621 66.0506L444.241 65.8906L443.681 65.2506L443.231 65.1006L442.931 65.3206L441.681 67.6806L441.401 68.0906L441.021 68.3006L438.621 68.5806L436.461 68.8006L435.121 69.4806L434.541 70.2606L434.161 71.4206L431.831 83.9706L431.751 85.5406L431.881 86.8706L432.251 88.0406L432.821 88.9806L433.991 89.9906L435.671 90.7006L437.911 91.1106L441.181 91.3006L441.611 91.3206L442.271 91.5806L442.161 92.2706L440.941 95.1106L440.101 98.3706L439.601 102.141L439.341 107.241L438.691 110.781L436.891 116.361L436.881 116.381L436.631 118.451L436.601 119.421L436.161 118.281L436.071 117.811L436.141 117.311L437.871 111.351L438.621 106.841L439.321 101.191L440.581 94.3106L440.861 93.4106L441.261 92.7806L441.611 92.0906L440.871 91.8606L435.791 91.5406L434.501 91.2206L433.561 90.6906L432.631 89.5906L431.761 87.6806L431.501 87.0506L431.211 85.7006L431.221 85.3006L432.191 77.7206L433.631 71.3806L434.361 69.6406L435.301 68.5806L436.771 67.9406L439.161 67.6706L439.791 67.6306L440.851 67.2306L441.521 66.3206L441.721 65.7906L442.911 63.4906L444.581 61.3906Z" fill="#7EAFAC"/>
<path d="M113.558 70.7698L113.288 70.9498L113.118 71.2398L111.958 76.0498L110.538 83.0598L109.748 87.0298L92.3181 168.74L91.6881 170.31L90.5781 171.58L89.0981 172.41L87.4381 172.69L69.3281 172.68L85.2681 172.33L87.0081 172.24L88.3681 172L89.4781 171.57L90.4181 170.91L91.2981 169.74L91.8781 168.09L102.638 118.19L112.998 68.7798L113.248 68.2598L113.588 68.7298L113.738 69.6298L113.558 70.7698Z" fill="#7EAFAC"/>
<path d="M117.206 88.3407L113.566 71.6307V71.4807L113.616 71.3807L113.736 71.2707L113.836 71.2207L117.206 88.3407Z" fill="#7EAFAC"/>
<path d="M459.76 85.7695L459.72 86.4495L459.68 86.3095L459.76 85.7695Z" fill="#14342F"/>
<path d="M354.059 91.3008L354.519 96.1808L355.179 101.011L356.039 105.801L357.099 110.531L358.479 115.601L360.099 120.621L361.949 125.571L364.039 130.471L361.839 125.991L359.909 121.441L358.259 116.811L356.879 112.121L355.709 107.041L354.849 101.871L354.299 96.6308L354.059 91.3008Z" fill="#7EAFAC"/>
<path d="M475.26 99.8706L474.13 99.3706L473.56 98.9406L471.85 96.8906L469.83 94.9806L467.49 93.2006L464.84 91.5605L467.72 93.0106L470.41 94.6106L471.72 95.6606L472.97 97.0905L475.26 99.8706Z" fill="#7EAFAC"/>
<path d="M272.35 103.74L272.95 141.2L272.94 156.5L272.73 169.51L272.55 170.64L272.07 171.51L270.84 172.33L268.98 172.62L247.86 172.73L232.3 172.67L230.09 172.34L229.28 171.95L228.64 171.4L228.09 170.45L227.84 169.19L228.02 169.26L228.41 169.86L228.47 170.05L228.94 170.9L229.64 171.55L230.5 171.96L231.43 172.1L268.4 172.35L269.49 172.22L270.37 171.84L271.23 171L271.79 169.87L272.12 168.39L272.2 166.62L271.93 150.86L271.86 135.13L272 119.42L272.35 103.74Z" fill="#7EAFAC"/>
<path d="M156.209 104.42L156.829 105.96L156.809 107.55L156.199 105.97L156.209 104.42Z" fill="#7EAFAC"/>
<path d="M455.968 121.64L447.168 122.04L446.708 122.14L446.288 122.37L443.828 124.25L445.548 122.29L446.228 121.67L446.878 121.33L448.588 121.22L450.228 121.2L453.108 121.09L455.968 121.64Z" fill="#7EAFAC"/>
<path d="M455.752 122.221L455.742 124.671L456.282 128.961L457.542 133.221L461.572 143.441L462.222 145.611L462.452 147.781L462.292 149.791L461.772 151.811L461.462 152.401L461.002 152.871L460.412 153.171L459.762 153.291L446.442 153.521L433.302 153.431L432.682 153.381L431.192 152.981L429.452 152.101L427.892 151.291L426.592 150.851L425.892 150.581L425.312 150.121L424.882 149.501L424.652 148.791L424.512 146.151L424.772 144.331L425.292 142.601L426.102 140.841L427.132 139.181L428.452 137.521L430.092 135.841L434.012 132.751L432.062 135.001L431.792 135.831L432.202 136.601L432.222 136.621L435.332 138.821L438.542 140.681L441.842 142.201L445.252 143.381L448.722 144.211L452.302 144.701L455.962 144.861L459.732 144.691L459.862 144.671L460.302 144.481L460.632 144.121L460.782 143.661L460.732 143.181L458.852 138.071L457.372 134.181L456.442 131.181L455.842 128.441L455.552 125.781L455.472 125.261L455.302 124.841L455.012 124.051L455.022 123.321L455.272 122.741L455.752 122.221Z" fill="#7EAFAC"/>
<path d="M364.701 131.441L369.351 139.091L370.371 141.521L370.661 143.411L370.991 155.361L370.781 168.291L370.421 170.441L370.061 171.191L369.541 171.801L368.451 172.401L366.921 172.621L330.791 172.691L327.961 172.611L326.161 172.361L325.271 171.981L324.561 171.351L324.091 170.531L323.921 169.621L323.801 160.251L324.051 163.241L324.151 168.231L324.331 169.561L324.841 170.591L325.651 171.361L326.691 171.871L327.971 172.181L329.601 172.291L365.991 172.331L367.491 172.031L368.761 171.181L369.611 169.901L369.911 168.401L370.031 144.481L369.941 142.651L369.621 140.991L369.071 139.521L368.291 138.231L367.261 136.731L365.841 134.181L364.701 131.441Z" fill="#7EAFAC"/>
<path d="M511.837 154.01L508.727 156.56L505.387 159.02L501.797 161.38L497.967 163.65L491.417 167.03L484.747 169.86L477.967 172.13L471.067 173.85L465.007 174.9L458.847 175.54L452.607 175.75L446.287 175.56L437.817 174.7L434.277 174.07L431.207 173.3L428.287 172.46L422.357 170.66L418.237 169L411.397 165.65L406.507 163L401.637 159.82L396.137 155.63L395.527 154.78L395.857 154.64L396.017 154.74L396.287 155.04L403.107 160.09L410.167 164.43L417.467 168.04L425.007 170.94L431.167 172.73L437.477 174.06L443.937 174.94L450.547 175.37L457.067 175.29L463.747 174.66L470.397 173.47L476.097 172.04L481.587 170.35L487.007 168.36L492.127 166.14L497.027 163.67L501.567 161.02L505.907 158.09L509.837 155.02L510.897 154.3L511.837 154.01Z" fill="#7EAFAC"/>
<path d="M97.0681 202.831L96.8181 187.761L96.5581 186.561L95.8681 185.541L94.8381 184.871L93.6281 184.641L52.8281 184.961L55.0881 184.271L56.2481 183.931L57.3581 183.811H91.0481L92.6081 183.921L93.9681 184.231L95.1181 184.751L96.0681 185.481L96.7581 186.331L97.2781 187.361L97.6281 188.561L97.7981 189.941L97.8981 193.601L97.7581 197.241L97.0681 202.831Z" fill="#7EAFAC"/>
<path d="M268.189 187.73L266.839 185.8L266.059 185.2L265.209 184.83L264.279 184.7H217.809L219.349 183.99L220.799 183.75L263.149 183.84L264.919 184.11L266.339 184.83L267.449 186.04L268.189 187.73Z" fill="#7EAFAC"/>
<path d="M424.647 289.74L424.787 290.86L424.587 291.51L424.227 291.72L423.987 291.38L408.437 238.84L393.007 188.06L392.307 186.52L391.277 185.44L389.957 184.81L388.327 184.61L362.887 184.69L339.577 184.44L338.227 184.54L337.097 184.89L334.867 186.22L336.107 185.14L337.797 184.37L339.947 183.91L342.537 183.75L362.537 183.73L382.537 183.75L389.017 183.91L390.237 184.31L391.297 184.92L392.167 185.68L392.897 186.62L393.977 189.03L412.917 252.35L416.367 264.24L417.027 266.31L420.277 276.88L423.697 288.84L424.237 289.51L424.647 289.74Z" fill="#7EAFAC"/>
<path d="M512.259 185.35L510.649 184.76L509.279 184.57L484.189 184.61L459.059 184.42L462.209 183.98L466.059 183.79L506.539 183.75L508.419 183.85L509.999 184.15L511.279 184.65L512.259 185.35Z" fill="#7EAFAC"/>
<path d="M459.062 184.42L484.192 184.61L509.282 184.57L510.652 184.76L512.262 185.35L512.512 185.7L513.122 187.29L513.322 188.73L513.162 259.4L513.412 347.25L513.692 348.39L514.222 348.8L515.092 348.56L516.512 348.35L517.282 348.72L518.042 348.81L519.132 348.44L530.432 348.42L532.302 348.49L533.822 348.81L534.992 349.37L535.812 350.17L536.222 351.02L536.392 352.73L535.842 354.22L535.252 354.9L534.462 355.42L533.612 355.73L532.632 355.86L528.812 355.99L10.2816 355.89L7.72155 355.71L5.51156 355.16L4.78157 353.66L4.40156 352.37L4.35156 351.29L4.65156 350.42L5.18156 349.83L5.97155 349.41L8.29156 349.02L23.4216 348.75L38.5416 348.77L51.6816 348.59L52.1916 348.74L52.2916 348.72L52.5616 348.45L52.7916 347.76L52.8316 184.96L93.6316 184.64L94.8416 184.87L95.8716 185.54L96.5616 186.56L96.8216 187.76L97.0716 202.83L97.0616 347.32L97.1716 347.78L97.5216 348.12L99.0816 348.64L101.292 348.81L135.522 348.29L139.002 348.63L145.442 348.77L151.922 348.31H154.032L156.522 348.79L158.892 348.64L159.872 348.38L160.292 348.13L160.512 347.75L200.762 228.7L200.942 227.72L201.362 227.08L207.962 208.06L214.282 188.96L215.302 187.12L216.152 185.72L216.862 185.16L217.812 184.7H264.282L265.212 184.83L266.062 185.2L266.842 185.8L268.192 187.73L268.252 187.68L268.422 188.02L270.802 195.6L290.142 253.71L310.772 314.35L319.712 339.88L320.952 343.48L322.132 347.59L322.552 348.29L323.292 348.66L323.742 348.73L326.372 348.85L329.082 348.42L329.072 348.39L329.512 348.33L330.252 348.59L330.852 348.27L332.192 348.78L333.332 348.7L333.732 348.5L334.072 348.13L334.312 347.51L334.512 345.48L334.712 280.93L334.602 216.36L334.872 186.22L337.102 184.89L338.232 184.54L339.582 184.44L362.892 184.69L388.332 184.61L389.962 184.81L391.282 185.44L392.312 186.52L393.012 188.06L408.442 238.84L423.992 291.38L424.232 291.72L424.592 291.51L424.792 290.86L424.652 289.74L424.682 289.48L426.942 282.68L429.872 272.89L431.562 267.2L440.682 237.23L451.522 201.23L452.612 197.51L454.322 191.73L455.742 187.73L455.772 187.66L456.482 186.45L457.692 185.1L458.072 184.71L458.702 184.41L459.062 184.42ZM225.102 286.59L224.752 286.7L224.622 286.59L224.332 287.02L224.312 287.1L224.422 287.48L224.782 287.65H257.202L257.302 287.64L257.742 287.35L257.802 286.82L241.772 236.25L241.622 235.25L241.252 234.62L241.432 234.09L241.332 233.69L240.922 233.65L240.712 233.74L240.372 234.3L237.952 243.31L230.702 266.65L224.362 286.23L224.352 286.33L225.102 286.59ZM377.062 348.85H377.182L377.832 348.65L384.802 348.86L391.762 348.8L400.812 348.33L403.422 348.68L405.042 348.67L405.662 348.34L405.802 347.71L405.522 346.76L376.752 251.46L376.582 251.01L376.552 249.38L376.082 248L375.572 247.28L375.062 246.96L374.942 247.54L375.332 260.25L375.232 347.3L375.322 348.06L375.592 348.54L375.692 348.63L376.282 348.87L377.062 348.85ZM471.132 251.69L470.432 253.96L456.812 299.4L455.622 303.3L444.462 340.32L442.302 347.78L442.292 348.44L442.562 348.77L443.112 348.62L471.682 348.51L472.012 348.49L472.292 348.33L472.402 348.02L472.542 251.61L472.382 251.16L472.392 251.08L472.772 249.5L472.702 248.02L472.572 247.54L472.392 247.25L472.232 247.55L471.132 251.69ZM208.072 339.27L205.802 346.2L205.132 347.62L205.182 348.41L205.502 348.57L206.032 348.55L208.792 348.83L234.972 348.69L263.462 348.76L269.102 348.49L271.532 348.47L274.782 348.77L275.532 348.68L276.762 348.24L277.142 348.29L277.362 348.04L277.372 347.82L268.612 320.84L268.082 320.07L267.202 319.82H215.302L214.222 320.17L213.572 321.1L208.072 339.27Z" fill="#14342F"/>
<path d="M458.07 184.711L457.69 185.101L456.48 186.451L455.77 187.661L455.74 187.731L454.32 191.731L452.61 197.511L451.52 201.231L440.68 237.231L431.56 267.201L429.87 272.891L426.94 282.681L424.68 289.481L426.88 281.061L432.02 264.101L441.12 233.671L446.9 214.531L454.43 189.391L455.11 187.651L456.03 186.151L457.05 185.141L458.07 184.711Z" fill="#7EAFAC"/>
<path d="M216.149 185.721L215.299 187.121L214.279 188.961L207.959 208.061L201.359 227.081L208.309 205.421L214.149 188.101L214.879 186.861L216.149 185.721Z" fill="#7EAFAC"/>
<path d="M515.092 348.561L514.222 348.801L513.692 348.391L513.412 347.251L513.162 259.401L513.322 188.731L513.122 187.291L512.512 185.701L513.122 186.301L513.542 187.491L513.702 194.981L513.792 345.231L514.062 347.101L514.872 348.381L515.092 348.561Z" fill="#7EAFAC"/>
<path d="M268.422 188.02L269.522 190.27L294.862 266.24L299.072 278.47L305.962 298.6L310.592 312.01L314.872 324.27L319.012 336.85L322.002 344.78L322.842 346.85L323.172 347.29L323.672 347.52L329.082 348.42L326.372 348.85L323.742 348.73L323.292 348.66L322.552 348.29L322.132 347.59L320.952 343.48L319.712 339.88L310.772 314.35L290.142 253.71L270.802 195.6L268.422 188.02Z" fill="#7EAFAC"/>
<path d="M333.728 348.501L333.688 283.801L333.878 219.231L334.068 217.511L334.598 216.361L334.708 280.931L334.508 345.481L334.307 347.511L334.068 348.131L333.728 348.501Z" fill="#7EAFAC"/>
<path d="M200.757 228.701L160.507 347.751L160.287 348.131L159.867 348.381L158.887 348.641L156.517 348.791L154.027 348.311L158.877 347.551L159.857 347.101L160.467 346.221L178.157 294.861L195.377 243.271L198.047 235.991L200.757 228.701Z" fill="#7EAFAC"/>
<path d="M241.252 234.62L240.382 236.23L239.872 237.57L236.362 250.05L232.302 263.7L228.032 277.29L225.102 286.59L224.352 286.33L224.362 286.23L230.702 266.65L237.952 243.31L240.372 234.3L240.712 233.74L240.922 233.65L241.332 233.69L241.432 234.09L241.252 234.62Z" fill="#7EAFAC"/>
<path d="M224.749 286.7L255.939 286.62L256.069 286.61L256.689 286.21L256.789 285.47L241.769 236.25L257.799 286.82L257.739 287.35L257.299 287.64L257.199 287.65H224.779L224.419 287.48L224.309 287.1L224.329 287.02L224.619 286.59L224.749 286.7Z" fill="#7EAFAC"/>
<path d="M376.578 251.011L376.168 251.041L375.927 251.731L375.888 263.981L375.777 346.701L376.008 347.411L377.057 348.851L376.277 348.871L375.688 348.631L375.587 348.541L375.318 348.061L375.228 347.301L375.328 260.251L374.938 247.541L375.057 246.961L375.568 247.281L376.078 248.001L376.548 249.381L376.578 251.011Z" fill="#7EAFAC"/>
<path d="M472.389 251.08L471.989 250.96L471.849 251.05L471.669 251.5L471.789 251.66L471.129 251.69L472.229 247.55L472.389 247.25L472.569 247.54L472.699 248.02L472.769 249.5L472.389 251.08Z" fill="#7EAFAC"/>
<path d="M472.54 251.611L472.4 348.021L472.29 348.331L472.01 348.491L471.68 348.511L471.79 251.661L472.54 251.611Z" fill="#7EAFAC"/>
<path d="M470.429 253.961L466.829 267.471L463.469 278.931L454.339 308.671L442.969 346.831L442.759 347.701L443.109 348.621L442.559 348.771L442.289 348.441L442.299 347.781L444.459 340.321L455.619 303.301L456.809 299.401L470.429 253.961Z" fill="#7EAFAC"/>
<path d="M276.756 348.24L268.496 322.17L268.206 321.59L267.746 321.13L267.176 320.83L266.536 320.73H214.796L214.266 320.9L213.946 321.34L208.066 339.27L213.566 321.1L214.216 320.17L215.296 319.82H267.196L268.076 320.07L268.606 320.84L277.366 347.82L277.356 348.04L277.136 348.29L276.756 348.24Z" fill="#7EAFAC"/>
<path d="M205.799 346.201L206.029 348.551L205.499 348.571L205.179 348.411L205.129 347.621L205.799 346.201Z" fill="#7EAFAC"/>
<path d="M52.7897 347.76L52.5597 348.45L52.2897 348.72L52.1897 348.74L51.6797 348.59L52.1797 348.01L52.7897 347.76Z" fill="#7EAFAC"/>
<path d="M151.92 348.311L145.44 348.771L139 348.631L135.52 348.291L140.47 347.931L145.41 347.891L151.92 348.311Z" fill="#7EAFAC"/>
<path d="M400.81 348.33L391.76 348.8L384.8 348.86L377.83 348.65L377.75 348.3L377.84 347.99L378.14 347.87L380.68 347.77L390.73 347.75L400.81 348.33Z" fill="#7EAFAC"/>
<path d="M519.132 348.441L518.042 348.811L517.282 348.721L516.512 348.351L517.332 348.071L518.112 348.051L519.132 348.441Z" fill="#7EAFAC"/>
<path d="M5.51172 355.16L7.72171 355.71L10.2817 355.89L528.812 355.99L532.632 355.86L533.612 355.73L534.462 355.42L535.252 354.9L535.842 354.22L536.392 352.73L536.222 351.02L535.812 350.17L534.992 349.37L533.822 348.81L532.302 348.49L530.432 348.42L531.832 348.16L533.172 348.21L534.462 348.57L535.702 349.24L536.212 349.7L536.652 350.62L536.822 352.01L536.642 354.05L536.332 354.87L535.872 355.51L534.992 356.14L533.892 356.5L530.252 356.71H529.512L12.0417 356.67L11.2917 356.68L9.16171 356.64L7.64172 356.43L6.42172 355.97L5.61172 355.28L5.51172 355.16Z" fill="#7EAFAC"/>
<path d="M330.852 348.27L330.252 348.59L329.512 348.33L329.692 348.28L330.852 348.27Z" fill="#7EAFAC"/>
</g>
<defs>
<clipPath id="clip0_777_28689">
<rect width="543" height="357" fill="white"/>
</clipPath>
</defs>
</svg>
