<svg width="543" height="357" viewBox="0 0 543 357" fill="none" xmlns="http://www.w3.org/2000/svg">
<path d="M511.839 154.01L511.329 153.49L511.039 153.44L475.899 153.28L475.219 153.2L474.899 152.95L474.929 152.55L475.329 151.99L476.359 150.38L477.639 147.55L477.659 147.08L477.279 146.83L476.529 146.88L475.399 147.31L473.979 147.87L472.749 148.15L471.599 148.16L470.619 147.9L469.529 147.15L468.649 146.02L467.859 144.38L467.089 142.09L466.449 138.74L464.829 122.48L464.939 120.35L465.639 117.38L465.689 116.74L465.609 116.45L463.509 111.31L461.299 105.8L460.219 101.63L459.619 97.41L459.259 93.43L459.149 89.67L459.279 86.15L459.439 85.23L459.739 84.85L460.189 85.02L460.789 85.75L462.469 88.78L461.209 87.58L460.139 85.87L459.999 85.72L459.759 85.77L459.679 86.31L459.719 86.45L459.829 94.29V94.3L459.959 96.49L460.389 99.14L460.819 101.84L461.599 105.23L463.479 109.7L465.469 114.49L465.979 116.4L466.239 118.2L466.169 118.69L465.929 119.04L465.369 119.75L465.159 120.47L465.169 120.73L466.249 130.3L467.129 140.17L467.399 141.17L468.039 142.21L468.699 142.62L469.479 142.5L473.319 140.04L476.979 137.1L481.129 133.07L484.819 128.8L488.049 124.29L490.799 119.53L493.039 114.68L494.829 109.6L496.189 104.29L497.099 98.76L497.679 92.34L497.869 85.85L497.669 79.26L497.069 72.6L496.279 67.82L495.039 63.05L493.179 57.7L491.059 52.91L488.629 48.54L485.799 44.45L483.549 41.74L481.049 39.15L478.309 36.66L475.289 34.28L472.059 32.11L468.789 30.38L465.479 29.09L462.129 28.23L458.769 27.73L455.369 27.51L452.049 27.56L448.739 27.88L445.559 28.46L442.449 29.32L439.509 30.41L436.669 31.78L431.269 35.04L429.109 36.64L427.289 38.23L424.769 40.81L422.429 43.51L420.289 46.33L418.349 49.26L415.839 53.77L413.749 58.52L412.069 63.53L410.789 68.79L410.059 73L409.519 77.29L409.199 81.54L409.089 85.82L409.179 90L409.479 94.18L409.979 98.23L410.699 102.25L411.599 106.11L412.709 109.9L413.999 113.51L415.509 117.03L417.169 120.33L419.029 123.51L421.039 126.49L423.259 129.34L424.149 130.13L425.089 130.46L426.249 130.29L427.439 129.53L427.649 129.34L432.199 124.95L436.399 120.18L436.389 120.83L436.129 121.33L431.249 126.9L426.809 131.16L422.299 134.59L417.579 137.27L417.119 137.53L416.279 138.25L415.539 139.32L414.429 142.45L414.259 143.05L414.289 143.64L414.889 143.65L416.439 143.14L416.759 143.07L417.559 143.14L418.259 143.54L418.709 144.2L418.849 144.99L418.919 146.95L419.329 148.81L420.429 151.17L422.149 153.33L422.379 153.77L421.909 153.93L408.409 154.06L395.529 153.76L395.289 153.81L395.069 154.3L393.229 152.76L391.099 150.66L386.809 145.89L382.809 140.86L379.179 135.65L376.009 130.39L373.239 124.98L370.939 119.59L369.049 114.04L367.649 108.57L366.379 101.29L365.649 93.78L365.449 86.06L365.799 78.11L366.339 73.42L367.259 68.62L368.559 63.7L370.229 58.67L373.039 51.72L376.199 45.31L379.729 39.4L383.639 33.95L386.189 30.86L388.939 27.85L393.589 23.33L398.459 19.2L403.559 15.46L408.879 12.11L413.909 9.41L419.119 7.03L424.519 4.97L430.099 3.23001L435.749 1.86002L441.469 0.870026L447.329 0.240021L453.209 0L459.099 0.150024L464.959 0.680023L470.769 1.58002L476.499 2.86002L482.119 4.5L487.609 6.5L492.869 8.83002L497.979 11.49L502.869 14.48L507.549 17.81L511.949 21.4L516.099 25.31L521.159 30.82L525.699 36.59L529.689 42.63L533.159 48.93L535.019 52.93L536.679 57.02L538.139 61.21L539.399 65.51L540.459 69.9L541.309 74.39L541.969 78.98L542.429 83.67L542.499 88.53L541.989 95.17L541.909 95.95L541.379 100.4L540.649 104.76L539.739 109.01L538.639 113.16L537.339 117.22L535.859 121.17L534.179 125.01L532.309 128.76L528.229 135.62L523.459 142.12L517.999 148.25L511.839 154.01Z" fill="#7EAFAC"/>
<path d="M43.5992 1.74118L45.4092 2.18118L46.8892 3.04117L47.3292 3.43118L48.2092 4.81116L48.8392 6.92117L62.6492 76.7212L65.2092 90.8512L66.7792 98.7712L68.8392 106.751L69.3092 108.851L69.1092 110.611L69.2692 112.031L69.5692 112.601L69.8492 112.011L92.9092 5.02118L93.3692 3.53116L94.1992 2.52118L95.0992 2.06116L96.2092 1.89117L113.499 1.70117L130.719 1.76117L131.979 2.41116L132.929 3.11118L133.569 3.85117L133.899 4.65118L142.539 44.3712L151.439 84.0412L152.839 91.0712L153.779 95.1112L154.979 99.0912L156.209 104.421L156.199 105.971L156.809 107.551V107.961L157.069 108.771L156.869 110.391L157.109 111.681L157.419 112.081L157.639 111.641L165.589 73.8012L179.699 4.86118L179.709 4.81116L180.069 3.97116L180.749 3.20117L181.759 2.50116L183.089 1.87119L203.509 1.72116L224.039 1.89117L227.239 2.73117L226.279 9.05118L224.609 15.4412L221.739 24.5612L200.949 99.7612L190.679 137.761L184.959 158.551L183.639 164.121L182.779 167.621L181.969 169.621L181.109 170.691L180.089 171.461L178.899 171.921L177.549 172.081L154.009 172.201L139.589 172.091L138.479 171.941L137.559 171.571L136.439 170.661L135.539 169.221L134.879 167.351L134.319 164.671L133.949 162.861L128.189 138.481L122.589 112.201L117.569 89.4012L117.209 88.3412L113.839 71.2212L113.779 71.2512L113.559 70.7712L113.739 69.6312L113.589 68.7312L113.249 68.2612L112.999 68.7812L102.639 118.191L91.8792 168.091L91.2992 169.741L90.4192 170.911L89.4792 171.571L88.3692 172.001L87.0092 172.241L85.2692 172.331L69.3292 172.681L55.9992 172.691L51.3092 172.341L49.7892 172.331L47.3792 172.021L46.4592 171.611L45.7392 171.031L45.1192 170.201L44.5392 169.031L43.5892 165.721L43.2892 164.481L11.8692 46.1512L0.599213 6.01117L0.449219 5.39117L0.519211 4.60117L1.27922 2.47116L4.35922 1.93118L8.53922 1.74118H43.5992Z" fill="#14342F"/>
<path d="M68.8396 106.75L66.7796 98.7702L65.2096 90.8502L62.6496 76.7202L48.8396 6.92023L48.2096 4.81021L47.3296 3.43024L46.8896 3.04022L45.4096 2.18024L43.5996 1.74023L45.4696 1.77023L46.9896 2.35022L47.7696 3.01022L48.4196 3.88022L48.9196 4.98022L49.2796 6.30023L59.6596 58.7502L61.5096 68.3402L68.8396 106.75Z" fill="#7EAFAC"/>
<path d="M154.979 99.0898L153.779 95.1098L152.839 91.0698L151.439 84.0398L142.539 44.3698L133.899 4.64978L133.569 3.84976L132.929 3.10977L131.979 2.40976L130.719 1.75977L132.539 1.94977L133.749 2.68976L134.359 3.91977L137.369 18.2698L141.969 39.5398L142.539 41.9298L147.879 65.3898L151.409 81.1898L153.299 90.0998L154.979 99.0898Z" fill="#7EAFAC"/>
<path d="M323.808 67.7013L324.078 68.1513L323.588 68.4313L322.278 68.5312L273.248 68.5713L272.568 68.2913L272.278 67.6013L272.088 34.1413L272.338 5.50125L272.188 4.48126L271.658 3.51126L270.818 2.77127L269.668 2.23126L268.378 2.02127L255.318 1.82126L243.698 2.23126L243.028 2.38126L242.428 2.72125L241.968 3.23126L241.678 3.85126L236.238 22.4113L229.898 43.1413L228.948 45.3613L228.158 47.0912L227.748 48.5612L227.628 50.0213L227.768 168.451L227.728 168.261L227.008 164.801L226.788 162.131L226.818 118.941L226.768 61.3513L226.738 57.9713L226.758 52.9013L227.148 49.6113L228.208 45.9813L230.328 40.1313L233.598 28.7913L236.428 19.8713L239.308 9.73126L240.448 6.00125L241.748 2.63126L242.258 2.01126L243.028 1.78125H268.548L270.388 2.04126L271.708 2.83127L272.498 4.15128L272.758 5.99127V67.4313L273.018 67.6913L323.808 67.7013Z" fill="#7EAFAC"/>
<path d="M367.019 1.75977L367.269 2.28976L367.609 2.53976L367.689 2.54977L368.579 2.82977L369.289 3.41977L369.709 4.24976L369.779 5.16977L369.769 5.22977L369.609 7.77975L369.909 10.2198L370.019 23.2198L369.389 35.5798L365.739 41.2798L362.579 47.1198L359.909 53.1198L357.739 59.2798L356.179 65.0198L355.039 70.8898L354.309 76.8798L353.989 82.9998L354.059 91.2998L354.299 96.6298L354.849 101.87L355.709 107.04L356.879 112.12L358.259 116.81L359.909 121.44L361.839 125.99L364.039 130.47L364.219 130.63L364.699 131.44L365.839 134.18L367.259 136.73L368.289 138.23L369.069 139.52L369.619 140.99L369.939 142.65L370.029 144.48L369.909 168.4L369.609 169.9L368.759 171.18L367.489 172.03L365.989 172.33L329.599 172.29L327.969 172.18L326.689 171.87L325.649 171.36L324.839 170.59L324.329 169.56L324.149 168.23L324.049 163.24L323.799 160.25L323.669 104.35L323.549 103.99L323.169 103.86L272.349 103.74L271.999 119.42L271.859 135.13L271.929 150.86L272.199 166.62L272.119 168.39L271.789 169.87L271.229 171L270.369 171.84L269.489 172.22L268.399 172.35L231.429 172.1L230.499 171.96L229.639 171.55L228.939 170.9L228.469 170.05L228.409 169.86L228.019 169.26L227.839 169.19L227.729 168.47L227.769 168.45L227.629 50.0198L227.749 48.5598L228.159 47.0898L228.949 45.3598L229.899 43.1398L236.239 22.4098L241.679 3.84976L241.969 3.22977L242.429 2.71976L243.029 2.37976L243.699 2.22977L255.319 1.81976L268.379 2.01978L269.669 2.22977L270.819 2.76978L271.659 3.50977L272.189 4.47977L272.339 5.49976L272.089 34.1398L272.279 67.5998L272.569 68.2898L273.249 68.5698L322.279 68.5298L323.589 68.4298L324.079 68.1498L323.809 67.6998L323.839 5.30975L324.099 3.97977L324.859 2.84976L325.989 2.08975L327.319 1.82977L367.019 1.75977Z" fill="#14342F"/>
<path d="M369.91 10.2198L369.61 7.77975L369.77 5.22977L369.78 5.16977L369.71 4.24976L369.29 3.41977L368.58 2.82977L367.69 2.54977L367.61 2.53976L367.27 2.28976L367.02 1.75977L367.86 1.84976L368.59 2.13977L369.71 3.21976L370.44 4.99976L370.48 6.99976L369.91 10.2198Z" fill="#7EAFAC"/>
<path d="M183.089 1.87109L181.759 2.50107L180.749 3.20108L180.069 3.97107L179.709 4.81107L179.699 4.86108L165.589 73.8011L157.639 111.641L157.419 112.081L157.109 111.681L156.869 110.391L157.069 108.771L157.959 107.041L158.709 104.201L167.919 59.2811L172.109 39.5511L179.099 5.04108L179.769 3.51108L181.109 2.44107L183.089 1.87109Z" fill="#7EAFAC"/>
<path d="M117.568 89.4009L122.588 112.201L128.188 138.481L133.948 162.861L134.318 164.671L134.878 167.351L135.538 169.221L136.438 170.661L137.558 171.571L138.478 171.941L139.588 172.091L154.008 172.201L177.548 172.081L178.898 171.921L180.088 171.461L181.108 170.691L181.968 169.621L182.778 167.621L183.638 164.121L184.958 158.551L190.678 137.761L200.948 99.7609L221.738 24.5609L224.608 15.4409L226.278 9.05093L227.238 2.73093L227.368 2.71094L227.578 3.06091L227.648 3.98093L227.528 5.85092L226.978 8.48093L221.988 25.4609L217.208 42.6309L211.958 61.9209L195.638 121.401L183.008 168.441L182.098 170.041L180.178 171.831L178.528 172.571L176.188 172.751L143.788 172.761L138.328 172.471H138.318L137.628 172.281L136.958 171.821L135.688 170.091L134.408 167.341L133.128 163.001L129.698 146.451L124.998 126.001L122.708 115.331L120.648 105.641L118.958 97.5609L117.568 89.4009Z" fill="#7EAFAC"/>
<path d="M1.28 2.4707L0.519989 4.60071L0.449997 5.39072L0.599991 6.01071L0.159988 5.3407L0 4.66071L0.299988 3.57071L1.28 2.4707Z" fill="#7EAFAC"/>
<path d="M69.3094 108.85L70.1494 107.95L70.5294 107.18L76.9594 76.1195L81.0994 57.3595L85.1294 38.5595L90.4094 13.9095L91.3694 9.99951L92.9094 5.01953L69.8494 112.01L69.5694 112.6L69.2694 112.03L69.1094 110.61L69.3094 108.85Z" fill="#7EAFAC"/>
<path d="M55.9996 172.69L48.2096 172.63L47.4696 172.5L46.0196 171.72L44.7496 170.26L43.6596 168.06L42.7996 165.23L39.0396 149.62L19.4196 76.0898L0.619614 7.41977L0.599609 6.00977L11.8696 46.1498L43.2896 164.48L43.5896 165.72L44.5396 169.03L45.1196 170.2L45.7396 171.03L46.4596 171.61L47.3796 172.02L49.7896 172.33L51.3096 172.34L55.9996 172.69Z" fill="#7EAFAC"/>
<path d="M369.388 35.5801L366.298 41.1501L364.838 43.6601L361.778 50.0201L359.228 56.5601L357.228 63.1601L355.758 69.9101L355.118 74.1801L354.678 78.5001L354.568 79.6401L353.988 83.0001L354.308 76.8801L355.038 70.8901L356.178 65.0201L357.738 59.2801L359.908 53.1201L362.578 47.1201L365.738 41.2801L369.388 35.5801Z" fill="#7EAFAC"/>
<path d="M457.968 36.9109L461.268 38.6509L462.858 40.0609L463.318 40.8209L463.548 41.6109L463.498 42.7509L462.868 43.2309L462.528 43.7409L462.408 44.4909L462.588 45.5509L462.778 47.0109L462.438 48.3709L462.388 48.4909L461.748 50.4709L461.168 52.2809L460.358 53.3009L459.408 53.7309L458.028 53.8009L457.408 53.8909L456.888 54.2409L456.568 54.7809L456.518 55.4009L456.588 55.6909L458.358 59.5209L460.148 63.5009L461.118 67.1009L461.818 71.0209L462.398 74.5609L462.948 76.7209L464.468 80.1309L466.568 83.5809L469.248 87.0809L472.338 90.3809L473.178 91.1209L475.098 92.3609L477.908 93.6309L479.388 94.5609L480.198 95.5209L480.328 95.9609L480.148 96.3909L476.898 100.301L475.258 99.8709L472.968 97.0909L471.718 95.6609L470.408 94.6109L467.718 93.0109L464.838 91.5609L462.468 88.7809L460.788 85.7509L460.188 85.0209L459.738 84.8509L459.438 85.2309L459.278 86.1509L459.148 89.6709L459.258 93.4309L459.618 97.4109L460.218 101.631L461.298 105.801L463.508 111.311L465.608 116.451L465.698 116.841L465.638 117.381L464.938 120.351L464.828 122.481L466.448 138.741L467.088 142.091L467.858 144.381L468.648 146.021L469.528 147.151L470.618 147.901L471.598 148.161L472.748 148.151L473.978 147.871L475.398 147.311L476.528 146.881L477.278 146.831L477.658 147.081L477.638 147.551L476.358 150.381L475.328 151.991L474.928 152.551L474.898 152.951L475.218 153.201L475.898 153.281L511.038 153.441L511.328 153.491L511.838 154.011L510.898 154.301L509.838 155.021L505.908 158.091L501.568 161.021L497.028 163.671L492.128 166.141L487.008 168.361L481.588 170.351L476.098 172.041L470.398 173.471L463.748 174.661L457.068 175.291L450.548 175.371L443.938 174.941L437.478 174.061L431.168 172.731L425.008 170.941L417.468 168.041L410.168 164.431L403.108 160.091L396.288 155.041L396.018 154.741L395.858 154.641L395.528 154.781L395.098 154.351L395.068 154.301L395.288 153.811L395.528 153.761L408.408 154.061L421.908 153.931L422.378 153.771L422.148 153.331L420.428 151.171L419.328 148.811L418.918 146.951L418.848 144.991L418.708 144.201L418.258 143.541L417.558 143.141L416.758 143.071L416.438 143.141L414.888 143.651L414.288 143.641L414.258 143.051L414.428 142.451L415.538 139.321L416.278 138.251L417.118 137.531L417.578 137.271L422.298 134.591L426.808 131.161L431.248 126.901L436.128 121.331L436.388 120.831L436.398 120.181L436.598 119.421L436.628 118.451L436.878 116.381L436.888 116.361L438.688 110.781L439.338 107.241L439.598 102.141L440.098 98.3709L440.938 95.1109L442.158 92.2709L442.268 91.5809L441.608 91.3209L441.178 91.3009L437.908 91.1109L435.668 90.7009L433.988 89.9909L432.818 88.9809L432.248 88.0409L431.878 86.8709L431.748 85.5409L431.828 83.9709L434.158 71.4209L434.538 70.2609L435.118 69.4809L436.458 68.8009L438.618 68.5809L441.018 68.3009L441.398 68.0909L441.678 67.6809L442.928 65.3209L443.228 65.1009L443.678 65.2509L444.238 65.8909L443.768 66.4009L442.948 66.8209L442.568 67.3609L442.658 68.0609L442.958 68.4709L443.478 68.7209L444.048 68.6909L444.538 68.3909L444.818 67.8909L446.278 62.5609L446.248 62.1109L445.808 62.0509L445.248 62.0709L444.848 61.9009L444.578 61.3909L447.528 58.2209L447.778 58.1809L448.338 57.6609L448.688 56.5509L448.568 55.7509L447.778 55.5309H446.888L445.088 55.1709L443.318 54.3109L442.748 53.6309L442.698 52.7409L443.998 48.7109L445.788 44.7309L447.628 41.7309L449.848 39.1109L452.478 36.8809L455.668 36.4609L456.928 36.5709L457.968 36.9109ZM443.828 124.251L435.178 131.741L434.008 132.751L430.088 135.841L428.448 137.521L427.128 139.181L426.098 140.841L425.288 142.601L424.768 144.331L424.508 146.151L424.648 148.791L424.878 149.501L425.308 150.121L425.888 150.581L426.588 150.851L427.888 151.291L429.448 152.101L431.188 152.981L432.678 153.381L433.298 153.431L446.438 153.521L459.758 153.291L460.408 153.171L460.998 152.871L461.458 152.401L461.768 151.811L462.288 149.791L462.448 147.781L462.218 145.611L461.568 143.441L457.538 133.221L456.278 128.961L455.738 124.671L455.748 122.221L455.618 121.861L455.968 121.641L453.108 121.091L450.228 121.201L448.588 121.221L446.878 121.331L446.228 121.671L445.548 122.291L443.828 124.251Z" fill="#14342F"/>
<path d="M452.478 36.8809L449.848 39.1109L447.628 41.7309L445.788 44.7309L443.998 48.7109L442.698 52.7409L442.748 53.6309L443.318 54.3109L445.088 55.1709L446.888 55.5309H447.778L448.568 55.7509L448.688 56.5509L448.338 57.6609L447.778 58.1809L447.528 58.2209L447.848 57.1709L447.718 56.3309L447.688 56.2609L447.368 55.9109L446.908 55.7709L444.168 55.4109L442.708 54.8109L441.968 53.9409L441.918 53.7809L441.898 52.8009L442.218 51.3909L443.828 47.1009L445.868 43.3909L448.328 40.2709L451.208 37.7309L452.478 36.8809Z" fill="#7EAFAC"/>
<path d="M461.269 38.6502L457.969 36.9102L459.519 37.2902L460.719 38.0402L461.269 38.6502Z" fill="#7EAFAC"/>
<path d="M463.5 42.75L463.23 47.09L462.65 49.98L461.75 52.83L461.35 53.62L460.88 54.14L460.1 54.53L458.83 54.79L458.5 54.84L458.11 54.99L457.82 55.39L457.69 56.02L457.61 56.74L457.98 57.78L458.74 59L459.64 60.64L460.63 63.3L461.84 66.88L461.96 67.5L462.8 73.23L463.3 76.4L464.22 78.8L467.29 83.82L470.31 87.75L473.3 90.59L474.75 91.58L476.24 92.32L476.74 92.51L479.45 93.81L480.19 94.47L480.66 95.29L480.73 96.63L480.54 97.11L480.23 97.43L478.84 98.75L477.95 100.1L477.37 100.46L476.91 100.31L476.9 100.3L480.15 96.39L480.33 95.96L480.2 95.52L479.39 94.56L477.91 93.63L475.1 92.36L473.18 91.12L472.34 90.38L469.25 87.08L466.57 83.58L464.47 80.13L462.95 76.72L462.4 74.56L461.82 71.02L461.12 67.1L460.15 63.5L458.36 59.52L456.59 55.69L456.52 55.4L456.57 54.78L456.89 54.24L457.41 53.89L458.03 53.8L459.41 53.73L460.36 53.3L461.17 52.28L461.75 50.47L462.39 48.49L462.44 48.37L462.78 47.01L462.59 45.55L462.41 44.49L462.53 43.74L462.87 43.23L463.5 42.75Z" fill="#7EAFAC"/>
<path d="M444.579 61.3906L444.849 61.9006L445.249 62.0706L445.809 62.0506L446.249 62.1106L446.279 62.5606L444.819 67.8906L444.539 68.3906L444.049 68.6906L443.479 68.7206L442.959 68.4706L442.659 68.0606L442.569 67.3606L442.949 66.8206L443.769 66.4006L444.449 66.4406L444.579 66.3006L444.619 66.0506L444.239 65.8906L443.679 65.2506L443.229 65.1006L442.929 65.3206L441.679 67.6806L441.399 68.0906L441.019 68.3006L438.619 68.5806L436.459 68.8006L435.119 69.4806L434.539 70.2606L434.159 71.4206L431.829 83.9706L431.749 85.5406L431.879 86.8706L432.249 88.0406L432.819 88.9806L433.989 89.9906L435.669 90.7006L437.909 91.1106L441.179 91.3006L441.609 91.3206L442.269 91.5806L442.159 92.2706L440.939 95.1106L440.099 98.3706L439.599 102.141L439.339 107.241L438.689 110.781L436.889 116.361L436.879 116.381L436.629 118.451L436.599 119.421L436.159 118.281L436.069 117.811L436.139 117.311L437.869 111.351L438.619 106.841L439.319 101.191L440.579 94.3106L440.859 93.4106L441.259 92.7806L441.609 92.0906L440.869 91.8606L435.789 91.5406L434.499 91.2206L433.559 90.6906L432.629 89.5906L431.759 87.6806L431.499 87.0506L431.209 85.7006L431.219 85.3006L432.189 77.7206L433.629 71.3806L434.359 69.6406L435.299 68.5806L436.769 67.9406L439.159 67.6706L439.789 67.6306L440.849 67.2306L441.519 66.3206L441.719 65.7906L442.909 63.4906L444.579 61.3906Z" fill="#7EAFAC"/>
<path d="M113.558 70.7698L113.288 70.9498L113.118 71.2398L111.958 76.0498L110.538 83.0598L109.748 87.0298L92.3181 168.74L91.6881 170.31L90.5781 171.58L89.0981 172.41L87.4381 172.69L69.3281 172.68L85.2681 172.33L87.0081 172.24L88.3681 172L89.4781 171.57L90.4181 170.91L91.2981 169.74L91.8781 168.09L102.638 118.19L112.998 68.7798L113.248 68.2598L113.588 68.7298L113.738 69.6298L113.558 70.7698Z" fill="#7EAFAC"/>
<path d="M117.208 88.3407L113.568 71.6307V71.4807L113.618 71.3807L113.738 71.2707L113.838 71.2207L117.208 88.3407Z" fill="#7EAFAC"/>
<path d="M459.76 85.7695L459.72 86.4495L459.68 86.3095L459.76 85.7695Z" fill="#14342F"/>
<path d="M354.059 91.3008L354.519 96.1808L355.179 101.011L356.039 105.801L357.099 110.531L358.479 115.601L360.099 120.621L361.949 125.571L364.039 130.471L361.839 125.991L359.909 121.441L358.259 116.811L356.879 112.121L355.709 107.041L354.849 101.871L354.299 96.6308L354.059 91.3008Z" fill="#7EAFAC"/>
<path d="M475.26 99.8706L474.13 99.3706L473.56 98.9406L471.85 96.8906L469.83 94.9806L467.49 93.2006L464.84 91.5605L467.72 93.0106L470.41 94.6106L471.72 95.6606L472.97 97.0905L475.26 99.8706Z" fill="#7EAFAC"/>
<path d="M272.35 103.74L272.95 141.2L272.94 156.5L272.73 169.51L272.55 170.64L272.07 171.51L270.84 172.33L268.98 172.62L247.86 172.73L232.3 172.67L230.09 172.34L229.28 171.95L228.64 171.4L228.09 170.45L227.84 169.19L228.02 169.26L228.41 169.86L228.47 170.05L228.94 170.9L229.64 171.55L230.5 171.96L231.43 172.1L268.4 172.35L269.49 172.22L270.37 171.84L271.23 171L271.79 169.87L272.12 168.39L272.2 166.62L271.93 150.86L271.86 135.13L272 119.42L272.35 103.74Z" fill="#7EAFAC"/>
<path d="M156.209 104.42L156.829 105.96L156.809 107.55L156.199 105.97L156.209 104.42Z" fill="#7EAFAC"/>
<path d="M455.968 121.64L447.168 122.04L446.708 122.14L446.288 122.37L443.828 124.25L445.548 122.29L446.228 121.67L446.878 121.33L448.588 121.22L450.228 121.2L453.108 121.09L455.968 121.64Z" fill="#7EAFAC"/>
<path d="M455.75 122.221L455.74 124.671L456.28 128.961L457.54 133.221L461.57 143.441L462.22 145.611L462.45 147.781L462.29 149.791L461.77 151.811L461.46 152.401L461 152.871L460.41 153.171L459.76 153.291L446.44 153.521L433.3 153.431L432.68 153.381L431.19 152.981L429.45 152.101L427.89 151.291L426.59 150.851L425.89 150.581L425.31 150.121L424.88 149.501L424.65 148.791L424.51 146.151L424.77 144.331L425.29 142.601L426.1 140.841L427.13 139.181L428.45 137.521L430.09 135.841L434.01 132.751L432.06 135.001L431.79 135.831L432.2 136.601L432.22 136.621L435.33 138.821L438.54 140.681L441.84 142.201L445.25 143.381L448.72 144.211L452.3 144.701L455.96 144.861L459.73 144.691L459.86 144.671L460.3 144.481L460.63 144.121L460.78 143.661L460.73 143.181L458.85 138.071L457.37 134.181L456.44 131.181L455.84 128.441L455.55 125.781L455.47 125.261L455.3 124.841L455.01 124.051L455.02 123.321L455.27 122.741L455.75 122.221Z" fill="#7EAFAC"/>
<path d="M364.699 131.441L369.349 139.091L370.369 141.521L370.659 143.411L370.989 155.361L370.779 168.291L370.419 170.441L370.059 171.191L369.539 171.801L368.449 172.401L366.919 172.621L330.789 172.691L327.959 172.611L326.159 172.361L325.269 171.981L324.559 171.351L324.089 170.531L323.919 169.621L323.799 160.251L324.049 163.241L324.149 168.231L324.329 169.561L324.839 170.591L325.649 171.361L326.689 171.871L327.969 172.181L329.599 172.291L365.989 172.331L367.489 172.031L368.759 171.181L369.609 169.901L369.909 168.401L370.029 144.481L369.939 142.651L369.619 140.991L369.069 139.521L368.289 138.231L367.259 136.731L365.839 134.181L364.699 131.441Z" fill="#7EAFAC"/>
<path d="M511.839 154.01L508.729 156.56L505.389 159.02L501.799 161.38L497.969 163.65L491.419 167.03L484.749 169.86L477.969 172.13L471.069 173.85L465.009 174.9L458.849 175.54L452.609 175.75L446.289 175.56L437.819 174.7L434.279 174.07L431.209 173.3L428.289 172.46L422.359 170.66L418.239 169L411.399 165.65L406.509 163L401.639 159.82L396.139 155.63L395.529 154.78L395.859 154.64L396.019 154.74L396.289 155.04L403.109 160.09L410.169 164.43L417.469 168.04L425.009 170.94L431.169 172.73L437.479 174.06L443.939 174.94L450.549 175.37L457.069 175.29L463.749 174.66L470.399 173.47L476.099 172.04L481.589 170.35L487.009 168.36L492.129 166.14L497.029 163.67L501.569 161.02L505.909 158.09L509.839 155.02L510.899 154.3L511.839 154.01Z" fill="#7EAFAC"/>
<path d="M97.0681 202.831L96.8181 187.761L96.5581 186.561L95.8681 185.541L94.8381 184.871L93.6281 184.641L52.8281 184.961L55.0881 184.271L56.2481 183.931L57.3581 183.811H91.0481L92.6081 183.921L93.9681 184.231L95.1181 184.751L96.0681 185.481L96.7581 186.331L97.2781 187.361L97.6281 188.561L97.7981 189.941L97.8981 193.601L97.7581 197.241L97.0681 202.831Z" fill="#7EAFAC"/>
<path d="M268.189 187.73L266.839 185.8L266.059 185.2L265.209 184.83L264.279 184.7H217.809L219.349 183.99L220.799 183.75L263.149 183.84L264.919 184.11L266.339 184.83L267.449 186.04L268.189 187.73Z" fill="#7EAFAC"/>
<path d="M424.649 289.74L424.789 290.86L424.589 291.51L424.229 291.72L423.989 291.38L408.439 238.84L393.009 188.06L392.309 186.52L391.279 185.44L389.959 184.81L388.329 184.61L362.889 184.69L339.579 184.44L338.229 184.54L337.099 184.89L334.869 186.22L336.109 185.14L337.799 184.37L339.949 183.91L342.539 183.75L362.539 183.73L382.539 183.75L389.019 183.91L390.239 184.31L391.299 184.92L392.169 185.68L392.899 186.62L393.979 189.03L412.919 252.35L416.369 264.24L417.029 266.31L420.279 276.88L423.699 288.84L424.239 289.51L424.649 289.74Z" fill="#7EAFAC"/>
<path d="M512.259 185.35L510.649 184.76L509.279 184.57L484.189 184.61L459.059 184.42L462.209 183.98L466.059 183.79L506.539 183.75L508.419 183.85L509.999 184.15L511.279 184.65L512.259 185.35Z" fill="#7EAFAC"/>
<path d="M459.06 184.42L484.19 184.61L509.28 184.57L510.65 184.76L512.26 185.35L512.51 185.7L513.12 187.29L513.32 188.73L513.16 259.4L513.41 347.25L513.69 348.39L514.22 348.8L515.09 348.56L516.51 348.35L517.28 348.72L518.04 348.81L519.13 348.44L530.43 348.42L532.3 348.49L533.82 348.81L534.99 349.37L535.81 350.17L536.22 351.02L536.39 352.73L535.84 354.22L535.25 354.9L534.46 355.42L533.61 355.73L532.63 355.86L528.81 355.99L10.2796 355.89L7.7196 355.71L5.50961 355.16L4.77962 353.66L4.39961 352.37L4.34961 351.29L4.64961 350.42L5.17961 349.83L5.9696 349.41L8.28961 349.02L23.4196 348.75L38.5396 348.77L51.6796 348.59L52.1896 348.74L52.2896 348.72L52.5596 348.45L52.7896 347.76L52.8296 184.96L93.6296 184.64L94.8396 184.87L95.8696 185.54L96.5596 186.56L96.8196 187.76L97.0696 202.83L97.0596 347.32L97.1696 347.78L97.5196 348.12L99.0796 348.64L101.29 348.81L135.52 348.29L139 348.63L145.44 348.77L151.92 348.31H154.03L156.52 348.79L158.89 348.64L159.87 348.38L160.29 348.13L160.51 347.75L200.76 228.7L200.94 227.72L201.36 227.08L207.96 208.06L214.28 188.96L215.3 187.12L216.15 185.72L216.86 185.16L217.81 184.7H264.28L265.21 184.83L266.06 185.2L266.84 185.8L268.19 187.73L268.25 187.68L268.42 188.02L270.8 195.6L290.14 253.71L310.77 314.35L319.71 339.88L320.95 343.48L322.13 347.59L322.55 348.29L323.29 348.66L323.74 348.73L326.37 348.85L329.08 348.42L329.07 348.39L329.51 348.33L330.25 348.59L330.85 348.27L332.19 348.78L333.33 348.7L333.73 348.5L334.07 348.13L334.31 347.51L334.51 345.48L334.71 280.93L334.6 216.36L334.87 186.22L337.1 184.89L338.23 184.54L339.58 184.44L362.89 184.69L388.33 184.61L389.96 184.81L391.28 185.44L392.31 186.52L393.01 188.06L408.44 238.84L423.99 291.38L424.23 291.72L424.59 291.51L424.79 290.86L424.65 289.74L424.68 289.48L426.94 282.68L429.87 272.89L431.56 267.2L440.68 237.23L451.52 201.23L452.61 197.51L454.32 191.73L455.74 187.73L455.77 187.66L456.48 186.45L457.69 185.1L458.07 184.71L458.7 184.41L459.06 184.42ZM225.1 286.59L224.75 286.7L224.62 286.59L224.33 287.02L224.31 287.1L224.42 287.48L224.78 287.65H257.2L257.3 287.64L257.74 287.35L257.8 286.82L241.77 236.25L241.62 235.25L241.25 234.62L241.43 234.09L241.33 233.69L240.92 233.65L240.71 233.74L240.37 234.3L237.95 243.31L230.7 266.65L224.36 286.23L224.35 286.33L225.1 286.59ZM377.06 348.85H377.18L377.83 348.65L384.8 348.86L391.76 348.8L400.81 348.33L403.42 348.68L405.04 348.67L405.66 348.34L405.8 347.71L405.52 346.76L376.75 251.46L376.58 251.01L376.55 249.38L376.08 248L375.57 247.28L375.06 246.96L374.94 247.54L375.33 260.25L375.23 347.3L375.32 348.06L375.59 348.54L375.69 348.63L376.28 348.87L377.06 348.85ZM471.13 251.69L470.43 253.96L456.81 299.4L455.62 303.3L444.46 340.32L442.3 347.78L442.29 348.44L442.56 348.77L443.11 348.62L471.68 348.51L472.01 348.49L472.29 348.33L472.4 348.02L472.54 251.61L472.38 251.16L472.39 251.08L472.77 249.5L472.7 248.02L472.57 247.54L472.39 247.25L472.23 247.55L471.13 251.69ZM208.07 339.27L205.8 346.2L205.13 347.62L205.18 348.41L205.5 348.57L206.03 348.55L208.79 348.83L234.97 348.69L263.46 348.76L269.1 348.49L271.53 348.47L274.78 348.77L275.53 348.68L276.76 348.24L277.14 348.29L277.36 348.04L277.37 347.82L268.61 320.84L268.08 320.07L267.2 319.82H215.3L214.22 320.17L213.57 321.1L208.07 339.27Z" fill="#14342F"/>
<path d="M458.07 184.711L457.69 185.101L456.48 186.451L455.77 187.661L455.74 187.731L454.32 191.731L452.61 197.511L451.52 201.231L440.68 237.231L431.56 267.201L429.87 272.891L426.94 282.681L424.68 289.481L426.88 281.061L432.02 264.101L441.12 233.671L446.9 214.531L454.43 189.391L455.11 187.651L456.03 186.151L457.05 185.141L458.07 184.711Z" fill="#7EAFAC"/>
<path d="M216.149 185.721L215.299 187.121L214.279 188.961L207.959 208.061L201.359 227.081L208.309 205.421L214.149 188.101L214.879 186.861L216.149 185.721Z" fill="#7EAFAC"/>
<path d="M515.09 348.561L514.22 348.801L513.69 348.391L513.41 347.251L513.16 259.401L513.32 188.731L513.12 187.291L512.51 185.701L513.12 186.301L513.54 187.491L513.7 194.981L513.79 345.231L514.06 347.101L514.87 348.381L515.09 348.561Z" fill="#7EAFAC"/>
<path d="M268.42 188.02L269.52 190.27L294.86 266.24L299.07 278.47L305.96 298.6L310.59 312.01L314.87 324.27L319.01 336.85L322 344.78L322.84 346.85L323.17 347.29L323.67 347.52L329.08 348.42L326.37 348.85L323.74 348.73L323.29 348.66L322.55 348.29L322.13 347.59L320.95 343.48L319.71 339.88L310.77 314.35L290.14 253.71L270.8 195.6L268.42 188.02Z" fill="#7EAFAC"/>
<path d="M333.729 348.501L333.689 283.801L333.879 219.231L334.069 217.511L334.599 216.361L334.709 280.931L334.509 345.481L334.309 347.511L334.069 348.131L333.729 348.501Z" fill="#7EAFAC"/>
<path d="M200.759 228.701L160.509 347.751L160.289 348.131L159.869 348.381L158.889 348.641L156.519 348.791L154.029 348.311L158.879 347.551L159.859 347.101L160.469 346.221L178.159 294.861L195.379 243.271L198.049 235.991L200.759 228.701Z" fill="#7EAFAC"/>
<path d="M241.25 234.62L240.38 236.23L239.87 237.57L236.36 250.05L232.3 263.7L228.03 277.29L225.1 286.59L224.35 286.33L224.36 286.23L230.7 266.65L237.95 243.31L240.37 234.3L240.71 233.74L240.92 233.65L241.33 233.69L241.43 234.09L241.25 234.62Z" fill="#7EAFAC"/>
<path d="M224.749 286.7L255.939 286.62L256.069 286.61L256.689 286.21L256.789 285.47L241.769 236.25L257.799 286.82L257.739 287.35L257.299 287.64L257.199 287.65H224.779L224.419 287.48L224.309 287.1L224.329 287.02L224.619 286.59L224.749 286.7Z" fill="#7EAFAC"/>
<path d="M376.579 251.011L376.169 251.041L375.929 251.731L375.889 263.981L375.779 346.701L376.009 347.411L377.059 348.851L376.279 348.871L375.689 348.631L375.589 348.541L375.319 348.061L375.229 347.301L375.329 260.251L374.939 247.541L375.059 246.961L375.569 247.281L376.079 248.001L376.549 249.381L376.579 251.011Z" fill="#7EAFAC"/>
<path d="M472.389 251.08L471.989 250.96L471.849 251.05L471.669 251.5L471.789 251.66L471.129 251.69L472.229 247.55L472.389 247.25L472.569 247.54L472.699 248.02L472.769 249.5L472.389 251.08Z" fill="#7EAFAC"/>
<path d="M472.54 251.611L472.4 348.021L472.29 348.331L472.01 348.491L471.68 348.511L471.79 251.661L472.54 251.611Z" fill="#7EAFAC"/>
<path d="M470.429 253.961L466.829 267.471L463.469 278.931L454.339 308.671L442.969 346.831L442.759 347.701L443.109 348.621L442.559 348.771L442.289 348.441L442.299 347.781L444.459 340.321L455.619 303.301L456.809 299.401L470.429 253.961Z" fill="#7EAFAC"/>
<path d="M276.758 348.24L268.498 322.17L268.208 321.59L267.748 321.13L267.178 320.83L266.538 320.73H214.798L214.268 320.9L213.948 321.34L208.068 339.27L213.568 321.1L214.218 320.17L215.298 319.82H267.198L268.078 320.07L268.608 320.84L277.368 347.82L277.358 348.04L277.138 348.29L276.758 348.24Z" fill="#7EAFAC"/>
<path d="M205.799 346.201L206.029 348.551L205.499 348.571L205.179 348.411L205.129 347.621L205.799 346.201Z" fill="#7EAFAC"/>
<path d="M52.7897 347.76L52.5597 348.45L52.2897 348.72L52.1897 348.74L51.6797 348.59L52.1797 348.01L52.7897 347.76Z" fill="#7EAFAC"/>
<path d="M151.92 348.311L145.44 348.771L139 348.631L135.52 348.291L140.47 347.931L145.41 347.891L151.92 348.311Z" fill="#7EAFAC"/>
<path d="M400.81 348.33L391.76 348.8L384.8 348.86L377.83 348.65L377.75 348.3L377.84 347.99L378.14 347.87L380.68 347.77L390.73 347.75L400.81 348.33Z" fill="#7EAFAC"/>
<path d="M519.13 348.441L518.04 348.811L517.28 348.721L516.51 348.351L517.33 348.071L518.11 348.051L519.13 348.441Z" fill="#7EAFAC"/>
<path d="M5.50977 355.16L7.71976 355.71L10.2798 355.89L528.81 355.99L532.63 355.86L533.61 355.73L534.46 355.42L535.25 354.9L535.84 354.22L536.39 352.73L536.22 351.02L535.81 350.17L534.99 349.37L533.82 348.81L532.3 348.49L530.43 348.42L531.83 348.16L533.17 348.21L534.46 348.57L535.7 349.24L536.21 349.7L536.65 350.62L536.82 352.01L536.64 354.05L536.33 354.87L535.87 355.51L534.99 356.14L533.89 356.5L530.25 356.71H529.51L12.0398 356.67L11.2898 356.68L9.15976 356.64L7.63977 356.43L6.41977 355.97L5.60977 355.28L5.50977 355.16Z" fill="#7EAFAC"/>
<path d="M330.85 348.27L330.25 348.59L329.51 348.33L329.69 348.28L330.85 348.27Z" fill="#7EAFAC"/>
</svg>
